<?xml version="1.0" encoding="utf-8" standalone="no"?>
<!DOCTYPE svg PUBLIC "-//W3C//DTD SVG 1.1//EN"
  "http://www.w3.org/Graphics/SVG/1.1/DTD/svg11.dtd">
<svg xmlns:xlink="http://www.w3.org/1999/xlink" width="460.8pt" height="345.6pt" viewBox="0 0 460.8 345.6" xmlns="http://www.w3.org/2000/svg" version="1.1">
 <metadata>
  <rdf:RDF xmlns:dc="http://purl.org/dc/elements/1.1/" xmlns:cc="http://creativecommons.org/ns#" xmlns:rdf="http://www.w3.org/1999/02/22-rdf-syntax-ns#">
   <cc:Work>
    <dc:type rdf:resource="http://purl.org/dc/dcmitype/StillImage"/>
    <dc:date>2022-12-09T18:36:01.678600</dc:date>
    <dc:format>image/svg+xml</dc:format>
    <dc:creator>
     <cc:Agent>
      <dc:title>Matplotlib v3.5.3, https://matplotlib.org/</dc:title>
     </cc:Agent>
    </dc:creator>
   </cc:Work>
  </rdf:RDF>
 </metadata>
 <defs>
  <style type="text/css">*{stroke-linejoin: round; stroke-linecap: butt}</style>
 </defs>
 <g id="figure_1">
  <g id="patch_1">
   <path d="M 0 345.6 
L 460.8 345.6 
L 460.8 0 
L 0 0 
z
" style="fill: #ffffff"/>
  </g>
  <g id="axes_1">
   <g id="patch_2">
    <path d="M 57.6 307.584 
L 414.72 307.584 
L 414.72 41.472 
L 57.6 41.472 
z
" style="fill: #ffffff"/>
   </g>
   <g id="matplotlib.axis_1">
    <g id="xtick_1">
     <g id="line2d_1">
      <path d="M 73.832727 307.584 
L 73.832727 41.472 
" clip-path="url(#pa5efcaac4b)" style="fill: none; stroke: #b0b0b0; stroke-width: 0.8; stroke-linecap: square"/>
     </g>
     <g id="line2d_2">
      <defs>
       <path id="m9a4a47742f" d="M 0 0 
L 0 3.5 
" style="stroke: #000000; stroke-width: 0.8"/>
      </defs>
      <g>
       <use xlink:href="#m9a4a47742f" x="73.832727" y="307.584" style="stroke: #000000; stroke-width: 0.8"/>
      </g>
     </g>
     <g id="text_1">
      <!-- 0 -->
      <g transform="translate(70.651477 322.182437)scale(0.1 -0.1)">
       <defs>
        <path id="DejaVuSans-30" d="M 2034 4250 
Q 1547 4250 1301 3770 
Q 1056 3291 1056 2328 
Q 1056 1369 1301 889 
Q 1547 409 2034 409 
Q 2525 409 2770 889 
Q 3016 1369 3016 2328 
Q 3016 3291 2770 3770 
Q 2525 4250 2034 4250 
z
M 2034 4750 
Q 2819 4750 3233 4129 
Q 3647 3509 3647 2328 
Q 3647 1150 3233 529 
Q 2819 -91 2034 -91 
Q 1250 -91 836 529 
Q 422 1150 422 2328 
Q 422 3509 836 4129 
Q 1250 4750 2034 4750 
z
" transform="scale(0.015625)"/>
       </defs>
       <use xlink:href="#DejaVuSans-30"/>
      </g>
     </g>
    </g>
    <g id="xtick_2">
     <g id="line2d_3">
      <path d="M 135.789702 307.584 
L 135.789702 41.472 
" clip-path="url(#pa5efcaac4b)" style="fill: none; stroke: #b0b0b0; stroke-width: 0.8; stroke-linecap: square"/>
     </g>
     <g id="line2d_4">
      <g>
       <use xlink:href="#m9a4a47742f" x="135.789702" y="307.584" style="stroke: #000000; stroke-width: 0.8"/>
      </g>
     </g>
     <g id="text_2">
      <!-- 100 -->
      <g transform="translate(126.245952 322.182437)scale(0.1 -0.1)">
       <defs>
        <path id="DejaVuSans-31" d="M 794 531 
L 1825 531 
L 1825 4091 
L 703 3866 
L 703 4441 
L 1819 4666 
L 2450 4666 
L 2450 531 
L 3481 531 
L 3481 0 
L 794 0 
L 794 531 
z
" transform="scale(0.015625)"/>
       </defs>
       <use xlink:href="#DejaVuSans-31"/>
       <use xlink:href="#DejaVuSans-30" x="63.623047"/>
       <use xlink:href="#DejaVuSans-30" x="127.246094"/>
      </g>
     </g>
    </g>
    <g id="xtick_3">
     <g id="line2d_5">
      <path d="M 197.746676 307.584 
L 197.746676 41.472 
" clip-path="url(#pa5efcaac4b)" style="fill: none; stroke: #b0b0b0; stroke-width: 0.8; stroke-linecap: square"/>
     </g>
     <g id="line2d_6">
      <g>
       <use xlink:href="#m9a4a47742f" x="197.746676" y="307.584" style="stroke: #000000; stroke-width: 0.8"/>
      </g>
     </g>
     <g id="text_3">
      <!-- 200 -->
      <g transform="translate(188.202926 322.182437)scale(0.1 -0.1)">
       <defs>
        <path id="DejaVuSans-32" d="M 1228 531 
L 3431 531 
L 3431 0 
L 469 0 
L 469 531 
Q 828 903 1448 1529 
Q 2069 2156 2228 2338 
Q 2531 2678 2651 2914 
Q 2772 3150 2772 3378 
Q 2772 3750 2511 3984 
Q 2250 4219 1831 4219 
Q 1534 4219 1204 4116 
Q 875 4013 500 3803 
L 500 4441 
Q 881 4594 1212 4672 
Q 1544 4750 1819 4750 
Q 2544 4750 2975 4387 
Q 3406 4025 3406 3419 
Q 3406 3131 3298 2873 
Q 3191 2616 2906 2266 
Q 2828 2175 2409 1742 
Q 1991 1309 1228 531 
z
" transform="scale(0.015625)"/>
       </defs>
       <use xlink:href="#DejaVuSans-32"/>
       <use xlink:href="#DejaVuSans-30" x="63.623047"/>
       <use xlink:href="#DejaVuSans-30" x="127.246094"/>
      </g>
     </g>
    </g>
    <g id="xtick_4">
     <g id="line2d_7">
      <path d="M 259.70365 307.584 
L 259.70365 41.472 
" clip-path="url(#pa5efcaac4b)" style="fill: none; stroke: #b0b0b0; stroke-width: 0.8; stroke-linecap: square"/>
     </g>
     <g id="line2d_8">
      <g>
       <use xlink:href="#m9a4a47742f" x="259.70365" y="307.584" style="stroke: #000000; stroke-width: 0.8"/>
      </g>
     </g>
     <g id="text_4">
      <!-- 300 -->
      <g transform="translate(250.1599 322.182437)scale(0.1 -0.1)">
       <defs>
        <path id="DejaVuSans-33" d="M 2597 2516 
Q 3050 2419 3304 2112 
Q 3559 1806 3559 1356 
Q 3559 666 3084 287 
Q 2609 -91 1734 -91 
Q 1441 -91 1130 -33 
Q 819 25 488 141 
L 488 750 
Q 750 597 1062 519 
Q 1375 441 1716 441 
Q 2309 441 2620 675 
Q 2931 909 2931 1356 
Q 2931 1769 2642 2001 
Q 2353 2234 1838 2234 
L 1294 2234 
L 1294 2753 
L 1863 2753 
Q 2328 2753 2575 2939 
Q 2822 3125 2822 3475 
Q 2822 3834 2567 4026 
Q 2313 4219 1838 4219 
Q 1578 4219 1281 4162 
Q 984 4106 628 3988 
L 628 4550 
Q 988 4650 1302 4700 
Q 1616 4750 1894 4750 
Q 2613 4750 3031 4423 
Q 3450 4097 3450 3541 
Q 3450 3153 3228 2886 
Q 3006 2619 2597 2516 
z
" transform="scale(0.015625)"/>
       </defs>
       <use xlink:href="#DejaVuSans-33"/>
       <use xlink:href="#DejaVuSans-30" x="63.623047"/>
       <use xlink:href="#DejaVuSans-30" x="127.246094"/>
      </g>
     </g>
    </g>
    <g id="xtick_5">
     <g id="line2d_9">
      <path d="M 321.660625 307.584 
L 321.660625 41.472 
" clip-path="url(#pa5efcaac4b)" style="fill: none; stroke: #b0b0b0; stroke-width: 0.8; stroke-linecap: square"/>
     </g>
     <g id="line2d_10">
      <g>
       <use xlink:href="#m9a4a47742f" x="321.660625" y="307.584" style="stroke: #000000; stroke-width: 0.8"/>
      </g>
     </g>
     <g id="text_5">
      <!-- 400 -->
      <g transform="translate(312.116875 322.182437)scale(0.1 -0.1)">
       <defs>
        <path id="DejaVuSans-34" d="M 2419 4116 
L 825 1625 
L 2419 1625 
L 2419 4116 
z
M 2253 4666 
L 3047 4666 
L 3047 1625 
L 3713 1625 
L 3713 1100 
L 3047 1100 
L 3047 0 
L 2419 0 
L 2419 1100 
L 313 1100 
L 313 1709 
L 2253 4666 
z
" transform="scale(0.015625)"/>
       </defs>
       <use xlink:href="#DejaVuSans-34"/>
       <use xlink:href="#DejaVuSans-30" x="63.623047"/>
       <use xlink:href="#DejaVuSans-30" x="127.246094"/>
      </g>
     </g>
    </g>
    <g id="xtick_6">
     <g id="line2d_11">
      <path d="M 383.617599 307.584 
L 383.617599 41.472 
" clip-path="url(#pa5efcaac4b)" style="fill: none; stroke: #b0b0b0; stroke-width: 0.8; stroke-linecap: square"/>
     </g>
     <g id="line2d_12">
      <g>
       <use xlink:href="#m9a4a47742f" x="383.617599" y="307.584" style="stroke: #000000; stroke-width: 0.8"/>
      </g>
     </g>
     <g id="text_6">
      <!-- 500 -->
      <g transform="translate(374.073849 322.182437)scale(0.1 -0.1)">
       <defs>
        <path id="DejaVuSans-35" d="M 691 4666 
L 3169 4666 
L 3169 4134 
L 1269 4134 
L 1269 2991 
Q 1406 3038 1543 3061 
Q 1681 3084 1819 3084 
Q 2600 3084 3056 2656 
Q 3513 2228 3513 1497 
Q 3513 744 3044 326 
Q 2575 -91 1722 -91 
Q 1428 -91 1123 -41 
Q 819 9 494 109 
L 494 744 
Q 775 591 1075 516 
Q 1375 441 1709 441 
Q 2250 441 2565 725 
Q 2881 1009 2881 1497 
Q 2881 1984 2565 2268 
Q 2250 2553 1709 2553 
Q 1456 2553 1204 2497 
Q 953 2441 691 2322 
L 691 4666 
z
" transform="scale(0.015625)"/>
       </defs>
       <use xlink:href="#DejaVuSans-35"/>
       <use xlink:href="#DejaVuSans-30" x="63.623047"/>
       <use xlink:href="#DejaVuSans-30" x="127.246094"/>
      </g>
     </g>
    </g>
    <g id="text_7">
     <!-- Generations -->
     <g transform="translate(205.662344 335.860562)scale(0.1 -0.1)">
      <defs>
       <path id="DejaVuSans-47" d="M 3809 666 
L 3809 1919 
L 2778 1919 
L 2778 2438 
L 4434 2438 
L 4434 434 
Q 4069 175 3628 42 
Q 3188 -91 2688 -91 
Q 1594 -91 976 548 
Q 359 1188 359 2328 
Q 359 3472 976 4111 
Q 1594 4750 2688 4750 
Q 3144 4750 3555 4637 
Q 3966 4525 4313 4306 
L 4313 3634 
Q 3963 3931 3569 4081 
Q 3175 4231 2741 4231 
Q 1884 4231 1454 3753 
Q 1025 3275 1025 2328 
Q 1025 1384 1454 906 
Q 1884 428 2741 428 
Q 3075 428 3337 486 
Q 3600 544 3809 666 
z
" transform="scale(0.015625)"/>
       <path id="DejaVuSans-65" d="M 3597 1894 
L 3597 1613 
L 953 1613 
Q 991 1019 1311 708 
Q 1631 397 2203 397 
Q 2534 397 2845 478 
Q 3156 559 3463 722 
L 3463 178 
Q 3153 47 2828 -22 
Q 2503 -91 2169 -91 
Q 1331 -91 842 396 
Q 353 884 353 1716 
Q 353 2575 817 3079 
Q 1281 3584 2069 3584 
Q 2775 3584 3186 3129 
Q 3597 2675 3597 1894 
z
M 3022 2063 
Q 3016 2534 2758 2815 
Q 2500 3097 2075 3097 
Q 1594 3097 1305 2825 
Q 1016 2553 972 2059 
L 3022 2063 
z
" transform="scale(0.015625)"/>
       <path id="DejaVuSans-6e" d="M 3513 2113 
L 3513 0 
L 2938 0 
L 2938 2094 
Q 2938 2591 2744 2837 
Q 2550 3084 2163 3084 
Q 1697 3084 1428 2787 
Q 1159 2491 1159 1978 
L 1159 0 
L 581 0 
L 581 3500 
L 1159 3500 
L 1159 2956 
Q 1366 3272 1645 3428 
Q 1925 3584 2291 3584 
Q 2894 3584 3203 3211 
Q 3513 2838 3513 2113 
z
" transform="scale(0.015625)"/>
       <path id="DejaVuSans-72" d="M 2631 2963 
Q 2534 3019 2420 3045 
Q 2306 3072 2169 3072 
Q 1681 3072 1420 2755 
Q 1159 2438 1159 1844 
L 1159 0 
L 581 0 
L 581 3500 
L 1159 3500 
L 1159 2956 
Q 1341 3275 1631 3429 
Q 1922 3584 2338 3584 
Q 2397 3584 2469 3576 
Q 2541 3569 2628 3553 
L 2631 2963 
z
" transform="scale(0.015625)"/>
       <path id="DejaVuSans-61" d="M 2194 1759 
Q 1497 1759 1228 1600 
Q 959 1441 959 1056 
Q 959 750 1161 570 
Q 1363 391 1709 391 
Q 2188 391 2477 730 
Q 2766 1069 2766 1631 
L 2766 1759 
L 2194 1759 
z
M 3341 1997 
L 3341 0 
L 2766 0 
L 2766 531 
Q 2569 213 2275 61 
Q 1981 -91 1556 -91 
Q 1019 -91 701 211 
Q 384 513 384 1019 
Q 384 1609 779 1909 
Q 1175 2209 1959 2209 
L 2766 2209 
L 2766 2266 
Q 2766 2663 2505 2880 
Q 2244 3097 1772 3097 
Q 1472 3097 1187 3025 
Q 903 2953 641 2809 
L 641 3341 
Q 956 3463 1253 3523 
Q 1550 3584 1831 3584 
Q 2591 3584 2966 3190 
Q 3341 2797 3341 1997 
z
" transform="scale(0.015625)"/>
       <path id="DejaVuSans-74" d="M 1172 4494 
L 1172 3500 
L 2356 3500 
L 2356 3053 
L 1172 3053 
L 1172 1153 
Q 1172 725 1289 603 
Q 1406 481 1766 481 
L 2356 481 
L 2356 0 
L 1766 0 
Q 1100 0 847 248 
Q 594 497 594 1153 
L 594 3053 
L 172 3053 
L 172 3500 
L 594 3500 
L 594 4494 
L 1172 4494 
z
" transform="scale(0.015625)"/>
       <path id="DejaVuSans-69" d="M 603 3500 
L 1178 3500 
L 1178 0 
L 603 0 
L 603 3500 
z
M 603 4863 
L 1178 4863 
L 1178 4134 
L 603 4134 
L 603 4863 
z
" transform="scale(0.015625)"/>
       <path id="DejaVuSans-6f" d="M 1959 3097 
Q 1497 3097 1228 2736 
Q 959 2375 959 1747 
Q 959 1119 1226 758 
Q 1494 397 1959 397 
Q 2419 397 2687 759 
Q 2956 1122 2956 1747 
Q 2956 2369 2687 2733 
Q 2419 3097 1959 3097 
z
M 1959 3584 
Q 2709 3584 3137 3096 
Q 3566 2609 3566 1747 
Q 3566 888 3137 398 
Q 2709 -91 1959 -91 
Q 1206 -91 779 398 
Q 353 888 353 1747 
Q 353 2609 779 3096 
Q 1206 3584 1959 3584 
z
" transform="scale(0.015625)"/>
       <path id="DejaVuSans-73" d="M 2834 3397 
L 2834 2853 
Q 2591 2978 2328 3040 
Q 2066 3103 1784 3103 
Q 1356 3103 1142 2972 
Q 928 2841 928 2578 
Q 928 2378 1081 2264 
Q 1234 2150 1697 2047 
L 1894 2003 
Q 2506 1872 2764 1633 
Q 3022 1394 3022 966 
Q 3022 478 2636 193 
Q 2250 -91 1575 -91 
Q 1294 -91 989 -36 
Q 684 19 347 128 
L 347 722 
Q 666 556 975 473 
Q 1284 391 1588 391 
Q 1994 391 2212 530 
Q 2431 669 2431 922 
Q 2431 1156 2273 1281 
Q 2116 1406 1581 1522 
L 1381 1569 
Q 847 1681 609 1914 
Q 372 2147 372 2553 
Q 372 3047 722 3315 
Q 1072 3584 1716 3584 
Q 2034 3584 2315 3537 
Q 2597 3491 2834 3397 
z
" transform="scale(0.015625)"/>
      </defs>
      <use xlink:href="#DejaVuSans-47"/>
      <use xlink:href="#DejaVuSans-65" x="77.490234"/>
      <use xlink:href="#DejaVuSans-6e" x="139.013672"/>
      <use xlink:href="#DejaVuSans-65" x="202.392578"/>
      <use xlink:href="#DejaVuSans-72" x="263.916016"/>
      <use xlink:href="#DejaVuSans-61" x="305.029297"/>
      <use xlink:href="#DejaVuSans-74" x="366.308594"/>
      <use xlink:href="#DejaVuSans-69" x="405.517578"/>
      <use xlink:href="#DejaVuSans-6f" x="433.300781"/>
      <use xlink:href="#DejaVuSans-6e" x="494.482422"/>
      <use xlink:href="#DejaVuSans-73" x="557.861328"/>
     </g>
    </g>
   </g>
   <g id="matplotlib.axis_2">
    <g id="ytick_1">
     <g id="line2d_13">
      <path d="M 57.6 282.006687 
L 414.72 282.006687 
" clip-path="url(#pa5efcaac4b)" style="fill: none; stroke: #b0b0b0; stroke-width: 0.8; stroke-linecap: square"/>
     </g>
     <g id="line2d_14">
      <defs>
       <path id="ma314d2fefd" d="M 0 0 
L -3.5 0 
" style="stroke: #000000; stroke-width: 0.8"/>
      </defs>
      <g>
       <use xlink:href="#ma314d2fefd" x="57.6" y="282.006687" style="stroke: #000000; stroke-width: 0.8"/>
      </g>
     </g>
     <g id="text_8">
      <!-- 0.6 -->
      <g transform="translate(34.696875 285.805906)scale(0.1 -0.1)">
       <defs>
        <path id="DejaVuSans-2e" d="M 684 794 
L 1344 794 
L 1344 0 
L 684 0 
L 684 794 
z
" transform="scale(0.015625)"/>
        <path id="DejaVuSans-36" d="M 2113 2584 
Q 1688 2584 1439 2293 
Q 1191 2003 1191 1497 
Q 1191 994 1439 701 
Q 1688 409 2113 409 
Q 2538 409 2786 701 
Q 3034 994 3034 1497 
Q 3034 2003 2786 2293 
Q 2538 2584 2113 2584 
z
M 3366 4563 
L 3366 3988 
Q 3128 4100 2886 4159 
Q 2644 4219 2406 4219 
Q 1781 4219 1451 3797 
Q 1122 3375 1075 2522 
Q 1259 2794 1537 2939 
Q 1816 3084 2150 3084 
Q 2853 3084 3261 2657 
Q 3669 2231 3669 1497 
Q 3669 778 3244 343 
Q 2819 -91 2113 -91 
Q 1303 -91 875 529 
Q 447 1150 447 2328 
Q 447 3434 972 4092 
Q 1497 4750 2381 4750 
Q 2619 4750 2861 4703 
Q 3103 4656 3366 4563 
z
" transform="scale(0.015625)"/>
       </defs>
       <use xlink:href="#DejaVuSans-30"/>
       <use xlink:href="#DejaVuSans-2e" x="63.623047"/>
       <use xlink:href="#DejaVuSans-36" x="95.410156"/>
      </g>
     </g>
    </g>
    <g id="ytick_2">
     <g id="line2d_15">
      <path d="M 57.6 241.923304 
L 414.72 241.923304 
" clip-path="url(#pa5efcaac4b)" style="fill: none; stroke: #b0b0b0; stroke-width: 0.8; stroke-linecap: square"/>
     </g>
     <g id="line2d_16">
      <g>
       <use xlink:href="#ma314d2fefd" x="57.6" y="241.923304" style="stroke: #000000; stroke-width: 0.8"/>
      </g>
     </g>
     <g id="text_9">
      <!-- 0.7 -->
      <g transform="translate(34.696875 245.722522)scale(0.1 -0.1)">
       <defs>
        <path id="DejaVuSans-37" d="M 525 4666 
L 3525 4666 
L 3525 4397 
L 1831 0 
L 1172 0 
L 2766 4134 
L 525 4134 
L 525 4666 
z
" transform="scale(0.015625)"/>
       </defs>
       <use xlink:href="#DejaVuSans-30"/>
       <use xlink:href="#DejaVuSans-2e" x="63.623047"/>
       <use xlink:href="#DejaVuSans-37" x="95.410156"/>
      </g>
     </g>
    </g>
    <g id="ytick_3">
     <g id="line2d_17">
      <path d="M 57.6 201.83992 
L 414.72 201.83992 
" clip-path="url(#pa5efcaac4b)" style="fill: none; stroke: #b0b0b0; stroke-width: 0.8; stroke-linecap: square"/>
     </g>
     <g id="line2d_18">
      <g>
       <use xlink:href="#ma314d2fefd" x="57.6" y="201.83992" style="stroke: #000000; stroke-width: 0.8"/>
      </g>
     </g>
     <g id="text_10">
      <!-- 0.8 -->
      <g transform="translate(34.696875 205.639139)scale(0.1 -0.1)">
       <defs>
        <path id="DejaVuSans-38" d="M 2034 2216 
Q 1584 2216 1326 1975 
Q 1069 1734 1069 1313 
Q 1069 891 1326 650 
Q 1584 409 2034 409 
Q 2484 409 2743 651 
Q 3003 894 3003 1313 
Q 3003 1734 2745 1975 
Q 2488 2216 2034 2216 
z
M 1403 2484 
Q 997 2584 770 2862 
Q 544 3141 544 3541 
Q 544 4100 942 4425 
Q 1341 4750 2034 4750 
Q 2731 4750 3128 4425 
Q 3525 4100 3525 3541 
Q 3525 3141 3298 2862 
Q 3072 2584 2669 2484 
Q 3125 2378 3379 2068 
Q 3634 1759 3634 1313 
Q 3634 634 3220 271 
Q 2806 -91 2034 -91 
Q 1263 -91 848 271 
Q 434 634 434 1313 
Q 434 1759 690 2068 
Q 947 2378 1403 2484 
z
M 1172 3481 
Q 1172 3119 1398 2916 
Q 1625 2713 2034 2713 
Q 2441 2713 2670 2916 
Q 2900 3119 2900 3481 
Q 2900 3844 2670 4047 
Q 2441 4250 2034 4250 
Q 1625 4250 1398 4047 
Q 1172 3844 1172 3481 
z
" transform="scale(0.015625)"/>
       </defs>
       <use xlink:href="#DejaVuSans-30"/>
       <use xlink:href="#DejaVuSans-2e" x="63.623047"/>
       <use xlink:href="#DejaVuSans-38" x="95.410156"/>
      </g>
     </g>
    </g>
    <g id="ytick_4">
     <g id="line2d_19">
      <path d="M 57.6 161.756537 
L 414.72 161.756537 
" clip-path="url(#pa5efcaac4b)" style="fill: none; stroke: #b0b0b0; stroke-width: 0.8; stroke-linecap: square"/>
     </g>
     <g id="line2d_20">
      <g>
       <use xlink:href="#ma314d2fefd" x="57.6" y="161.756537" style="stroke: #000000; stroke-width: 0.8"/>
      </g>
     </g>
     <g id="text_11">
      <!-- 0.9 -->
      <g transform="translate(34.696875 165.555755)scale(0.1 -0.1)">
       <defs>
        <path id="DejaVuSans-39" d="M 703 97 
L 703 672 
Q 941 559 1184 500 
Q 1428 441 1663 441 
Q 2288 441 2617 861 
Q 2947 1281 2994 2138 
Q 2813 1869 2534 1725 
Q 2256 1581 1919 1581 
Q 1219 1581 811 2004 
Q 403 2428 403 3163 
Q 403 3881 828 4315 
Q 1253 4750 1959 4750 
Q 2769 4750 3195 4129 
Q 3622 3509 3622 2328 
Q 3622 1225 3098 567 
Q 2575 -91 1691 -91 
Q 1453 -91 1209 -44 
Q 966 3 703 97 
z
M 1959 2075 
Q 2384 2075 2632 2365 
Q 2881 2656 2881 3163 
Q 2881 3666 2632 3958 
Q 2384 4250 1959 4250 
Q 1534 4250 1286 3958 
Q 1038 3666 1038 3163 
Q 1038 2656 1286 2365 
Q 1534 2075 1959 2075 
z
" transform="scale(0.015625)"/>
       </defs>
       <use xlink:href="#DejaVuSans-30"/>
       <use xlink:href="#DejaVuSans-2e" x="63.623047"/>
       <use xlink:href="#DejaVuSans-39" x="95.410156"/>
      </g>
     </g>
    </g>
    <g id="ytick_5">
     <g id="line2d_21">
      <path d="M 57.6 121.673153 
L 414.72 121.673153 
" clip-path="url(#pa5efcaac4b)" style="fill: none; stroke: #b0b0b0; stroke-width: 0.8; stroke-linecap: square"/>
     </g>
     <g id="line2d_22">
      <g>
       <use xlink:href="#ma314d2fefd" x="57.6" y="121.673153" style="stroke: #000000; stroke-width: 0.8"/>
      </g>
     </g>
     <g id="text_12">
      <!-- 1.0 -->
      <g transform="translate(34.696875 125.472372)scale(0.1 -0.1)">
       <use xlink:href="#DejaVuSans-31"/>
       <use xlink:href="#DejaVuSans-2e" x="63.623047"/>
       <use xlink:href="#DejaVuSans-30" x="95.410156"/>
      </g>
     </g>
    </g>
    <g id="ytick_6">
     <g id="line2d_23">
      <path d="M 57.6 81.58977 
L 414.72 81.58977 
" clip-path="url(#pa5efcaac4b)" style="fill: none; stroke: #b0b0b0; stroke-width: 0.8; stroke-linecap: square"/>
     </g>
     <g id="line2d_24">
      <g>
       <use xlink:href="#ma314d2fefd" x="57.6" y="81.58977" style="stroke: #000000; stroke-width: 0.8"/>
      </g>
     </g>
     <g id="text_13">
      <!-- 1.1 -->
      <g transform="translate(34.696875 85.388988)scale(0.1 -0.1)">
       <use xlink:href="#DejaVuSans-31"/>
       <use xlink:href="#DejaVuSans-2e" x="63.623047"/>
       <use xlink:href="#DejaVuSans-31" x="95.410156"/>
      </g>
     </g>
    </g>
    <g id="ytick_7">
     <g id="line2d_25">
      <path d="M 57.6 41.506386 
L 414.72 41.506386 
" clip-path="url(#pa5efcaac4b)" style="fill: none; stroke: #b0b0b0; stroke-width: 0.8; stroke-linecap: square"/>
     </g>
     <g id="line2d_26">
      <g>
       <use xlink:href="#ma314d2fefd" x="57.6" y="41.506386" style="stroke: #000000; stroke-width: 0.8"/>
      </g>
     </g>
     <g id="text_14">
      <!-- 1.2 -->
      <g transform="translate(34.696875 45.305605)scale(0.1 -0.1)">
       <use xlink:href="#DejaVuSans-31"/>
       <use xlink:href="#DejaVuSans-2e" x="63.623047"/>
       <use xlink:href="#DejaVuSans-32" x="95.410156"/>
      </g>
     </g>
    </g>
    <g id="text_15">
     <!-- Fitness -->
     <g transform="translate(28.617187 191.845187)rotate(-90)scale(0.1 -0.1)">
      <defs>
       <path id="DejaVuSans-46" d="M 628 4666 
L 3309 4666 
L 3309 4134 
L 1259 4134 
L 1259 2759 
L 3109 2759 
L 3109 2228 
L 1259 2228 
L 1259 0 
L 628 0 
L 628 4666 
z
" transform="scale(0.015625)"/>
      </defs>
      <use xlink:href="#DejaVuSans-46"/>
      <use xlink:href="#DejaVuSans-69" x="50.269531"/>
      <use xlink:href="#DejaVuSans-74" x="78.052734"/>
      <use xlink:href="#DejaVuSans-6e" x="117.261719"/>
      <use xlink:href="#DejaVuSans-65" x="180.640625"/>
      <use xlink:href="#DejaVuSans-73" x="242.164062"/>
      <use xlink:href="#DejaVuSans-73" x="294.263672"/>
     </g>
    </g>
    <g id="text_16">
     <!-- 1e8 -->
     <g transform="translate(57.6 38.472)scale(0.1 -0.1)">
      <use xlink:href="#DejaVuSans-31"/>
      <use xlink:href="#DejaVuSans-65" x="63.623047"/>
      <use xlink:href="#DejaVuSans-38" x="125.146484"/>
     </g>
    </g>
   </g>
   <g id="line2d_27">
    <path d="M 73.832727 295.488 
L 74.452297 271.976859 
L 75.071867 242.690601 
L 75.691437 219.037388 
L 76.311006 209.971138 
L 76.930576 215.75366 
L 77.550146 211.663453 
L 78.169715 208.419413 
L 78.789285 197.885183 
L 79.408855 179.552139 
L 80.028425 204.920296 
L 80.647994 190.00313 
L 81.267564 183.185414 
L 81.887134 178.910459 
L 82.506704 199.857648 
L 83.126273 194.77544 
L 83.745843 188.184091 
L 84.365413 195.108591 
L 84.984983 191.466694 
L 85.604552 182.873 
L 86.224122 182.181081 
L 86.843692 177.700161 
L 87.463262 195.291795 
L 88.082831 190.339666 
L 88.702401 206.303207 
L 89.321971 198.306926 
L 89.941541 201.894728 
L 90.56111 209.373798 
L 91.18068 195.305077 
L 91.80025 205.783132 
L 92.41982 208.89166 
L 93.039389 188.964186 
L 93.658959 180.755468 
L 94.278529 180.279226 
L 94.898099 190.226941 
L 95.517668 194.939329 
L 96.137238 180.548215 
L 96.756808 192.296274 
L 97.376378 193.646537 
L 97.995947 203.406127 
L 98.615517 189.534093 
L 99.235087 197.691257 
L 99.854656 200.64665 
L 100.474226 184.804226 
L 101.093796 178.596622 
L 101.713366 184.829818 
L 102.332935 186.075353 
L 102.952505 188.776563 
L 103.572075 175.140471 
L 104.191645 172.668197 
L 104.811214 191.341283 
L 105.430784 176.480549 
L 106.050354 198.853831 
L 106.669924 178.599149 
L 107.289493 189.687001 
L 107.909063 206.467749 
L 108.528633 189.005803 
L 109.148203 197.69372 
L 109.767772 200.029628 
L 110.387342 199.81774 
L 111.006912 191.174215 
L 111.626482 185.40336 
L 112.246051 193.734259 
L 112.865621 195.631643 
L 113.485191 185.601926 
L 114.104761 196.629473 
L 114.72433 204.239264 
L 115.3439 201.496769 
L 115.96347 194.056347 
L 116.58304 189.105035 
L 117.202609 193.394891 
L 117.822179 196.424987 
L 118.441749 194.186686 
L 119.680888 203.57616 
L 120.300458 186.540937 
L 120.920028 188.680426 
L 121.539598 211.506795 
L 122.159167 191.378962 
L 122.778737 180.334351 
L 123.398307 177.548994 
L 124.017876 202.703541 
L 125.257016 186.251853 
L 126.496155 192.958026 
L 127.115725 181.730503 
L 127.735295 209.712927 
L 128.354865 205.256423 
L 128.974434 220.802343 
L 129.594004 196.983265 
L 130.213574 209.12842 
L 130.833144 202.098438 
L 131.452713 201.125007 
L 132.072283 202.351511 
L 132.691853 206.826734 
L 133.930992 208.956533 
L 134.550562 198.601414 
L 135.170132 204.416074 
L 135.789702 191.771325 
L 136.409271 207.333885 
L 137.028841 212.091065 
L 137.648411 213.381286 
L 138.267981 205.901812 
L 138.88755 215.694505 
L 139.50712 198.871126 
L 140.12669 221.333507 
L 140.74626 205.781641 
L 141.365829 208.901826 
L 141.985399 193.493651 
L 142.604969 189.76519 
L 143.224539 190.168293 
L 143.844108 218.885511 
L 144.463678 192.488393 
L 145.083248 207.308185 
L 145.702817 196.217898 
L 146.322387 193.530035 
L 146.941957 205.550111 
L 147.561527 196.72212 
L 148.181096 180.85908 
L 148.800666 183.736389 
L 149.420236 176.665624 
L 150.039806 180.106553 
L 150.659375 191.405103 
L 151.278945 192.162044 
L 151.898515 178.626061 
L 152.518085 199.513921 
L 153.137654 184.977092 
L 153.757224 197.367599 
L 154.376794 187.675931 
L 154.996364 190.090941 
L 155.615933 193.397381 
L 156.235503 186.599789 
L 156.855073 201.442273 
L 157.474643 191.393911 
L 158.094212 192.801465 
L 158.713782 192.956021 
L 159.333352 205.805379 
L 159.952922 179.848899 
L 160.572491 206.220603 
L 161.192061 179.535133 
L 161.811631 201.296432 
L 162.431201 176.155863 
L 163.05077 179.585042 
L 163.67034 201.162266 
L 164.28991 183.832374 
L 164.90948 180.616379 
L 165.529049 175.985653 
L 166.148619 173.19335 
L 166.768189 200.36506 
L 167.387759 193.027227 
L 168.007328 189.328211 
L 168.626898 180.757466 
L 169.246468 186.567583 
L 169.866037 174.991407 
L 170.485607 176.426838 
L 171.105177 209.06813 
L 171.724747 191.988139 
L 172.344316 206.738268 
L 172.963886 180.753975 
L 173.583456 193.434261 
L 174.203026 190.041731 
L 174.822595 207.553059 
L 175.442165 198.704508 
L 176.061735 193.263499 
L 176.681305 201.870387 
L 177.300874 206.995951 
L 177.920444 183.814624 
L 178.540014 187.040575 
L 179.159584 203.81452 
L 180.398723 185.855723 
L 181.018293 172.312884 
L 181.637863 178.695228 
L 182.257432 209.463811 
L 182.877002 194.377154 
L 183.496572 186.771759 
L 184.116142 185.857484 
L 184.735711 198.839957 
L 185.355281 170.018134 
L 185.974851 205.175958 
L 186.594421 192.386889 
L 187.21399 189.624694 
L 187.83356 188.993269 
L 188.45313 174.702217 
L 189.0727 188.416518 
L 189.692269 194.592277 
L 190.311839 186.470057 
L 190.931409 195.918565 
L 191.550978 180.891735 
L 192.170548 177.483205 
L 193.409688 202.476785 
L 194.029257 183.128272 
L 194.648827 178.637198 
L 195.268397 180.564349 
L 195.887967 179.468733 
L 196.507536 192.136512 
L 197.127106 193.953411 
L 197.746676 187.632703 
L 198.366246 179.314194 
L 198.985815 173.507184 
L 199.605385 181.730976 
L 200.844525 174.263422 
L 202.083664 180.537753 
L 202.703234 174.866119 
L 203.322804 182.937864 
L 203.942373 180.607671 
L 204.561943 192.33791 
L 205.181513 177.262775 
L 205.801083 189.365999 
L 206.420652 176.155012 
L 207.040222 172.005874 
L 207.659792 177.069795 
L 208.279362 178.199307 
L 208.898931 182.157286 
L 209.518501 193.410934 
L 210.138071 210.341586 
L 210.757641 193.197777 
L 211.37721 185.372053 
L 211.99678 179.924451 
L 212.61635 170.990373 
L 213.23592 155.528328 
L 213.855489 184.451227 
L 214.475059 171.115007 
L 215.094629 194.307369 
L 215.714198 164.484605 
L 216.333768 182.111601 
L 216.953338 167.597769 
L 218.192477 195.25776 
L 218.812047 165.073353 
L 220.051187 185.040977 
L 220.670756 181.004497 
L 221.290326 191.341105 
L 221.909896 165.299635 
L 222.529466 174.843996 
L 223.149035 180.191866 
L 223.768605 183.351184 
L 224.388175 157.59511 
L 225.007745 176.210737 
L 225.627314 190.779498 
L 226.246884 182.310963 
L 226.866454 197.079388 
L 227.486024 178.155705 
L 228.105593 184.35406 
L 228.725163 172.63767 
L 229.344733 166.479933 
L 229.964303 163.680997 
L 231.203442 178.33432 
L 231.823012 178.396924 
L 232.442582 156.697994 
L 233.062151 172.149274 
L 233.681721 194.148888 
L 234.301291 178.195984 
L 234.920861 166.694003 
L 235.54043 182.301837 
L 236.16 164.165165 
L 236.77957 172.939543 
L 237.399139 193.257922 
L 238.018709 187.114146 
L 238.638279 172.608104 
L 239.257849 176.610923 
L 239.877418 184.73552 
L 240.496988 177.483105 
L 241.116558 180.820947 
L 241.736128 177.271 
L 242.355697 197.53257 
L 242.975267 177.94769 
L 243.594837 184.907748 
L 244.214407 205.211441 
L 244.833976 187.569723 
L 245.453546 183.990461 
L 246.073116 166.44871 
L 246.692686 171.142068 
L 247.312255 181.381823 
L 247.931825 180.83012 
L 248.551395 190.298494 
L 249.170965 186.997251 
L 249.790534 172.653518 
L 250.410104 181.330156 
L 251.029674 170.324531 
L 251.649244 171.335688 
L 252.268813 170.177816 
L 252.888383 173.616734 
L 253.507953 183.938405 
L 254.127523 172.566171 
L 254.747092 201.289465 
L 255.366662 189.278606 
L 255.986232 191.364274 
L 256.605802 201.302246 
L 257.225371 176.229095 
L 257.844941 184.308406 
L 258.464511 194.45801 
L 259.08408 180.036426 
L 259.70365 186.784075 
L 260.32322 173.135971 
L 260.94279 194.814805 
L 261.562359 176.650547 
L 262.181929 178.645891 
L 262.801499 174.460905 
L 263.421069 181.880282 
L 264.040638 175.99256 
L 264.660208 165.47409 
L 265.279778 167.288596 
L 265.899348 180.767799 
L 266.518917 174.12242 
L 267.138487 181.580816 
L 267.758057 179.265571 
L 268.377627 172.503949 
L 268.997196 203.847488 
L 269.616766 169.777933 
L 270.236336 169.592817 
L 270.855906 172.700711 
L 271.475475 184.429592 
L 272.095045 185.822834 
L 272.714615 180.768853 
L 273.334185 157.554132 
L 273.953754 170.897437 
L 274.573324 170.289741 
L 275.192894 162.211788 
L 275.812464 169.862166 
L 276.432033 160.073579 
L 277.051603 179.696183 
L 277.671173 171.333609 
L 278.290743 171.239645 
L 278.910312 162.4929 
L 279.529882 181.481261 
L 280.149452 181.412198 
L 280.769022 202.288473 
L 281.388591 169.974785 
L 282.008161 171.395121 
L 282.627731 180.908053 
L 283.86687 169.834103 
L 284.48644 168.68679 
L 285.10601 171.640817 
L 285.725579 172.58864 
L 286.345149 157.622254 
L 286.964719 188.302051 
L 287.584289 192.122778 
L 288.203858 165.60437 
L 288.823428 170.114217 
L 289.442998 171.24527 
L 290.062568 170.039045 
L 290.682137 179.006607 
L 291.301707 174.876888 
L 291.921277 172.407978 
L 292.540847 159.246296 
L 293.160416 174.068395 
L 293.779986 195.255082 
L 294.399556 185.056742 
L 295.019126 181.790164 
L 295.638695 173.424054 
L 296.258265 177.76846 
L 296.877835 175.731502 
L 297.497405 191.900764 
L 298.116974 186.505809 
L 298.736544 160.491853 
L 299.356114 181.458611 
L 299.975684 177.800627 
L 300.595253 173.402261 
L 301.214823 187.088833 
L 301.834393 185.001669 
L 302.453963 170.917161 
L 303.073532 193.701548 
L 303.693102 184.62313 
L 304.312672 181.150368 
L 304.932241 173.818893 
L 305.551811 161.485914 
L 306.171381 173.313358 
L 306.790951 160.597275 
L 307.41052 177.023245 
L 308.03009 171.443736 
L 308.64966 153.411906 
L 309.26923 157.487961 
L 309.888799 186.65553 
L 310.508369 183.574255 
L 311.127939 182.478032 
L 311.747509 178.7898 
L 312.367078 177.947023 
L 312.986648 203.655548 
L 313.606218 172.635312 
L 314.225788 197.627397 
L 314.845357 183.746044 
L 315.464927 182.763829 
L 316.084497 186.711028 
L 316.704067 173.092397 
L 317.323636 174.64947 
L 317.943206 175.544851 
L 318.562776 154.268362 
L 319.182346 165.378089 
L 319.801915 186.941652 
L 320.421485 149.405503 
L 321.660625 173.41167 
L 322.280194 168.80173 
L 322.899764 166.950733 
L 323.519334 188.032809 
L 324.138904 166.216771 
L 324.758473 179.218634 
L 325.378043 175.8857 
L 325.997613 184.904312 
L 326.617183 177.250241 
L 327.236752 181.57035 
L 327.856322 156.696253 
L 328.475892 172.708031 
L 329.095461 173.501616 
L 329.715031 188.693637 
L 330.334601 172.188416 
L 330.954171 175.822519 
L 331.57374 188.417693 
L 332.19331 187.783691 
L 332.81288 176.36084 
L 333.43245 175.145323 
L 334.052019 176.289814 
L 334.671589 188.681361 
L 335.291159 187.852953 
L 335.910729 182.106957 
L 336.530298 171.967422 
L 337.149868 169.947872 
L 337.769438 178.94646 
L 338.389008 190.316928 
L 339.008577 185.344027 
L 339.628147 170.436433 
L 340.247717 205.554002 
L 340.867287 182.669501 
L 341.486856 181.021938 
L 342.106426 166.921517 
L 342.725996 200.419092 
L 343.345566 167.514011 
L 343.965135 178.605017 
L 344.584705 177.830806 
L 345.204275 185.895982 
L 345.823845 172.17493 
L 346.443414 172.216315 
L 347.062984 191.688704 
L 348.302124 172.263656 
L 348.921693 191.898728 
L 349.541263 194.86571 
L 350.160833 186.7969 
L 352.019542 168.063428 
L 352.639112 170.578478 
L 353.878251 185.408285 
L 354.497821 191.459152 
L 355.117391 180.032096 
L 355.73696 201.244452 
L 356.35653 203.02822 
L 356.9761 184.484482 
L 357.59567 195.188084 
L 358.215239 188.129485 
L 359.454379 182.700627 
L 360.073949 196.212414 
L 360.693518 188.030905 
L 361.313088 190.336786 
L 361.932658 184.463558 
L 362.552228 160.481248 
L 363.171797 192.041293 
L 363.791367 166.86347 
L 364.410937 173.359198 
L 365.030507 182.547115 
L 365.650076 180.625597 
L 366.269646 195.813964 
L 366.889216 197.578167 
L 367.508786 204.623962 
L 368.128355 172.967863 
L 368.747925 168.5144 
L 369.367495 182.679876 
L 369.987065 187.208342 
L 370.606634 175.884296 
L 371.226204 194.266028 
L 371.845774 182.470588 
L 372.465344 195.359459 
L 373.704483 185.915797 
L 374.324053 199.582151 
L 374.943622 187.107208 
L 375.563192 190.108552 
L 376.182762 175.240849 
L 376.802332 153.047434 
L 377.421901 167.445973 
L 378.041471 186.243548 
L 378.661041 177.392322 
L 379.280611 179.23419 
L 379.90018 186.064227 
L 380.51975 179.392004 
L 381.13932 206.856592 
L 381.75889 184.04511 
L 382.378459 176.657988 
L 382.998029 200.005145 
L 383.617599 182.829391 
L 384.237169 184.633917 
L 384.856738 192.916804 
L 385.476308 185.183504 
L 386.095878 195.069405 
L 386.715448 190.602502 
L 387.335017 183.967233 
L 387.954587 187.851165 
L 388.574157 170.131382 
L 389.193727 186.640766 
L 389.813296 186.661998 
L 390.432866 182.193386 
L 391.052436 185.32495 
L 391.672006 196.971043 
L 392.291575 179.08033 
L 392.911145 202.220389 
L 393.530715 201.199546 
L 394.150285 184.47107 
L 394.769854 186.787905 
L 395.389424 177.458668 
L 396.008994 187.244924 
L 396.628563 179.671899 
L 397.248133 201.215673 
L 397.867703 190.76563 
L 398.487273 175.480622 
L 398.487273 175.480622 
" clip-path="url(#pa5efcaac4b)" style="fill: none; stroke: #0000ff; stroke-width: 1.5; stroke-linecap: square"/>
   </g>
   <g id="line2d_28">
    <path d="M 73.832727 215.257926 
L 75.691437 129.940735 
L 76.311006 113.23624 
L 76.930576 123.576322 
L 77.550146 113.221161 
L 78.169715 111.635924 
L 78.789285 104.883598 
L 79.408855 94.387444 
L 80.028425 107.683301 
L 80.647994 95.25093 
L 81.267564 93.383893 
L 81.887134 99.226536 
L 82.506704 107.302372 
L 83.126273 100.023838 
L 84.365413 97.374258 
L 84.984983 99.969638 
L 85.604552 90.51303 
L 86.224122 101.350382 
L 86.843692 104.519138 
L 87.463262 103.40065 
L 88.082831 109.626619 
L 88.702401 100.92307 
L 89.321971 109.972015 
L 89.941541 102.171492 
L 90.56111 98.878534 
L 91.18068 96.952296 
L 91.80025 106.55135 
L 92.41982 104.851125 
L 93.039389 110.157751 
L 93.658959 87.136863 
L 94.278529 98.94679 
L 94.898099 97.918375 
L 95.517668 114.562761 
L 96.137238 94.327199 
L 96.756808 98.408214 
L 97.376378 90.208687 
L 97.995947 104.480251 
L 98.615517 89.8661 
L 99.235087 102.198733 
L 99.854656 105.171209 
L 100.474226 94.471068 
L 101.093796 91.82212 
L 101.713366 105.789283 
L 102.332935 87.31117 
L 102.952505 89.92989 
L 103.572075 95.097851 
L 104.191645 81.526731 
L 104.811214 100.988307 
L 105.430784 95.611247 
L 106.050354 101.184645 
L 106.669924 104.974341 
L 107.289493 98.765374 
L 107.909063 127.399508 
L 108.528633 98.049345 
L 109.148203 88.83273 
L 109.767772 88.678568 
L 110.387342 86.597216 
L 111.006912 99.915517 
L 111.626482 105.677676 
L 112.246051 103.594082 
L 112.865621 103.219846 
L 113.485191 95.635978 
L 114.104761 99.830089 
L 114.72433 101.212609 
L 115.3439 88.122333 
L 115.96347 113.482051 
L 116.58304 109.550459 
L 117.202609 95.567396 
L 117.822179 89.416566 
L 118.441749 96.407397 
L 119.061319 105.756748 
L 119.680888 103.453892 
L 120.920028 88.148166 
L 121.539598 116.04852 
L 122.159167 100.025822 
L 123.398307 91.544094 
L 124.017876 98.667079 
L 124.637446 102.181133 
L 125.257016 95.334193 
L 125.876586 86.812262 
L 126.496155 96.890181 
L 127.115725 95.359816 
L 127.735295 108.730703 
L 128.354865 110.998081 
L 128.974434 108.899706 
L 129.594004 89.388818 
L 130.213574 108.184037 
L 130.833144 113.169497 
L 131.452713 102.495318 
L 132.072283 116.782041 
L 132.691853 106.221273 
L 133.311423 122.945502 
L 133.930992 114.127699 
L 134.550562 116.863147 
L 135.170132 105.58826 
L 135.789702 105.70008 
L 136.409271 122.102502 
L 137.028841 107.700005 
L 137.648411 115.948096 
L 138.267981 115.642991 
L 138.88755 117.48546 
L 139.50712 116.097129 
L 140.12669 117.666421 
L 140.74626 112.867946 
L 141.365829 109.105245 
L 141.985399 117.881622 
L 142.604969 102.778795 
L 143.224539 103.350726 
L 143.844108 117.82763 
L 144.463678 102.223795 
L 145.083248 95.036233 
L 145.702817 99.432586 
L 146.322387 109.049031 
L 146.941957 111.330096 
L 147.561527 110.390056 
L 148.181096 85.128791 
L 148.800666 97.164546 
L 149.420236 99.425649 
L 150.039806 80.565118 
L 150.659375 109.036414 
L 151.278945 80.618294 
L 151.898515 91.838538 
L 152.518085 94.999992 
L 153.137654 100.785771 
L 153.757224 110.124858 
L 154.376794 88.265436 
L 154.996364 89.682961 
L 155.615933 90.062094 
L 156.235503 86.452749 
L 156.855073 95.785772 
L 157.474643 101.79669 
L 158.094212 92.2902 
L 158.713782 91.790461 
L 159.333352 110.776981 
L 159.952922 99.519468 
L 160.572491 104.650357 
L 161.192061 87.493395 
L 161.811631 94.191522 
L 162.431201 78.621006 
L 163.05077 100.135639 
L 163.67034 97.687125 
L 164.28991 88.736819 
L 164.90948 86.854546 
L 165.529049 75.284654 
L 166.768189 94.361894 
L 167.387759 82.09623 
L 168.007328 95.392742 
L 168.626898 82.508407 
L 169.246468 94.515771 
L 169.866037 98.264623 
L 170.485607 94.583643 
L 171.105177 115.679938 
L 171.724747 89.581201 
L 172.344316 99.178726 
L 172.963886 96.642689 
L 173.583456 96.531148 
L 174.203026 96.931954 
L 174.822595 101.447737 
L 175.442165 97.977491 
L 176.061735 98.475029 
L 176.681305 91.253869 
L 177.300874 96.051124 
L 177.920444 92.833103 
L 178.540014 106.021336 
L 179.159584 100.787533 
L 179.779153 102.196791 
L 180.398723 91.67923 
L 181.018293 85.525764 
L 182.257432 98.744196 
L 182.877002 93.813791 
L 183.496572 91.404091 
L 184.116142 93.5608 
L 185.355281 97.013267 
L 185.974851 100.320813 
L 186.594421 92.38567 
L 187.21399 99.535854 
L 187.83356 99.851421 
L 188.45313 81.22787 
L 189.0727 85.832501 
L 189.692269 97.010942 
L 190.311839 103.055823 
L 190.931409 103.857624 
L 191.550978 93.251967 
L 192.170548 85.998251 
L 192.790118 90.807945 
L 193.409688 92.932661 
L 194.029257 82.794061 
L 194.648827 89.51367 
L 195.268397 89.480211 
L 195.887967 85.115519 
L 196.507536 91.976999 
L 197.127106 101.10393 
L 197.746676 97.783357 
L 198.366246 80.553047 
L 198.985815 85.199848 
L 199.605385 99.725952 
L 200.224955 91.689422 
L 200.844525 85.980266 
L 201.464094 74.12683 
L 202.083664 81.755179 
L 202.703234 87.811739 
L 203.322804 91.525767 
L 203.942373 90.157254 
L 204.561943 89.060582 
L 205.181513 79.090884 
L 205.801083 86.218463 
L 206.420652 87.38455 
L 207.040222 80.802726 
L 207.659792 86.588035 
L 208.279362 89.030351 
L 208.898931 86.718923 
L 209.518501 93.889333 
L 210.138071 103.089024 
L 210.757641 88.701153 
L 211.37721 84.09907 
L 211.99678 90.868183 
L 212.61635 85.018628 
L 213.23592 74.892003 
L 213.855489 74.822031 
L 214.475059 85.34877 
L 215.094629 91.323449 
L 215.714198 79.130115 
L 216.333768 85.478304 
L 216.953338 82.356092 
L 217.572908 73.55804 
L 218.192477 104.30864 
L 218.812047 66.448646 
L 219.431617 74.655106 
L 220.051187 76.151035 
L 220.670756 91.671013 
L 221.290326 89.835751 
L 221.909896 68.894588 
L 222.529466 78.517466 
L 223.149035 72.149113 
L 223.768605 95.98798 
L 224.388175 78.071151 
L 225.007745 72.551349 
L 225.627314 102.072511 
L 226.246884 102.344947 
L 226.866454 92.084801 
L 227.486024 77.960745 
L 228.105593 86.660315 
L 228.725163 75.958605 
L 229.344733 76.077666 
L 229.964303 76.322814 
L 230.583872 72.837564 
L 231.203442 80.86389 
L 231.823012 73.225594 
L 232.442582 73.351138 
L 233.062151 69.496532 
L 233.681721 76.130606 
L 234.301291 86.618242 
L 234.920861 75.704737 
L 235.54043 103.300543 
L 236.16 82.382356 
L 236.77957 83.11666 
L 237.399139 98.091302 
L 238.018709 89.008012 
L 238.638279 87.038428 
L 239.257849 76.348124 
L 239.877418 87.818312 
L 240.496988 90.362771 
L 241.736128 98.094814 
L 242.355697 95.544239 
L 242.975267 81.142906 
L 243.594837 86.542519 
L 244.214407 99.891445 
L 244.833976 88.732302 
L 246.073116 75.996066 
L 246.692686 77.013945 
L 247.312255 75.619565 
L 247.931825 81.0111 
L 248.551395 104.303616 
L 249.170965 92.731319 
L 249.790534 87.98998 
L 250.410104 79.472833 
L 251.029674 89.066873 
L 251.649244 88.871195 
L 252.268813 78.968449 
L 252.888383 80.748172 
L 253.507953 89.073701 
L 254.127523 83.445192 
L 254.747092 105.671985 
L 255.986232 78.448692 
L 256.605802 88.237276 
L 257.225371 94.008731 
L 257.844941 88.581176 
L 258.464511 99.144583 
L 259.08408 84.612386 
L 259.70365 96.844969 
L 260.32322 74.732908 
L 260.94279 95.233097 
L 261.562359 77.019786 
L 262.181929 78.264023 
L 262.801499 70.644833 
L 263.421069 89.75459 
L 264.040638 90.969773 
L 264.660208 96.420927 
L 265.279778 80.395661 
L 265.899348 81.682128 
L 266.518917 88.819653 
L 267.138487 80.877912 
L 267.758057 87.01505 
L 268.377627 80.896196 
L 268.997196 85.548271 
L 269.616766 76.167944 
L 270.236336 77.707958 
L 270.855906 71.324923 
L 271.475475 76.225444 
L 272.095045 82.477654 
L 272.714615 91.159414 
L 273.334185 71.99123 
L 273.953754 74.732217 
L 274.573324 73.616233 
L 275.192894 74.046876 
L 275.812464 71.07891 
L 276.432033 81.537967 
L 277.051603 74.524338 
L 277.671173 87.184038 
L 278.290743 69.039581 
L 278.910312 71.616484 
L 279.529882 91.523616 
L 280.149452 81.179694 
L 280.769022 84.549732 
L 281.388591 91.885032 
L 282.008161 86.206907 
L 282.627731 92.361138 
L 283.2473 91.956277 
L 283.86687 89.490083 
L 284.48644 77.060996 
L 285.10601 82.46521 
L 285.725579 76.991126 
L 286.345149 90.091385 
L 286.964719 86.886922 
L 287.584289 91.338622 
L 288.203858 81.217918 
L 288.823428 87.862946 
L 289.442998 79.277505 
L 290.062568 78.566659 
L 290.682137 94.087015 
L 291.301707 93.549076 
L 291.921277 84.385335 
L 292.540847 72.424457 
L 293.779986 93.207732 
L 294.399556 90.485663 
L 295.019126 82.005482 
L 295.638695 89.314225 
L 296.258265 91.26506 
L 296.877835 94.702944 
L 297.497405 83.056047 
L 298.116974 75.141891 
L 298.736544 83.003721 
L 299.356114 89.181888 
L 299.975684 80.574328 
L 300.595253 76.256703 
L 301.214823 84.702889 
L 301.834393 74.324096 
L 302.453963 73.465598 
L 303.073532 100.74597 
L 303.693102 93.727316 
L 304.312672 73.256593 
L 304.932241 83.819468 
L 305.551811 80.564136 
L 306.171381 72.109094 
L 306.790951 89.709284 
L 307.41052 78.684447 
L 308.03009 74.020398 
L 308.64966 74.096176 
L 309.888799 89.757912 
L 310.508369 83.017991 
L 311.127939 81.58992 
L 311.747509 69.123673 
L 312.367078 70.93135 
L 312.986648 102.655567 
L 313.606218 71.686977 
L 314.225788 81.567425 
L 314.845357 86.444383 
L 315.464927 95.520041 
L 316.084497 93.604513 
L 316.704067 87.130425 
L 317.323636 76.166294 
L 317.943206 81.240644 
L 318.562776 76.648603 
L 319.182346 68.823447 
L 319.801915 79.884273 
L 320.421485 53.568 
L 321.041055 66.446397 
L 321.660625 65.936504 
L 322.280194 80.708528 
L 322.899764 74.96354 
L 323.519334 82.723349 
L 324.138904 74.392243 
L 324.758473 82.047219 
L 325.378043 80.220432 
L 325.997613 72.892598 
L 326.617183 85.203596 
L 327.236752 84.64743 
L 327.856322 85.138386 
L 328.475892 73.531946 
L 329.095461 79.808705 
L 329.715031 80.747745 
L 330.334601 80.528141 
L 330.954171 88.047062 
L 331.57374 87.216255 
L 332.19331 89.909069 
L 333.43245 75.786691 
L 334.052019 83.348279 
L 334.671589 89.415069 
L 335.291159 102.416108 
L 335.910729 86.300156 
L 336.530298 78.806062 
L 337.149868 77.713005 
L 337.769438 96.83726 
L 338.389008 81.06519 
L 339.628147 87.66567 
L 340.247717 92.001865 
L 340.867287 91.658506 
L 341.486856 88.305176 
L 342.106426 84.306255 
L 342.725996 96.366588 
L 343.345566 80.232676 
L 343.965135 73.368562 
L 344.584705 76.173432 
L 345.204275 87.543272 
L 345.823845 74.877686 
L 346.443414 85.035885 
L 347.062984 85.409357 
L 347.682554 89.364748 
L 348.302124 81.034124 
L 348.921693 82.580355 
L 349.541263 82.729742 
L 350.160833 91.058965 
L 350.780402 96.255725 
L 351.399972 87.257674 
L 352.019542 80.853628 
L 352.639112 100.365533 
L 353.258681 99.362585 
L 353.878251 95.806077 
L 355.117391 83.78962 
L 355.73696 101.638371 
L 356.35653 105.549001 
L 356.9761 94.539828 
L 357.59567 91.291088 
L 358.215239 93.238124 
L 358.834809 96.50985 
L 360.073949 89.975679 
L 360.693518 99.793765 
L 361.313088 85.174842 
L 361.932658 88.908748 
L 362.552228 81.772085 
L 363.171797 94.20294 
L 363.791367 79.857817 
L 364.410937 85.511823 
L 365.030507 99.540101 
L 365.650076 92.449033 
L 366.269646 92.754859 
L 366.889216 104.926717 
L 367.508786 97.39742 
L 368.128355 79.133009 
L 368.747925 84.504144 
L 369.987065 92.121578 
L 370.606634 89.929242 
L 371.226204 89.391472 
L 371.845774 87.597886 
L 372.465344 93.331734 
L 373.084913 88.367071 
L 373.704483 89.758445 
L 374.324053 85.34031 
L 374.943622 90.31877 
L 375.563192 90.047094 
L 376.182762 76.180658 
L 376.802332 86.262633 
L 377.421901 87.828212 
L 378.041471 81.980784 
L 378.661041 83.507737 
L 379.280611 84.386403 
L 380.51975 96.319598 
L 381.13932 92.268035 
L 381.75889 76.651995 
L 382.378459 95.490276 
L 382.998029 88.891719 
L 383.617599 91.670128 
L 384.237169 83.190076 
L 384.856738 83.979948 
L 385.476308 80.038229 
L 386.095878 96.950347 
L 386.715448 95.109242 
L 387.335017 90.00432 
L 388.574157 75.490206 
L 389.193727 72.1039 
L 389.813296 77.126344 
L 390.432866 83.717628 
L 391.052436 100.819834 
L 391.672006 112.264326 
L 392.291575 85.572798 
L 392.911145 99.70655 
L 393.530715 97.842185 
L 394.150285 93.932264 
L 394.769854 96.843438 
L 395.389424 92.036644 
L 396.008994 85.289739 
L 396.628563 83.384551 
L 397.248133 82.656608 
L 397.867703 89.19066 
L 398.487273 79.600696 
L 398.487273 79.600696 
" clip-path="url(#pa5efcaac4b)" style="fill: none; stroke-dasharray: 9.6,2.4,1.5,2.4; stroke-dashoffset: 0; stroke: #008000; stroke-width: 1.5"/>
   </g>
   <g id="line2d_29">
    <path d="M 73.832727 102.792942 
L 74.452297 103.324957 
L 75.071867 87.345373 
L 76.311006 90.758747 
L 76.930576 88.75491 
L 77.550146 87.435427 
L 78.169715 85.360672 
L 78.789285 88.7244 
L 79.408855 87.07692 
L 80.028425 86.730544 
L 80.647994 84.53527 
L 81.267564 84.781076 
L 81.887134 82.200504 
L 82.506704 81.096677 
L 83.126273 84.524459 
L 83.745843 88.763215 
L 84.365413 87.299541 
L 84.984983 87.91971 
L 85.604552 86.383902 
L 86.224122 87.460829 
L 86.843692 82.273922 
L 87.463262 87.539089 
L 88.082831 85.937342 
L 88.702401 86.96269 
L 89.321971 81.529617 
L 89.941541 86.752741 
L 90.56111 84.598057 
L 91.18068 86.592463 
L 91.80025 90.898247 
L 92.41982 86.975659 
L 93.039389 89.031985 
L 93.658959 89.663738 
L 94.278529 84.521774 
L 94.898099 84.538354 
L 95.517668 93.05488 
L 96.137238 84.509036 
L 96.756808 89.234582 
L 97.376378 88.255258 
L 97.995947 84.618707 
L 98.615517 82.06123 
L 99.235087 84.765788 
L 99.854656 85.861213 
L 100.474226 85.173666 
L 101.093796 86.597639 
L 101.713366 83.067482 
L 102.332935 86.967717 
L 102.952505 85.080922 
L 103.572075 86.866844 
L 104.191645 82.736995 
L 104.811214 85.569473 
L 105.430784 86.503881 
L 106.050354 88.040634 
L 106.669924 82.340617 
L 107.289493 85.935003 
L 107.909063 88.559255 
L 108.528633 87.791803 
L 110.387342 83.180128 
L 111.006912 82.05454 
L 111.626482 88.046411 
L 112.246051 88.570619 
L 112.865621 85.411859 
L 113.485191 83.711058 
L 114.104761 84.491268 
L 114.72433 93.056763 
L 115.3439 81.30629 
L 115.96347 82.022725 
L 116.58304 86.537753 
L 117.202609 85.099524 
L 117.822179 84.116436 
L 118.441749 86.449353 
L 119.061319 85.162041 
L 119.680888 84.504044 
L 120.300458 86.239751 
L 120.920028 83.305986 
L 121.539598 86.249456 
L 122.159167 83.775577 
L 122.778737 82.308108 
L 123.398307 83.938894 
L 124.017876 86.43517 
L 124.637446 86.752422 
L 125.257016 84.479104 
L 125.876586 83.412138 
L 126.496155 84.481845 
L 127.115725 81.238958 
L 127.735295 82.711731 
L 128.354865 81.495877 
L 128.974434 81.334267 
L 129.594004 82.062721 
L 130.213574 82.268844 
L 130.833144 84.35587 
L 131.452713 82.909111 
L 132.072283 85.071939 
L 132.691853 82.398321 
L 133.311423 84.96404 
L 133.930992 82.023799 
L 134.550562 81.288306 
L 135.170132 82.193985 
L 135.789702 85.580215 
L 136.409271 82.015132 
L 137.028841 85.195972 
L 137.648411 85.545902 
L 138.267981 85.415737 
L 138.88755 86.344966 
L 139.50712 87.624147 
L 140.12669 83.301971 
L 140.74626 82.328627 
L 141.365829 84.896772 
L 141.985399 86.209787 
L 142.604969 86.751428 
L 143.224539 82.991475 
L 143.844108 87.528202 
L 144.463678 82.617784 
L 145.083248 86.943018 
L 145.702817 85.225947 
L 146.322387 84.880444 
L 146.941957 86.191654 
L 147.561527 83.207528 
L 148.181096 85.180279 
L 148.800666 81.879681 
L 149.420236 83.211853 
L 150.039806 81.720954 
L 150.659375 83.424508 
L 151.278945 81.539144 
L 151.898515 84.021945 
L 152.518085 87.820696 
L 153.137654 84.053111 
L 153.757224 87.227823 
L 154.376794 82.194907 
L 154.996364 83.125465 
L 155.615933 82.116159 
L 156.235503 83.563599 
L 156.855073 88.054204 
L 157.474643 83.597406 
L 158.094212 81.980774 
L 158.713782 82.953576 
L 159.333352 83.279561 
L 159.952922 87.228002 
L 160.572491 85.52207 
L 161.192061 84.726528 
L 161.811631 85.503538 
L 162.431201 83.382524 
L 163.05077 84.286842 
L 163.67034 84.069583 
L 164.28991 82.165692 
L 164.90948 84.734902 
L 165.529049 83.147075 
L 166.148619 87.889091 
L 166.768189 87.891324 
L 167.387759 81.997469 
L 168.007328 86.599665 
L 168.626898 83.051739 
L 169.246468 84.386678 
L 170.485607 82.569698 
L 171.105177 86.342199 
L 171.724747 85.077148 
L 172.344316 86.728211 
L 172.963886 82.982936 
L 173.583456 83.964479 
L 174.203026 83.492182 
L 174.822595 81.522729 
L 175.442165 85.42185 
L 176.061735 86.003811 
L 176.681305 84.015121 
L 177.300874 84.077127 
L 177.920444 84.714781 
L 178.540014 88.277155 
L 179.159584 83.342144 
L 179.779153 81.588754 
L 180.398723 82.454754 
L 181.018293 82.279766 
L 181.637863 81.833791 
L 182.257432 80.96129 
L 182.877002 83.913126 
L 183.496572 84.234397 
L 184.116142 86.433499 
L 184.735711 87.185577 
L 185.355281 83.460359 
L 185.974851 87.955895 
L 186.594421 81.419961 
L 187.21399 83.814271 
L 187.83356 83.408522 
L 188.45313 86.599068 
L 189.0727 81.512525 
L 189.692269 85.740447 
L 190.311839 82.675122 
L 190.931409 81.903915 
L 191.550978 84.352289 
L 192.170548 81.177425 
L 192.790118 84.814715 
L 193.409688 85.921835 
L 194.029257 82.767759 
L 194.648827 86.564419 
L 195.268397 87.078505 
L 195.887967 81.877002 
L 196.507536 83.45109 
L 197.127106 83.75563 
L 197.746676 85.098949 
L 198.366246 83.107581 
L 198.985815 84.918215 
L 199.605385 85.00809 
L 200.224955 81.920892 
L 200.844525 83.143049 
L 201.464094 83.560629 
L 202.083664 86.349571 
L 202.703234 85.836143 
L 203.322804 82.967489 
L 203.942373 82.008413 
L 204.561943 85.766685 
L 205.181513 80.766435 
L 205.801083 83.065675 
L 206.420652 83.570055 
L 207.040222 85.559288 
L 207.659792 88.196155 
L 208.279362 83.079367 
L 208.898931 82.296036 
L 210.138071 86.654905 
L 210.757641 83.142213 
L 211.37721 83.366034 
L 211.99678 84.505768 
L 212.61635 81.740509 
L 213.23592 83.557226 
L 213.855489 81.932604 
L 214.475059 82.879269 
L 215.094629 86.188077 
L 215.714198 84.469222 
L 216.333768 85.174763 
L 216.953338 85.711574 
L 217.572908 83.65802 
L 218.192477 82.814765 
L 218.812047 81.749002 
L 219.431617 85.112789 
L 220.051187 82.836016 
L 220.670756 84.807761 
L 221.290326 84.208766 
L 221.909896 83.332965 
L 222.529466 85.305943 
L 223.149035 81.385805 
L 223.768605 84.358526 
L 224.388175 82.04268 
L 225.007745 81.488186 
L 225.627314 83.168035 
L 226.246884 81.644943 
L 226.866454 83.416564 
L 227.486024 82.227094 
L 228.105593 87.432268 
L 228.725163 83.118135 
L 229.344733 84.93546 
L 229.964303 83.769134 
L 230.583872 82.05789 
L 231.203442 81.375364 
L 231.823012 84.396083 
L 232.442582 86.246208 
L 233.062151 81.782665 
L 233.681721 81.768152 
L 234.301291 83.547148 
L 234.920861 81.806492 
L 235.54043 82.701255 
L 236.16 85.226715 
L 236.77957 82.859405 
L 238.018709 81.269972 
L 238.638279 82.925834 
L 239.257849 82.130962 
L 240.496988 82.448191 
L 241.116558 84.228119 
L 241.736128 81.155526 
L 242.355697 85.461013 
L 242.975267 83.268712 
L 244.214407 82.619864 
L 244.833976 83.172534 
L 245.453546 83.935722 
L 246.073116 83.092656 
L 246.692686 82.98977 
L 247.312255 84.507849 
L 247.931825 83.358792 
L 248.551395 81.589098 
L 249.170965 83.621095 
L 249.790534 82.065402 
L 250.410104 85.698181 
L 251.029674 82.863357 
L 252.268813 83.784225 
L 252.888383 83.595207 
L 253.507953 82.434987 
L 254.127523 82.539341 
L 255.366662 83.800099 
L 255.986232 83.902973 
L 256.605802 81.359928 
L 257.225371 82.126945 
L 257.844941 82.267671 
L 258.464511 85.699591 
L 259.08408 81.23076 
L 259.70365 83.565839 
L 260.32322 82.875599 
L 260.94279 86.440659 
L 262.181929 83.040304 
L 262.801499 83.173126 
L 263.421069 81.261136 
L 264.040638 84.499666 
L 264.660208 82.474844 
L 265.279778 82.940872 
L 265.899348 82.151464 
L 266.518917 83.825526 
L 267.138487 81.754115 
L 267.758057 83.546298 
L 268.377627 82.565111 
L 268.997196 82.365779 
L 269.616766 83.335473 
L 270.236336 81.406736 
L 270.855906 81.920074 
L 271.475475 84.245684 
L 272.714615 80.907933 
L 273.334185 83.871463 
L 273.953754 83.760099 
L 274.573324 82.06595 
L 275.192894 81.765477 
L 275.812464 82.831443 
L 276.432033 82.18846 
L 277.051603 84.074617 
L 277.671173 84.775915 
L 278.290743 86.865622 
L 278.910312 82.278385 
L 279.529882 81.973337 
L 280.149452 81.85263 
L 280.769022 85.73194 
L 282.008161 82.91849 
L 282.627731 84.725818 
L 283.2473 81.395078 
L 283.86687 82.931786 
L 284.48644 82.416477 
L 285.10601 83.785897 
L 285.725579 81.409533 
L 286.345149 82.413132 
L 286.964719 83.180882 
L 287.584289 85.810195 
L 288.203858 82.933398 
L 290.062568 81.143893 
L 290.682137 85.067119 
L 291.301707 81.023136 
L 291.921277 83.084191 
L 292.540847 81.784838 
L 293.160416 82.240412 
L 293.779986 86.05395 
L 294.399556 85.738047 
L 295.019126 81.676911 
L 295.638695 82.288008 
L 296.258265 81.197345 
L 296.877835 82.662897 
L 297.497405 82.265335 
L 298.736544 83.918952 
L 299.356114 81.875421 
L 299.975684 85.500364 
L 301.214823 82.714475 
L 301.834393 80.47137 
L 302.453963 82.267538 
L 303.073532 82.619699 
L 303.693102 82.56102 
L 304.312672 83.154713 
L 304.932241 84.888698 
L 305.551811 83.987504 
L 306.171381 82.027865 
L 306.790951 82.386458 
L 307.41052 84.793205 
L 308.03009 84.556662 
L 308.64966 81.725706 
L 309.26923 85.766253 
L 309.888799 85.108433 
L 310.508369 85.319862 
L 311.127939 83.561604 
L 311.747509 80.61317 
L 312.367078 82.121035 
L 312.986648 82.875225 
L 314.225788 81.069051 
L 314.845357 82.930411 
L 315.464927 84.211514 
L 316.084497 81.43683 
L 316.704067 84.397824 
L 317.323636 81.651669 
L 317.943206 85.285469 
L 318.562776 80.571781 
L 319.801915 83.959424 
L 320.421485 82.246526 
L 321.041055 83.311127 
L 321.660625 82.126512 
L 322.280194 82.908903 
L 323.519334 82.780858 
L 324.138904 81.620091 
L 324.758473 82.49585 
L 325.378043 85.660602 
L 325.997613 84.280532 
L 326.617183 88.16689 
L 327.236752 81.943467 
L 327.856322 81.691611 
L 328.475892 83.398408 
L 329.095461 82.018878 
L 330.334601 84.111651 
L 330.954171 84.838381 
L 331.57374 84.484865 
L 332.19331 83.613143 
L 332.81288 85.973712 
L 333.43245 82.115768 
L 334.052019 85.087113 
L 334.671589 82.33588 
L 335.291159 82.325792 
L 335.910729 84.106279 
L 336.530298 82.356102 
L 337.149868 81.648914 
L 337.769438 82.017101 
L 338.389008 82.225468 
L 339.008577 87.849723 
L 339.628147 81.640984 
L 340.247717 83.440678 
L 340.867287 82.846611 
L 341.486856 83.701696 
L 342.106426 81.717015 
L 342.725996 82.635618 
L 343.345566 82.273027 
L 343.965135 84.065799 
L 344.584705 82.865171 
L 345.204275 83.244306 
L 345.823845 82.839019 
L 346.443414 84.511474 
L 347.062984 81.644408 
L 347.682554 81.470053 
L 348.302124 82.467076 
L 348.921693 86.496822 
L 349.541263 84.842832 
L 350.160833 82.854733 
L 350.780402 84.456943 
L 351.399972 83.59266 
L 352.019542 82.167985 
L 352.639112 82.476586 
L 353.258681 85.911785 
L 353.878251 83.844007 
L 354.497821 82.829851 
L 355.117391 83.618561 
L 355.73696 82.549184 
L 356.35653 84.53558 
L 356.9761 84.319449 
L 357.59567 82.019313 
L 358.215239 85.623307 
L 358.834809 83.506294 
L 359.454379 82.670336 
L 360.073949 80.902805 
L 360.693518 83.345574 
L 361.313088 82.336643 
L 361.932658 82.52784 
L 362.552228 86.022047 
L 363.171797 80.974923 
L 363.791367 86.448961 
L 364.410937 84.625561 
L 365.030507 81.449247 
L 365.650076 82.632542 
L 366.269646 84.845471 
L 366.889216 84.627706 
L 367.508786 83.081754 
L 368.747925 82.55485 
L 369.367495 83.312499 
L 369.987065 83.52994 
L 370.606634 85.941972 
L 371.226204 82.711156 
L 371.845774 80.887496 
L 372.465344 82.013025 
L 373.084913 82.853447 
L 373.704483 81.597284 
L 374.324053 83.8526 
L 374.943622 82.445981 
L 376.182762 81.51519 
L 376.802332 82.504035 
L 377.421901 81.025551 
L 378.661041 83.548576 
L 379.280611 83.820943 
L 379.90018 81.742885 
L 380.51975 85.052378 
L 381.13932 81.814285 
L 381.75889 84.921776 
L 382.378459 84.303151 
L 382.998029 86.660786 
L 383.617599 82.608801 
L 384.237169 81.73298 
L 384.856738 81.257159 
L 385.476308 81.985543 
L 386.095878 80.583237 
L 386.715448 82.912829 
L 387.335017 83.812502 
L 387.954587 81.751974 
L 388.574157 84.11587 
L 389.813296 84.018176 
L 390.432866 81.798292 
L 391.052436 81.12093 
L 391.672006 80.859356 
L 392.291575 81.920628 
L 392.911145 83.69587 
L 393.530715 83.02758 
L 394.150285 81.994275 
L 394.769854 82.223887 
L 395.389424 86.616235 
L 396.008994 82.333795 
L 396.628563 82.724821 
L 397.248133 82.108795 
L 397.867703 82.732525 
L 398.487273 85.505567 
L 398.487273 85.505567 
" clip-path="url(#pa5efcaac4b)" style="fill: none; stroke: #ff0000; stroke-width: 1.5; stroke-linecap: square"/>
   </g>
   <g id="patch_3">
    <path d="M 57.6 307.584 
L 57.6 41.472 
" style="fill: none; stroke: #000000; stroke-width: 0.8; stroke-linejoin: miter; stroke-linecap: square"/>
   </g>
   <g id="patch_4">
    <path d="M 414.72 307.584 
L 414.72 41.472 
" style="fill: none; stroke: #000000; stroke-width: 0.8; stroke-linejoin: miter; stroke-linecap: square"/>
   </g>
   <g id="patch_5">
    <path d="M 57.6 307.584 
L 414.72 307.584 
" style="fill: none; stroke: #000000; stroke-width: 0.8; stroke-linejoin: miter; stroke-linecap: square"/>
   </g>
   <g id="patch_6">
    <path d="M 57.6 41.472 
L 414.72 41.472 
" style="fill: none; stroke: #000000; stroke-width: 0.8; stroke-linejoin: miter; stroke-linecap: square"/>
   </g>
   <g id="text_17">
    <!-- Population's average and best fitness -->
    <g transform="translate(123.529687 35.472)scale(0.12 -0.12)">
     <defs>
      <path id="DejaVuSans-50" d="M 1259 4147 
L 1259 2394 
L 2053 2394 
Q 2494 2394 2734 2622 
Q 2975 2850 2975 3272 
Q 2975 3691 2734 3919 
Q 2494 4147 2053 4147 
L 1259 4147 
z
M 628 4666 
L 2053 4666 
Q 2838 4666 3239 4311 
Q 3641 3956 3641 3272 
Q 3641 2581 3239 2228 
Q 2838 1875 2053 1875 
L 1259 1875 
L 1259 0 
L 628 0 
L 628 4666 
z
" transform="scale(0.015625)"/>
      <path id="DejaVuSans-70" d="M 1159 525 
L 1159 -1331 
L 581 -1331 
L 581 3500 
L 1159 3500 
L 1159 2969 
Q 1341 3281 1617 3432 
Q 1894 3584 2278 3584 
Q 2916 3584 3314 3078 
Q 3713 2572 3713 1747 
Q 3713 922 3314 415 
Q 2916 -91 2278 -91 
Q 1894 -91 1617 61 
Q 1341 213 1159 525 
z
M 3116 1747 
Q 3116 2381 2855 2742 
Q 2594 3103 2138 3103 
Q 1681 3103 1420 2742 
Q 1159 2381 1159 1747 
Q 1159 1113 1420 752 
Q 1681 391 2138 391 
Q 2594 391 2855 752 
Q 3116 1113 3116 1747 
z
" transform="scale(0.015625)"/>
      <path id="DejaVuSans-75" d="M 544 1381 
L 544 3500 
L 1119 3500 
L 1119 1403 
Q 1119 906 1312 657 
Q 1506 409 1894 409 
Q 2359 409 2629 706 
Q 2900 1003 2900 1516 
L 2900 3500 
L 3475 3500 
L 3475 0 
L 2900 0 
L 2900 538 
Q 2691 219 2414 64 
Q 2138 -91 1772 -91 
Q 1169 -91 856 284 
Q 544 659 544 1381 
z
M 1991 3584 
L 1991 3584 
z
" transform="scale(0.015625)"/>
      <path id="DejaVuSans-6c" d="M 603 4863 
L 1178 4863 
L 1178 0 
L 603 0 
L 603 4863 
z
" transform="scale(0.015625)"/>
      <path id="DejaVuSans-27" d="M 1147 4666 
L 1147 2931 
L 616 2931 
L 616 4666 
L 1147 4666 
z
" transform="scale(0.015625)"/>
      <path id="DejaVuSans-20" transform="scale(0.015625)"/>
      <path id="DejaVuSans-76" d="M 191 3500 
L 800 3500 
L 1894 563 
L 2988 3500 
L 3597 3500 
L 2284 0 
L 1503 0 
L 191 3500 
z
" transform="scale(0.015625)"/>
      <path id="DejaVuSans-67" d="M 2906 1791 
Q 2906 2416 2648 2759 
Q 2391 3103 1925 3103 
Q 1463 3103 1205 2759 
Q 947 2416 947 1791 
Q 947 1169 1205 825 
Q 1463 481 1925 481 
Q 2391 481 2648 825 
Q 2906 1169 2906 1791 
z
M 3481 434 
Q 3481 -459 3084 -895 
Q 2688 -1331 1869 -1331 
Q 1566 -1331 1297 -1286 
Q 1028 -1241 775 -1147 
L 775 -588 
Q 1028 -725 1275 -790 
Q 1522 -856 1778 -856 
Q 2344 -856 2625 -561 
Q 2906 -266 2906 331 
L 2906 616 
Q 2728 306 2450 153 
Q 2172 0 1784 0 
Q 1141 0 747 490 
Q 353 981 353 1791 
Q 353 2603 747 3093 
Q 1141 3584 1784 3584 
Q 2172 3584 2450 3431 
Q 2728 3278 2906 2969 
L 2906 3500 
L 3481 3500 
L 3481 434 
z
" transform="scale(0.015625)"/>
      <path id="DejaVuSans-64" d="M 2906 2969 
L 2906 4863 
L 3481 4863 
L 3481 0 
L 2906 0 
L 2906 525 
Q 2725 213 2448 61 
Q 2172 -91 1784 -91 
Q 1150 -91 751 415 
Q 353 922 353 1747 
Q 353 2572 751 3078 
Q 1150 3584 1784 3584 
Q 2172 3584 2448 3432 
Q 2725 3281 2906 2969 
z
M 947 1747 
Q 947 1113 1208 752 
Q 1469 391 1925 391 
Q 2381 391 2643 752 
Q 2906 1113 2906 1747 
Q 2906 2381 2643 2742 
Q 2381 3103 1925 3103 
Q 1469 3103 1208 2742 
Q 947 2381 947 1747 
z
" transform="scale(0.015625)"/>
      <path id="DejaVuSans-62" d="M 3116 1747 
Q 3116 2381 2855 2742 
Q 2594 3103 2138 3103 
Q 1681 3103 1420 2742 
Q 1159 2381 1159 1747 
Q 1159 1113 1420 752 
Q 1681 391 2138 391 
Q 2594 391 2855 752 
Q 3116 1113 3116 1747 
z
M 1159 2969 
Q 1341 3281 1617 3432 
Q 1894 3584 2278 3584 
Q 2916 3584 3314 3078 
Q 3713 2572 3713 1747 
Q 3713 922 3314 415 
Q 2916 -91 2278 -91 
Q 1894 -91 1617 61 
Q 1341 213 1159 525 
L 1159 0 
L 581 0 
L 581 4863 
L 1159 4863 
L 1159 2969 
z
" transform="scale(0.015625)"/>
      <path id="DejaVuSans-66" d="M 2375 4863 
L 2375 4384 
L 1825 4384 
Q 1516 4384 1395 4259 
Q 1275 4134 1275 3809 
L 1275 3500 
L 2222 3500 
L 2222 3053 
L 1275 3053 
L 1275 0 
L 697 0 
L 697 3053 
L 147 3053 
L 147 3500 
L 697 3500 
L 697 3744 
Q 697 4328 969 4595 
Q 1241 4863 1831 4863 
L 2375 4863 
z
" transform="scale(0.015625)"/>
     </defs>
     <use xlink:href="#DejaVuSans-50"/>
     <use xlink:href="#DejaVuSans-6f" x="56.677734"/>
     <use xlink:href="#DejaVuSans-70" x="117.859375"/>
     <use xlink:href="#DejaVuSans-75" x="181.335938"/>
     <use xlink:href="#DejaVuSans-6c" x="244.714844"/>
     <use xlink:href="#DejaVuSans-61" x="272.498047"/>
     <use xlink:href="#DejaVuSans-74" x="333.777344"/>
     <use xlink:href="#DejaVuSans-69" x="372.986328"/>
     <use xlink:href="#DejaVuSans-6f" x="400.769531"/>
     <use xlink:href="#DejaVuSans-6e" x="461.951172"/>
     <use xlink:href="#DejaVuSans-27" x="525.330078"/>
     <use xlink:href="#DejaVuSans-73" x="552.820312"/>
     <use xlink:href="#DejaVuSans-20" x="604.919922"/>
     <use xlink:href="#DejaVuSans-61" x="636.707031"/>
     <use xlink:href="#DejaVuSans-76" x="697.986328"/>
     <use xlink:href="#DejaVuSans-65" x="757.166016"/>
     <use xlink:href="#DejaVuSans-72" x="818.689453"/>
     <use xlink:href="#DejaVuSans-61" x="859.802734"/>
     <use xlink:href="#DejaVuSans-67" x="921.082031"/>
     <use xlink:href="#DejaVuSans-65" x="984.558594"/>
     <use xlink:href="#DejaVuSans-20" x="1046.082031"/>
     <use xlink:href="#DejaVuSans-61" x="1077.869141"/>
     <use xlink:href="#DejaVuSans-6e" x="1139.148438"/>
     <use xlink:href="#DejaVuSans-64" x="1202.527344"/>
     <use xlink:href="#DejaVuSans-20" x="1266.003906"/>
     <use xlink:href="#DejaVuSans-62" x="1297.791016"/>
     <use xlink:href="#DejaVuSans-65" x="1361.267578"/>
     <use xlink:href="#DejaVuSans-73" x="1422.791016"/>
     <use xlink:href="#DejaVuSans-74" x="1474.890625"/>
     <use xlink:href="#DejaVuSans-20" x="1514.099609"/>
     <use xlink:href="#DejaVuSans-66" x="1545.886719"/>
     <use xlink:href="#DejaVuSans-69" x="1581.091797"/>
     <use xlink:href="#DejaVuSans-74" x="1608.875"/>
     <use xlink:href="#DejaVuSans-6e" x="1648.083984"/>
     <use xlink:href="#DejaVuSans-65" x="1711.462891"/>
     <use xlink:href="#DejaVuSans-73" x="1772.986328"/>
     <use xlink:href="#DejaVuSans-73" x="1825.085938"/>
    </g>
   </g>
   <g id="legend_1">
    <g id="patch_7">
     <path d="M 334.779375 302.584 
L 407.72 302.584 
Q 409.72 302.584 409.72 300.584 
L 409.72 257.549625 
Q 409.72 255.549625 407.72 255.549625 
L 334.779375 255.549625 
Q 332.779375 255.549625 332.779375 257.549625 
L 332.779375 300.584 
Q 332.779375 302.584 334.779375 302.584 
z
" style="fill: #ffffff; opacity: 0.8; stroke: #cccccc; stroke-linejoin: miter"/>
    </g>
    <g id="line2d_30">
     <path d="M 336.779375 263.648062 
L 346.779375 263.648062 
L 356.779375 263.648062 
" style="fill: none; stroke: #0000ff; stroke-width: 1.5; stroke-linecap: square"/>
    </g>
    <g id="text_18">
     <!-- average -->
     <g transform="translate(364.779375 267.148062)scale(0.1 -0.1)">
      <use xlink:href="#DejaVuSans-61"/>
      <use xlink:href="#DejaVuSans-76" x="61.279297"/>
      <use xlink:href="#DejaVuSans-65" x="120.458984"/>
      <use xlink:href="#DejaVuSans-72" x="181.982422"/>
      <use xlink:href="#DejaVuSans-61" x="223.095703"/>
      <use xlink:href="#DejaVuSans-67" x="284.375"/>
      <use xlink:href="#DejaVuSans-65" x="347.851562"/>
     </g>
    </g>
    <g id="line2d_31">
     <path d="M 336.779375 278.326188 
L 346.779375 278.326188 
L 356.779375 278.326188 
" style="fill: none; stroke-dasharray: 9.6,2.4,1.5,2.4; stroke-dashoffset: 0; stroke: #008000; stroke-width: 1.5"/>
    </g>
    <g id="text_19">
     <!-- +1 sd -->
     <g transform="translate(364.779375 281.826188)scale(0.1 -0.1)">
      <defs>
       <path id="DejaVuSans-2b" d="M 2944 4013 
L 2944 2272 
L 4684 2272 
L 4684 1741 
L 2944 1741 
L 2944 0 
L 2419 0 
L 2419 1741 
L 678 1741 
L 678 2272 
L 2419 2272 
L 2419 4013 
L 2944 4013 
z
" transform="scale(0.015625)"/>
      </defs>
      <use xlink:href="#DejaVuSans-2b"/>
      <use xlink:href="#DejaVuSans-31" x="83.789062"/>
      <use xlink:href="#DejaVuSans-20" x="147.412109"/>
      <use xlink:href="#DejaVuSans-73" x="179.199219"/>
      <use xlink:href="#DejaVuSans-64" x="231.298828"/>
     </g>
    </g>
    <g id="line2d_32">
     <path d="M 336.779375 293.004312 
L 346.779375 293.004312 
L 356.779375 293.004312 
" style="fill: none; stroke: #ff0000; stroke-width: 1.5; stroke-linecap: square"/>
    </g>
    <g id="text_20">
     <!-- best -->
     <g transform="translate(364.779375 296.504312)scale(0.1 -0.1)">
      <use xlink:href="#DejaVuSans-62"/>
      <use xlink:href="#DejaVuSans-65" x="63.476562"/>
      <use xlink:href="#DejaVuSans-73" x="125"/>
      <use xlink:href="#DejaVuSans-74" x="177.099609"/>
     </g>
    </g>
   </g>
  </g>
 </g>
 <defs>
  <clipPath id="pa5efcaac4b">
   <rect x="57.6" y="41.472" width="357.12" height="266.112"/>
  </clipPath>
 </defs>
</svg>
