<?xml version="1.0" encoding="utf-8" standalone="no"?>
<!DOCTYPE svg PUBLIC "-//W3C//DTD SVG 1.1//EN"
  "http://www.w3.org/Graphics/SVG/1.1/DTD/svg11.dtd">
<svg xmlns:xlink="http://www.w3.org/1999/xlink" width="460.8pt" height="345.6pt" viewBox="0 0 460.8 345.6" xmlns="http://www.w3.org/2000/svg" version="1.1">
 <metadata>
  <rdf:RDF xmlns:dc="http://purl.org/dc/elements/1.1/" xmlns:cc="http://creativecommons.org/ns#" xmlns:rdf="http://www.w3.org/1999/02/22-rdf-syntax-ns#">
   <cc:Work>
    <dc:type rdf:resource="http://purl.org/dc/dcmitype/StillImage"/>
    <dc:date>2022-12-09T00:22:51.821719</dc:date>
    <dc:format>image/svg+xml</dc:format>
    <dc:creator>
     <cc:Agent>
      <dc:title>Matplotlib v3.5.3, https://matplotlib.org/</dc:title>
     </cc:Agent>
    </dc:creator>
   </cc:Work>
  </rdf:RDF>
 </metadata>
 <defs>
  <style type="text/css">*{stroke-linejoin: round; stroke-linecap: butt}</style>
 </defs>
 <g id="figure_1">
  <g id="patch_1">
   <path d="M 0 345.6 
L 460.8 345.6 
L 460.8 0 
L 0 0 
z
" style="fill: #ffffff"/>
  </g>
  <g id="axes_1">
   <g id="patch_2">
    <path d="M 57.6 307.584 
L 414.72 307.584 
L 414.72 41.472 
L 57.6 41.472 
z
" style="fill: #ffffff"/>
   </g>
   <g id="matplotlib.axis_1">
    <g id="xtick_1">
     <g id="line2d_1">
      <path d="M 73.832727 307.584 
L 73.832727 41.472 
" clip-path="url(#p041c372c44)" style="fill: none; stroke: #b0b0b0; stroke-width: 0.8; stroke-linecap: square"/>
     </g>
     <g id="line2d_2">
      <defs>
       <path id="m1157aab180" d="M 0 0 
L 0 3.5 
" style="stroke: #000000; stroke-width: 0.8"/>
      </defs>
      <g>
       <use xlink:href="#m1157aab180" x="73.832727" y="307.584" style="stroke: #000000; stroke-width: 0.8"/>
      </g>
     </g>
     <g id="text_1">
      <!-- 0 -->
      <g transform="translate(70.651477 322.182437)scale(0.1 -0.1)">
       <defs>
        <path id="DejaVuSans-30" d="M 2034 4250 
Q 1547 4250 1301 3770 
Q 1056 3291 1056 2328 
Q 1056 1369 1301 889 
Q 1547 409 2034 409 
Q 2525 409 2770 889 
Q 3016 1369 3016 2328 
Q 3016 3291 2770 3770 
Q 2525 4250 2034 4250 
z
M 2034 4750 
Q 2819 4750 3233 4129 
Q 3647 3509 3647 2328 
Q 3647 1150 3233 529 
Q 2819 -91 2034 -91 
Q 1250 -91 836 529 
Q 422 1150 422 2328 
Q 422 3509 836 4129 
Q 1250 4750 2034 4750 
z
" transform="scale(0.015625)"/>
       </defs>
       <use xlink:href="#DejaVuSans-30"/>
      </g>
     </g>
    </g>
    <g id="xtick_2">
     <g id="line2d_3">
      <path d="M 124.244924 307.584 
L 124.244924 41.472 
" clip-path="url(#p041c372c44)" style="fill: none; stroke: #b0b0b0; stroke-width: 0.8; stroke-linecap: square"/>
     </g>
     <g id="line2d_4">
      <g>
       <use xlink:href="#m1157aab180" x="124.244924" y="307.584" style="stroke: #000000; stroke-width: 0.8"/>
      </g>
     </g>
     <g id="text_2">
      <!-- 100 -->
      <g transform="translate(114.701174 322.182437)scale(0.1 -0.1)">
       <defs>
        <path id="DejaVuSans-31" d="M 794 531 
L 1825 531 
L 1825 4091 
L 703 3866 
L 703 4441 
L 1819 4666 
L 2450 4666 
L 2450 531 
L 3481 531 
L 3481 0 
L 794 0 
L 794 531 
z
" transform="scale(0.015625)"/>
       </defs>
       <use xlink:href="#DejaVuSans-31"/>
       <use xlink:href="#DejaVuSans-30" x="63.623047"/>
       <use xlink:href="#DejaVuSans-30" x="127.246094"/>
      </g>
     </g>
    </g>
    <g id="xtick_3">
     <g id="line2d_5">
      <path d="M 174.65712 307.584 
L 174.65712 41.472 
" clip-path="url(#p041c372c44)" style="fill: none; stroke: #b0b0b0; stroke-width: 0.8; stroke-linecap: square"/>
     </g>
     <g id="line2d_6">
      <g>
       <use xlink:href="#m1157aab180" x="174.65712" y="307.584" style="stroke: #000000; stroke-width: 0.8"/>
      </g>
     </g>
     <g id="text_3">
      <!-- 200 -->
      <g transform="translate(165.11337 322.182437)scale(0.1 -0.1)">
       <defs>
        <path id="DejaVuSans-32" d="M 1228 531 
L 3431 531 
L 3431 0 
L 469 0 
L 469 531 
Q 828 903 1448 1529 
Q 2069 2156 2228 2338 
Q 2531 2678 2651 2914 
Q 2772 3150 2772 3378 
Q 2772 3750 2511 3984 
Q 2250 4219 1831 4219 
Q 1534 4219 1204 4116 
Q 875 4013 500 3803 
L 500 4441 
Q 881 4594 1212 4672 
Q 1544 4750 1819 4750 
Q 2544 4750 2975 4387 
Q 3406 4025 3406 3419 
Q 3406 3131 3298 2873 
Q 3191 2616 2906 2266 
Q 2828 2175 2409 1742 
Q 1991 1309 1228 531 
z
" transform="scale(0.015625)"/>
       </defs>
       <use xlink:href="#DejaVuSans-32"/>
       <use xlink:href="#DejaVuSans-30" x="63.623047"/>
       <use xlink:href="#DejaVuSans-30" x="127.246094"/>
      </g>
     </g>
    </g>
    <g id="xtick_4">
     <g id="line2d_7">
      <path d="M 225.069317 307.584 
L 225.069317 41.472 
" clip-path="url(#p041c372c44)" style="fill: none; stroke: #b0b0b0; stroke-width: 0.8; stroke-linecap: square"/>
     </g>
     <g id="line2d_8">
      <g>
       <use xlink:href="#m1157aab180" x="225.069317" y="307.584" style="stroke: #000000; stroke-width: 0.8"/>
      </g>
     </g>
     <g id="text_4">
      <!-- 300 -->
      <g transform="translate(215.525567 322.182437)scale(0.1 -0.1)">
       <defs>
        <path id="DejaVuSans-33" d="M 2597 2516 
Q 3050 2419 3304 2112 
Q 3559 1806 3559 1356 
Q 3559 666 3084 287 
Q 2609 -91 1734 -91 
Q 1441 -91 1130 -33 
Q 819 25 488 141 
L 488 750 
Q 750 597 1062 519 
Q 1375 441 1716 441 
Q 2309 441 2620 675 
Q 2931 909 2931 1356 
Q 2931 1769 2642 2001 
Q 2353 2234 1838 2234 
L 1294 2234 
L 1294 2753 
L 1863 2753 
Q 2328 2753 2575 2939 
Q 2822 3125 2822 3475 
Q 2822 3834 2567 4026 
Q 2313 4219 1838 4219 
Q 1578 4219 1281 4162 
Q 984 4106 628 3988 
L 628 4550 
Q 988 4650 1302 4700 
Q 1616 4750 1894 4750 
Q 2613 4750 3031 4423 
Q 3450 4097 3450 3541 
Q 3450 3153 3228 2886 
Q 3006 2619 2597 2516 
z
" transform="scale(0.015625)"/>
       </defs>
       <use xlink:href="#DejaVuSans-33"/>
       <use xlink:href="#DejaVuSans-30" x="63.623047"/>
       <use xlink:href="#DejaVuSans-30" x="127.246094"/>
      </g>
     </g>
    </g>
    <g id="xtick_5">
     <g id="line2d_9">
      <path d="M 275.481513 307.584 
L 275.481513 41.472 
" clip-path="url(#p041c372c44)" style="fill: none; stroke: #b0b0b0; stroke-width: 0.8; stroke-linecap: square"/>
     </g>
     <g id="line2d_10">
      <g>
       <use xlink:href="#m1157aab180" x="275.481513" y="307.584" style="stroke: #000000; stroke-width: 0.8"/>
      </g>
     </g>
     <g id="text_5">
      <!-- 400 -->
      <g transform="translate(265.937763 322.182437)scale(0.1 -0.1)">
       <defs>
        <path id="DejaVuSans-34" d="M 2419 4116 
L 825 1625 
L 2419 1625 
L 2419 4116 
z
M 2253 4666 
L 3047 4666 
L 3047 1625 
L 3713 1625 
L 3713 1100 
L 3047 1100 
L 3047 0 
L 2419 0 
L 2419 1100 
L 313 1100 
L 313 1709 
L 2253 4666 
z
" transform="scale(0.015625)"/>
       </defs>
       <use xlink:href="#DejaVuSans-34"/>
       <use xlink:href="#DejaVuSans-30" x="63.623047"/>
       <use xlink:href="#DejaVuSans-30" x="127.246094"/>
      </g>
     </g>
    </g>
    <g id="xtick_6">
     <g id="line2d_11">
      <path d="M 325.89371 307.584 
L 325.89371 41.472 
" clip-path="url(#p041c372c44)" style="fill: none; stroke: #b0b0b0; stroke-width: 0.8; stroke-linecap: square"/>
     </g>
     <g id="line2d_12">
      <g>
       <use xlink:href="#m1157aab180" x="325.89371" y="307.584" style="stroke: #000000; stroke-width: 0.8"/>
      </g>
     </g>
     <g id="text_6">
      <!-- 500 -->
      <g transform="translate(316.34996 322.182437)scale(0.1 -0.1)">
       <defs>
        <path id="DejaVuSans-35" d="M 691 4666 
L 3169 4666 
L 3169 4134 
L 1269 4134 
L 1269 2991 
Q 1406 3038 1543 3061 
Q 1681 3084 1819 3084 
Q 2600 3084 3056 2656 
Q 3513 2228 3513 1497 
Q 3513 744 3044 326 
Q 2575 -91 1722 -91 
Q 1428 -91 1123 -41 
Q 819 9 494 109 
L 494 744 
Q 775 591 1075 516 
Q 1375 441 1709 441 
Q 2250 441 2565 725 
Q 2881 1009 2881 1497 
Q 2881 1984 2565 2268 
Q 2250 2553 1709 2553 
Q 1456 2553 1204 2497 
Q 953 2441 691 2322 
L 691 4666 
z
" transform="scale(0.015625)"/>
       </defs>
       <use xlink:href="#DejaVuSans-35"/>
       <use xlink:href="#DejaVuSans-30" x="63.623047"/>
       <use xlink:href="#DejaVuSans-30" x="127.246094"/>
      </g>
     </g>
    </g>
    <g id="xtick_7">
     <g id="line2d_13">
      <path d="M 376.305906 307.584 
L 376.305906 41.472 
" clip-path="url(#p041c372c44)" style="fill: none; stroke: #b0b0b0; stroke-width: 0.8; stroke-linecap: square"/>
     </g>
     <g id="line2d_14">
      <g>
       <use xlink:href="#m1157aab180" x="376.305906" y="307.584" style="stroke: #000000; stroke-width: 0.8"/>
      </g>
     </g>
     <g id="text_7">
      <!-- 600 -->
      <g transform="translate(366.762156 322.182437)scale(0.1 -0.1)">
       <defs>
        <path id="DejaVuSans-36" d="M 2113 2584 
Q 1688 2584 1439 2293 
Q 1191 2003 1191 1497 
Q 1191 994 1439 701 
Q 1688 409 2113 409 
Q 2538 409 2786 701 
Q 3034 994 3034 1497 
Q 3034 2003 2786 2293 
Q 2538 2584 2113 2584 
z
M 3366 4563 
L 3366 3988 
Q 3128 4100 2886 4159 
Q 2644 4219 2406 4219 
Q 1781 4219 1451 3797 
Q 1122 3375 1075 2522 
Q 1259 2794 1537 2939 
Q 1816 3084 2150 3084 
Q 2853 3084 3261 2657 
Q 3669 2231 3669 1497 
Q 3669 778 3244 343 
Q 2819 -91 2113 -91 
Q 1303 -91 875 529 
Q 447 1150 447 2328 
Q 447 3434 972 4092 
Q 1497 4750 2381 4750 
Q 2619 4750 2861 4703 
Q 3103 4656 3366 4563 
z
" transform="scale(0.015625)"/>
       </defs>
       <use xlink:href="#DejaVuSans-36"/>
       <use xlink:href="#DejaVuSans-30" x="63.623047"/>
       <use xlink:href="#DejaVuSans-30" x="127.246094"/>
      </g>
     </g>
    </g>
    <g id="text_8">
     <!-- Generations -->
     <g transform="translate(205.662344 335.860562)scale(0.1 -0.1)">
      <defs>
       <path id="DejaVuSans-47" d="M 3809 666 
L 3809 1919 
L 2778 1919 
L 2778 2438 
L 4434 2438 
L 4434 434 
Q 4069 175 3628 42 
Q 3188 -91 2688 -91 
Q 1594 -91 976 548 
Q 359 1188 359 2328 
Q 359 3472 976 4111 
Q 1594 4750 2688 4750 
Q 3144 4750 3555 4637 
Q 3966 4525 4313 4306 
L 4313 3634 
Q 3963 3931 3569 4081 
Q 3175 4231 2741 4231 
Q 1884 4231 1454 3753 
Q 1025 3275 1025 2328 
Q 1025 1384 1454 906 
Q 1884 428 2741 428 
Q 3075 428 3337 486 
Q 3600 544 3809 666 
z
" transform="scale(0.015625)"/>
       <path id="DejaVuSans-65" d="M 3597 1894 
L 3597 1613 
L 953 1613 
Q 991 1019 1311 708 
Q 1631 397 2203 397 
Q 2534 397 2845 478 
Q 3156 559 3463 722 
L 3463 178 
Q 3153 47 2828 -22 
Q 2503 -91 2169 -91 
Q 1331 -91 842 396 
Q 353 884 353 1716 
Q 353 2575 817 3079 
Q 1281 3584 2069 3584 
Q 2775 3584 3186 3129 
Q 3597 2675 3597 1894 
z
M 3022 2063 
Q 3016 2534 2758 2815 
Q 2500 3097 2075 3097 
Q 1594 3097 1305 2825 
Q 1016 2553 972 2059 
L 3022 2063 
z
" transform="scale(0.015625)"/>
       <path id="DejaVuSans-6e" d="M 3513 2113 
L 3513 0 
L 2938 0 
L 2938 2094 
Q 2938 2591 2744 2837 
Q 2550 3084 2163 3084 
Q 1697 3084 1428 2787 
Q 1159 2491 1159 1978 
L 1159 0 
L 581 0 
L 581 3500 
L 1159 3500 
L 1159 2956 
Q 1366 3272 1645 3428 
Q 1925 3584 2291 3584 
Q 2894 3584 3203 3211 
Q 3513 2838 3513 2113 
z
" transform="scale(0.015625)"/>
       <path id="DejaVuSans-72" d="M 2631 2963 
Q 2534 3019 2420 3045 
Q 2306 3072 2169 3072 
Q 1681 3072 1420 2755 
Q 1159 2438 1159 1844 
L 1159 0 
L 581 0 
L 581 3500 
L 1159 3500 
L 1159 2956 
Q 1341 3275 1631 3429 
Q 1922 3584 2338 3584 
Q 2397 3584 2469 3576 
Q 2541 3569 2628 3553 
L 2631 2963 
z
" transform="scale(0.015625)"/>
       <path id="DejaVuSans-61" d="M 2194 1759 
Q 1497 1759 1228 1600 
Q 959 1441 959 1056 
Q 959 750 1161 570 
Q 1363 391 1709 391 
Q 2188 391 2477 730 
Q 2766 1069 2766 1631 
L 2766 1759 
L 2194 1759 
z
M 3341 1997 
L 3341 0 
L 2766 0 
L 2766 531 
Q 2569 213 2275 61 
Q 1981 -91 1556 -91 
Q 1019 -91 701 211 
Q 384 513 384 1019 
Q 384 1609 779 1909 
Q 1175 2209 1959 2209 
L 2766 2209 
L 2766 2266 
Q 2766 2663 2505 2880 
Q 2244 3097 1772 3097 
Q 1472 3097 1187 3025 
Q 903 2953 641 2809 
L 641 3341 
Q 956 3463 1253 3523 
Q 1550 3584 1831 3584 
Q 2591 3584 2966 3190 
Q 3341 2797 3341 1997 
z
" transform="scale(0.015625)"/>
       <path id="DejaVuSans-74" d="M 1172 4494 
L 1172 3500 
L 2356 3500 
L 2356 3053 
L 1172 3053 
L 1172 1153 
Q 1172 725 1289 603 
Q 1406 481 1766 481 
L 2356 481 
L 2356 0 
L 1766 0 
Q 1100 0 847 248 
Q 594 497 594 1153 
L 594 3053 
L 172 3053 
L 172 3500 
L 594 3500 
L 594 4494 
L 1172 4494 
z
" transform="scale(0.015625)"/>
       <path id="DejaVuSans-69" d="M 603 3500 
L 1178 3500 
L 1178 0 
L 603 0 
L 603 3500 
z
M 603 4863 
L 1178 4863 
L 1178 4134 
L 603 4134 
L 603 4863 
z
" transform="scale(0.015625)"/>
       <path id="DejaVuSans-6f" d="M 1959 3097 
Q 1497 3097 1228 2736 
Q 959 2375 959 1747 
Q 959 1119 1226 758 
Q 1494 397 1959 397 
Q 2419 397 2687 759 
Q 2956 1122 2956 1747 
Q 2956 2369 2687 2733 
Q 2419 3097 1959 3097 
z
M 1959 3584 
Q 2709 3584 3137 3096 
Q 3566 2609 3566 1747 
Q 3566 888 3137 398 
Q 2709 -91 1959 -91 
Q 1206 -91 779 398 
Q 353 888 353 1747 
Q 353 2609 779 3096 
Q 1206 3584 1959 3584 
z
" transform="scale(0.015625)"/>
       <path id="DejaVuSans-73" d="M 2834 3397 
L 2834 2853 
Q 2591 2978 2328 3040 
Q 2066 3103 1784 3103 
Q 1356 3103 1142 2972 
Q 928 2841 928 2578 
Q 928 2378 1081 2264 
Q 1234 2150 1697 2047 
L 1894 2003 
Q 2506 1872 2764 1633 
Q 3022 1394 3022 966 
Q 3022 478 2636 193 
Q 2250 -91 1575 -91 
Q 1294 -91 989 -36 
Q 684 19 347 128 
L 347 722 
Q 666 556 975 473 
Q 1284 391 1588 391 
Q 1994 391 2212 530 
Q 2431 669 2431 922 
Q 2431 1156 2273 1281 
Q 2116 1406 1581 1522 
L 1381 1569 
Q 847 1681 609 1914 
Q 372 2147 372 2553 
Q 372 3047 722 3315 
Q 1072 3584 1716 3584 
Q 2034 3584 2315 3537 
Q 2597 3491 2834 3397 
z
" transform="scale(0.015625)"/>
      </defs>
      <use xlink:href="#DejaVuSans-47"/>
      <use xlink:href="#DejaVuSans-65" x="77.490234"/>
      <use xlink:href="#DejaVuSans-6e" x="139.013672"/>
      <use xlink:href="#DejaVuSans-65" x="202.392578"/>
      <use xlink:href="#DejaVuSans-72" x="263.916016"/>
      <use xlink:href="#DejaVuSans-61" x="305.029297"/>
      <use xlink:href="#DejaVuSans-74" x="366.308594"/>
      <use xlink:href="#DejaVuSans-69" x="405.517578"/>
      <use xlink:href="#DejaVuSans-6f" x="433.300781"/>
      <use xlink:href="#DejaVuSans-6e" x="494.482422"/>
      <use xlink:href="#DejaVuSans-73" x="557.861328"/>
     </g>
    </g>
   </g>
   <g id="matplotlib.axis_2">
    <g id="ytick_1">
     <g id="line2d_15">
      <path d="M 57.6 295.03404 
L 414.72 295.03404 
" clip-path="url(#p041c372c44)" style="fill: none; stroke: #b0b0b0; stroke-width: 0.8; stroke-linecap: square"/>
     </g>
     <g id="line2d_16">
      <defs>
       <path id="m831b581630" d="M 0 0 
L -3.5 0 
" style="stroke: #000000; stroke-width: 0.8"/>
      </defs>
      <g>
       <use xlink:href="#m831b581630" x="57.6" y="295.03404" style="stroke: #000000; stroke-width: 0.8"/>
      </g>
     </g>
     <g id="text_9">
      <!-- 0.6 -->
      <g transform="translate(34.696875 298.833259)scale(0.1 -0.1)">
       <defs>
        <path id="DejaVuSans-2e" d="M 684 794 
L 1344 794 
L 1344 0 
L 684 0 
L 684 794 
z
" transform="scale(0.015625)"/>
       </defs>
       <use xlink:href="#DejaVuSans-30"/>
       <use xlink:href="#DejaVuSans-2e" x="63.623047"/>
       <use xlink:href="#DejaVuSans-36" x="95.410156"/>
      </g>
     </g>
    </g>
    <g id="ytick_2">
     <g id="line2d_17">
      <path d="M 57.6 250.597984 
L 414.72 250.597984 
" clip-path="url(#p041c372c44)" style="fill: none; stroke: #b0b0b0; stroke-width: 0.8; stroke-linecap: square"/>
     </g>
     <g id="line2d_18">
      <g>
       <use xlink:href="#m831b581630" x="57.6" y="250.597984" style="stroke: #000000; stroke-width: 0.8"/>
      </g>
     </g>
     <g id="text_10">
      <!-- 0.7 -->
      <g transform="translate(34.696875 254.397203)scale(0.1 -0.1)">
       <defs>
        <path id="DejaVuSans-37" d="M 525 4666 
L 3525 4666 
L 3525 4397 
L 1831 0 
L 1172 0 
L 2766 4134 
L 525 4134 
L 525 4666 
z
" transform="scale(0.015625)"/>
       </defs>
       <use xlink:href="#DejaVuSans-30"/>
       <use xlink:href="#DejaVuSans-2e" x="63.623047"/>
       <use xlink:href="#DejaVuSans-37" x="95.410156"/>
      </g>
     </g>
    </g>
    <g id="ytick_3">
     <g id="line2d_19">
      <path d="M 57.6 206.161929 
L 414.72 206.161929 
" clip-path="url(#p041c372c44)" style="fill: none; stroke: #b0b0b0; stroke-width: 0.8; stroke-linecap: square"/>
     </g>
     <g id="line2d_20">
      <g>
       <use xlink:href="#m831b581630" x="57.6" y="206.161929" style="stroke: #000000; stroke-width: 0.8"/>
      </g>
     </g>
     <g id="text_11">
      <!-- 0.8 -->
      <g transform="translate(34.696875 209.961148)scale(0.1 -0.1)">
       <defs>
        <path id="DejaVuSans-38" d="M 2034 2216 
Q 1584 2216 1326 1975 
Q 1069 1734 1069 1313 
Q 1069 891 1326 650 
Q 1584 409 2034 409 
Q 2484 409 2743 651 
Q 3003 894 3003 1313 
Q 3003 1734 2745 1975 
Q 2488 2216 2034 2216 
z
M 1403 2484 
Q 997 2584 770 2862 
Q 544 3141 544 3541 
Q 544 4100 942 4425 
Q 1341 4750 2034 4750 
Q 2731 4750 3128 4425 
Q 3525 4100 3525 3541 
Q 3525 3141 3298 2862 
Q 3072 2584 2669 2484 
Q 3125 2378 3379 2068 
Q 3634 1759 3634 1313 
Q 3634 634 3220 271 
Q 2806 -91 2034 -91 
Q 1263 -91 848 271 
Q 434 634 434 1313 
Q 434 1759 690 2068 
Q 947 2378 1403 2484 
z
M 1172 3481 
Q 1172 3119 1398 2916 
Q 1625 2713 2034 2713 
Q 2441 2713 2670 2916 
Q 2900 3119 2900 3481 
Q 2900 3844 2670 4047 
Q 2441 4250 2034 4250 
Q 1625 4250 1398 4047 
Q 1172 3844 1172 3481 
z
" transform="scale(0.015625)"/>
       </defs>
       <use xlink:href="#DejaVuSans-30"/>
       <use xlink:href="#DejaVuSans-2e" x="63.623047"/>
       <use xlink:href="#DejaVuSans-38" x="95.410156"/>
      </g>
     </g>
    </g>
    <g id="ytick_4">
     <g id="line2d_21">
      <path d="M 57.6 161.725873 
L 414.72 161.725873 
" clip-path="url(#p041c372c44)" style="fill: none; stroke: #b0b0b0; stroke-width: 0.8; stroke-linecap: square"/>
     </g>
     <g id="line2d_22">
      <g>
       <use xlink:href="#m831b581630" x="57.6" y="161.725873" style="stroke: #000000; stroke-width: 0.8"/>
      </g>
     </g>
     <g id="text_12">
      <!-- 0.9 -->
      <g transform="translate(34.696875 165.525092)scale(0.1 -0.1)">
       <defs>
        <path id="DejaVuSans-39" d="M 703 97 
L 703 672 
Q 941 559 1184 500 
Q 1428 441 1663 441 
Q 2288 441 2617 861 
Q 2947 1281 2994 2138 
Q 2813 1869 2534 1725 
Q 2256 1581 1919 1581 
Q 1219 1581 811 2004 
Q 403 2428 403 3163 
Q 403 3881 828 4315 
Q 1253 4750 1959 4750 
Q 2769 4750 3195 4129 
Q 3622 3509 3622 2328 
Q 3622 1225 3098 567 
Q 2575 -91 1691 -91 
Q 1453 -91 1209 -44 
Q 966 3 703 97 
z
M 1959 2075 
Q 2384 2075 2632 2365 
Q 2881 2656 2881 3163 
Q 2881 3666 2632 3958 
Q 2384 4250 1959 4250 
Q 1534 4250 1286 3958 
Q 1038 3666 1038 3163 
Q 1038 2656 1286 2365 
Q 1534 2075 1959 2075 
z
" transform="scale(0.015625)"/>
       </defs>
       <use xlink:href="#DejaVuSans-30"/>
       <use xlink:href="#DejaVuSans-2e" x="63.623047"/>
       <use xlink:href="#DejaVuSans-39" x="95.410156"/>
      </g>
     </g>
    </g>
    <g id="ytick_5">
     <g id="line2d_23">
      <path d="M 57.6 117.289818 
L 414.72 117.289818 
" clip-path="url(#p041c372c44)" style="fill: none; stroke: #b0b0b0; stroke-width: 0.8; stroke-linecap: square"/>
     </g>
     <g id="line2d_24">
      <g>
       <use xlink:href="#m831b581630" x="57.6" y="117.289818" style="stroke: #000000; stroke-width: 0.8"/>
      </g>
     </g>
     <g id="text_13">
      <!-- 1.0 -->
      <g transform="translate(34.696875 121.089036)scale(0.1 -0.1)">
       <use xlink:href="#DejaVuSans-31"/>
       <use xlink:href="#DejaVuSans-2e" x="63.623047"/>
       <use xlink:href="#DejaVuSans-30" x="95.410156"/>
      </g>
     </g>
    </g>
    <g id="ytick_6">
     <g id="line2d_25">
      <path d="M 57.6 72.853762 
L 414.72 72.853762 
" clip-path="url(#p041c372c44)" style="fill: none; stroke: #b0b0b0; stroke-width: 0.8; stroke-linecap: square"/>
     </g>
     <g id="line2d_26">
      <g>
       <use xlink:href="#m831b581630" x="57.6" y="72.853762" style="stroke: #000000; stroke-width: 0.8"/>
      </g>
     </g>
     <g id="text_14">
      <!-- 1.1 -->
      <g transform="translate(34.696875 76.652981)scale(0.1 -0.1)">
       <use xlink:href="#DejaVuSans-31"/>
       <use xlink:href="#DejaVuSans-2e" x="63.623047"/>
       <use xlink:href="#DejaVuSans-31" x="95.410156"/>
      </g>
     </g>
    </g>
    <g id="text_15">
     <!-- Fitness -->
     <g transform="translate(28.617187 191.845187)rotate(-90)scale(0.1 -0.1)">
      <defs>
       <path id="DejaVuSans-46" d="M 628 4666 
L 3309 4666 
L 3309 4134 
L 1259 4134 
L 1259 2759 
L 3109 2759 
L 3109 2228 
L 1259 2228 
L 1259 0 
L 628 0 
L 628 4666 
z
" transform="scale(0.015625)"/>
      </defs>
      <use xlink:href="#DejaVuSans-46"/>
      <use xlink:href="#DejaVuSans-69" x="50.269531"/>
      <use xlink:href="#DejaVuSans-74" x="78.052734"/>
      <use xlink:href="#DejaVuSans-6e" x="117.261719"/>
      <use xlink:href="#DejaVuSans-65" x="180.640625"/>
      <use xlink:href="#DejaVuSans-73" x="242.164062"/>
      <use xlink:href="#DejaVuSans-73" x="294.263672"/>
     </g>
    </g>
    <g id="text_16">
     <!-- 1e8 -->
     <g transform="translate(57.6 38.472)scale(0.1 -0.1)">
      <use xlink:href="#DejaVuSans-31"/>
      <use xlink:href="#DejaVuSans-65" x="63.623047"/>
      <use xlink:href="#DejaVuSans-38" x="125.146484"/>
     </g>
    </g>
   </g>
   <g id="line2d_27">
    <path d="M 73.832727 295.488 
L 74.336849 257.635087 
L 74.840971 240.941718 
L 75.345093 213.9297 
L 75.849215 225.686135 
L 76.353337 212.168961 
L 76.857459 206.312525 
L 77.361581 209.074529 
L 77.865703 206.364027 
L 78.873947 170.75406 
L 79.378069 187.999435 
L 80.386313 207.17365 
L 80.890435 181.618125 
L 81.394557 178.376913 
L 82.402801 203.870439 
L 82.906923 202.144672 
L 83.411045 191.547116 
L 83.915167 187.677113 
L 84.419289 197.286463 
L 84.923411 192.945833 
L 85.427532 208.32982 
L 85.931654 188.492446 
L 86.435776 190.577865 
L 86.939898 179.472668 
L 87.44402 181.54235 
L 87.948142 180.653726 
L 88.452264 212.900251 
L 88.956386 200.84921 
L 89.460508 210.14604 
L 89.96463 187.345454 
L 90.468752 189.844435 
L 90.972874 193.354454 
L 91.476996 194.744596 
L 91.981118 174.321383 
L 92.48524 182.509742 
L 92.989362 180.284954 
L 93.493484 185.349079 
L 93.997606 187.685437 
L 94.501728 197.568637 
L 95.00585 179.283593 
L 95.509972 179.102765 
L 96.014094 172.87349 
L 96.518216 194.487655 
L 97.022338 172.300439 
L 97.52646 165.782762 
L 98.030582 187.788374 
L 98.534704 176.746256 
L 99.038826 191.185523 
L 99.542947 186.083843 
L 100.047069 193.554603 
L 101.055313 186.115002 
L 101.559435 188.416101 
L 102.063557 184.972026 
L 102.567679 176.238642 
L 103.071801 189.570368 
L 103.575923 191.262593 
L 104.584167 174.791693 
L 105.088289 189.606443 
L 105.592411 191.207851 
L 106.096533 195.367743 
L 106.600655 183.157606 
L 107.104777 189.538498 
L 107.608899 184.887925 
L 108.113021 178.68026 
L 108.617143 177.010384 
L 109.121265 205.964721 
L 109.625387 170.309645 
L 110.129509 176.495051 
L 110.633631 175.087661 
L 111.641875 177.322769 
L 112.145997 192.961689 
L 112.650119 183.472203 
L 113.154241 191.431835 
L 113.658363 172.286978 
L 114.162484 178.212545 
L 114.666606 182.014158 
L 115.170728 180.297793 
L 115.67485 191.419374 
L 116.178972 192.544038 
L 116.683094 197.417293 
L 117.187216 184.35849 
L 117.691338 175.914456 
L 118.19546 194.062439 
L 118.699582 201.146248 
L 119.203704 172.588503 
L 119.707826 169.876466 
L 120.211948 187.772196 
L 120.71607 183.428065 
L 121.220192 200.072021 
L 121.724314 190.308998 
L 122.228436 190.809027 
L 122.732558 206.646473 
L 123.23668 209.757121 
L 123.740802 194.226559 
L 124.244924 190.400433 
L 124.749046 189.670975 
L 125.253168 205.104 
L 125.75729 211.813529 
L 126.261412 201.990062 
L 126.765534 194.402967 
L 127.269656 206.069697 
L 127.773778 205.987831 
L 128.277899 186.741379 
L 129.286143 229.391849 
L 129.790265 207.361706 
L 130.294387 220.778085 
L 130.798509 182.767069 
L 131.302631 203.489904 
L 131.806753 199.561592 
L 132.310875 185.263182 
L 132.814997 165.131329 
L 133.319119 175.730679 
L 133.823241 178.90359 
L 134.327363 214.208272 
L 134.831485 197.844743 
L 135.335607 208.127055 
L 135.839729 190.801172 
L 136.343851 220.571415 
L 136.847973 178.551399 
L 137.352095 180.775139 
L 137.856217 193.316473 
L 138.360339 190.578079 
L 138.864461 186.365248 
L 139.368583 187.635336 
L 139.872705 171.643947 
L 140.376827 186.09762 
L 140.880949 185.219008 
L 141.385071 201.207359 
L 141.889193 184.983626 
L 142.393315 192.427612 
L 142.897436 179.446552 
L 143.401558 227.095671 
L 143.90568 178.412606 
L 144.409802 191.980303 
L 144.913924 173.685408 
L 145.418046 177.349268 
L 145.922168 172.926028 
L 146.42629 191.359728 
L 146.930412 204.236343 
L 147.434534 184.187954 
L 147.938656 175.280016 
L 148.442778 178.097375 
L 148.9469 179.656526 
L 149.955144 190.067347 
L 150.459266 191.809664 
L 150.963388 171.466667 
L 151.46751 167.491376 
L 151.971632 189.186493 
L 152.475754 193.97342 
L 152.979876 196.877579 
L 153.483998 188.895738 
L 153.98812 164.264383 
L 154.996364 190.793655 
L 155.500486 175.334146 
L 156.004608 183.626454 
L 156.50873 183.830374 
L 157.012851 192.309498 
L 157.516973 169.429919 
L 158.021095 180.089797 
L 158.525217 175.286533 
L 159.029339 176.761377 
L 159.533461 172.448198 
L 160.037583 182.251976 
L 160.541705 180.908609 
L 161.045827 180.248905 
L 161.549949 174.5812 
L 162.054071 200.959816 
L 162.558193 208.929369 
L 163.062315 200.160592 
L 163.566437 196.69125 
L 164.070559 194.638767 
L 164.574681 189.179132 
L 165.078803 219.478546 
L 165.582925 189.04758 
L 166.087047 212.297285 
L 166.591169 188.711934 
L 167.095291 200.527751 
L 167.599413 187.354517 
L 168.103535 192.034402 
L 168.607657 167.741821 
L 169.111779 196.823629 
L 169.615901 191.453792 
L 170.120023 189.723981 
L 170.624145 190.031278 
L 171.128267 178.365116 
L 171.632388 201.409879 
L 172.13651 183.857558 
L 172.640632 175.275158 
L 173.144754 197.442221 
L 173.648876 185.380764 
L 174.152998 179.189332 
L 174.65712 188.209753 
L 175.161242 183.480186 
L 175.665364 179.938983 
L 176.169486 193.023895 
L 176.673608 167.995389 
L 177.17773 191.311958 
L 177.681852 169.607543 
L 178.185974 178.955718 
L 178.690096 170.903561 
L 179.194218 169.487756 
L 179.69834 193.167954 
L 180.202462 181.519039 
L 180.706584 174.955934 
L 181.210706 190.044896 
L 181.714828 198.660832 
L 182.21895 191.615788 
L 182.723072 179.998943 
L 183.227194 208.200945 
L 183.731316 194.388531 
L 184.235438 188.433905 
L 185.243682 203.671447 
L 185.747804 165.946911 
L 186.251925 179.086335 
L 186.756047 198.136679 
L 187.260169 188.925469 
L 187.764291 173.004173 
L 189.276657 211.422553 
L 189.780779 185.397633 
L 190.284901 187.532645 
L 190.789023 185.009379 
L 191.293145 175.625197 
L 191.797267 173.071262 
L 192.301389 197.740929 
L 192.805511 177.318439 
L 193.309633 188.608892 
L 193.813755 187.729968 
L 194.317877 188.583569 
L 194.821999 176.243517 
L 195.326121 169.819304 
L 195.830243 200.282742 
L 196.334365 191.147629 
L 196.838487 167.666282 
L 197.342609 199.424578 
L 197.846731 194.021799 
L 198.350853 194.856715 
L 198.854975 214.081046 
L 199.359097 192.010276 
L 199.863219 197.554273 
L 200.36734 186.928802 
L 200.871462 170.272346 
L 201.375584 179.340733 
L 201.879706 172.168435 
L 202.383828 179.812519 
L 202.88795 182.77421 
L 203.392072 167.530821 
L 203.896194 191.43069 
L 204.400316 164.307896 
L 204.904438 179.872407 
L 205.40856 175.754651 
L 205.912682 188.218014 
L 206.416804 183.683125 
L 206.920926 177.248487 
L 207.425048 198.417134 
L 207.92917 172.185591 
L 208.433292 183.789673 
L 208.937414 200.224122 
L 209.441536 176.821803 
L 209.945658 202.07604 
L 210.44978 166.733555 
L 210.953902 182.510473 
L 211.458024 179.874609 
L 211.962146 167.699913 
L 212.466268 181.947438 
L 212.97039 190.173483 
L 213.474512 183.732262 
L 213.978634 182.006426 
L 214.482756 175.534192 
L 214.986877 192.939644 
L 215.490999 171.316568 
L 215.995121 160.40897 
L 216.499243 188.774206 
L 217.507487 164.827831 
L 218.011609 182.325551 
L 218.515731 186.79499 
L 219.019853 174.266909 
L 219.523975 199.774575 
L 220.028097 173.964936 
L 220.532219 186.145377 
L 221.036341 173.916184 
L 221.540463 186.422105 
L 222.044585 158.125753 
L 222.548707 188.406311 
L 223.052829 178.379241 
L 223.556951 187.101099 
L 224.061073 187.815851 
L 224.565195 186.238894 
L 225.069317 213.251671 
L 225.573439 200.683159 
L 226.077561 171.29849 
L 226.581683 167.140721 
L 227.085805 189.706605 
L 227.589927 177.837658 
L 228.094049 203.013263 
L 229.102292 171.072199 
L 229.606414 197.777128 
L 230.110536 172.311689 
L 230.614658 178.473744 
L 231.11878 201.348271 
L 231.622902 173.48947 
L 232.127024 190.140178 
L 232.631146 178.660369 
L 233.135268 187.050785 
L 233.63939 188.523722 
L 234.143512 199.551099 
L 234.647634 188.586111 
L 235.151756 164.608145 
L 235.655878 200.179606 
L 236.16 175.33859 
L 236.664122 180.756741 
L 237.168244 171.145595 
L 237.672366 186.087064 
L 238.176488 186.038822 
L 238.68061 184.89188 
L 239.184732 180.893815 
L 239.688854 179.90832 
L 240.192976 173.40645 
L 240.697098 175.351916 
L 241.20122 170.55931 
L 241.705342 182.374638 
L 242.209464 197.76731 
L 242.713586 184.479967 
L 243.217708 167.995782 
L 243.721829 171.120624 
L 244.225951 147.019281 
L 245.234195 176.694497 
L 245.738317 161.76783 
L 246.242439 170.649835 
L 246.746561 183.947943 
L 247.250683 185.414592 
L 247.754805 175.187597 
L 248.258927 184.324279 
L 248.763049 161.681373 
L 249.267171 166.220037 
L 249.771293 174.88957 
L 250.275415 190.749714 
L 250.779537 188.559245 
L 251.283659 204.438404 
L 251.787781 196.997173 
L 252.291903 176.012641 
L 252.796025 172.415377 
L 253.300147 166.501037 
L 253.804269 171.40608 
L 254.308391 178.771549 
L 254.812513 167.616992 
L 255.316635 181.710601 
L 255.820757 169.052848 
L 256.324879 198.023432 
L 256.829001 200.131287 
L 257.333123 184.459457 
L 257.837244 204.128901 
L 258.341366 207.028876 
L 259.34961 150.59991 
L 259.853732 189.514657 
L 260.357854 175.134884 
L 260.861976 184.170917 
L 261.366098 170.603291 
L 261.87022 180.179549 
L 262.374342 202.903198 
L 262.878464 185.03333 
L 263.382586 192.612515 
L 263.886708 192.499826 
L 264.39083 167.506078 
L 264.894952 195.342899 
L 265.399074 185.882477 
L 265.903196 184.880154 
L 266.407318 167.132228 
L 266.91144 173.315239 
L 267.415562 195.580685 
L 267.919684 179.503412 
L 268.423806 200.914847 
L 268.927928 200.686687 
L 269.43205 173.708042 
L 269.936172 196.232859 
L 270.440294 189.02233 
L 270.944416 197.1622 
L 271.448538 198.370986 
L 271.95266 201.075209 
L 272.456781 192.235212 
L 272.960903 195.175719 
L 273.465025 180.393803 
L 273.969147 176.919731 
L 274.473269 207.957894 
L 274.977391 187.169901 
L 275.481513 185.571622 
L 275.985635 172.804952 
L 276.489757 180.388146 
L 276.993879 185.736658 
L 277.498001 177.631274 
L 278.002123 199.825048 
L 278.506245 182.00686 
L 279.010367 174.802625 
L 279.514489 212.209205 
L 280.018611 185.039639 
L 280.522733 164.661302 
L 281.026855 186.861787 
L 281.530977 215.284261 
L 282.035099 191.743802 
L 282.539221 181.336006 
L 283.547465 205.418469 
L 284.051587 186.952461 
L 284.555709 178.014132 
L 285.059831 179.418274 
L 285.563953 178.294412 
L 286.068075 172.67105 
L 286.572196 161.053849 
L 287.076318 171.347435 
L 287.58044 170.239825 
L 288.084562 179.009054 
L 288.588684 182.828139 
L 289.092806 176.634557 
L 289.596928 174.73639 
L 290.10105 202.974772 
L 290.605172 203.042929 
L 291.109294 177.511793 
L 291.613416 182.509449 
L 292.117538 156.488088 
L 292.62166 183.895157 
L 293.125782 205.055035 
L 293.629904 210.412261 
L 294.638148 176.011843 
L 295.14227 190.251956 
L 295.646392 215.323001 
L 296.150514 205.718675 
L 296.654636 193.509904 
L 297.158758 214.561192 
L 297.66288 185.648205 
L 298.167002 212.438433 
L 298.671124 197.966886 
L 299.175246 195.566312 
L 299.679368 199.720528 
L 300.18349 189.55942 
L 300.687612 213.612184 
L 301.191733 198.832713 
L 301.695855 198.873161 
L 302.199977 194.452889 
L 302.704099 206.976981 
L 303.208221 227.695893 
L 303.712343 199.320264 
L 304.216465 201.607068 
L 304.720587 179.358874 
L 305.728831 198.214725 
L 306.232953 214.886649 
L 306.737075 223.114667 
L 307.745319 180.214132 
L 308.249441 204.416724 
L 308.753563 195.407437 
L 309.257685 191.883596 
L 309.761807 197.760043 
L 310.265929 197.003925 
L 310.770051 211.801341 
L 311.274173 189.732152 
L 311.778295 209.42572 
L 312.282417 192.396502 
L 312.786539 188.713077 
L 313.290661 158.656485 
L 313.794783 190.735995 
L 314.298905 199.447766 
L 314.803027 185.012045 
L 315.307149 185.770021 
L 315.81127 178.327138 
L 316.315392 182.191182 
L 316.819514 197.528213 
L 317.323636 192.932755 
L 317.827758 185.614023 
L 318.33188 166.779403 
L 318.836002 181.349969 
L 319.340124 168.812306 
L 319.844246 196.791162 
L 320.348368 190.984702 
L 320.85249 198.293559 
L 321.356612 183.332187 
L 321.860734 189.23213 
L 322.364856 161.120825 
L 322.868978 161.443176 
L 323.3731 182.89048 
L 323.877222 189.003151 
L 324.885466 163.309036 
L 325.389588 195.759278 
L 325.89371 178.957824 
L 326.397832 192.695078 
L 326.901954 176.04878 
L 327.406076 201.397488 
L 327.910198 187.85816 
L 328.41432 166.755155 
L 328.918442 169.769538 
L 329.422564 164.542305 
L 329.926685 160.807379 
L 330.430807 182.754211 
L 330.934929 164.209757 
L 331.439051 162.381875 
L 331.943173 176.265225 
L 332.447295 177.341465 
L 332.951417 174.971202 
L 333.455539 173.922817 
L 333.959661 176.369079 
L 334.463783 180.080956 
L 334.967905 188.909143 
L 335.472027 170.445851 
L 335.976149 191.802052 
L 336.480271 158.780429 
L 336.984393 160.651709 
L 337.488515 176.074339 
L 338.496759 182.682499 
L 339.000881 168.1048 
L 339.505003 184.421895 
L 340.009125 184.797666 
L 340.513247 169.208324 
L 341.017369 197.800422 
L 341.521491 205.720418 
L 342.025613 187.646719 
L 343.033857 173.705295 
L 343.537979 179.266417 
L 344.042101 178.215776 
L 344.546222 184.253034 
L 345.050344 163.758059 
L 345.554466 180.697247 
L 346.058588 157.599094 
L 346.56271 191.204411 
L 347.066832 184.588422 
L 347.570954 181.306246 
L 348.075076 174.620711 
L 348.579198 181.309014 
L 349.08332 172.765631 
L 349.587442 177.171732 
L 350.091564 162.692382 
L 350.595686 195.692859 
L 351.099808 192.49886 
L 351.60393 180.464281 
L 352.108052 187.940689 
L 352.612174 175.89239 
L 353.116296 172.165179 
L 353.620418 166.047076 
L 354.12454 176.299543 
L 354.628662 182.528771 
L 355.132784 172.145457 
L 355.636906 215.852412 
L 356.141028 177.770465 
L 356.64515 178.850817 
L 357.149272 161.144015 
L 357.653394 189.635166 
L 358.157516 180.350103 
L 358.661637 173.709943 
L 359.165759 194.584327 
L 359.669881 173.949475 
L 360.174003 173.743007 
L 360.678125 175.279656 
L 361.182247 185.762578 
L 361.686369 192.493514 
L 362.190491 180.437915 
L 362.694613 209.325488 
L 363.198735 181.776662 
L 363.702857 172.443933 
L 364.206979 200.205686 
L 364.711101 184.126044 
L 365.215223 194.243962 
L 365.719345 189.714845 
L 366.223467 181.289422 
L 366.727589 186.325494 
L 367.231711 180.511017 
L 367.735833 183.942207 
L 368.239955 181.723284 
L 368.744077 183.692345 
L 369.248199 179.125471 
L 369.752321 187.393332 
L 370.256443 185.680948 
L 370.760565 201.34071 
L 371.264687 196.982027 
L 371.768809 178.169084 
L 372.272931 207.579451 
L 372.777053 203.559913 
L 373.281174 173.529931 
L 373.785296 199.23051 
L 374.289418 194.42721 
L 374.79354 182.668288 
L 375.297662 195.397283 
L 375.801784 188.155171 
L 376.305906 178.99557 
L 376.810028 205.492864 
L 377.31415 177.914492 
L 377.818272 183.381279 
L 378.322394 207.893124 
L 378.826516 180.882703 
L 379.83476 163.425938 
L 380.338882 177.158576 
L 380.843004 176.137636 
L 381.347126 186.122055 
L 381.851248 193.640436 
L 382.35537 190.145636 
L 382.859492 183.762242 
L 383.363614 190.637533 
L 383.867736 188.783479 
L 384.371858 194.111681 
L 384.87598 191.294631 
L 385.380102 191.751709 
L 385.884224 190.680983 
L 386.388346 186.430125 
L 386.892468 191.028034 
L 387.396589 209.797433 
L 387.900711 188.392507 
L 388.404833 196.803615 
L 388.908955 194.033034 
L 389.413077 173.549114 
L 389.917199 190.091073 
L 390.421321 195.895021 
L 390.925443 172.639022 
L 391.429565 168.772045 
L 391.933687 174.07701 
L 392.437809 161.631577 
L 392.941931 182.93282 
L 393.446053 181.54027 
L 393.950175 189.583674 
L 394.454297 203.779294 
L 394.958419 176.466514 
L 395.462541 183.477435 
L 395.966663 172.763153 
L 396.470785 174.337479 
L 396.974907 199.108893 
L 397.479029 185.502675 
L 397.983151 184.985433 
L 398.487273 194.228544 
L 398.487273 194.228544 
" clip-path="url(#p041c372c44)" style="fill: none; stroke: #0000ff; stroke-width: 1.5; stroke-linecap: square"/>
   </g>
   <g id="line2d_28">
    <path d="M 73.832727 213.870324 
L 74.336849 160.111403 
L 75.345093 103.074212 
L 75.849215 113.730033 
L 76.353337 102.237571 
L 77.361581 106.62248 
L 77.865703 93.742148 
L 78.369825 96.288029 
L 78.873947 92.049427 
L 79.378069 84.528984 
L 79.882191 93.28843 
L 80.386313 95.323864 
L 80.890435 101.336299 
L 81.394557 93.472672 
L 81.898679 99.961189 
L 82.402801 82.92347 
L 82.906923 92.717674 
L 83.411045 94.49283 
L 83.915167 88.53482 
L 84.419289 72.132462 
L 84.923411 87.54601 
L 85.427532 92.273827 
L 85.931654 101.226483 
L 86.435776 86.502017 
L 86.939898 75.076036 
L 87.44402 91.291806 
L 87.948142 97.961607 
L 88.452264 96.209052 
L 88.956386 85.589543 
L 89.460508 85.527616 
L 90.468752 97.591901 
L 90.972874 78.392273 
L 91.476996 91.992381 
L 91.981118 76.081181 
L 92.989362 78.813456 
L 93.493484 87.343495 
L 93.997606 83.862986 
L 94.501728 85.214706 
L 95.00585 85.253687 
L 96.014094 76.569295 
L 96.518216 82.05639 
L 97.022338 66.177727 
L 97.52646 72.349756 
L 98.030582 95.531594 
L 98.534704 77.918125 
L 99.038826 84.952477 
L 99.542947 83.038808 
L 100.047069 90.22196 
L 100.551191 72.715553 
L 101.055313 69.982147 
L 101.559435 85.174235 
L 102.063557 80.407033 
L 102.567679 85.019149 
L 103.071801 78.832076 
L 103.575923 78.727411 
L 104.080045 72.083307 
L 104.584167 82.137457 
L 105.088289 79.874468 
L 105.592411 84.26651 
L 106.096533 84.125275 
L 106.600655 74.375272 
L 107.104777 73.928469 
L 107.608899 80.571016 
L 108.113021 78.288533 
L 108.617143 82.096025 
L 109.121265 94.944345 
L 109.625387 73.923044 
L 110.129509 84.152757 
L 110.633631 77.005268 
L 111.137753 79.423909 
L 111.641875 58.875686 
L 112.145997 79.603745 
L 112.650119 75.901618 
L 113.154241 85.505942 
L 113.658363 84.202302 
L 114.162484 87.328798 
L 114.666606 72.26888 
L 115.170728 80.919422 
L 115.67485 69.800015 
L 116.178972 90.68415 
L 116.683094 79.770104 
L 117.187216 82.720796 
L 117.691338 98.070086 
L 118.19546 77.247273 
L 118.699582 92.241704 
L 119.203704 64.849046 
L 119.707826 76.138392 
L 120.211948 93.970743 
L 120.71607 79.898881 
L 121.220192 94.677712 
L 121.724314 81.517683 
L 122.228436 99.182537 
L 122.732558 98.933852 
L 123.23668 101.741347 
L 123.740802 89.022485 
L 124.244924 92.999098 
L 124.749046 81.640458 
L 125.75729 92.583156 
L 126.261412 97.336185 
L 126.765534 98.860797 
L 127.269656 81.59391 
L 127.773778 84.914 
L 128.277899 104.840247 
L 128.782021 97.295388 
L 129.286143 111.909015 
L 129.790265 92.054793 
L 130.294387 83.531993 
L 130.798509 85.291309 
L 131.302631 94.624435 
L 131.806753 91.099976 
L 132.310875 77.545119 
L 132.814997 68.653935 
L 133.319119 81.48032 
L 133.823241 77.712155 
L 134.327363 85.678152 
L 134.831485 81.595078 
L 135.335607 97.605836 
L 135.839729 69.543221 
L 136.343851 95.676245 
L 136.847973 93.328604 
L 137.352095 84.859123 
L 137.856217 71.562161 
L 138.360339 90.477075 
L 138.864461 68.100222 
L 139.368583 88.819593 
L 139.872705 79.524498 
L 140.376827 84.248578 
L 140.880949 78.879981 
L 141.385071 83.538166 
L 141.889193 89.971705 
L 142.393315 80.348555 
L 142.897436 90.437318 
L 143.401558 88.715768 
L 143.90568 85.122097 
L 144.409802 77.735678 
L 144.913924 86.119485 
L 145.418046 72.533772 
L 145.922168 78.604336 
L 146.42629 80.695036 
L 146.930412 90.381075 
L 147.434534 71.379007 
L 147.938656 76.936954 
L 148.442778 74.913833 
L 148.9469 73.52598 
L 149.451022 60.71455 
L 149.955144 76.596031 
L 150.963388 57.093176 
L 151.46751 68.157134 
L 151.971632 84.990117 
L 152.475754 80.230885 
L 152.979876 81.918082 
L 153.483998 81.839726 
L 153.98812 70.489491 
L 154.492242 76.920682 
L 154.996364 69.285639 
L 155.500486 72.44329 
L 156.004608 87.027052 
L 157.012851 70.666974 
L 158.021095 74.371795 
L 158.525217 72.894764 
L 159.029339 75.977426 
L 159.533461 68.627038 
L 160.037583 81.6142 
L 160.541705 75.719678 
L 161.045827 87.393653 
L 161.549949 87.525465 
L 162.054071 85.876106 
L 162.558193 90.792073 
L 163.062315 91.987273 
L 163.566437 89.921897 
L 164.070559 94.554411 
L 164.574681 75.148217 
L 165.078803 103.29805 
L 165.582925 86.076028 
L 166.087047 95.920298 
L 166.591169 86.758177 
L 167.095291 87.073456 
L 167.599413 76.731274 
L 168.103535 76.015835 
L 168.607657 70.707002 
L 169.111779 85.697591 
L 169.615901 71.790607 
L 170.120023 78.965947 
L 170.624145 74.235316 
L 171.128267 80.122023 
L 171.632388 79.828092 
L 172.13651 74.599648 
L 172.640632 82.057671 
L 173.144754 84.727779 
L 173.648876 71.911949 
L 174.152998 81.716722 
L 174.65712 83.145224 
L 175.161242 76.043532 
L 175.665364 82.553532 
L 176.169486 71.589416 
L 176.673608 68.970243 
L 177.17773 71.392 
L 177.681852 64.882637 
L 178.185974 74.056781 
L 178.690096 80.521157 
L 179.194218 69.162692 
L 179.69834 74.352695 
L 180.202462 73.424079 
L 180.706584 73.218493 
L 181.210706 70.942955 
L 181.714828 85.298882 
L 182.21895 92.144461 
L 182.723072 95.564278 
L 183.227194 83.009525 
L 183.731316 91.949961 
L 184.235438 78.332893 
L 184.73956 78.409324 
L 185.243682 87.466497 
L 185.747804 70.490213 
L 186.756047 93.901505 
L 187.260169 83.483283 
L 187.764291 76.501773 
L 188.268413 82.09163 
L 188.772535 72.586262 
L 189.276657 81.024945 
L 189.780779 85.290714 
L 190.789023 64.235204 
L 191.293145 77.767079 
L 191.797267 66.82266 
L 192.301389 81.419015 
L 192.805511 92.359083 
L 193.309633 86.304155 
L 193.813755 78.136254 
L 194.317877 79.744126 
L 194.821999 78.203873 
L 195.326121 77.717537 
L 195.830243 92.593686 
L 196.334365 82.82675 
L 196.838487 83.542017 
L 197.342609 81.928078 
L 197.846731 85.736926 
L 198.854975 97.823868 
L 199.359097 77.777621 
L 199.863219 82.860533 
L 200.36734 94.42891 
L 200.871462 78.522897 
L 201.375584 85.845024 
L 201.879706 79.404582 
L 202.383828 66.764735 
L 203.392072 71.870306 
L 203.896194 70.555486 
L 204.400316 60.866953 
L 205.40856 82.4293 
L 205.912682 69.343618 
L 206.416804 67.697112 
L 206.920926 62.268973 
L 207.425048 75.854825 
L 207.92917 65.995054 
L 208.433292 72.408604 
L 208.937414 91.470727 
L 209.441536 76.355262 
L 209.945658 84.506411 
L 210.44978 68.033009 
L 210.953902 70.707431 
L 211.458024 81.143225 
L 211.962146 64.25493 
L 212.466268 64.945291 
L 212.97039 68.511356 
L 213.474512 58.51061 
L 213.978634 67.015089 
L 214.482756 65.446165 
L 214.986877 67.113797 
L 215.490999 71.9897 
L 215.995121 68.300603 
L 216.499243 73.048905 
L 217.003365 79.149394 
L 217.507487 63.779721 
L 218.011609 75.164964 
L 218.515731 82.27159 
L 219.019853 80.18868 
L 219.523975 76.433605 
L 220.028097 63.639199 
L 220.532219 73.238414 
L 221.036341 65.62973 
L 221.540463 67.508426 
L 222.044585 73.389714 
L 222.548707 84.898806 
L 223.052829 85.010472 
L 224.061073 67.996088 
L 224.565195 88.677866 
L 225.069317 101.422602 
L 225.573439 88.157717 
L 226.077561 69.307361 
L 226.581683 56.058029 
L 227.085805 54.753368 
L 228.094049 89.719359 
L 228.598171 66.296934 
L 229.102292 62.764833 
L 229.606414 79.420001 
L 230.110536 80.987699 
L 230.614658 72.778327 
L 231.11878 74.90799 
L 231.622902 60.772878 
L 232.127024 71.246549 
L 232.631146 63.697151 
L 233.135268 70.507845 
L 233.63939 67.317563 
L 234.143512 81.324864 
L 234.647634 67.177566 
L 235.151756 71.032845 
L 236.16 60.993755 
L 236.664122 72.213307 
L 237.168244 69.738617 
L 237.672366 79.030864 
L 238.176488 72.833138 
L 238.68061 62.73204 
L 239.184732 57.635709 
L 239.688854 70.553645 
L 240.697098 76.894616 
L 241.20122 72.655288 
L 241.705342 62.037705 
L 242.209464 82.051561 
L 242.713586 79.001867 
L 243.217708 79.372611 
L 243.721829 78.63695 
L 244.225951 58.415569 
L 244.730073 63.892197 
L 245.234195 66.534789 
L 245.738317 66.246877 
L 246.242439 69.589466 
L 246.746561 70.769909 
L 247.250683 70.087639 
L 247.754805 73.049663 
L 248.258927 73.492292 
L 248.763049 78.691756 
L 249.267171 63.672476 
L 249.771293 72.27923 
L 250.275415 84.563108 
L 250.779537 72.38656 
L 251.283659 83.060988 
L 251.787781 75.92763 
L 252.291903 62.502274 
L 252.796025 69.882134 
L 253.300147 54.369618 
L 253.804269 80.954738 
L 254.308391 67.23126 
L 254.812513 92.360772 
L 255.316635 93.302087 
L 255.820757 62.680974 
L 256.324879 91.207353 
L 256.829001 93.762068 
L 257.333123 92.937677 
L 257.837244 76.630989 
L 258.341366 98.177762 
L 258.845488 90.875731 
L 259.34961 66.278536 
L 259.853732 80.981759 
L 260.861976 64.494947 
L 261.366098 74.499704 
L 261.87022 69.929932 
L 262.374342 75.76869 
L 262.878464 73.787244 
L 263.382586 72.815454 
L 263.886708 71.230638 
L 264.39083 67.7754 
L 265.399074 83.846268 
L 265.903196 83.875225 
L 266.407318 77.467389 
L 266.91144 67.514606 
L 267.415562 81.925269 
L 267.919684 72.350523 
L 268.423806 93.677521 
L 268.927928 85.809233 
L 269.43205 70.652437 
L 269.936172 64.332414 
L 270.944416 87.578556 
L 271.448538 81.97851 
L 271.95266 81.087098 
L 272.456781 86.804891 
L 272.960903 89.060174 
L 273.465025 82.432038 
L 273.969147 90.720297 
L 274.473269 92.864722 
L 274.977391 81.714521 
L 275.481513 75.847264 
L 275.985635 79.988732 
L 276.489757 72.143154 
L 276.993879 77.517187 
L 277.498001 88.152343 
L 278.002123 79.383924 
L 278.506245 84.434794 
L 279.010367 68.480603 
L 279.514489 88.533021 
L 280.018611 77.479107 
L 280.522733 55.452924 
L 281.026855 53.568 
L 281.530977 90.422779 
L 282.035099 64.213773 
L 282.539221 81.51491 
L 283.043343 81.37501 
L 283.547465 89.449585 
L 284.051587 65.170745 
L 284.555709 73.840202 
L 285.059831 75.575066 
L 285.563953 71.192726 
L 286.068075 81.435365 
L 286.572196 73.924256 
L 287.076318 85.911957 
L 287.58044 63.382776 
L 288.588684 64.976713 
L 289.092806 71.446972 
L 289.596928 83.854772 
L 290.10105 66.726436 
L 290.605172 75.782394 
L 291.109294 79.23344 
L 291.613416 75.044221 
L 292.117538 71.82862 
L 292.62166 94.212019 
L 293.125782 100.410916 
L 293.629904 97.060604 
L 294.134026 80.919596 
L 294.638148 80.263111 
L 295.14227 85.382499 
L 295.646392 93.149528 
L 296.150514 90.59451 
L 296.654636 84.417514 
L 297.158758 95.447286 
L 297.66288 85.204638 
L 298.167002 93.42969 
L 298.671124 95.303344 
L 299.175246 91.369307 
L 299.679368 99.106889 
L 300.18349 75.448354 
L 300.687612 105.445272 
L 301.695855 90.516791 
L 302.704099 83.7473 
L 303.208221 109.961888 
L 303.712343 86.275701 
L 304.216465 92.958243 
L 304.720587 80.846146 
L 305.224709 74.673986 
L 305.728831 104.262721 
L 306.232953 85.273202 
L 306.737075 96.700221 
L 307.241197 87.784013 
L 307.745319 90.404575 
L 308.249441 95.035471 
L 308.753563 92.469827 
L 309.257685 103.368235 
L 309.761807 85.243925 
L 310.265929 86.546213 
L 310.770051 102.372432 
L 311.274173 82.777404 
L 311.778295 87.22004 
L 312.282417 78.887104 
L 312.786539 75.060629 
L 313.290661 74.702064 
L 313.794783 73.995288 
L 314.298905 77.66305 
L 314.803027 78.248093 
L 315.307149 83.442616 
L 315.81127 81.027882 
L 316.315392 70.260989 
L 316.819514 78.109973 
L 317.323636 74.796563 
L 317.827758 65.691452 
L 318.33188 63.730612 
L 318.836002 80.4934 
L 319.340124 66.953203 
L 319.844246 89.801792 
L 320.348368 76.130464 
L 320.85249 80.931739 
L 321.356612 79.594265 
L 321.860734 80.726143 
L 322.364856 68.961715 
L 322.868978 60.936465 
L 323.3731 75.521851 
L 323.877222 72.082479 
L 324.381344 56.191787 
L 325.389588 82.459722 
L 325.89371 57.289018 
L 326.397832 75.26985 
L 326.901954 60.986603 
L 327.406076 79.18247 
L 327.910198 72.591259 
L 328.41432 67.484407 
L 328.918442 75.560312 
L 329.422564 72.178262 
L 329.926685 80.840951 
L 330.430807 66.203734 
L 330.934929 76.83331 
L 331.439051 72.29176 
L 331.943173 65.27247 
L 332.951417 81.906392 
L 333.959661 54.311843 
L 334.463783 58.640923 
L 334.967905 65.731943 
L 335.472027 64.085949 
L 335.976149 86.821964 
L 336.480271 67.077331 
L 336.984393 67.73603 
L 337.488515 90.086586 
L 337.992637 60.469155 
L 338.496759 56.740044 
L 339.000881 69.465271 
L 339.505003 73.600181 
L 340.009125 64.063161 
L 340.513247 60.602179 
L 341.017369 67.033013 
L 341.521491 82.312811 
L 342.025613 74.267651 
L 342.529735 80.526302 
L 343.033857 75.569143 
L 343.537979 76.652035 
L 344.042101 79.188969 
L 344.546222 76.096006 
L 345.050344 61.73197 
L 345.554466 77.723654 
L 346.058588 72.78896 
L 346.56271 81.476414 
L 347.066832 78.819421 
L 347.570954 63.471798 
L 348.075076 80.294272 
L 348.579198 62.942606 
L 349.08332 82.819798 
L 349.587442 60.915569 
L 350.091564 85.041719 
L 350.595686 89.615422 
L 351.099808 84.661939 
L 351.60393 75.616077 
L 352.108052 83.220763 
L 352.612174 72.983996 
L 353.116296 72.209132 
L 353.620418 56.789746 
L 354.12454 70.735495 
L 354.628662 70.555737 
L 355.132784 91.132729 
L 355.636906 97.988818 
L 356.141028 82.524025 
L 356.64515 74.266359 
L 357.149272 75.491607 
L 357.653394 61.980195 
L 358.157516 66.572714 
L 358.661637 69.835507 
L 359.165759 70.644024 
L 359.669881 80.574897 
L 360.174003 70.723851 
L 360.678125 89.057391 
L 361.182247 85.559192 
L 361.686369 78.408041 
L 362.190491 69.305575 
L 362.694613 67.949602 
L 363.198735 74.007367 
L 363.702857 75.608738 
L 364.206979 92.885793 
L 364.711101 66.860791 
L 365.215223 84.821026 
L 365.719345 77.813663 
L 366.223467 73.878642 
L 366.727589 76.380194 
L 367.231711 95.836849 
L 367.735833 70.714495 
L 368.239955 70.56719 
L 368.744077 78.318669 
L 369.248199 87.924673 
L 369.752321 80.926257 
L 370.256443 84.99121 
L 370.760565 86.591822 
L 371.264687 74.529518 
L 371.768809 79.540556 
L 372.272931 82.039156 
L 372.777053 87.535494 
L 373.281174 73.879876 
L 373.785296 93.75087 
L 374.289418 86.517379 
L 374.79354 75.520158 
L 375.297662 81.317292 
L 375.801784 73.467637 
L 376.305906 71.03104 
L 376.810028 93.365389 
L 377.31415 80.935317 
L 377.818272 71.325763 
L 378.322394 87.531188 
L 378.826516 73.518286 
L 379.330638 82.253984 
L 379.83476 70.526676 
L 380.338882 64.663838 
L 380.843004 69.558958 
L 381.347126 76.539315 
L 381.851248 79.247057 
L 382.35537 72.478435 
L 382.859492 75.163727 
L 383.363614 74.788584 
L 383.867736 86.293655 
L 384.371858 92.051474 
L 384.87598 93.657377 
L 385.380102 86.191669 
L 385.884224 72.806443 
L 386.388346 83.612336 
L 386.892468 84.595078 
L 387.396589 89.95055 
L 387.900711 81.703838 
L 388.404833 85.653562 
L 389.413077 60.226591 
L 389.917199 83.365517 
L 390.421321 87.046537 
L 390.925443 66.050836 
L 391.429565 85.845028 
L 391.933687 74.276338 
L 392.437809 69.511747 
L 392.941931 79.766743 
L 393.446053 78.11779 
L 393.950175 83.313883 
L 394.454297 100.60476 
L 394.958419 75.126939 
L 395.462541 82.41782 
L 396.470785 59.477532 
L 396.974907 77.003415 
L 397.479029 83.838445 
L 397.983151 76.751863 
L 398.487273 80.868539 
L 398.487273 80.868539 
" clip-path="url(#p041c372c44)" style="fill: none; stroke-dasharray: 9.6,2.4,1.5,2.4; stroke-dashoffset: 0; stroke: #008000; stroke-width: 1.5"/>
   </g>
   <g id="line2d_29">
    <path d="M 73.832727 80.080553 
L 74.336849 86.820879 
L 75.345093 77.2474 
L 75.849215 76.262723 
L 76.353337 77.345501 
L 76.857459 76.895772 
L 77.361581 84.684308 
L 77.865703 83.321296 
L 78.369825 77.351773 
L 78.873947 74.841963 
L 79.378069 73.6031 
L 79.882191 78.607611 
L 80.386313 80.221817 
L 80.890435 78.644755 
L 81.394557 77.896944 
L 81.898679 72.461759 
L 82.402801 77.193238 
L 82.906923 73.781556 
L 83.411045 83.491032 
L 83.915167 76.678381 
L 84.923411 74.279897 
L 85.427532 79.080556 
L 85.931654 77.645171 
L 86.435776 73.931989 
L 86.939898 76.826534 
L 87.44402 74.8585 
L 87.948142 75.779329 
L 88.452264 78.592545 
L 88.956386 77.432476 
L 89.460508 74.002841 
L 89.96463 81.609604 
L 90.468752 74.708092 
L 90.972874 72.869147 
L 91.476996 76.682365 
L 91.981118 74.830133 
L 92.48524 75.290572 
L 92.989362 72.839829 
L 93.493484 78.048907 
L 93.997606 75.878127 
L 94.501728 73.096577 
L 95.00585 77.431021 
L 95.509972 79.077077 
L 96.014094 71.820248 
L 96.518216 74.514197 
L 97.022338 74.459987 
L 97.52646 74.639869 
L 98.030582 77.793609 
L 98.534704 76.669318 
L 99.038826 76.0597 
L 99.542947 74.596885 
L 100.047069 82.586057 
L 100.551191 79.451372 
L 101.055313 72.706919 
L 101.559435 76.270756 
L 102.063557 75.695823 
L 102.567679 73.682903 
L 103.071801 75.221915 
L 103.575923 78.335599 
L 104.080045 79.279079 
L 104.584167 76.488065 
L 105.088289 77.287711 
L 105.592411 75.922587 
L 106.096533 80.849419 
L 106.600655 73.664478 
L 107.104777 75.99591 
L 107.608899 74.459285 
L 108.113021 74.937782 
L 109.121265 74.927934 
L 109.625387 73.101876 
L 110.633631 78.8837 
L 111.137753 78.763983 
L 111.641875 75.240924 
L 112.145997 77.374096 
L 112.650119 76.56988 
L 113.658363 75.543585 
L 114.162484 77.345146 
L 114.666606 74.929701 
L 115.170728 76.766191 
L 115.67485 76.839339 
L 116.178972 77.385112 
L 116.683094 74.341231 
L 117.187216 77.273266 
L 117.691338 76.507825 
L 118.19546 79.47247 
L 118.699582 77.781094 
L 119.203704 73.060275 
L 119.707826 74.798532 
L 120.211948 77.075686 
L 120.71607 75.501071 
L 121.220192 75.753065 
L 121.724314 77.89351 
L 122.228436 77.789872 
L 122.732558 74.299978 
L 123.23668 78.769122 
L 123.740802 75.934619 
L 124.244924 73.870171 
L 124.749046 78.539866 
L 125.253168 73.581875 
L 125.75729 76.203422 
L 126.261412 76.798434 
L 126.765534 75.284419 
L 127.269656 72.865328 
L 128.277899 79.228315 
L 128.782021 76.692977 
L 129.286143 73.030199 
L 129.790265 77.819662 
L 130.294387 79.216011 
L 130.798509 74.835565 
L 131.302631 74.580981 
L 131.806753 73.943099 
L 132.310875 76.214177 
L 132.814997 74.024494 
L 133.319119 74.578133 
L 133.823241 71.807487 
L 134.327363 76.740211 
L 134.831485 79.728966 
L 135.335607 78.62573 
L 135.839729 73.812029 
L 136.343851 77.685687 
L 136.847973 72.828094 
L 137.352095 77.132113 
L 137.856217 73.178804 
L 138.360339 75.147879 
L 138.864461 75.524259 
L 139.368583 79.031374 
L 139.872705 71.802178 
L 140.376827 75.256429 
L 140.880949 75.042027 
L 141.385071 75.31579 
L 141.889193 80.278629 
L 142.393315 72.6958 
L 142.897436 76.950117 
L 143.401558 74.126055 
L 143.90568 77.680054 
L 144.409802 75.113066 
L 144.913924 77.50568 
L 145.418046 73.457782 
L 145.922168 74.653004 
L 146.930412 79.185297 
L 147.434534 74.21508 
L 147.938656 75.647223 
L 148.442778 77.565239 
L 148.9469 75.045426 
L 149.451022 74.636032 
L 149.955144 77.196235 
L 150.459266 75.378911 
L 150.963388 72.496584 
L 151.46751 74.592459 
L 151.971632 72.796803 
L 152.475754 75.63655 
L 152.979876 74.509059 
L 153.483998 75.671193 
L 153.98812 73.021823 
L 154.492242 78.866785 
L 154.996364 74.698161 
L 155.500486 72.082249 
L 156.004608 74.491707 
L 156.50873 74.695895 
L 157.012851 76.313013 
L 157.516973 75.262212 
L 158.021095 77.550247 
L 158.525217 74.467524 
L 159.029339 74.878651 
L 159.533461 74.818753 
L 160.037583 76.580582 
L 160.541705 79.976326 
L 161.045827 75.397007 
L 161.549949 73.961163 
L 162.054071 78.424535 
L 162.558193 73.170468 
L 163.062315 77.17332 
L 163.566437 73.10191 
L 164.070559 77.767211 
L 164.574681 74.449209 
L 165.078803 78.505561 
L 165.582925 75.873379 
L 166.087047 76.236996 
L 166.591169 74.015609 
L 167.095291 75.292871 
L 167.599413 75.960521 
L 168.103535 74.772266 
L 168.607657 74.512792 
L 169.111779 73.548942 
L 169.615901 76.160434 
L 170.120023 74.233398 
L 170.624145 73.711093 
L 171.128267 71.969244 
L 171.632388 72.89253 
L 172.13651 72.103727 
L 172.640632 75.330847 
L 173.144754 75.724422 
L 173.648876 73.089129 
L 174.65712 78.230679 
L 175.161242 76.43025 
L 175.665364 75.486572 
L 176.169486 76.176842 
L 176.673608 74.104244 
L 177.17773 74.610465 
L 177.681852 75.393505 
L 178.185974 74.254666 
L 178.690096 74.23617 
L 179.194218 75.21814 
L 179.69834 75.956343 
L 180.202462 73.654381 
L 181.210706 72.427932 
L 181.714828 76.00528 
L 182.723072 72.543254 
L 183.227194 78.056469 
L 183.731316 72.776376 
L 184.73956 75.606078 
L 185.243682 80.509854 
L 185.747804 72.079976 
L 186.251925 74.730073 
L 186.756047 75.550674 
L 187.260169 75.967692 
L 187.764291 80.02419 
L 188.268413 78.115901 
L 188.772535 75.553586 
L 189.276657 75.786061 
L 189.780779 73.34751 
L 190.284901 73.13594 
L 190.789023 74.365219 
L 191.293145 74.897536 
L 191.797267 73.679806 
L 192.301389 73.410905 
L 192.805511 77.422246 
L 193.309633 73.796132 
L 193.813755 73.009116 
L 194.317877 73.262439 
L 194.821999 74.24326 
L 195.326121 74.520118 
L 195.830243 73.629242 
L 196.334365 72.443026 
L 196.838487 76.546497 
L 197.342609 73.281871 
L 198.350853 75.997947 
L 198.854975 76.437466 
L 199.359097 72.650964 
L 199.863219 72.99858 
L 200.36734 73.986699 
L 200.871462 73.750427 
L 201.375584 75.1993 
L 202.383828 72.393413 
L 202.88795 77.139189 
L 203.392072 73.510816 
L 203.896194 74.683232 
L 204.400316 74.559902 
L 204.904438 73.419156 
L 205.40856 78.950443 
L 205.912682 73.243658 
L 206.416804 74.099104 
L 206.920926 72.477856 
L 207.92917 77.998172 
L 208.433292 76.705956 
L 208.937414 74.287475 
L 209.441536 73.466755 
L 209.945658 76.103152 
L 210.44978 72.322028 
L 210.953902 73.468153 
L 211.458024 74.990647 
L 211.962146 72.564921 
L 212.466268 74.668722 
L 212.97039 72.332605 
L 213.474512 72.630297 
L 213.978634 74.017324 
L 214.482756 74.152243 
L 214.986877 75.984207 
L 215.490999 77.332142 
L 215.995121 76.058974 
L 216.499243 76.881485 
L 217.003365 77.125415 
L 217.507487 72.874194 
L 218.011609 74.096719 
L 218.515731 73.859532 
L 219.019853 79.027688 
L 219.523975 76.452296 
L 220.028097 72.082388 
L 220.532219 78.040149 
L 221.036341 73.711352 
L 221.540463 72.468877 
L 222.548707 80.047428 
L 223.052829 75.82261 
L 223.556951 78.2502 
L 224.061073 73.612336 
L 224.565195 73.685515 
L 225.069317 74.834247 
L 225.573439 74.812625 
L 226.077561 72.253719 
L 226.581683 74.932742 
L 227.085805 72.322289 
L 227.589927 73.396557 
L 228.094049 72.924678 
L 229.102292 74.23626 
L 229.606414 75.647657 
L 230.110536 72.206417 
L 230.614658 73.431623 
L 231.11878 75.806695 
L 231.622902 75.484191 
L 232.127024 73.346498 
L 232.631146 72.856448 
L 233.135268 72.670334 
L 233.63939 73.468659 
L 234.143512 74.699936 
L 234.647634 73.831593 
L 235.151756 76.841844 
L 235.655878 77.578992 
L 236.16 74.719144 
L 236.664122 73.784514 
L 237.168244 73.221463 
L 237.672366 74.211188 
L 238.176488 73.654763 
L 238.68061 73.376155 
L 239.184732 73.531932 
L 239.688854 72.481465 
L 240.192976 73.87021 
L 240.697098 73.183171 
L 241.20122 75.091595 
L 241.705342 72.188101 
L 242.209464 76.272919 
L 242.713586 72.176202 
L 243.217708 72.76346 
L 243.721829 73.14851 
L 244.225951 72.737619 
L 244.730073 75.102572 
L 245.234195 72.120707 
L 245.738317 75.907788 
L 246.242439 76.318146 
L 246.746561 73.619104 
L 247.754805 73.208966 
L 248.258927 76.357174 
L 248.763049 72.193713 
L 249.267171 74.098898 
L 249.771293 74.688512 
L 250.275415 76.952349 
L 250.779537 73.401149 
L 251.283659 73.958683 
L 251.787781 75.162408 
L 252.291903 76.997938 
L 252.796025 73.062395 
L 253.300147 74.098787 
L 253.804269 74.665551 
L 254.308391 73.597127 
L 254.812513 74.35708 
L 255.316635 76.442412 
L 255.820757 74.048631 
L 256.324879 77.212096 
L 256.829001 73.541372 
L 257.333123 74.039416 
L 257.837244 73.307606 
L 258.341366 75.603626 
L 258.845488 75.334786 
L 259.34961 72.853683 
L 259.853732 72.551374 
L 260.357854 73.538095 
L 260.861976 73.443289 
L 261.366098 74.670866 
L 261.87022 71.663403 
L 262.374342 73.175629 
L 262.878464 76.838083 
L 263.382586 74.135951 
L 263.886708 75.520892 
L 264.39083 75.023614 
L 264.894952 71.712306 
L 265.399074 72.113792 
L 265.903196 76.764387 
L 266.407318 72.76871 
L 266.91144 72.735341 
L 267.415562 74.834318 
L 267.919684 74.711807 
L 268.423806 72.765255 
L 268.927928 76.677799 
L 269.43205 73.001593 
L 269.936172 72.950288 
L 270.440294 75.477866 
L 270.944416 73.37765 
L 271.448538 74.469148 
L 272.456781 72.995244 
L 272.960903 74.004082 
L 273.465025 75.593696 
L 273.969147 76.099919 
L 274.473269 73.018409 
L 274.977391 74.048526 
L 275.481513 75.379044 
L 275.985635 72.091646 
L 276.489757 73.172157 
L 276.993879 76.397464 
L 277.498001 75.025288 
L 278.002123 75.435162 
L 278.506245 72.110714 
L 279.010367 76.710815 
L 279.514489 75.058995 
L 280.018611 74.016728 
L 280.522733 73.301885 
L 281.026855 73.361895 
L 281.530977 73.906894 
L 282.035099 72.473742 
L 282.539221 74.042164 
L 283.043343 77.377921 
L 283.547465 76.358138 
L 284.051587 74.755216 
L 284.555709 72.427557 
L 285.059831 73.496496 
L 285.563953 72.243416 
L 286.068075 72.497149 
L 286.572196 76.613959 
L 287.076318 76.160036 
L 287.58044 73.366792 
L 288.084562 75.042872 
L 288.588684 72.642027 
L 289.092806 72.181359 
L 289.596928 75.472206 
L 290.10105 72.50632 
L 290.605172 74.163667 
L 291.109294 74.475249 
L 291.613416 71.971035 
L 292.117538 76.700556 
L 292.62166 72.772738 
L 293.125782 71.972891 
L 293.629904 73.017441 
L 294.134026 73.666046 
L 294.638148 73.166168 
L 295.14227 72.130302 
L 295.646392 72.954056 
L 296.150514 76.63063 
L 296.654636 74.66448 
L 297.158758 77.04913 
L 297.66288 77.673429 
L 298.167002 77.360962 
L 298.671124 73.60654 
L 299.175246 74.304514 
L 299.679368 74.371281 
L 300.18349 72.840893 
L 300.687612 73.491413 
L 301.191733 74.849143 
L 301.695855 72.009109 
L 302.199977 79.475949 
L 302.704099 73.054291 
L 303.208221 77.247392 
L 303.712343 74.045792 
L 304.216465 74.180942 
L 305.224709 73.932693 
L 305.728831 74.383887 
L 306.232953 73.301932 
L 306.737075 74.605929 
L 307.241197 72.189751 
L 308.249441 78.208805 
L 309.257685 71.474163 
L 309.761807 73.665137 
L 310.265929 72.134196 
L 310.770051 73.289456 
L 311.274173 72.25684 
L 312.282417 74.735512 
L 312.786539 74.689403 
L 313.290661 75.588304 
L 313.794783 75.29234 
L 314.298905 72.444299 
L 315.307149 76.634501 
L 315.81127 74.363031 
L 316.315392 73.166736 
L 316.819514 73.260315 
L 317.323636 78.438065 
L 317.827758 72.38197 
L 318.33188 72.444229 
L 318.836002 77.27435 
L 319.340124 74.341285 
L 319.844246 75.525986 
L 320.348368 72.569959 
L 320.85249 73.342297 
L 321.356612 75.635902 
L 321.860734 74.967605 
L 322.364856 73.323678 
L 322.868978 73.707678 
L 323.3731 79.647529 
L 323.877222 72.784597 
L 324.381344 75.071746 
L 324.885466 76.544879 
L 325.389588 73.575686 
L 325.89371 74.67467 
L 326.397832 72.127998 
L 326.901954 73.186389 
L 327.406076 72.895137 
L 327.910198 76.313268 
L 328.41432 72.147427 
L 328.918442 74.501929 
L 329.422564 75.303448 
L 329.926685 72.297531 
L 330.430807 74.14388 
L 330.934929 74.211932 
L 331.439051 75.516644 
L 331.943173 73.464554 
L 332.447295 78.630461 
L 332.951417 76.908851 
L 333.455539 73.86423 
L 334.463783 74.609252 
L 334.967905 74.947882 
L 335.472027 73.507294 
L 335.976149 72.912895 
L 336.480271 73.004313 
L 336.984393 74.840376 
L 337.488515 75.611991 
L 337.992637 76.148489 
L 338.496759 73.717802 
L 339.000881 72.968553 
L 339.505003 73.044984 
L 340.009125 72.867082 
L 340.513247 73.176529 
L 341.017369 73.209016 
L 341.521491 75.743052 
L 342.025613 73.160877 
L 342.529735 78.670522 
L 343.033857 74.298597 
L 343.537979 73.508508 
L 344.042101 74.252977 
L 344.546222 73.734907 
L 345.050344 72.458599 
L 345.554466 72.6187 
L 346.56271 74.177541 
L 347.066832 72.928809 
L 347.570954 72.544876 
L 348.075076 75.846423 
L 348.579198 76.548797 
L 349.08332 72.412176 
L 349.587442 72.673917 
L 350.091564 73.289278 
L 350.595686 75.182972 
L 351.099808 74.039998 
L 351.60393 74.041258 
L 352.108052 76.144794 
L 352.612174 72.698137 
L 353.116296 73.647287 
L 353.620418 73.005655 
L 354.12454 72.114962 
L 354.628662 73.131406 
L 355.132784 73.618304 
L 355.636906 75.877755 
L 356.64515 74.518169 
L 357.149272 76.270378 
L 357.653394 77.487122 
L 358.157516 73.084589 
L 358.661637 74.548479 
L 359.165759 73.315539 
L 359.669881 73.213168 
L 360.174003 79.75192 
L 360.678125 74.505255 
L 361.182247 75.536856 
L 361.686369 72.512432 
L 362.190491 74.252613 
L 362.694613 72.858105 
L 363.198735 73.625425 
L 363.702857 75.658411 
L 364.206979 74.993077 
L 364.711101 73.32324 
L 365.215223 72.697192 
L 365.719345 73.884808 
L 366.223467 74.525132 
L 366.727589 73.684059 
L 367.231711 77.198632 
L 367.735833 73.746929 
L 368.239955 73.56845 
L 368.744077 75.453549 
L 369.248199 75.193793 
L 369.752321 77.46254 
L 370.760565 73.458459 
L 371.264687 76.336922 
L 371.768809 72.494857 
L 372.272931 75.848894 
L 372.777053 72.560736 
L 373.281174 72.728846 
L 373.785296 71.756481 
L 374.289418 74.42112 
L 374.79354 72.246065 
L 375.297662 74.040495 
L 375.801784 75.116492 
L 376.305906 75.068117 
L 376.810028 75.255596 
L 377.31415 73.587706 
L 377.818272 74.898193 
L 378.322394 73.94571 
L 378.826516 78.823482 
L 379.330638 73.147322 
L 379.83476 74.071615 
L 380.338882 74.133872 
L 380.843004 72.50122 
L 381.347126 77.004737 
L 381.851248 74.445426 
L 382.35537 73.226536 
L 382.859492 72.912641 
L 383.363614 77.22731 
L 383.867736 72.323522 
L 384.87598 75.256939 
L 385.380102 77.531288 
L 385.884224 72.228419 
L 386.388346 74.114602 
L 386.892468 74.962483 
L 387.396589 72.169907 
L 387.900711 74.746089 
L 388.404833 75.450778 
L 388.908955 74.510878 
L 389.413077 72.946549 
L 389.917199 73.440279 
L 390.421321 72.548849 
L 390.925443 75.295265 
L 391.429565 74.274781 
L 391.933687 74.221896 
L 392.437809 72.914725 
L 392.941931 74.477006 
L 393.446053 75.001838 
L 393.950175 73.685291 
L 394.454297 72.980595 
L 394.958419 74.983572 
L 395.462541 74.176518 
L 396.470785 73.179512 
L 396.974907 72.353041 
L 397.479029 73.207713 
L 397.983151 74.358014 
L 398.487273 77.351713 
L 398.487273 77.351713 
" clip-path="url(#p041c372c44)" style="fill: none; stroke: #ff0000; stroke-width: 1.5; stroke-linecap: square"/>
   </g>
   <g id="patch_3">
    <path d="M 57.6 307.584 
L 57.6 41.472 
" style="fill: none; stroke: #000000; stroke-width: 0.8; stroke-linejoin: miter; stroke-linecap: square"/>
   </g>
   <g id="patch_4">
    <path d="M 414.72 307.584 
L 414.72 41.472 
" style="fill: none; stroke: #000000; stroke-width: 0.8; stroke-linejoin: miter; stroke-linecap: square"/>
   </g>
   <g id="patch_5">
    <path d="M 57.6 307.584 
L 414.72 307.584 
" style="fill: none; stroke: #000000; stroke-width: 0.8; stroke-linejoin: miter; stroke-linecap: square"/>
   </g>
   <g id="patch_6">
    <path d="M 57.6 41.472 
L 414.72 41.472 
" style="fill: none; stroke: #000000; stroke-width: 0.8; stroke-linejoin: miter; stroke-linecap: square"/>
   </g>
   <g id="text_17">
    <!-- Population's average and best fitness -->
    <g transform="translate(123.529687 35.472)scale(0.12 -0.12)">
     <defs>
      <path id="DejaVuSans-50" d="M 1259 4147 
L 1259 2394 
L 2053 2394 
Q 2494 2394 2734 2622 
Q 2975 2850 2975 3272 
Q 2975 3691 2734 3919 
Q 2494 4147 2053 4147 
L 1259 4147 
z
M 628 4666 
L 2053 4666 
Q 2838 4666 3239 4311 
Q 3641 3956 3641 3272 
Q 3641 2581 3239 2228 
Q 2838 1875 2053 1875 
L 1259 1875 
L 1259 0 
L 628 0 
L 628 4666 
z
" transform="scale(0.015625)"/>
      <path id="DejaVuSans-70" d="M 1159 525 
L 1159 -1331 
L 581 -1331 
L 581 3500 
L 1159 3500 
L 1159 2969 
Q 1341 3281 1617 3432 
Q 1894 3584 2278 3584 
Q 2916 3584 3314 3078 
Q 3713 2572 3713 1747 
Q 3713 922 3314 415 
Q 2916 -91 2278 -91 
Q 1894 -91 1617 61 
Q 1341 213 1159 525 
z
M 3116 1747 
Q 3116 2381 2855 2742 
Q 2594 3103 2138 3103 
Q 1681 3103 1420 2742 
Q 1159 2381 1159 1747 
Q 1159 1113 1420 752 
Q 1681 391 2138 391 
Q 2594 391 2855 752 
Q 3116 1113 3116 1747 
z
" transform="scale(0.015625)"/>
      <path id="DejaVuSans-75" d="M 544 1381 
L 544 3500 
L 1119 3500 
L 1119 1403 
Q 1119 906 1312 657 
Q 1506 409 1894 409 
Q 2359 409 2629 706 
Q 2900 1003 2900 1516 
L 2900 3500 
L 3475 3500 
L 3475 0 
L 2900 0 
L 2900 538 
Q 2691 219 2414 64 
Q 2138 -91 1772 -91 
Q 1169 -91 856 284 
Q 544 659 544 1381 
z
M 1991 3584 
L 1991 3584 
z
" transform="scale(0.015625)"/>
      <path id="DejaVuSans-6c" d="M 603 4863 
L 1178 4863 
L 1178 0 
L 603 0 
L 603 4863 
z
" transform="scale(0.015625)"/>
      <path id="DejaVuSans-27" d="M 1147 4666 
L 1147 2931 
L 616 2931 
L 616 4666 
L 1147 4666 
z
" transform="scale(0.015625)"/>
      <path id="DejaVuSans-20" transform="scale(0.015625)"/>
      <path id="DejaVuSans-76" d="M 191 3500 
L 800 3500 
L 1894 563 
L 2988 3500 
L 3597 3500 
L 2284 0 
L 1503 0 
L 191 3500 
z
" transform="scale(0.015625)"/>
      <path id="DejaVuSans-67" d="M 2906 1791 
Q 2906 2416 2648 2759 
Q 2391 3103 1925 3103 
Q 1463 3103 1205 2759 
Q 947 2416 947 1791 
Q 947 1169 1205 825 
Q 1463 481 1925 481 
Q 2391 481 2648 825 
Q 2906 1169 2906 1791 
z
M 3481 434 
Q 3481 -459 3084 -895 
Q 2688 -1331 1869 -1331 
Q 1566 -1331 1297 -1286 
Q 1028 -1241 775 -1147 
L 775 -588 
Q 1028 -725 1275 -790 
Q 1522 -856 1778 -856 
Q 2344 -856 2625 -561 
Q 2906 -266 2906 331 
L 2906 616 
Q 2728 306 2450 153 
Q 2172 0 1784 0 
Q 1141 0 747 490 
Q 353 981 353 1791 
Q 353 2603 747 3093 
Q 1141 3584 1784 3584 
Q 2172 3584 2450 3431 
Q 2728 3278 2906 2969 
L 2906 3500 
L 3481 3500 
L 3481 434 
z
" transform="scale(0.015625)"/>
      <path id="DejaVuSans-64" d="M 2906 2969 
L 2906 4863 
L 3481 4863 
L 3481 0 
L 2906 0 
L 2906 525 
Q 2725 213 2448 61 
Q 2172 -91 1784 -91 
Q 1150 -91 751 415 
Q 353 922 353 1747 
Q 353 2572 751 3078 
Q 1150 3584 1784 3584 
Q 2172 3584 2448 3432 
Q 2725 3281 2906 2969 
z
M 947 1747 
Q 947 1113 1208 752 
Q 1469 391 1925 391 
Q 2381 391 2643 752 
Q 2906 1113 2906 1747 
Q 2906 2381 2643 2742 
Q 2381 3103 1925 3103 
Q 1469 3103 1208 2742 
Q 947 2381 947 1747 
z
" transform="scale(0.015625)"/>
      <path id="DejaVuSans-62" d="M 3116 1747 
Q 3116 2381 2855 2742 
Q 2594 3103 2138 3103 
Q 1681 3103 1420 2742 
Q 1159 2381 1159 1747 
Q 1159 1113 1420 752 
Q 1681 391 2138 391 
Q 2594 391 2855 752 
Q 3116 1113 3116 1747 
z
M 1159 2969 
Q 1341 3281 1617 3432 
Q 1894 3584 2278 3584 
Q 2916 3584 3314 3078 
Q 3713 2572 3713 1747 
Q 3713 922 3314 415 
Q 2916 -91 2278 -91 
Q 1894 -91 1617 61 
Q 1341 213 1159 525 
L 1159 0 
L 581 0 
L 581 4863 
L 1159 4863 
L 1159 2969 
z
" transform="scale(0.015625)"/>
      <path id="DejaVuSans-66" d="M 2375 4863 
L 2375 4384 
L 1825 4384 
Q 1516 4384 1395 4259 
Q 1275 4134 1275 3809 
L 1275 3500 
L 2222 3500 
L 2222 3053 
L 1275 3053 
L 1275 0 
L 697 0 
L 697 3053 
L 147 3053 
L 147 3500 
L 697 3500 
L 697 3744 
Q 697 4328 969 4595 
Q 1241 4863 1831 4863 
L 2375 4863 
z
" transform="scale(0.015625)"/>
     </defs>
     <use xlink:href="#DejaVuSans-50"/>
     <use xlink:href="#DejaVuSans-6f" x="56.677734"/>
     <use xlink:href="#DejaVuSans-70" x="117.859375"/>
     <use xlink:href="#DejaVuSans-75" x="181.335938"/>
     <use xlink:href="#DejaVuSans-6c" x="244.714844"/>
     <use xlink:href="#DejaVuSans-61" x="272.498047"/>
     <use xlink:href="#DejaVuSans-74" x="333.777344"/>
     <use xlink:href="#DejaVuSans-69" x="372.986328"/>
     <use xlink:href="#DejaVuSans-6f" x="400.769531"/>
     <use xlink:href="#DejaVuSans-6e" x="461.951172"/>
     <use xlink:href="#DejaVuSans-27" x="525.330078"/>
     <use xlink:href="#DejaVuSans-73" x="552.820312"/>
     <use xlink:href="#DejaVuSans-20" x="604.919922"/>
     <use xlink:href="#DejaVuSans-61" x="636.707031"/>
     <use xlink:href="#DejaVuSans-76" x="697.986328"/>
     <use xlink:href="#DejaVuSans-65" x="757.166016"/>
     <use xlink:href="#DejaVuSans-72" x="818.689453"/>
     <use xlink:href="#DejaVuSans-61" x="859.802734"/>
     <use xlink:href="#DejaVuSans-67" x="921.082031"/>
     <use xlink:href="#DejaVuSans-65" x="984.558594"/>
     <use xlink:href="#DejaVuSans-20" x="1046.082031"/>
     <use xlink:href="#DejaVuSans-61" x="1077.869141"/>
     <use xlink:href="#DejaVuSans-6e" x="1139.148438"/>
     <use xlink:href="#DejaVuSans-64" x="1202.527344"/>
     <use xlink:href="#DejaVuSans-20" x="1266.003906"/>
     <use xlink:href="#DejaVuSans-62" x="1297.791016"/>
     <use xlink:href="#DejaVuSans-65" x="1361.267578"/>
     <use xlink:href="#DejaVuSans-73" x="1422.791016"/>
     <use xlink:href="#DejaVuSans-74" x="1474.890625"/>
     <use xlink:href="#DejaVuSans-20" x="1514.099609"/>
     <use xlink:href="#DejaVuSans-66" x="1545.886719"/>
     <use xlink:href="#DejaVuSans-69" x="1581.091797"/>
     <use xlink:href="#DejaVuSans-74" x="1608.875"/>
     <use xlink:href="#DejaVuSans-6e" x="1648.083984"/>
     <use xlink:href="#DejaVuSans-65" x="1711.462891"/>
     <use xlink:href="#DejaVuSans-73" x="1772.986328"/>
     <use xlink:href="#DejaVuSans-73" x="1825.085938"/>
    </g>
   </g>
   <g id="legend_1">
    <g id="patch_7">
     <path d="M 334.779375 302.584 
L 407.72 302.584 
Q 409.72 302.584 409.72 300.584 
L 409.72 257.549625 
Q 409.72 255.549625 407.72 255.549625 
L 334.779375 255.549625 
Q 332.779375 255.549625 332.779375 257.549625 
L 332.779375 300.584 
Q 332.779375 302.584 334.779375 302.584 
z
" style="fill: #ffffff; opacity: 0.8; stroke: #cccccc; stroke-linejoin: miter"/>
    </g>
    <g id="line2d_30">
     <path d="M 336.779375 263.648062 
L 346.779375 263.648062 
L 356.779375 263.648062 
" style="fill: none; stroke: #0000ff; stroke-width: 1.5; stroke-linecap: square"/>
    </g>
    <g id="text_18">
     <!-- average -->
     <g transform="translate(364.779375 267.148062)scale(0.1 -0.1)">
      <use xlink:href="#DejaVuSans-61"/>
      <use xlink:href="#DejaVuSans-76" x="61.279297"/>
      <use xlink:href="#DejaVuSans-65" x="120.458984"/>
      <use xlink:href="#DejaVuSans-72" x="181.982422"/>
      <use xlink:href="#DejaVuSans-61" x="223.095703"/>
      <use xlink:href="#DejaVuSans-67" x="284.375"/>
      <use xlink:href="#DejaVuSans-65" x="347.851562"/>
     </g>
    </g>
    <g id="line2d_31">
     <path d="M 336.779375 278.326188 
L 346.779375 278.326188 
L 356.779375 278.326188 
" style="fill: none; stroke-dasharray: 9.6,2.4,1.5,2.4; stroke-dashoffset: 0; stroke: #008000; stroke-width: 1.5"/>
    </g>
    <g id="text_19">
     <!-- +1 sd -->
     <g transform="translate(364.779375 281.826188)scale(0.1 -0.1)">
      <defs>
       <path id="DejaVuSans-2b" d="M 2944 4013 
L 2944 2272 
L 4684 2272 
L 4684 1741 
L 2944 1741 
L 2944 0 
L 2419 0 
L 2419 1741 
L 678 1741 
L 678 2272 
L 2419 2272 
L 2419 4013 
L 2944 4013 
z
" transform="scale(0.015625)"/>
      </defs>
      <use xlink:href="#DejaVuSans-2b"/>
      <use xlink:href="#DejaVuSans-31" x="83.789062"/>
      <use xlink:href="#DejaVuSans-20" x="147.412109"/>
      <use xlink:href="#DejaVuSans-73" x="179.199219"/>
      <use xlink:href="#DejaVuSans-64" x="231.298828"/>
     </g>
    </g>
    <g id="line2d_32">
     <path d="M 336.779375 293.004312 
L 346.779375 293.004312 
L 356.779375 293.004312 
" style="fill: none; stroke: #ff0000; stroke-width: 1.5; stroke-linecap: square"/>
    </g>
    <g id="text_20">
     <!-- best -->
     <g transform="translate(364.779375 296.504312)scale(0.1 -0.1)">
      <use xlink:href="#DejaVuSans-62"/>
      <use xlink:href="#DejaVuSans-65" x="63.476562"/>
      <use xlink:href="#DejaVuSans-73" x="125"/>
      <use xlink:href="#DejaVuSans-74" x="177.099609"/>
     </g>
    </g>
   </g>
  </g>
 </g>
 <defs>
  <clipPath id="p041c372c44">
   <rect x="57.6" y="41.472" width="357.12" height="266.112"/>
  </clipPath>
 </defs>
</svg>
