<?xml version="1.0" encoding="utf-8" standalone="no"?>
<!DOCTYPE svg PUBLIC "-//W3C//DTD SVG 1.1//EN"
  "http://www.w3.org/Graphics/SVG/1.1/DTD/svg11.dtd">
<svg xmlns:xlink="http://www.w3.org/1999/xlink" width="460.8pt" height="345.6pt" viewBox="0 0 460.8 345.6" xmlns="http://www.w3.org/2000/svg" version="1.1">
 <metadata>
  <rdf:RDF xmlns:dc="http://purl.org/dc/elements/1.1/" xmlns:cc="http://creativecommons.org/ns#" xmlns:rdf="http://www.w3.org/1999/02/22-rdf-syntax-ns#">
   <cc:Work>
    <dc:type rdf:resource="http://purl.org/dc/dcmitype/StillImage"/>
    <dc:date>2022-12-13T19:34:18.362865</dc:date>
    <dc:format>image/svg+xml</dc:format>
    <dc:creator>
     <cc:Agent>
      <dc:title>Matplotlib v3.5.3, https://matplotlib.org/</dc:title>
     </cc:Agent>
    </dc:creator>
   </cc:Work>
  </rdf:RDF>
 </metadata>
 <defs>
  <style type="text/css">*{stroke-linejoin: round; stroke-linecap: butt}</style>
 </defs>
 <g id="figure_1">
  <g id="patch_1">
   <path d="M 0 345.6 
L 460.8 345.6 
L 460.8 0 
L 0 0 
z
" style="fill: #ffffff"/>
  </g>
  <g id="axes_1">
   <g id="patch_2">
    <path d="M 57.6 307.584 
L 414.72 307.584 
L 414.72 41.472 
L 57.6 41.472 
z
" style="fill: #ffffff"/>
   </g>
   <g id="matplotlib.axis_1">
    <g id="xtick_1">
     <g id="line2d_1">
      <path d="M 73.832727 307.584 
L 73.832727 41.472 
" clip-path="url(#p44d1f5d7f4)" style="fill: none; stroke: #b0b0b0; stroke-width: 0.8; stroke-linecap: square"/>
     </g>
     <g id="line2d_2">
      <defs>
       <path id="m34fc56496f" d="M 0 0 
L 0 3.5 
" style="stroke: #000000; stroke-width: 0.8"/>
      </defs>
      <g>
       <use xlink:href="#m34fc56496f" x="73.832727" y="307.584" style="stroke: #000000; stroke-width: 0.8"/>
      </g>
     </g>
     <g id="text_1">
      <!-- 0 -->
      <g transform="translate(70.651477 322.182437)scale(0.1 -0.1)">
       <defs>
        <path id="DejaVuSans-30" d="M 2034 4250 
Q 1547 4250 1301 3770 
Q 1056 3291 1056 2328 
Q 1056 1369 1301 889 
Q 1547 409 2034 409 
Q 2525 409 2770 889 
Q 3016 1369 3016 2328 
Q 3016 3291 2770 3770 
Q 2525 4250 2034 4250 
z
M 2034 4750 
Q 2819 4750 3233 4129 
Q 3647 3509 3647 2328 
Q 3647 1150 3233 529 
Q 2819 -91 2034 -91 
Q 1250 -91 836 529 
Q 422 1150 422 2328 
Q 422 3509 836 4129 
Q 1250 4750 2034 4750 
z
" transform="scale(0.015625)"/>
       </defs>
       <use xlink:href="#DejaVuSans-30"/>
      </g>
     </g>
    </g>
    <g id="xtick_2">
     <g id="line2d_3">
      <path d="M 140.840889 307.584 
L 140.840889 41.472 
" clip-path="url(#p44d1f5d7f4)" style="fill: none; stroke: #b0b0b0; stroke-width: 0.8; stroke-linecap: square"/>
     </g>
     <g id="line2d_4">
      <g>
       <use xlink:href="#m34fc56496f" x="140.840889" y="307.584" style="stroke: #000000; stroke-width: 0.8"/>
      </g>
     </g>
     <g id="text_2">
      <!-- 200 -->
      <g transform="translate(131.297139 322.182437)scale(0.1 -0.1)">
       <defs>
        <path id="DejaVuSans-32" d="M 1228 531 
L 3431 531 
L 3431 0 
L 469 0 
L 469 531 
Q 828 903 1448 1529 
Q 2069 2156 2228 2338 
Q 2531 2678 2651 2914 
Q 2772 3150 2772 3378 
Q 2772 3750 2511 3984 
Q 2250 4219 1831 4219 
Q 1534 4219 1204 4116 
Q 875 4013 500 3803 
L 500 4441 
Q 881 4594 1212 4672 
Q 1544 4750 1819 4750 
Q 2544 4750 2975 4387 
Q 3406 4025 3406 3419 
Q 3406 3131 3298 2873 
Q 3191 2616 2906 2266 
Q 2828 2175 2409 1742 
Q 1991 1309 1228 531 
z
" transform="scale(0.015625)"/>
       </defs>
       <use xlink:href="#DejaVuSans-32"/>
       <use xlink:href="#DejaVuSans-30" x="63.623047"/>
       <use xlink:href="#DejaVuSans-30" x="127.246094"/>
      </g>
     </g>
    </g>
    <g id="xtick_3">
     <g id="line2d_5">
      <path d="M 207.849052 307.584 
L 207.849052 41.472 
" clip-path="url(#p44d1f5d7f4)" style="fill: none; stroke: #b0b0b0; stroke-width: 0.8; stroke-linecap: square"/>
     </g>
     <g id="line2d_6">
      <g>
       <use xlink:href="#m34fc56496f" x="207.849052" y="307.584" style="stroke: #000000; stroke-width: 0.8"/>
      </g>
     </g>
     <g id="text_3">
      <!-- 400 -->
      <g transform="translate(198.305302 322.182437)scale(0.1 -0.1)">
       <defs>
        <path id="DejaVuSans-34" d="M 2419 4116 
L 825 1625 
L 2419 1625 
L 2419 4116 
z
M 2253 4666 
L 3047 4666 
L 3047 1625 
L 3713 1625 
L 3713 1100 
L 3047 1100 
L 3047 0 
L 2419 0 
L 2419 1100 
L 313 1100 
L 313 1709 
L 2253 4666 
z
" transform="scale(0.015625)"/>
       </defs>
       <use xlink:href="#DejaVuSans-34"/>
       <use xlink:href="#DejaVuSans-30" x="63.623047"/>
       <use xlink:href="#DejaVuSans-30" x="127.246094"/>
      </g>
     </g>
    </g>
    <g id="xtick_4">
     <g id="line2d_7">
      <path d="M 274.857214 307.584 
L 274.857214 41.472 
" clip-path="url(#p44d1f5d7f4)" style="fill: none; stroke: #b0b0b0; stroke-width: 0.8; stroke-linecap: square"/>
     </g>
     <g id="line2d_8">
      <g>
       <use xlink:href="#m34fc56496f" x="274.857214" y="307.584" style="stroke: #000000; stroke-width: 0.8"/>
      </g>
     </g>
     <g id="text_4">
      <!-- 600 -->
      <g transform="translate(265.313464 322.182437)scale(0.1 -0.1)">
       <defs>
        <path id="DejaVuSans-36" d="M 2113 2584 
Q 1688 2584 1439 2293 
Q 1191 2003 1191 1497 
Q 1191 994 1439 701 
Q 1688 409 2113 409 
Q 2538 409 2786 701 
Q 3034 994 3034 1497 
Q 3034 2003 2786 2293 
Q 2538 2584 2113 2584 
z
M 3366 4563 
L 3366 3988 
Q 3128 4100 2886 4159 
Q 2644 4219 2406 4219 
Q 1781 4219 1451 3797 
Q 1122 3375 1075 2522 
Q 1259 2794 1537 2939 
Q 1816 3084 2150 3084 
Q 2853 3084 3261 2657 
Q 3669 2231 3669 1497 
Q 3669 778 3244 343 
Q 2819 -91 2113 -91 
Q 1303 -91 875 529 
Q 447 1150 447 2328 
Q 447 3434 972 4092 
Q 1497 4750 2381 4750 
Q 2619 4750 2861 4703 
Q 3103 4656 3366 4563 
z
" transform="scale(0.015625)"/>
       </defs>
       <use xlink:href="#DejaVuSans-36"/>
       <use xlink:href="#DejaVuSans-30" x="63.623047"/>
       <use xlink:href="#DejaVuSans-30" x="127.246094"/>
      </g>
     </g>
    </g>
    <g id="xtick_5">
     <g id="line2d_9">
      <path d="M 341.865376 307.584 
L 341.865376 41.472 
" clip-path="url(#p44d1f5d7f4)" style="fill: none; stroke: #b0b0b0; stroke-width: 0.8; stroke-linecap: square"/>
     </g>
     <g id="line2d_10">
      <g>
       <use xlink:href="#m34fc56496f" x="341.865376" y="307.584" style="stroke: #000000; stroke-width: 0.8"/>
      </g>
     </g>
     <g id="text_5">
      <!-- 800 -->
      <g transform="translate(332.321626 322.182437)scale(0.1 -0.1)">
       <defs>
        <path id="DejaVuSans-38" d="M 2034 2216 
Q 1584 2216 1326 1975 
Q 1069 1734 1069 1313 
Q 1069 891 1326 650 
Q 1584 409 2034 409 
Q 2484 409 2743 651 
Q 3003 894 3003 1313 
Q 3003 1734 2745 1975 
Q 2488 2216 2034 2216 
z
M 1403 2484 
Q 997 2584 770 2862 
Q 544 3141 544 3541 
Q 544 4100 942 4425 
Q 1341 4750 2034 4750 
Q 2731 4750 3128 4425 
Q 3525 4100 3525 3541 
Q 3525 3141 3298 2862 
Q 3072 2584 2669 2484 
Q 3125 2378 3379 2068 
Q 3634 1759 3634 1313 
Q 3634 634 3220 271 
Q 2806 -91 2034 -91 
Q 1263 -91 848 271 
Q 434 634 434 1313 
Q 434 1759 690 2068 
Q 947 2378 1403 2484 
z
M 1172 3481 
Q 1172 3119 1398 2916 
Q 1625 2713 2034 2713 
Q 2441 2713 2670 2916 
Q 2900 3119 2900 3481 
Q 2900 3844 2670 4047 
Q 2441 4250 2034 4250 
Q 1625 4250 1398 4047 
Q 1172 3844 1172 3481 
z
" transform="scale(0.015625)"/>
       </defs>
       <use xlink:href="#DejaVuSans-38"/>
       <use xlink:href="#DejaVuSans-30" x="63.623047"/>
       <use xlink:href="#DejaVuSans-30" x="127.246094"/>
      </g>
     </g>
    </g>
    <g id="xtick_6">
     <g id="line2d_11">
      <path d="M 408.873538 307.584 
L 408.873538 41.472 
" clip-path="url(#p44d1f5d7f4)" style="fill: none; stroke: #b0b0b0; stroke-width: 0.8; stroke-linecap: square"/>
     </g>
     <g id="line2d_12">
      <g>
       <use xlink:href="#m34fc56496f" x="408.873538" y="307.584" style="stroke: #000000; stroke-width: 0.8"/>
      </g>
     </g>
     <g id="text_6">
      <!-- 1000 -->
      <g transform="translate(396.148538 322.182437)scale(0.1 -0.1)">
       <defs>
        <path id="DejaVuSans-31" d="M 794 531 
L 1825 531 
L 1825 4091 
L 703 3866 
L 703 4441 
L 1819 4666 
L 2450 4666 
L 2450 531 
L 3481 531 
L 3481 0 
L 794 0 
L 794 531 
z
" transform="scale(0.015625)"/>
       </defs>
       <use xlink:href="#DejaVuSans-31"/>
       <use xlink:href="#DejaVuSans-30" x="63.623047"/>
       <use xlink:href="#DejaVuSans-30" x="127.246094"/>
       <use xlink:href="#DejaVuSans-30" x="190.869141"/>
      </g>
     </g>
    </g>
    <g id="text_7">
     <!-- Generations -->
     <g transform="translate(205.662344 335.860562)scale(0.1 -0.1)">
      <defs>
       <path id="DejaVuSans-47" d="M 3809 666 
L 3809 1919 
L 2778 1919 
L 2778 2438 
L 4434 2438 
L 4434 434 
Q 4069 175 3628 42 
Q 3188 -91 2688 -91 
Q 1594 -91 976 548 
Q 359 1188 359 2328 
Q 359 3472 976 4111 
Q 1594 4750 2688 4750 
Q 3144 4750 3555 4637 
Q 3966 4525 4313 4306 
L 4313 3634 
Q 3963 3931 3569 4081 
Q 3175 4231 2741 4231 
Q 1884 4231 1454 3753 
Q 1025 3275 1025 2328 
Q 1025 1384 1454 906 
Q 1884 428 2741 428 
Q 3075 428 3337 486 
Q 3600 544 3809 666 
z
" transform="scale(0.015625)"/>
       <path id="DejaVuSans-65" d="M 3597 1894 
L 3597 1613 
L 953 1613 
Q 991 1019 1311 708 
Q 1631 397 2203 397 
Q 2534 397 2845 478 
Q 3156 559 3463 722 
L 3463 178 
Q 3153 47 2828 -22 
Q 2503 -91 2169 -91 
Q 1331 -91 842 396 
Q 353 884 353 1716 
Q 353 2575 817 3079 
Q 1281 3584 2069 3584 
Q 2775 3584 3186 3129 
Q 3597 2675 3597 1894 
z
M 3022 2063 
Q 3016 2534 2758 2815 
Q 2500 3097 2075 3097 
Q 1594 3097 1305 2825 
Q 1016 2553 972 2059 
L 3022 2063 
z
" transform="scale(0.015625)"/>
       <path id="DejaVuSans-6e" d="M 3513 2113 
L 3513 0 
L 2938 0 
L 2938 2094 
Q 2938 2591 2744 2837 
Q 2550 3084 2163 3084 
Q 1697 3084 1428 2787 
Q 1159 2491 1159 1978 
L 1159 0 
L 581 0 
L 581 3500 
L 1159 3500 
L 1159 2956 
Q 1366 3272 1645 3428 
Q 1925 3584 2291 3584 
Q 2894 3584 3203 3211 
Q 3513 2838 3513 2113 
z
" transform="scale(0.015625)"/>
       <path id="DejaVuSans-72" d="M 2631 2963 
Q 2534 3019 2420 3045 
Q 2306 3072 2169 3072 
Q 1681 3072 1420 2755 
Q 1159 2438 1159 1844 
L 1159 0 
L 581 0 
L 581 3500 
L 1159 3500 
L 1159 2956 
Q 1341 3275 1631 3429 
Q 1922 3584 2338 3584 
Q 2397 3584 2469 3576 
Q 2541 3569 2628 3553 
L 2631 2963 
z
" transform="scale(0.015625)"/>
       <path id="DejaVuSans-61" d="M 2194 1759 
Q 1497 1759 1228 1600 
Q 959 1441 959 1056 
Q 959 750 1161 570 
Q 1363 391 1709 391 
Q 2188 391 2477 730 
Q 2766 1069 2766 1631 
L 2766 1759 
L 2194 1759 
z
M 3341 1997 
L 3341 0 
L 2766 0 
L 2766 531 
Q 2569 213 2275 61 
Q 1981 -91 1556 -91 
Q 1019 -91 701 211 
Q 384 513 384 1019 
Q 384 1609 779 1909 
Q 1175 2209 1959 2209 
L 2766 2209 
L 2766 2266 
Q 2766 2663 2505 2880 
Q 2244 3097 1772 3097 
Q 1472 3097 1187 3025 
Q 903 2953 641 2809 
L 641 3341 
Q 956 3463 1253 3523 
Q 1550 3584 1831 3584 
Q 2591 3584 2966 3190 
Q 3341 2797 3341 1997 
z
" transform="scale(0.015625)"/>
       <path id="DejaVuSans-74" d="M 1172 4494 
L 1172 3500 
L 2356 3500 
L 2356 3053 
L 1172 3053 
L 1172 1153 
Q 1172 725 1289 603 
Q 1406 481 1766 481 
L 2356 481 
L 2356 0 
L 1766 0 
Q 1100 0 847 248 
Q 594 497 594 1153 
L 594 3053 
L 172 3053 
L 172 3500 
L 594 3500 
L 594 4494 
L 1172 4494 
z
" transform="scale(0.015625)"/>
       <path id="DejaVuSans-69" d="M 603 3500 
L 1178 3500 
L 1178 0 
L 603 0 
L 603 3500 
z
M 603 4863 
L 1178 4863 
L 1178 4134 
L 603 4134 
L 603 4863 
z
" transform="scale(0.015625)"/>
       <path id="DejaVuSans-6f" d="M 1959 3097 
Q 1497 3097 1228 2736 
Q 959 2375 959 1747 
Q 959 1119 1226 758 
Q 1494 397 1959 397 
Q 2419 397 2687 759 
Q 2956 1122 2956 1747 
Q 2956 2369 2687 2733 
Q 2419 3097 1959 3097 
z
M 1959 3584 
Q 2709 3584 3137 3096 
Q 3566 2609 3566 1747 
Q 3566 888 3137 398 
Q 2709 -91 1959 -91 
Q 1206 -91 779 398 
Q 353 888 353 1747 
Q 353 2609 779 3096 
Q 1206 3584 1959 3584 
z
" transform="scale(0.015625)"/>
       <path id="DejaVuSans-73" d="M 2834 3397 
L 2834 2853 
Q 2591 2978 2328 3040 
Q 2066 3103 1784 3103 
Q 1356 3103 1142 2972 
Q 928 2841 928 2578 
Q 928 2378 1081 2264 
Q 1234 2150 1697 2047 
L 1894 2003 
Q 2506 1872 2764 1633 
Q 3022 1394 3022 966 
Q 3022 478 2636 193 
Q 2250 -91 1575 -91 
Q 1294 -91 989 -36 
Q 684 19 347 128 
L 347 722 
Q 666 556 975 473 
Q 1284 391 1588 391 
Q 1994 391 2212 530 
Q 2431 669 2431 922 
Q 2431 1156 2273 1281 
Q 2116 1406 1581 1522 
L 1381 1569 
Q 847 1681 609 1914 
Q 372 2147 372 2553 
Q 372 3047 722 3315 
Q 1072 3584 1716 3584 
Q 2034 3584 2315 3537 
Q 2597 3491 2834 3397 
z
" transform="scale(0.015625)"/>
      </defs>
      <use xlink:href="#DejaVuSans-47"/>
      <use xlink:href="#DejaVuSans-65" x="77.490234"/>
      <use xlink:href="#DejaVuSans-6e" x="139.013672"/>
      <use xlink:href="#DejaVuSans-65" x="202.392578"/>
      <use xlink:href="#DejaVuSans-72" x="263.916016"/>
      <use xlink:href="#DejaVuSans-61" x="305.029297"/>
      <use xlink:href="#DejaVuSans-74" x="366.308594"/>
      <use xlink:href="#DejaVuSans-69" x="405.517578"/>
      <use xlink:href="#DejaVuSans-6f" x="433.300781"/>
      <use xlink:href="#DejaVuSans-6e" x="494.482422"/>
      <use xlink:href="#DejaVuSans-73" x="557.861328"/>
     </g>
    </g>
   </g>
   <g id="matplotlib.axis_2">
    <g id="ytick_1">
     <g id="line2d_13">
      <path d="M 57.6 283.158898 
L 414.72 283.158898 
" clip-path="url(#p44d1f5d7f4)" style="fill: none; stroke: #b0b0b0; stroke-width: 0.8; stroke-linecap: square"/>
     </g>
     <g id="line2d_14">
      <defs>
       <path id="mc90e103cf3" d="M 0 0 
L -3.5 0 
" style="stroke: #000000; stroke-width: 0.8"/>
      </defs>
      <g>
       <use xlink:href="#mc90e103cf3" x="57.6" y="283.158898" style="stroke: #000000; stroke-width: 0.8"/>
      </g>
     </g>
     <g id="text_8">
      <!-- −20 -->
      <g transform="translate(29.495313 286.958117)scale(0.1 -0.1)">
       <defs>
        <path id="DejaVuSans-2212" d="M 678 2272 
L 4684 2272 
L 4684 1741 
L 678 1741 
L 678 2272 
z
" transform="scale(0.015625)"/>
       </defs>
       <use xlink:href="#DejaVuSans-2212"/>
       <use xlink:href="#DejaVuSans-32" x="83.789062"/>
       <use xlink:href="#DejaVuSans-30" x="147.412109"/>
      </g>
     </g>
    </g>
    <g id="ytick_2">
     <g id="line2d_15">
      <path d="M 57.6 247.500327 
L 414.72 247.500327 
" clip-path="url(#p44d1f5d7f4)" style="fill: none; stroke: #b0b0b0; stroke-width: 0.8; stroke-linecap: square"/>
     </g>
     <g id="line2d_16">
      <g>
       <use xlink:href="#mc90e103cf3" x="57.6" y="247.500327" style="stroke: #000000; stroke-width: 0.8"/>
      </g>
     </g>
     <g id="text_9">
      <!-- 0 -->
      <g transform="translate(44.2375 251.299546)scale(0.1 -0.1)">
       <use xlink:href="#DejaVuSans-30"/>
      </g>
     </g>
    </g>
    <g id="ytick_3">
     <g id="line2d_17">
      <path d="M 57.6 211.841757 
L 414.72 211.841757 
" clip-path="url(#p44d1f5d7f4)" style="fill: none; stroke: #b0b0b0; stroke-width: 0.8; stroke-linecap: square"/>
     </g>
     <g id="line2d_18">
      <g>
       <use xlink:href="#mc90e103cf3" x="57.6" y="211.841757" style="stroke: #000000; stroke-width: 0.8"/>
      </g>
     </g>
     <g id="text_10">
      <!-- 20 -->
      <g transform="translate(37.875 215.640976)scale(0.1 -0.1)">
       <use xlink:href="#DejaVuSans-32"/>
       <use xlink:href="#DejaVuSans-30" x="63.623047"/>
      </g>
     </g>
    </g>
    <g id="ytick_4">
     <g id="line2d_19">
      <path d="M 57.6 176.183186 
L 414.72 176.183186 
" clip-path="url(#p44d1f5d7f4)" style="fill: none; stroke: #b0b0b0; stroke-width: 0.8; stroke-linecap: square"/>
     </g>
     <g id="line2d_20">
      <g>
       <use xlink:href="#mc90e103cf3" x="57.6" y="176.183186" style="stroke: #000000; stroke-width: 0.8"/>
      </g>
     </g>
     <g id="text_11">
      <!-- 40 -->
      <g transform="translate(37.875 179.982405)scale(0.1 -0.1)">
       <use xlink:href="#DejaVuSans-34"/>
       <use xlink:href="#DejaVuSans-30" x="63.623047"/>
      </g>
     </g>
    </g>
    <g id="ytick_5">
     <g id="line2d_21">
      <path d="M 57.6 140.524616 
L 414.72 140.524616 
" clip-path="url(#p44d1f5d7f4)" style="fill: none; stroke: #b0b0b0; stroke-width: 0.8; stroke-linecap: square"/>
     </g>
     <g id="line2d_22">
      <g>
       <use xlink:href="#mc90e103cf3" x="57.6" y="140.524616" style="stroke: #000000; stroke-width: 0.8"/>
      </g>
     </g>
     <g id="text_12">
      <!-- 60 -->
      <g transform="translate(37.875 144.323834)scale(0.1 -0.1)">
       <use xlink:href="#DejaVuSans-36"/>
       <use xlink:href="#DejaVuSans-30" x="63.623047"/>
      </g>
     </g>
    </g>
    <g id="ytick_6">
     <g id="line2d_23">
      <path d="M 57.6 104.866045 
L 414.72 104.866045 
" clip-path="url(#p44d1f5d7f4)" style="fill: none; stroke: #b0b0b0; stroke-width: 0.8; stroke-linecap: square"/>
     </g>
     <g id="line2d_24">
      <g>
       <use xlink:href="#mc90e103cf3" x="57.6" y="104.866045" style="stroke: #000000; stroke-width: 0.8"/>
      </g>
     </g>
     <g id="text_13">
      <!-- 80 -->
      <g transform="translate(37.875 108.665264)scale(0.1 -0.1)">
       <use xlink:href="#DejaVuSans-38"/>
       <use xlink:href="#DejaVuSans-30" x="63.623047"/>
      </g>
     </g>
    </g>
    <g id="ytick_7">
     <g id="line2d_25">
      <path d="M 57.6 69.207475 
L 414.72 69.207475 
" clip-path="url(#p44d1f5d7f4)" style="fill: none; stroke: #b0b0b0; stroke-width: 0.8; stroke-linecap: square"/>
     </g>
     <g id="line2d_26">
      <g>
       <use xlink:href="#mc90e103cf3" x="57.6" y="69.207475" style="stroke: #000000; stroke-width: 0.8"/>
      </g>
     </g>
     <g id="text_14">
      <!-- 100 -->
      <g transform="translate(31.5125 73.006693)scale(0.1 -0.1)">
       <use xlink:href="#DejaVuSans-31"/>
       <use xlink:href="#DejaVuSans-30" x="63.623047"/>
       <use xlink:href="#DejaVuSans-30" x="127.246094"/>
      </g>
     </g>
    </g>
    <g id="text_15">
     <!-- Fitness -->
     <g transform="translate(23.415625 191.845187)rotate(-90)scale(0.1 -0.1)">
      <defs>
       <path id="DejaVuSans-46" d="M 628 4666 
L 3309 4666 
L 3309 4134 
L 1259 4134 
L 1259 2759 
L 3109 2759 
L 3109 2228 
L 1259 2228 
L 1259 0 
L 628 0 
L 628 4666 
z
" transform="scale(0.015625)"/>
      </defs>
      <use xlink:href="#DejaVuSans-46"/>
      <use xlink:href="#DejaVuSans-69" x="50.269531"/>
      <use xlink:href="#DejaVuSans-74" x="78.052734"/>
      <use xlink:href="#DejaVuSans-6e" x="117.261719"/>
      <use xlink:href="#DejaVuSans-65" x="180.640625"/>
      <use xlink:href="#DejaVuSans-73" x="242.164062"/>
      <use xlink:href="#DejaVuSans-73" x="294.263672"/>
     </g>
    </g>
   </g>
   <g id="line2d_27">
    <path d="M 73.832727 287.591575 
L 74.167768 285.611103 
L 74.502809 288.596458 
L 74.83785 281.552154 
L 75.172891 282.725247 
L 75.507931 283.469526 
L 75.842972 278.400911 
L 76.178013 295.488 
L 76.513054 272.0823 
L 76.848095 278.772871 
L 77.183135 288.600298 
L 77.518176 284.606273 
L 77.853217 294.552404 
L 78.188258 286.559236 
L 78.523299 285.139869 
L 78.858339 291.961596 
L 79.19338 290.198194 
L 79.528421 278.66226 
L 79.863462 290.890401 
L 80.198503 277.834924 
L 80.533543 278.385173 
L 80.868584 285.295675 
L 81.203625 276.338042 
L 81.538666 275.084306 
L 81.873707 278.605811 
L 82.543788 290.516724 
L 82.878829 283.774536 
L 83.21387 273.682437 
L 83.548911 277.173221 
L 83.883952 287.461561 
L 84.218992 278.316099 
L 84.554033 273.603318 
L 84.889074 276.062713 
L 85.224115 284.561971 
L 85.559156 274.339603 
L 85.894196 272.665796 
L 86.229237 280.886305 
L 86.564278 277.490889 
L 86.899319 280.305249 
L 87.23436 271.114313 
L 87.569401 282.811738 
L 87.904441 270.492279 
L 88.239482 272.329235 
L 88.574523 262.617448 
L 88.909564 263.36413 
L 89.244605 261.055477 
L 89.579645 256.212614 
L 89.914686 258.774754 
L 90.249727 252.631328 
L 90.584768 256.655296 
L 90.919809 254.399317 
L 91.254849 253.983111 
L 91.58989 252.845513 
L 91.924931 258.69953 
L 92.259972 251.590271 
L 92.595013 252.048121 
L 92.930053 259.334111 
L 93.265094 250.803607 
L 93.600135 258.009803 
L 93.935176 248.2016 
L 94.270217 256.436963 
L 94.605258 252.917571 
L 94.940298 255.026497 
L 95.275339 252.256885 
L 95.61038 247.12731 
L 95.945421 252.040457 
L 96.280462 271.456949 
L 96.615502 254.063523 
L 96.950543 245.419112 
L 97.285584 247.806334 
L 97.620625 256.10569 
L 98.290706 248.680614 
L 98.625747 247.927309 
L 98.960788 253.678641 
L 99.295829 252.931869 
L 99.63087 255.106027 
L 99.96591 248.07137 
L 100.300951 251.994819 
L 100.635992 257.968677 
L 101.306074 248.447197 
L 101.641115 253.851106 
L 102.311196 246.214007 
L 102.646237 253.741838 
L 102.981278 251.382695 
L 103.316319 246.647764 
L 103.651359 250.986855 
L 103.9864 252.51574 
L 104.321441 261.162199 
L 104.656482 260.000671 
L 104.991523 252.483129 
L 105.326563 253.998149 
L 105.661604 251.158253 
L 105.996645 244.804662 
L 106.331686 248.456737 
L 106.666727 255.011245 
L 107.001768 256.76518 
L 107.336808 248.453294 
L 107.671849 255.146211 
L 108.341931 246.345175 
L 108.676972 252.821946 
L 109.347053 251.850051 
L 109.682094 252.62806 
L 110.017135 248.510968 
L 110.352176 246.697955 
L 110.687216 249.901752 
L 111.022257 248.138717 
L 111.357298 252.936038 
L 111.692339 251.046069 
L 112.36242 243.971914 
L 113.032502 253.54005 
L 113.367543 248.18559 
L 113.702584 249.28091 
L 114.037625 242.616599 
L 114.372665 243.874503 
L 114.707706 257.814154 
L 115.042747 255.459397 
L 115.377788 245.683615 
L 115.712829 252.497585 
L 116.047869 254.697367 
L 116.38291 261.989298 
L 117.052992 247.168556 
L 117.388033 250.072925 
L 117.723073 249.823853 
L 118.058114 253.777823 
L 118.393155 254.883397 
L 119.063237 246.334786 
L 119.733318 254.417569 
L 120.068359 247.264333 
L 120.4034 256.427921 
L 120.738441 257.163078 
L 121.073482 246.529768 
L 121.408522 248.545037 
L 121.743563 243.224775 
L 122.078604 246.666608 
L 122.413645 257.409067 
L 122.748686 251.695384 
L 123.083726 252.368369 
L 123.418767 256.26833 
L 123.753808 249.866427 
L 124.088849 259.197705 
L 124.75893 254.268822 
L 125.093971 252.819149 
L 125.429012 249.394772 
L 125.764053 254.06606 
L 126.099094 253.448499 
L 126.434135 253.962529 
L 127.104216 251.366593 
L 127.439257 254.885434 
L 127.774298 256.209846 
L 128.444379 249.06528 
L 128.77942 258.630645 
L 129.114461 251.60023 
L 129.449502 253.821472 
L 129.784543 254.210891 
L 130.119583 253.989781 
L 130.454624 250.314593 
L 130.789665 244.542146 
L 131.124706 250.873595 
L 131.459747 248.974372 
L 131.794788 250.87021 
L 132.129828 250.319356 
L 132.464869 248.390284 
L 132.79991 251.336175 
L 133.134951 255.478749 
L 133.469992 248.033901 
L 133.805032 253.345589 
L 134.140073 253.534059 
L 134.475114 249.472176 
L 134.810155 254.472172 
L 135.145196 245.542772 
L 135.480236 247.426861 
L 135.815277 253.966339 
L 136.150318 248.513422 
L 136.485359 248.411236 
L 136.8204 263.046326 
L 137.15544 251.015498 
L 137.825522 246.348951 
L 138.160563 248.063809 
L 138.495604 240.22953 
L 138.830645 255.270211 
L 139.165685 254.702439 
L 139.500726 255.911827 
L 139.835767 243.584945 
L 140.170808 248.507973 
L 140.505849 255.165147 
L 140.840889 247.312167 
L 141.17593 248.336057 
L 141.510971 250.565307 
L 141.846012 249.033166 
L 142.181053 250.762761 
L 142.516093 250.047018 
L 142.851134 254.57357 
L 143.186175 254.879641 
L 143.521216 253.783356 
L 144.191297 246.080456 
L 144.526338 247.365115 
L 144.861379 250.159531 
L 145.19642 247.1286 
L 145.531461 250.967558 
L 145.866502 251.633523 
L 146.201542 239.555841 
L 146.536583 250.947451 
L 146.871624 249.479014 
L 147.206665 249.512133 
L 147.541706 255.25293 
L 147.876746 250.522492 
L 148.211787 251.237107 
L 148.546828 253.405661 
L 148.881869 245.969851 
L 149.21691 250.762693 
L 149.55195 249.122966 
L 149.886991 252.740787 
L 150.222032 252.57774 
L 150.557073 249.905478 
L 150.892114 245.728435 
L 151.227155 248.557984 
L 151.562195 253.787504 
L 151.897236 248.986054 
L 152.232277 246.270547 
L 152.567318 247.515548 
L 152.902359 242.369904 
L 153.237399 252.376958 
L 153.57244 247.982618 
L 153.907481 251.941664 
L 154.242522 248.832634 
L 154.577563 249.056556 
L 154.912603 245.428483 
L 155.247644 248.200665 
L 155.582685 248.099091 
L 155.917726 248.928447 
L 156.252767 246.759473 
L 156.587807 246.65484 
L 156.922848 252.723017 
L 157.257889 252.603366 
L 157.59293 267.279628 
L 158.598052 246.997778 
L 158.933093 248.69781 
L 159.268134 258.362318 
L 159.603175 256.730684 
L 159.938216 260.209732 
L 160.273256 260.808164 
L 160.608297 247.473835 
L 160.943338 251.407446 
L 161.278379 245.439767 
L 161.61342 246.417816 
L 161.94846 245.085717 
L 162.618542 258.442401 
L 162.953583 249.731608 
L 163.288624 254.708888 
L 163.623665 249.920212 
L 164.293746 245.884039 
L 164.628787 254.268668 
L 164.963828 248.439617 
L 165.298869 257.620386 
L 165.633909 250.600242 
L 165.96895 249.401194 
L 166.303991 248.990523 
L 166.639032 252.515783 
L 166.974073 247.553925 
L 167.309113 248.815601 
L 167.644154 247.421296 
L 167.979195 243.841186 
L 168.314236 250.866019 
L 168.649277 254.636798 
L 168.984317 246.421961 
L 169.319358 255.741101 
L 169.98944 246.412207 
L 170.324481 252.53431 
L 170.659522 250.707276 
L 170.994562 250.412151 
L 171.329603 252.115165 
L 171.664644 252.263656 
L 171.999685 244.080381 
L 172.334726 254.386997 
L 172.669766 244.113764 
L 173.004807 247.175352 
L 173.339848 246.341387 
L 173.674889 248.224532 
L 174.00993 245.05456 
L 174.34497 255.494633 
L 174.680011 257.805931 
L 175.015052 253.31963 
L 175.350093 252.810046 
L 175.685134 249.039926 
L 176.020175 248.26759 
L 176.355215 250.876331 
L 176.690256 251.073249 
L 177.025297 248.874397 
L 177.360338 245.269886 
L 178.030419 254.92906 
L 178.36546 255.943166 
L 178.700501 250.077446 
L 179.035542 248.513905 
L 179.370583 248.313121 
L 179.705623 253.501961 
L 180.040664 256.921345 
L 180.375705 250.702808 
L 180.710746 262.731237 
L 181.045787 249.635531 
L 181.380827 257.991916 
L 181.715868 257.82173 
L 182.38595 249.839882 
L 182.720991 254.787032 
L 183.056032 248.072319 
L 183.391072 245.283193 
L 183.726113 250.341307 
L 184.061154 252.246112 
L 184.396195 255.209537 
L 184.731236 256.340621 
L 185.066276 260.4449 
L 185.401317 254.40144 
L 185.736358 254.891663 
L 186.071399 259.212525 
L 186.40644 265.149342 
L 186.74148 251.890551 
L 187.076521 254.554994 
L 187.411562 251.810967 
L 187.746603 251.990528 
L 188.081644 248.623006 
L 188.416684 258.100336 
L 188.751725 254.091464 
L 189.086766 246.796543 
L 189.756848 257.895836 
L 190.091889 258.72365 
L 190.426929 254.988798 
L 190.76197 249.130178 
L 191.097011 257.635975 
L 191.432052 242.432192 
L 191.767093 248.931537 
L 192.102133 249.025887 
L 192.437174 246.288733 
L 192.772215 249.981598 
L 193.107256 243.700298 
L 193.442297 247.635414 
L 193.777337 244.712835 
L 194.112378 243.164775 
L 194.447419 247.409505 
L 194.78246 253.541889 
L 195.117501 247.393443 
L 195.452542 253.234354 
L 195.787582 249.487545 
L 196.122623 250.881566 
L 196.457664 247.482192 
L 196.792705 249.026433 
L 197.127746 249.866368 
L 197.462786 238.961118 
L 198.132868 249.374579 
L 198.467909 251.792259 
L 198.80295 252.227708 
L 199.473031 245.427606 
L 199.808072 250.584758 
L 200.143113 260.627059 
L 200.478154 244.859737 
L 200.813194 250.212815 
L 201.148235 252.043951 
L 201.483276 247.949105 
L 201.818317 247.472692 
L 202.153358 254.319001 
L 202.488399 246.755012 
L 202.823439 247.239934 
L 203.15848 253.378844 
L 203.493521 248.38946 
L 203.828562 246.984073 
L 204.163603 250.639914 
L 204.833684 247.099662 
L 205.168725 249.246203 
L 205.503766 250.306654 
L 205.838807 240.971349 
L 206.173847 248.584917 
L 206.508888 252.699702 
L 206.843929 251.366938 
L 207.17897 245.642939 
L 207.514011 253.929196 
L 207.849052 257.373025 
L 208.519133 251.918162 
L 208.854174 255.385665 
L 209.189215 246.976986 
L 209.524256 244.990191 
L 210.194337 257.748813 
L 210.529378 257.705553 
L 210.864419 251.594649 
L 211.5345 245.541104 
L 211.869541 261.744388 
L 212.204582 250.033781 
L 212.539623 256.499356 
L 212.874664 253.056232 
L 213.209704 251.326886 
L 213.544745 255.471218 
L 213.879786 247.19655 
L 214.214827 244.295039 
L 214.549868 259.860799 
L 214.884909 251.48894 
L 215.219949 250.374606 
L 215.55499 246.641865 
L 215.890031 245.101394 
L 216.225072 248.653749 
L 216.560113 243.687399 
L 216.895153 246.986486 
L 217.230194 254.021704 
L 217.565235 251.352171 
L 217.900276 261.245071 
L 218.235317 250.883403 
L 218.570357 258.243453 
L 218.905398 250.587809 
L 219.240439 250.419387 
L 219.57548 249.243525 
L 219.910521 252.650001 
L 220.245561 250.417015 
L 220.580602 251.531259 
L 221.250684 248.696403 
L 221.585725 244.466233 
L 221.920766 243.405548 
L 222.255806 244.607847 
L 222.590847 238.078011 
L 222.925888 254.129459 
L 223.260929 249.367159 
L 223.59597 251.296915 
L 223.93101 255.24146 
L 224.266051 237.478187 
L 224.601092 254.404289 
L 224.936133 250.25784 
L 225.271174 251.268845 
L 225.606214 249.464167 
L 226.611337 258.556073 
L 226.946378 251.66935 
L 227.281419 254.507531 
L 227.616459 254.317023 
L 227.9515 258.771115 
L 228.286541 261.367617 
L 228.621582 262.045612 
L 229.291663 249.701902 
L 229.626704 249.851623 
L 229.961745 249.240399 
L 230.296786 254.015758 
L 230.631827 251.235884 
L 230.966867 250.9219 
L 231.301908 253.843353 
L 231.636949 247.968728 
L 231.97199 254.196485 
L 232.307031 246.627876 
L 232.642071 250.459577 
L 232.977112 249.407547 
L 233.312153 245.722813 
L 233.647194 246.183742 
L 233.982235 238.12687 
L 234.317276 249.082906 
L 234.652316 244.685175 
L 234.987357 252.326028 
L 235.657439 244.045364 
L 235.99248 250.890979 
L 236.32752 253.160559 
L 236.662561 252.285372 
L 236.997602 250.871981 
L 237.332643 247.987709 
L 237.667684 254.100603 
L 238.002724 243.609231 
L 238.337765 247.672149 
L 238.672806 247.668369 
L 239.007847 243.742314 
L 239.342888 249.580009 
L 239.677929 246.741639 
L 240.34801 251.93649 
L 240.683051 246.830517 
L 241.018092 249.508679 
L 241.353133 242.402065 
L 241.688173 252.901047 
L 242.023214 252.368183 
L 242.358255 240.079959 
L 242.693296 256.143505 
L 243.028337 249.536265 
L 243.363377 246.220975 
L 243.698418 255.464049 
L 244.033459 248.533285 
L 244.3685 249.675431 
L 244.703541 244.897628 
L 245.038581 250.942826 
L 245.373622 246.622398 
L 245.708663 251.678682 
L 246.043704 252.96639 
L 246.378745 245.345591 
L 246.713786 248.053281 
L 247.048826 246.545173 
L 247.383867 249.805419 
L 247.718908 249.200193 
L 248.053949 249.524742 
L 248.38899 251.387943 
L 248.72403 247.917971 
L 249.059071 246.132368 
L 249.394112 252.612908 
L 249.729153 256.687923 
L 250.064194 245.9829 
L 250.399234 247.265521 
L 250.734275 246.309409 
L 251.069316 252.580886 
L 251.404357 244.977962 
L 251.739398 249.324275 
L 252.074439 248.423159 
L 252.409479 244.832 
L 252.74452 253.299922 
L 253.079561 243.664669 
L 253.414602 251.716851 
L 253.749643 252.762188 
L 254.084683 251.736715 
L 254.419724 253.083481 
L 254.754765 251.208017 
L 255.089806 250.901188 
L 255.424847 249.759347 
L 255.759887 253.166922 
L 256.094928 249.978885 
L 256.429969 248.328072 
L 256.76501 247.607566 
L 257.100051 262.975498 
L 257.435091 247.005145 
L 257.770132 252.267722 
L 258.105173 248.527027 
L 258.440214 247.009694 
L 258.775255 244.309243 
L 259.445336 256.7431 
L 259.780377 256.967272 
L 260.115418 248.983131 
L 260.450459 254.177181 
L 260.7855 250.848077 
L 261.12054 254.837977 
L 261.455581 252.091278 
L 261.790622 257.764268 
L 262.125663 253.352554 
L 262.460704 258.304306 
L 262.795744 253.793647 
L 263.130785 255.172166 
L 263.800867 252.531847 
L 264.135908 254.746054 
L 264.470948 251.217354 
L 264.805989 254.606638 
L 265.476071 255.845028 
L 265.811112 254.755695 
L 266.146153 256.572121 
L 266.481193 254.431764 
L 266.816234 261.212274 
L 267.151275 251.101311 
L 267.486316 249.075723 
L 267.821357 264.501085 
L 268.156397 254.908315 
L 268.491438 263.569711 
L 268.826479 250.488737 
L 269.16152 255.184154 
L 269.496561 252.349899 
L 269.831601 252.29481 
L 270.166642 255.339316 
L 270.501683 248.56259 
L 270.836724 258.645728 
L 271.171765 250.489364 
L 271.506806 254.161779 
L 271.841846 246.288229 
L 272.176887 246.190417 
L 272.511928 252.376445 
L 272.846969 256.251195 
L 273.18201 247.434118 
L 273.51705 256.068708 
L 273.852091 248.272714 
L 274.187132 246.822262 
L 274.522173 254.224439 
L 274.857214 248.82443 
L 275.192254 253.130596 
L 275.527295 248.626276 
L 275.862336 249.387934 
L 276.197377 252.69151 
L 276.532418 245.6242 
L 276.867458 252.162748 
L 277.202499 250.034396 
L 277.53754 255.624914 
L 277.872581 246.766068 
L 278.207622 258.15588 
L 278.542663 253.045231 
L 278.877703 259.912267 
L 279.212744 257.967118 
L 279.547785 253.277795 
L 279.882826 244.290243 
L 280.217867 246.148038 
L 280.552907 246.527801 
L 280.887948 251.728922 
L 281.222989 242.96052 
L 281.55803 250.935469 
L 281.893071 249.103151 
L 282.228111 248.662198 
L 282.563152 241.109894 
L 282.898193 244.732545 
L 283.233234 246.527777 
L 283.568275 255.668767 
L 283.903316 256.8142 
L 284.238356 248.530751 
L 284.573397 247.056483 
L 284.908438 251.85083 
L 285.243479 246.259979 
L 285.57852 242.8123 
L 285.91356 246.229288 
L 286.248601 243.793681 
L 286.583642 249.762657 
L 286.918683 250.355059 
L 287.253724 251.879736 
L 287.588764 249.485827 
L 287.923805 244.30469 
L 288.593887 250.59168 
L 288.928928 252.373028 
L 289.263968 245.849395 
L 289.93405 251.276236 
L 290.269091 250.730415 
L 290.604132 251.713431 
L 290.939173 245.183713 
L 291.274213 250.416374 
L 291.609254 243.767426 
L 291.944295 254.033422 
L 292.279336 248.941629 
L 292.614377 252.147821 
L 292.949417 244.890334 
L 293.284458 254.889551 
L 293.619499 248.709684 
L 293.95454 252.052181 
L 294.624621 244.536874 
L 294.959662 250.386705 
L 295.294703 250.169433 
L 295.629744 250.489941 
L 295.964785 248.2576 
L 296.299825 249.945166 
L 296.634866 244.769354 
L 297.304948 249.933486 
L 297.639989 247.527487 
L 297.97503 253.36566 
L 298.31007 246.220358 
L 298.645111 245.115518 
L 298.980152 250.542198 
L 299.315193 251.953528 
L 299.650234 247.424467 
L 299.985274 247.588995 
L 300.320315 249.590456 
L 300.655356 242.216022 
L 300.990397 254.626335 
L 301.325438 248.103628 
L 301.660478 251.724133 
L 301.995519 247.735701 
L 302.33056 250.598643 
L 302.665601 246.342717 
L 303.000642 251.783972 
L 303.335683 245.139786 
L 303.670723 249.221367 
L 304.005764 245.692907 
L 304.340805 252.933952 
L 304.675846 249.721128 
L 305.010887 247.821518 
L 305.680968 250.8025 
L 306.016009 243.263621 
L 306.35105 256.214595 
L 306.686091 248.604145 
L 307.021131 248.101918 
L 307.356172 252.918883 
L 307.691213 249.357462 
L 308.026254 251.128342 
L 308.361295 247.150249 
L 308.696335 248.259533 
L 309.031376 245.578304 
L 309.366417 252.515443 
L 309.701458 243.839622 
L 310.036499 245.717106 
L 310.37154 252.796542 
L 310.70658 246.853451 
L 311.041621 253.570884 
L 311.376662 243.79173 
L 311.711703 251.105587 
L 312.381784 241.696508 
L 312.716825 255.401648 
L 313.051866 245.701835 
L 313.386907 246.16085 
L 313.721948 248.710114 
L 314.056988 249.83015 
L 314.392029 248.233868 
L 314.72707 248.394989 
L 315.062111 247.695048 
L 315.397152 254.121684 
L 315.732193 251.379856 
L 316.067233 246.58777 
L 316.402274 255.429628 
L 316.737315 256.343283 
L 317.407397 241.262731 
L 317.742437 256.822566 
L 318.077478 253.993814 
L 318.412519 247.649927 
L 318.74756 249.01281 
L 319.082601 251.316906 
L 319.752682 245.457882 
L 320.087723 260.242932 
L 320.422764 250.04216 
L 320.757805 254.835558 
L 321.427886 248.457185 
L 321.762927 252.605241 
L 322.097968 251.374721 
L 322.433009 250.849985 
L 322.76805 254.702363 
L 323.10309 237.464512 
L 323.438131 241.759159 
L 324.108213 253.500474 
L 324.443254 248.828689 
L 324.778294 248.912755 
L 325.448376 241.723673 
L 325.783417 245.571075 
L 326.118458 247.781715 
L 326.453498 245.327688 
L 326.788539 248.686421 
L 327.12358 249.868952 
L 327.458621 241.214213 
L 327.793662 245.823769 
L 328.128703 246.014995 
L 328.463743 251.51422 
L 328.798784 252.758888 
L 329.133825 247.994381 
L 329.468866 253.108764 
L 329.803907 249.650324 
L 330.138947 250.741435 
L 330.473988 253.09769 
L 330.809029 251.19729 
L 331.14407 250.038623 
L 331.479111 251.335114 
L 331.814151 250.788071 
L 332.149192 248.578008 
L 332.484233 250.149485 
L 332.819274 249.716495 
L 333.154315 250.654104 
L 333.489355 248.93363 
L 333.824396 246.097278 
L 334.159437 255.694266 
L 334.494478 247.314699 
L 334.829519 242.449867 
L 335.4996 257.949417 
L 335.834641 248.624418 
L 336.169682 248.255994 
L 336.504723 243.366201 
L 336.839764 243.562489 
L 337.509845 252.820987 
L 337.844886 253.399225 
L 338.179927 247.430623 
L 338.514968 251.4768 
L 338.850008 244.881546 
L 339.185049 244.556539 
L 339.52009 244.066327 
L 339.855131 242.31923 
L 340.190172 252.16091 
L 340.525212 256.253918 
L 340.860253 254.959878 
L 341.195294 254.207445 
L 341.530335 248.362844 
L 341.865376 249.410462 
L 342.200417 250.840519 
L 342.535457 248.41112 
L 342.870498 253.454921 
L 343.205539 247.474639 
L 343.54058 245.185562 
L 343.875621 252.310737 
L 344.210661 248.512414 
L 344.545702 248.393768 
L 344.880743 241.58018 
L 345.885865 252.415035 
L 346.220906 248.003592 
L 346.555947 253.076423 
L 346.890988 249.562745 
L 347.226029 249.355165 
L 347.56107 248.42945 
L 347.89611 248.768462 
L 348.231151 251.265596 
L 348.566192 246.658766 
L 348.901233 251.591849 
L 349.236274 247.612107 
L 349.571314 254.539841 
L 349.906355 246.138585 
L 350.241396 254.771987 
L 350.576437 240.106599 
L 351.246518 246.113209 
L 351.581559 253.190279 
L 351.9166 247.370808 
L 352.586682 249.588571 
L 352.921722 249.942427 
L 353.256763 256.410313 
L 353.591804 248.766153 
L 353.926845 255.740678 
L 354.261886 246.303219 
L 354.596927 246.687592 
L 354.931967 242.142714 
L 355.602049 254.839731 
L 355.93709 249.4192 
L 356.272131 247.75873 
L 356.607171 253.6003 
L 356.942212 245.298203 
L 357.277253 247.796724 
L 357.612294 248.76959 
L 357.947335 237.490965 
L 358.282375 250.070717 
L 358.952457 252.898526 
L 359.287498 252.871388 
L 359.622539 243.433439 
L 359.95758 247.521183 
L 360.29262 260.084133 
L 360.962702 249.207705 
L 361.632784 253.790411 
L 361.967824 247.172633 
L 362.302865 249.997172 
L 362.637906 246.102321 
L 362.972947 245.144613 
L 363.307988 251.732334 
L 363.643028 246.444245 
L 363.978069 246.2663 
L 364.31311 249.645453 
L 364.648151 251.00668 
L 364.983192 252.847533 
L 365.318232 250.480095 
L 365.653273 252.496295 
L 365.988314 252.468129 
L 366.323355 253.346367 
L 366.658396 252.691497 
L 366.993437 250.694023 
L 367.328477 252.171349 
L 367.663518 251.235673 
L 367.998559 245.26876 
L 368.3336 247.304286 
L 368.668641 256.196541 
L 369.003681 255.412376 
L 369.338722 247.898736 
L 369.673763 248.932374 
L 370.008804 248.379383 
L 370.343845 248.8379 
L 370.678885 259.472637 
L 371.684008 246.875545 
L 372.019049 247.594201 
L 372.35409 251.007736 
L 372.68913 248.114011 
L 373.024171 249.126641 
L 373.359212 255.637951 
L 373.694253 245.996766 
L 374.029294 255.109608 
L 374.699375 250.635394 
L 375.034416 252.417962 
L 375.704498 248.798864 
L 376.039538 245.273533 
L 376.374579 249.143547 
L 376.70962 246.931039 
L 377.044661 252.503152 
L 377.379702 248.040875 
L 377.714742 247.14672 
L 378.049783 258.653935 
L 378.719865 246.646114 
L 379.054906 248.614517 
L 379.389947 256.524732 
L 379.724987 254.966 
L 380.060028 252.248404 
L 380.395069 243.82466 
L 380.73011 255.380183 
L 381.065151 251.911437 
L 381.400191 246.873365 
L 381.735232 252.995163 
L 382.070273 252.615626 
L 382.405314 253.507951 
L 382.740355 251.067717 
L 383.075395 253.796834 
L 383.410436 258.662034 
L 383.745477 248.040028 
L 384.080518 248.869516 
L 384.415559 253.57946 
L 384.750599 256.502427 
L 385.08564 247.58923 
L 385.420681 247.141506 
L 385.755722 254.613916 
L 386.090763 245.221622 
L 386.425804 246.512351 
L 386.760844 253.70528 
L 387.095885 248.601275 
L 387.430926 255.754023 
L 387.765967 254.945924 
L 388.101008 249.041278 
L 388.436048 249.883831 
L 388.771089 248.65947 
L 389.10613 252.719253 
L 389.441171 251.106107 
L 389.776212 254.514256 
L 390.111252 244.794917 
L 390.446293 245.628961 
L 390.781334 248.416331 
L 391.116375 254.780329 
L 391.451416 251.276313 
L 391.786457 246.415077 
L 392.121497 247.564686 
L 392.456538 245.809146 
L 392.791579 246.957238 
L 393.12662 242.750101 
L 393.461661 252.902682 
L 394.131742 250.706786 
L 394.466783 259.022985 
L 394.801824 245.868267 
L 395.136865 244.696426 
L 395.471905 259.40031 
L 395.806946 246.66254 
L 396.141987 250.779462 
L 396.477028 244.227181 
L 396.812069 251.527134 
L 397.147109 247.991943 
L 397.48215 240.337943 
L 397.817191 241.971909 
L 398.152232 252.807096 
L 398.487273 246.706841 
L 398.487273 246.706841 
" clip-path="url(#p44d1f5d7f4)" style="fill: none; stroke: #0000ff; stroke-width: 1.5; stroke-linecap: square"/>
   </g>
   <g id="line2d_28">
    <path d="M 73.832727 228.450132 
L 74.502809 243.993823 
L 74.83785 233.6739 
L 75.172891 231.227539 
L 75.507931 225.145312 
L 75.842972 228.246669 
L 76.178013 246.946127 
L 76.513054 224.287771 
L 76.848095 225.19454 
L 77.183135 244.811495 
L 77.518176 237.211698 
L 77.853217 236.242938 
L 78.188258 238.299363 
L 78.523299 235.524875 
L 78.858339 251.655073 
L 79.19338 237.913702 
L 79.528421 236.318505 
L 79.863462 247.577617 
L 80.198503 226.466362 
L 80.533543 227.644043 
L 80.868584 235.204761 
L 81.203625 227.352374 
L 81.538666 227.103903 
L 81.873707 231.268588 
L 82.208748 230.154302 
L 82.543788 241.407615 
L 83.21387 221.372354 
L 83.548911 225.355782 
L 83.883952 246.675252 
L 84.218992 220.582052 
L 84.554033 223.279252 
L 84.889074 228.820782 
L 85.224115 237.167681 
L 85.894196 215.584886 
L 86.229237 236.630964 
L 86.564278 222.971617 
L 86.899319 233.919374 
L 87.23436 228.028024 
L 87.569401 243.317672 
L 87.904441 220.196627 
L 88.239482 221.543404 
L 88.574523 219.661673 
L 88.909564 214.846205 
L 89.244605 215.235652 
L 90.249727 209.504954 
L 90.584768 213.611227 
L 90.919809 216.191586 
L 91.254849 208.696412 
L 91.924931 224.462703 
L 92.259972 209.873867 
L 92.595013 210.851064 
L 92.930053 219.281282 
L 93.265094 206.535683 
L 93.600135 215.312006 
L 93.935176 206.960455 
L 94.270217 212.576408 
L 94.605258 210.432773 
L 94.940298 218.498164 
L 95.275339 211.557904 
L 95.61038 210.398175 
L 95.945421 207.904338 
L 96.280462 226.321859 
L 96.615502 210.857193 
L 96.950543 207.368597 
L 97.285584 206.068506 
L 97.620625 220.176875 
L 98.290706 203.535868 
L 98.625747 202.157416 
L 98.960788 215.040883 
L 99.295829 208.34149 
L 99.63087 217.176113 
L 99.96591 202.348728 
L 100.300951 214.288127 
L 100.635992 206.466604 
L 100.971033 208.198636 
L 101.306074 196.29338 
L 101.641115 212.556833 
L 101.976155 207.899766 
L 102.311196 210.382435 
L 102.646237 213.812236 
L 102.981278 221.131009 
L 103.316319 199.24826 
L 103.651359 205.24735 
L 103.9864 213.795553 
L 104.321441 229.179066 
L 104.656482 213.809736 
L 104.991523 221.740611 
L 105.326563 209.69886 
L 105.661604 215.313734 
L 105.996645 207.289767 
L 106.666727 220.462426 
L 107.001768 215.722829 
L 107.336808 212.764098 
L 107.671849 215.851034 
L 108.00689 209.074604 
L 108.341931 210.054344 
L 108.676972 212.92131 
L 109.012012 216.919128 
L 109.347053 211.692981 
L 109.682094 208.223775 
L 110.017135 213.730527 
L 110.352176 205.435337 
L 110.687216 211.368774 
L 111.022257 204.8819 
L 111.357298 215.271465 
L 111.692339 219.931816 
L 112.02738 202.994749 
L 112.36242 207.748309 
L 112.697461 200.596473 
L 113.032502 221.645502 
L 113.367543 202.470136 
L 113.702584 215.962214 
L 114.037625 205.582527 
L 114.372665 199.424927 
L 114.707706 217.275627 
L 115.042747 210.423637 
L 115.377788 208.741119 
L 115.712829 212.077939 
L 116.047869 214.039294 
L 116.38291 221.696492 
L 116.717951 212.605744 
L 117.388033 205.498148 
L 117.723073 208.244706 
L 118.058114 208.006095 
L 118.728196 213.914491 
L 119.063237 206.65863 
L 119.398278 213.862305 
L 119.733318 217.152582 
L 120.068359 206.287232 
L 120.4034 218.492321 
L 120.738441 206.789056 
L 121.073482 212.504914 
L 121.408522 207.353464 
L 121.743563 191.755532 
L 122.078604 209.42695 
L 122.413645 215.119027 
L 122.748686 209.983971 
L 123.083726 216.229644 
L 123.753808 202.472012 
L 124.088849 221.103691 
L 124.42389 218.945289 
L 124.75893 210.036442 
L 125.093971 209.893139 
L 125.429012 205.919287 
L 125.764053 216.109752 
L 126.099094 211.723777 
L 126.434135 211.307171 
L 126.769175 218.747154 
L 127.104216 210.466235 
L 127.439257 217.508084 
L 127.774298 213.815335 
L 128.109339 215.369378 
L 128.444379 207.193761 
L 128.77942 221.073356 
L 129.114461 211.242378 
L 129.449502 216.979256 
L 129.784543 214.16228 
L 130.119583 218.078446 
L 130.454624 205.292485 
L 130.789665 201.797447 
L 131.124706 215.869021 
L 131.794788 213.680385 
L 132.129828 208.496914 
L 132.464869 213.43378 
L 132.79991 213.717431 
L 133.134951 210.070277 
L 133.469992 213.377684 
L 133.805032 212.922678 
L 134.140073 220.076509 
L 134.475114 216.201449 
L 134.810155 217.331961 
L 135.145196 203.385797 
L 135.480236 203.925373 
L 135.815277 212.906333 
L 136.150318 205.035317 
L 136.485359 205.817754 
L 136.8204 232.436525 
L 137.15544 213.442117 
L 137.490481 206.457098 
L 137.825522 204.016495 
L 138.160563 209.563499 
L 138.495604 192.696143 
L 138.830645 209.084887 
L 139.165685 209.928431 
L 139.500726 213.583025 
L 139.835767 199.900297 
L 140.170808 209.940927 
L 140.505849 215.211656 
L 140.840889 207.154514 
L 141.17593 210.182148 
L 141.510971 215.210574 
L 141.846012 206.18599 
L 142.181053 212.911321 
L 142.516093 207.126309 
L 142.851134 217.363632 
L 143.186175 216.355649 
L 143.521216 214.736488 
L 143.856257 203.857405 
L 144.191297 204.615042 
L 144.526338 203.266934 
L 144.861379 216.964567 
L 145.19642 205.744775 
L 145.866502 214.135594 
L 146.201542 195.848964 
L 146.536583 216.023436 
L 146.871624 205.197535 
L 147.206665 213.996875 
L 147.541706 214.102445 
L 147.876746 208.676763 
L 148.211787 220.101157 
L 148.546828 219.933201 
L 148.881869 207.353038 
L 149.886991 218.884054 
L 150.222032 210.875432 
L 150.557073 212.129902 
L 150.892114 212.892185 
L 151.227155 211.646365 
L 151.562195 214.932866 
L 151.897236 206.169149 
L 152.232277 210.239439 
L 152.567318 212.304591 
L 152.902359 206.393042 
L 153.57244 216.28349 
L 153.907481 210.292669 
L 154.242522 200.907121 
L 154.577563 203.856729 
L 154.912603 200.067356 
L 155.247644 210.651875 
L 155.582685 209.247481 
L 155.917726 203.986318 
L 156.252767 210.651301 
L 156.587807 207.75896 
L 156.922848 208.873004 
L 157.257889 205.20157 
L 157.59293 227.71325 
L 157.927971 214.018395 
L 158.263012 210.580842 
L 158.598052 204.122599 
L 158.933093 206.551703 
L 159.268134 218.324525 
L 160.273256 222.766149 
L 160.608297 205.736397 
L 160.943338 210.112611 
L 161.278379 209.135426 
L 161.61342 211.141924 
L 161.94846 208.256381 
L 162.283501 208.614558 
L 162.618542 218.262135 
L 162.953583 212.598353 
L 163.288624 213.172296 
L 163.623665 215.942846 
L 163.958705 206.201295 
L 164.293746 207.488246 
L 164.628787 216.904937 
L 164.963828 203.353471 
L 165.298869 208.5713 
L 165.633909 217.955596 
L 166.303991 206.043779 
L 166.639032 213.569526 
L 166.974073 208.786147 
L 167.309113 214.457359 
L 167.644154 203.562392 
L 167.979195 211.591903 
L 168.314236 210.571276 
L 168.649277 213.46396 
L 168.984317 210.090932 
L 169.319358 214.542034 
L 169.654399 203.143843 
L 170.324481 214.808586 
L 170.659522 204.002191 
L 170.994562 208.618353 
L 171.329603 208.451659 
L 171.664644 216.925264 
L 171.999685 204.846732 
L 172.334726 208.423797 
L 172.669766 201.634158 
L 173.339848 209.343599 
L 173.674889 208.155134 
L 174.00993 204.177116 
L 174.34497 217.797468 
L 174.680011 214.415309 
L 175.015052 221.704206 
L 175.350093 216.197982 
L 175.685134 203.353018 
L 176.020175 208.121217 
L 176.690256 209.136168 
L 177.025297 204.097157 
L 177.360338 205.378271 
L 177.695379 210.28108 
L 178.030419 211.952929 
L 178.36546 221.855057 
L 178.700501 205.651921 
L 179.035542 210.261294 
L 179.370583 209.664894 
L 179.705623 211.899246 
L 180.040664 215.855122 
L 180.375705 207.471754 
L 180.710746 220.425099 
L 181.045787 204.789715 
L 181.380827 221.712219 
L 182.38595 208.09825 
L 182.720991 208.414473 
L 183.056032 208.285154 
L 183.391072 203.898785 
L 183.726113 201.231522 
L 184.396195 215.120394 
L 184.731236 216.316464 
L 185.066276 216.868382 
L 185.736358 208.694738 
L 186.071399 219.861633 
L 186.40644 223.152737 
L 186.74148 207.693246 
L 187.076521 216.643528 
L 187.411562 209.166458 
L 187.746603 213.728739 
L 188.081644 209.122904 
L 188.416684 208.612776 
L 188.751725 218.960509 
L 189.086766 200.335531 
L 189.421807 210.657491 
L 190.091889 222.020807 
L 190.426929 213.235289 
L 190.76197 211.117615 
L 191.097011 212.503711 
L 191.432052 201.982463 
L 191.767093 206.96704 
L 192.102133 205.923104 
L 192.437174 206.407824 
L 192.772215 208.852162 
L 193.107256 196.095011 
L 193.442297 202.52359 
L 193.777337 199.939856 
L 194.112378 198.30779 
L 194.447419 200.565693 
L 194.78246 223.748888 
L 195.117501 214.788816 
L 195.452542 211.412962 
L 195.787582 209.552909 
L 196.122623 219.4895 
L 197.127746 206.346616 
L 197.462786 193.103866 
L 197.797827 204.083163 
L 198.467909 214.367128 
L 198.80295 215.900918 
L 199.473031 208.221669 
L 199.808072 212.99637 
L 200.143113 227.618073 
L 200.478154 209.130638 
L 200.813194 211.797511 
L 201.148235 218.713385 
L 201.818317 200.346241 
L 202.153358 204.335802 
L 202.488399 212.759846 
L 202.823439 207.251724 
L 203.15848 219.995289 
L 203.493521 210.160189 
L 203.828562 213.320673 
L 204.163603 217.628985 
L 204.498643 214.730547 
L 204.833684 203.825432 
L 205.168725 212.865116 
L 205.503766 211.068363 
L 205.838807 203.90005 
L 206.173847 213.006489 
L 206.508888 208.347273 
L 206.843929 211.145227 
L 207.17897 209.56954 
L 207.514011 210.137713 
L 207.849052 219.253123 
L 208.184092 210.253287 
L 208.519133 213.888753 
L 208.854174 214.421727 
L 209.189215 215.525081 
L 209.524256 205.404801 
L 209.859296 210.746625 
L 210.194337 218.259786 
L 210.529378 214.613205 
L 210.864419 214.686446 
L 211.19946 202.157915 
L 211.5345 205.948548 
L 211.869541 222.46232 
L 212.204582 217.909819 
L 212.539623 217.895682 
L 212.874664 210.35322 
L 213.209704 214.844949 
L 213.544745 216.861613 
L 213.879786 210.515075 
L 214.214827 207.878916 
L 214.549868 214.125891 
L 214.884909 212.672653 
L 215.219949 208.954417 
L 215.55499 216.584416 
L 215.890031 200.598521 
L 216.225072 209.140443 
L 216.560113 200.181662 
L 216.895153 206.427145 
L 217.230194 217.512873 
L 217.565235 211.990829 
L 217.900276 213.752933 
L 218.235317 217.664798 
L 218.570357 219.600977 
L 218.905398 210.668164 
L 219.240439 206.391263 
L 219.57548 222.439407 
L 220.245561 208.412456 
L 220.580602 212.255375 
L 220.915643 212.834185 
L 221.250684 212.641412 
L 221.585725 204.319429 
L 221.920766 202.231268 
L 222.255806 206.661874 
L 222.590847 189.995006 
L 222.925888 214.43312 
L 223.260929 209.595672 
L 223.59597 211.665465 
L 223.93101 214.770942 
L 224.266051 199.506847 
L 224.601092 214.259335 
L 224.936133 215.03155 
L 225.606214 209.694306 
L 225.941255 208.97129 
L 226.276296 214.58338 
L 226.611337 217.659592 
L 226.946378 203.633366 
L 227.281419 212.632357 
L 227.616459 214.429986 
L 227.9515 223.607002 
L 228.286541 214.859402 
L 228.621582 226.372771 
L 229.626704 208.018247 
L 229.961745 211.055608 
L 230.296786 215.739781 
L 230.631827 210.494641 
L 231.301908 220.47769 
L 231.636949 207.327635 
L 231.97199 218.491055 
L 232.307031 207.993003 
L 232.642071 207.619777 
L 232.977112 212.232233 
L 233.312153 206.617581 
L 233.647194 207.247186 
L 233.982235 200.188051 
L 234.317276 209.710793 
L 234.652316 202.585276 
L 234.987357 217.441024 
L 235.322398 209.222923 
L 235.657439 205.794847 
L 235.99248 216.2887 
L 236.662561 212.912409 
L 236.997602 214.984034 
L 237.332643 208.902169 
L 237.667684 207.85941 
L 238.002724 198.585836 
L 238.337765 209.379935 
L 238.672806 214.308935 
L 239.007847 205.6439 
L 239.342888 208.192077 
L 239.677929 204.717929 
L 240.012969 212.958516 
L 241.018092 202.638621 
L 241.353133 206.367378 
L 242.023214 218.265775 
L 242.358255 199.837385 
L 242.693296 214.194567 
L 243.028337 209.424739 
L 243.363377 207.565882 
L 243.698418 216.253747 
L 244.033459 216.534272 
L 244.703541 204.708409 
L 245.038581 215.122323 
L 245.373622 207.438076 
L 245.708663 214.424968 
L 246.043704 214.982947 
L 246.378745 205.051085 
L 246.713786 208.419296 
L 247.048826 204.789888 
L 247.383867 204.201123 
L 247.718908 218.273337 
L 248.053949 213.104173 
L 248.72403 206.793898 
L 249.059071 198.69574 
L 249.394112 208.380962 
L 249.729153 222.842634 
L 250.064194 204.776165 
L 250.399234 211.206266 
L 251.069316 216.657838 
L 251.404357 198.363363 
L 251.739398 208.135507 
L 252.074439 211.037813 
L 252.409479 203.005275 
L 252.74452 204.350519 
L 253.079561 206.332622 
L 253.414602 207.191744 
L 253.749643 214.512981 
L 254.084683 205.987101 
L 254.419724 217.75355 
L 255.089806 203.938247 
L 255.424847 208.80381 
L 255.759887 208.670181 
L 256.094928 210.206898 
L 256.429969 215.890056 
L 256.76501 213.60502 
L 257.100051 223.767486 
L 257.435091 206.63394 
L 257.770132 211.710811 
L 258.105173 210.262707 
L 258.440214 206.997435 
L 258.775255 195.333958 
L 259.445336 215.344109 
L 259.780377 218.067352 
L 260.115418 208.548775 
L 260.450459 213.446551 
L 260.7855 209.119118 
L 261.12054 212.61936 
L 261.455581 210.100654 
L 261.790622 229.253195 
L 262.125663 216.059802 
L 262.460704 217.73389 
L 262.795744 215.315875 
L 263.130785 219.002974 
L 263.465826 212.554848 
L 263.800867 211.715803 
L 264.135908 211.38796 
L 264.470948 205.033372 
L 264.805989 217.290462 
L 265.14103 213.639759 
L 265.476071 219.400297 
L 265.811112 209.204695 
L 266.146153 215.442706 
L 266.481193 209.013836 
L 266.816234 225.303796 
L 267.151275 216.435867 
L 267.486316 204.090874 
L 267.821357 222.558432 
L 268.156397 209.823556 
L 268.491438 225.601012 
L 268.826479 212.856393 
L 269.16152 214.278053 
L 269.496561 204.506298 
L 269.831601 216.782284 
L 270.166642 214.371703 
L 270.501683 209.350939 
L 270.836724 215.901542 
L 271.171765 209.717128 
L 271.506806 217.940175 
L 272.176887 205.548248 
L 272.846969 216.436062 
L 273.18201 217.808082 
L 273.51705 214.927835 
L 273.852091 205.410084 
L 274.187132 209.259718 
L 274.522173 214.82697 
L 274.857214 202.46308 
L 275.192254 218.452766 
L 275.527295 207.986855 
L 275.862336 213.257537 
L 276.197377 212.482487 
L 276.532418 203.110239 
L 276.867458 205.017847 
L 277.202499 210.039849 
L 277.53754 210.244475 
L 277.872581 205.594707 
L 278.207622 210.375161 
L 278.542663 212.423578 
L 278.877703 221.24372 
L 279.212744 213.6823 
L 279.547785 214.355599 
L 279.882826 209.90288 
L 280.217867 203.604415 
L 280.552907 209.404213 
L 280.887948 212.613715 
L 281.222989 208.014457 
L 281.55803 205.920506 
L 282.228111 214.743744 
L 282.563152 203.713225 
L 282.898193 209.234631 
L 283.233234 205.915342 
L 283.568275 221.180403 
L 283.903316 210.41942 
L 284.238356 208.635292 
L 284.573397 211.552735 
L 284.908438 217.159232 
L 285.243479 204.794235 
L 285.57852 197.168971 
L 285.91356 203.70545 
L 286.248601 200.158304 
L 286.583642 220.713091 
L 286.918683 209.884192 
L 287.253724 218.413002 
L 287.588764 214.63276 
L 287.923805 205.586857 
L 288.928928 216.670183 
L 289.263968 207.587721 
L 289.599009 202.480582 
L 289.93405 207.141165 
L 290.269091 220.499076 
L 290.604132 213.312615 
L 290.939173 203.633863 
L 291.274213 207.231158 
L 291.609254 199.95415 
L 291.944295 213.657003 
L 292.279336 216.601401 
L 292.949417 208.200729 
L 293.284458 221.490925 
L 293.619499 215.280463 
L 293.95454 216.859745 
L 294.289581 208.267053 
L 294.624621 195.012064 
L 294.959662 218.247361 
L 295.294703 213.043215 
L 295.629744 205.346495 
L 295.964785 208.358144 
L 296.299825 208.105393 
L 296.634866 204.034422 
L 296.969907 203.9309 
L 297.304948 211.630622 
L 297.639989 210.895211 
L 297.97503 215.472185 
L 298.31007 206.757381 
L 298.645111 204.187925 
L 298.980152 210.25035 
L 299.315193 214.004484 
L 299.650234 203.284318 
L 299.985274 206.244707 
L 300.320315 215.859451 
L 300.655356 205.266848 
L 300.990397 210.359882 
L 301.325438 209.26979 
L 301.660478 215.098628 
L 301.995519 206.331617 
L 302.33056 212.494069 
L 302.665601 206.472429 
L 303.000642 217.281364 
L 303.335683 206.923202 
L 303.670723 218.085224 
L 304.005764 202.776507 
L 304.340805 216.532952 
L 305.010887 199.574585 
L 305.345927 208.27988 
L 305.680968 209.633471 
L 306.016009 202.823447 
L 306.35105 220.758155 
L 306.686091 211.554542 
L 307.021131 207.395487 
L 307.356172 213.159154 
L 307.691213 207.337148 
L 308.026254 213.839486 
L 308.361295 209.143055 
L 308.696335 210.306227 
L 309.031376 206.308827 
L 309.366417 217.038543 
L 309.701458 208.664791 
L 310.036499 209.442385 
L 310.37154 217.753594 
L 310.70658 205.125605 
L 311.041621 214.728086 
L 311.376662 202.983871 
L 311.711703 212.582956 
L 312.046744 213.058728 
L 312.381784 210.429861 
L 312.716825 213.766835 
L 313.051866 202.993655 
L 313.721948 215.444538 
L 314.056988 216.243152 
L 314.392029 214.173777 
L 314.72707 214.089095 
L 315.062111 207.912459 
L 315.397152 215.803302 
L 315.732193 217.643609 
L 316.067233 204.19152 
L 316.402274 215.49251 
L 316.737315 216.933908 
L 317.072356 206.628676 
L 317.407397 200.476718 
L 317.742437 208.31812 
L 318.077478 206.825718 
L 318.412519 211.573739 
L 318.74756 218.600386 
L 319.082601 216.407459 
L 319.417641 213.369305 
L 319.752682 213.917163 
L 320.087723 222.619024 
L 320.422764 209.982528 
L 320.757805 221.911885 
L 321.092845 202.918699 
L 321.762927 215.129438 
L 322.097968 220.25763 
L 322.433009 212.017369 
L 322.76805 208.628753 
L 323.10309 193.026885 
L 323.438131 204.689988 
L 323.773172 211.483262 
L 324.108213 213.531975 
L 324.443254 208.045703 
L 324.778294 216.121379 
L 325.113335 202.287182 
L 325.448376 194.836087 
L 325.783417 199.171299 
L 326.118458 206.866824 
L 326.453498 196.968514 
L 326.788539 209.88705 
L 327.12358 201.309462 
L 327.458621 199.762472 
L 327.793662 203.299462 
L 328.128703 198.629108 
L 328.463743 209.275626 
L 328.798784 211.271771 
L 329.133825 205.210876 
L 329.468866 208.292038 
L 329.803907 207.215681 
L 330.138947 207.879712 
L 330.473988 216.493653 
L 330.809029 212.837449 
L 331.14407 211.105126 
L 331.479111 204.086301 
L 331.814151 210.253711 
L 332.149192 208.710229 
L 332.484233 209.330305 
L 332.819274 205.748455 
L 333.154315 211.135881 
L 333.489355 210.038866 
L 333.824396 202.517236 
L 334.159437 218.987854 
L 334.494478 205.938587 
L 334.829519 212.63583 
L 335.16456 209.005384 
L 335.4996 216.79813 
L 336.169682 204.949056 
L 336.504723 199.879705 
L 336.839764 201.716416 
L 337.174804 207.959511 
L 337.509845 209.148786 
L 337.844886 209.214914 
L 338.514968 213.806273 
L 338.850008 201.285067 
L 339.185049 204.843517 
L 339.52009 203.051559 
L 339.855131 203.182721 
L 340.190172 205.727362 
L 340.525212 219.491105 
L 340.860253 212.572242 
L 341.195294 215.636737 
L 341.530335 210.588491 
L 341.865376 214.514889 
L 342.200417 209.035437 
L 342.535457 216.57737 
L 342.870498 217.275267 
L 343.205539 208.239873 
L 343.54058 207.021663 
L 343.875621 207.179893 
L 344.210661 218.209932 
L 344.880743 199.578401 
L 345.215784 201.575641 
L 345.550825 213.415566 
L 345.885865 206.695262 
L 346.220906 210.987372 
L 346.555947 219.040281 
L 346.890988 201.773633 
L 347.226029 212.620423 
L 347.56107 209.046105 
L 347.89611 209.925634 
L 348.231151 209.173907 
L 348.566192 213.136655 
L 348.901233 208.011184 
L 349.906355 212.015098 
L 350.911478 194.579112 
L 351.581559 216.568695 
L 351.9166 205.852997 
L 352.251641 209.423767 
L 352.586682 217.014888 
L 352.921722 208.018423 
L 353.256763 214.761298 
L 353.591804 206.007119 
L 353.926845 223.594975 
L 354.261886 208.853449 
L 354.596927 207.499542 
L 354.931967 201.764138 
L 355.267008 208.259189 
L 355.602049 222.007348 
L 355.93709 202.211528 
L 356.272131 210.03029 
L 356.607171 213.77124 
L 356.942212 200.254558 
L 357.277253 203.983135 
L 357.612294 204.904857 
L 357.947335 202.954736 
L 358.282375 214.389792 
L 358.617416 203.686841 
L 358.952457 209.889617 
L 359.287498 210.012814 
L 359.95758 204.365518 
L 360.29262 215.402794 
L 360.627661 217.546913 
L 360.962702 203.212391 
L 361.297743 204.486493 
L 361.632784 222.305977 
L 361.967824 207.703809 
L 362.302865 203.231509 
L 362.637906 208.167514 
L 362.972947 203.922059 
L 363.307988 213.909111 
L 363.643028 202.831846 
L 364.31311 207.861802 
L 364.983192 202.752802 
L 365.318232 216.309518 
L 365.653273 216.928027 
L 365.988314 216.138441 
L 366.323355 207.887724 
L 366.658396 213.938872 
L 366.993437 215.603949 
L 367.328477 209.49439 
L 367.663518 209.612669 
L 367.998559 207.051467 
L 368.3336 207.968299 
L 368.668641 220.422701 
L 369.003681 213.679193 
L 369.673763 207.073078 
L 370.008804 201.168354 
L 370.343845 212.693789 
L 370.678885 216.246585 
L 371.013926 213.377432 
L 371.348967 208.985593 
L 371.684008 212.708639 
L 372.019049 201.183945 
L 372.35409 202.161503 
L 372.68913 211.190067 
L 373.024171 210.023826 
L 373.359212 210.928117 
L 373.694253 198.013316 
L 374.029294 220.218701 
L 374.364334 213.874238 
L 374.699375 216.952214 
L 375.034416 209.515147 
L 375.369457 209.683999 
L 375.704498 212.101587 
L 376.374579 205.178734 
L 376.70962 209.898063 
L 377.044661 210.090002 
L 377.379702 203.738742 
L 377.714742 205.288009 
L 378.049783 221.344724 
L 378.719865 205.331065 
L 379.054906 213.570371 
L 379.389947 207.721905 
L 379.724987 210.796477 
L 380.060028 204.565335 
L 380.395069 202.204129 
L 381.065151 214.970847 
L 381.400191 204.455241 
L 381.735232 218.656035 
L 382.405314 207.765966 
L 383.075395 209.306601 
L 383.410436 217.822209 
L 383.745477 211.319989 
L 384.080518 208.852052 
L 384.415559 211.199242 
L 384.750599 215.942262 
L 385.420681 204.651889 
L 385.755722 218.292635 
L 386.090763 205.72064 
L 386.425804 210.142324 
L 386.760844 211.333397 
L 387.095885 209.065094 
L 387.765967 225.736471 
L 388.101008 212.988909 
L 388.436048 215.144215 
L 388.771089 213.581201 
L 389.10613 213.814918 
L 389.441171 203.173822 
L 389.776212 222.634329 
L 390.111252 203.462307 
L 390.446293 201.88858 
L 390.781334 214.334529 
L 391.116375 217.462703 
L 391.451416 215.290047 
L 391.786457 206.055122 
L 392.121497 203.327488 
L 392.456538 207.617163 
L 392.791579 208.567969 
L 393.12662 195.70833 
L 393.461661 209.840886 
L 393.796701 205.022415 
L 394.131742 215.480333 
L 394.466783 217.970394 
L 394.801824 210.546386 
L 395.136865 207.003481 
L 395.471905 218.154774 
L 395.806946 209.23253 
L 396.141987 210.125163 
L 396.477028 200.647812 
L 396.812069 212.826087 
L 397.147109 202.303596 
L 397.48215 197.170962 
L 397.817191 195.501295 
L 398.152232 206.076528 
L 398.487273 206.200757 
L 398.487273 206.200757 
" clip-path="url(#p44d1f5d7f4)" style="fill: none; stroke-dasharray: 9.6,2.4,1.5,2.4; stroke-dashoffset: 0; stroke: #008000; stroke-width: 1.5"/>
   </g>
   <g id="line2d_29">
    <path d="M 73.832727 87.977835 
L 74.167768 133.513921 
L 74.502809 152.741966 
L 74.83785 140.470059 
L 75.507931 94.12141 
L 75.842972 124.44839 
L 76.178013 119.578664 
L 76.513054 112.878903 
L 76.848095 109.839804 
L 77.183135 109.72329 
L 77.518176 98.620118 
L 77.853217 132.623209 
L 78.188258 152.30135 
L 78.523299 128.075622 
L 78.858339 170.811203 
L 79.19338 108.581716 
L 79.528421 125.030795 
L 79.863462 126.658976 
L 80.198503 123.565691 
L 80.533543 105.941164 
L 80.868584 127.792772 
L 81.203625 127.573186 
L 81.538666 123.220552 
L 81.873707 133.17539 
L 82.208748 79.343506 
L 82.543788 127.740486 
L 82.878829 73.666398 
L 83.21387 106.277172 
L 83.548911 113.577472 
L 83.883952 164.800724 
L 84.218992 129.253301 
L 84.554033 124.845084 
L 84.889074 102.804111 
L 85.224115 130.064991 
L 85.559156 145.055265 
L 86.229237 109.255423 
L 87.23436 139.396687 
L 87.569401 180.952354 
L 87.904441 137.75326 
L 88.239482 147.122754 
L 88.574523 146.114387 
L 88.909564 82.461762 
L 89.579645 156.673465 
L 89.914686 126.244066 
L 90.249727 144.814781 
L 90.919809 88.358887 
L 91.254849 145.249032 
L 91.58989 107.886568 
L 91.924931 148.279179 
L 92.259972 153.64364 
L 92.595013 103.999062 
L 92.930053 138.245974 
L 93.265094 109.17221 
L 93.600135 91.09207 
L 93.935176 133.573568 
L 94.270217 132.491822 
L 94.605258 111.258074 
L 94.940298 120.175062 
L 95.275339 135.056549 
L 95.61038 156.375669 
L 95.945421 121.510697 
L 96.280462 158.857542 
L 96.950543 118.96361 
L 97.285584 121.453064 
L 97.620625 137.649776 
L 97.955666 124.329359 
L 98.290706 80.902837 
L 98.625747 123.382924 
L 98.960788 108.030387 
L 99.295829 131.921638 
L 99.63087 147.613865 
L 99.96591 112.476589 
L 100.300951 124.814171 
L 100.635992 113.060471 
L 100.971033 110.422503 
L 101.306074 126.237723 
L 101.641115 158.050759 
L 101.976155 146.834831 
L 102.311196 145.134264 
L 102.646237 125.877166 
L 102.981278 150.785921 
L 103.316319 109.94716 
L 103.651359 93.142268 
L 103.9864 98.469231 
L 104.321441 177.111218 
L 104.656482 86.277674 
L 104.991523 168.762219 
L 105.326563 135.566437 
L 105.661604 142.915324 
L 105.996645 98.725383 
L 106.331686 97.864937 
L 106.666727 146.703294 
L 107.001768 144.351756 
L 107.336808 135.070326 
L 107.671849 146.094619 
L 108.00689 115.647958 
L 108.341931 112.451057 
L 108.676972 107.405054 
L 109.012012 157.307595 
L 109.347053 103.861205 
L 109.682094 91.767209 
L 110.017135 143.748435 
L 110.352176 124.487215 
L 110.687216 140.159652 
L 111.022257 77.251543 
L 111.357298 133.579678 
L 111.692339 151.274295 
L 112.02738 122.414538 
L 112.36242 134.803346 
L 112.697461 114.865553 
L 113.032502 171.68798 
L 113.367543 106.713871 
L 113.702584 140.307738 
L 114.037625 124.650256 
L 114.372665 82.108995 
L 114.707706 153.841729 
L 115.042747 93.814934 
L 115.377788 122.516555 
L 115.712829 112.739923 
L 116.047869 133.944786 
L 116.38291 116.733405 
L 116.717951 142.481889 
L 117.052992 138.217525 
L 117.388033 137.167637 
L 117.723073 125.385255 
L 118.058114 133.612882 
L 118.393155 129.754857 
L 118.728196 147.297739 
L 119.063237 122.026151 
L 119.733318 151.094229 
L 120.068359 134.133194 
L 120.4034 150.952406 
L 120.738441 112.079825 
L 121.073482 140.580209 
L 121.408522 88.27965 
L 121.743563 104.216956 
L 122.078604 134.10458 
L 122.413645 123.132546 
L 122.748686 117.476816 
L 123.083726 122.079211 
L 123.418767 116.383698 
L 123.753808 123.609127 
L 124.088849 144.124117 
L 124.42389 151.111187 
L 124.75893 111.065594 
L 125.429012 147.951819 
L 125.764053 133.252202 
L 126.099094 151.288945 
L 126.434135 122.056456 
L 126.769175 147.870734 
L 127.104216 125.547826 
L 127.439257 127.398528 
L 127.774298 113.921613 
L 128.109339 124.588854 
L 128.444379 124.08713 
L 128.77942 150.479246 
L 129.114461 162.400085 
L 129.449502 119.76106 
L 129.784543 130.512103 
L 130.119583 151.177881 
L 130.454624 95.128118 
L 131.124706 154.579349 
L 131.459747 139.59467 
L 132.464869 127.85721 
L 132.79991 102.420838 
L 133.134951 119.84566 
L 133.469992 123.003771 
L 133.805032 131.805183 
L 134.140073 121.765118 
L 134.475114 152.157777 
L 135.145196 95.704481 
L 135.480236 135.583484 
L 135.815277 119.687508 
L 136.150318 145.102462 
L 136.485359 152.539849 
L 136.8204 183.862836 
L 137.15544 120.94837 
L 137.490481 135.567393 
L 137.825522 107.220666 
L 138.160563 148.673593 
L 138.495604 77.734054 
L 138.830645 129.834262 
L 139.165685 163.766893 
L 139.500726 97.675247 
L 139.835767 139.986281 
L 140.170808 99.595672 
L 140.505849 127.762775 
L 140.840889 112.840489 
L 141.17593 148.040171 
L 141.510971 144.606011 
L 141.846012 102.340742 
L 142.181053 141.572482 
L 142.516093 101.319819 
L 142.851134 142.500377 
L 143.186175 113.068077 
L 143.521216 119.438991 
L 143.856257 123.261983 
L 144.526338 142.174597 
L 144.861379 142.306508 
L 145.19642 127.039208 
L 145.531461 129.300307 
L 145.866502 143.261568 
L 146.201542 82.954438 
L 146.536583 155.055101 
L 146.871624 106.009966 
L 147.206665 145.405983 
L 147.541706 113.069819 
L 147.876746 117.118477 
L 148.546828 145.079593 
L 148.881869 126.762717 
L 149.55195 155.003013 
L 149.886991 158.177294 
L 150.222032 158.070944 
L 150.557073 121.745013 
L 150.892114 152.865323 
L 151.227155 154.459997 
L 151.562195 135.286503 
L 151.897236 108.989219 
L 152.232277 119.682235 
L 152.567318 109.296903 
L 152.902359 107.496959 
L 153.237399 139.612145 
L 153.57244 142.849251 
L 153.907481 153.511743 
L 154.242522 109.966175 
L 154.577563 125.913886 
L 154.912603 109.513009 
L 155.247644 140.993172 
L 155.582685 98.133005 
L 155.917726 112.413018 
L 156.252767 140.102719 
L 156.587807 120.683765 
L 156.922848 111.251719 
L 157.257889 131.112142 
L 157.59293 172.816174 
L 157.927971 138.212751 
L 158.263012 126.061308 
L 158.598052 140.383007 
L 158.933093 123.04934 
L 159.268134 147.600455 
L 159.603175 106.804776 
L 159.938216 116.850637 
L 160.273256 149.757518 
L 160.608297 113.963614 
L 160.943338 142.713357 
L 161.278379 132.250839 
L 161.61342 130.418587 
L 161.94846 110.650154 
L 162.283501 125.628654 
L 162.618542 123.150713 
L 162.953583 156.014018 
L 163.288624 120.437179 
L 163.958705 113.059537 
L 164.293746 148.456636 
L 165.298869 77.815559 
L 165.96895 149.376029 
L 166.303991 104.176379 
L 166.639032 109.433064 
L 166.974073 121.078996 
L 167.309113 139.879087 
L 167.644154 126.557011 
L 167.979195 133.642862 
L 168.314236 126.030167 
L 168.649277 142.314695 
L 168.984317 147.41459 
L 169.319358 158.371975 
L 169.654399 76.922733 
L 169.98944 156.281679 
L 170.324481 97.988767 
L 170.659522 124.877284 
L 170.994562 111.673176 
L 171.329603 113.76719 
L 171.664644 135.419683 
L 171.999685 132.977673 
L 172.334726 113.725521 
L 172.669766 119.419524 
L 173.004807 151.110343 
L 173.339848 161.323936 
L 173.674889 107.692236 
L 174.00993 117.09351 
L 174.34497 156.286443 
L 174.680011 132.817335 
L 175.015052 143.51728 
L 175.350093 103.046761 
L 175.685134 124.353379 
L 176.355215 103.293071 
L 176.690256 120.746756 
L 177.025297 106.223284 
L 177.360338 144.782277 
L 177.695379 115.942235 
L 178.030419 161.848834 
L 178.36546 170.391447 
L 178.700501 105.516029 
L 179.370583 147.120257 
L 179.705623 107.87094 
L 180.040664 150.883975 
L 180.375705 135.583189 
L 180.710746 158.896631 
L 181.045787 112.256443 
L 181.380827 136.556826 
L 181.715868 152.267214 
L 182.050909 143.178971 
L 182.38595 86.305393 
L 182.720991 112.335919 
L 183.056032 87.888998 
L 183.391072 94.524787 
L 183.726113 93.803228 
L 184.061154 121.8181 
L 184.396195 110.286988 
L 184.731236 106.298454 
L 185.066276 97.098005 
L 185.401317 126.486596 
L 185.736358 114.22775 
L 186.40644 170.489336 
L 186.74148 136.353286 
L 187.076521 152.684553 
L 187.746603 105.576934 
L 188.081644 117.785913 
L 188.416684 140.56978 
L 188.751725 147.108372 
L 189.086766 93.487385 
L 189.421807 147.091857 
L 189.756848 111.64378 
L 190.091889 153.524436 
L 190.426929 134.896442 
L 190.76197 133.836204 
L 191.097011 134.332608 
L 191.432052 130.798153 
L 191.767093 120.964109 
L 192.102133 93.37931 
L 192.437174 121.709225 
L 192.772215 117.006224 
L 193.107256 124.529991 
L 193.442297 142.263756 
L 193.777337 104.215044 
L 194.112378 87.444409 
L 194.447419 105.675125 
L 194.78246 171.953533 
L 195.117501 159.767222 
L 195.452542 111.958457 
L 196.122623 165.748087 
L 196.792705 113.315653 
L 197.127746 108.959968 
L 197.462786 101.476318 
L 197.797827 115.998419 
L 198.132868 117.147801 
L 198.467909 89.508118 
L 199.13799 115.132674 
L 199.473031 139.329945 
L 199.808072 141.316348 
L 200.143113 192.755883 
L 200.478154 127.493554 
L 200.813194 123.157737 
L 201.148235 162.049276 
L 201.818317 93.610297 
L 202.153358 127.682887 
L 202.488399 135.208747 
L 202.823439 126.87342 
L 203.15848 160.323637 
L 203.493521 151.045924 
L 203.828562 135.034612 
L 204.163603 149.217941 
L 204.833684 124.52831 
L 205.168725 132.433766 
L 205.503766 145.485796 
L 205.838807 115.352436 
L 206.173847 131.850749 
L 206.508888 89.992488 
L 206.843929 151.787699 
L 207.17897 159.338903 
L 207.514011 79.875257 
L 207.849052 106.728972 
L 208.184092 117.144416 
L 208.519133 147.546665 
L 208.854174 143.865347 
L 209.189215 164.463026 
L 209.524256 104.051624 
L 209.859296 122.681709 
L 210.194337 96.613282 
L 210.529378 94.227303 
L 210.864419 125.93614 
L 211.19946 111.098765 
L 211.5345 111.060917 
L 211.869541 158.443082 
L 212.204582 162.989621 
L 212.539623 140.438606 
L 212.874664 110.217953 
L 213.209704 162.133676 
L 213.544745 137.427324 
L 213.879786 147.541679 
L 214.214827 115.813836 
L 214.549868 130.615582 
L 214.884909 112.236467 
L 215.219949 122.476421 
L 215.55499 147.480835 
L 216.225072 96.979212 
L 216.895153 125.718108 
L 217.230194 146.206851 
L 217.565235 125.669414 
L 217.900276 135.82781 
L 218.235317 152.021183 
L 218.570357 148.304853 
L 218.905398 118.813858 
L 219.240439 131.32453 
L 219.57548 167.700962 
L 219.910521 143.777683 
L 220.245561 53.568 
L 220.580602 147.07611 
L 220.915643 145.189586 
L 221.250684 150.397197 
L 221.585725 80.816196 
L 221.920766 82.046541 
L 222.255806 94.144137 
L 222.590847 112.841679 
L 222.925888 140.519463 
L 223.260929 122.793852 
L 223.59597 136.682536 
L 223.93101 123.858477 
L 224.266051 103.688988 
L 224.601092 131.462496 
L 224.936133 119.373812 
L 225.271174 123.756568 
L 225.606214 136.769652 
L 225.941255 124.334166 
L 226.276296 92.891324 
L 226.611337 122.004244 
L 226.946378 104.892799 
L 227.281419 111.060604 
L 227.616459 114.239497 
L 227.9515 127.040206 
L 228.286541 100.772739 
L 228.956623 150.025429 
L 229.291663 120.187406 
L 229.626704 130.421145 
L 229.961745 118.238661 
L 230.296786 136.164318 
L 230.631827 139.083132 
L 230.966867 131.388887 
L 231.301908 146.622292 
L 231.636949 151.399197 
L 231.97199 151.086274 
L 232.307031 150.609801 
L 232.642071 128.766551 
L 232.977112 135.485125 
L 233.647194 97.92467 
L 233.982235 109.042401 
L 234.317276 96.238856 
L 234.652316 106.410528 
L 234.987357 158.079994 
L 235.322398 109.736458 
L 235.657439 106.038838 
L 235.99248 131.022735 
L 236.32752 139.980033 
L 236.662561 93.60234 
L 236.997602 102.403716 
L 237.332643 120.844714 
L 238.002724 96.315399 
L 238.337765 93.516298 
L 238.672806 151.544339 
L 239.007847 117.836086 
L 239.677929 138.266329 
L 240.012969 145.324489 
L 240.34801 121.928215 
L 240.683051 148.26957 
L 241.018092 83.665073 
L 241.353133 86.729472 
L 241.688173 133.112005 
L 242.023214 134.448781 
L 242.358255 111.607347 
L 243.028337 143.429925 
L 243.363377 133.427283 
L 243.698418 107.141584 
L 244.033459 131.786737 
L 244.3685 132.478332 
L 244.703541 140.183297 
L 245.038581 165.457771 
L 245.373622 143.585196 
L 245.708663 83.727852 
L 246.043704 129.392661 
L 246.378745 101.117876 
L 246.713786 126.33614 
L 247.048826 81.637331 
L 247.383867 136.471116 
L 247.718908 114.195089 
L 248.053949 134.299502 
L 248.38899 131.740253 
L 248.72403 94.558884 
L 249.059071 88.264031 
L 249.394112 97.648463 
L 249.729153 152.440973 
L 250.064194 99.305156 
L 250.399234 114.519852 
L 250.734275 150.081182 
L 251.069316 157.86101 
L 251.404357 102.878449 
L 251.739398 132.630972 
L 252.074439 103.513895 
L 252.409479 112.559663 
L 252.74452 104.825222 
L 253.079561 85.191585 
L 253.414602 129.975296 
L 253.749643 136.895695 
L 254.084683 106.237553 
L 254.419724 145.037337 
L 254.754765 112.491706 
L 255.089806 118.424054 
L 255.424847 134.992908 
L 255.759887 126.813608 
L 256.094928 126.377335 
L 256.429969 132.27157 
L 256.76501 115.894219 
L 257.100051 152.143807 
L 257.435091 120.37539 
L 257.770132 126.139241 
L 258.105173 111.510584 
L 258.440214 80.489652 
L 259.110296 114.309768 
L 259.445336 145.49805 
L 259.780377 142.358955 
L 260.115418 107.702486 
L 260.450459 134.620928 
L 260.7855 104.377906 
L 261.12054 123.744729 
L 261.455581 150.416212 
L 261.790622 191.302295 
L 262.125663 155.168621 
L 262.460704 162.2494 
L 262.795744 154.649631 
L 263.130785 144.023787 
L 263.465826 116.522504 
L 263.800867 124.442742 
L 264.135908 139.977835 
L 264.470948 98.456869 
L 264.805989 148.783909 
L 265.14103 169.399743 
L 265.811112 96.102657 
L 266.146153 147.433851 
L 266.481193 137.31858 
L 266.816234 164.165189 
L 267.151275 136.331623 
L 267.486316 127.97932 
L 267.821357 146.634463 
L 268.156397 104.902781 
L 268.491438 174.342087 
L 268.826479 161.279761 
L 269.16152 135.361498 
L 269.496561 119.246594 
L 269.831601 147.462552 
L 270.501683 123.108618 
L 270.836724 135.299664 
L 271.171765 127.123571 
L 271.506806 142.558773 
L 271.841846 139.840294 
L 272.176887 88.749096 
L 272.511928 144.505494 
L 272.846969 143.625917 
L 273.18201 164.747839 
L 273.51705 126.368713 
L 273.852091 108.346177 
L 274.187132 143.661002 
L 274.522173 149.281693 
L 274.857214 87.196698 
L 275.192254 103.039067 
L 275.862336 155.953018 
L 276.197377 101.718652 
L 276.532418 86.670755 
L 277.202499 121.019558 
L 277.53754 114.317183 
L 277.872581 134.119926 
L 278.207622 95.086977 
L 278.542663 148.529243 
L 278.877703 175.743392 
L 279.212744 123.28367 
L 279.547785 119.224301 
L 279.882826 138.954908 
L 280.217867 125.081207 
L 280.552907 105.073562 
L 280.887948 108.38801 
L 281.222989 139.35125 
L 281.55803 123.167294 
L 281.893071 119.73743 
L 282.228111 105.17219 
L 282.563152 143.278398 
L 282.898193 97.860642 
L 283.233234 141.046941 
L 283.568275 149.563856 
L 283.903316 98.042425 
L 284.238356 98.944991 
L 284.573397 149.158493 
L 284.908438 129.188666 
L 285.243479 138.1389 
L 285.57852 94.294272 
L 285.91356 111.120637 
L 286.248601 118.572846 
L 286.583642 147.471045 
L 286.918683 132.816341 
L 287.253724 150.26989 
L 287.588764 135.922009 
L 287.923805 80.73611 
L 288.258846 135.922829 
L 288.593887 162.830511 
L 288.928928 143.181351 
L 289.599009 120.527221 
L 289.93405 138.668699 
L 290.269091 169.364163 
L 290.604132 129.107807 
L 290.939173 126.316844 
L 291.274213 131.811939 
L 291.609254 117.965428 
L 291.944295 168.808083 
L 292.614377 99.17419 
L 292.949417 137.760659 
L 293.284458 153.279223 
L 293.619499 148.529353 
L 293.95454 151.446347 
L 294.289581 138.446185 
L 294.624621 90.896565 
L 294.959662 151.856198 
L 295.294703 101.985728 
L 295.629744 158.454016 
L 296.299825 94.492194 
L 296.634866 116.874851 
L 296.969907 96.108989 
L 297.304948 147.061279 
L 297.639989 145.918966 
L 297.97503 134.261263 
L 298.31007 145.951373 
L 298.645111 114.216238 
L 298.980152 99.351132 
L 299.315193 131.414433 
L 299.650234 111.55901 
L 299.985274 100.259579 
L 300.320315 121.776812 
L 300.655356 116.426882 
L 300.990397 123.172973 
L 301.325438 118.746909 
L 301.660478 157.975761 
L 301.995519 102.811359 
L 302.33056 128.545999 
L 302.665601 108.907183 
L 303.000642 137.49484 
L 303.335683 149.947197 
L 303.670723 150.779276 
L 304.005764 116.175865 
L 304.340805 157.363083 
L 304.675846 134.861537 
L 305.010887 122.241967 
L 305.345927 118.34708 
L 305.680968 155.527422 
L 306.016009 118.280654 
L 306.35105 159.076005 
L 306.686091 137.652172 
L 307.021131 138.868383 
L 307.356172 119.56463 
L 307.691213 137.101348 
L 308.026254 138.411162 
L 308.361295 130.176959 
L 308.696335 140.416154 
L 309.031376 144.844713 
L 309.366417 93.141112 
L 309.701458 122.919408 
L 310.036499 134.200562 
L 310.37154 103.966836 
L 310.70658 106.283423 
L 311.041621 155.080389 
L 311.376662 128.177668 
L 311.711703 133.934278 
L 312.046744 134.958982 
L 312.381784 116.579929 
L 312.716825 124.29588 
L 313.051866 104.277051 
L 313.386907 137.722524 
L 313.721948 144.637947 
L 314.056988 103.128588 
L 314.392029 147.835038 
L 314.72707 143.465642 
L 315.062111 147.411008 
L 315.397152 148.26408 
L 315.732193 141.452914 
L 316.067233 108.551984 
L 316.402274 144.544991 
L 316.737315 130.284869 
L 317.072356 139.570634 
L 317.407397 92.147966 
L 317.742437 130.050029 
L 318.077478 136.982631 
L 318.412519 110.743305 
L 318.74756 168.891693 
L 319.082601 177.361032 
L 319.417641 81.74375 
L 319.752682 129.054244 
L 320.087723 117.558363 
L 320.422764 122.250334 
L 320.757805 146.040175 
L 321.092845 100.234911 
L 321.427886 99.21151 
L 321.762927 161.814254 
L 322.097968 161.885546 
L 322.433009 88.933622 
L 323.438131 133.29099 
L 323.773172 160.533624 
L 324.108213 140.991849 
L 324.443254 150.040357 
L 324.778294 108.347917 
L 325.113335 113.923164 
L 325.448376 81.813201 
L 325.783417 104.136159 
L 326.118458 113.75765 
L 326.453498 98.749916 
L 327.12358 144.534928 
L 327.458621 121.459775 
L 327.793662 83.320681 
L 328.128703 90.184126 
L 328.463743 137.584765 
L 328.798784 95.513393 
L 329.133825 108.09879 
L 329.468866 114.604113 
L 329.803907 104.614328 
L 330.138947 122.655717 
L 330.473988 132.704355 
L 330.809029 118.046538 
L 331.14407 126.298494 
L 331.479111 130.593864 
L 331.814151 137.773483 
L 332.149192 107.595561 
L 332.484233 121.620312 
L 332.819274 119.819651 
L 333.154315 120.796258 
L 333.489355 146.045133 
L 333.824396 147.503866 
L 334.159437 143.879356 
L 334.494478 126.827789 
L 334.829519 141.28697 
L 335.16456 103.522197 
L 335.834641 154.872958 
L 336.169682 126.810756 
L 336.504723 130.859081 
L 336.839764 93.545302 
L 337.174804 127.897399 
L 337.509845 148.647784 
L 337.844886 123.479189 
L 338.179927 108.682865 
L 338.514968 119.972325 
L 338.850008 85.524591 
L 339.52009 129.870699 
L 339.855131 138.404376 
L 340.190172 112.58756 
L 340.525212 161.738441 
L 340.860253 126.28956 
L 341.195294 145.462815 
L 341.530335 118.957955 
L 341.865376 153.10808 
L 342.200417 141.589407 
L 342.535457 154.536256 
L 342.870498 162.46498 
L 343.205539 141.669207 
L 343.54058 135.851714 
L 343.875621 127.929876 
L 344.210661 169.178737 
L 344.545702 117.232369 
L 344.880743 91.844541 
L 345.215784 91.070304 
L 345.550825 136.729507 
L 345.885865 111.713792 
L 346.220906 121.272871 
L 346.555947 154.680885 
L 346.890988 86.42301 
L 347.226029 136.525511 
L 347.56107 150.454352 
L 347.89611 113.192665 
L 348.231151 120.224474 
L 348.566192 142.270848 
L 348.901233 118.665548 
L 349.236274 154.800181 
L 349.571314 129.745936 
L 349.906355 129.615621 
L 350.241396 108.448034 
L 350.576437 78.891807 
L 350.911478 88.611249 
L 351.246518 122.967955 
L 351.581559 138.899931 
L 351.9166 126.121915 
L 352.251641 124.413067 
L 352.586682 165.861556 
L 352.921722 117.682115 
L 353.256763 100.200882 
L 353.591804 124.53698 
L 353.926845 163.09107 
L 354.261886 132.243525 
L 354.596927 121.829315 
L 354.931967 117.787549 
L 355.267008 87.498315 
L 355.602049 150.852885 
L 355.93709 112.876446 
L 356.607171 141.313373 
L 357.612294 114.569441 
L 357.947335 110.712694 
L 358.282375 139.293767 
L 358.617416 120.208955 
L 358.952457 125.088644 
L 359.287498 116.930437 
L 359.622539 144.118455 
L 359.95758 97.066251 
L 360.29262 129.639541 
L 360.627661 116.61491 
L 360.962702 123.841153 
L 361.297743 136.364145 
L 361.632784 174.100117 
L 361.967824 141.057481 
L 362.302865 130.822012 
L 362.637906 146.456321 
L 362.972947 111.6225 
L 363.307988 145.965849 
L 363.643028 94.411198 
L 363.978069 87.386244 
L 364.31311 84.051371 
L 364.648151 133.442788 
L 364.983192 120.880758 
L 365.318232 141.351697 
L 365.653273 87.249346 
L 365.988314 127.175398 
L 366.323355 142.124342 
L 366.658396 142.983223 
L 366.993437 148.862054 
L 367.328477 135.174198 
L 367.663518 140.230254 
L 367.998559 97.992892 
L 368.3336 132.524183 
L 368.668641 150.295422 
L 369.003681 108.10918 
L 369.338722 112.299542 
L 369.673763 145.694299 
L 370.008804 88.013094 
L 370.343845 102.165626 
L 370.678885 128.028427 
L 371.013926 115.100165 
L 371.348967 138.607854 
L 371.684008 106.887353 
L 372.019049 111.965766 
L 372.68913 133.618702 
L 373.024171 127.798501 
L 373.359212 118.351008 
L 373.694253 116.852547 
L 374.029294 150.497184 
L 374.364334 129.29773 
L 374.699375 155.299716 
L 375.034416 95.180935 
L 375.369457 92.746263 
L 375.704498 104.57264 
L 376.039538 93.157415 
L 376.374579 114.271779 
L 376.70962 124.130025 
L 377.044661 119.809293 
L 377.379702 78.867061 
L 377.714742 109.650476 
L 378.049783 114.008496 
L 378.384824 137.496232 
L 378.719865 116.374273 
L 379.054906 119.784283 
L 379.389947 100.796626 
L 379.724987 143.555897 
L 380.060028 97.693836 
L 380.395069 112.397413 
L 380.73011 75.450514 
L 381.065151 164.101352 
L 381.400191 137.43905 
L 381.735232 168.00394 
L 382.070273 99.695699 
L 382.740355 154.455979 
L 383.075395 132.698866 
L 383.410436 124.695444 
L 383.745477 100.974631 
L 384.080518 136.631459 
L 384.415559 141.136812 
L 385.08564 125.667328 
L 385.420681 101.00893 
L 385.755722 132.625254 
L 386.090763 105.711484 
L 386.425804 97.629361 
L 386.760844 148.16965 
L 387.095885 152.594815 
L 387.430926 162.477718 
L 387.765967 153.69625 
L 388.101008 125.659287 
L 388.436048 136.436192 
L 388.771089 141.981953 
L 389.10613 154.469602 
L 389.441171 98.517842 
L 389.776212 131.260713 
L 390.111252 105.703785 
L 390.446293 98.379784 
L 390.781334 151.680538 
L 391.116375 141.511586 
L 391.451416 107.588972 
L 392.121497 104.415855 
L 392.456538 149.859842 
L 392.791579 129.899253 
L 393.12662 88.056883 
L 393.461661 76.726274 
L 394.131742 113.318171 
L 394.466783 154.173788 
L 394.801824 130.900845 
L 395.136865 118.335573 
L 395.471905 114.96128 
L 395.806946 149.934721 
L 396.812069 130.359964 
L 397.147109 117.327265 
L 397.48215 118.135818 
L 397.817191 99.042513 
L 398.152232 102.526322 
L 398.487273 145.520806 
L 398.487273 145.520806 
" clip-path="url(#p44d1f5d7f4)" style="fill: none; stroke: #ff0000; stroke-width: 1.5; stroke-linecap: square"/>
   </g>
   <g id="patch_3">
    <path d="M 57.6 307.584 
L 57.6 41.472 
" style="fill: none; stroke: #000000; stroke-width: 0.8; stroke-linejoin: miter; stroke-linecap: square"/>
   </g>
   <g id="patch_4">
    <path d="M 414.72 307.584 
L 414.72 41.472 
" style="fill: none; stroke: #000000; stroke-width: 0.8; stroke-linejoin: miter; stroke-linecap: square"/>
   </g>
   <g id="patch_5">
    <path d="M 57.6 307.584 
L 414.72 307.584 
" style="fill: none; stroke: #000000; stroke-width: 0.8; stroke-linejoin: miter; stroke-linecap: square"/>
   </g>
   <g id="patch_6">
    <path d="M 57.6 41.472 
L 414.72 41.472 
" style="fill: none; stroke: #000000; stroke-width: 0.8; stroke-linejoin: miter; stroke-linecap: square"/>
   </g>
   <g id="text_16">
    <!-- Population's average and best fitness -->
    <g transform="translate(123.529687 35.472)scale(0.12 -0.12)">
     <defs>
      <path id="DejaVuSans-50" d="M 1259 4147 
L 1259 2394 
L 2053 2394 
Q 2494 2394 2734 2622 
Q 2975 2850 2975 3272 
Q 2975 3691 2734 3919 
Q 2494 4147 2053 4147 
L 1259 4147 
z
M 628 4666 
L 2053 4666 
Q 2838 4666 3239 4311 
Q 3641 3956 3641 3272 
Q 3641 2581 3239 2228 
Q 2838 1875 2053 1875 
L 1259 1875 
L 1259 0 
L 628 0 
L 628 4666 
z
" transform="scale(0.015625)"/>
      <path id="DejaVuSans-70" d="M 1159 525 
L 1159 -1331 
L 581 -1331 
L 581 3500 
L 1159 3500 
L 1159 2969 
Q 1341 3281 1617 3432 
Q 1894 3584 2278 3584 
Q 2916 3584 3314 3078 
Q 3713 2572 3713 1747 
Q 3713 922 3314 415 
Q 2916 -91 2278 -91 
Q 1894 -91 1617 61 
Q 1341 213 1159 525 
z
M 3116 1747 
Q 3116 2381 2855 2742 
Q 2594 3103 2138 3103 
Q 1681 3103 1420 2742 
Q 1159 2381 1159 1747 
Q 1159 1113 1420 752 
Q 1681 391 2138 391 
Q 2594 391 2855 752 
Q 3116 1113 3116 1747 
z
" transform="scale(0.015625)"/>
      <path id="DejaVuSans-75" d="M 544 1381 
L 544 3500 
L 1119 3500 
L 1119 1403 
Q 1119 906 1312 657 
Q 1506 409 1894 409 
Q 2359 409 2629 706 
Q 2900 1003 2900 1516 
L 2900 3500 
L 3475 3500 
L 3475 0 
L 2900 0 
L 2900 538 
Q 2691 219 2414 64 
Q 2138 -91 1772 -91 
Q 1169 -91 856 284 
Q 544 659 544 1381 
z
M 1991 3584 
L 1991 3584 
z
" transform="scale(0.015625)"/>
      <path id="DejaVuSans-6c" d="M 603 4863 
L 1178 4863 
L 1178 0 
L 603 0 
L 603 4863 
z
" transform="scale(0.015625)"/>
      <path id="DejaVuSans-27" d="M 1147 4666 
L 1147 2931 
L 616 2931 
L 616 4666 
L 1147 4666 
z
" transform="scale(0.015625)"/>
      <path id="DejaVuSans-20" transform="scale(0.015625)"/>
      <path id="DejaVuSans-76" d="M 191 3500 
L 800 3500 
L 1894 563 
L 2988 3500 
L 3597 3500 
L 2284 0 
L 1503 0 
L 191 3500 
z
" transform="scale(0.015625)"/>
      <path id="DejaVuSans-67" d="M 2906 1791 
Q 2906 2416 2648 2759 
Q 2391 3103 1925 3103 
Q 1463 3103 1205 2759 
Q 947 2416 947 1791 
Q 947 1169 1205 825 
Q 1463 481 1925 481 
Q 2391 481 2648 825 
Q 2906 1169 2906 1791 
z
M 3481 434 
Q 3481 -459 3084 -895 
Q 2688 -1331 1869 -1331 
Q 1566 -1331 1297 -1286 
Q 1028 -1241 775 -1147 
L 775 -588 
Q 1028 -725 1275 -790 
Q 1522 -856 1778 -856 
Q 2344 -856 2625 -561 
Q 2906 -266 2906 331 
L 2906 616 
Q 2728 306 2450 153 
Q 2172 0 1784 0 
Q 1141 0 747 490 
Q 353 981 353 1791 
Q 353 2603 747 3093 
Q 1141 3584 1784 3584 
Q 2172 3584 2450 3431 
Q 2728 3278 2906 2969 
L 2906 3500 
L 3481 3500 
L 3481 434 
z
" transform="scale(0.015625)"/>
      <path id="DejaVuSans-64" d="M 2906 2969 
L 2906 4863 
L 3481 4863 
L 3481 0 
L 2906 0 
L 2906 525 
Q 2725 213 2448 61 
Q 2172 -91 1784 -91 
Q 1150 -91 751 415 
Q 353 922 353 1747 
Q 353 2572 751 3078 
Q 1150 3584 1784 3584 
Q 2172 3584 2448 3432 
Q 2725 3281 2906 2969 
z
M 947 1747 
Q 947 1113 1208 752 
Q 1469 391 1925 391 
Q 2381 391 2643 752 
Q 2906 1113 2906 1747 
Q 2906 2381 2643 2742 
Q 2381 3103 1925 3103 
Q 1469 3103 1208 2742 
Q 947 2381 947 1747 
z
" transform="scale(0.015625)"/>
      <path id="DejaVuSans-62" d="M 3116 1747 
Q 3116 2381 2855 2742 
Q 2594 3103 2138 3103 
Q 1681 3103 1420 2742 
Q 1159 2381 1159 1747 
Q 1159 1113 1420 752 
Q 1681 391 2138 391 
Q 2594 391 2855 752 
Q 3116 1113 3116 1747 
z
M 1159 2969 
Q 1341 3281 1617 3432 
Q 1894 3584 2278 3584 
Q 2916 3584 3314 3078 
Q 3713 2572 3713 1747 
Q 3713 922 3314 415 
Q 2916 -91 2278 -91 
Q 1894 -91 1617 61 
Q 1341 213 1159 525 
L 1159 0 
L 581 0 
L 581 4863 
L 1159 4863 
L 1159 2969 
z
" transform="scale(0.015625)"/>
      <path id="DejaVuSans-66" d="M 2375 4863 
L 2375 4384 
L 1825 4384 
Q 1516 4384 1395 4259 
Q 1275 4134 1275 3809 
L 1275 3500 
L 2222 3500 
L 2222 3053 
L 1275 3053 
L 1275 0 
L 697 0 
L 697 3053 
L 147 3053 
L 147 3500 
L 697 3500 
L 697 3744 
Q 697 4328 969 4595 
Q 1241 4863 1831 4863 
L 2375 4863 
z
" transform="scale(0.015625)"/>
     </defs>
     <use xlink:href="#DejaVuSans-50"/>
     <use xlink:href="#DejaVuSans-6f" x="56.677734"/>
     <use xlink:href="#DejaVuSans-70" x="117.859375"/>
     <use xlink:href="#DejaVuSans-75" x="181.335938"/>
     <use xlink:href="#DejaVuSans-6c" x="244.714844"/>
     <use xlink:href="#DejaVuSans-61" x="272.498047"/>
     <use xlink:href="#DejaVuSans-74" x="333.777344"/>
     <use xlink:href="#DejaVuSans-69" x="372.986328"/>
     <use xlink:href="#DejaVuSans-6f" x="400.769531"/>
     <use xlink:href="#DejaVuSans-6e" x="461.951172"/>
     <use xlink:href="#DejaVuSans-27" x="525.330078"/>
     <use xlink:href="#DejaVuSans-73" x="552.820312"/>
     <use xlink:href="#DejaVuSans-20" x="604.919922"/>
     <use xlink:href="#DejaVuSans-61" x="636.707031"/>
     <use xlink:href="#DejaVuSans-76" x="697.986328"/>
     <use xlink:href="#DejaVuSans-65" x="757.166016"/>
     <use xlink:href="#DejaVuSans-72" x="818.689453"/>
     <use xlink:href="#DejaVuSans-61" x="859.802734"/>
     <use xlink:href="#DejaVuSans-67" x="921.082031"/>
     <use xlink:href="#DejaVuSans-65" x="984.558594"/>
     <use xlink:href="#DejaVuSans-20" x="1046.082031"/>
     <use xlink:href="#DejaVuSans-61" x="1077.869141"/>
     <use xlink:href="#DejaVuSans-6e" x="1139.148438"/>
     <use xlink:href="#DejaVuSans-64" x="1202.527344"/>
     <use xlink:href="#DejaVuSans-20" x="1266.003906"/>
     <use xlink:href="#DejaVuSans-62" x="1297.791016"/>
     <use xlink:href="#DejaVuSans-65" x="1361.267578"/>
     <use xlink:href="#DejaVuSans-73" x="1422.791016"/>
     <use xlink:href="#DejaVuSans-74" x="1474.890625"/>
     <use xlink:href="#DejaVuSans-20" x="1514.099609"/>
     <use xlink:href="#DejaVuSans-66" x="1545.886719"/>
     <use xlink:href="#DejaVuSans-69" x="1581.091797"/>
     <use xlink:href="#DejaVuSans-74" x="1608.875"/>
     <use xlink:href="#DejaVuSans-6e" x="1648.083984"/>
     <use xlink:href="#DejaVuSans-65" x="1711.462891"/>
     <use xlink:href="#DejaVuSans-73" x="1772.986328"/>
     <use xlink:href="#DejaVuSans-73" x="1825.085938"/>
    </g>
   </g>
   <g id="legend_1">
    <g id="patch_7">
     <path d="M 64.6 93.506375 
L 137.540625 93.506375 
Q 139.540625 93.506375 139.540625 91.506375 
L 139.540625 48.472 
Q 139.540625 46.472 137.540625 46.472 
L 64.6 46.472 
Q 62.6 46.472 62.6 48.472 
L 62.6 91.506375 
Q 62.6 93.506375 64.6 93.506375 
z
" style="fill: #ffffff; opacity: 0.8; stroke: #cccccc; stroke-linejoin: miter"/>
    </g>
    <g id="line2d_30">
     <path d="M 66.6 54.570438 
L 76.6 54.570438 
L 86.6 54.570438 
" style="fill: none; stroke: #0000ff; stroke-width: 1.5; stroke-linecap: square"/>
    </g>
    <g id="text_17">
     <!-- average -->
     <g transform="translate(94.6 58.070438)scale(0.1 -0.1)">
      <use xlink:href="#DejaVuSans-61"/>
      <use xlink:href="#DejaVuSans-76" x="61.279297"/>
      <use xlink:href="#DejaVuSans-65" x="120.458984"/>
      <use xlink:href="#DejaVuSans-72" x="181.982422"/>
      <use xlink:href="#DejaVuSans-61" x="223.095703"/>
      <use xlink:href="#DejaVuSans-67" x="284.375"/>
      <use xlink:href="#DejaVuSans-65" x="347.851562"/>
     </g>
    </g>
    <g id="line2d_31">
     <path d="M 66.6 69.248563 
L 76.6 69.248563 
L 86.6 69.248563 
" style="fill: none; stroke-dasharray: 9.6,2.4,1.5,2.4; stroke-dashoffset: 0; stroke: #008000; stroke-width: 1.5"/>
    </g>
    <g id="text_18">
     <!-- +1 sd -->
     <g transform="translate(94.6 72.748563)scale(0.1 -0.1)">
      <defs>
       <path id="DejaVuSans-2b" d="M 2944 4013 
L 2944 2272 
L 4684 2272 
L 4684 1741 
L 2944 1741 
L 2944 0 
L 2419 0 
L 2419 1741 
L 678 1741 
L 678 2272 
L 2419 2272 
L 2419 4013 
L 2944 4013 
z
" transform="scale(0.015625)"/>
      </defs>
      <use xlink:href="#DejaVuSans-2b"/>
      <use xlink:href="#DejaVuSans-31" x="83.789062"/>
      <use xlink:href="#DejaVuSans-20" x="147.412109"/>
      <use xlink:href="#DejaVuSans-73" x="179.199219"/>
      <use xlink:href="#DejaVuSans-64" x="231.298828"/>
     </g>
    </g>
    <g id="line2d_32">
     <path d="M 66.6 83.926688 
L 76.6 83.926688 
L 86.6 83.926688 
" style="fill: none; stroke: #ff0000; stroke-width: 1.5; stroke-linecap: square"/>
    </g>
    <g id="text_19">
     <!-- best -->
     <g transform="translate(94.6 87.426688)scale(0.1 -0.1)">
      <use xlink:href="#DejaVuSans-62"/>
      <use xlink:href="#DejaVuSans-65" x="63.476562"/>
      <use xlink:href="#DejaVuSans-73" x="125"/>
      <use xlink:href="#DejaVuSans-74" x="177.099609"/>
     </g>
    </g>
   </g>
  </g>
 </g>
 <defs>
  <clipPath id="p44d1f5d7f4">
   <rect x="57.6" y="41.472" width="357.12" height="266.112"/>
  </clipPath>
 </defs>
</svg>
