<?xml version="1.0" encoding="UTF-8" standalone="no"?>
<!DOCTYPE svg PUBLIC "-//W3C//DTD SVG 1.1//EN"
 "http://www.w3.org/Graphics/SVG/1.1/DTD/svg11.dtd">
<!-- Generated by graphviz version 2.40.1 (20161225.0304)
 -->
<!-- Title: %3 Pages: 1 -->
<svg width="2072pt" height="126pt"
 viewBox="0.00 0.00 2072.00 126.02" xmlns="http://www.w3.org/2000/svg" xmlns:xlink="http://www.w3.org/1999/xlink">
<g id="graph0" class="graph" transform="scale(1 1) rotate(0) translate(4 122.0244)">
<title>%3</title>
<polygon fill="#ffffff" stroke="transparent" points="-4,4 -4,-122.0244 2068,-122.0244 2068,4 -4,4"/>
<!-- &#45;1 -->
<g id="node1" class="node">
<title>&#45;1</title>
<polygon fill="#d3d3d3" stroke="#000000" points="26,-102.2756 0,-102.2756 0,-84.2756 26,-84.2756 26,-102.2756"/>
<text text-anchor="middle" x="13" y="-91.0756" font-family="Times,serif" font-size="9.00" fill="#000000">&#45;1</text>
</g>
<!-- &#45;2 -->
<g id="node2" class="node">
<title>&#45;2</title>
<polygon fill="#d3d3d3" stroke="#000000" points="70,-102.2756 44,-102.2756 44,-84.2756 70,-84.2756 70,-102.2756"/>
<text text-anchor="middle" x="57" y="-91.0756" font-family="Times,serif" font-size="9.00" fill="#000000">&#45;2</text>
</g>
<!-- 1 -->
<g id="node42" class="node">
<title>1</title>
<ellipse fill="#add8e6" stroke="#000000" cx="537" cy="-16.2635" rx="16.0303" ry="16.0303"/>
<text text-anchor="middle" x="537" y="-14.0635" font-family="Times,serif" font-size="9.00" fill="#000000">1</text>
</g>
<!-- &#45;2&#45;&gt;1 -->
<g id="edge15" class="edge">
<title>&#45;2&#45;&gt;1</title>
<path fill="none" stroke="#00ff00" stroke-width=".41" d="M62.7441,-83.9423C66.6264,-78.4942 72.2651,-72.0235 79,-68.5269 155.0404,-29.0482 424.2724,-19.0479 510.3372,-16.8324"/>
<polygon fill="#00ff00" stroke="#00ff00" stroke-width=".41" points="510.6551,-20.3258 520.5672,-16.5841 510.4851,-13.3278 510.6551,-20.3258"/>
</g>
<!-- &#45;3 -->
<g id="node3" class="node">
<title>&#45;3</title>
<polygon fill="#d3d3d3" stroke="#000000" points="1582,-102.2756 1556,-102.2756 1556,-84.2756 1582,-84.2756 1582,-102.2756"/>
<text text-anchor="middle" x="1569" y="-91.0756" font-family="Times,serif" font-size="9.00" fill="#000000">&#45;3</text>
</g>
<!-- &#45;4 -->
<g id="node4" class="node">
<title>&#45;4</title>
<polygon fill="#d3d3d3" stroke="#000000" points="114,-102.2756 88,-102.2756 88,-84.2756 114,-84.2756 114,-102.2756"/>
<text text-anchor="middle" x="101" y="-91.0756" font-family="Times,serif" font-size="9.00" fill="#000000">&#45;4</text>
</g>
<!-- &#45;4&#45;&gt;1 -->
<g id="edge35" class="edge">
<title>&#45;4&#45;&gt;1</title>
<path fill="none" stroke="#ff0000" stroke-width=".3088" stroke-dasharray="1,5" d="M106.7589,-83.9706C110.6468,-78.5331 116.2861,-72.0637 123,-68.5269 190.7971,-32.8118 429.2566,-20.4345 510.0218,-17.213"/>
<polygon fill="#ff0000" stroke="#ff0000" stroke-width=".3088" points="510.4787,-20.6982 520.3374,-16.8177 510.2107,-13.7033 510.4787,-20.6982"/>
</g>
<!-- &#45;5 -->
<g id="node5" class="node">
<title>&#45;5</title>
<polygon fill="#d3d3d3" stroke="#000000" points="1070,-102.2756 1044,-102.2756 1044,-84.2756 1070,-84.2756 1070,-102.2756"/>
<text text-anchor="middle" x="1057" y="-91.0756" font-family="Times,serif" font-size="9.00" fill="#000000">&#45;5</text>
</g>
<!-- 0 -->
<g id="node41" class="node">
<title>0</title>
<ellipse fill="#add8e6" stroke="#000000" cx="1033" cy="-16.2635" rx="16.0303" ry="16.0303"/>
<text text-anchor="middle" x="1033" y="-14.0635" font-family="Times,serif" font-size="9.00" fill="#000000">0</text>
</g>
<!-- &#45;5&#45;&gt;0 -->
<g id="edge4" class="edge">
<title>&#45;5&#45;&gt;0</title>
<path fill="none" stroke="#00ff00" stroke-width=".3786" d="M1054.1526,-84.1389C1050.9354,-73.8152 1045.557,-56.557 1041.0289,-42.027"/>
<polygon fill="#00ff00" stroke="#00ff00" stroke-width=".3786" points="1044.2419,-40.5731 1037.9251,-32.0673 1037.5589,-42.6558 1044.2419,-40.5731"/>
</g>
<!-- &#45;6 -->
<g id="node6" class="node">
<title>&#45;6</title>
<polygon fill="#d3d3d3" stroke="#000000" points="1626,-102.2756 1600,-102.2756 1600,-84.2756 1626,-84.2756 1626,-102.2756"/>
<text text-anchor="middle" x="1613" y="-91.0756" font-family="Times,serif" font-size="9.00" fill="#000000">&#45;6</text>
</g>
<!-- &#45;7 -->
<g id="node7" class="node">
<title>&#45;7</title>
<polygon fill="#d3d3d3" stroke="#000000" points="1670,-102.2756 1644,-102.2756 1644,-84.2756 1670,-84.2756 1670,-102.2756"/>
<text text-anchor="middle" x="1657" y="-91.0756" font-family="Times,serif" font-size="9.00" fill="#000000">&#45;7</text>
</g>
<!-- &#45;8 -->
<g id="node8" class="node">
<title>&#45;8</title>
<polygon fill="#d3d3d3" stroke="#000000" points="1714,-102.2756 1688,-102.2756 1688,-84.2756 1714,-84.2756 1714,-102.2756"/>
<text text-anchor="middle" x="1701" y="-91.0756" font-family="Times,serif" font-size="9.00" fill="#000000">&#45;8</text>
</g>
<!-- &#45;9 -->
<g id="node9" class="node">
<title>&#45;9</title>
<polygon fill="#d3d3d3" stroke="#000000" points="776,-102.2756 750,-102.2756 750,-84.2756 776,-84.2756 776,-102.2756"/>
<text text-anchor="middle" x="763" y="-91.0756" font-family="Times,serif" font-size="9.00" fill="#000000">&#45;9</text>
</g>
<!-- &#45;9&#45;&gt;0 -->
<g id="edge6" class="edge">
<title>&#45;9&#45;&gt;0</title>
<path fill="none" stroke="#00ff00" stroke-width=".1015" d="M768.8651,-84.1625C772.7929,-78.7972 778.437,-72.3364 785,-68.5269 822.7281,-46.6279 950.7894,-27.2989 1006.6179,-19.6961"/>
<polygon fill="#00ff00" stroke="#00ff00" stroke-width=".1015" points="1007.3262,-23.1325 1016.7723,-18.3346 1006.3959,-16.1946 1007.3262,-23.1325"/>
</g>
<!-- &#45;9&#45;&gt;1 -->
<g id="edge18" class="edge">
<title>&#45;9&#45;&gt;1</title>
<path fill="none" stroke="#00ff00" stroke-width=".3316" d="M757.076,-84.2614C753.1261,-78.9334 747.4794,-72.4769 741,-68.5269 683.9523,-33.7494 604.3973,-21.9913 563.5388,-18.1097"/>
<polygon fill="#00ff00" stroke="#00ff00" stroke-width=".3316" points="563.5873,-14.601 553.3236,-17.229 562.986,-21.5751 563.5873,-14.601"/>
</g>
<!-- &#45;10 -->
<g id="node10" class="node">
<title>&#45;10</title>
<polygon fill="#d3d3d3" stroke="#000000" points="1120,-102.2756 1088,-102.2756 1088,-84.2756 1120,-84.2756 1120,-102.2756"/>
<text text-anchor="middle" x="1104" y="-91.0756" font-family="Times,serif" font-size="9.00" fill="#000000">&#45;10</text>
</g>
<!-- &#45;10&#45;&gt;0 -->
<g id="edge14" class="edge">
<title>&#45;10&#45;&gt;0</title>
<path fill="none" stroke="#ff0000" stroke-width=".3853" d="M1095.5766,-84.1389C1084.691,-72.3316 1065.443,-51.4537 1051.1596,-35.9608"/>
<polygon fill="#ff0000" stroke="#ff0000" stroke-width=".3853" points="1053.565,-33.4063 1044.2134,-28.4264 1048.4184,-38.1511 1053.565,-33.4063"/>
</g>
<!-- &#45;11 -->
<g id="node11" class="node">
<title>&#45;11</title>
<polygon fill="#d3d3d3" stroke="#000000" points="1764,-102.2756 1732,-102.2756 1732,-84.2756 1764,-84.2756 1764,-102.2756"/>
<text text-anchor="middle" x="1748" y="-91.0756" font-family="Times,serif" font-size="9.00" fill="#000000">&#45;11</text>
</g>
<!-- &#45;12 -->
<g id="node12" class="node">
<title>&#45;12</title>
<polygon fill="#d3d3d3" stroke="#000000" points="826,-102.2756 794,-102.2756 794,-84.2756 826,-84.2756 826,-102.2756"/>
<text text-anchor="middle" x="810" y="-91.0756" font-family="Times,serif" font-size="9.00" fill="#000000">&#45;12</text>
</g>
<!-- &#45;12&#45;&gt;0 -->
<g id="edge37" class="edge">
<title>&#45;12&#45;&gt;0</title>
<path fill="none" stroke="#ff0000" stroke-width=".1457" d="M817.4097,-83.8105C821.9629,-78.593 828.2129,-72.4058 835,-68.5269 891.0055,-36.5191 967.0848,-23.629 1006.6496,-18.8356"/>
<polygon fill="#ff0000" stroke="#ff0000" stroke-width=".1457" points="1007.2499,-22.2902 1016.7935,-17.6892 1006.4637,-15.3344 1007.2499,-22.2902"/>
</g>
<!-- &#45;12&#45;&gt;1 -->
<g id="edge12" class="edge">
<title>&#45;12&#45;&gt;1</title>
<path fill="none" stroke="#00ff00" stroke-width=".1927" stroke-dasharray="1,5" d="M803.0815,-84.1717C798.5227,-78.81 792.0977,-72.3495 785,-68.5269 746.5928,-47.842 618.9044,-27.8464 563.2785,-19.8812"/>
<polygon fill="#00ff00" stroke="#00ff00" stroke-width=".1927" points="563.5533,-16.3854 553.162,-18.452 562.574,-23.3166 563.5533,-16.3854"/>
</g>
<!-- &#45;13 -->
<g id="node13" class="node">
<title>&#45;13</title>
<polygon fill="#d3d3d3" stroke="#000000" points="1814,-102.2756 1782,-102.2756 1782,-84.2756 1814,-84.2756 1814,-102.2756"/>
<text text-anchor="middle" x="1798" y="-91.0756" font-family="Times,serif" font-size="9.00" fill="#000000">&#45;13</text>
</g>
<!-- &#45;14 -->
<g id="node14" class="node">
<title>&#45;14</title>
<polygon fill="#d3d3d3" stroke="#000000" points="1864,-102.2756 1832,-102.2756 1832,-84.2756 1864,-84.2756 1864,-102.2756"/>
<text text-anchor="middle" x="1848" y="-91.0756" font-family="Times,serif" font-size="9.00" fill="#000000">&#45;14</text>
</g>
<!-- &#45;15 -->
<g id="node15" class="node">
<title>&#45;15</title>
<polygon fill="#d3d3d3" stroke="#000000" points="164,-102.2756 132,-102.2756 132,-84.2756 164,-84.2756 164,-102.2756"/>
<text text-anchor="middle" x="148" y="-91.0756" font-family="Times,serif" font-size="9.00" fill="#000000">&#45;15</text>
</g>
<!-- &#45;15&#45;&gt;1 -->
<g id="edge5" class="edge">
<title>&#45;15&#45;&gt;1</title>
<path fill="none" stroke="#00ff00" stroke-width=".281" stroke-dasharray="1,5" d="M154.8336,-84.0077C159.3605,-78.5843 165.7816,-72.1165 173,-68.5269 232.6745,-38.8514 437.1209,-22.8179 510.5088,-17.9129"/>
<polygon fill="#00ff00" stroke="#00ff00" stroke-width=".281" points="510.9867,-21.3892 520.7374,-17.2451 510.5306,-14.4041 510.9867,-21.3892"/>
</g>
<!-- &#45;16 -->
<g id="node16" class="node">
<title>&#45;16</title>
<polygon fill="#d3d3d3" stroke="#000000" points="214,-102.2756 182,-102.2756 182,-84.2756 214,-84.2756 214,-102.2756"/>
<text text-anchor="middle" x="198" y="-91.0756" font-family="Times,serif" font-size="9.00" fill="#000000">&#45;16</text>
</g>
<!-- &#45;16&#45;&gt;1 -->
<g id="edge22" class="edge">
<title>&#45;16&#45;&gt;1</title>
<path fill="none" stroke="#00ff00" stroke-width=".5" d="M204.8621,-84.0643C209.3997,-78.6621 215.8221,-72.1969 223,-68.5269 273.4558,-42.7293 444.5866,-24.7238 510.6645,-18.5819"/>
<polygon fill="#00ff00" stroke="#00ff00" stroke-width=".5" points="511.0442,-22.0619 520.6845,-17.6672 510.4077,-15.0909 511.0442,-22.0619"/>
</g>
<!-- &#45;17 -->
<g id="node17" class="node">
<title>&#45;17</title>
<polygon fill="#d3d3d3" stroke="#000000" points="1914,-102.2756 1882,-102.2756 1882,-84.2756 1914,-84.2756 1914,-102.2756"/>
<text text-anchor="middle" x="1898" y="-91.0756" font-family="Times,serif" font-size="9.00" fill="#000000">&#45;17</text>
</g>
<!-- &#45;18 -->
<g id="node18" class="node">
<title>&#45;18</title>
<polygon fill="#d3d3d3" stroke="#000000" points="876,-102.2756 844,-102.2756 844,-84.2756 876,-84.2756 876,-102.2756"/>
<text text-anchor="middle" x="860" y="-91.0756" font-family="Times,serif" font-size="9.00" fill="#000000">&#45;18</text>
</g>
<!-- &#45;18&#45;&gt;0 -->
<g id="edge13" class="edge">
<title>&#45;18&#45;&gt;0</title>
<path fill="none" stroke="#ff0000" stroke-width=".4986" d="M867.5322,-84.0152C872.1263,-78.8659 878.3763,-72.6788 885,-68.5269 924.0351,-44.0591 976.0615,-29.1145 1006.8947,-21.7861"/>
<polygon fill="#ff0000" stroke="#ff0000" stroke-width=".4986" points="1007.892,-25.1485 1016.8609,-19.5085 1006.3324,-18.3245 1007.892,-25.1485"/>
</g>
<!-- &#45;18&#45;&gt;1 -->
<g id="edge36" class="edge">
<title>&#45;18&#45;&gt;1</title>
<path fill="none" stroke="#ff0000" stroke-width=".3752" d="M853.1267,-84.0862C848.5848,-78.6923 842.1618,-72.228 835,-68.5269 787.4702,-43.9645 626.8809,-25.3986 563.2663,-18.8395"/>
<polygon fill="#ff0000" stroke="#ff0000" stroke-width=".3752" points="563.5422,-15.3496 553.2401,-17.8228 562.836,-22.3139 563.5422,-15.3496"/>
</g>
<!-- &#45;19 -->
<g id="node19" class="node">
<title>&#45;19</title>
<polygon fill="#d3d3d3" stroke="#000000" points="264,-102.2756 232,-102.2756 232,-84.2756 264,-84.2756 264,-102.2756"/>
<text text-anchor="middle" x="248" y="-91.0756" font-family="Times,serif" font-size="9.00" fill="#000000">&#45;19</text>
</g>
<!-- &#45;19&#45;&gt;1 -->
<g id="edge19" class="edge">
<title>&#45;19&#45;&gt;1</title>
<path fill="none" stroke="#00ff00" stroke-width=".4074" d="M254.9021,-84.141C259.4548,-78.7678 265.879,-72.3059 273,-68.5269 314.2814,-46.6195 452.2564,-27.0361 510.5958,-19.5223"/>
<polygon fill="#00ff00" stroke="#00ff00" stroke-width=".4074" points="511.0417,-22.9939 520.5211,-18.262 510.1598,-16.0497 511.0417,-22.9939"/>
</g>
<!-- &#45;20 -->
<g id="node20" class="node">
<title>&#45;20</title>
<polygon fill="#d3d3d3" stroke="#000000" points="314,-102.2756 282,-102.2756 282,-84.2756 314,-84.2756 314,-102.2756"/>
<text text-anchor="middle" x="298" y="-91.0756" font-family="Times,serif" font-size="9.00" fill="#000000">&#45;20</text>
</g>
<!-- &#45;20&#45;&gt;1 -->
<g id="edge31" class="edge">
<title>&#45;20&#45;&gt;1</title>
<path fill="none" stroke="#00ff00" stroke-width=".5" stroke-dasharray="1,5" d="M304.9619,-84.2509C309.5371,-78.919 315.964,-72.462 323,-68.5269 384.5656,-34.0945 468.5043,-22.1483 510.6184,-18.1601"/>
<polygon fill="#00ff00" stroke="#00ff00" stroke-width=".5" points="510.9641,-21.6434 520.6232,-17.29 510.3575,-14.6697 510.9641,-21.6434"/>
</g>
<!-- &#45;21 -->
<g id="node21" class="node">
<title>&#45;21</title>
<polygon fill="#d3d3d3" stroke="#000000" points="364,-102.2756 332,-102.2756 332,-84.2756 364,-84.2756 364,-102.2756"/>
<text text-anchor="middle" x="348" y="-91.0756" font-family="Times,serif" font-size="9.00" fill="#000000">&#45;21</text>
</g>
<!-- &#45;21&#45;&gt;1 -->
<g id="edge3" class="edge">
<title>&#45;21&#45;&gt;1</title>
<path fill="none" stroke="#ff0000" stroke-width=".3131" d="M355.4846,-83.9379C360.0628,-78.7629 366.3128,-72.5757 373,-68.5269 417.2874,-41.7126 476.7433,-27.2551 510.5532,-20.7103"/>
<polygon fill="#ff0000" stroke="#ff0000" stroke-width=".3131" points="511.3801,-24.1169 520.5776,-18.8578 510.108,-17.2334 511.3801,-24.1169"/>
</g>
<!-- &#45;22 -->
<g id="node22" class="node">
<title>&#45;22</title>
<polygon fill="#d3d3d3" stroke="#000000" points="926,-102.2756 894,-102.2756 894,-84.2756 926,-84.2756 926,-102.2756"/>
<text text-anchor="middle" x="910" y="-91.0756" font-family="Times,serif" font-size="9.00" fill="#000000">&#45;22</text>
</g>
<!-- &#45;22&#45;&gt;0 -->
<g id="edge28" class="edge">
<title>&#45;22&#45;&gt;0</title>
<path fill="none" stroke="#ff0000" stroke-width=".2708" d="M918.2233,-83.9051C922.8478,-78.9669 928.9038,-73.0199 935,-68.5269 958.3435,-51.3224 988.0812,-36.2951 1008.6442,-26.8245"/>
<polygon fill="#ff0000" stroke="#ff0000" stroke-width=".2708" points="1010.2558,-29.9372 1017.9336,-22.6364 1007.3787,-23.5558 1010.2558,-29.9372"/>
</g>
<!-- &#45;22&#45;&gt;1 -->
<g id="edge21" class="edge">
<title>&#45;22&#45;&gt;1</title>
<path fill="none" stroke="#00ff00" stroke-width=".249" d="M903.1583,-84.0241C898.6283,-78.6069 892.2067,-72.1398 885,-68.5269 828.3627,-40.1332 635.0771,-23.4424 563.7363,-18.1288"/>
<polygon fill="#00ff00" stroke="#00ff00" stroke-width=".249" points="563.6011,-14.6098 553.3732,-17.3737 563.0923,-21.5913 563.6011,-14.6098"/>
</g>
<!-- &#45;23 -->
<g id="node23" class="node">
<title>&#45;23</title>
<polygon fill="#d3d3d3" stroke="#000000" points="1170,-102.2756 1138,-102.2756 1138,-84.2756 1170,-84.2756 1170,-102.2756"/>
<text text-anchor="middle" x="1154" y="-91.0756" font-family="Times,serif" font-size="9.00" fill="#000000">&#45;23</text>
</g>
<!-- &#45;23&#45;&gt;0 -->
<g id="edge7" class="edge">
<title>&#45;23&#45;&gt;0</title>
<path fill="none" stroke="#00ff00" stroke-width=".369" d="M1145.7612,-83.926C1141.1322,-78.9939 1135.0768,-73.0461 1129,-68.5269 1106.2305,-51.5937 1077.3073,-36.6108 1057.1878,-27.0771"/>
<polygon fill="#00ff00" stroke="#00ff00" stroke-width=".369" points="1058.6276,-23.8868 1048.0836,-22.85 1055.6797,-30.2359 1058.6276,-23.8868"/>
</g>
<!-- &#45;24 -->
<g id="node24" class="node">
<title>&#45;24</title>
<polygon fill="#d3d3d3" stroke="#000000" points="976,-102.2756 944,-102.2756 944,-84.2756 976,-84.2756 976,-102.2756"/>
<text text-anchor="middle" x="960" y="-91.0756" font-family="Times,serif" font-size="9.00" fill="#000000">&#45;24</text>
</g>
<!-- &#45;24&#45;&gt;0 -->
<g id="edge27" class="edge">
<title>&#45;24&#45;&gt;0</title>
<path fill="none" stroke="#00ff00" stroke-width=".4354" d="M968.6607,-84.1389C979.9172,-72.2638 999.8708,-51.2135 1014.5815,-35.6942"/>
<polygon fill="#00ff00" stroke="#00ff00" stroke-width=".4354" points="1017.3832,-37.8262 1021.7226,-28.1607 1012.3029,-33.0105 1017.3832,-37.8262"/>
</g>
<!-- &#45;24&#45;&gt;1 -->
<g id="edge25" class="edge">
<title>&#45;24&#45;&gt;1</title>
<path fill="none" stroke="#ff0000" stroke-width=".5" d="M953.1816,-83.9771C948.6603,-78.5421 942.2398,-72.073 935,-68.5269 869.0841,-36.241 642.1856,-21.7021 563.849,-17.5636"/>
<polygon fill="#ff0000" stroke="#ff0000" stroke-width=".5" points="563.5723,-14.0448 553.406,-17.0276 563.2134,-21.0356 563.5723,-14.0448"/>
</g>
<!-- &#45;25 -->
<g id="node25" class="node">
<title>&#45;25</title>
<polygon fill="#d3d3d3" stroke="#000000" points="1026,-102.2756 994,-102.2756 994,-84.2756 1026,-84.2756 1026,-102.2756"/>
<text text-anchor="middle" x="1010" y="-91.0756" font-family="Times,serif" font-size="9.00" fill="#000000">&#45;25</text>
</g>
<!-- &#45;25&#45;&gt;0 -->
<g id="edge34" class="edge">
<title>&#45;25&#45;&gt;0</title>
<path fill="none" stroke="#ff0000" stroke-width=".2278" stroke-dasharray="1,5" d="M1012.7287,-84.1389C1015.812,-73.8152 1020.9662,-56.557 1025.3056,-42.027"/>
<polygon fill="#ff0000" stroke="#ff0000" stroke-width=".2278" points="1028.772,-42.6507 1028.2801,-32.0673 1022.0648,-40.6475 1028.772,-42.6507"/>
</g>
<!-- &#45;25&#45;&gt;1 -->
<g id="edge20" class="edge">
<title>&#45;25&#45;&gt;1</title>
<path fill="none" stroke="#00ff00" stroke-width=".4515" d="M1003.1994,-83.9403C998.6849,-78.4914 992.2652,-72.0207 985,-68.5269 909.6191,-32.2772 648.0574,-20.1323 563.5524,-17.1054"/>
<polygon fill="#00ff00" stroke="#00ff00" stroke-width=".4515" points="563.6059,-13.6052 553.4913,-16.7586 563.3648,-20.6011 563.6059,-13.6052"/>
</g>
<!-- &#45;26 -->
<g id="node26" class="node">
<title>&#45;26</title>
<polygon fill="#d3d3d3" stroke="#000000" points="1220,-102.2756 1188,-102.2756 1188,-84.2756 1220,-84.2756 1220,-102.2756"/>
<text text-anchor="middle" x="1204" y="-91.0756" font-family="Times,serif" font-size="9.00" fill="#000000">&#45;26</text>
</g>
<!-- &#45;26&#45;&gt;0 -->
<g id="edge33" class="edge">
<title>&#45;26&#45;&gt;0</title>
<path fill="none" stroke="#00ff00" stroke-width=".2599" d="M1196.4611,-84.0258C1191.8648,-78.8802 1185.6148,-72.693 1179,-68.5269 1140.6893,-44.3984 1089.7072,-29.4169 1059.2347,-21.9772"/>
<polygon fill="#00ff00" stroke="#00ff00" stroke-width=".2599" points="1059.9015,-18.5386 1049.3659,-19.6576 1058.2998,-25.3529 1059.9015,-18.5386"/>
</g>
<!-- &#45;27 -->
<g id="node27" class="node">
<title>&#45;27</title>
<polygon fill="#d3d3d3" stroke="#000000" points="582,-102.2756 550,-102.2756 550,-84.2756 582,-84.2756 582,-102.2756"/>
<text text-anchor="middle" x="566" y="-91.0756" font-family="Times,serif" font-size="9.00" fill="#000000">&#45;27</text>
</g>
<!-- &#45;27&#45;&gt;0 -->
<g id="edge2" class="edge">
<title>&#45;27&#45;&gt;0</title>
<path fill="none" stroke="#00ff00" stroke-width=".5" d="M572.8025,-83.9442C577.3177,-78.4969 583.7375,-72.0264 591,-68.5269 665.2812,-32.7346 922.8993,-20.2969 1006.5465,-17.1496"/>
<polygon fill="#00ff00" stroke="#00ff00" stroke-width=".5" points="1006.8622,-20.6405 1016.7288,-16.7805 1006.6086,-13.6451 1006.8622,-20.6405"/>
</g>
<!-- &#45;27&#45;&gt;1 -->
<g id="edge26" class="edge">
<title>&#45;27&#45;&gt;1</title>
<path fill="none" stroke="#ff0000" stroke-width=".2975" d="M562.5594,-84.1389C558.5854,-73.5854 551.8826,-55.7855 546.3379,-41.0612"/>
<polygon fill="#ff0000" stroke="#ff0000" stroke-width=".2975" points="549.5318,-39.6108 542.7322,-31.4858 542.9808,-42.0777 549.5318,-39.6108"/>
</g>
<!-- &#45;28 -->
<g id="node28" class="node">
<title>&#45;28</title>
<polygon fill="#d3d3d3" stroke="#000000" points="1270,-102.2756 1238,-102.2756 1238,-84.2756 1270,-84.2756 1270,-102.2756"/>
<text text-anchor="middle" x="1254" y="-91.0756" font-family="Times,serif" font-size="9.00" fill="#000000">&#45;28</text>
</g>
<!-- &#45;28&#45;&gt;0 -->
<g id="edge1" class="edge">
<title>&#45;28&#45;&gt;0</title>
<path fill="none" stroke="#00ff00" stroke-width=".3442" d="M1246.5867,-83.8169C1242.0322,-78.6016 1235.7822,-72.4144 1229,-68.5269 1173.7028,-36.8315 1098.6304,-23.8299 1059.3817,-18.9317"/>
<polygon fill="#00ff00" stroke="#00ff00" stroke-width=".3442" points="1059.646,-15.4389 1049.3077,-17.7563 1058.8346,-22.3917 1059.646,-15.4389"/>
</g>
<!-- &#45;29 -->
<g id="node29" class="node">
<title>&#45;29</title>
<polygon fill="#d3d3d3" stroke="#000000" points="1964,-102.2756 1932,-102.2756 1932,-84.2756 1964,-84.2756 1964,-102.2756"/>
<text text-anchor="middle" x="1948" y="-91.0756" font-family="Times,serif" font-size="9.00" fill="#000000">&#45;29</text>
</g>
<!-- &#45;30 -->
<g id="node30" class="node">
<title>&#45;30</title>
<polygon fill="#d3d3d3" stroke="#000000" points="1320,-102.2756 1288,-102.2756 1288,-84.2756 1320,-84.2756 1320,-102.2756"/>
<text text-anchor="middle" x="1304" y="-91.0756" font-family="Times,serif" font-size="9.00" fill="#000000">&#45;30</text>
</g>
<!-- &#45;30&#45;&gt;0 -->
<g id="edge10" class="edge">
<title>&#45;30&#45;&gt;0</title>
<path fill="none" stroke="#ff0000" stroke-width=".1427" d="M1297.0793,-84.1758C1292.5196,-78.8156 1286.0946,-72.3553 1279,-68.5269 1240.9962,-48.0191 1114.8439,-27.9992 1059.4597,-19.9578"/>
<polygon fill="#ff0000" stroke="#ff0000" stroke-width=".1427" points="1059.7689,-16.4664 1049.3735,-18.5126 1058.776,-23.3957 1059.7689,-16.4664"/>
</g>
<!-- &#45;31 -->
<g id="node31" class="node">
<title>&#45;31</title>
<polygon fill="#d3d3d3" stroke="#000000" points="1370,-102.2756 1338,-102.2756 1338,-84.2756 1370,-84.2756 1370,-102.2756"/>
<text text-anchor="middle" x="1354" y="-91.0756" font-family="Times,serif" font-size="9.00" fill="#000000">&#45;31</text>
</g>
<!-- &#45;31&#45;&gt;0 -->
<g id="edge32" class="edge">
<title>&#45;31&#45;&gt;0</title>
<path fill="none" stroke="#ff0000" stroke-width=".3552" stroke-dasharray="1,5" d="M1347.1252,-84.0891C1342.5827,-78.6963 1336.1597,-72.2321 1329,-68.5269 1281.9032,-44.1539 1123.0191,-25.5394 1059.532,-18.9022"/>
<polygon fill="#ff0000" stroke="#ff0000" stroke-width=".3552" points="1059.8171,-15.4131 1049.5115,-17.8717 1059.101,-22.3764 1059.8171,-15.4131"/>
</g>
<!-- &#45;32 -->
<g id="node32" class="node">
<title>&#45;32</title>
<polygon fill="#d3d3d3" stroke="#000000" points="414,-102.2756 382,-102.2756 382,-84.2756 414,-84.2756 414,-102.2756"/>
<text text-anchor="middle" x="398" y="-91.0756" font-family="Times,serif" font-size="9.00" fill="#000000">&#45;32</text>
</g>
<!-- &#45;32&#45;&gt;1 -->
<g id="edge8" class="edge">
<title>&#45;32&#45;&gt;1</title>
<path fill="none" stroke="#00ff00" stroke-width=".4566" stroke-dasharray="1,5" d="M405.678,-84.2364C410.3207,-79.161 416.5707,-72.9738 423,-68.5269 451.2029,-49.0202 487.8535,-33.7335 511.882,-24.8577"/>
<polygon fill="#00ff00" stroke="#00ff00" stroke-width=".4566" points="513.1212,-28.1316 521.3458,-21.4527 510.7513,-21.545 513.1212,-28.1316"/>
</g>
<!-- &#45;33 -->
<g id="node33" class="node">
<title>&#45;33</title>
<polygon fill="#d3d3d3" stroke="#000000" points="2014,-102.2756 1982,-102.2756 1982,-84.2756 2014,-84.2756 2014,-102.2756"/>
<text text-anchor="middle" x="1998" y="-91.0756" font-family="Times,serif" font-size="9.00" fill="#000000">&#45;33</text>
</g>
<!-- &#45;34 -->
<g id="node34" class="node">
<title>&#45;34</title>
<polygon fill="#d3d3d3" stroke="#000000" points="632,-102.2756 600,-102.2756 600,-84.2756 632,-84.2756 632,-102.2756"/>
<text text-anchor="middle" x="616" y="-91.0756" font-family="Times,serif" font-size="9.00" fill="#000000">&#45;34</text>
</g>
<!-- &#45;34&#45;&gt;0 -->
<g id="edge17" class="edge">
<title>&#45;34&#45;&gt;0</title>
<path fill="none" stroke="#ff0000" stroke-width=".1318" d="M622.8209,-83.9821C627.3431,-78.5491 633.7637,-72.0802 641,-68.5269 705.7609,-36.7274 928.3845,-21.916 1006.0284,-17.6316"/>
<polygon fill="#ff0000" stroke="#ff0000" stroke-width=".1318" points="1006.5981,-21.1061 1016.3961,-17.0751 1006.2228,-14.1162 1006.5981,-21.1061"/>
</g>
<!-- &#45;34&#45;&gt;1 -->
<g id="edge23" class="edge">
<title>&#45;34&#45;&gt;1</title>
<path fill="none" stroke="#ff0000" stroke-width=".3158" d="M606.764,-84.0832C602.0579,-79.4118 596.2374,-73.6534 591,-68.5269 579.5582,-57.3272 566.6771,-44.8552 556.3659,-34.9044"/>
<polygon fill="#ff0000" stroke="#ff0000" stroke-width=".3158" points="558.6766,-32.2703 549.0483,-27.8491 553.818,-37.3096 558.6766,-32.2703"/>
</g>
<!-- &#45;35 -->
<g id="node35" class="node">
<title>&#45;35</title>
<polygon fill="#d3d3d3" stroke="#000000" points="682,-102.2756 650,-102.2756 650,-84.2756 682,-84.2756 682,-102.2756"/>
<text text-anchor="middle" x="666" y="-91.0756" font-family="Times,serif" font-size="9.00" fill="#000000">&#45;35</text>
</g>
<!-- &#45;35&#45;&gt;0 -->
<g id="edge38" class="edge">
<title>&#45;35&#45;&gt;0</title>
<path fill="none" stroke="#00ff00" stroke-width=".418" d="M672.845,-84.0307C677.3763,-78.6158 683.7979,-72.1491 691,-68.5269 746.5191,-40.6042 935.7398,-23.6745 1006.2399,-18.2103"/>
<polygon fill="#00ff00" stroke="#00ff00" stroke-width=".418" points="1006.7903,-21.6786 1016.4967,-17.4318 1006.2605,-14.6987 1006.7903,-21.6786"/>
</g>
<!-- &#45;35&#45;&gt;1 -->
<g id="edge11" class="edge">
<title>&#45;35&#45;&gt;1</title>
<path fill="none" stroke="#ff0000" stroke-width=".3154" stroke-dasharray="1,5" d="M657.8198,-83.8458C653.208,-78.8903 647.1503,-72.9457 641,-68.5269 615.8107,-50.4293 583.4399,-35.2452 561.5547,-25.9868"/>
<polygon fill="#ff0000" stroke="#ff0000" stroke-width=".3154" points="562.8793,-22.7471 552.3007,-22.1607 560.2047,-29.216 562.8793,-22.7471"/>
</g>
<!-- &#45;36 -->
<g id="node36" class="node">
<title>&#45;36</title>
<polygon fill="#d3d3d3" stroke="#000000" points="1420,-102.2756 1388,-102.2756 1388,-84.2756 1420,-84.2756 1420,-102.2756"/>
<text text-anchor="middle" x="1404" y="-91.0756" font-family="Times,serif" font-size="9.00" fill="#000000">&#45;36</text>
</g>
<!-- &#45;36&#45;&gt;0 -->
<g id="edge30" class="edge">
<title>&#45;36&#45;&gt;0</title>
<path fill="none" stroke="#ff0000" stroke-width=".3246" d="M1397.1572,-84.0263C1392.6268,-78.6098 1386.2052,-72.1429 1379,-68.5269 1350.4719,-54.2099 1135.5926,-28.1764 1059.5603,-19.3129"/>
<polygon fill="#ff0000" stroke="#ff0000" stroke-width=".3246" points="1059.7253,-15.8087 1049.3886,-18.1332 1058.9188,-22.7621 1059.7253,-15.8087"/>
</g>
<!-- &#45;37 -->
<g id="node37" class="node">
<title>&#45;37</title>
<polygon fill="#d3d3d3" stroke="#000000" points="2064,-102.2756 2032,-102.2756 2032,-84.2756 2064,-84.2756 2064,-102.2756"/>
<text text-anchor="middle" x="2048" y="-91.0756" font-family="Times,serif" font-size="9.00" fill="#000000">&#45;37</text>
</g>
<!-- &#45;38 -->
<g id="node38" class="node">
<title>&#45;38</title>
<polygon fill="#d3d3d3" stroke="#000000" points="464,-102.2756 432,-102.2756 432,-84.2756 464,-84.2756 464,-102.2756"/>
<text text-anchor="middle" x="448" y="-91.0756" font-family="Times,serif" font-size="9.00" fill="#000000">&#45;38</text>
</g>
<!-- &#45;38&#45;&gt;1 -->
<g id="edge9" class="edge">
<title>&#45;38&#45;&gt;1</title>
<path fill="none" stroke="#ff0000" stroke-width=".3699" d="M457.0571,-83.8926C461.7177,-79.1726 467.5514,-73.4283 473,-68.5269 486.8646,-56.0549 503.1519,-42.7724 515.826,-32.7188"/>
<polygon fill="#ff0000" stroke="#ff0000" stroke-width=".3699" points="518.2565,-35.2598 523.9489,-26.3241 513.9266,-29.7597 518.2565,-35.2598"/>
</g>
<!-- &#45;39 -->
<g id="node39" class="node">
<title>&#45;39</title>
<polygon fill="#d3d3d3" stroke="#000000" points="732,-102.2756 700,-102.2756 700,-84.2756 732,-84.2756 732,-102.2756"/>
<text text-anchor="middle" x="716" y="-91.0756" font-family="Times,serif" font-size="9.00" fill="#000000">&#45;39</text>
</g>
<!-- &#45;39&#45;&gt;0 -->
<g id="edge29" class="edge">
<title>&#45;39&#45;&gt;0</title>
<path fill="none" stroke="#00ff00" stroke-width=".2848" d="M722.8779,-84.095C727.4215,-78.7044 733.8446,-72.2405 741,-68.5269 787.3555,-44.4686 943.5465,-25.7261 1006.436,-18.9777"/>
<polygon fill="#00ff00" stroke="#00ff00" stroke-width=".2848" points="1007.1335,-22.4236 1016.7109,-17.8933 1006.3987,-15.4623 1007.1335,-22.4236"/>
</g>
<!-- &#45;39&#45;&gt;1 -->
<g id="edge24" class="edge">
<title>&#45;39&#45;&gt;1</title>
<path fill="none" stroke="#00ff00" stroke-width=".5" d="M708.4868,-83.9846C703.8991,-78.8252 697.6491,-72.638 691,-68.5269 650.0068,-43.1811 595.2092,-28.3988 563.244,-21.3619"/>
<polygon fill="#00ff00" stroke="#00ff00" stroke-width=".5" points="563.8393,-17.9105 553.3318,-19.2684 562.3927,-24.7594 563.8393,-17.9105"/>
</g>
<!-- &#45;40 -->
<g id="node40" class="node">
<title>&#45;40</title>
<polygon fill="#d3d3d3" stroke="#000000" points="1470,-102.2756 1438,-102.2756 1438,-84.2756 1470,-84.2756 1470,-102.2756"/>
<text text-anchor="middle" x="1454" y="-91.0756" font-family="Times,serif" font-size="9.00" fill="#000000">&#45;40</text>
</g>
<!-- &#45;40&#45;&gt;0 -->
<g id="edge16" class="edge">
<title>&#45;40&#45;&gt;0</title>
<path fill="none" stroke="#00ff00" stroke-width=".3876" d="M1447.1808,-83.9788C1442.6592,-78.5444 1436.2387,-72.0754 1429,-68.5269 1363.4201,-36.3791 1137.6588,-21.7511 1059.7146,-17.5766"/>
<polygon fill="#00ff00" stroke="#00ff00" stroke-width=".3876" points="1059.4923,-14.0604 1049.3238,-17.0357 1059.1283,-21.0509 1059.4923,-14.0604"/>
</g>
<!-- 145 -->
<g id="node43" class="node">
<title>145</title>
<ellipse fill="#ffffff" stroke="#000000" cx="1513" cy="-93.2756" rx="25" ry="25"/>
<text text-anchor="middle" x="1513" y="-91.0756" font-family="Times,serif" font-size="9.00" fill="#000000">145</text>
</g>
<!-- 145&#45;&gt;0 -->
<g id="edge39" class="edge">
<title>145&#45;&gt;0</title>
<path fill="none" stroke="#00ff00" stroke-width=".4898" d="M1494.2375,-77.0288C1489.5313,-73.7098 1484.3033,-70.6018 1479,-68.5269 1401.5275,-38.2168 1143.259,-22.1207 1059.4838,-17.6046"/>
<polygon fill="#00ff00" stroke="#00ff00" stroke-width=".4898" points="1059.4579,-14.0984 1049.2872,-17.0661 1059.0887,-21.0887 1059.4579,-14.0984"/>
</g>
<!-- 397 -->
<g id="node44" class="node">
<title>397</title>
<ellipse fill="#ffffff" stroke="#000000" cx="507" cy="-93.2756" rx="25" ry="25"/>
<text text-anchor="middle" x="507" y="-91.0756" font-family="Times,serif" font-size="9.00" fill="#000000">397</text>
</g>
<!-- 397&#45;&gt;1 -->
<g id="edge40" class="edge">
<title>397&#45;&gt;1</title>
<path fill="none" stroke="#00ff00" stroke-width=".4763" d="M516.001,-70.1695C519.5499,-61.0591 523.6352,-50.5718 527.2537,-41.283"/>
<polygon fill="#00ff00" stroke="#00ff00" stroke-width=".4763" points="530.5808,-42.3843 530.9494,-31.7959 524.0582,-39.8434 530.5808,-42.3843"/>
</g>
</g>
</svg>
