<?xml version="1.0" encoding="utf-8" standalone="no"?>
<!DOCTYPE svg PUBLIC "-//W3C//DTD SVG 1.1//EN"
  "http://www.w3.org/Graphics/SVG/1.1/DTD/svg11.dtd">
<svg xmlns:xlink="http://www.w3.org/1999/xlink" width="460.8pt" height="345.6pt" viewBox="0 0 460.8 345.6" xmlns="http://www.w3.org/2000/svg" version="1.1">
 <metadata>
  <rdf:RDF xmlns:dc="http://purl.org/dc/elements/1.1/" xmlns:cc="http://creativecommons.org/ns#" xmlns:rdf="http://www.w3.org/1999/02/22-rdf-syntax-ns#">
   <cc:Work>
    <dc:type rdf:resource="http://purl.org/dc/dcmitype/StillImage"/>
    <dc:date>2022-11-23T06:26:17.930697</dc:date>
    <dc:format>image/svg+xml</dc:format>
    <dc:creator>
     <cc:Agent>
      <dc:title>Matplotlib v3.5.3, https://matplotlib.org/</dc:title>
     </cc:Agent>
    </dc:creator>
   </cc:Work>
  </rdf:RDF>
 </metadata>
 <defs>
  <style type="text/css">*{stroke-linejoin: round; stroke-linecap: butt}</style>
 </defs>
 <g id="figure_1">
  <g id="patch_1">
   <path d="M 0 345.6 
L 460.8 345.6 
L 460.8 0 
L 0 0 
z
" style="fill: #ffffff"/>
  </g>
  <g id="axes_1">
   <g id="patch_2">
    <path d="M 57.6 307.584 
L 414.72 307.584 
L 414.72 41.472 
L 57.6 41.472 
z
" style="fill: #ffffff"/>
   </g>
   <g id="matplotlib.axis_1">
    <g id="xtick_1">
     <g id="line2d_1">
      <path d="M 73.832727 307.584 
L 73.832727 41.472 
" clip-path="url(#pea8bf2fea9)" style="fill: none; stroke: #b0b0b0; stroke-width: 0.8; stroke-linecap: square"/>
     </g>
     <g id="line2d_2">
      <defs>
       <path id="mfaf8a219a5" d="M 0 0 
L 0 3.5 
" style="stroke: #000000; stroke-width: 0.8"/>
      </defs>
      <g>
       <use xlink:href="#mfaf8a219a5" x="73.832727" y="307.584" style="stroke: #000000; stroke-width: 0.8"/>
      </g>
     </g>
     <g id="text_1">
      <!-- 0 -->
      <g transform="translate(70.651477 322.182437)scale(0.1 -0.1)">
       <defs>
        <path id="DejaVuSans-30" d="M 2034 4250 
Q 1547 4250 1301 3770 
Q 1056 3291 1056 2328 
Q 1056 1369 1301 889 
Q 1547 409 2034 409 
Q 2525 409 2770 889 
Q 3016 1369 3016 2328 
Q 3016 3291 2770 3770 
Q 2525 4250 2034 4250 
z
M 2034 4750 
Q 2819 4750 3233 4129 
Q 3647 3509 3647 2328 
Q 3647 1150 3233 529 
Q 2819 -91 2034 -91 
Q 1250 -91 836 529 
Q 422 1150 422 2328 
Q 422 3509 836 4129 
Q 1250 4750 2034 4750 
z
" transform="scale(0.015625)"/>
       </defs>
       <use xlink:href="#DejaVuSans-30"/>
      </g>
     </g>
    </g>
    <g id="xtick_2">
     <g id="line2d_3">
      <path d="M 140.22425 307.584 
L 140.22425 41.472 
" clip-path="url(#pea8bf2fea9)" style="fill: none; stroke: #b0b0b0; stroke-width: 0.8; stroke-linecap: square"/>
     </g>
     <g id="line2d_4">
      <g>
       <use xlink:href="#mfaf8a219a5" x="140.22425" y="307.584" style="stroke: #000000; stroke-width: 0.8"/>
      </g>
     </g>
     <g id="text_2">
      <!-- 100 -->
      <g transform="translate(130.6805 322.182437)scale(0.1 -0.1)">
       <defs>
        <path id="DejaVuSans-31" d="M 794 531 
L 1825 531 
L 1825 4091 
L 703 3866 
L 703 4441 
L 1819 4666 
L 2450 4666 
L 2450 531 
L 3481 531 
L 3481 0 
L 794 0 
L 794 531 
z
" transform="scale(0.015625)"/>
       </defs>
       <use xlink:href="#DejaVuSans-31"/>
       <use xlink:href="#DejaVuSans-30" x="63.623047"/>
       <use xlink:href="#DejaVuSans-30" x="127.246094"/>
      </g>
     </g>
    </g>
    <g id="xtick_3">
     <g id="line2d_5">
      <path d="M 206.615772 307.584 
L 206.615772 41.472 
" clip-path="url(#pea8bf2fea9)" style="fill: none; stroke: #b0b0b0; stroke-width: 0.8; stroke-linecap: square"/>
     </g>
     <g id="line2d_6">
      <g>
       <use xlink:href="#mfaf8a219a5" x="206.615772" y="307.584" style="stroke: #000000; stroke-width: 0.8"/>
      </g>
     </g>
     <g id="text_3">
      <!-- 200 -->
      <g transform="translate(197.072022 322.182437)scale(0.1 -0.1)">
       <defs>
        <path id="DejaVuSans-32" d="M 1228 531 
L 3431 531 
L 3431 0 
L 469 0 
L 469 531 
Q 828 903 1448 1529 
Q 2069 2156 2228 2338 
Q 2531 2678 2651 2914 
Q 2772 3150 2772 3378 
Q 2772 3750 2511 3984 
Q 2250 4219 1831 4219 
Q 1534 4219 1204 4116 
Q 875 4013 500 3803 
L 500 4441 
Q 881 4594 1212 4672 
Q 1544 4750 1819 4750 
Q 2544 4750 2975 4387 
Q 3406 4025 3406 3419 
Q 3406 3131 3298 2873 
Q 3191 2616 2906 2266 
Q 2828 2175 2409 1742 
Q 1991 1309 1228 531 
z
" transform="scale(0.015625)"/>
       </defs>
       <use xlink:href="#DejaVuSans-32"/>
       <use xlink:href="#DejaVuSans-30" x="63.623047"/>
       <use xlink:href="#DejaVuSans-30" x="127.246094"/>
      </g>
     </g>
    </g>
    <g id="xtick_4">
     <g id="line2d_7">
      <path d="M 273.007295 307.584 
L 273.007295 41.472 
" clip-path="url(#pea8bf2fea9)" style="fill: none; stroke: #b0b0b0; stroke-width: 0.8; stroke-linecap: square"/>
     </g>
     <g id="line2d_8">
      <g>
       <use xlink:href="#mfaf8a219a5" x="273.007295" y="307.584" style="stroke: #000000; stroke-width: 0.8"/>
      </g>
     </g>
     <g id="text_4">
      <!-- 300 -->
      <g transform="translate(263.463545 322.182437)scale(0.1 -0.1)">
       <defs>
        <path id="DejaVuSans-33" d="M 2597 2516 
Q 3050 2419 3304 2112 
Q 3559 1806 3559 1356 
Q 3559 666 3084 287 
Q 2609 -91 1734 -91 
Q 1441 -91 1130 -33 
Q 819 25 488 141 
L 488 750 
Q 750 597 1062 519 
Q 1375 441 1716 441 
Q 2309 441 2620 675 
Q 2931 909 2931 1356 
Q 2931 1769 2642 2001 
Q 2353 2234 1838 2234 
L 1294 2234 
L 1294 2753 
L 1863 2753 
Q 2328 2753 2575 2939 
Q 2822 3125 2822 3475 
Q 2822 3834 2567 4026 
Q 2313 4219 1838 4219 
Q 1578 4219 1281 4162 
Q 984 4106 628 3988 
L 628 4550 
Q 988 4650 1302 4700 
Q 1616 4750 1894 4750 
Q 2613 4750 3031 4423 
Q 3450 4097 3450 3541 
Q 3450 3153 3228 2886 
Q 3006 2619 2597 2516 
z
" transform="scale(0.015625)"/>
       </defs>
       <use xlink:href="#DejaVuSans-33"/>
       <use xlink:href="#DejaVuSans-30" x="63.623047"/>
       <use xlink:href="#DejaVuSans-30" x="127.246094"/>
      </g>
     </g>
    </g>
    <g id="xtick_5">
     <g id="line2d_9">
      <path d="M 339.398818 307.584 
L 339.398818 41.472 
" clip-path="url(#pea8bf2fea9)" style="fill: none; stroke: #b0b0b0; stroke-width: 0.8; stroke-linecap: square"/>
     </g>
     <g id="line2d_10">
      <g>
       <use xlink:href="#mfaf8a219a5" x="339.398818" y="307.584" style="stroke: #000000; stroke-width: 0.8"/>
      </g>
     </g>
     <g id="text_5">
      <!-- 400 -->
      <g transform="translate(329.855068 322.182437)scale(0.1 -0.1)">
       <defs>
        <path id="DejaVuSans-34" d="M 2419 4116 
L 825 1625 
L 2419 1625 
L 2419 4116 
z
M 2253 4666 
L 3047 4666 
L 3047 1625 
L 3713 1625 
L 3713 1100 
L 3047 1100 
L 3047 0 
L 2419 0 
L 2419 1100 
L 313 1100 
L 313 1709 
L 2253 4666 
z
" transform="scale(0.015625)"/>
       </defs>
       <use xlink:href="#DejaVuSans-34"/>
       <use xlink:href="#DejaVuSans-30" x="63.623047"/>
       <use xlink:href="#DejaVuSans-30" x="127.246094"/>
      </g>
     </g>
    </g>
    <g id="xtick_6">
     <g id="line2d_11">
      <path d="M 405.79034 307.584 
L 405.79034 41.472 
" clip-path="url(#pea8bf2fea9)" style="fill: none; stroke: #b0b0b0; stroke-width: 0.8; stroke-linecap: square"/>
     </g>
     <g id="line2d_12">
      <g>
       <use xlink:href="#mfaf8a219a5" x="405.79034" y="307.584" style="stroke: #000000; stroke-width: 0.8"/>
      </g>
     </g>
     <g id="text_6">
      <!-- 500 -->
      <g transform="translate(396.24659 322.182437)scale(0.1 -0.1)">
       <defs>
        <path id="DejaVuSans-35" d="M 691 4666 
L 3169 4666 
L 3169 4134 
L 1269 4134 
L 1269 2991 
Q 1406 3038 1543 3061 
Q 1681 3084 1819 3084 
Q 2600 3084 3056 2656 
Q 3513 2228 3513 1497 
Q 3513 744 3044 326 
Q 2575 -91 1722 -91 
Q 1428 -91 1123 -41 
Q 819 9 494 109 
L 494 744 
Q 775 591 1075 516 
Q 1375 441 1709 441 
Q 2250 441 2565 725 
Q 2881 1009 2881 1497 
Q 2881 1984 2565 2268 
Q 2250 2553 1709 2553 
Q 1456 2553 1204 2497 
Q 953 2441 691 2322 
L 691 4666 
z
" transform="scale(0.015625)"/>
       </defs>
       <use xlink:href="#DejaVuSans-35"/>
       <use xlink:href="#DejaVuSans-30" x="63.623047"/>
       <use xlink:href="#DejaVuSans-30" x="127.246094"/>
      </g>
     </g>
    </g>
    <g id="text_7">
     <!-- Generations -->
     <g transform="translate(205.662344 335.860562)scale(0.1 -0.1)">
      <defs>
       <path id="DejaVuSans-47" d="M 3809 666 
L 3809 1919 
L 2778 1919 
L 2778 2438 
L 4434 2438 
L 4434 434 
Q 4069 175 3628 42 
Q 3188 -91 2688 -91 
Q 1594 -91 976 548 
Q 359 1188 359 2328 
Q 359 3472 976 4111 
Q 1594 4750 2688 4750 
Q 3144 4750 3555 4637 
Q 3966 4525 4313 4306 
L 4313 3634 
Q 3963 3931 3569 4081 
Q 3175 4231 2741 4231 
Q 1884 4231 1454 3753 
Q 1025 3275 1025 2328 
Q 1025 1384 1454 906 
Q 1884 428 2741 428 
Q 3075 428 3337 486 
Q 3600 544 3809 666 
z
" transform="scale(0.015625)"/>
       <path id="DejaVuSans-65" d="M 3597 1894 
L 3597 1613 
L 953 1613 
Q 991 1019 1311 708 
Q 1631 397 2203 397 
Q 2534 397 2845 478 
Q 3156 559 3463 722 
L 3463 178 
Q 3153 47 2828 -22 
Q 2503 -91 2169 -91 
Q 1331 -91 842 396 
Q 353 884 353 1716 
Q 353 2575 817 3079 
Q 1281 3584 2069 3584 
Q 2775 3584 3186 3129 
Q 3597 2675 3597 1894 
z
M 3022 2063 
Q 3016 2534 2758 2815 
Q 2500 3097 2075 3097 
Q 1594 3097 1305 2825 
Q 1016 2553 972 2059 
L 3022 2063 
z
" transform="scale(0.015625)"/>
       <path id="DejaVuSans-6e" d="M 3513 2113 
L 3513 0 
L 2938 0 
L 2938 2094 
Q 2938 2591 2744 2837 
Q 2550 3084 2163 3084 
Q 1697 3084 1428 2787 
Q 1159 2491 1159 1978 
L 1159 0 
L 581 0 
L 581 3500 
L 1159 3500 
L 1159 2956 
Q 1366 3272 1645 3428 
Q 1925 3584 2291 3584 
Q 2894 3584 3203 3211 
Q 3513 2838 3513 2113 
z
" transform="scale(0.015625)"/>
       <path id="DejaVuSans-72" d="M 2631 2963 
Q 2534 3019 2420 3045 
Q 2306 3072 2169 3072 
Q 1681 3072 1420 2755 
Q 1159 2438 1159 1844 
L 1159 0 
L 581 0 
L 581 3500 
L 1159 3500 
L 1159 2956 
Q 1341 3275 1631 3429 
Q 1922 3584 2338 3584 
Q 2397 3584 2469 3576 
Q 2541 3569 2628 3553 
L 2631 2963 
z
" transform="scale(0.015625)"/>
       <path id="DejaVuSans-61" d="M 2194 1759 
Q 1497 1759 1228 1600 
Q 959 1441 959 1056 
Q 959 750 1161 570 
Q 1363 391 1709 391 
Q 2188 391 2477 730 
Q 2766 1069 2766 1631 
L 2766 1759 
L 2194 1759 
z
M 3341 1997 
L 3341 0 
L 2766 0 
L 2766 531 
Q 2569 213 2275 61 
Q 1981 -91 1556 -91 
Q 1019 -91 701 211 
Q 384 513 384 1019 
Q 384 1609 779 1909 
Q 1175 2209 1959 2209 
L 2766 2209 
L 2766 2266 
Q 2766 2663 2505 2880 
Q 2244 3097 1772 3097 
Q 1472 3097 1187 3025 
Q 903 2953 641 2809 
L 641 3341 
Q 956 3463 1253 3523 
Q 1550 3584 1831 3584 
Q 2591 3584 2966 3190 
Q 3341 2797 3341 1997 
z
" transform="scale(0.015625)"/>
       <path id="DejaVuSans-74" d="M 1172 4494 
L 1172 3500 
L 2356 3500 
L 2356 3053 
L 1172 3053 
L 1172 1153 
Q 1172 725 1289 603 
Q 1406 481 1766 481 
L 2356 481 
L 2356 0 
L 1766 0 
Q 1100 0 847 248 
Q 594 497 594 1153 
L 594 3053 
L 172 3053 
L 172 3500 
L 594 3500 
L 594 4494 
L 1172 4494 
z
" transform="scale(0.015625)"/>
       <path id="DejaVuSans-69" d="M 603 3500 
L 1178 3500 
L 1178 0 
L 603 0 
L 603 3500 
z
M 603 4863 
L 1178 4863 
L 1178 4134 
L 603 4134 
L 603 4863 
z
" transform="scale(0.015625)"/>
       <path id="DejaVuSans-6f" d="M 1959 3097 
Q 1497 3097 1228 2736 
Q 959 2375 959 1747 
Q 959 1119 1226 758 
Q 1494 397 1959 397 
Q 2419 397 2687 759 
Q 2956 1122 2956 1747 
Q 2956 2369 2687 2733 
Q 2419 3097 1959 3097 
z
M 1959 3584 
Q 2709 3584 3137 3096 
Q 3566 2609 3566 1747 
Q 3566 888 3137 398 
Q 2709 -91 1959 -91 
Q 1206 -91 779 398 
Q 353 888 353 1747 
Q 353 2609 779 3096 
Q 1206 3584 1959 3584 
z
" transform="scale(0.015625)"/>
       <path id="DejaVuSans-73" d="M 2834 3397 
L 2834 2853 
Q 2591 2978 2328 3040 
Q 2066 3103 1784 3103 
Q 1356 3103 1142 2972 
Q 928 2841 928 2578 
Q 928 2378 1081 2264 
Q 1234 2150 1697 2047 
L 1894 2003 
Q 2506 1872 2764 1633 
Q 3022 1394 3022 966 
Q 3022 478 2636 193 
Q 2250 -91 1575 -91 
Q 1294 -91 989 -36 
Q 684 19 347 128 
L 347 722 
Q 666 556 975 473 
Q 1284 391 1588 391 
Q 1994 391 2212 530 
Q 2431 669 2431 922 
Q 2431 1156 2273 1281 
Q 2116 1406 1581 1522 
L 1381 1569 
Q 847 1681 609 1914 
Q 372 2147 372 2553 
Q 372 3047 722 3315 
Q 1072 3584 1716 3584 
Q 2034 3584 2315 3537 
Q 2597 3491 2834 3397 
z
" transform="scale(0.015625)"/>
      </defs>
      <use xlink:href="#DejaVuSans-47"/>
      <use xlink:href="#DejaVuSans-65" x="77.490234"/>
      <use xlink:href="#DejaVuSans-6e" x="139.013672"/>
      <use xlink:href="#DejaVuSans-65" x="202.392578"/>
      <use xlink:href="#DejaVuSans-72" x="263.916016"/>
      <use xlink:href="#DejaVuSans-61" x="305.029297"/>
      <use xlink:href="#DejaVuSans-74" x="366.308594"/>
      <use xlink:href="#DejaVuSans-69" x="405.517578"/>
      <use xlink:href="#DejaVuSans-6f" x="433.300781"/>
      <use xlink:href="#DejaVuSans-6e" x="494.482422"/>
      <use xlink:href="#DejaVuSans-73" x="557.861328"/>
     </g>
    </g>
   </g>
   <g id="matplotlib.axis_2">
    <g id="ytick_1">
     <g id="line2d_13">
      <path d="M 57.6 300.964182 
L 414.72 300.964182 
" clip-path="url(#pea8bf2fea9)" style="fill: none; stroke: #b0b0b0; stroke-width: 0.8; stroke-linecap: square"/>
     </g>
     <g id="line2d_14">
      <defs>
       <path id="m87809e2b70" d="M 0 0 
L -3.5 0 
" style="stroke: #000000; stroke-width: 0.8"/>
      </defs>
      <g>
       <use xlink:href="#m87809e2b70" x="57.6" y="300.964182" style="stroke: #000000; stroke-width: 0.8"/>
      </g>
     </g>
     <g id="text_8">
      <!-- −1000 -->
      <g transform="translate(16.770313 304.763401)scale(0.1 -0.1)">
       <defs>
        <path id="DejaVuSans-2212" d="M 678 2272 
L 4684 2272 
L 4684 1741 
L 678 1741 
L 678 2272 
z
" transform="scale(0.015625)"/>
       </defs>
       <use xlink:href="#DejaVuSans-2212"/>
       <use xlink:href="#DejaVuSans-31" x="83.789062"/>
       <use xlink:href="#DejaVuSans-30" x="147.412109"/>
       <use xlink:href="#DejaVuSans-30" x="211.035156"/>
       <use xlink:href="#DejaVuSans-30" x="274.658203"/>
      </g>
     </g>
    </g>
    <g id="ytick_2">
     <g id="line2d_15">
      <path d="M 57.6 258.50478 
L 414.72 258.50478 
" clip-path="url(#pea8bf2fea9)" style="fill: none; stroke: #b0b0b0; stroke-width: 0.8; stroke-linecap: square"/>
     </g>
     <g id="line2d_16">
      <g>
       <use xlink:href="#m87809e2b70" x="57.6" y="258.50478" style="stroke: #000000; stroke-width: 0.8"/>
      </g>
     </g>
     <g id="text_9">
      <!-- −800 -->
      <g transform="translate(23.132812 262.303998)scale(0.1 -0.1)">
       <defs>
        <path id="DejaVuSans-38" d="M 2034 2216 
Q 1584 2216 1326 1975 
Q 1069 1734 1069 1313 
Q 1069 891 1326 650 
Q 1584 409 2034 409 
Q 2484 409 2743 651 
Q 3003 894 3003 1313 
Q 3003 1734 2745 1975 
Q 2488 2216 2034 2216 
z
M 1403 2484 
Q 997 2584 770 2862 
Q 544 3141 544 3541 
Q 544 4100 942 4425 
Q 1341 4750 2034 4750 
Q 2731 4750 3128 4425 
Q 3525 4100 3525 3541 
Q 3525 3141 3298 2862 
Q 3072 2584 2669 2484 
Q 3125 2378 3379 2068 
Q 3634 1759 3634 1313 
Q 3634 634 3220 271 
Q 2806 -91 2034 -91 
Q 1263 -91 848 271 
Q 434 634 434 1313 
Q 434 1759 690 2068 
Q 947 2378 1403 2484 
z
M 1172 3481 
Q 1172 3119 1398 2916 
Q 1625 2713 2034 2713 
Q 2441 2713 2670 2916 
Q 2900 3119 2900 3481 
Q 2900 3844 2670 4047 
Q 2441 4250 2034 4250 
Q 1625 4250 1398 4047 
Q 1172 3844 1172 3481 
z
" transform="scale(0.015625)"/>
       </defs>
       <use xlink:href="#DejaVuSans-2212"/>
       <use xlink:href="#DejaVuSans-38" x="83.789062"/>
       <use xlink:href="#DejaVuSans-30" x="147.412109"/>
       <use xlink:href="#DejaVuSans-30" x="211.035156"/>
      </g>
     </g>
    </g>
    <g id="ytick_3">
     <g id="line2d_17">
      <path d="M 57.6 216.045377 
L 414.72 216.045377 
" clip-path="url(#pea8bf2fea9)" style="fill: none; stroke: #b0b0b0; stroke-width: 0.8; stroke-linecap: square"/>
     </g>
     <g id="line2d_18">
      <g>
       <use xlink:href="#m87809e2b70" x="57.6" y="216.045377" style="stroke: #000000; stroke-width: 0.8"/>
      </g>
     </g>
     <g id="text_10">
      <!-- −600 -->
      <g transform="translate(23.132812 219.844595)scale(0.1 -0.1)">
       <defs>
        <path id="DejaVuSans-36" d="M 2113 2584 
Q 1688 2584 1439 2293 
Q 1191 2003 1191 1497 
Q 1191 994 1439 701 
Q 1688 409 2113 409 
Q 2538 409 2786 701 
Q 3034 994 3034 1497 
Q 3034 2003 2786 2293 
Q 2538 2584 2113 2584 
z
M 3366 4563 
L 3366 3988 
Q 3128 4100 2886 4159 
Q 2644 4219 2406 4219 
Q 1781 4219 1451 3797 
Q 1122 3375 1075 2522 
Q 1259 2794 1537 2939 
Q 1816 3084 2150 3084 
Q 2853 3084 3261 2657 
Q 3669 2231 3669 1497 
Q 3669 778 3244 343 
Q 2819 -91 2113 -91 
Q 1303 -91 875 529 
Q 447 1150 447 2328 
Q 447 3434 972 4092 
Q 1497 4750 2381 4750 
Q 2619 4750 2861 4703 
Q 3103 4656 3366 4563 
z
" transform="scale(0.015625)"/>
       </defs>
       <use xlink:href="#DejaVuSans-2212"/>
       <use xlink:href="#DejaVuSans-36" x="83.789062"/>
       <use xlink:href="#DejaVuSans-30" x="147.412109"/>
       <use xlink:href="#DejaVuSans-30" x="211.035156"/>
      </g>
     </g>
    </g>
    <g id="ytick_4">
     <g id="line2d_19">
      <path d="M 57.6 173.585974 
L 414.72 173.585974 
" clip-path="url(#pea8bf2fea9)" style="fill: none; stroke: #b0b0b0; stroke-width: 0.8; stroke-linecap: square"/>
     </g>
     <g id="line2d_20">
      <g>
       <use xlink:href="#m87809e2b70" x="57.6" y="173.585974" style="stroke: #000000; stroke-width: 0.8"/>
      </g>
     </g>
     <g id="text_11">
      <!-- −400 -->
      <g transform="translate(23.132812 177.385193)scale(0.1 -0.1)">
       <use xlink:href="#DejaVuSans-2212"/>
       <use xlink:href="#DejaVuSans-34" x="83.789062"/>
       <use xlink:href="#DejaVuSans-30" x="147.412109"/>
       <use xlink:href="#DejaVuSans-30" x="211.035156"/>
      </g>
     </g>
    </g>
    <g id="ytick_5">
     <g id="line2d_21">
      <path d="M 57.6 131.126571 
L 414.72 131.126571 
" clip-path="url(#pea8bf2fea9)" style="fill: none; stroke: #b0b0b0; stroke-width: 0.8; stroke-linecap: square"/>
     </g>
     <g id="line2d_22">
      <g>
       <use xlink:href="#m87809e2b70" x="57.6" y="131.126571" style="stroke: #000000; stroke-width: 0.8"/>
      </g>
     </g>
     <g id="text_12">
      <!-- −200 -->
      <g transform="translate(23.132812 134.92579)scale(0.1 -0.1)">
       <use xlink:href="#DejaVuSans-2212"/>
       <use xlink:href="#DejaVuSans-32" x="83.789062"/>
       <use xlink:href="#DejaVuSans-30" x="147.412109"/>
       <use xlink:href="#DejaVuSans-30" x="211.035156"/>
      </g>
     </g>
    </g>
    <g id="ytick_6">
     <g id="line2d_23">
      <path d="M 57.6 88.667168 
L 414.72 88.667168 
" clip-path="url(#pea8bf2fea9)" style="fill: none; stroke: #b0b0b0; stroke-width: 0.8; stroke-linecap: square"/>
     </g>
     <g id="line2d_24">
      <g>
       <use xlink:href="#m87809e2b70" x="57.6" y="88.667168" style="stroke: #000000; stroke-width: 0.8"/>
      </g>
     </g>
     <g id="text_13">
      <!-- 0 -->
      <g transform="translate(44.2375 92.466387)scale(0.1 -0.1)">
       <use xlink:href="#DejaVuSans-30"/>
      </g>
     </g>
    </g>
    <g id="ytick_7">
     <g id="line2d_25">
      <path d="M 57.6 46.207765 
L 414.72 46.207765 
" clip-path="url(#pea8bf2fea9)" style="fill: none; stroke: #b0b0b0; stroke-width: 0.8; stroke-linecap: square"/>
     </g>
     <g id="line2d_26">
      <g>
       <use xlink:href="#m87809e2b70" x="57.6" y="46.207765" style="stroke: #000000; stroke-width: 0.8"/>
      </g>
     </g>
     <g id="text_14">
      <!-- 200 -->
      <g transform="translate(31.5125 50.006984)scale(0.1 -0.1)">
       <use xlink:href="#DejaVuSans-32"/>
       <use xlink:href="#DejaVuSans-30" x="63.623047"/>
       <use xlink:href="#DejaVuSans-30" x="127.246094"/>
      </g>
     </g>
    </g>
    <g id="text_15">
     <!-- Fitness -->
     <g transform="translate(10.690625 191.845187)rotate(-90)scale(0.1 -0.1)">
      <defs>
       <path id="DejaVuSans-46" d="M 628 4666 
L 3309 4666 
L 3309 4134 
L 1259 4134 
L 1259 2759 
L 3109 2759 
L 3109 2228 
L 1259 2228 
L 1259 0 
L 628 0 
L 628 4666 
z
" transform="scale(0.015625)"/>
      </defs>
      <use xlink:href="#DejaVuSans-46"/>
      <use xlink:href="#DejaVuSans-69" x="50.269531"/>
      <use xlink:href="#DejaVuSans-74" x="78.052734"/>
      <use xlink:href="#DejaVuSans-6e" x="117.261719"/>
      <use xlink:href="#DejaVuSans-65" x="180.640625"/>
      <use xlink:href="#DejaVuSans-73" x="242.164062"/>
      <use xlink:href="#DejaVuSans-73" x="294.263672"/>
     </g>
    </g>
   </g>
   <g id="line2d_27">
    <path d="M 73.832727 295.488 
L 75.160558 280.804072 
L 75.824473 274.602766 
L 76.488388 269.664835 
L 77.816219 262.693632 
L 78.480134 253.312229 
L 79.144049 213.563989 
L 79.807964 145.984598 
L 80.47188 157.679818 
L 81.135795 120.667632 
L 81.79971 112.172143 
L 82.463625 114.669604 
L 83.12754 107.10192 
L 84.455371 113.543536 
L 85.119286 107.852053 
L 85.783201 106.084467 
L 86.447117 105.789992 
L 87.111032 113.191145 
L 87.774947 118.773394 
L 88.438862 114.737929 
L 89.102777 108.886229 
L 89.766693 110.437548 
L 90.430608 117.069473 
L 91.094523 112.414203 
L 91.758438 112.015531 
L 92.422354 119.279456 
L 93.086269 117.41175 
L 93.750184 118.96507 
L 94.414099 114.902132 
L 95.078015 116.284674 
L 95.74193 111.425073 
L 96.405845 114.465157 
L 97.06976 110.066474 
L 97.733675 116.880196 
L 98.397591 110.16942 
L 99.061506 119.734537 
L 99.725421 108.425384 
L 100.389336 113.360106 
L 101.053252 113.029156 
L 101.717167 116.541752 
L 102.381082 110.55797 
L 103.044997 114.037383 
L 103.708912 112.447361 
L 104.372828 105.231536 
L 105.700658 117.539583 
L 106.364573 116.358845 
L 107.692404 112.211712 
L 108.356319 118.789035 
L 109.020234 111.821403 
L 109.684149 117.204853 
L 110.348065 116.998972 
L 111.01198 112.213424 
L 111.675895 113.249255 
L 112.33981 112.166622 
L 113.003726 120.99235 
L 113.667641 118.092536 
L 114.331556 116.341776 
L 114.995471 115.574786 
L 115.659387 111.788849 
L 116.323302 112.655272 
L 116.987217 120.223544 
L 117.651132 116.497656 
L 118.315047 119.483268 
L 118.978963 119.097198 
L 119.642878 113.066728 
L 120.306793 113.28584 
L 120.970708 117.003508 
L 121.634624 110.429994 
L 122.298539 111.777164 
L 122.962454 119.833233 
L 123.626369 117.162187 
L 124.290284 115.55812 
L 124.9542 123.408495 
L 125.618115 112.603426 
L 126.28203 111.981964 
L 126.945945 119.214215 
L 127.609861 112.575337 
L 128.273776 109.676588 
L 128.937691 113.342691 
L 129.601606 123.893403 
L 130.265521 112.783138 
L 131.593352 115.522958 
L 132.257267 113.484405 
L 132.921182 112.951075 
L 133.585098 113.215848 
L 134.249013 112.110669 
L 134.912928 114.102047 
L 135.576843 115.293915 
L 136.240759 110.290551 
L 136.904674 111.010225 
L 137.568589 114.369863 
L 138.232504 112.707506 
L 138.896419 113.094008 
L 139.560335 114.842828 
L 140.22425 112.136037 
L 140.888165 123.730498 
L 141.55208 121.24879 
L 142.215996 111.97962 
L 143.543826 115.014368 
L 144.207741 108.470684 
L 144.871656 117.94765 
L 145.535572 111.373634 
L 146.199487 116.071187 
L 146.863402 113.594041 
L 147.527317 115.797685 
L 148.191233 122.09798 
L 148.855148 113.118745 
L 149.519063 110.337017 
L 150.182978 114.397429 
L 150.846893 113.86517 
L 151.510809 114.344961 
L 152.174724 114.121598 
L 152.838639 117.264695 
L 153.502554 112.610463 
L 154.16647 113.813397 
L 154.830385 110.808151 
L 155.4943 111.832924 
L 156.158215 110.691044 
L 156.822131 115.280969 
L 157.486046 110.59834 
L 158.149961 115.68345 
L 158.813876 116.697207 
L 159.477791 111.466592 
L 160.141707 112.736108 
L 160.805622 115.61194 
L 161.469537 114.588386 
L 162.133452 119.157701 
L 162.797368 116.526064 
L 163.461283 118.463536 
L 164.125198 112.941037 
L 164.789113 115.549049 
L 165.453028 117.611519 
L 166.116944 117.071914 
L 166.780859 113.043862 
L 167.444774 112.07601 
L 168.108689 110.065888 
L 168.772605 118.929566 
L 169.43652 108.426895 
L 170.100435 108.056817 
L 170.76435 109.454571 
L 171.428265 107.7879 
L 172.092181 115.904243 
L 172.756096 113.144026 
L 173.420011 110.884823 
L 174.083926 113.350955 
L 174.747842 111.20662 
L 175.411757 113.451041 
L 176.075672 114.339388 
L 176.739587 109.187849 
L 177.403503 114.322342 
L 178.067418 113.044751 
L 178.731333 109.073369 
L 179.395248 111.569638 
L 180.059163 110.020982 
L 180.723079 114.690677 
L 181.386994 108.764559 
L 182.050909 106.750657 
L 182.714824 109.186607 
L 183.37874 112.464089 
L 184.042655 114.03614 
L 184.70657 114.405418 
L 185.370485 113.931321 
L 186.0344 121.198068 
L 186.698316 110.154779 
L 187.362231 115.166178 
L 188.026146 111.41637 
L 188.690061 113.274433 
L 189.353977 109.459489 
L 190.017892 111.602284 
L 190.681807 112.040241 
L 191.345722 109.601662 
L 192.009637 112.092948 
L 192.673553 110.013774 
L 193.337468 113.671261 
L 194.001383 111.259634 
L 194.665298 111.815771 
L 195.329214 109.695968 
L 195.993129 113.433456 
L 196.657044 113.548459 
L 197.320959 119.661268 
L 197.984875 123.023277 
L 198.64879 115.25786 
L 199.312705 117.9401 
L 199.97662 117.105057 
L 200.640535 111.304915 
L 201.304451 110.835187 
L 201.968366 109.479154 
L 202.632281 113.009454 
L 203.296196 114.705871 
L 203.960112 112.158755 
L 204.624027 112.597239 
L 205.287942 112.574009 
L 205.951857 113.320739 
L 206.615772 113.565057 
L 207.279688 114.49848 
L 207.943603 112.215097 
L 208.607518 112.620837 
L 209.271433 108.22522 
L 209.935349 113.332488 
L 210.599264 116.49426 
L 211.263179 111.957018 
L 211.927094 111.689263 
L 212.591009 119.078154 
L 213.254925 122.780212 
L 213.91884 117.339721 
L 214.582755 115.307458 
L 215.24667 125.708179 
L 215.910586 124.43389 
L 216.574501 120.899768 
L 217.238416 119.117279 
L 217.902331 118.437027 
L 218.566247 125.90836 
L 219.230162 121.835004 
L 219.894077 115.215959 
L 220.557992 115.224848 
L 221.221907 119.016663 
L 221.885823 118.631697 
L 222.549738 121.788313 
L 223.213653 113.061803 
L 223.877568 116.39701 
L 224.541484 107.738173 
L 225.205399 110.962899 
L 225.869314 112.994863 
L 226.533229 118.437024 
L 227.197144 110.593384 
L 227.86106 111.028595 
L 228.524975 114.190575 
L 229.18889 110.23086 
L 229.852805 113.262017 
L 230.516721 114.204899 
L 231.180636 113.209681 
L 231.844551 112.575457 
L 232.508466 116.802189 
L 233.172381 115.690915 
L 233.836297 112.944591 
L 234.500212 113.908619 
L 235.164127 111.702398 
L 235.828042 113.45588 
L 236.491958 111.490744 
L 237.155873 116.35825 
L 237.819788 115.846569 
L 238.483703 108.042134 
L 239.147619 111.374061 
L 239.811534 110.538158 
L 240.475449 111.813881 
L 241.139364 110.244548 
L 241.803279 112.460867 
L 242.467195 110.465166 
L 243.13111 112.477393 
L 243.795025 113.195578 
L 244.45894 113.250315 
L 245.122856 108.553871 
L 245.786771 109.650668 
L 246.450686 113.227818 
L 247.114601 112.712838 
L 247.778516 112.580227 
L 248.442432 111.659192 
L 249.106347 107.950051 
L 249.770262 112.145814 
L 250.434177 120.163795 
L 251.098093 116.752069 
L 251.762008 118.418817 
L 252.425923 116.812736 
L 253.089838 111.85227 
L 253.753753 110.026648 
L 254.417669 111.66136 
L 255.081584 113.877088 
L 255.745499 112.929063 
L 256.409414 114.008732 
L 257.07333 112.656259 
L 257.737245 111.86377 
L 258.40116 111.380426 
L 259.065075 114.421479 
L 259.728991 118.45906 
L 261.056821 109.981981 
L 261.720736 115.231406 
L 262.384651 112.460007 
L 263.048567 114.721463 
L 263.712482 111.959522 
L 264.376397 115.548828 
L 265.040312 109.279219 
L 265.704228 107.687456 
L 266.368143 117.423212 
L 267.032058 111.055765 
L 267.695973 113.029271 
L 268.359888 108.315937 
L 269.023804 110.799448 
L 269.687719 111.787018 
L 270.351634 110.796375 
L 271.015549 112.313919 
L 271.679465 111.359133 
L 272.34338 114.766812 
L 273.007295 112.446409 
L 274.335125 115.179841 
L 274.999041 111.950172 
L 275.662956 109.666471 
L 276.326871 113.401092 
L 276.990786 108.736399 
L 277.654702 109.736317 
L 278.318617 116.877139 
L 278.982532 114.717453 
L 279.646447 116.756578 
L 280.310363 113.59829 
L 280.974278 114.115553 
L 281.638193 110.911019 
L 282.302108 113.551529 
L 282.966023 111.865475 
L 283.629939 118.06013 
L 284.293854 116.246196 
L 284.957769 112.031035 
L 285.621684 106.404449 
L 286.2856 108.855874 
L 286.949515 114.603617 
L 287.61343 109.441337 
L 288.277345 111.258065 
L 288.94126 118.869319 
L 289.605176 120.133678 
L 290.269091 108.21122 
L 290.933006 111.927134 
L 291.596921 111.518113 
L 292.260837 114.952856 
L 292.924752 114.642435 
L 293.588667 110.912001 
L 294.252582 110.186772 
L 294.916497 114.235578 
L 295.580413 113.159098 
L 296.244328 113.867451 
L 296.908243 111.289231 
L 297.572158 115.54497 
L 298.236074 111.834993 
L 298.899989 121.259789 
L 300.227819 109.631802 
L 300.891735 115.879503 
L 301.55565 111.030889 
L 302.219565 113.536715 
L 302.88348 109.316193 
L 303.547395 109.151556 
L 304.211311 116.006072 
L 304.875226 108.353468 
L 305.539141 114.938793 
L 306.203056 118.304582 
L 306.866972 114.476381 
L 307.530887 115.39413 
L 308.194802 113.911206 
L 308.858717 109.639131 
L 309.522632 115.262956 
L 310.186548 110.672881 
L 310.850463 110.450925 
L 311.514378 114.807803 
L 312.178293 111.098229 
L 313.506124 113.24174 
L 314.170039 114.518644 
L 314.833954 113.65908 
L 315.497869 116.846624 
L 316.161785 116.877316 
L 316.8257 110.246003 
L 317.489615 115.499818 
L 318.15353 113.265554 
L 318.817446 108.664896 
L 319.481361 113.768172 
L 320.145276 114.657245 
L 320.809191 115.044831 
L 321.473107 108.720026 
L 322.137022 110.165104 
L 322.800937 114.992751 
L 323.464852 116.740779 
L 324.128767 116.7597 
L 324.792683 114.152644 
L 325.456598 116.680792 
L 326.120513 111.076379 
L 326.784428 108.357889 
L 327.448344 119.309699 
L 328.112259 113.212172 
L 328.776174 109.008491 
L 329.440089 110.198651 
L 330.104004 119.768036 
L 330.76792 117.766678 
L 331.431835 108.837789 
L 332.09575 111.935301 
L 332.759665 116.426347 
L 333.423581 118.858388 
L 334.087496 115.747022 
L 334.751411 115.376131 
L 335.415326 112.813175 
L 336.079241 109.706925 
L 336.743157 112.10976 
L 337.407072 111.965813 
L 338.070987 117.527813 
L 338.734902 112.28019 
L 339.398818 110.46074 
L 340.062733 115.027826 
L 340.726648 116.143004 
L 341.390563 116.811108 
L 342.054479 110.987798 
L 342.718394 112.225677 
L 343.382309 112.252054 
L 344.046224 110.319011 
L 344.710139 111.111628 
L 345.374055 109.60125 
L 346.03797 109.24342 
L 346.701885 109.550957 
L 347.3658 114.657036 
L 348.029716 108.476588 
L 348.693631 108.075201 
L 349.357546 109.05264 
L 350.021461 112.135256 
L 350.685376 107.243742 
L 351.349292 108.655396 
L 352.013207 111.504469 
L 352.677122 112.87516 
L 353.341037 118.976976 
L 354.004953 110.239543 
L 354.668868 115.590704 
L 355.332783 109.639236 
L 355.996698 112.512472 
L 356.660613 113.239338 
L 357.324529 113.593889 
L 357.988444 113.683683 
L 358.652359 114.295497 
L 359.316274 113.005705 
L 359.98019 112.874378 
L 360.644105 114.68527 
L 361.30802 110.572847 
L 361.971935 115.975585 
L 362.635851 109.625154 
L 363.299766 110.670047 
L 363.963681 109.031636 
L 364.627596 110.573056 
L 365.291511 107.81231 
L 365.955427 115.741692 
L 366.619342 113.808921 
L 367.283257 108.776315 
L 367.947172 114.388993 
L 368.611088 111.859354 
L 369.275003 114.371417 
L 369.938918 114.341878 
L 370.602833 116.173097 
L 371.266748 107.386628 
L 371.930664 117.582462 
L 372.594579 109.73725 
L 373.258494 112.379826 
L 373.922409 109.368795 
L 374.586325 110.472098 
L 375.25024 107.920329 
L 375.914155 113.275595 
L 376.57807 110.836885 
L 377.241985 111.86611 
L 377.905901 115.648925 
L 378.569816 114.00999 
L 379.233731 118.442133 
L 379.897646 113.871886 
L 380.561562 114.203205 
L 381.225477 111.160832 
L 381.889392 109.874449 
L 382.553307 113.160587 
L 383.217223 113.556527 
L 383.881138 112.372198 
L 384.545053 108.479172 
L 385.208968 112.182056 
L 385.872883 112.533043 
L 386.536799 112.268901 
L 387.200714 109.408372 
L 387.864629 116.87819 
L 388.528544 114.097796 
L 389.19246 112.045407 
L 389.856375 110.429375 
L 390.52029 114.137145 
L 391.84812 108.489382 
L 392.512036 115.758364 
L 393.175951 114.248897 
L 393.839866 110.686055 
L 394.503781 111.7526 
L 395.167697 113.494685 
L 395.831612 113.500285 
L 396.495527 109.429181 
L 397.159442 111.437423 
L 397.823358 108.695124 
L 398.487273 110.518008 
L 398.487273 110.518008 
" clip-path="url(#pea8bf2fea9)" style="fill: none; stroke: #0000ff; stroke-width: 1.5; stroke-linecap: square"/>
   </g>
   <g id="line2d_28">
    <path d="M 73.832727 288.568722 
L 75.160558 270.777487 
L 75.824473 262.193726 
L 77.152303 249.898428 
L 77.816219 240.405829 
L 78.480134 211.323334 
L 79.807964 62.481129 
L 80.47188 80.917362 
L 81.135795 63.482135 
L 81.79971 62.330157 
L 82.463625 55.643822 
L 83.12754 61.42743 
L 83.791456 56.1225 
L 84.455371 53.568 
L 85.783201 58.92656 
L 86.447117 58.384519 
L 87.111032 64.62577 
L 87.774947 59.260876 
L 88.438862 60.803584 
L 89.102777 68.574679 
L 89.766693 65.626188 
L 90.430608 59.658585 
L 91.094523 66.51772 
L 91.758438 66.729413 
L 92.422354 59.794538 
L 93.086269 59.586049 
L 93.750184 60.825082 
L 94.414099 65.090251 
L 95.078015 64.133849 
L 95.74193 67.008853 
L 96.405845 64.428843 
L 97.06976 71.195363 
L 97.733675 64.252075 
L 98.397591 72.366383 
L 99.061506 61.081534 
L 99.725421 73.663788 
L 100.389336 66.574135 
L 101.053252 65.825349 
L 101.717167 63.834785 
L 102.381082 69.58848 
L 103.044997 65.090329 
L 103.708912 67.718426 
L 104.372828 80.579423 
L 105.036743 69.358871 
L 105.700658 60.935656 
L 106.364573 61.779248 
L 107.692404 70.167831 
L 108.356319 60.420801 
L 109.020234 64.815977 
L 109.684149 62.932027 
L 110.348065 65.108765 
L 111.01198 70.507887 
L 111.675895 64.808622 
L 112.33981 65.950775 
L 113.003726 58.920752 
L 113.667641 58.604307 
L 114.331556 63.572939 
L 114.995471 62.782786 
L 115.659387 72.406114 
L 116.323302 67.007133 
L 116.987217 59.565057 
L 117.651132 63.800861 
L 118.315047 62.310002 
L 118.978963 60.370446 
L 119.642878 68.057406 
L 120.306793 65.957951 
L 120.970708 65.773096 
L 121.634624 70.885185 
L 122.298539 70.230321 
L 122.962454 60.861643 
L 123.626369 64.31609 
L 124.290284 62.579024 
L 124.9542 58.97539 
L 125.618115 65.721579 
L 126.28203 69.818595 
L 126.945945 61.167587 
L 127.609861 66.591475 
L 128.273776 70.904537 
L 128.937691 62.624162 
L 129.601606 58.225553 
L 130.265521 65.732124 
L 130.929437 66.164644 
L 131.593352 62.334498 
L 132.257267 66.300704 
L 132.921182 66.703529 
L 133.585098 65.865554 
L 134.249013 67.304737 
L 134.912928 66.710473 
L 135.576843 67.033657 
L 136.240759 70.040677 
L 137.568589 67.315285 
L 138.232504 67.692311 
L 138.896419 69.015978 
L 139.560335 64.486739 
L 140.22425 70.911383 
L 140.888165 58.949306 
L 141.55208 58.907978 
L 142.215996 66.829446 
L 142.879911 66.587655 
L 143.543826 63.750979 
L 144.207741 74.456545 
L 144.871656 59.588532 
L 145.535572 67.361994 
L 146.199487 63.318168 
L 146.863402 65.034259 
L 147.527317 63.996554 
L 148.191233 58.820139 
L 149.519063 69.666974 
L 150.182978 63.853169 
L 150.846893 61.558611 
L 151.510809 61.038831 
L 152.174724 64.485996 
L 152.838639 60.692927 
L 153.502554 67.131592 
L 154.16647 61.584616 
L 154.830385 67.776029 
L 155.4943 66.041414 
L 156.158215 67.875054 
L 156.822131 63.289862 
L 157.486046 70.953288 
L 158.149961 64.2764 
L 158.813876 62.59367 
L 159.477791 69.543759 
L 160.141707 68.885348 
L 160.805622 62.716555 
L 161.469537 62.726069 
L 162.133452 57.130962 
L 162.797368 61.514107 
L 163.461283 58.92226 
L 164.125198 66.627763 
L 164.789113 66.419838 
L 165.453028 62.335152 
L 166.116944 62.914279 
L 166.780859 65.081647 
L 167.444774 67.724782 
L 168.108689 68.514463 
L 168.772605 59.108016 
L 169.43652 72.479007 
L 170.100435 76.258729 
L 170.76435 71.053992 
L 171.428265 75.229391 
L 172.092181 60.205591 
L 172.756096 63.769488 
L 173.420011 66.706399 
L 174.083926 66.644621 
L 175.411757 69.509399 
L 176.075672 68.353439 
L 176.739587 72.890712 
L 177.403503 64.662489 
L 178.067418 68.178021 
L 178.731333 72.947965 
L 179.395248 67.558926 
L 180.059163 71.86797 
L 180.723079 63.280594 
L 181.386994 75.548305 
L 182.050909 78.349169 
L 182.714824 70.114973 
L 183.37874 66.09688 
L 184.042655 66.997022 
L 184.70657 65.715545 
L 185.370485 66.941811 
L 186.0344 58.976765 
L 186.698316 70.933268 
L 187.362231 62.730257 
L 188.026146 70.158351 
L 188.690061 67.703716 
L 189.353977 72.777596 
L 190.017892 63.694357 
L 190.681807 65.49147 
L 191.345722 73.878487 
L 192.009637 66.728417 
L 192.673553 70.175112 
L 193.337468 67.80814 
L 194.001383 66.933354 
L 194.665298 66.686676 
L 195.329214 71.560733 
L 195.993129 68.973692 
L 197.320959 61.609934 
L 197.984875 56.728436 
L 198.64879 63.637577 
L 199.312705 63.724997 
L 199.97662 63.954766 
L 200.640535 69.079288 
L 201.304451 69.813791 
L 201.968366 72.954508 
L 202.632281 64.316654 
L 203.296196 62.96324 
L 203.960112 64.435908 
L 204.624027 67.914476 
L 205.287942 68.972927 
L 205.951857 66.695416 
L 206.615772 66.660929 
L 207.279688 61.326919 
L 207.943603 66.688926 
L 208.607518 68.909166 
L 209.271433 74.269378 
L 209.935349 66.224533 
L 210.599264 65.398848 
L 211.263179 67.974749 
L 211.927094 67.313359 
L 212.591009 60.448647 
L 213.254925 58.771946 
L 213.91884 59.055035 
L 214.582755 61.624817 
L 215.24667 54.848406 
L 215.910586 56.813654 
L 216.574501 57.801358 
L 217.238416 57.825783 
L 217.902331 58.287636 
L 218.566247 54.760139 
L 219.230162 53.833646 
L 219.894077 62.511954 
L 220.557992 64.086714 
L 221.221907 60.645221 
L 221.885823 60.48487 
L 222.549738 57.506278 
L 223.213653 61.459025 
L 223.877568 60.122208 
L 224.541484 72.656139 
L 225.205399 69.405221 
L 225.869314 66.968632 
L 226.533229 65.425334 
L 227.197144 74.277239 
L 227.86106 67.196925 
L 228.524975 63.850949 
L 229.18889 71.753625 
L 229.852805 66.495062 
L 230.516721 67.016551 
L 231.180636 70.048781 
L 231.844551 67.062417 
L 232.508466 66.386002 
L 233.172381 66.926735 
L 233.836297 68.553811 
L 234.500212 64.954821 
L 235.164127 68.645069 
L 235.828042 66.128832 
L 236.491958 69.66268 
L 237.155873 64.552924 
L 237.819788 64.564192 
L 238.483703 73.397927 
L 239.147619 70.277741 
L 239.811534 69.146269 
L 240.475449 69.029505 
L 241.139364 70.615468 
L 241.803279 67.84394 
L 242.467195 71.135415 
L 243.13111 69.192923 
L 243.795025 64.883603 
L 244.45894 62.499358 
L 245.122856 71.761504 
L 245.786771 71.070423 
L 246.450686 65.539622 
L 247.114601 63.959779 
L 247.778516 66.254603 
L 248.442432 67.376628 
L 249.106347 74.558291 
L 249.770262 66.581566 
L 250.434177 56.574086 
L 251.098093 60.521509 
L 251.762008 60.655626 
L 252.425923 59.32242 
L 253.089838 66.778382 
L 253.753753 72.57158 
L 254.417669 69.041491 
L 255.081584 66.532805 
L 255.745499 65.956871 
L 256.409414 63.333168 
L 257.07333 67.340961 
L 257.737245 68.31302 
L 258.40116 68.318623 
L 259.065075 66.515075 
L 259.728991 57.242512 
L 260.392906 64.597866 
L 261.056821 69.829051 
L 261.720736 63.300412 
L 262.384651 65.852967 
L 263.048567 65.969972 
L 263.712482 68.313261 
L 264.376397 62.869352 
L 265.040312 72.198699 
L 265.704228 77.173682 
L 266.368143 64.676855 
L 267.032058 72.968879 
L 267.695973 67.632365 
L 268.359888 72.460244 
L 269.023804 67.678387 
L 269.687719 66.956257 
L 270.351634 67.154857 
L 271.015549 63.234154 
L 271.679465 70.340642 
L 272.34338 63.331314 
L 273.007295 66.30705 
L 273.67121 63.386646 
L 274.335125 63.499013 
L 274.999041 66.826335 
L 275.662956 68.474546 
L 276.326871 64.03801 
L 276.990786 72.660285 
L 277.654702 68.54135 
L 278.318617 60.976709 
L 278.982532 65.035998 
L 279.646447 62.643875 
L 280.310363 66.39674 
L 280.974278 65.522107 
L 281.638193 69.575322 
L 282.302108 65.832323 
L 282.966023 66.49367 
L 283.629939 59.467539 
L 284.293854 58.823394 
L 285.621684 78.082858 
L 286.2856 73.462703 
L 286.949515 64.554818 
L 287.61343 72.472804 
L 288.277345 69.534343 
L 288.94126 59.328392 
L 289.605176 60.089816 
L 290.269091 73.08001 
L 290.933006 66.088691 
L 291.596921 66.820676 
L 292.260837 64.278323 
L 292.924752 65.980341 
L 293.588667 70.743465 
L 294.252582 70.404495 
L 294.916497 65.609608 
L 295.580413 66.691458 
L 296.244328 65.513217 
L 296.908243 67.389823 
L 297.572158 66.942724 
L 298.236074 64.398032 
L 298.899989 58.256897 
L 299.563904 61.875074 
L 300.227819 71.169683 
L 300.891735 62.980382 
L 301.55565 67.66691 
L 302.219565 64.319509 
L 302.88348 72.329651 
L 303.547395 73.929375 
L 304.211311 63.457543 
L 304.875226 74.292622 
L 305.539141 61.83705 
L 306.203056 57.582901 
L 306.866972 62.875571 
L 307.530887 61.254668 
L 308.858717 71.58402 
L 309.522632 61.845807 
L 310.186548 72.167129 
L 310.850463 70.909465 
L 311.514378 61.575308 
L 312.178293 70.040102 
L 312.842209 63.00776 
L 313.506124 65.081427 
L 314.170039 61.59279 
L 314.833954 64.635188 
L 315.497869 57.774788 
L 316.161785 58.12896 
L 316.8257 70.946309 
L 317.489615 62.35079 
L 318.15353 68.652425 
L 318.817446 71.64179 
L 319.481361 62.629689 
L 320.145276 62.401476 
L 320.809191 55.08452 
L 321.473107 70.654748 
L 322.137022 69.343434 
L 322.800937 64.053836 
L 323.464852 60.2385 
L 324.128767 59.104933 
L 324.792683 63.041408 
L 325.456598 60.205871 
L 326.120513 65.876751 
L 326.784428 74.845594 
L 327.448344 59.024167 
L 328.112259 67.252342 
L 328.776174 73.149513 
L 329.440089 69.907991 
L 330.104004 59.455181 
L 330.76792 61.983238 
L 331.431835 73.694778 
L 332.09575 69.71464 
L 332.759665 62.601609 
L 333.423581 58.143013 
L 334.087496 61.288618 
L 334.751411 59.170791 
L 335.415326 63.128651 
L 336.079241 72.476828 
L 336.743157 67.779682 
L 337.407072 68.991091 
L 338.070987 56.510795 
L 338.734902 65.884955 
L 339.398818 72.224112 
L 340.062733 61.978408 
L 340.726648 63.103024 
L 341.390563 61.502727 
L 342.054479 71.431399 
L 342.718394 65.382964 
L 343.382309 65.72649 
L 344.046224 68.898128 
L 344.710139 67.763937 
L 345.374055 76.243583 
L 346.03797 73.577014 
L 347.3658 62.418092 
L 348.029716 74.202376 
L 348.693631 77.429983 
L 349.357546 72.293733 
L 350.021461 69.903132 
L 350.685376 77.01549 
L 351.349292 71.971798 
L 352.013207 69.377387 
L 352.677122 68.254615 
L 353.341037 60.105558 
L 354.004953 73.415946 
L 354.668868 63.06565 
L 355.332783 71.955025 
L 355.996698 67.237698 
L 356.660613 68.293618 
L 357.324529 64.802956 
L 357.988444 65.731766 
L 358.652359 64.390367 
L 359.316274 67.354842 
L 359.98019 67.354824 
L 360.644105 65.291039 
L 361.30802 70.733054 
L 361.971935 63.339191 
L 362.635851 71.99202 
L 363.299766 68.968321 
L 363.963681 67.555875 
L 364.627596 69.251758 
L 365.291511 73.873694 
L 365.955427 58.140557 
L 366.619342 65.560079 
L 367.283257 75.38798 
L 367.947172 60.700512 
L 368.611088 66.6975 
L 369.275003 65.970021 
L 370.602833 59.936048 
L 371.266748 77.094417 
L 371.930664 62.401351 
L 372.594579 71.743983 
L 373.258494 69.581389 
L 373.922409 69.937623 
L 374.586325 70.602805 
L 375.25024 75.737903 
L 375.914155 66.162549 
L 376.57807 70.017258 
L 377.241985 67.126824 
L 377.905901 61.063204 
L 378.569816 64.378394 
L 379.233731 57.196813 
L 379.897646 64.071831 
L 381.225477 67.608852 
L 381.889392 72.880517 
L 382.553307 64.793 
L 383.217223 63.367879 
L 383.881138 65.194593 
L 384.545053 74.345879 
L 385.208968 67.35466 
L 385.872883 64.200103 
L 386.536799 65.461708 
L 387.200714 71.531911 
L 387.864629 63.54802 
L 388.528544 64.630656 
L 389.19246 66.270315 
L 389.856375 67.514001 
L 390.52029 63.286836 
L 391.184205 64.63488 
L 391.84812 70.169068 
L 392.512036 60.10359 
L 393.175951 64.897111 
L 393.839866 66.765411 
L 394.503781 67.000903 
L 395.167697 65.047303 
L 395.831612 64.88594 
L 396.495527 70.302633 
L 397.159442 65.316214 
L 397.823358 70.36352 
L 398.487273 70.352124 
L 398.487273 70.352124 
" clip-path="url(#pea8bf2fea9)" style="fill: none; stroke-dasharray: 9.6,2.4,1.5,2.4; stroke-dashoffset: 0; stroke: #008000; stroke-width: 1.5"/>
   </g>
   <g id="line2d_29">
    <path d="M 73.832727 260.690336 
L 74.496642 256.523613 
L 75.160558 244.168377 
L 75.824473 220.645491 
L 76.488388 220.645491 
L 77.152303 212.404684 
L 77.816219 88.756315 
L 79.807964 88.667848 
L 80.47188 94.320799 
L 86.447117 94.320799 
L 87.111032 100.972875 
L 93.086269 100.972875 
L 93.750184 101.702656 
L 99.725421 101.702656 
L 100.389336 101.832197 
L 106.364573 101.832197 
L 107.028489 102.208574 
L 113.003726 102.208574 
L 113.667641 102.029719 
L 126.28203 101.99008 
L 126.945945 102.152677 
L 139.560335 102.166923 
L 140.22425 102.037594 
L 179.395248 101.977475 
L 180.723079 101.909964 
L 199.312705 101.881136 
L 199.97662 101.748173 
L 205.951857 101.748173 
L 206.615772 101.978974 
L 225.869314 101.942472 
L 226.533229 102.164618 
L 232.508466 102.164618 
L 233.172381 101.916756 
L 245.786771 101.915736 
L 246.450686 102.109141 
L 259.065075 102.025072 
L 259.728991 101.8698 
L 265.704228 101.8698 
L 266.368143 101.342316 
L 278.982532 101.345627 
L 279.646447 101.896828 
L 285.621684 101.896828 
L 286.2856 102.126248 
L 298.899989 102.080163 
L 299.563904 101.865315 
L 305.539141 101.865315 
L 306.203056 101.657014 
L 312.178293 101.657014 
L 312.842209 101.804164 
L 318.817446 101.804164 
L 319.481361 102.064959 
L 345.374055 102.115289 
L 346.701885 102.207168 
L 352.013207 102.207168 
L 352.677122 102.008919 
L 358.652359 102.008919 
L 359.316274 101.841752 
L 365.291511 101.841752 
L 365.955427 101.96779 
L 371.930664 101.96779 
L 372.594579 102.122684 
L 385.208968 102.023019 
L 385.872883 101.721097 
L 398.487273 101.651829 
L 398.487273 101.651829 
" clip-path="url(#pea8bf2fea9)" style="fill: none; stroke: #ff0000; stroke-width: 1.5; stroke-linecap: square"/>
   </g>
   <g id="patch_3">
    <path d="M 57.6 307.584 
L 57.6 41.472 
" style="fill: none; stroke: #000000; stroke-width: 0.8; stroke-linejoin: miter; stroke-linecap: square"/>
   </g>
   <g id="patch_4">
    <path d="M 414.72 307.584 
L 414.72 41.472 
" style="fill: none; stroke: #000000; stroke-width: 0.8; stroke-linejoin: miter; stroke-linecap: square"/>
   </g>
   <g id="patch_5">
    <path d="M 57.6 307.584 
L 414.72 307.584 
" style="fill: none; stroke: #000000; stroke-width: 0.8; stroke-linejoin: miter; stroke-linecap: square"/>
   </g>
   <g id="patch_6">
    <path d="M 57.6 41.472 
L 414.72 41.472 
" style="fill: none; stroke: #000000; stroke-width: 0.8; stroke-linejoin: miter; stroke-linecap: square"/>
   </g>
   <g id="text_16">
    <!-- Population's average and best fitness -->
    <g transform="translate(123.529687 35.472)scale(0.12 -0.12)">
     <defs>
      <path id="DejaVuSans-50" d="M 1259 4147 
L 1259 2394 
L 2053 2394 
Q 2494 2394 2734 2622 
Q 2975 2850 2975 3272 
Q 2975 3691 2734 3919 
Q 2494 4147 2053 4147 
L 1259 4147 
z
M 628 4666 
L 2053 4666 
Q 2838 4666 3239 4311 
Q 3641 3956 3641 3272 
Q 3641 2581 3239 2228 
Q 2838 1875 2053 1875 
L 1259 1875 
L 1259 0 
L 628 0 
L 628 4666 
z
" transform="scale(0.015625)"/>
      <path id="DejaVuSans-70" d="M 1159 525 
L 1159 -1331 
L 581 -1331 
L 581 3500 
L 1159 3500 
L 1159 2969 
Q 1341 3281 1617 3432 
Q 1894 3584 2278 3584 
Q 2916 3584 3314 3078 
Q 3713 2572 3713 1747 
Q 3713 922 3314 415 
Q 2916 -91 2278 -91 
Q 1894 -91 1617 61 
Q 1341 213 1159 525 
z
M 3116 1747 
Q 3116 2381 2855 2742 
Q 2594 3103 2138 3103 
Q 1681 3103 1420 2742 
Q 1159 2381 1159 1747 
Q 1159 1113 1420 752 
Q 1681 391 2138 391 
Q 2594 391 2855 752 
Q 3116 1113 3116 1747 
z
" transform="scale(0.015625)"/>
      <path id="DejaVuSans-75" d="M 544 1381 
L 544 3500 
L 1119 3500 
L 1119 1403 
Q 1119 906 1312 657 
Q 1506 409 1894 409 
Q 2359 409 2629 706 
Q 2900 1003 2900 1516 
L 2900 3500 
L 3475 3500 
L 3475 0 
L 2900 0 
L 2900 538 
Q 2691 219 2414 64 
Q 2138 -91 1772 -91 
Q 1169 -91 856 284 
Q 544 659 544 1381 
z
M 1991 3584 
L 1991 3584 
z
" transform="scale(0.015625)"/>
      <path id="DejaVuSans-6c" d="M 603 4863 
L 1178 4863 
L 1178 0 
L 603 0 
L 603 4863 
z
" transform="scale(0.015625)"/>
      <path id="DejaVuSans-27" d="M 1147 4666 
L 1147 2931 
L 616 2931 
L 616 4666 
L 1147 4666 
z
" transform="scale(0.015625)"/>
      <path id="DejaVuSans-20" transform="scale(0.015625)"/>
      <path id="DejaVuSans-76" d="M 191 3500 
L 800 3500 
L 1894 563 
L 2988 3500 
L 3597 3500 
L 2284 0 
L 1503 0 
L 191 3500 
z
" transform="scale(0.015625)"/>
      <path id="DejaVuSans-67" d="M 2906 1791 
Q 2906 2416 2648 2759 
Q 2391 3103 1925 3103 
Q 1463 3103 1205 2759 
Q 947 2416 947 1791 
Q 947 1169 1205 825 
Q 1463 481 1925 481 
Q 2391 481 2648 825 
Q 2906 1169 2906 1791 
z
M 3481 434 
Q 3481 -459 3084 -895 
Q 2688 -1331 1869 -1331 
Q 1566 -1331 1297 -1286 
Q 1028 -1241 775 -1147 
L 775 -588 
Q 1028 -725 1275 -790 
Q 1522 -856 1778 -856 
Q 2344 -856 2625 -561 
Q 2906 -266 2906 331 
L 2906 616 
Q 2728 306 2450 153 
Q 2172 0 1784 0 
Q 1141 0 747 490 
Q 353 981 353 1791 
Q 353 2603 747 3093 
Q 1141 3584 1784 3584 
Q 2172 3584 2450 3431 
Q 2728 3278 2906 2969 
L 2906 3500 
L 3481 3500 
L 3481 434 
z
" transform="scale(0.015625)"/>
      <path id="DejaVuSans-64" d="M 2906 2969 
L 2906 4863 
L 3481 4863 
L 3481 0 
L 2906 0 
L 2906 525 
Q 2725 213 2448 61 
Q 2172 -91 1784 -91 
Q 1150 -91 751 415 
Q 353 922 353 1747 
Q 353 2572 751 3078 
Q 1150 3584 1784 3584 
Q 2172 3584 2448 3432 
Q 2725 3281 2906 2969 
z
M 947 1747 
Q 947 1113 1208 752 
Q 1469 391 1925 391 
Q 2381 391 2643 752 
Q 2906 1113 2906 1747 
Q 2906 2381 2643 2742 
Q 2381 3103 1925 3103 
Q 1469 3103 1208 2742 
Q 947 2381 947 1747 
z
" transform="scale(0.015625)"/>
      <path id="DejaVuSans-62" d="M 3116 1747 
Q 3116 2381 2855 2742 
Q 2594 3103 2138 3103 
Q 1681 3103 1420 2742 
Q 1159 2381 1159 1747 
Q 1159 1113 1420 752 
Q 1681 391 2138 391 
Q 2594 391 2855 752 
Q 3116 1113 3116 1747 
z
M 1159 2969 
Q 1341 3281 1617 3432 
Q 1894 3584 2278 3584 
Q 2916 3584 3314 3078 
Q 3713 2572 3713 1747 
Q 3713 922 3314 415 
Q 2916 -91 2278 -91 
Q 1894 -91 1617 61 
Q 1341 213 1159 525 
L 1159 0 
L 581 0 
L 581 4863 
L 1159 4863 
L 1159 2969 
z
" transform="scale(0.015625)"/>
      <path id="DejaVuSans-66" d="M 2375 4863 
L 2375 4384 
L 1825 4384 
Q 1516 4384 1395 4259 
Q 1275 4134 1275 3809 
L 1275 3500 
L 2222 3500 
L 2222 3053 
L 1275 3053 
L 1275 0 
L 697 0 
L 697 3053 
L 147 3053 
L 147 3500 
L 697 3500 
L 697 3744 
Q 697 4328 969 4595 
Q 1241 4863 1831 4863 
L 2375 4863 
z
" transform="scale(0.015625)"/>
     </defs>
     <use xlink:href="#DejaVuSans-50"/>
     <use xlink:href="#DejaVuSans-6f" x="56.677734"/>
     <use xlink:href="#DejaVuSans-70" x="117.859375"/>
     <use xlink:href="#DejaVuSans-75" x="181.335938"/>
     <use xlink:href="#DejaVuSans-6c" x="244.714844"/>
     <use xlink:href="#DejaVuSans-61" x="272.498047"/>
     <use xlink:href="#DejaVuSans-74" x="333.777344"/>
     <use xlink:href="#DejaVuSans-69" x="372.986328"/>
     <use xlink:href="#DejaVuSans-6f" x="400.769531"/>
     <use xlink:href="#DejaVuSans-6e" x="461.951172"/>
     <use xlink:href="#DejaVuSans-27" x="525.330078"/>
     <use xlink:href="#DejaVuSans-73" x="552.820312"/>
     <use xlink:href="#DejaVuSans-20" x="604.919922"/>
     <use xlink:href="#DejaVuSans-61" x="636.707031"/>
     <use xlink:href="#DejaVuSans-76" x="697.986328"/>
     <use xlink:href="#DejaVuSans-65" x="757.166016"/>
     <use xlink:href="#DejaVuSans-72" x="818.689453"/>
     <use xlink:href="#DejaVuSans-61" x="859.802734"/>
     <use xlink:href="#DejaVuSans-67" x="921.082031"/>
     <use xlink:href="#DejaVuSans-65" x="984.558594"/>
     <use xlink:href="#DejaVuSans-20" x="1046.082031"/>
     <use xlink:href="#DejaVuSans-61" x="1077.869141"/>
     <use xlink:href="#DejaVuSans-6e" x="1139.148438"/>
     <use xlink:href="#DejaVuSans-64" x="1202.527344"/>
     <use xlink:href="#DejaVuSans-20" x="1266.003906"/>
     <use xlink:href="#DejaVuSans-62" x="1297.791016"/>
     <use xlink:href="#DejaVuSans-65" x="1361.267578"/>
     <use xlink:href="#DejaVuSans-73" x="1422.791016"/>
     <use xlink:href="#DejaVuSans-74" x="1474.890625"/>
     <use xlink:href="#DejaVuSans-20" x="1514.099609"/>
     <use xlink:href="#DejaVuSans-66" x="1545.886719"/>
     <use xlink:href="#DejaVuSans-69" x="1581.091797"/>
     <use xlink:href="#DejaVuSans-74" x="1608.875"/>
     <use xlink:href="#DejaVuSans-6e" x="1648.083984"/>
     <use xlink:href="#DejaVuSans-65" x="1711.462891"/>
     <use xlink:href="#DejaVuSans-73" x="1772.986328"/>
     <use xlink:href="#DejaVuSans-73" x="1825.085938"/>
    </g>
   </g>
   <g id="legend_1">
    <g id="patch_7">
     <path d="M 334.779375 302.584 
L 407.72 302.584 
Q 409.72 302.584 409.72 300.584 
L 409.72 257.549625 
Q 409.72 255.549625 407.72 255.549625 
L 334.779375 255.549625 
Q 332.779375 255.549625 332.779375 257.549625 
L 332.779375 300.584 
Q 332.779375 302.584 334.779375 302.584 
z
" style="fill: #ffffff; opacity: 0.8; stroke: #cccccc; stroke-linejoin: miter"/>
    </g>
    <g id="line2d_30">
     <path d="M 336.779375 263.648062 
L 346.779375 263.648062 
L 356.779375 263.648062 
" style="fill: none; stroke: #0000ff; stroke-width: 1.5; stroke-linecap: square"/>
    </g>
    <g id="text_17">
     <!-- average -->
     <g transform="translate(364.779375 267.148062)scale(0.1 -0.1)">
      <use xlink:href="#DejaVuSans-61"/>
      <use xlink:href="#DejaVuSans-76" x="61.279297"/>
      <use xlink:href="#DejaVuSans-65" x="120.458984"/>
      <use xlink:href="#DejaVuSans-72" x="181.982422"/>
      <use xlink:href="#DejaVuSans-61" x="223.095703"/>
      <use xlink:href="#DejaVuSans-67" x="284.375"/>
      <use xlink:href="#DejaVuSans-65" x="347.851562"/>
     </g>
    </g>
    <g id="line2d_31">
     <path d="M 336.779375 278.326188 
L 346.779375 278.326188 
L 356.779375 278.326188 
" style="fill: none; stroke-dasharray: 9.6,2.4,1.5,2.4; stroke-dashoffset: 0; stroke: #008000; stroke-width: 1.5"/>
    </g>
    <g id="text_18">
     <!-- +1 sd -->
     <g transform="translate(364.779375 281.826188)scale(0.1 -0.1)">
      <defs>
       <path id="DejaVuSans-2b" d="M 2944 4013 
L 2944 2272 
L 4684 2272 
L 4684 1741 
L 2944 1741 
L 2944 0 
L 2419 0 
L 2419 1741 
L 678 1741 
L 678 2272 
L 2419 2272 
L 2419 4013 
L 2944 4013 
z
" transform="scale(0.015625)"/>
      </defs>
      <use xlink:href="#DejaVuSans-2b"/>
      <use xlink:href="#DejaVuSans-31" x="83.789062"/>
      <use xlink:href="#DejaVuSans-20" x="147.412109"/>
      <use xlink:href="#DejaVuSans-73" x="179.199219"/>
      <use xlink:href="#DejaVuSans-64" x="231.298828"/>
     </g>
    </g>
    <g id="line2d_32">
     <path d="M 336.779375 293.004312 
L 346.779375 293.004312 
L 356.779375 293.004312 
" style="fill: none; stroke: #ff0000; stroke-width: 1.5; stroke-linecap: square"/>
    </g>
    <g id="text_19">
     <!-- best -->
     <g transform="translate(364.779375 296.504312)scale(0.1 -0.1)">
      <use xlink:href="#DejaVuSans-62"/>
      <use xlink:href="#DejaVuSans-65" x="63.476562"/>
      <use xlink:href="#DejaVuSans-73" x="125"/>
      <use xlink:href="#DejaVuSans-74" x="177.099609"/>
     </g>
    </g>
   </g>
  </g>
 </g>
 <defs>
  <clipPath id="pea8bf2fea9">
   <rect x="57.6" y="41.472" width="357.12" height="266.112"/>
  </clipPath>
 </defs>
</svg>
