<?xml version="1.0" encoding="utf-8" standalone="no"?>
<!DOCTYPE svg PUBLIC "-//W3C//DTD SVG 1.1//EN"
  "http://www.w3.org/Graphics/SVG/1.1/DTD/svg11.dtd">
<svg xmlns:xlink="http://www.w3.org/1999/xlink" width="460.8pt" height="345.6pt" viewBox="0 0 460.8 345.6" xmlns="http://www.w3.org/2000/svg" version="1.1">
 <metadata>
  <rdf:RDF xmlns:dc="http://purl.org/dc/elements/1.1/" xmlns:cc="http://creativecommons.org/ns#" xmlns:rdf="http://www.w3.org/1999/02/22-rdf-syntax-ns#">
   <cc:Work>
    <dc:type rdf:resource="http://purl.org/dc/dcmitype/StillImage"/>
    <dc:date>2022-11-27T20:27:10.981096</dc:date>
    <dc:format>image/svg+xml</dc:format>
    <dc:creator>
     <cc:Agent>
      <dc:title>Matplotlib v3.5.3, https://matplotlib.org/</dc:title>
     </cc:Agent>
    </dc:creator>
   </cc:Work>
  </rdf:RDF>
 </metadata>
 <defs>
  <style type="text/css">*{stroke-linejoin: round; stroke-linecap: butt}</style>
 </defs>
 <g id="figure_1">
  <g id="patch_1">
   <path d="M 0 345.6 
L 460.8 345.6 
L 460.8 0 
L 0 0 
z
" style="fill: #ffffff"/>
  </g>
  <g id="axes_1">
   <g id="patch_2">
    <path d="M 57.6 307.584 
L 414.72 307.584 
L 414.72 41.472 
L 57.6 41.472 
z
" style="fill: #ffffff"/>
   </g>
   <g id="matplotlib.axis_1">
    <g id="xtick_1">
     <g id="line2d_1">
      <path d="M 73.832727 307.584 
L 73.832727 41.472 
" clip-path="url(#pdd3be154ac)" style="fill: none; stroke: #b0b0b0; stroke-width: 0.8; stroke-linecap: square"/>
     </g>
     <g id="line2d_2">
      <defs>
       <path id="mdfa6ed44cf" d="M 0 0 
L 0 3.5 
" style="stroke: #000000; stroke-width: 0.8"/>
      </defs>
      <g>
       <use xlink:href="#mdfa6ed44cf" x="73.832727" y="307.584" style="stroke: #000000; stroke-width: 0.8"/>
      </g>
     </g>
     <g id="text_1">
      <!-- 0 -->
      <g transform="translate(70.651477 322.182437)scale(0.1 -0.1)">
       <defs>
        <path id="DejaVuSans-30" d="M 2034 4250 
Q 1547 4250 1301 3770 
Q 1056 3291 1056 2328 
Q 1056 1369 1301 889 
Q 1547 409 2034 409 
Q 2525 409 2770 889 
Q 3016 1369 3016 2328 
Q 3016 3291 2770 3770 
Q 2525 4250 2034 4250 
z
M 2034 4750 
Q 2819 4750 3233 4129 
Q 3647 3509 3647 2328 
Q 3647 1150 3233 529 
Q 2819 -91 2034 -91 
Q 1250 -91 836 529 
Q 422 1150 422 2328 
Q 422 3509 836 4129 
Q 1250 4750 2034 4750 
z
" transform="scale(0.015625)"/>
       </defs>
       <use xlink:href="#DejaVuSans-30"/>
      </g>
     </g>
    </g>
    <g id="xtick_2">
     <g id="line2d_3">
      <path d="M 124.71902 307.584 
L 124.71902 41.472 
" clip-path="url(#pdd3be154ac)" style="fill: none; stroke: #b0b0b0; stroke-width: 0.8; stroke-linecap: square"/>
     </g>
     <g id="line2d_4">
      <g>
       <use xlink:href="#mdfa6ed44cf" x="124.71902" y="307.584" style="stroke: #000000; stroke-width: 0.8"/>
      </g>
     </g>
     <g id="text_2">
      <!-- 50 -->
      <g transform="translate(118.35652 322.182437)scale(0.1 -0.1)">
       <defs>
        <path id="DejaVuSans-35" d="M 691 4666 
L 3169 4666 
L 3169 4134 
L 1269 4134 
L 1269 2991 
Q 1406 3038 1543 3061 
Q 1681 3084 1819 3084 
Q 2600 3084 3056 2656 
Q 3513 2228 3513 1497 
Q 3513 744 3044 326 
Q 2575 -91 1722 -91 
Q 1428 -91 1123 -41 
Q 819 9 494 109 
L 494 744 
Q 775 591 1075 516 
Q 1375 441 1709 441 
Q 2250 441 2565 725 
Q 2881 1009 2881 1497 
Q 2881 1984 2565 2268 
Q 2250 2553 1709 2553 
Q 1456 2553 1204 2497 
Q 953 2441 691 2322 
L 691 4666 
z
" transform="scale(0.015625)"/>
       </defs>
       <use xlink:href="#DejaVuSans-35"/>
       <use xlink:href="#DejaVuSans-30" x="63.623047"/>
      </g>
     </g>
    </g>
    <g id="xtick_3">
     <g id="line2d_5">
      <path d="M 175.605312 307.584 
L 175.605312 41.472 
" clip-path="url(#pdd3be154ac)" style="fill: none; stroke: #b0b0b0; stroke-width: 0.8; stroke-linecap: square"/>
     </g>
     <g id="line2d_6">
      <g>
       <use xlink:href="#mdfa6ed44cf" x="175.605312" y="307.584" style="stroke: #000000; stroke-width: 0.8"/>
      </g>
     </g>
     <g id="text_3">
      <!-- 100 -->
      <g transform="translate(166.061562 322.182437)scale(0.1 -0.1)">
       <defs>
        <path id="DejaVuSans-31" d="M 794 531 
L 1825 531 
L 1825 4091 
L 703 3866 
L 703 4441 
L 1819 4666 
L 2450 4666 
L 2450 531 
L 3481 531 
L 3481 0 
L 794 0 
L 794 531 
z
" transform="scale(0.015625)"/>
       </defs>
       <use xlink:href="#DejaVuSans-31"/>
       <use xlink:href="#DejaVuSans-30" x="63.623047"/>
       <use xlink:href="#DejaVuSans-30" x="127.246094"/>
      </g>
     </g>
    </g>
    <g id="xtick_4">
     <g id="line2d_7">
      <path d="M 226.491604 307.584 
L 226.491604 41.472 
" clip-path="url(#pdd3be154ac)" style="fill: none; stroke: #b0b0b0; stroke-width: 0.8; stroke-linecap: square"/>
     </g>
     <g id="line2d_8">
      <g>
       <use xlink:href="#mdfa6ed44cf" x="226.491604" y="307.584" style="stroke: #000000; stroke-width: 0.8"/>
      </g>
     </g>
     <g id="text_4">
      <!-- 150 -->
      <g transform="translate(216.947854 322.182437)scale(0.1 -0.1)">
       <use xlink:href="#DejaVuSans-31"/>
       <use xlink:href="#DejaVuSans-35" x="63.623047"/>
       <use xlink:href="#DejaVuSans-30" x="127.246094"/>
      </g>
     </g>
    </g>
    <g id="xtick_5">
     <g id="line2d_9">
      <path d="M 277.377897 307.584 
L 277.377897 41.472 
" clip-path="url(#pdd3be154ac)" style="fill: none; stroke: #b0b0b0; stroke-width: 0.8; stroke-linecap: square"/>
     </g>
     <g id="line2d_10">
      <g>
       <use xlink:href="#mdfa6ed44cf" x="277.377897" y="307.584" style="stroke: #000000; stroke-width: 0.8"/>
      </g>
     </g>
     <g id="text_5">
      <!-- 200 -->
      <g transform="translate(267.834147 322.182437)scale(0.1 -0.1)">
       <defs>
        <path id="DejaVuSans-32" d="M 1228 531 
L 3431 531 
L 3431 0 
L 469 0 
L 469 531 
Q 828 903 1448 1529 
Q 2069 2156 2228 2338 
Q 2531 2678 2651 2914 
Q 2772 3150 2772 3378 
Q 2772 3750 2511 3984 
Q 2250 4219 1831 4219 
Q 1534 4219 1204 4116 
Q 875 4013 500 3803 
L 500 4441 
Q 881 4594 1212 4672 
Q 1544 4750 1819 4750 
Q 2544 4750 2975 4387 
Q 3406 4025 3406 3419 
Q 3406 3131 3298 2873 
Q 3191 2616 2906 2266 
Q 2828 2175 2409 1742 
Q 1991 1309 1228 531 
z
" transform="scale(0.015625)"/>
       </defs>
       <use xlink:href="#DejaVuSans-32"/>
       <use xlink:href="#DejaVuSans-30" x="63.623047"/>
       <use xlink:href="#DejaVuSans-30" x="127.246094"/>
      </g>
     </g>
    </g>
    <g id="xtick_6">
     <g id="line2d_11">
      <path d="M 328.264189 307.584 
L 328.264189 41.472 
" clip-path="url(#pdd3be154ac)" style="fill: none; stroke: #b0b0b0; stroke-width: 0.8; stroke-linecap: square"/>
     </g>
     <g id="line2d_12">
      <g>
       <use xlink:href="#mdfa6ed44cf" x="328.264189" y="307.584" style="stroke: #000000; stroke-width: 0.8"/>
      </g>
     </g>
     <g id="text_6">
      <!-- 250 -->
      <g transform="translate(318.720439 322.182437)scale(0.1 -0.1)">
       <use xlink:href="#DejaVuSans-32"/>
       <use xlink:href="#DejaVuSans-35" x="63.623047"/>
       <use xlink:href="#DejaVuSans-30" x="127.246094"/>
      </g>
     </g>
    </g>
    <g id="xtick_7">
     <g id="line2d_13">
      <path d="M 379.150482 307.584 
L 379.150482 41.472 
" clip-path="url(#pdd3be154ac)" style="fill: none; stroke: #b0b0b0; stroke-width: 0.8; stroke-linecap: square"/>
     </g>
     <g id="line2d_14">
      <g>
       <use xlink:href="#mdfa6ed44cf" x="379.150482" y="307.584" style="stroke: #000000; stroke-width: 0.8"/>
      </g>
     </g>
     <g id="text_7">
      <!-- 300 -->
      <g transform="translate(369.606732 322.182437)scale(0.1 -0.1)">
       <defs>
        <path id="DejaVuSans-33" d="M 2597 2516 
Q 3050 2419 3304 2112 
Q 3559 1806 3559 1356 
Q 3559 666 3084 287 
Q 2609 -91 1734 -91 
Q 1441 -91 1130 -33 
Q 819 25 488 141 
L 488 750 
Q 750 597 1062 519 
Q 1375 441 1716 441 
Q 2309 441 2620 675 
Q 2931 909 2931 1356 
Q 2931 1769 2642 2001 
Q 2353 2234 1838 2234 
L 1294 2234 
L 1294 2753 
L 1863 2753 
Q 2328 2753 2575 2939 
Q 2822 3125 2822 3475 
Q 2822 3834 2567 4026 
Q 2313 4219 1838 4219 
Q 1578 4219 1281 4162 
Q 984 4106 628 3988 
L 628 4550 
Q 988 4650 1302 4700 
Q 1616 4750 1894 4750 
Q 2613 4750 3031 4423 
Q 3450 4097 3450 3541 
Q 3450 3153 3228 2886 
Q 3006 2619 2597 2516 
z
" transform="scale(0.015625)"/>
       </defs>
       <use xlink:href="#DejaVuSans-33"/>
       <use xlink:href="#DejaVuSans-30" x="63.623047"/>
       <use xlink:href="#DejaVuSans-30" x="127.246094"/>
      </g>
     </g>
    </g>
    <g id="text_8">
     <!-- Generations -->
     <g transform="translate(205.662344 335.860562)scale(0.1 -0.1)">
      <defs>
       <path id="DejaVuSans-47" d="M 3809 666 
L 3809 1919 
L 2778 1919 
L 2778 2438 
L 4434 2438 
L 4434 434 
Q 4069 175 3628 42 
Q 3188 -91 2688 -91 
Q 1594 -91 976 548 
Q 359 1188 359 2328 
Q 359 3472 976 4111 
Q 1594 4750 2688 4750 
Q 3144 4750 3555 4637 
Q 3966 4525 4313 4306 
L 4313 3634 
Q 3963 3931 3569 4081 
Q 3175 4231 2741 4231 
Q 1884 4231 1454 3753 
Q 1025 3275 1025 2328 
Q 1025 1384 1454 906 
Q 1884 428 2741 428 
Q 3075 428 3337 486 
Q 3600 544 3809 666 
z
" transform="scale(0.015625)"/>
       <path id="DejaVuSans-65" d="M 3597 1894 
L 3597 1613 
L 953 1613 
Q 991 1019 1311 708 
Q 1631 397 2203 397 
Q 2534 397 2845 478 
Q 3156 559 3463 722 
L 3463 178 
Q 3153 47 2828 -22 
Q 2503 -91 2169 -91 
Q 1331 -91 842 396 
Q 353 884 353 1716 
Q 353 2575 817 3079 
Q 1281 3584 2069 3584 
Q 2775 3584 3186 3129 
Q 3597 2675 3597 1894 
z
M 3022 2063 
Q 3016 2534 2758 2815 
Q 2500 3097 2075 3097 
Q 1594 3097 1305 2825 
Q 1016 2553 972 2059 
L 3022 2063 
z
" transform="scale(0.015625)"/>
       <path id="DejaVuSans-6e" d="M 3513 2113 
L 3513 0 
L 2938 0 
L 2938 2094 
Q 2938 2591 2744 2837 
Q 2550 3084 2163 3084 
Q 1697 3084 1428 2787 
Q 1159 2491 1159 1978 
L 1159 0 
L 581 0 
L 581 3500 
L 1159 3500 
L 1159 2956 
Q 1366 3272 1645 3428 
Q 1925 3584 2291 3584 
Q 2894 3584 3203 3211 
Q 3513 2838 3513 2113 
z
" transform="scale(0.015625)"/>
       <path id="DejaVuSans-72" d="M 2631 2963 
Q 2534 3019 2420 3045 
Q 2306 3072 2169 3072 
Q 1681 3072 1420 2755 
Q 1159 2438 1159 1844 
L 1159 0 
L 581 0 
L 581 3500 
L 1159 3500 
L 1159 2956 
Q 1341 3275 1631 3429 
Q 1922 3584 2338 3584 
Q 2397 3584 2469 3576 
Q 2541 3569 2628 3553 
L 2631 2963 
z
" transform="scale(0.015625)"/>
       <path id="DejaVuSans-61" d="M 2194 1759 
Q 1497 1759 1228 1600 
Q 959 1441 959 1056 
Q 959 750 1161 570 
Q 1363 391 1709 391 
Q 2188 391 2477 730 
Q 2766 1069 2766 1631 
L 2766 1759 
L 2194 1759 
z
M 3341 1997 
L 3341 0 
L 2766 0 
L 2766 531 
Q 2569 213 2275 61 
Q 1981 -91 1556 -91 
Q 1019 -91 701 211 
Q 384 513 384 1019 
Q 384 1609 779 1909 
Q 1175 2209 1959 2209 
L 2766 2209 
L 2766 2266 
Q 2766 2663 2505 2880 
Q 2244 3097 1772 3097 
Q 1472 3097 1187 3025 
Q 903 2953 641 2809 
L 641 3341 
Q 956 3463 1253 3523 
Q 1550 3584 1831 3584 
Q 2591 3584 2966 3190 
Q 3341 2797 3341 1997 
z
" transform="scale(0.015625)"/>
       <path id="DejaVuSans-74" d="M 1172 4494 
L 1172 3500 
L 2356 3500 
L 2356 3053 
L 1172 3053 
L 1172 1153 
Q 1172 725 1289 603 
Q 1406 481 1766 481 
L 2356 481 
L 2356 0 
L 1766 0 
Q 1100 0 847 248 
Q 594 497 594 1153 
L 594 3053 
L 172 3053 
L 172 3500 
L 594 3500 
L 594 4494 
L 1172 4494 
z
" transform="scale(0.015625)"/>
       <path id="DejaVuSans-69" d="M 603 3500 
L 1178 3500 
L 1178 0 
L 603 0 
L 603 3500 
z
M 603 4863 
L 1178 4863 
L 1178 4134 
L 603 4134 
L 603 4863 
z
" transform="scale(0.015625)"/>
       <path id="DejaVuSans-6f" d="M 1959 3097 
Q 1497 3097 1228 2736 
Q 959 2375 959 1747 
Q 959 1119 1226 758 
Q 1494 397 1959 397 
Q 2419 397 2687 759 
Q 2956 1122 2956 1747 
Q 2956 2369 2687 2733 
Q 2419 3097 1959 3097 
z
M 1959 3584 
Q 2709 3584 3137 3096 
Q 3566 2609 3566 1747 
Q 3566 888 3137 398 
Q 2709 -91 1959 -91 
Q 1206 -91 779 398 
Q 353 888 353 1747 
Q 353 2609 779 3096 
Q 1206 3584 1959 3584 
z
" transform="scale(0.015625)"/>
       <path id="DejaVuSans-73" d="M 2834 3397 
L 2834 2853 
Q 2591 2978 2328 3040 
Q 2066 3103 1784 3103 
Q 1356 3103 1142 2972 
Q 928 2841 928 2578 
Q 928 2378 1081 2264 
Q 1234 2150 1697 2047 
L 1894 2003 
Q 2506 1872 2764 1633 
Q 3022 1394 3022 966 
Q 3022 478 2636 193 
Q 2250 -91 1575 -91 
Q 1294 -91 989 -36 
Q 684 19 347 128 
L 347 722 
Q 666 556 975 473 
Q 1284 391 1588 391 
Q 1994 391 2212 530 
Q 2431 669 2431 922 
Q 2431 1156 2273 1281 
Q 2116 1406 1581 1522 
L 1381 1569 
Q 847 1681 609 1914 
Q 372 2147 372 2553 
Q 372 3047 722 3315 
Q 1072 3584 1716 3584 
Q 2034 3584 2315 3537 
Q 2597 3491 2834 3397 
z
" transform="scale(0.015625)"/>
      </defs>
      <use xlink:href="#DejaVuSans-47"/>
      <use xlink:href="#DejaVuSans-65" x="77.490234"/>
      <use xlink:href="#DejaVuSans-6e" x="139.013672"/>
      <use xlink:href="#DejaVuSans-65" x="202.392578"/>
      <use xlink:href="#DejaVuSans-72" x="263.916016"/>
      <use xlink:href="#DejaVuSans-61" x="305.029297"/>
      <use xlink:href="#DejaVuSans-74" x="366.308594"/>
      <use xlink:href="#DejaVuSans-69" x="405.517578"/>
      <use xlink:href="#DejaVuSans-6f" x="433.300781"/>
      <use xlink:href="#DejaVuSans-6e" x="494.482422"/>
      <use xlink:href="#DejaVuSans-73" x="557.861328"/>
     </g>
    </g>
   </g>
   <g id="matplotlib.axis_2">
    <g id="ytick_1">
     <g id="line2d_15">
      <path d="M 57.6 277.440034 
L 414.72 277.440034 
" clip-path="url(#pdd3be154ac)" style="fill: none; stroke: #b0b0b0; stroke-width: 0.8; stroke-linecap: square"/>
     </g>
     <g id="line2d_16">
      <defs>
       <path id="me2b88cb006" d="M 0 0 
L -3.5 0 
" style="stroke: #000000; stroke-width: 0.8"/>
      </defs>
      <g>
       <use xlink:href="#me2b88cb006" x="57.6" y="277.440034" style="stroke: #000000; stroke-width: 0.8"/>
      </g>
     </g>
     <g id="text_9">
      <!-- −2000 -->
      <g transform="translate(16.770313 281.239253)scale(0.1 -0.1)">
       <defs>
        <path id="DejaVuSans-2212" d="M 678 2272 
L 4684 2272 
L 4684 1741 
L 678 1741 
L 678 2272 
z
" transform="scale(0.015625)"/>
       </defs>
       <use xlink:href="#DejaVuSans-2212"/>
       <use xlink:href="#DejaVuSans-32" x="83.789062"/>
       <use xlink:href="#DejaVuSans-30" x="147.412109"/>
       <use xlink:href="#DejaVuSans-30" x="211.035156"/>
       <use xlink:href="#DejaVuSans-30" x="274.658203"/>
      </g>
     </g>
    </g>
    <g id="ytick_2">
     <g id="line2d_17">
      <path d="M 57.6 231.454256 
L 414.72 231.454256 
" clip-path="url(#pdd3be154ac)" style="fill: none; stroke: #b0b0b0; stroke-width: 0.8; stroke-linecap: square"/>
     </g>
     <g id="line2d_18">
      <g>
       <use xlink:href="#me2b88cb006" x="57.6" y="231.454256" style="stroke: #000000; stroke-width: 0.8"/>
      </g>
     </g>
     <g id="text_10">
      <!-- −1500 -->
      <g transform="translate(16.770313 235.253474)scale(0.1 -0.1)">
       <use xlink:href="#DejaVuSans-2212"/>
       <use xlink:href="#DejaVuSans-31" x="83.789062"/>
       <use xlink:href="#DejaVuSans-35" x="147.412109"/>
       <use xlink:href="#DejaVuSans-30" x="211.035156"/>
       <use xlink:href="#DejaVuSans-30" x="274.658203"/>
      </g>
     </g>
    </g>
    <g id="ytick_3">
     <g id="line2d_19">
      <path d="M 57.6 185.468477 
L 414.72 185.468477 
" clip-path="url(#pdd3be154ac)" style="fill: none; stroke: #b0b0b0; stroke-width: 0.8; stroke-linecap: square"/>
     </g>
     <g id="line2d_20">
      <g>
       <use xlink:href="#me2b88cb006" x="57.6" y="185.468477" style="stroke: #000000; stroke-width: 0.8"/>
      </g>
     </g>
     <g id="text_11">
      <!-- −1000 -->
      <g transform="translate(16.770313 189.267696)scale(0.1 -0.1)">
       <use xlink:href="#DejaVuSans-2212"/>
       <use xlink:href="#DejaVuSans-31" x="83.789062"/>
       <use xlink:href="#DejaVuSans-30" x="147.412109"/>
       <use xlink:href="#DejaVuSans-30" x="211.035156"/>
       <use xlink:href="#DejaVuSans-30" x="274.658203"/>
      </g>
     </g>
    </g>
    <g id="ytick_4">
     <g id="line2d_21">
      <path d="M 57.6 139.482699 
L 414.72 139.482699 
" clip-path="url(#pdd3be154ac)" style="fill: none; stroke: #b0b0b0; stroke-width: 0.8; stroke-linecap: square"/>
     </g>
     <g id="line2d_22">
      <g>
       <use xlink:href="#me2b88cb006" x="57.6" y="139.482699" style="stroke: #000000; stroke-width: 0.8"/>
      </g>
     </g>
     <g id="text_12">
      <!-- −500 -->
      <g transform="translate(23.132812 143.281918)scale(0.1 -0.1)">
       <use xlink:href="#DejaVuSans-2212"/>
       <use xlink:href="#DejaVuSans-35" x="83.789062"/>
       <use xlink:href="#DejaVuSans-30" x="147.412109"/>
       <use xlink:href="#DejaVuSans-30" x="211.035156"/>
      </g>
     </g>
    </g>
    <g id="ytick_5">
     <g id="line2d_23">
      <path d="M 57.6 93.496921 
L 414.72 93.496921 
" clip-path="url(#pdd3be154ac)" style="fill: none; stroke: #b0b0b0; stroke-width: 0.8; stroke-linecap: square"/>
     </g>
     <g id="line2d_24">
      <g>
       <use xlink:href="#me2b88cb006" x="57.6" y="93.496921" style="stroke: #000000; stroke-width: 0.8"/>
      </g>
     </g>
     <g id="text_13">
      <!-- 0 -->
      <g transform="translate(44.2375 97.296139)scale(0.1 -0.1)">
       <use xlink:href="#DejaVuSans-30"/>
      </g>
     </g>
    </g>
    <g id="ytick_6">
     <g id="line2d_25">
      <path d="M 57.6 47.511142 
L 414.72 47.511142 
" clip-path="url(#pdd3be154ac)" style="fill: none; stroke: #b0b0b0; stroke-width: 0.8; stroke-linecap: square"/>
     </g>
     <g id="line2d_26">
      <g>
       <use xlink:href="#me2b88cb006" x="57.6" y="47.511142" style="stroke: #000000; stroke-width: 0.8"/>
      </g>
     </g>
     <g id="text_14">
      <!-- 500 -->
      <g transform="translate(31.5125 51.310361)scale(0.1 -0.1)">
       <use xlink:href="#DejaVuSans-35"/>
       <use xlink:href="#DejaVuSans-30" x="63.623047"/>
       <use xlink:href="#DejaVuSans-30" x="127.246094"/>
      </g>
     </g>
    </g>
    <g id="text_15">
     <!-- Fitness -->
     <g transform="translate(10.690625 191.845187)rotate(-90)scale(0.1 -0.1)">
      <defs>
       <path id="DejaVuSans-46" d="M 628 4666 
L 3309 4666 
L 3309 4134 
L 1259 4134 
L 1259 2759 
L 3109 2759 
L 3109 2228 
L 1259 2228 
L 1259 0 
L 628 0 
L 628 4666 
z
" transform="scale(0.015625)"/>
      </defs>
      <use xlink:href="#DejaVuSans-46"/>
      <use xlink:href="#DejaVuSans-69" x="50.269531"/>
      <use xlink:href="#DejaVuSans-74" x="78.052734"/>
      <use xlink:href="#DejaVuSans-6e" x="117.261719"/>
      <use xlink:href="#DejaVuSans-65" x="180.640625"/>
      <use xlink:href="#DejaVuSans-73" x="242.164062"/>
      <use xlink:href="#DejaVuSans-73" x="294.263672"/>
     </g>
    </g>
   </g>
   <g id="line2d_27">
    <path d="M 73.832727 295.488 
L 74.850453 228.984379 
L 75.868179 199.958656 
L 76.885905 185.121285 
L 77.903631 163.753939 
L 78.921357 144.962156 
L 79.939082 134.214394 
L 81.974534 120.415223 
L 82.99226 116.056737 
L 84.009986 115.162422 
L 85.027712 118.412713 
L 86.045437 118.482432 
L 87.063163 114.785487 
L 88.080889 109.574897 
L 89.098615 109.029494 
L 90.116341 108.936246 
L 91.134067 115.02264 
L 92.151793 108.487983 
L 93.169518 116.23401 
L 94.187244 105.813562 
L 95.20497 106.675005 
L 96.222696 103.398989 
L 97.240422 99.256167 
L 98.258148 104.054182 
L 99.275873 110.687009 
L 100.293599 103.861874 
L 101.311325 105.066201 
L 102.329051 108.652361 
L 103.346777 108.952866 
L 104.364503 104.627637 
L 105.382229 111.132673 
L 106.399954 109.306534 
L 107.41768 101.117348 
L 108.435406 104.424326 
L 109.453132 105.945339 
L 110.470858 101.698929 
L 111.488584 110.548715 
L 112.506309 106.156691 
L 113.524035 109.147684 
L 114.541761 101.319946 
L 115.559487 100.809224 
L 116.577213 107.514992 
L 117.594939 102.656712 
L 118.612665 100.367125 
L 119.63039 104.502207 
L 120.648116 109.961676 
L 121.665842 108.022629 
L 122.683568 108.38819 
L 123.701294 107.244915 
L 125.736746 98.070419 
L 126.754471 106.760851 
L 127.772197 102.760463 
L 128.789923 102.18779 
L 129.807649 99.819589 
L 130.825375 98.519316 
L 131.843101 104.075573 
L 132.860826 105.398188 
L 133.878552 103.59016 
L 134.896278 101.396335 
L 135.914004 103.570778 
L 136.93173 113.847422 
L 137.949456 112.962467 
L 138.967182 109.006045 
L 139.984907 109.522157 
L 141.002633 104.958841 
L 142.020359 102.01583 
L 143.038085 100.883326 
L 144.055811 101.680588 
L 145.073537 104.958754 
L 146.091262 103.237475 
L 147.108988 112.763899 
L 148.126714 111.134527 
L 149.14444 105.157408 
L 150.162166 104.543318 
L 151.179892 105.492889 
L 152.197618 107.941765 
L 153.215343 103.422917 
L 155.250795 106.17138 
L 156.268521 108.040325 
L 157.286247 106.564568 
L 158.303973 111.709482 
L 159.321698 113.573441 
L 160.339424 105.594368 
L 161.35715 111.454818 
L 162.374876 124.79697 
L 163.392602 105.957219 
L 164.410328 103.749412 
L 165.428054 103.755177 
L 166.445779 102.293512 
L 167.463505 112.44473 
L 168.481231 103.493871 
L 169.498957 102.85914 
L 171.534409 107.91692 
L 172.552135 102.169015 
L 173.56986 104.940057 
L 174.587586 105.103737 
L 175.605312 103.47748 
L 176.623038 110.62756 
L 177.640764 101.437225 
L 178.65849 97.613932 
L 179.676215 109.061145 
L 180.693941 105.206931 
L 181.711667 107.213791 
L 182.729393 108.874266 
L 183.747119 104.661501 
L 184.764845 108.004656 
L 185.782571 103.415392 
L 186.800296 111.840413 
L 187.818022 111.751115 
L 188.835748 102.479429 
L 189.853474 112.513921 
L 190.8712 109.487942 
L 191.888926 104.84748 
L 192.906651 106.469336 
L 193.924377 106.674498 
L 194.942103 100.834888 
L 195.959829 104.546773 
L 196.977555 106.889218 
L 197.995281 103.475919 
L 199.013007 108.387512 
L 200.030732 104.612411 
L 201.048458 110.828872 
L 202.066184 107.694247 
L 203.08391 103.293566 
L 204.101636 112.587544 
L 205.119362 111.091209 
L 206.137087 105.18769 
L 207.154813 105.574937 
L 208.172539 100.814958 
L 209.190265 108.933228 
L 210.207991 109.611812 
L 211.225717 104.501198 
L 212.243443 106.694496 
L 213.261168 99.662654 
L 214.278894 106.115104 
L 215.29662 104.61319 
L 216.314346 112.173451 
L 217.332072 97.521826 
L 218.349798 104.627956 
L 219.367524 99.776002 
L 220.385249 98.594065 
L 221.402975 105.186081 
L 222.420701 103.322065 
L 223.438427 100.359905 
L 224.456153 104.465163 
L 225.473879 102.983469 
L 226.491604 102.436901 
L 227.50933 104.520565 
L 228.527056 105.338848 
L 229.544782 100.198217 
L 230.562508 96.986271 
L 231.580234 103.233957 
L 232.59796 104.820125 
L 233.615685 108.409113 
L 234.633411 102.778255 
L 235.651137 101.830414 
L 236.668863 108.266814 
L 237.686589 101.227526 
L 238.704315 99.177703 
L 239.72204 107.191442 
L 240.739766 105.186465 
L 241.757492 99.600763 
L 242.775218 100.855751 
L 243.792944 104.164241 
L 244.81067 110.696252 
L 245.828396 104.027112 
L 246.846121 101.537327 
L 247.863847 100.537069 
L 248.881573 103.055524 
L 249.899299 102.303327 
L 250.917025 107.50138 
L 251.934751 105.263743 
L 252.952476 101.277803 
L 253.970202 104.424704 
L 254.987928 100.628682 
L 256.005654 101.577504 
L 257.02338 107.552445 
L 258.041106 101.490331 
L 259.058832 98.742074 
L 260.076557 102.60482 
L 261.094283 105.746078 
L 262.112009 104.78375 
L 263.129735 101.081053 
L 264.147461 101.91835 
L 265.165187 104.435167 
L 266.182913 107.911815 
L 267.200638 107.210055 
L 268.218364 100.571567 
L 269.23609 102.854736 
L 270.253816 107.492283 
L 271.271542 99.986886 
L 272.289268 111.470847 
L 273.306993 107.202204 
L 274.324719 106.621639 
L 275.342445 108.938297 
L 276.360171 109.949299 
L 277.377897 107.30172 
L 278.395623 107.976847 
L 279.413349 106.039306 
L 280.431074 108.880367 
L 281.4488 107.104451 
L 282.466526 106.298579 
L 283.484252 102.442844 
L 284.501978 105.9124 
L 285.519704 103.769876 
L 286.537429 105.394911 
L 287.555155 104.8911 
L 288.572881 101.76959 
L 289.590607 103.602941 
L 290.608333 104.807347 
L 291.626059 99.470603 
L 293.66151 113.995488 
L 294.679236 105.106017 
L 295.696962 101.03055 
L 296.714688 106.095443 
L 297.732414 103.273222 
L 298.75014 108.004689 
L 299.767865 103.443234 
L 300.785591 108.048917 
L 301.803317 103.979595 
L 302.821043 102.03325 
L 303.838769 102.226549 
L 304.856495 113.899226 
L 305.874221 111.309494 
L 306.891946 104.74994 
L 307.909672 107.939927 
L 308.927398 109.656696 
L 309.945124 102.923353 
L 310.96285 107.915386 
L 311.980576 105.90411 
L 312.998302 108.779152 
L 314.016027 110.017832 
L 315.033753 102.258936 
L 316.051479 100.686977 
L 317.069205 104.560931 
L 319.104657 100.724013 
L 320.122382 104.289366 
L 321.140108 103.619361 
L 322.157834 106.825499 
L 323.17556 107.129396 
L 324.193286 100.284704 
L 325.211012 106.897034 
L 326.228738 102.144835 
L 327.246463 101.231456 
L 328.264189 103.936057 
L 329.281915 100.578674 
L 330.299641 104.699306 
L 331.317367 113.371054 
L 332.335093 105.731597 
L 333.352818 105.038604 
L 334.370544 108.97683 
L 335.38827 105.240427 
L 336.405996 104.735668 
L 337.423722 107.756964 
L 338.441448 107.29412 
L 339.459174 102.97915 
L 340.476899 107.63722 
L 341.494625 106.736665 
L 342.512351 108.330168 
L 343.530077 106.506399 
L 344.547803 102.631117 
L 345.565529 103.94644 
L 346.583254 107.88131 
L 347.60098 106.016983 
L 348.618706 273.440177 
L 349.636432 216.307777 
L 350.654158 198.106292 
L 351.671884 183.425898 
L 353.707335 144.166798 
L 354.725061 151.37165 
L 355.742787 149.218988 
L 356.760513 135.74363 
L 357.778239 135.194984 
L 358.795965 137.512932 
L 359.813691 123.045515 
L 360.831416 117.184369 
L 361.849142 114.472426 
L 362.866868 118.124763 
L 363.884594 109.845467 
L 364.90232 120.468016 
L 365.920046 108.829582 
L 366.937771 112.656442 
L 367.955497 109.434304 
L 368.973223 111.761016 
L 369.990949 110.689864 
L 372.026401 107.654059 
L 373.044127 107.21203 
L 374.061852 103.491397 
L 375.079578 102.185267 
L 376.097304 104.1 
L 377.11503 100.477103 
L 379.150482 107.300068 
L 380.168207 106.458658 
L 381.185933 103.627056 
L 382.203659 108.640157 
L 383.221385 106.236239 
L 384.239111 102.911466 
L 385.256837 100.994953 
L 386.274563 109.166686 
L 388.310014 105.355924 
L 389.32774 103.946381 
L 390.345466 99.992406 
L 392.380918 105.898247 
L 393.398643 104.475705 
L 394.416369 103.493644 
L 395.434095 102.286092 
L 396.451821 104.552031 
L 397.469547 103.48919 
L 398.487273 105.713909 
L 398.487273 105.713909 
" clip-path="url(#pdd3be154ac)" style="fill: none; stroke: #0000ff; stroke-width: 1.5; stroke-linecap: square"/>
   </g>
   <g id="line2d_28">
    <path d="M 73.832727 238.008056 
L 74.850453 188.510432 
L 75.868179 168.524414 
L 76.885905 146.099718 
L 77.903631 120.299609 
L 78.921357 97.879596 
L 79.939082 93.356969 
L 80.956808 86.172692 
L 81.974534 80.523201 
L 82.99226 70.679985 
L 84.009986 80.594565 
L 85.027712 69.245184 
L 86.045437 69.623671 
L 87.063163 64.441711 
L 88.080889 79.361029 
L 89.098615 78.583632 
L 90.116341 75.245137 
L 91.134067 72.800549 
L 92.151793 74.005942 
L 93.169518 71.49321 
L 94.187244 77.47287 
L 95.20497 72.318705 
L 96.222696 81.43285 
L 97.240422 88.702958 
L 98.258148 75.194284 
L 99.275873 59.713934 
L 100.293599 75.073339 
L 101.311325 76.215857 
L 102.329051 71.136996 
L 103.346777 65.085108 
L 104.364503 81.596779 
L 105.382229 64.296767 
L 106.399954 69.49929 
L 107.41768 82.575138 
L 108.435406 64.529171 
L 109.453132 71.847658 
L 110.470858 76.266145 
L 111.488584 75.017794 
L 112.506309 74.214761 
L 113.524035 76.236753 
L 114.541761 80.335062 
L 115.559487 74.358584 
L 116.577213 64.326076 
L 117.594939 77.869047 
L 118.612665 80.105269 
L 119.63039 65.930605 
L 120.648116 57.921324 
L 121.665842 66.596353 
L 122.683568 70.188753 
L 123.701294 72.978755 
L 124.71902 77.588516 
L 125.736746 85.055561 
L 126.754471 72.981151 
L 127.772197 78.452636 
L 129.807649 83.46802 
L 130.825375 85.399039 
L 131.843101 77.047713 
L 132.860826 72.013369 
L 133.878552 77.810315 
L 134.896278 81.388975 
L 135.914004 83.632363 
L 136.93173 62.681806 
L 137.949456 76.965499 
L 138.967182 72.157093 
L 139.984907 64.496719 
L 141.002633 77.786829 
L 142.020359 76.35412 
L 143.038085 82.703337 
L 144.055811 79.029389 
L 145.073537 71.176381 
L 146.091262 78.886193 
L 147.108988 79.172289 
L 148.126714 62.034159 
L 149.14444 72.639622 
L 150.162166 69.299447 
L 151.179892 76.065517 
L 152.197618 71.910067 
L 153.215343 75.951126 
L 154.233069 66.328169 
L 155.250795 78.635564 
L 156.268521 65.645801 
L 157.286247 77.770274 
L 158.303973 77.476626 
L 159.321698 69.316646 
L 160.339424 75.311601 
L 161.35715 62.932202 
L 162.374876 56.873834 
L 163.392602 72.685759 
L 164.410328 81.712523 
L 165.428054 78.861212 
L 166.445779 79.046544 
L 167.463505 70.774439 
L 168.481231 74.254018 
L 169.498957 76.874562 
L 170.516683 76.77018 
L 171.534409 74.908247 
L 172.552135 80.120664 
L 173.56986 81.217698 
L 174.587586 75.156568 
L 175.605312 78.816705 
L 176.623038 62.986456 
L 177.640764 79.622265 
L 178.65849 86.401484 
L 179.676215 68.388724 
L 180.693941 78.002775 
L 181.711667 69.796155 
L 182.729393 77.301916 
L 183.747119 76.687828 
L 184.764845 67.234875 
L 185.782571 78.204432 
L 187.818022 72.47064 
L 188.835748 80.029239 
L 189.853474 70.451106 
L 190.8712 67.445551 
L 191.888926 79.194314 
L 192.906651 70.837028 
L 193.924377 77.784597 
L 194.942103 82.784947 
L 195.959829 76.826895 
L 196.977555 76.76743 
L 197.995281 72.980927 
L 199.013007 68.091808 
L 200.030732 80.537048 
L 201.048458 66.408642 
L 203.08391 77.577898 
L 204.101636 64.956212 
L 205.119362 59.943405 
L 206.137087 72.037105 
L 207.154813 78.784845 
L 208.172539 80.79398 
L 209.190265 71.442808 
L 210.207991 76.604015 
L 211.225717 77.225458 
L 212.243443 74.110416 
L 213.261168 83.784859 
L 214.278894 68.483137 
L 215.29662 69.963696 
L 216.314346 58.341233 
L 217.332072 83.647795 
L 218.349798 72.0074 
L 219.367524 80.829956 
L 220.385249 81.114674 
L 221.402975 66.41526 
L 223.438427 80.715716 
L 224.456153 74.326278 
L 225.473879 76.913864 
L 226.491604 74.259941 
L 227.50933 73.362462 
L 228.527056 74.748505 
L 229.544782 76.858242 
L 230.562508 86.678274 
L 231.580234 63.381882 
L 232.59796 76.443001 
L 233.615685 64.298165 
L 234.633411 65.258185 
L 235.651137 76.094707 
L 236.668863 69.07545 
L 237.686589 77.786649 
L 238.704315 81.907308 
L 239.72204 75.297244 
L 240.739766 67.590607 
L 241.757492 80.455694 
L 242.775218 78.658625 
L 243.792944 69.974246 
L 244.81067 73.104913 
L 245.828396 58.082501 
L 246.846121 78.858761 
L 247.863847 77.726054 
L 248.881573 74.485338 
L 249.899299 79.390983 
L 250.917025 72.033543 
L 251.934751 76.072541 
L 252.952476 77.752005 
L 253.970202 66.453746 
L 254.987928 80.838203 
L 257.02338 67.78219 
L 258.041106 74.528627 
L 259.058832 79.934573 
L 260.076557 70.108408 
L 261.094283 67.937141 
L 263.129735 77.536034 
L 264.147461 68.982469 
L 265.165187 74.386633 
L 267.200638 74.811338 
L 268.218364 77.452198 
L 269.23609 58.119897 
L 270.253816 65.912343 
L 271.271542 82.851336 
L 272.289268 69.307443 
L 273.306993 70.670839 
L 274.324719 72.626319 
L 275.342445 61.513212 
L 276.360171 74.904652 
L 277.377897 77.538165 
L 278.395623 74.934162 
L 279.413349 65.849641 
L 280.431074 71.690878 
L 281.4488 68.324033 
L 282.466526 70.646757 
L 283.484252 78.983088 
L 284.501978 75.036264 
L 285.519704 66.235092 
L 286.537429 78.338407 
L 287.555155 78.061788 
L 288.572881 78.240025 
L 289.590607 68.864953 
L 290.608333 77.294364 
L 291.626059 78.529579 
L 292.643785 77.354087 
L 293.66151 69.659463 
L 294.679236 78.867478 
L 295.696962 78.755917 
L 296.714688 77.880169 
L 297.732414 66.339536 
L 298.75014 64.763182 
L 299.767865 77.940334 
L 300.785591 61.444952 
L 301.803317 63.956999 
L 302.821043 79.910437 
L 303.838769 76.339867 
L 304.856495 53.568 
L 305.874221 60.633883 
L 306.891946 73.79623 
L 307.909672 76.002588 
L 308.927398 75.171668 
L 309.945124 71.75321 
L 310.96285 76.936478 
L 311.980576 74.176384 
L 312.998302 76.276024 
L 314.016027 61.971774 
L 315.033753 76.397285 
L 316.051479 79.53887 
L 317.069205 71.990876 
L 318.086931 70.825586 
L 319.104657 77.617095 
L 320.122382 77.169682 
L 321.140108 78.522784 
L 322.157834 72.878025 
L 323.17556 71.90203 
L 324.193286 70.6075 
L 325.211012 61.184152 
L 326.228738 78.746065 
L 327.246463 78.89182 
L 328.264189 78.834123 
L 329.281915 78.931488 
L 330.299641 60.148292 
L 331.317367 60.9601 
L 332.335093 68.219237 
L 333.352818 64.138589 
L 334.370544 66.72517 
L 335.38827 75.909059 
L 336.405996 75.791476 
L 337.423722 62.559663 
L 338.441448 76.546795 
L 339.459174 76.353399 
L 341.494625 68.610438 
L 342.512351 68.14282 
L 343.530077 72.289605 
L 344.547803 81.896213 
L 345.565529 76.696099 
L 346.583254 68.287359 
L 347.60098 73.941623 
L 348.618706 216.910521 
L 349.636432 186.986493 
L 350.654158 172.671323 
L 351.671884 146.400185 
L 352.68961 116.397153 
L 353.707335 112.339216 
L 354.725061 99.836149 
L 355.742787 97.617508 
L 356.760513 95.81066 
L 357.778239 96.544434 
L 358.795965 86.215802 
L 359.813691 83.562546 
L 360.831416 83.668471 
L 361.849142 82.67112 
L 362.866868 83.32926 
L 363.884594 78.333277 
L 364.90232 64.82277 
L 365.920046 83.896369 
L 366.937771 74.496124 
L 367.955497 77.493801 
L 368.973223 75.162381 
L 369.990949 63.733233 
L 371.008675 62.460211 
L 372.026401 82.080069 
L 373.044127 80.359861 
L 374.061852 79.409458 
L 375.079578 82.110511 
L 376.097304 69.508073 
L 377.11503 82.427806 
L 378.132756 76.021555 
L 379.150482 74.498311 
L 380.168207 78.146284 
L 381.185933 69.404851 
L 382.203659 66.805544 
L 383.221385 70.001594 
L 384.239111 71.529205 
L 385.256837 75.033925 
L 386.274563 72.245962 
L 387.292288 66.089869 
L 388.310014 67.44986 
L 389.32774 69.767387 
L 390.345466 82.978046 
L 391.363192 77.44435 
L 392.380918 73.850685 
L 393.398643 66.840047 
L 394.416369 71.141724 
L 395.434095 79.703218 
L 396.451821 74.953059 
L 397.469547 73.642227 
L 398.487273 65.954107 
L 398.487273 65.954107 
" clip-path="url(#pdd3be154ac)" style="fill: none; stroke-dasharray: 9.6,2.4,1.5,2.4; stroke-dashoffset: 0; stroke: #008000; stroke-width: 1.5"/>
   </g>
   <g id="line2d_29">
    <path d="M 73.832727 171.129225 
L 74.850453 161.228401 
L 75.868179 140.37289 
L 76.885905 97.465022 
L 77.903631 97.465022 
L 78.921357 93.850579 
L 79.939082 93.850579 
L 80.956808 93.509438 
L 93.169518 93.508509 
L 94.187244 93.654013 
L 99.275873 93.520927 
L 347.60098 93.505428 
L 348.618706 188.157054 
L 349.636432 140.237326 
L 350.654158 125.567209 
L 351.671884 113.086483 
L 352.68961 105.25997 
L 353.707335 105.25997 
L 355.742787 100.531769 
L 356.760513 100.531769 
L 357.778239 99.723318 
L 358.795965 95.942282 
L 359.813691 95.942282 
L 360.831416 95.005696 
L 362.866868 93.588082 
L 398.487273 93.506348 
L 398.487273 93.506348 
" clip-path="url(#pdd3be154ac)" style="fill: none; stroke: #ff0000; stroke-width: 1.5; stroke-linecap: square"/>
   </g>
   <g id="patch_3">
    <path d="M 57.6 307.584 
L 57.6 41.472 
" style="fill: none; stroke: #000000; stroke-width: 0.8; stroke-linejoin: miter; stroke-linecap: square"/>
   </g>
   <g id="patch_4">
    <path d="M 414.72 307.584 
L 414.72 41.472 
" style="fill: none; stroke: #000000; stroke-width: 0.8; stroke-linejoin: miter; stroke-linecap: square"/>
   </g>
   <g id="patch_5">
    <path d="M 57.6 307.584 
L 414.72 307.584 
" style="fill: none; stroke: #000000; stroke-width: 0.8; stroke-linejoin: miter; stroke-linecap: square"/>
   </g>
   <g id="patch_6">
    <path d="M 57.6 41.472 
L 414.72 41.472 
" style="fill: none; stroke: #000000; stroke-width: 0.8; stroke-linejoin: miter; stroke-linecap: square"/>
   </g>
   <g id="text_16">
    <!-- Population's average and best fitness -->
    <g transform="translate(123.529687 35.472)scale(0.12 -0.12)">
     <defs>
      <path id="DejaVuSans-50" d="M 1259 4147 
L 1259 2394 
L 2053 2394 
Q 2494 2394 2734 2622 
Q 2975 2850 2975 3272 
Q 2975 3691 2734 3919 
Q 2494 4147 2053 4147 
L 1259 4147 
z
M 628 4666 
L 2053 4666 
Q 2838 4666 3239 4311 
Q 3641 3956 3641 3272 
Q 3641 2581 3239 2228 
Q 2838 1875 2053 1875 
L 1259 1875 
L 1259 0 
L 628 0 
L 628 4666 
z
" transform="scale(0.015625)"/>
      <path id="DejaVuSans-70" d="M 1159 525 
L 1159 -1331 
L 581 -1331 
L 581 3500 
L 1159 3500 
L 1159 2969 
Q 1341 3281 1617 3432 
Q 1894 3584 2278 3584 
Q 2916 3584 3314 3078 
Q 3713 2572 3713 1747 
Q 3713 922 3314 415 
Q 2916 -91 2278 -91 
Q 1894 -91 1617 61 
Q 1341 213 1159 525 
z
M 3116 1747 
Q 3116 2381 2855 2742 
Q 2594 3103 2138 3103 
Q 1681 3103 1420 2742 
Q 1159 2381 1159 1747 
Q 1159 1113 1420 752 
Q 1681 391 2138 391 
Q 2594 391 2855 752 
Q 3116 1113 3116 1747 
z
" transform="scale(0.015625)"/>
      <path id="DejaVuSans-75" d="M 544 1381 
L 544 3500 
L 1119 3500 
L 1119 1403 
Q 1119 906 1312 657 
Q 1506 409 1894 409 
Q 2359 409 2629 706 
Q 2900 1003 2900 1516 
L 2900 3500 
L 3475 3500 
L 3475 0 
L 2900 0 
L 2900 538 
Q 2691 219 2414 64 
Q 2138 -91 1772 -91 
Q 1169 -91 856 284 
Q 544 659 544 1381 
z
M 1991 3584 
L 1991 3584 
z
" transform="scale(0.015625)"/>
      <path id="DejaVuSans-6c" d="M 603 4863 
L 1178 4863 
L 1178 0 
L 603 0 
L 603 4863 
z
" transform="scale(0.015625)"/>
      <path id="DejaVuSans-27" d="M 1147 4666 
L 1147 2931 
L 616 2931 
L 616 4666 
L 1147 4666 
z
" transform="scale(0.015625)"/>
      <path id="DejaVuSans-20" transform="scale(0.015625)"/>
      <path id="DejaVuSans-76" d="M 191 3500 
L 800 3500 
L 1894 563 
L 2988 3500 
L 3597 3500 
L 2284 0 
L 1503 0 
L 191 3500 
z
" transform="scale(0.015625)"/>
      <path id="DejaVuSans-67" d="M 2906 1791 
Q 2906 2416 2648 2759 
Q 2391 3103 1925 3103 
Q 1463 3103 1205 2759 
Q 947 2416 947 1791 
Q 947 1169 1205 825 
Q 1463 481 1925 481 
Q 2391 481 2648 825 
Q 2906 1169 2906 1791 
z
M 3481 434 
Q 3481 -459 3084 -895 
Q 2688 -1331 1869 -1331 
Q 1566 -1331 1297 -1286 
Q 1028 -1241 775 -1147 
L 775 -588 
Q 1028 -725 1275 -790 
Q 1522 -856 1778 -856 
Q 2344 -856 2625 -561 
Q 2906 -266 2906 331 
L 2906 616 
Q 2728 306 2450 153 
Q 2172 0 1784 0 
Q 1141 0 747 490 
Q 353 981 353 1791 
Q 353 2603 747 3093 
Q 1141 3584 1784 3584 
Q 2172 3584 2450 3431 
Q 2728 3278 2906 2969 
L 2906 3500 
L 3481 3500 
L 3481 434 
z
" transform="scale(0.015625)"/>
      <path id="DejaVuSans-64" d="M 2906 2969 
L 2906 4863 
L 3481 4863 
L 3481 0 
L 2906 0 
L 2906 525 
Q 2725 213 2448 61 
Q 2172 -91 1784 -91 
Q 1150 -91 751 415 
Q 353 922 353 1747 
Q 353 2572 751 3078 
Q 1150 3584 1784 3584 
Q 2172 3584 2448 3432 
Q 2725 3281 2906 2969 
z
M 947 1747 
Q 947 1113 1208 752 
Q 1469 391 1925 391 
Q 2381 391 2643 752 
Q 2906 1113 2906 1747 
Q 2906 2381 2643 2742 
Q 2381 3103 1925 3103 
Q 1469 3103 1208 2742 
Q 947 2381 947 1747 
z
" transform="scale(0.015625)"/>
      <path id="DejaVuSans-62" d="M 3116 1747 
Q 3116 2381 2855 2742 
Q 2594 3103 2138 3103 
Q 1681 3103 1420 2742 
Q 1159 2381 1159 1747 
Q 1159 1113 1420 752 
Q 1681 391 2138 391 
Q 2594 391 2855 752 
Q 3116 1113 3116 1747 
z
M 1159 2969 
Q 1341 3281 1617 3432 
Q 1894 3584 2278 3584 
Q 2916 3584 3314 3078 
Q 3713 2572 3713 1747 
Q 3713 922 3314 415 
Q 2916 -91 2278 -91 
Q 1894 -91 1617 61 
Q 1341 213 1159 525 
L 1159 0 
L 581 0 
L 581 4863 
L 1159 4863 
L 1159 2969 
z
" transform="scale(0.015625)"/>
      <path id="DejaVuSans-66" d="M 2375 4863 
L 2375 4384 
L 1825 4384 
Q 1516 4384 1395 4259 
Q 1275 4134 1275 3809 
L 1275 3500 
L 2222 3500 
L 2222 3053 
L 1275 3053 
L 1275 0 
L 697 0 
L 697 3053 
L 147 3053 
L 147 3500 
L 697 3500 
L 697 3744 
Q 697 4328 969 4595 
Q 1241 4863 1831 4863 
L 2375 4863 
z
" transform="scale(0.015625)"/>
     </defs>
     <use xlink:href="#DejaVuSans-50"/>
     <use xlink:href="#DejaVuSans-6f" x="56.677734"/>
     <use xlink:href="#DejaVuSans-70" x="117.859375"/>
     <use xlink:href="#DejaVuSans-75" x="181.335938"/>
     <use xlink:href="#DejaVuSans-6c" x="244.714844"/>
     <use xlink:href="#DejaVuSans-61" x="272.498047"/>
     <use xlink:href="#DejaVuSans-74" x="333.777344"/>
     <use xlink:href="#DejaVuSans-69" x="372.986328"/>
     <use xlink:href="#DejaVuSans-6f" x="400.769531"/>
     <use xlink:href="#DejaVuSans-6e" x="461.951172"/>
     <use xlink:href="#DejaVuSans-27" x="525.330078"/>
     <use xlink:href="#DejaVuSans-73" x="552.820312"/>
     <use xlink:href="#DejaVuSans-20" x="604.919922"/>
     <use xlink:href="#DejaVuSans-61" x="636.707031"/>
     <use xlink:href="#DejaVuSans-76" x="697.986328"/>
     <use xlink:href="#DejaVuSans-65" x="757.166016"/>
     <use xlink:href="#DejaVuSans-72" x="818.689453"/>
     <use xlink:href="#DejaVuSans-61" x="859.802734"/>
     <use xlink:href="#DejaVuSans-67" x="921.082031"/>
     <use xlink:href="#DejaVuSans-65" x="984.558594"/>
     <use xlink:href="#DejaVuSans-20" x="1046.082031"/>
     <use xlink:href="#DejaVuSans-61" x="1077.869141"/>
     <use xlink:href="#DejaVuSans-6e" x="1139.148438"/>
     <use xlink:href="#DejaVuSans-64" x="1202.527344"/>
     <use xlink:href="#DejaVuSans-20" x="1266.003906"/>
     <use xlink:href="#DejaVuSans-62" x="1297.791016"/>
     <use xlink:href="#DejaVuSans-65" x="1361.267578"/>
     <use xlink:href="#DejaVuSans-73" x="1422.791016"/>
     <use xlink:href="#DejaVuSans-74" x="1474.890625"/>
     <use xlink:href="#DejaVuSans-20" x="1514.099609"/>
     <use xlink:href="#DejaVuSans-66" x="1545.886719"/>
     <use xlink:href="#DejaVuSans-69" x="1581.091797"/>
     <use xlink:href="#DejaVuSans-74" x="1608.875"/>
     <use xlink:href="#DejaVuSans-6e" x="1648.083984"/>
     <use xlink:href="#DejaVuSans-65" x="1711.462891"/>
     <use xlink:href="#DejaVuSans-73" x="1772.986328"/>
     <use xlink:href="#DejaVuSans-73" x="1825.085938"/>
    </g>
   </g>
   <g id="legend_1">
    <g id="patch_7">
     <path d="M 199.689687 302.584 
L 272.630313 302.584 
Q 274.630313 302.584 274.630313 300.584 
L 274.630313 257.549625 
Q 274.630313 255.549625 272.630313 255.549625 
L 199.689687 255.549625 
Q 197.689687 255.549625 197.689687 257.549625 
L 197.689687 300.584 
Q 197.689687 302.584 199.689687 302.584 
z
" style="fill: #ffffff; opacity: 0.8; stroke: #cccccc; stroke-linejoin: miter"/>
    </g>
    <g id="line2d_30">
     <path d="M 201.689687 263.648062 
L 211.689687 263.648062 
L 221.689687 263.648062 
" style="fill: none; stroke: #0000ff; stroke-width: 1.5; stroke-linecap: square"/>
    </g>
    <g id="text_17">
     <!-- average -->
     <g transform="translate(229.689687 267.148062)scale(0.1 -0.1)">
      <use xlink:href="#DejaVuSans-61"/>
      <use xlink:href="#DejaVuSans-76" x="61.279297"/>
      <use xlink:href="#DejaVuSans-65" x="120.458984"/>
      <use xlink:href="#DejaVuSans-72" x="181.982422"/>
      <use xlink:href="#DejaVuSans-61" x="223.095703"/>
      <use xlink:href="#DejaVuSans-67" x="284.375"/>
      <use xlink:href="#DejaVuSans-65" x="347.851562"/>
     </g>
    </g>
    <g id="line2d_31">
     <path d="M 201.689687 278.326188 
L 211.689687 278.326188 
L 221.689687 278.326188 
" style="fill: none; stroke-dasharray: 9.6,2.4,1.5,2.4; stroke-dashoffset: 0; stroke: #008000; stroke-width: 1.5"/>
    </g>
    <g id="text_18">
     <!-- +1 sd -->
     <g transform="translate(229.689687 281.826188)scale(0.1 -0.1)">
      <defs>
       <path id="DejaVuSans-2b" d="M 2944 4013 
L 2944 2272 
L 4684 2272 
L 4684 1741 
L 2944 1741 
L 2944 0 
L 2419 0 
L 2419 1741 
L 678 1741 
L 678 2272 
L 2419 2272 
L 2419 4013 
L 2944 4013 
z
" transform="scale(0.015625)"/>
      </defs>
      <use xlink:href="#DejaVuSans-2b"/>
      <use xlink:href="#DejaVuSans-31" x="83.789062"/>
      <use xlink:href="#DejaVuSans-20" x="147.412109"/>
      <use xlink:href="#DejaVuSans-73" x="179.199219"/>
      <use xlink:href="#DejaVuSans-64" x="231.298828"/>
     </g>
    </g>
    <g id="line2d_32">
     <path d="M 201.689687 293.004312 
L 211.689687 293.004312 
L 221.689687 293.004312 
" style="fill: none; stroke: #ff0000; stroke-width: 1.5; stroke-linecap: square"/>
    </g>
    <g id="text_19">
     <!-- best -->
     <g transform="translate(229.689687 296.504312)scale(0.1 -0.1)">
      <use xlink:href="#DejaVuSans-62"/>
      <use xlink:href="#DejaVuSans-65" x="63.476562"/>
      <use xlink:href="#DejaVuSans-73" x="125"/>
      <use xlink:href="#DejaVuSans-74" x="177.099609"/>
     </g>
    </g>
   </g>
  </g>
 </g>
 <defs>
  <clipPath id="pdd3be154ac">
   <rect x="57.6" y="41.472" width="357.12" height="266.112"/>
  </clipPath>
 </defs>
</svg>
