<?xml version="1.0" encoding="utf-8" standalone="no"?>
<!DOCTYPE svg PUBLIC "-//W3C//DTD SVG 1.1//EN"
  "http://www.w3.org/Graphics/SVG/1.1/DTD/svg11.dtd">
<svg xmlns:xlink="http://www.w3.org/1999/xlink" width="460.8pt" height="345.6pt" viewBox="0 0 460.8 345.6" xmlns="http://www.w3.org/2000/svg" version="1.1">
 <metadata>
  <rdf:RDF xmlns:dc="http://purl.org/dc/elements/1.1/" xmlns:cc="http://creativecommons.org/ns#" xmlns:rdf="http://www.w3.org/1999/02/22-rdf-syntax-ns#">
   <cc:Work>
    <dc:type rdf:resource="http://purl.org/dc/dcmitype/StillImage"/>
    <dc:date>2023-02-02T16:37:37.435565</dc:date>
    <dc:format>image/svg+xml</dc:format>
    <dc:creator>
     <cc:Agent>
      <dc:title>Matplotlib v3.5.3, https://matplotlib.org/</dc:title>
     </cc:Agent>
    </dc:creator>
   </cc:Work>
  </rdf:RDF>
 </metadata>
 <defs>
  <style type="text/css">*{stroke-linejoin: round; stroke-linecap: butt}</style>
 </defs>
 <g id="figure_1">
  <g id="patch_1">
   <path d="M 0 345.6 
L 460.8 345.6 
L 460.8 0 
L 0 0 
z
" style="fill: #ffffff"/>
  </g>
  <g id="axes_1">
   <g id="patch_2">
    <path d="M 57.6 307.584 
L 414.72 307.584 
L 414.72 41.472 
L 57.6 41.472 
z
" style="fill: #ffffff"/>
   </g>
   <g id="matplotlib.axis_1">
    <g id="xtick_1">
     <g id="line2d_1">
      <path d="M 73.832727 307.584 
L 73.832727 41.472 
" clip-path="url(#p0542ca8e98)" style="fill: none; stroke: #b0b0b0; stroke-width: 0.8; stroke-linecap: square"/>
     </g>
     <g id="line2d_2">
      <defs>
       <path id="mb248653e1f" d="M 0 0 
L 0 3.5 
" style="stroke: #000000; stroke-width: 0.8"/>
      </defs>
      <g>
       <use xlink:href="#mb248653e1f" x="73.832727" y="307.584" style="stroke: #000000; stroke-width: 0.8"/>
      </g>
     </g>
     <g id="text_1">
      <!-- 0 -->
      <g transform="translate(70.651477 322.182437)scale(0.1 -0.1)">
       <defs>
        <path id="DejaVuSans-30" d="M 2034 4250 
Q 1547 4250 1301 3770 
Q 1056 3291 1056 2328 
Q 1056 1369 1301 889 
Q 1547 409 2034 409 
Q 2525 409 2770 889 
Q 3016 1369 3016 2328 
Q 3016 3291 2770 3770 
Q 2525 4250 2034 4250 
z
M 2034 4750 
Q 2819 4750 3233 4129 
Q 3647 3509 3647 2328 
Q 3647 1150 3233 529 
Q 2819 -91 2034 -91 
Q 1250 -91 836 529 
Q 422 1150 422 2328 
Q 422 3509 836 4129 
Q 1250 4750 2034 4750 
z
" transform="scale(0.015625)"/>
       </defs>
       <use xlink:href="#DejaVuSans-30"/>
      </g>
     </g>
    </g>
    <g id="xtick_2">
     <g id="line2d_3">
      <path d="M 141.610294 307.584 
L 141.610294 41.472 
" clip-path="url(#p0542ca8e98)" style="fill: none; stroke: #b0b0b0; stroke-width: 0.8; stroke-linecap: square"/>
     </g>
     <g id="line2d_4">
      <g>
       <use xlink:href="#mb248653e1f" x="141.610294" y="307.584" style="stroke: #000000; stroke-width: 0.8"/>
      </g>
     </g>
     <g id="text_2">
      <!-- 100 -->
      <g transform="translate(132.066544 322.182437)scale(0.1 -0.1)">
       <defs>
        <path id="DejaVuSans-31" d="M 794 531 
L 1825 531 
L 1825 4091 
L 703 3866 
L 703 4441 
L 1819 4666 
L 2450 4666 
L 2450 531 
L 3481 531 
L 3481 0 
L 794 0 
L 794 531 
z
" transform="scale(0.015625)"/>
       </defs>
       <use xlink:href="#DejaVuSans-31"/>
       <use xlink:href="#DejaVuSans-30" x="63.623047"/>
       <use xlink:href="#DejaVuSans-30" x="127.246094"/>
      </g>
     </g>
    </g>
    <g id="xtick_3">
     <g id="line2d_5">
      <path d="M 209.387861 307.584 
L 209.387861 41.472 
" clip-path="url(#p0542ca8e98)" style="fill: none; stroke: #b0b0b0; stroke-width: 0.8; stroke-linecap: square"/>
     </g>
     <g id="line2d_6">
      <g>
       <use xlink:href="#mb248653e1f" x="209.387861" y="307.584" style="stroke: #000000; stroke-width: 0.8"/>
      </g>
     </g>
     <g id="text_3">
      <!-- 200 -->
      <g transform="translate(199.844111 322.182437)scale(0.1 -0.1)">
       <defs>
        <path id="DejaVuSans-32" d="M 1228 531 
L 3431 531 
L 3431 0 
L 469 0 
L 469 531 
Q 828 903 1448 1529 
Q 2069 2156 2228 2338 
Q 2531 2678 2651 2914 
Q 2772 3150 2772 3378 
Q 2772 3750 2511 3984 
Q 2250 4219 1831 4219 
Q 1534 4219 1204 4116 
Q 875 4013 500 3803 
L 500 4441 
Q 881 4594 1212 4672 
Q 1544 4750 1819 4750 
Q 2544 4750 2975 4387 
Q 3406 4025 3406 3419 
Q 3406 3131 3298 2873 
Q 3191 2616 2906 2266 
Q 2828 2175 2409 1742 
Q 1991 1309 1228 531 
z
" transform="scale(0.015625)"/>
       </defs>
       <use xlink:href="#DejaVuSans-32"/>
       <use xlink:href="#DejaVuSans-30" x="63.623047"/>
       <use xlink:href="#DejaVuSans-30" x="127.246094"/>
      </g>
     </g>
    </g>
    <g id="xtick_4">
     <g id="line2d_7">
      <path d="M 277.165428 307.584 
L 277.165428 41.472 
" clip-path="url(#p0542ca8e98)" style="fill: none; stroke: #b0b0b0; stroke-width: 0.8; stroke-linecap: square"/>
     </g>
     <g id="line2d_8">
      <g>
       <use xlink:href="#mb248653e1f" x="277.165428" y="307.584" style="stroke: #000000; stroke-width: 0.8"/>
      </g>
     </g>
     <g id="text_4">
      <!-- 300 -->
      <g transform="translate(267.621678 322.182437)scale(0.1 -0.1)">
       <defs>
        <path id="DejaVuSans-33" d="M 2597 2516 
Q 3050 2419 3304 2112 
Q 3559 1806 3559 1356 
Q 3559 666 3084 287 
Q 2609 -91 1734 -91 
Q 1441 -91 1130 -33 
Q 819 25 488 141 
L 488 750 
Q 750 597 1062 519 
Q 1375 441 1716 441 
Q 2309 441 2620 675 
Q 2931 909 2931 1356 
Q 2931 1769 2642 2001 
Q 2353 2234 1838 2234 
L 1294 2234 
L 1294 2753 
L 1863 2753 
Q 2328 2753 2575 2939 
Q 2822 3125 2822 3475 
Q 2822 3834 2567 4026 
Q 2313 4219 1838 4219 
Q 1578 4219 1281 4162 
Q 984 4106 628 3988 
L 628 4550 
Q 988 4650 1302 4700 
Q 1616 4750 1894 4750 
Q 2613 4750 3031 4423 
Q 3450 4097 3450 3541 
Q 3450 3153 3228 2886 
Q 3006 2619 2597 2516 
z
" transform="scale(0.015625)"/>
       </defs>
       <use xlink:href="#DejaVuSans-33"/>
       <use xlink:href="#DejaVuSans-30" x="63.623047"/>
       <use xlink:href="#DejaVuSans-30" x="127.246094"/>
      </g>
     </g>
    </g>
    <g id="xtick_5">
     <g id="line2d_9">
      <path d="M 344.942995 307.584 
L 344.942995 41.472 
" clip-path="url(#p0542ca8e98)" style="fill: none; stroke: #b0b0b0; stroke-width: 0.8; stroke-linecap: square"/>
     </g>
     <g id="line2d_10">
      <g>
       <use xlink:href="#mb248653e1f" x="344.942995" y="307.584" style="stroke: #000000; stroke-width: 0.8"/>
      </g>
     </g>
     <g id="text_5">
      <!-- 400 -->
      <g transform="translate(335.399245 322.182437)scale(0.1 -0.1)">
       <defs>
        <path id="DejaVuSans-34" d="M 2419 4116 
L 825 1625 
L 2419 1625 
L 2419 4116 
z
M 2253 4666 
L 3047 4666 
L 3047 1625 
L 3713 1625 
L 3713 1100 
L 3047 1100 
L 3047 0 
L 2419 0 
L 2419 1100 
L 313 1100 
L 313 1709 
L 2253 4666 
z
" transform="scale(0.015625)"/>
       </defs>
       <use xlink:href="#DejaVuSans-34"/>
       <use xlink:href="#DejaVuSans-30" x="63.623047"/>
       <use xlink:href="#DejaVuSans-30" x="127.246094"/>
      </g>
     </g>
    </g>
    <g id="xtick_6">
     <g id="line2d_11">
      <path d="M 412.720562 307.584 
L 412.720562 41.472 
" clip-path="url(#p0542ca8e98)" style="fill: none; stroke: #b0b0b0; stroke-width: 0.8; stroke-linecap: square"/>
     </g>
     <g id="line2d_12">
      <g>
       <use xlink:href="#mb248653e1f" x="412.720562" y="307.584" style="stroke: #000000; stroke-width: 0.8"/>
      </g>
     </g>
     <g id="text_6">
      <!-- 500 -->
      <g transform="translate(403.176812 322.182437)scale(0.1 -0.1)">
       <defs>
        <path id="DejaVuSans-35" d="M 691 4666 
L 3169 4666 
L 3169 4134 
L 1269 4134 
L 1269 2991 
Q 1406 3038 1543 3061 
Q 1681 3084 1819 3084 
Q 2600 3084 3056 2656 
Q 3513 2228 3513 1497 
Q 3513 744 3044 326 
Q 2575 -91 1722 -91 
Q 1428 -91 1123 -41 
Q 819 9 494 109 
L 494 744 
Q 775 591 1075 516 
Q 1375 441 1709 441 
Q 2250 441 2565 725 
Q 2881 1009 2881 1497 
Q 2881 1984 2565 2268 
Q 2250 2553 1709 2553 
Q 1456 2553 1204 2497 
Q 953 2441 691 2322 
L 691 4666 
z
" transform="scale(0.015625)"/>
       </defs>
       <use xlink:href="#DejaVuSans-35"/>
       <use xlink:href="#DejaVuSans-30" x="63.623047"/>
       <use xlink:href="#DejaVuSans-30" x="127.246094"/>
      </g>
     </g>
    </g>
    <g id="text_7">
     <!-- Generations -->
     <g transform="translate(205.662344 335.860562)scale(0.1 -0.1)">
      <defs>
       <path id="DejaVuSans-47" d="M 3809 666 
L 3809 1919 
L 2778 1919 
L 2778 2438 
L 4434 2438 
L 4434 434 
Q 4069 175 3628 42 
Q 3188 -91 2688 -91 
Q 1594 -91 976 548 
Q 359 1188 359 2328 
Q 359 3472 976 4111 
Q 1594 4750 2688 4750 
Q 3144 4750 3555 4637 
Q 3966 4525 4313 4306 
L 4313 3634 
Q 3963 3931 3569 4081 
Q 3175 4231 2741 4231 
Q 1884 4231 1454 3753 
Q 1025 3275 1025 2328 
Q 1025 1384 1454 906 
Q 1884 428 2741 428 
Q 3075 428 3337 486 
Q 3600 544 3809 666 
z
" transform="scale(0.015625)"/>
       <path id="DejaVuSans-65" d="M 3597 1894 
L 3597 1613 
L 953 1613 
Q 991 1019 1311 708 
Q 1631 397 2203 397 
Q 2534 397 2845 478 
Q 3156 559 3463 722 
L 3463 178 
Q 3153 47 2828 -22 
Q 2503 -91 2169 -91 
Q 1331 -91 842 396 
Q 353 884 353 1716 
Q 353 2575 817 3079 
Q 1281 3584 2069 3584 
Q 2775 3584 3186 3129 
Q 3597 2675 3597 1894 
z
M 3022 2063 
Q 3016 2534 2758 2815 
Q 2500 3097 2075 3097 
Q 1594 3097 1305 2825 
Q 1016 2553 972 2059 
L 3022 2063 
z
" transform="scale(0.015625)"/>
       <path id="DejaVuSans-6e" d="M 3513 2113 
L 3513 0 
L 2938 0 
L 2938 2094 
Q 2938 2591 2744 2837 
Q 2550 3084 2163 3084 
Q 1697 3084 1428 2787 
Q 1159 2491 1159 1978 
L 1159 0 
L 581 0 
L 581 3500 
L 1159 3500 
L 1159 2956 
Q 1366 3272 1645 3428 
Q 1925 3584 2291 3584 
Q 2894 3584 3203 3211 
Q 3513 2838 3513 2113 
z
" transform="scale(0.015625)"/>
       <path id="DejaVuSans-72" d="M 2631 2963 
Q 2534 3019 2420 3045 
Q 2306 3072 2169 3072 
Q 1681 3072 1420 2755 
Q 1159 2438 1159 1844 
L 1159 0 
L 581 0 
L 581 3500 
L 1159 3500 
L 1159 2956 
Q 1341 3275 1631 3429 
Q 1922 3584 2338 3584 
Q 2397 3584 2469 3576 
Q 2541 3569 2628 3553 
L 2631 2963 
z
" transform="scale(0.015625)"/>
       <path id="DejaVuSans-61" d="M 2194 1759 
Q 1497 1759 1228 1600 
Q 959 1441 959 1056 
Q 959 750 1161 570 
Q 1363 391 1709 391 
Q 2188 391 2477 730 
Q 2766 1069 2766 1631 
L 2766 1759 
L 2194 1759 
z
M 3341 1997 
L 3341 0 
L 2766 0 
L 2766 531 
Q 2569 213 2275 61 
Q 1981 -91 1556 -91 
Q 1019 -91 701 211 
Q 384 513 384 1019 
Q 384 1609 779 1909 
Q 1175 2209 1959 2209 
L 2766 2209 
L 2766 2266 
Q 2766 2663 2505 2880 
Q 2244 3097 1772 3097 
Q 1472 3097 1187 3025 
Q 903 2953 641 2809 
L 641 3341 
Q 956 3463 1253 3523 
Q 1550 3584 1831 3584 
Q 2591 3584 2966 3190 
Q 3341 2797 3341 1997 
z
" transform="scale(0.015625)"/>
       <path id="DejaVuSans-74" d="M 1172 4494 
L 1172 3500 
L 2356 3500 
L 2356 3053 
L 1172 3053 
L 1172 1153 
Q 1172 725 1289 603 
Q 1406 481 1766 481 
L 2356 481 
L 2356 0 
L 1766 0 
Q 1100 0 847 248 
Q 594 497 594 1153 
L 594 3053 
L 172 3053 
L 172 3500 
L 594 3500 
L 594 4494 
L 1172 4494 
z
" transform="scale(0.015625)"/>
       <path id="DejaVuSans-69" d="M 603 3500 
L 1178 3500 
L 1178 0 
L 603 0 
L 603 3500 
z
M 603 4863 
L 1178 4863 
L 1178 4134 
L 603 4134 
L 603 4863 
z
" transform="scale(0.015625)"/>
       <path id="DejaVuSans-6f" d="M 1959 3097 
Q 1497 3097 1228 2736 
Q 959 2375 959 1747 
Q 959 1119 1226 758 
Q 1494 397 1959 397 
Q 2419 397 2687 759 
Q 2956 1122 2956 1747 
Q 2956 2369 2687 2733 
Q 2419 3097 1959 3097 
z
M 1959 3584 
Q 2709 3584 3137 3096 
Q 3566 2609 3566 1747 
Q 3566 888 3137 398 
Q 2709 -91 1959 -91 
Q 1206 -91 779 398 
Q 353 888 353 1747 
Q 353 2609 779 3096 
Q 1206 3584 1959 3584 
z
" transform="scale(0.015625)"/>
       <path id="DejaVuSans-73" d="M 2834 3397 
L 2834 2853 
Q 2591 2978 2328 3040 
Q 2066 3103 1784 3103 
Q 1356 3103 1142 2972 
Q 928 2841 928 2578 
Q 928 2378 1081 2264 
Q 1234 2150 1697 2047 
L 1894 2003 
Q 2506 1872 2764 1633 
Q 3022 1394 3022 966 
Q 3022 478 2636 193 
Q 2250 -91 1575 -91 
Q 1294 -91 989 -36 
Q 684 19 347 128 
L 347 722 
Q 666 556 975 473 
Q 1284 391 1588 391 
Q 1994 391 2212 530 
Q 2431 669 2431 922 
Q 2431 1156 2273 1281 
Q 2116 1406 1581 1522 
L 1381 1569 
Q 847 1681 609 1914 
Q 372 2147 372 2553 
Q 372 3047 722 3315 
Q 1072 3584 1716 3584 
Q 2034 3584 2315 3537 
Q 2597 3491 2834 3397 
z
" transform="scale(0.015625)"/>
      </defs>
      <use xlink:href="#DejaVuSans-47"/>
      <use xlink:href="#DejaVuSans-65" x="77.490234"/>
      <use xlink:href="#DejaVuSans-6e" x="139.013672"/>
      <use xlink:href="#DejaVuSans-65" x="202.392578"/>
      <use xlink:href="#DejaVuSans-72" x="263.916016"/>
      <use xlink:href="#DejaVuSans-61" x="305.029297"/>
      <use xlink:href="#DejaVuSans-74" x="366.308594"/>
      <use xlink:href="#DejaVuSans-69" x="405.517578"/>
      <use xlink:href="#DejaVuSans-6f" x="433.300781"/>
      <use xlink:href="#DejaVuSans-6e" x="494.482422"/>
      <use xlink:href="#DejaVuSans-73" x="557.861328"/>
     </g>
    </g>
   </g>
   <g id="matplotlib.axis_2">
    <g id="ytick_1">
     <g id="line2d_13">
      <path d="M 57.6 291.585124 
L 414.72 291.585124 
" clip-path="url(#p0542ca8e98)" style="fill: none; stroke: #b0b0b0; stroke-width: 0.8; stroke-linecap: square"/>
     </g>
     <g id="line2d_14">
      <defs>
       <path id="mc4cf85c2ee" d="M 0 0 
L -3.5 0 
" style="stroke: #000000; stroke-width: 0.8"/>
      </defs>
      <g>
       <use xlink:href="#mc4cf85c2ee" x="57.6" y="291.585124" style="stroke: #000000; stroke-width: 0.8"/>
      </g>
     </g>
     <g id="text_8">
      <!-- −800 -->
      <g transform="translate(23.132812 295.384342)scale(0.1 -0.1)">
       <defs>
        <path id="DejaVuSans-2212" d="M 678 2272 
L 4684 2272 
L 4684 1741 
L 678 1741 
L 678 2272 
z
" transform="scale(0.015625)"/>
        <path id="DejaVuSans-38" d="M 2034 2216 
Q 1584 2216 1326 1975 
Q 1069 1734 1069 1313 
Q 1069 891 1326 650 
Q 1584 409 2034 409 
Q 2484 409 2743 651 
Q 3003 894 3003 1313 
Q 3003 1734 2745 1975 
Q 2488 2216 2034 2216 
z
M 1403 2484 
Q 997 2584 770 2862 
Q 544 3141 544 3541 
Q 544 4100 942 4425 
Q 1341 4750 2034 4750 
Q 2731 4750 3128 4425 
Q 3525 4100 3525 3541 
Q 3525 3141 3298 2862 
Q 3072 2584 2669 2484 
Q 3125 2378 3379 2068 
Q 3634 1759 3634 1313 
Q 3634 634 3220 271 
Q 2806 -91 2034 -91 
Q 1263 -91 848 271 
Q 434 634 434 1313 
Q 434 1759 690 2068 
Q 947 2378 1403 2484 
z
M 1172 3481 
Q 1172 3119 1398 2916 
Q 1625 2713 2034 2713 
Q 2441 2713 2670 2916 
Q 2900 3119 2900 3481 
Q 2900 3844 2670 4047 
Q 2441 4250 2034 4250 
Q 1625 4250 1398 4047 
Q 1172 3844 1172 3481 
z
" transform="scale(0.015625)"/>
       </defs>
       <use xlink:href="#DejaVuSans-2212"/>
       <use xlink:href="#DejaVuSans-38" x="83.789062"/>
       <use xlink:href="#DejaVuSans-30" x="147.412109"/>
       <use xlink:href="#DejaVuSans-30" x="211.035156"/>
      </g>
     </g>
    </g>
    <g id="ytick_2">
     <g id="line2d_15">
      <path d="M 57.6 242.427445 
L 414.72 242.427445 
" clip-path="url(#p0542ca8e98)" style="fill: none; stroke: #b0b0b0; stroke-width: 0.8; stroke-linecap: square"/>
     </g>
     <g id="line2d_16">
      <g>
       <use xlink:href="#mc4cf85c2ee" x="57.6" y="242.427445" style="stroke: #000000; stroke-width: 0.8"/>
      </g>
     </g>
     <g id="text_9">
      <!-- −600 -->
      <g transform="translate(23.132812 246.226664)scale(0.1 -0.1)">
       <defs>
        <path id="DejaVuSans-36" d="M 2113 2584 
Q 1688 2584 1439 2293 
Q 1191 2003 1191 1497 
Q 1191 994 1439 701 
Q 1688 409 2113 409 
Q 2538 409 2786 701 
Q 3034 994 3034 1497 
Q 3034 2003 2786 2293 
Q 2538 2584 2113 2584 
z
M 3366 4563 
L 3366 3988 
Q 3128 4100 2886 4159 
Q 2644 4219 2406 4219 
Q 1781 4219 1451 3797 
Q 1122 3375 1075 2522 
Q 1259 2794 1537 2939 
Q 1816 3084 2150 3084 
Q 2853 3084 3261 2657 
Q 3669 2231 3669 1497 
Q 3669 778 3244 343 
Q 2819 -91 2113 -91 
Q 1303 -91 875 529 
Q 447 1150 447 2328 
Q 447 3434 972 4092 
Q 1497 4750 2381 4750 
Q 2619 4750 2861 4703 
Q 3103 4656 3366 4563 
z
" transform="scale(0.015625)"/>
       </defs>
       <use xlink:href="#DejaVuSans-2212"/>
       <use xlink:href="#DejaVuSans-36" x="83.789062"/>
       <use xlink:href="#DejaVuSans-30" x="147.412109"/>
       <use xlink:href="#DejaVuSans-30" x="211.035156"/>
      </g>
     </g>
    </g>
    <g id="ytick_3">
     <g id="line2d_17">
      <path d="M 57.6 193.269767 
L 414.72 193.269767 
" clip-path="url(#p0542ca8e98)" style="fill: none; stroke: #b0b0b0; stroke-width: 0.8; stroke-linecap: square"/>
     </g>
     <g id="line2d_18">
      <g>
       <use xlink:href="#mc4cf85c2ee" x="57.6" y="193.269767" style="stroke: #000000; stroke-width: 0.8"/>
      </g>
     </g>
     <g id="text_10">
      <!-- −400 -->
      <g transform="translate(23.132812 197.068986)scale(0.1 -0.1)">
       <use xlink:href="#DejaVuSans-2212"/>
       <use xlink:href="#DejaVuSans-34" x="83.789062"/>
       <use xlink:href="#DejaVuSans-30" x="147.412109"/>
       <use xlink:href="#DejaVuSans-30" x="211.035156"/>
      </g>
     </g>
    </g>
    <g id="ytick_4">
     <g id="line2d_19">
      <path d="M 57.6 144.112088 
L 414.72 144.112088 
" clip-path="url(#p0542ca8e98)" style="fill: none; stroke: #b0b0b0; stroke-width: 0.8; stroke-linecap: square"/>
     </g>
     <g id="line2d_20">
      <g>
       <use xlink:href="#mc4cf85c2ee" x="57.6" y="144.112088" style="stroke: #000000; stroke-width: 0.8"/>
      </g>
     </g>
     <g id="text_11">
      <!-- −200 -->
      <g transform="translate(23.132812 147.911307)scale(0.1 -0.1)">
       <use xlink:href="#DejaVuSans-2212"/>
       <use xlink:href="#DejaVuSans-32" x="83.789062"/>
       <use xlink:href="#DejaVuSans-30" x="147.412109"/>
       <use xlink:href="#DejaVuSans-30" x="211.035156"/>
      </g>
     </g>
    </g>
    <g id="ytick_5">
     <g id="line2d_21">
      <path d="M 57.6 94.95441 
L 414.72 94.95441 
" clip-path="url(#p0542ca8e98)" style="fill: none; stroke: #b0b0b0; stroke-width: 0.8; stroke-linecap: square"/>
     </g>
     <g id="line2d_22">
      <g>
       <use xlink:href="#mc4cf85c2ee" x="57.6" y="94.95441" style="stroke: #000000; stroke-width: 0.8"/>
      </g>
     </g>
     <g id="text_12">
      <!-- 0 -->
      <g transform="translate(44.2375 98.753629)scale(0.1 -0.1)">
       <use xlink:href="#DejaVuSans-30"/>
      </g>
     </g>
    </g>
    <g id="ytick_6">
     <g id="line2d_23">
      <path d="M 57.6 45.796732 
L 414.72 45.796732 
" clip-path="url(#p0542ca8e98)" style="fill: none; stroke: #b0b0b0; stroke-width: 0.8; stroke-linecap: square"/>
     </g>
     <g id="line2d_24">
      <g>
       <use xlink:href="#mc4cf85c2ee" x="57.6" y="45.796732" style="stroke: #000000; stroke-width: 0.8"/>
      </g>
     </g>
     <g id="text_13">
      <!-- 200 -->
      <g transform="translate(31.5125 49.59595)scale(0.1 -0.1)">
       <use xlink:href="#DejaVuSans-32"/>
       <use xlink:href="#DejaVuSans-30" x="63.623047"/>
       <use xlink:href="#DejaVuSans-30" x="127.246094"/>
      </g>
     </g>
    </g>
    <g id="text_14">
     <!-- Fitness -->
     <g transform="translate(17.053125 191.845187)rotate(-90)scale(0.1 -0.1)">
      <defs>
       <path id="DejaVuSans-46" d="M 628 4666 
L 3309 4666 
L 3309 4134 
L 1259 4134 
L 1259 2759 
L 3109 2759 
L 3109 2228 
L 1259 2228 
L 1259 0 
L 628 0 
L 628 4666 
z
" transform="scale(0.015625)"/>
      </defs>
      <use xlink:href="#DejaVuSans-46"/>
      <use xlink:href="#DejaVuSans-69" x="50.269531"/>
      <use xlink:href="#DejaVuSans-74" x="78.052734"/>
      <use xlink:href="#DejaVuSans-6e" x="117.261719"/>
      <use xlink:href="#DejaVuSans-65" x="180.640625"/>
      <use xlink:href="#DejaVuSans-73" x="242.164062"/>
      <use xlink:href="#DejaVuSans-73" x="294.263672"/>
     </g>
    </g>
   </g>
   <g id="line2d_25">
    <path d="M 73.832727 240.396042 
L 75.188279 225.887604 
L 76.54383 219.120493 
L 77.221606 213.722905 
L 77.899381 211.423187 
L 78.577157 201.008976 
L 79.254933 144.517258 
L 79.932708 115.929387 
L 81.28826 99.665149 
L 81.966035 106.334126 
L 82.643811 106.653251 
L 83.321587 115.461089 
L 83.999362 105.04213 
L 84.677138 101.768955 
L 85.354914 102.95244 
L 86.032689 106.872213 
L 86.710465 112.668815 
L 87.388241 117.348699 
L 88.066016 108.502268 
L 88.743792 127.417437 
L 89.421568 109.153643 
L 90.099343 108.906191 
L 90.777119 107.158028 
L 91.454895 112.245844 
L 92.13267 110.265689 
L 92.810446 109.972376 
L 93.488222 109.971924 
L 94.165997 108.825544 
L 94.843773 118.188774 
L 95.521549 109.92437 
L 96.199324 107.24961 
L 96.8771 107.903564 
L 97.554876 105.386973 
L 98.232651 112.645108 
L 98.910427 111.977845 
L 99.588203 119.059881 
L 100.265978 112.743062 
L 100.943754 110.987117 
L 101.62153 111.550647 
L 102.299305 119.142801 
L 103.654857 112.995264 
L 104.332632 106.503718 
L 105.688184 108.703775 
L 106.365959 108.125803 
L 107.043735 107.790667 
L 107.721511 111.257338 
L 108.399286 108.176113 
L 109.077062 123.813496 
L 109.754838 111.448838 
L 110.432613 104.75938 
L 111.110389 115.97321 
L 111.788165 108.360244 
L 112.46594 123.617645 
L 113.143716 111.774342 
L 113.821492 115.591453 
L 114.499267 108.376067 
L 115.177043 117.925813 
L 115.854819 118.508629 
L 116.532594 109.536397 
L 117.21037 120.193084 
L 117.888146 109.294225 
L 118.565921 114.948698 
L 119.243697 109.686286 
L 119.921473 108.302112 
L 120.599248 103.423436 
L 121.277024 113.733309 
L 121.9548 105.946087 
L 122.632575 130.774763 
L 123.310351 114.250107 
L 123.988127 113.835134 
L 124.665902 116.466428 
L 125.343678 291.463117 
L 126.021454 281.423781 
L 126.699229 274.70336 
L 127.377005 269.126467 
L 128.054781 259.503655 
L 128.732556 256.116005 
L 129.410332 255.663394 
L 130.088108 250.53227 
L 130.765883 249.955066 
L 131.443659 249.665256 
L 132.121435 249.89694 
L 133.476986 247.10813 
L 134.154762 249.877318 
L 134.832537 234.493848 
L 135.510313 237.178961 
L 136.188089 233.847985 
L 136.865864 235.204361 
L 137.54364 233.886409 
L 138.221416 231.944045 
L 138.899191 231.408632 
L 139.576967 228.578411 
L 140.254743 221.083174 
L 140.932519 206.817628 
L 141.610294 172.588502 
L 142.965846 145.927069 
L 143.643621 125.288617 
L 144.321397 117.625115 
L 144.999173 105.096324 
L 145.676948 110.923366 
L 146.354724 112.506292 
L 147.0325 105.032546 
L 147.710275 105.185041 
L 148.388051 103.929507 
L 149.065827 100.565603 
L 149.743602 100.985927 
L 150.421378 104.551996 
L 151.099154 109.187495 
L 151.776929 108.182912 
L 152.454705 104.922738 
L 153.132481 103.740034 
L 153.810256 101.165002 
L 154.488032 97.612977 
L 155.165808 104.266342 
L 155.843583 99.527713 
L 156.521359 101.726856 
L 157.199135 103.26901 
L 157.87691 100.504222 
L 158.554686 103.345437 
L 159.232462 108.303979 
L 159.910237 96.592167 
L 160.588013 98.015207 
L 161.265789 106.426747 
L 161.943564 103.268804 
L 162.62134 111.647409 
L 163.299116 113.112523 
L 163.976891 117.394325 
L 164.654667 103.425714 
L 165.332443 103.812455 
L 166.010218 120.222727 
L 166.687994 115.914516 
L 167.36577 103.06078 
L 168.043545 110.580729 
L 168.721321 107.903305 
L 169.399097 109.013753 
L 170.076872 105.441466 
L 170.754648 108.563648 
L 171.432424 103.86304 
L 172.110199 109.830733 
L 172.787975 102.655166 
L 173.465751 102.188867 
L 174.143526 117.666221 
L 174.821302 105.500261 
L 175.499078 115.625433 
L 176.176853 109.048143 
L 176.854629 105.882953 
L 177.532405 103.395658 
L 178.21018 105.974836 
L 178.887956 104.066712 
L 179.565732 111.921896 
L 180.243507 103.336401 
L 180.921283 118.560961 
L 181.599059 117.475718 
L 182.276834 103.958465 
L 182.95461 103.096873 
L 183.632386 100.364563 
L 184.310161 108.650793 
L 185.665713 104.541532 
L 186.343488 295.488 
L 187.021264 283.479097 
L 187.69904 274.005183 
L 188.376815 268.878334 
L 189.054591 253.828431 
L 189.732367 248.26324 
L 190.410142 240.202837 
L 191.087918 214.95259 
L 191.765694 171.812724 
L 192.443469 153.383342 
L 193.799021 141.266595 
L 194.476796 146.455824 
L 195.154572 145.738116 
L 195.832348 151.119089 
L 196.510123 144.725157 
L 197.187899 144.39011 
L 197.865675 149.059436 
L 198.54345 136.158681 
L 199.221226 138.99261 
L 199.899002 160.360354 
L 200.576777 231.590653 
L 201.254553 232.13213 
L 201.932329 234.220299 
L 203.28788 225.867744 
L 203.965656 228.676166 
L 204.643431 225.316831 
L 205.321207 223.908785 
L 205.998983 223.618101 
L 206.676758 225.20493 
L 207.354534 223.652853 
L 208.03231 225.072862 
L 208.710085 219.082495 
L 209.387861 219.872285 
L 210.065637 216.770489 
L 210.743412 214.765411 
L 211.421188 215.44168 
L 212.098964 215.959032 
L 212.776739 210.405257 
L 213.454515 203.520184 
L 214.132291 207.778708 
L 214.810066 206.367293 
L 215.487842 198.739114 
L 216.165618 200.049563 
L 216.843393 193.281102 
L 217.521169 199.087414 
L 218.198945 197.31735 
L 218.87672 182.930762 
L 219.554496 197.851987 
L 220.232272 190.000279 
L 220.910047 177.274817 
L 221.587823 121.405408 
L 222.265599 103.856666 
L 222.943374 115.274777 
L 223.62115 109.914087 
L 224.298926 115.191927 
L 224.976701 117.503793 
L 226.332253 104.552957 
L 227.010028 105.650124 
L 227.687804 109.380227 
L 228.36558 101.866188 
L 229.043355 104.020574 
L 229.721131 112.730762 
L 230.398907 98.238159 
L 231.076682 107.615542 
L 231.754458 108.105733 
L 232.432234 109.292456 
L 233.110009 105.806831 
L 233.787785 116.253522 
L 234.465561 112.212213 
L 235.143336 109.951746 
L 235.821112 104.763236 
L 236.498888 108.154581 
L 237.176664 104.275245 
L 237.854439 106.742416 
L 238.532215 103.799323 
L 239.209991 102.116207 
L 239.887766 104.777365 
L 240.565542 105.933656 
L 241.243318 105.876956 
L 241.921093 111.574494 
L 242.598869 103.33614 
L 243.276645 113.476693 
L 243.95442 116.346197 
L 244.632196 103.276809 
L 245.309972 108.297031 
L 245.987747 103.747635 
L 246.665523 118.61292 
L 247.343299 100.985456 
L 248.69885 106.339215 
L 249.376626 103.818002 
L 250.054401 114.776497 
L 250.732177 103.428744 
L 251.409953 109.247449 
L 252.087728 112.265616 
L 252.765504 108.998287 
L 253.44328 125.458972 
L 254.121055 112.49007 
L 254.798831 110.74463 
L 255.476607 118.316288 
L 256.154382 120.081086 
L 256.832158 98.602563 
L 257.509934 110.625208 
L 258.187709 112.114476 
L 258.865485 105.293631 
L 260.221036 107.965855 
L 260.898812 294.125014 
L 261.576588 282.658123 
L 262.254363 259.384877 
L 262.932139 175.764208 
L 263.609915 147.714132 
L 264.28769 154.08009 
L 264.965466 141.306159 
L 265.643242 144.965972 
L 266.321017 144.971255 
L 266.998793 145.553122 
L 267.676569 142.514175 
L 268.354344 141.946414 
L 269.03212 134.139585 
L 269.709896 143.789023 
L 270.387671 143.429808 
L 271.065447 135.46913 
L 271.743223 145.598886 
L 272.420998 146.452382 
L 273.098774 138.736651 
L 273.77655 258.058586 
L 274.454325 261.688697 
L 275.132101 261.11155 
L 275.809877 261.285888 
L 276.487652 258.201276 
L 277.165428 247.343487 
L 277.843204 246.40817 
L 278.520979 244.144584 
L 279.198755 245.736337 
L 279.876531 233.588155 
L 280.554306 163.673143 
L 281.232082 118.652241 
L 281.909858 111.189201 
L 282.587633 118.420439 
L 283.265409 119.230911 
L 283.943185 114.212588 
L 284.62096 106.492712 
L 285.298736 113.119211 
L 285.976512 121.097111 
L 286.654287 112.071434 
L 287.332063 120.655698 
L 288.009839 118.081588 
L 288.687614 110.790481 
L 289.36539 114.593561 
L 290.043166 112.826008 
L 290.720941 114.472087 
L 291.398717 115.253029 
L 292.076493 113.546081 
L 292.754268 116.313139 
L 293.432044 114.378165 
L 294.10982 114.632885 
L 294.787595 120.119516 
L 295.465371 110.919466 
L 296.143147 109.041864 
L 296.820922 122.314025 
L 297.498698 96.887416 
L 298.176474 117.222878 
L 298.854249 109.474166 
L 299.532025 122.034681 
L 300.209801 119.295386 
L 300.887576 114.115271 
L 301.565352 111.568552 
L 302.243128 125.285638 
L 302.920903 107.650987 
L 303.598679 109.384622 
L 304.276455 114.397282 
L 304.95423 115.116343 
L 305.632006 112.267834 
L 306.309782 107.137446 
L 306.987557 106.531723 
L 307.665333 113.055036 
L 308.343109 111.4072 
L 309.020884 116.221628 
L 309.69866 118.508151 
L 310.376436 104.149968 
L 311.054211 111.185682 
L 311.731987 115.623029 
L 312.409763 113.57415 
L 313.087538 119.702439 
L 313.765314 112.341674 
L 314.44309 115.886623 
L 315.120865 290.59516 
L 315.798641 281.020757 
L 316.476417 274.235641 
L 317.154192 270.003 
L 317.831968 263.618426 
L 318.509744 259.398265 
L 319.187519 240.329828 
L 319.865295 159.94156 
L 320.543071 108.026925 
L 321.220846 110.013946 
L 321.898622 104.461037 
L 322.576398 107.421355 
L 323.254173 102.262842 
L 323.931949 103.706403 
L 324.609725 104.683694 
L 325.2875 100.25945 
L 325.965276 103.837116 
L 326.643052 110.027734 
L 327.320827 98.933326 
L 327.998603 103.779821 
L 328.676379 104.026556 
L 329.354154 106.567175 
L 330.03193 106.74897 
L 330.709706 103.913125 
L 331.387481 274.289922 
L 332.065257 263.249992 
L 332.743033 242.659685 
L 334.098584 115.509198 
L 334.77636 134.333076 
L 335.454136 123.780263 
L 336.131911 133.510157 
L 336.809687 121.188026 
L 337.487463 114.713269 
L 338.165238 106.898016 
L 338.843014 115.698068 
L 339.52079 107.343185 
L 340.198565 108.585073 
L 340.876341 109.056588 
L 341.554117 114.853138 
L 342.231892 98.404845 
L 342.909668 113.2408 
L 343.587444 108.355002 
L 344.265219 115.80325 
L 344.942995 104.809476 
L 345.620771 103.541821 
L 346.298546 100.299424 
L 346.976322 109.336575 
L 347.654098 105.005297 
L 348.331873 110.537563 
L 349.009649 109.355475 
L 349.687425 122.516589 
L 350.3652 109.514727 
L 351.042976 116.343514 
L 351.720752 105.271478 
L 352.398527 117.832532 
L 353.076303 111.84257 
L 353.754079 118.94325 
L 354.431854 110.844112 
L 355.10963 111.92734 
L 355.787406 276.324322 
L 357.142957 259.667699 
L 357.820733 254.51574 
L 358.498508 252.058988 
L 359.176284 248.517525 
L 359.85406 246.099341 
L 360.531835 245.367776 
L 361.887387 242.781137 
L 362.565162 239.416545 
L 363.242938 238.787327 
L 363.920714 234.611679 
L 364.598489 239.073552 
L 365.276265 234.574479 
L 366.631816 230.858971 
L 367.309592 231.386361 
L 367.987368 229.089632 
L 368.665143 228.507697 
L 369.342919 229.105568 
L 370.020695 228.021681 
L 370.69847 220.734263 
L 372.054022 142.031708 
L 372.731797 128.251399 
L 373.409573 122.868483 
L 374.087349 130.55739 
L 374.765124 124.322012 
L 375.4429 121.465847 
L 376.120676 131.004797 
L 376.798451 122.846182 
L 377.476227 124.713334 
L 378.154003 132.763836 
L 378.831778 123.751089 
L 379.509554 130.991449 
L 380.18733 124.675692 
L 380.865105 119.779703 
L 381.542881 116.229775 
L 382.220657 121.492245 
L 382.898432 119.689389 
L 383.576208 128.152088 
L 384.253984 118.036277 
L 384.931759 114.545314 
L 385.609535 122.52778 
L 386.287311 125.774552 
L 386.965086 129.747222 
L 387.642862 119.669653 
L 388.320638 120.920292 
L 388.998413 124.320535 
L 389.676189 125.364943 
L 390.353965 131.953462 
L 391.03174 125.140572 
L 391.709516 130.198399 
L 392.387292 131.42969 
L 393.065067 125.592311 
L 393.742843 105.518681 
L 394.420619 104.181212 
L 395.098394 98.328025 
L 395.77617 105.485875 
L 396.453946 103.644308 
L 397.131721 107.467546 
L 397.809497 117.697847 
L 398.487273 114.139466 
L 398.487273 114.139466 
" clip-path="url(#p0542ca8e98)" style="fill: none; stroke: #0000ff; stroke-width: 1.5; stroke-linecap: square"/>
   </g>
   <g id="line2d_26">
    <path d="M 73.832727 235.00745 
L 75.188279 216.554038 
L 75.866054 211.883336 
L 76.54383 204.902385 
L 77.899381 182.243966 
L 78.577157 157.380215 
L 79.254933 84.301346 
L 79.932708 67.469603 
L 80.610484 66.44684 
L 81.28826 72.842909 
L 81.966035 64.772101 
L 82.643811 63.988936 
L 83.321587 62.200445 
L 84.677138 68.301217 
L 85.354914 67.998731 
L 86.032689 63.342883 
L 86.710465 62.203534 
L 87.388241 59.23294 
L 88.066016 62.430348 
L 88.743792 60.149745 
L 90.099343 61.417006 
L 90.777119 62.470175 
L 91.454895 60.061838 
L 92.13267 61.556704 
L 92.810446 62.097321 
L 93.488222 61.991511 
L 94.165997 61.697964 
L 94.843773 57.775441 
L 95.521549 58.749626 
L 96.199324 62.228772 
L 96.8771 63.769994 
L 97.554876 63.902484 
L 98.232651 59.03532 
L 98.910427 60.719724 
L 99.588203 59.152255 
L 100.265978 59.279284 
L 100.943754 59.701417 
L 101.62153 58.608532 
L 102.299305 58.709254 
L 102.977081 56.230971 
L 104.332632 60.727799 
L 105.010408 61.070422 
L 105.688184 58.31064 
L 106.365959 59.977489 
L 107.043735 60.899672 
L 107.721511 59.280822 
L 108.399286 59.841014 
L 109.077062 54.883418 
L 109.754838 58.880428 
L 110.432613 61.934399 
L 111.110389 55.921246 
L 111.788165 59.178675 
L 112.46594 54.843141 
L 113.143716 57.843138 
L 113.821492 56.692276 
L 114.499267 59.361773 
L 115.177043 55.637032 
L 115.854819 56.936889 
L 116.532594 60.028718 
L 117.21037 54.572135 
L 117.888146 60.389825 
L 118.565921 57.602035 
L 119.243697 59.617261 
L 119.921473 59.34899 
L 120.599248 66.311693 
L 121.277024 56.822293 
L 121.9548 62.228162 
L 122.632575 56.183156 
L 123.310351 56.136988 
L 123.988127 56.982845 
L 124.665902 54.937646 
L 125.343678 285.326521 
L 126.021454 272.544191 
L 126.699229 262.935211 
L 127.377005 255.722656 
L 128.054781 243.942482 
L 128.732556 240.302995 
L 129.410332 238.121439 
L 130.088108 233.515365 
L 130.765883 231.513352 
L 131.443659 232.250908 
L 132.121435 231.982897 
L 132.79921 228.539377 
L 133.476986 226.149555 
L 134.154762 228.958664 
L 134.832537 213.833404 
L 135.510313 213.528502 
L 136.188089 212.625535 
L 136.865864 212.137583 
L 137.54364 212.76578 
L 138.221416 209.189647 
L 138.899191 203.870801 
L 139.576967 199.912041 
L 140.254743 188.630418 
L 140.932519 158.677109 
L 141.610294 112.203438 
L 142.28807 98.979418 
L 142.965846 88.638277 
L 143.643621 67.443282 
L 144.321397 61.803896 
L 144.999173 66.411485 
L 145.676948 62.231275 
L 146.354724 60.89003 
L 147.0325 67.924729 
L 147.710275 64.128308 
L 149.065827 72.113551 
L 149.743602 71.406755 
L 150.421378 65.985004 
L 151.099154 63.288022 
L 151.776929 63.349898 
L 152.454705 67.843957 
L 153.810256 70.095816 
L 154.488032 78.86444 
L 155.165808 67.158432 
L 155.843583 73.286059 
L 156.521359 68.028362 
L 157.199135 66.732371 
L 157.87691 73.046794 
L 158.554686 66.657509 
L 159.232462 61.646902 
L 159.910237 80.29671 
L 160.588013 76.699189 
L 161.265789 63.860194 
L 161.943564 66.528837 
L 162.62134 57.712643 
L 163.299116 57.671313 
L 163.976891 55.726648 
L 164.654667 66.179632 
L 165.332443 64.57491 
L 166.010218 57.220308 
L 166.687994 58.041145 
L 167.36577 67.17351 
L 168.043545 60.554346 
L 168.721321 60.050241 
L 169.399097 61.199976 
L 170.076872 62.902849 
L 170.754648 61.723662 
L 171.432424 64.94635 
L 172.110199 58.521688 
L 172.787975 64.66572 
L 173.465751 66.681014 
L 174.143526 58.319488 
L 174.821302 59.308041 
L 176.176853 57.517292 
L 176.854629 62.286405 
L 177.532405 61.562121 
L 178.21018 57.192219 
L 178.887956 63.81081 
L 179.565732 57.368321 
L 180.243507 66.298506 
L 180.921283 54.114701 
L 181.599059 56.062019 
L 182.276834 64.545995 
L 183.632386 69.593182 
L 184.310161 58.132091 
L 185.665713 62.533114 
L 186.343488 287.973831 
L 187.021264 272.826049 
L 187.69904 261.792969 
L 188.376815 254.920879 
L 189.054591 236.459283 
L 189.732367 224.072376 
L 190.410142 204.866214 
L 191.765694 94.050049 
L 192.443469 78.749403 
L 193.121245 74.154431 
L 193.799021 70.962487 
L 194.476796 73.345441 
L 195.154572 73.128622 
L 195.832348 77.652773 
L 196.510123 70.439287 
L 197.865675 76.982569 
L 198.54345 69.921067 
L 199.221226 71.243183 
L 199.899002 83.95297 
L 200.576777 205.176703 
L 201.254553 209.568488 
L 201.932329 210.755828 
L 202.610104 207.620369 
L 203.28788 201.817037 
L 203.965656 203.475305 
L 204.643431 198.774656 
L 205.998983 200.187816 
L 206.676758 196.74893 
L 207.354534 199.016009 
L 208.03231 198.174932 
L 208.710085 191.065904 
L 209.387861 192.101888 
L 210.065637 189.83176 
L 210.743412 186.954057 
L 211.421188 187.523406 
L 212.776739 178.470386 
L 213.454515 172.766954 
L 214.132291 175.673604 
L 214.810066 174.71086 
L 215.487842 165.948551 
L 216.165618 164.828278 
L 216.843393 156.329098 
L 217.521169 162.882952 
L 218.198945 156.266258 
L 218.87672 142.408845 
L 219.554496 151.752577 
L 220.232272 146.32076 
L 220.910047 126.670955 
L 221.587823 70.620056 
L 222.265599 67.217467 
L 222.943374 62.126034 
L 223.62115 65.628394 
L 224.298926 62.904653 
L 224.976701 61.672011 
L 225.654477 60.010703 
L 226.332253 66.186546 
L 227.010028 66.580092 
L 227.687804 63.895311 
L 228.36558 67.408553 
L 229.043355 67.223683 
L 229.721131 62.913447 
L 230.398907 76.85463 
L 231.076682 66.178114 
L 231.754458 64.227989 
L 232.432234 64.981894 
L 233.110009 65.534146 
L 233.787785 59.320744 
L 234.465561 59.194288 
L 235.143336 60.780379 
L 235.821112 65.051667 
L 236.498888 61.308366 
L 237.176664 62.906878 
L 237.854439 62.111141 
L 239.209991 65.223144 
L 239.887766 63.918201 
L 240.565542 64.445528 
L 241.243318 64.282725 
L 241.921093 57.204645 
L 242.598869 65.93274 
L 243.95442 53.837096 
L 244.632196 62.383796 
L 245.309972 64.889246 
L 245.987747 66.442186 
L 246.665523 60.494501 
L 247.343299 66.15808 
L 248.021074 64.916888 
L 248.69885 60.348736 
L 249.376626 59.854487 
L 250.054401 57.256446 
L 250.732177 61.647665 
L 251.409953 61.856789 
L 252.087728 57.823393 
L 252.765504 58.719844 
L 253.44328 53.568 
L 254.798831 60.260518 
L 255.476607 58.403348 
L 256.154382 55.888302 
L 256.832158 73.064953 
L 257.509934 58.618192 
L 258.187709 59.570345 
L 258.865485 63.524734 
L 259.543261 65.713038 
L 260.221036 61.695301 
L 260.898812 287.171718 
L 261.576588 261.944215 
L 262.254363 203.689657 
L 262.932139 85.978139 
L 263.609915 68.468609 
L 264.28769 72.799739 
L 264.965466 66.295135 
L 265.643242 67.712357 
L 266.321017 67.835453 
L 266.998793 67.099592 
L 267.676569 67.193894 
L 268.354344 65.492468 
L 269.03212 64.526013 
L 269.709896 67.924185 
L 271.065447 64.390331 
L 271.743223 65.089569 
L 272.420998 66.705935 
L 273.098774 63.766212 
L 273.77655 241.464608 
L 274.454325 244.286334 
L 275.132101 244.16343 
L 275.809877 243.062795 
L 276.487652 240.367208 
L 277.165428 231.989369 
L 277.843204 228.832711 
L 278.520979 227.605696 
L 279.198755 223.015434 
L 279.876531 189.973405 
L 280.554306 86.722895 
L 281.232082 59.686445 
L 281.909858 59.324097 
L 282.587633 60.093342 
L 283.265409 58.843551 
L 283.943185 59.262633 
L 284.62096 64.317835 
L 285.298736 58.506083 
L 285.976512 58.720737 
L 286.654287 60.59612 
L 288.009839 58.178729 
L 288.687614 60.310302 
L 289.36539 58.630302 
L 290.043166 59.17643 
L 290.720941 58.898813 
L 291.398717 57.440997 
L 292.076493 57.721072 
L 293.432044 59.053402 
L 294.787595 57.677617 
L 295.465371 60.098474 
L 296.143147 61.033193 
L 296.820922 56.978385 
L 297.498698 77.654262 
L 298.176474 56.764921 
L 298.854249 60.196628 
L 299.532025 57.496138 
L 300.209801 56.240149 
L 300.887576 59.538837 
L 301.565352 58.701732 
L 302.243128 58.197721 
L 302.920903 61.197017 
L 303.598679 60.385184 
L 304.276455 55.982765 
L 304.95423 57.720496 
L 305.632006 57.165109 
L 306.987557 60.491688 
L 307.665333 55.2661 
L 309.020884 55.677521 
L 309.69866 54.367111 
L 310.376436 64.060288 
L 311.054211 59.479734 
L 311.731987 56.751546 
L 312.409763 57.665192 
L 313.087538 55.595529 
L 313.765314 56.723513 
L 314.44309 56.305408 
L 315.120865 283.884595 
L 316.476417 263.23412 
L 317.154192 256.347744 
L 317.831968 247.505985 
L 318.509744 236.490648 
L 319.187519 182.356454 
L 319.865295 79.611751 
L 320.543071 60.305408 
L 321.220846 58.870778 
L 321.898622 62.793215 
L 322.576398 61.929418 
L 323.254173 66.241872 
L 323.931949 65.495068 
L 324.609725 62.088434 
L 325.2875 70.089995 
L 325.965276 64.999092 
L 326.643052 58.814936 
L 327.320827 71.079417 
L 327.998603 65.239164 
L 328.676379 64.446051 
L 329.354154 60.373911 
L 330.03193 59.939762 
L 330.709706 64.852089 
L 331.387481 267.276518 
L 332.065257 243.608136 
L 332.743033 197.71452 
L 333.420809 94.414604 
L 334.098584 59.628437 
L 334.77636 62.092757 
L 335.454136 59.980796 
L 336.131911 60.756013 
L 336.809687 58.443005 
L 337.487463 58.417879 
L 338.165238 63.27338 
L 338.843014 59.395995 
L 339.52079 62.093597 
L 340.198565 62.321528 
L 340.876341 61.042813 
L 341.554117 58.179593 
L 342.231892 74.25115 
L 342.909668 60.992216 
L 343.587444 62.791681 
L 344.265219 59.115329 
L 344.942995 65.695594 
L 345.620771 66.096247 
L 346.298546 69.852809 
L 346.976322 60.43449 
L 347.654098 65.112443 
L 348.331873 60.910711 
L 349.009649 60.370251 
L 349.687425 56.593519 
L 350.3652 60.039854 
L 351.042976 58.328178 
L 351.720752 64.405989 
L 352.398527 58.268508 
L 353.076303 61.024218 
L 353.754079 59.302289 
L 354.431854 60.179115 
L 355.10963 60.866915 
L 355.787406 269.534658 
L 357.142957 249.203234 
L 357.820733 243.626942 
L 358.498508 240.53217 
L 359.176284 235.015405 
L 359.85406 231.582842 
L 361.209611 227.948786 
L 361.887387 224.910289 
L 362.565162 220.239734 
L 363.242938 218.640566 
L 363.920714 215.183166 
L 364.598489 218.591216 
L 365.276265 215.713131 
L 365.954041 213.990339 
L 366.631816 208.671118 
L 367.309592 211.086227 
L 367.987368 208.795118 
L 368.665143 207.176719 
L 369.342919 207.778481 
L 370.020695 203.632058 
L 370.69847 181.598423 
L 371.376246 110.679731 
L 372.054022 75.72847 
L 372.731797 68.793725 
L 373.409573 67.455804 
L 374.087349 69.551546 
L 374.765124 66.095783 
L 375.4429 67.637919 
L 376.120676 68.508716 
L 376.798451 66.041804 
L 377.476227 67.779671 
L 378.154003 68.021482 
L 378.831778 65.298256 
L 379.509554 67.758277 
L 380.18733 66.007486 
L 380.865105 67.422666 
L 381.542881 66.264425 
L 382.220657 66.757947 
L 382.898432 65.613579 
L 384.253984 65.454253 
L 384.931759 66.688304 
L 385.609535 62.32248 
L 386.287311 63.678276 
L 386.965086 68.102837 
L 387.642862 65.638922 
L 388.320638 63.605469 
L 388.998413 64.638643 
L 389.676189 64.256372 
L 391.03174 64.61889 
L 391.709516 65.10501 
L 392.387292 64.233531 
L 393.065067 64.917576 
L 393.742843 65.34888 
L 394.420619 64.126399 
L 395.098394 74.712732 
L 395.77617 63.637992 
L 396.453946 65.442142 
L 397.131721 61.566683 
L 397.809497 58.851414 
L 398.487273 59.06849 
L 398.487273 59.06849 
" clip-path="url(#p0542ca8e98)" style="fill: none; stroke-dasharray: 9.6,2.4,1.5,2.4; stroke-dashoffset: 0; stroke: #008000; stroke-width: 1.5"/>
   </g>
   <g id="line2d_27">
    <path d="M 73.832727 222.534343 
L 74.510503 209.369038 
L 75.188279 203.604124 
L 75.866054 187.678232 
L 76.54383 164.636212 
L 77.221606 94.954416 
L 124.665902 94.954411 
L 125.343678 271.397984 
L 126.021454 248.251151 
L 126.699229 236.089986 
L 127.377005 236.089986 
L 128.054781 216.25309 
L 129.410332 216.25309 
L 130.088108 209.741012 
L 130.765883 207.728819 
L 131.443659 206.276329 
L 132.121435 202.651028 
L 132.79921 182.403476 
L 134.154762 182.403476 
L 134.832537 170.956459 
L 137.54364 170.956459 
L 138.899191 150.70477 
L 139.576967 150.70477 
L 140.254743 94.954418 
L 185.665713 94.954411 
L 186.343488 262.142515 
L 187.021264 250.924349 
L 187.69904 248.065125 
L 189.054591 208.928217 
L 189.732367 94.954412 
L 199.899002 94.954412 
L 200.576777 162.880679 
L 201.932329 162.880679 
L 202.610104 158.707126 
L 205.998983 158.707126 
L 206.676758 138.163014 
L 208.710085 138.163014 
L 209.387861 135.873828 
L 214.810066 135.873828 
L 215.487842 132.742564 
L 216.165618 132.9223 
L 216.843393 132.9223 
L 217.521169 122.744139 
L 218.198945 122.744139 
L 218.87672 120.786952 
L 219.554496 120.786952 
L 220.232272 94.954412 
L 260.221036 94.954411 
L 260.898812 273.938467 
L 261.576588 94.954411 
L 273.098774 94.954412 
L 273.77655 197.530219 
L 276.487652 197.530219 
L 277.165428 190.022963 
L 278.520979 190.022963 
L 279.198755 94.954415 
L 314.44309 94.954411 
L 315.120865 271.42723 
L 315.798641 249.709897 
L 316.476417 242.820349 
L 317.154192 229.586992 
L 317.831968 219.70568 
L 318.509744 94.954412 
L 330.709706 94.954412 
L 331.387481 246.835709 
L 332.065257 94.954413 
L 355.10963 94.954412 
L 355.787406 255.778892 
L 356.465181 235.873099 
L 357.820733 231.586271 
L 358.498508 229.508205 
L 359.85406 201.090242 
L 361.209611 201.090242 
L 361.887387 198.409552 
L 362.565162 185.699089 
L 364.598489 185.699089 
L 365.276265 181.643727 
L 369.342919 181.643727 
L 370.020695 94.954412 
L 398.487273 94.954412 
L 398.487273 94.954412 
" clip-path="url(#p0542ca8e98)" style="fill: none; stroke: #ff0000; stroke-width: 1.5; stroke-linecap: square"/>
   </g>
   <g id="patch_3">
    <path d="M 57.6 307.584 
L 57.6 41.472 
" style="fill: none; stroke: #000000; stroke-width: 0.8; stroke-linejoin: miter; stroke-linecap: square"/>
   </g>
   <g id="patch_4">
    <path d="M 414.72 307.584 
L 414.72 41.472 
" style="fill: none; stroke: #000000; stroke-width: 0.8; stroke-linejoin: miter; stroke-linecap: square"/>
   </g>
   <g id="patch_5">
    <path d="M 57.6 307.584 
L 414.72 307.584 
" style="fill: none; stroke: #000000; stroke-width: 0.8; stroke-linejoin: miter; stroke-linecap: square"/>
   </g>
   <g id="patch_6">
    <path d="M 57.6 41.472 
L 414.72 41.472 
" style="fill: none; stroke: #000000; stroke-width: 0.8; stroke-linejoin: miter; stroke-linecap: square"/>
   </g>
   <g id="text_15">
    <!-- Population's average and best fitness -->
    <g transform="translate(123.529687 35.472)scale(0.12 -0.12)">
     <defs>
      <path id="DejaVuSans-50" d="M 1259 4147 
L 1259 2394 
L 2053 2394 
Q 2494 2394 2734 2622 
Q 2975 2850 2975 3272 
Q 2975 3691 2734 3919 
Q 2494 4147 2053 4147 
L 1259 4147 
z
M 628 4666 
L 2053 4666 
Q 2838 4666 3239 4311 
Q 3641 3956 3641 3272 
Q 3641 2581 3239 2228 
Q 2838 1875 2053 1875 
L 1259 1875 
L 1259 0 
L 628 0 
L 628 4666 
z
" transform="scale(0.015625)"/>
      <path id="DejaVuSans-70" d="M 1159 525 
L 1159 -1331 
L 581 -1331 
L 581 3500 
L 1159 3500 
L 1159 2969 
Q 1341 3281 1617 3432 
Q 1894 3584 2278 3584 
Q 2916 3584 3314 3078 
Q 3713 2572 3713 1747 
Q 3713 922 3314 415 
Q 2916 -91 2278 -91 
Q 1894 -91 1617 61 
Q 1341 213 1159 525 
z
M 3116 1747 
Q 3116 2381 2855 2742 
Q 2594 3103 2138 3103 
Q 1681 3103 1420 2742 
Q 1159 2381 1159 1747 
Q 1159 1113 1420 752 
Q 1681 391 2138 391 
Q 2594 391 2855 752 
Q 3116 1113 3116 1747 
z
" transform="scale(0.015625)"/>
      <path id="DejaVuSans-75" d="M 544 1381 
L 544 3500 
L 1119 3500 
L 1119 1403 
Q 1119 906 1312 657 
Q 1506 409 1894 409 
Q 2359 409 2629 706 
Q 2900 1003 2900 1516 
L 2900 3500 
L 3475 3500 
L 3475 0 
L 2900 0 
L 2900 538 
Q 2691 219 2414 64 
Q 2138 -91 1772 -91 
Q 1169 -91 856 284 
Q 544 659 544 1381 
z
M 1991 3584 
L 1991 3584 
z
" transform="scale(0.015625)"/>
      <path id="DejaVuSans-6c" d="M 603 4863 
L 1178 4863 
L 1178 0 
L 603 0 
L 603 4863 
z
" transform="scale(0.015625)"/>
      <path id="DejaVuSans-27" d="M 1147 4666 
L 1147 2931 
L 616 2931 
L 616 4666 
L 1147 4666 
z
" transform="scale(0.015625)"/>
      <path id="DejaVuSans-20" transform="scale(0.015625)"/>
      <path id="DejaVuSans-76" d="M 191 3500 
L 800 3500 
L 1894 563 
L 2988 3500 
L 3597 3500 
L 2284 0 
L 1503 0 
L 191 3500 
z
" transform="scale(0.015625)"/>
      <path id="DejaVuSans-67" d="M 2906 1791 
Q 2906 2416 2648 2759 
Q 2391 3103 1925 3103 
Q 1463 3103 1205 2759 
Q 947 2416 947 1791 
Q 947 1169 1205 825 
Q 1463 481 1925 481 
Q 2391 481 2648 825 
Q 2906 1169 2906 1791 
z
M 3481 434 
Q 3481 -459 3084 -895 
Q 2688 -1331 1869 -1331 
Q 1566 -1331 1297 -1286 
Q 1028 -1241 775 -1147 
L 775 -588 
Q 1028 -725 1275 -790 
Q 1522 -856 1778 -856 
Q 2344 -856 2625 -561 
Q 2906 -266 2906 331 
L 2906 616 
Q 2728 306 2450 153 
Q 2172 0 1784 0 
Q 1141 0 747 490 
Q 353 981 353 1791 
Q 353 2603 747 3093 
Q 1141 3584 1784 3584 
Q 2172 3584 2450 3431 
Q 2728 3278 2906 2969 
L 2906 3500 
L 3481 3500 
L 3481 434 
z
" transform="scale(0.015625)"/>
      <path id="DejaVuSans-64" d="M 2906 2969 
L 2906 4863 
L 3481 4863 
L 3481 0 
L 2906 0 
L 2906 525 
Q 2725 213 2448 61 
Q 2172 -91 1784 -91 
Q 1150 -91 751 415 
Q 353 922 353 1747 
Q 353 2572 751 3078 
Q 1150 3584 1784 3584 
Q 2172 3584 2448 3432 
Q 2725 3281 2906 2969 
z
M 947 1747 
Q 947 1113 1208 752 
Q 1469 391 1925 391 
Q 2381 391 2643 752 
Q 2906 1113 2906 1747 
Q 2906 2381 2643 2742 
Q 2381 3103 1925 3103 
Q 1469 3103 1208 2742 
Q 947 2381 947 1747 
z
" transform="scale(0.015625)"/>
      <path id="DejaVuSans-62" d="M 3116 1747 
Q 3116 2381 2855 2742 
Q 2594 3103 2138 3103 
Q 1681 3103 1420 2742 
Q 1159 2381 1159 1747 
Q 1159 1113 1420 752 
Q 1681 391 2138 391 
Q 2594 391 2855 752 
Q 3116 1113 3116 1747 
z
M 1159 2969 
Q 1341 3281 1617 3432 
Q 1894 3584 2278 3584 
Q 2916 3584 3314 3078 
Q 3713 2572 3713 1747 
Q 3713 922 3314 415 
Q 2916 -91 2278 -91 
Q 1894 -91 1617 61 
Q 1341 213 1159 525 
L 1159 0 
L 581 0 
L 581 4863 
L 1159 4863 
L 1159 2969 
z
" transform="scale(0.015625)"/>
      <path id="DejaVuSans-66" d="M 2375 4863 
L 2375 4384 
L 1825 4384 
Q 1516 4384 1395 4259 
Q 1275 4134 1275 3809 
L 1275 3500 
L 2222 3500 
L 2222 3053 
L 1275 3053 
L 1275 0 
L 697 0 
L 697 3053 
L 147 3053 
L 147 3500 
L 697 3500 
L 697 3744 
Q 697 4328 969 4595 
Q 1241 4863 1831 4863 
L 2375 4863 
z
" transform="scale(0.015625)"/>
     </defs>
     <use xlink:href="#DejaVuSans-50"/>
     <use xlink:href="#DejaVuSans-6f" x="56.677734"/>
     <use xlink:href="#DejaVuSans-70" x="117.859375"/>
     <use xlink:href="#DejaVuSans-75" x="181.335938"/>
     <use xlink:href="#DejaVuSans-6c" x="244.714844"/>
     <use xlink:href="#DejaVuSans-61" x="272.498047"/>
     <use xlink:href="#DejaVuSans-74" x="333.777344"/>
     <use xlink:href="#DejaVuSans-69" x="372.986328"/>
     <use xlink:href="#DejaVuSans-6f" x="400.769531"/>
     <use xlink:href="#DejaVuSans-6e" x="461.951172"/>
     <use xlink:href="#DejaVuSans-27" x="525.330078"/>
     <use xlink:href="#DejaVuSans-73" x="552.820312"/>
     <use xlink:href="#DejaVuSans-20" x="604.919922"/>
     <use xlink:href="#DejaVuSans-61" x="636.707031"/>
     <use xlink:href="#DejaVuSans-76" x="697.986328"/>
     <use xlink:href="#DejaVuSans-65" x="757.166016"/>
     <use xlink:href="#DejaVuSans-72" x="818.689453"/>
     <use xlink:href="#DejaVuSans-61" x="859.802734"/>
     <use xlink:href="#DejaVuSans-67" x="921.082031"/>
     <use xlink:href="#DejaVuSans-65" x="984.558594"/>
     <use xlink:href="#DejaVuSans-20" x="1046.082031"/>
     <use xlink:href="#DejaVuSans-61" x="1077.869141"/>
     <use xlink:href="#DejaVuSans-6e" x="1139.148438"/>
     <use xlink:href="#DejaVuSans-64" x="1202.527344"/>
     <use xlink:href="#DejaVuSans-20" x="1266.003906"/>
     <use xlink:href="#DejaVuSans-62" x="1297.791016"/>
     <use xlink:href="#DejaVuSans-65" x="1361.267578"/>
     <use xlink:href="#DejaVuSans-73" x="1422.791016"/>
     <use xlink:href="#DejaVuSans-74" x="1474.890625"/>
     <use xlink:href="#DejaVuSans-20" x="1514.099609"/>
     <use xlink:href="#DejaVuSans-66" x="1545.886719"/>
     <use xlink:href="#DejaVuSans-69" x="1581.091797"/>
     <use xlink:href="#DejaVuSans-74" x="1608.875"/>
     <use xlink:href="#DejaVuSans-6e" x="1648.083984"/>
     <use xlink:href="#DejaVuSans-65" x="1711.462891"/>
     <use xlink:href="#DejaVuSans-73" x="1772.986328"/>
     <use xlink:href="#DejaVuSans-73" x="1825.085938"/>
    </g>
   </g>
   <g id="legend_1">
    <g id="patch_7">
     <path d="M 334.779375 302.584 
L 407.72 302.584 
Q 409.72 302.584 409.72 300.584 
L 409.72 257.549625 
Q 409.72 255.549625 407.72 255.549625 
L 334.779375 255.549625 
Q 332.779375 255.549625 332.779375 257.549625 
L 332.779375 300.584 
Q 332.779375 302.584 334.779375 302.584 
z
" style="fill: #ffffff; opacity: 0.8; stroke: #cccccc; stroke-linejoin: miter"/>
    </g>
    <g id="line2d_28">
     <path d="M 336.779375 263.648062 
L 346.779375 263.648062 
L 356.779375 263.648062 
" style="fill: none; stroke: #0000ff; stroke-width: 1.5; stroke-linecap: square"/>
    </g>
    <g id="text_16">
     <!-- average -->
     <g transform="translate(364.779375 267.148062)scale(0.1 -0.1)">
      <use xlink:href="#DejaVuSans-61"/>
      <use xlink:href="#DejaVuSans-76" x="61.279297"/>
      <use xlink:href="#DejaVuSans-65" x="120.458984"/>
      <use xlink:href="#DejaVuSans-72" x="181.982422"/>
      <use xlink:href="#DejaVuSans-61" x="223.095703"/>
      <use xlink:href="#DejaVuSans-67" x="284.375"/>
      <use xlink:href="#DejaVuSans-65" x="347.851562"/>
     </g>
    </g>
    <g id="line2d_29">
     <path d="M 336.779375 278.326188 
L 346.779375 278.326188 
L 356.779375 278.326188 
" style="fill: none; stroke-dasharray: 9.6,2.4,1.5,2.4; stroke-dashoffset: 0; stroke: #008000; stroke-width: 1.5"/>
    </g>
    <g id="text_17">
     <!-- +1 sd -->
     <g transform="translate(364.779375 281.826188)scale(0.1 -0.1)">
      <defs>
       <path id="DejaVuSans-2b" d="M 2944 4013 
L 2944 2272 
L 4684 2272 
L 4684 1741 
L 2944 1741 
L 2944 0 
L 2419 0 
L 2419 1741 
L 678 1741 
L 678 2272 
L 2419 2272 
L 2419 4013 
L 2944 4013 
z
" transform="scale(0.015625)"/>
      </defs>
      <use xlink:href="#DejaVuSans-2b"/>
      <use xlink:href="#DejaVuSans-31" x="83.789062"/>
      <use xlink:href="#DejaVuSans-20" x="147.412109"/>
      <use xlink:href="#DejaVuSans-73" x="179.199219"/>
      <use xlink:href="#DejaVuSans-64" x="231.298828"/>
     </g>
    </g>
    <g id="line2d_30">
     <path d="M 336.779375 293.004312 
L 346.779375 293.004312 
L 356.779375 293.004312 
" style="fill: none; stroke: #ff0000; stroke-width: 1.5; stroke-linecap: square"/>
    </g>
    <g id="text_18">
     <!-- best -->
     <g transform="translate(364.779375 296.504312)scale(0.1 -0.1)">
      <use xlink:href="#DejaVuSans-62"/>
      <use xlink:href="#DejaVuSans-65" x="63.476562"/>
      <use xlink:href="#DejaVuSans-73" x="125"/>
      <use xlink:href="#DejaVuSans-74" x="177.099609"/>
     </g>
    </g>
   </g>
  </g>
 </g>
 <defs>
  <clipPath id="p0542ca8e98">
   <rect x="57.6" y="41.472" width="357.12" height="266.112"/>
  </clipPath>
 </defs>
</svg>
