<?xml version="1.0" encoding="utf-8" standalone="no"?>
<!DOCTYPE svg PUBLIC "-//W3C//DTD SVG 1.1//EN"
  "http://www.w3.org/Graphics/SVG/1.1/DTD/svg11.dtd">
<svg xmlns:xlink="http://www.w3.org/1999/xlink" width="460.8pt" height="345.6pt" viewBox="0 0 460.8 345.6" xmlns="http://www.w3.org/2000/svg" version="1.1">
 <metadata>
  <rdf:RDF xmlns:dc="http://purl.org/dc/elements/1.1/" xmlns:cc="http://creativecommons.org/ns#" xmlns:rdf="http://www.w3.org/1999/02/22-rdf-syntax-ns#">
   <cc:Work>
    <dc:type rdf:resource="http://purl.org/dc/dcmitype/StillImage"/>
    <dc:date>2022-11-19T09:51:58.481555</dc:date>
    <dc:format>image/svg+xml</dc:format>
    <dc:creator>
     <cc:Agent>
      <dc:title>Matplotlib v3.5.3, https://matplotlib.org/</dc:title>
     </cc:Agent>
    </dc:creator>
   </cc:Work>
  </rdf:RDF>
 </metadata>
 <defs>
  <style type="text/css">*{stroke-linejoin: round; stroke-linecap: butt}</style>
 </defs>
 <g id="figure_1">
  <g id="patch_1">
   <path d="M 0 345.6 
L 460.8 345.6 
L 460.8 0 
L 0 0 
z
" style="fill: #ffffff"/>
  </g>
  <g id="axes_1">
   <g id="patch_2">
    <path d="M 57.6 307.584 
L 414.72 307.584 
L 414.72 41.472 
L 57.6 41.472 
z
" style="fill: #ffffff"/>
   </g>
   <g id="matplotlib.axis_1">
    <g id="xtick_1">
     <g id="line2d_1">
      <path d="M 73.832727 307.584 
L 73.832727 41.472 
" clip-path="url(#p9a1754508c)" style="fill: none; stroke: #b0b0b0; stroke-width: 0.8; stroke-linecap: square"/>
     </g>
     <g id="line2d_2">
      <defs>
       <path id="m12a293a72a" d="M 0 0 
L 0 3.5 
" style="stroke: #000000; stroke-width: 0.8"/>
      </defs>
      <g>
       <use xlink:href="#m12a293a72a" x="73.832727" y="307.584" style="stroke: #000000; stroke-width: 0.8"/>
      </g>
     </g>
     <g id="text_1">
      <!-- 0 -->
      <g transform="translate(70.651477 322.182437)scale(0.1 -0.1)">
       <defs>
        <path id="DejaVuSans-30" d="M 2034 4250 
Q 1547 4250 1301 3770 
Q 1056 3291 1056 2328 
Q 1056 1369 1301 889 
Q 1547 409 2034 409 
Q 2525 409 2770 889 
Q 3016 1369 3016 2328 
Q 3016 3291 2770 3770 
Q 2525 4250 2034 4250 
z
M 2034 4750 
Q 2819 4750 3233 4129 
Q 3647 3509 3647 2328 
Q 3647 1150 3233 529 
Q 2819 -91 2034 -91 
Q 1250 -91 836 529 
Q 422 1150 422 2328 
Q 422 3509 836 4129 
Q 1250 4750 2034 4750 
z
" transform="scale(0.015625)"/>
       </defs>
       <use xlink:href="#DejaVuSans-30"/>
      </g>
     </g>
    </g>
    <g id="xtick_2">
     <g id="line2d_3">
      <path d="M 130.001334 307.584 
L 130.001334 41.472 
" clip-path="url(#p9a1754508c)" style="fill: none; stroke: #b0b0b0; stroke-width: 0.8; stroke-linecap: square"/>
     </g>
     <g id="line2d_4">
      <g>
       <use xlink:href="#m12a293a72a" x="130.001334" y="307.584" style="stroke: #000000; stroke-width: 0.8"/>
      </g>
     </g>
     <g id="text_2">
      <!-- 50 -->
      <g transform="translate(123.638834 322.182437)scale(0.1 -0.1)">
       <defs>
        <path id="DejaVuSans-35" d="M 691 4666 
L 3169 4666 
L 3169 4134 
L 1269 4134 
L 1269 2991 
Q 1406 3038 1543 3061 
Q 1681 3084 1819 3084 
Q 2600 3084 3056 2656 
Q 3513 2228 3513 1497 
Q 3513 744 3044 326 
Q 2575 -91 1722 -91 
Q 1428 -91 1123 -41 
Q 819 9 494 109 
L 494 744 
Q 775 591 1075 516 
Q 1375 441 1709 441 
Q 2250 441 2565 725 
Q 2881 1009 2881 1497 
Q 2881 1984 2565 2268 
Q 2250 2553 1709 2553 
Q 1456 2553 1204 2497 
Q 953 2441 691 2322 
L 691 4666 
z
" transform="scale(0.015625)"/>
       </defs>
       <use xlink:href="#DejaVuSans-35"/>
       <use xlink:href="#DejaVuSans-30" x="63.623047"/>
      </g>
     </g>
    </g>
    <g id="xtick_3">
     <g id="line2d_5">
      <path d="M 186.16994 307.584 
L 186.16994 41.472 
" clip-path="url(#p9a1754508c)" style="fill: none; stroke: #b0b0b0; stroke-width: 0.8; stroke-linecap: square"/>
     </g>
     <g id="line2d_6">
      <g>
       <use xlink:href="#m12a293a72a" x="186.16994" y="307.584" style="stroke: #000000; stroke-width: 0.8"/>
      </g>
     </g>
     <g id="text_3">
      <!-- 100 -->
      <g transform="translate(176.62619 322.182437)scale(0.1 -0.1)">
       <defs>
        <path id="DejaVuSans-31" d="M 794 531 
L 1825 531 
L 1825 4091 
L 703 3866 
L 703 4441 
L 1819 4666 
L 2450 4666 
L 2450 531 
L 3481 531 
L 3481 0 
L 794 0 
L 794 531 
z
" transform="scale(0.015625)"/>
       </defs>
       <use xlink:href="#DejaVuSans-31"/>
       <use xlink:href="#DejaVuSans-30" x="63.623047"/>
       <use xlink:href="#DejaVuSans-30" x="127.246094"/>
      </g>
     </g>
    </g>
    <g id="xtick_4">
     <g id="line2d_7">
      <path d="M 242.338547 307.584 
L 242.338547 41.472 
" clip-path="url(#p9a1754508c)" style="fill: none; stroke: #b0b0b0; stroke-width: 0.8; stroke-linecap: square"/>
     </g>
     <g id="line2d_8">
      <g>
       <use xlink:href="#m12a293a72a" x="242.338547" y="307.584" style="stroke: #000000; stroke-width: 0.8"/>
      </g>
     </g>
     <g id="text_4">
      <!-- 150 -->
      <g transform="translate(232.794797 322.182437)scale(0.1 -0.1)">
       <use xlink:href="#DejaVuSans-31"/>
       <use xlink:href="#DejaVuSans-35" x="63.623047"/>
       <use xlink:href="#DejaVuSans-30" x="127.246094"/>
      </g>
     </g>
    </g>
    <g id="xtick_5">
     <g id="line2d_9">
      <path d="M 298.507153 307.584 
L 298.507153 41.472 
" clip-path="url(#p9a1754508c)" style="fill: none; stroke: #b0b0b0; stroke-width: 0.8; stroke-linecap: square"/>
     </g>
     <g id="line2d_10">
      <g>
       <use xlink:href="#m12a293a72a" x="298.507153" y="307.584" style="stroke: #000000; stroke-width: 0.8"/>
      </g>
     </g>
     <g id="text_5">
      <!-- 200 -->
      <g transform="translate(288.963403 322.182437)scale(0.1 -0.1)">
       <defs>
        <path id="DejaVuSans-32" d="M 1228 531 
L 3431 531 
L 3431 0 
L 469 0 
L 469 531 
Q 828 903 1448 1529 
Q 2069 2156 2228 2338 
Q 2531 2678 2651 2914 
Q 2772 3150 2772 3378 
Q 2772 3750 2511 3984 
Q 2250 4219 1831 4219 
Q 1534 4219 1204 4116 
Q 875 4013 500 3803 
L 500 4441 
Q 881 4594 1212 4672 
Q 1544 4750 1819 4750 
Q 2544 4750 2975 4387 
Q 3406 4025 3406 3419 
Q 3406 3131 3298 2873 
Q 3191 2616 2906 2266 
Q 2828 2175 2409 1742 
Q 1991 1309 1228 531 
z
" transform="scale(0.015625)"/>
       </defs>
       <use xlink:href="#DejaVuSans-32"/>
       <use xlink:href="#DejaVuSans-30" x="63.623047"/>
       <use xlink:href="#DejaVuSans-30" x="127.246094"/>
      </g>
     </g>
    </g>
    <g id="xtick_6">
     <g id="line2d_11">
      <path d="M 354.67576 307.584 
L 354.67576 41.472 
" clip-path="url(#p9a1754508c)" style="fill: none; stroke: #b0b0b0; stroke-width: 0.8; stroke-linecap: square"/>
     </g>
     <g id="line2d_12">
      <g>
       <use xlink:href="#m12a293a72a" x="354.67576" y="307.584" style="stroke: #000000; stroke-width: 0.8"/>
      </g>
     </g>
     <g id="text_6">
      <!-- 250 -->
      <g transform="translate(345.13201 322.182437)scale(0.1 -0.1)">
       <use xlink:href="#DejaVuSans-32"/>
       <use xlink:href="#DejaVuSans-35" x="63.623047"/>
       <use xlink:href="#DejaVuSans-30" x="127.246094"/>
      </g>
     </g>
    </g>
    <g id="xtick_7">
     <g id="line2d_13">
      <path d="M 410.844366 307.584 
L 410.844366 41.472 
" clip-path="url(#p9a1754508c)" style="fill: none; stroke: #b0b0b0; stroke-width: 0.8; stroke-linecap: square"/>
     </g>
     <g id="line2d_14">
      <g>
       <use xlink:href="#m12a293a72a" x="410.844366" y="307.584" style="stroke: #000000; stroke-width: 0.8"/>
      </g>
     </g>
     <g id="text_7">
      <!-- 300 -->
      <g transform="translate(401.300616 322.182437)scale(0.1 -0.1)">
       <defs>
        <path id="DejaVuSans-33" d="M 2597 2516 
Q 3050 2419 3304 2112 
Q 3559 1806 3559 1356 
Q 3559 666 3084 287 
Q 2609 -91 1734 -91 
Q 1441 -91 1130 -33 
Q 819 25 488 141 
L 488 750 
Q 750 597 1062 519 
Q 1375 441 1716 441 
Q 2309 441 2620 675 
Q 2931 909 2931 1356 
Q 2931 1769 2642 2001 
Q 2353 2234 1838 2234 
L 1294 2234 
L 1294 2753 
L 1863 2753 
Q 2328 2753 2575 2939 
Q 2822 3125 2822 3475 
Q 2822 3834 2567 4026 
Q 2313 4219 1838 4219 
Q 1578 4219 1281 4162 
Q 984 4106 628 3988 
L 628 4550 
Q 988 4650 1302 4700 
Q 1616 4750 1894 4750 
Q 2613 4750 3031 4423 
Q 3450 4097 3450 3541 
Q 3450 3153 3228 2886 
Q 3006 2619 2597 2516 
z
" transform="scale(0.015625)"/>
       </defs>
       <use xlink:href="#DejaVuSans-33"/>
       <use xlink:href="#DejaVuSans-30" x="63.623047"/>
       <use xlink:href="#DejaVuSans-30" x="127.246094"/>
      </g>
     </g>
    </g>
    <g id="text_8">
     <!-- Generations -->
     <g transform="translate(205.662344 335.860562)scale(0.1 -0.1)">
      <defs>
       <path id="DejaVuSans-47" d="M 3809 666 
L 3809 1919 
L 2778 1919 
L 2778 2438 
L 4434 2438 
L 4434 434 
Q 4069 175 3628 42 
Q 3188 -91 2688 -91 
Q 1594 -91 976 548 
Q 359 1188 359 2328 
Q 359 3472 976 4111 
Q 1594 4750 2688 4750 
Q 3144 4750 3555 4637 
Q 3966 4525 4313 4306 
L 4313 3634 
Q 3963 3931 3569 4081 
Q 3175 4231 2741 4231 
Q 1884 4231 1454 3753 
Q 1025 3275 1025 2328 
Q 1025 1384 1454 906 
Q 1884 428 2741 428 
Q 3075 428 3337 486 
Q 3600 544 3809 666 
z
" transform="scale(0.015625)"/>
       <path id="DejaVuSans-65" d="M 3597 1894 
L 3597 1613 
L 953 1613 
Q 991 1019 1311 708 
Q 1631 397 2203 397 
Q 2534 397 2845 478 
Q 3156 559 3463 722 
L 3463 178 
Q 3153 47 2828 -22 
Q 2503 -91 2169 -91 
Q 1331 -91 842 396 
Q 353 884 353 1716 
Q 353 2575 817 3079 
Q 1281 3584 2069 3584 
Q 2775 3584 3186 3129 
Q 3597 2675 3597 1894 
z
M 3022 2063 
Q 3016 2534 2758 2815 
Q 2500 3097 2075 3097 
Q 1594 3097 1305 2825 
Q 1016 2553 972 2059 
L 3022 2063 
z
" transform="scale(0.015625)"/>
       <path id="DejaVuSans-6e" d="M 3513 2113 
L 3513 0 
L 2938 0 
L 2938 2094 
Q 2938 2591 2744 2837 
Q 2550 3084 2163 3084 
Q 1697 3084 1428 2787 
Q 1159 2491 1159 1978 
L 1159 0 
L 581 0 
L 581 3500 
L 1159 3500 
L 1159 2956 
Q 1366 3272 1645 3428 
Q 1925 3584 2291 3584 
Q 2894 3584 3203 3211 
Q 3513 2838 3513 2113 
z
" transform="scale(0.015625)"/>
       <path id="DejaVuSans-72" d="M 2631 2963 
Q 2534 3019 2420 3045 
Q 2306 3072 2169 3072 
Q 1681 3072 1420 2755 
Q 1159 2438 1159 1844 
L 1159 0 
L 581 0 
L 581 3500 
L 1159 3500 
L 1159 2956 
Q 1341 3275 1631 3429 
Q 1922 3584 2338 3584 
Q 2397 3584 2469 3576 
Q 2541 3569 2628 3553 
L 2631 2963 
z
" transform="scale(0.015625)"/>
       <path id="DejaVuSans-61" d="M 2194 1759 
Q 1497 1759 1228 1600 
Q 959 1441 959 1056 
Q 959 750 1161 570 
Q 1363 391 1709 391 
Q 2188 391 2477 730 
Q 2766 1069 2766 1631 
L 2766 1759 
L 2194 1759 
z
M 3341 1997 
L 3341 0 
L 2766 0 
L 2766 531 
Q 2569 213 2275 61 
Q 1981 -91 1556 -91 
Q 1019 -91 701 211 
Q 384 513 384 1019 
Q 384 1609 779 1909 
Q 1175 2209 1959 2209 
L 2766 2209 
L 2766 2266 
Q 2766 2663 2505 2880 
Q 2244 3097 1772 3097 
Q 1472 3097 1187 3025 
Q 903 2953 641 2809 
L 641 3341 
Q 956 3463 1253 3523 
Q 1550 3584 1831 3584 
Q 2591 3584 2966 3190 
Q 3341 2797 3341 1997 
z
" transform="scale(0.015625)"/>
       <path id="DejaVuSans-74" d="M 1172 4494 
L 1172 3500 
L 2356 3500 
L 2356 3053 
L 1172 3053 
L 1172 1153 
Q 1172 725 1289 603 
Q 1406 481 1766 481 
L 2356 481 
L 2356 0 
L 1766 0 
Q 1100 0 847 248 
Q 594 497 594 1153 
L 594 3053 
L 172 3053 
L 172 3500 
L 594 3500 
L 594 4494 
L 1172 4494 
z
" transform="scale(0.015625)"/>
       <path id="DejaVuSans-69" d="M 603 3500 
L 1178 3500 
L 1178 0 
L 603 0 
L 603 3500 
z
M 603 4863 
L 1178 4863 
L 1178 4134 
L 603 4134 
L 603 4863 
z
" transform="scale(0.015625)"/>
       <path id="DejaVuSans-6f" d="M 1959 3097 
Q 1497 3097 1228 2736 
Q 959 2375 959 1747 
Q 959 1119 1226 758 
Q 1494 397 1959 397 
Q 2419 397 2687 759 
Q 2956 1122 2956 1747 
Q 2956 2369 2687 2733 
Q 2419 3097 1959 3097 
z
M 1959 3584 
Q 2709 3584 3137 3096 
Q 3566 2609 3566 1747 
Q 3566 888 3137 398 
Q 2709 -91 1959 -91 
Q 1206 -91 779 398 
Q 353 888 353 1747 
Q 353 2609 779 3096 
Q 1206 3584 1959 3584 
z
" transform="scale(0.015625)"/>
       <path id="DejaVuSans-73" d="M 2834 3397 
L 2834 2853 
Q 2591 2978 2328 3040 
Q 2066 3103 1784 3103 
Q 1356 3103 1142 2972 
Q 928 2841 928 2578 
Q 928 2378 1081 2264 
Q 1234 2150 1697 2047 
L 1894 2003 
Q 2506 1872 2764 1633 
Q 3022 1394 3022 966 
Q 3022 478 2636 193 
Q 2250 -91 1575 -91 
Q 1294 -91 989 -36 
Q 684 19 347 128 
L 347 722 
Q 666 556 975 473 
Q 1284 391 1588 391 
Q 1994 391 2212 530 
Q 2431 669 2431 922 
Q 2431 1156 2273 1281 
Q 2116 1406 1581 1522 
L 1381 1569 
Q 847 1681 609 1914 
Q 372 2147 372 2553 
Q 372 3047 722 3315 
Q 1072 3584 1716 3584 
Q 2034 3584 2315 3537 
Q 2597 3491 2834 3397 
z
" transform="scale(0.015625)"/>
      </defs>
      <use xlink:href="#DejaVuSans-47"/>
      <use xlink:href="#DejaVuSans-65" x="77.490234"/>
      <use xlink:href="#DejaVuSans-6e" x="139.013672"/>
      <use xlink:href="#DejaVuSans-65" x="202.392578"/>
      <use xlink:href="#DejaVuSans-72" x="263.916016"/>
      <use xlink:href="#DejaVuSans-61" x="305.029297"/>
      <use xlink:href="#DejaVuSans-74" x="366.308594"/>
      <use xlink:href="#DejaVuSans-69" x="405.517578"/>
      <use xlink:href="#DejaVuSans-6f" x="433.300781"/>
      <use xlink:href="#DejaVuSans-6e" x="494.482422"/>
      <use xlink:href="#DejaVuSans-73" x="557.861328"/>
     </g>
    </g>
   </g>
   <g id="matplotlib.axis_2">
    <g id="ytick_1">
     <g id="line2d_15">
      <path d="M 57.6 300.964182 
L 414.72 300.964182 
" clip-path="url(#p9a1754508c)" style="fill: none; stroke: #b0b0b0; stroke-width: 0.8; stroke-linecap: square"/>
     </g>
     <g id="line2d_16">
      <defs>
       <path id="m0e890cf658" d="M 0 0 
L -3.5 0 
" style="stroke: #000000; stroke-width: 0.8"/>
      </defs>
      <g>
       <use xlink:href="#m0e890cf658" x="57.6" y="300.964182" style="stroke: #000000; stroke-width: 0.8"/>
      </g>
     </g>
     <g id="text_9">
      <!-- −1000 -->
      <g transform="translate(16.770313 304.763401)scale(0.1 -0.1)">
       <defs>
        <path id="DejaVuSans-2212" d="M 678 2272 
L 4684 2272 
L 4684 1741 
L 678 1741 
L 678 2272 
z
" transform="scale(0.015625)"/>
       </defs>
       <use xlink:href="#DejaVuSans-2212"/>
       <use xlink:href="#DejaVuSans-31" x="83.789062"/>
       <use xlink:href="#DejaVuSans-30" x="147.412109"/>
       <use xlink:href="#DejaVuSans-30" x="211.035156"/>
       <use xlink:href="#DejaVuSans-30" x="274.658203"/>
      </g>
     </g>
    </g>
    <g id="ytick_2">
     <g id="line2d_17">
      <path d="M 57.6 258.50478 
L 414.72 258.50478 
" clip-path="url(#p9a1754508c)" style="fill: none; stroke: #b0b0b0; stroke-width: 0.8; stroke-linecap: square"/>
     </g>
     <g id="line2d_18">
      <g>
       <use xlink:href="#m0e890cf658" x="57.6" y="258.50478" style="stroke: #000000; stroke-width: 0.8"/>
      </g>
     </g>
     <g id="text_10">
      <!-- −800 -->
      <g transform="translate(23.132812 262.303998)scale(0.1 -0.1)">
       <defs>
        <path id="DejaVuSans-38" d="M 2034 2216 
Q 1584 2216 1326 1975 
Q 1069 1734 1069 1313 
Q 1069 891 1326 650 
Q 1584 409 2034 409 
Q 2484 409 2743 651 
Q 3003 894 3003 1313 
Q 3003 1734 2745 1975 
Q 2488 2216 2034 2216 
z
M 1403 2484 
Q 997 2584 770 2862 
Q 544 3141 544 3541 
Q 544 4100 942 4425 
Q 1341 4750 2034 4750 
Q 2731 4750 3128 4425 
Q 3525 4100 3525 3541 
Q 3525 3141 3298 2862 
Q 3072 2584 2669 2484 
Q 3125 2378 3379 2068 
Q 3634 1759 3634 1313 
Q 3634 634 3220 271 
Q 2806 -91 2034 -91 
Q 1263 -91 848 271 
Q 434 634 434 1313 
Q 434 1759 690 2068 
Q 947 2378 1403 2484 
z
M 1172 3481 
Q 1172 3119 1398 2916 
Q 1625 2713 2034 2713 
Q 2441 2713 2670 2916 
Q 2900 3119 2900 3481 
Q 2900 3844 2670 4047 
Q 2441 4250 2034 4250 
Q 1625 4250 1398 4047 
Q 1172 3844 1172 3481 
z
" transform="scale(0.015625)"/>
       </defs>
       <use xlink:href="#DejaVuSans-2212"/>
       <use xlink:href="#DejaVuSans-38" x="83.789062"/>
       <use xlink:href="#DejaVuSans-30" x="147.412109"/>
       <use xlink:href="#DejaVuSans-30" x="211.035156"/>
      </g>
     </g>
    </g>
    <g id="ytick_3">
     <g id="line2d_19">
      <path d="M 57.6 216.045377 
L 414.72 216.045377 
" clip-path="url(#p9a1754508c)" style="fill: none; stroke: #b0b0b0; stroke-width: 0.8; stroke-linecap: square"/>
     </g>
     <g id="line2d_20">
      <g>
       <use xlink:href="#m0e890cf658" x="57.6" y="216.045377" style="stroke: #000000; stroke-width: 0.8"/>
      </g>
     </g>
     <g id="text_11">
      <!-- −600 -->
      <g transform="translate(23.132812 219.844595)scale(0.1 -0.1)">
       <defs>
        <path id="DejaVuSans-36" d="M 2113 2584 
Q 1688 2584 1439 2293 
Q 1191 2003 1191 1497 
Q 1191 994 1439 701 
Q 1688 409 2113 409 
Q 2538 409 2786 701 
Q 3034 994 3034 1497 
Q 3034 2003 2786 2293 
Q 2538 2584 2113 2584 
z
M 3366 4563 
L 3366 3988 
Q 3128 4100 2886 4159 
Q 2644 4219 2406 4219 
Q 1781 4219 1451 3797 
Q 1122 3375 1075 2522 
Q 1259 2794 1537 2939 
Q 1816 3084 2150 3084 
Q 2853 3084 3261 2657 
Q 3669 2231 3669 1497 
Q 3669 778 3244 343 
Q 2819 -91 2113 -91 
Q 1303 -91 875 529 
Q 447 1150 447 2328 
Q 447 3434 972 4092 
Q 1497 4750 2381 4750 
Q 2619 4750 2861 4703 
Q 3103 4656 3366 4563 
z
" transform="scale(0.015625)"/>
       </defs>
       <use xlink:href="#DejaVuSans-2212"/>
       <use xlink:href="#DejaVuSans-36" x="83.789062"/>
       <use xlink:href="#DejaVuSans-30" x="147.412109"/>
       <use xlink:href="#DejaVuSans-30" x="211.035156"/>
      </g>
     </g>
    </g>
    <g id="ytick_4">
     <g id="line2d_21">
      <path d="M 57.6 173.585974 
L 414.72 173.585974 
" clip-path="url(#p9a1754508c)" style="fill: none; stroke: #b0b0b0; stroke-width: 0.8; stroke-linecap: square"/>
     </g>
     <g id="line2d_22">
      <g>
       <use xlink:href="#m0e890cf658" x="57.6" y="173.585974" style="stroke: #000000; stroke-width: 0.8"/>
      </g>
     </g>
     <g id="text_12">
      <!-- −400 -->
      <g transform="translate(23.132812 177.385193)scale(0.1 -0.1)">
       <defs>
        <path id="DejaVuSans-34" d="M 2419 4116 
L 825 1625 
L 2419 1625 
L 2419 4116 
z
M 2253 4666 
L 3047 4666 
L 3047 1625 
L 3713 1625 
L 3713 1100 
L 3047 1100 
L 3047 0 
L 2419 0 
L 2419 1100 
L 313 1100 
L 313 1709 
L 2253 4666 
z
" transform="scale(0.015625)"/>
       </defs>
       <use xlink:href="#DejaVuSans-2212"/>
       <use xlink:href="#DejaVuSans-34" x="83.789062"/>
       <use xlink:href="#DejaVuSans-30" x="147.412109"/>
       <use xlink:href="#DejaVuSans-30" x="211.035156"/>
      </g>
     </g>
    </g>
    <g id="ytick_5">
     <g id="line2d_23">
      <path d="M 57.6 131.126571 
L 414.72 131.126571 
" clip-path="url(#p9a1754508c)" style="fill: none; stroke: #b0b0b0; stroke-width: 0.8; stroke-linecap: square"/>
     </g>
     <g id="line2d_24">
      <g>
       <use xlink:href="#m0e890cf658" x="57.6" y="131.126571" style="stroke: #000000; stroke-width: 0.8"/>
      </g>
     </g>
     <g id="text_13">
      <!-- −200 -->
      <g transform="translate(23.132812 134.92579)scale(0.1 -0.1)">
       <use xlink:href="#DejaVuSans-2212"/>
       <use xlink:href="#DejaVuSans-32" x="83.789062"/>
       <use xlink:href="#DejaVuSans-30" x="147.412109"/>
       <use xlink:href="#DejaVuSans-30" x="211.035156"/>
      </g>
     </g>
    </g>
    <g id="ytick_6">
     <g id="line2d_25">
      <path d="M 57.6 88.667168 
L 414.72 88.667168 
" clip-path="url(#p9a1754508c)" style="fill: none; stroke: #b0b0b0; stroke-width: 0.8; stroke-linecap: square"/>
     </g>
     <g id="line2d_26">
      <g>
       <use xlink:href="#m0e890cf658" x="57.6" y="88.667168" style="stroke: #000000; stroke-width: 0.8"/>
      </g>
     </g>
     <g id="text_14">
      <!-- 0 -->
      <g transform="translate(44.2375 92.466387)scale(0.1 -0.1)">
       <use xlink:href="#DejaVuSans-30"/>
      </g>
     </g>
    </g>
    <g id="ytick_7">
     <g id="line2d_27">
      <path d="M 57.6 46.207765 
L 414.72 46.207765 
" clip-path="url(#p9a1754508c)" style="fill: none; stroke: #b0b0b0; stroke-width: 0.8; stroke-linecap: square"/>
     </g>
     <g id="line2d_28">
      <g>
       <use xlink:href="#m0e890cf658" x="57.6" y="46.207765" style="stroke: #000000; stroke-width: 0.8"/>
      </g>
     </g>
     <g id="text_15">
      <!-- 200 -->
      <g transform="translate(31.5125 50.006984)scale(0.1 -0.1)">
       <use xlink:href="#DejaVuSans-32"/>
       <use xlink:href="#DejaVuSans-30" x="63.623047"/>
       <use xlink:href="#DejaVuSans-30" x="127.246094"/>
      </g>
     </g>
    </g>
    <g id="text_16">
     <!-- Fitness -->
     <g transform="translate(10.690625 191.845187)rotate(-90)scale(0.1 -0.1)">
      <defs>
       <path id="DejaVuSans-46" d="M 628 4666 
L 3309 4666 
L 3309 4134 
L 1259 4134 
L 1259 2759 
L 3109 2759 
L 3109 2228 
L 1259 2228 
L 1259 0 
L 628 0 
L 628 4666 
z
" transform="scale(0.015625)"/>
      </defs>
      <use xlink:href="#DejaVuSans-46"/>
      <use xlink:href="#DejaVuSans-69" x="50.269531"/>
      <use xlink:href="#DejaVuSans-74" x="78.052734"/>
      <use xlink:href="#DejaVuSans-6e" x="117.261719"/>
      <use xlink:href="#DejaVuSans-65" x="180.640625"/>
      <use xlink:href="#DejaVuSans-73" x="242.164062"/>
      <use xlink:href="#DejaVuSans-73" x="294.263672"/>
     </g>
    </g>
   </g>
   <g id="line2d_29">
    <path d="M 73.832727 295.488 
L 74.956099 287.522912 
L 77.202844 274.602766 
L 78.326216 269.664835 
L 80.57296 262.693632 
L 81.696332 253.312229 
L 82.819704 213.563989 
L 83.943076 145.984598 
L 85.066449 157.679818 
L 86.189821 120.667632 
L 87.313193 112.172143 
L 88.436565 114.669604 
L 89.559937 107.10192 
L 91.806681 113.543536 
L 92.930053 107.852053 
L 94.053426 106.084467 
L 95.176798 105.789992 
L 96.30017 113.191145 
L 97.423542 118.773394 
L 98.546914 114.737929 
L 99.670286 108.886229 
L 100.793658 110.437548 
L 101.917031 117.069473 
L 103.040403 112.414203 
L 104.163775 112.015531 
L 105.287147 119.279456 
L 106.410519 117.41175 
L 107.533891 118.96507 
L 108.657263 114.902132 
L 109.780635 116.284674 
L 110.904008 111.425073 
L 112.02738 114.465157 
L 113.150752 110.066474 
L 114.274124 116.880196 
L 115.397496 110.16942 
L 116.520868 119.734537 
L 117.64424 108.425384 
L 118.767612 113.360106 
L 119.890985 113.029156 
L 121.014357 116.541752 
L 122.137729 110.55797 
L 123.261101 114.037383 
L 124.384473 112.447361 
L 125.507845 105.231536 
L 127.754589 117.539583 
L 128.877962 116.358845 
L 130.001334 114.153513 
L 131.124706 112.211712 
L 132.248078 118.789035 
L 133.37145 111.821403 
L 134.494822 117.204853 
L 135.618194 116.998972 
L 136.741567 112.213424 
L 137.864939 113.249255 
L 138.988311 112.166622 
L 140.111683 120.99235 
L 141.235055 118.092536 
L 142.358427 116.341776 
L 143.481799 115.574786 
L 144.605171 111.788849 
L 145.728544 112.655272 
L 146.851916 120.223544 
L 147.975288 116.497656 
L 149.09866 119.483268 
L 150.222032 119.097198 
L 151.345404 113.066728 
L 152.468776 113.28584 
L 153.592148 117.003508 
L 154.715521 110.429994 
L 155.838893 111.777164 
L 156.962265 119.833233 
L 158.085637 117.162187 
L 159.209009 115.55812 
L 160.332381 123.408495 
L 161.455753 112.603426 
L 162.579126 111.981964 
L 163.702498 119.214215 
L 164.82587 112.575337 
L 165.949242 109.676588 
L 167.072614 113.342691 
L 168.195986 123.893403 
L 169.319358 112.783138 
L 171.566103 115.522958 
L 172.689475 113.484405 
L 173.812847 112.951075 
L 174.936219 113.215848 
L 176.059591 112.110669 
L 177.182963 114.102047 
L 178.306335 115.293915 
L 179.429707 110.290551 
L 180.55308 111.010225 
L 181.676452 114.369863 
L 182.799824 112.707506 
L 183.923196 113.094008 
L 185.046568 114.842828 
L 186.16994 112.136037 
L 187.293312 123.730498 
L 188.416684 121.24879 
L 189.540057 111.97962 
L 191.786801 115.014368 
L 192.910173 108.470684 
L 194.033545 117.94765 
L 195.156917 111.373634 
L 196.280289 116.071187 
L 197.403662 113.594041 
L 198.527034 115.797685 
L 199.650406 122.09798 
L 200.773778 113.118745 
L 201.89715 110.337017 
L 203.020522 114.397429 
L 204.143894 113.86517 
L 205.267266 114.344961 
L 206.390639 114.121598 
L 207.514011 117.264695 
L 208.637383 112.610463 
L 209.760755 113.813397 
L 210.884127 110.808151 
L 212.007499 111.832924 
L 213.130871 110.691044 
L 214.254243 115.280969 
L 215.377616 110.59834 
L 216.500988 115.68345 
L 217.62436 116.697207 
L 218.747732 111.466592 
L 219.871104 112.736108 
L 220.994476 115.61194 
L 222.117848 114.588386 
L 223.241221 119.157701 
L 224.364593 116.526064 
L 225.487965 118.463536 
L 226.611337 112.941037 
L 227.734709 115.549049 
L 228.858081 117.611519 
L 229.981453 117.071914 
L 231.104825 113.043862 
L 232.228198 112.07601 
L 233.35157 110.065888 
L 234.474942 118.929566 
L 235.598314 108.426895 
L 236.721686 108.056817 
L 237.845058 109.454571 
L 238.96843 107.7879 
L 240.091802 115.904243 
L 241.215175 113.144026 
L 242.338547 110.884823 
L 243.461919 113.350955 
L 244.585291 111.20662 
L 245.708663 113.451041 
L 246.832035 114.339388 
L 247.955407 109.187849 
L 249.078779 114.322342 
L 250.202152 113.044751 
L 251.325524 109.073369 
L 252.448896 111.569638 
L 253.572268 110.020982 
L 254.69564 114.690677 
L 255.819012 108.764559 
L 256.942384 106.750657 
L 258.065757 109.186607 
L 259.189129 112.464089 
L 260.312501 114.03614 
L 261.435873 114.405418 
L 262.559245 113.931321 
L 263.682617 121.198068 
L 264.805989 110.154779 
L 265.929361 115.166178 
L 267.052734 111.41637 
L 268.176106 113.274433 
L 269.299478 109.459489 
L 270.42285 111.602284 
L 271.546222 112.040241 
L 272.669594 109.601662 
L 273.792966 112.092948 
L 274.916338 110.013774 
L 276.039711 113.671261 
L 277.163083 111.259634 
L 278.286455 111.815771 
L 279.409827 109.695968 
L 280.533199 113.433456 
L 281.656571 113.548459 
L 282.779943 119.661268 
L 283.903316 123.023277 
L 285.026688 115.25786 
L 286.15006 117.9401 
L 287.273432 117.105057 
L 288.396804 111.304915 
L 289.520176 110.835187 
L 290.643548 109.479154 
L 291.76692 113.009454 
L 292.890293 114.705871 
L 294.013665 112.158755 
L 295.137037 112.597239 
L 296.260409 112.574009 
L 297.383781 113.320739 
L 298.507153 113.565057 
L 299.630525 114.49848 
L 300.753897 112.215097 
L 301.87727 112.620837 
L 303.000642 108.22522 
L 304.124014 113.332488 
L 305.247386 116.49426 
L 306.370758 111.957018 
L 307.49413 111.689263 
L 308.617502 119.078154 
L 309.740874 122.780212 
L 310.864247 117.339721 
L 311.987619 115.307458 
L 313.110991 125.708179 
L 314.234363 124.43389 
L 315.357735 120.899768 
L 316.481107 119.117279 
L 317.604479 118.437027 
L 318.727852 125.90836 
L 319.851224 121.835004 
L 320.974596 115.215959 
L 322.097968 115.224848 
L 323.22134 119.016663 
L 324.344712 118.631697 
L 325.468084 121.788313 
L 326.591456 113.061803 
L 327.714829 116.39701 
L 328.838201 107.738173 
L 329.961573 110.962899 
L 331.084945 112.994863 
L 332.208317 118.437024 
L 333.331689 110.593384 
L 334.455061 111.028595 
L 335.578433 114.190575 
L 336.701806 110.23086 
L 337.825178 113.262017 
L 338.94855 114.204899 
L 340.071922 113.209681 
L 341.195294 112.575457 
L 342.318666 116.802189 
L 343.442038 115.690915 
L 344.565411 112.944591 
L 345.688783 113.908619 
L 346.812155 111.702398 
L 347.935527 113.45588 
L 349.058899 111.490744 
L 350.182271 116.35825 
L 351.305643 115.846569 
L 352.429015 108.042134 
L 353.552388 111.374061 
L 354.67576 110.538158 
L 355.799132 111.813881 
L 356.922504 110.244548 
L 358.045876 112.460867 
L 359.169248 110.465166 
L 360.29262 112.477393 
L 361.415992 113.195578 
L 362.539365 113.250315 
L 363.662737 108.553871 
L 364.786109 109.650668 
L 365.909481 113.227818 
L 367.032853 112.712838 
L 368.156225 112.580227 
L 369.279597 111.659192 
L 370.402969 107.950051 
L 371.526342 112.145814 
L 372.649714 120.163795 
L 373.773086 116.752069 
L 374.896458 118.418817 
L 376.01983 116.812736 
L 377.143202 111.85227 
L 378.266574 110.026648 
L 379.389947 111.66136 
L 380.513319 113.877088 
L 381.636691 112.929063 
L 382.760063 114.008732 
L 383.883435 112.656259 
L 385.006807 111.86377 
L 386.130179 111.380426 
L 387.253551 114.421479 
L 388.376924 118.45906 
L 390.623668 109.981981 
L 391.74704 115.231406 
L 392.870412 112.460007 
L 393.993784 114.721463 
L 395.117156 111.959522 
L 396.240528 115.548828 
L 397.363901 109.279219 
L 398.487273 107.687456 
L 398.487273 107.687456 
" clip-path="url(#p9a1754508c)" style="fill: none; stroke: #0000ff; stroke-width: 1.5; stroke-linecap: square"/>
   </g>
   <g id="line2d_30">
    <path d="M 73.832727 288.568722 
L 74.956099 279.123108 
L 77.202844 262.193726 
L 79.449588 249.898428 
L 80.57296 240.405829 
L 81.696332 211.323334 
L 83.943076 62.481129 
L 85.066449 80.917362 
L 86.189821 63.482135 
L 87.313193 62.330157 
L 88.436565 55.643822 
L 89.559937 61.42743 
L 90.683309 56.1225 
L 91.806681 53.568 
L 94.053426 58.92656 
L 95.176798 58.384519 
L 96.30017 64.62577 
L 97.423542 59.260876 
L 98.546914 60.803584 
L 99.670286 68.574679 
L 100.793658 65.626188 
L 101.917031 59.658585 
L 103.040403 66.51772 
L 104.163775 66.729413 
L 105.287147 59.794538 
L 106.410519 59.586049 
L 107.533891 60.825082 
L 108.657263 65.090251 
L 109.780635 64.133849 
L 110.904008 67.008853 
L 112.02738 64.428843 
L 113.150752 71.195363 
L 114.274124 64.252075 
L 115.397496 72.366383 
L 116.520868 61.081534 
L 117.64424 73.663788 
L 118.767612 66.574135 
L 119.890985 65.825349 
L 121.014357 63.834785 
L 122.137729 69.58848 
L 123.261101 65.090329 
L 124.384473 67.718426 
L 125.507845 80.579423 
L 126.631217 69.358871 
L 127.754589 60.935656 
L 128.877962 61.779248 
L 130.001334 66.285815 
L 131.124706 70.167831 
L 132.248078 60.420801 
L 133.37145 64.815977 
L 134.494822 62.932027 
L 135.618194 65.108765 
L 136.741567 70.507887 
L 137.864939 64.808622 
L 138.988311 65.950775 
L 140.111683 58.920752 
L 141.235055 58.604307 
L 142.358427 63.572939 
L 143.481799 62.782786 
L 144.605171 72.406114 
L 145.728544 67.007133 
L 146.851916 59.565057 
L 147.975288 63.800861 
L 149.09866 62.310002 
L 150.222032 60.370446 
L 151.345404 68.057406 
L 152.468776 65.957951 
L 153.592148 65.773096 
L 154.715521 70.885185 
L 155.838893 70.230321 
L 156.962265 60.861643 
L 158.085637 64.31609 
L 159.209009 62.579024 
L 160.332381 58.97539 
L 161.455753 65.721579 
L 162.579126 69.818595 
L 163.702498 61.167587 
L 164.82587 66.591475 
L 165.949242 70.904537 
L 167.072614 62.624162 
L 168.195986 58.225553 
L 169.319358 65.732124 
L 170.44273 66.164644 
L 171.566103 62.334498 
L 172.689475 66.300704 
L 173.812847 66.703529 
L 174.936219 65.865554 
L 176.059591 67.304737 
L 177.182963 66.710473 
L 178.306335 67.033657 
L 179.429707 70.040677 
L 181.676452 67.315285 
L 182.799824 67.692311 
L 183.923196 69.015978 
L 185.046568 64.486739 
L 186.16994 70.911383 
L 187.293312 58.949306 
L 188.416684 58.907978 
L 189.540057 66.829446 
L 190.663429 66.587655 
L 191.786801 63.750979 
L 192.910173 74.456545 
L 194.033545 59.588532 
L 195.156917 67.361994 
L 196.280289 63.318168 
L 197.403662 65.034259 
L 198.527034 63.996554 
L 199.650406 58.820139 
L 201.89715 69.666974 
L 203.020522 63.853169 
L 204.143894 61.558611 
L 205.267266 61.038831 
L 206.390639 64.485996 
L 207.514011 60.692927 
L 208.637383 67.131592 
L 209.760755 61.584616 
L 210.884127 67.776029 
L 212.007499 66.041414 
L 213.130871 67.875054 
L 214.254243 63.289862 
L 215.377616 70.953288 
L 216.500988 64.2764 
L 217.62436 62.59367 
L 218.747732 69.543759 
L 219.871104 68.885348 
L 220.994476 62.716555 
L 222.117848 62.726069 
L 223.241221 57.130962 
L 224.364593 61.514107 
L 225.487965 58.92226 
L 226.611337 66.627763 
L 227.734709 66.419838 
L 228.858081 62.335152 
L 229.981453 62.914279 
L 231.104825 65.081647 
L 232.228198 67.724782 
L 233.35157 68.514463 
L 234.474942 59.108016 
L 235.598314 72.479007 
L 236.721686 76.258729 
L 237.845058 71.053992 
L 238.96843 75.229391 
L 240.091802 60.205591 
L 241.215175 63.769488 
L 242.338547 66.706399 
L 243.461919 66.644621 
L 245.708663 69.509399 
L 246.832035 68.353439 
L 247.955407 72.890712 
L 249.078779 64.662489 
L 250.202152 68.178021 
L 251.325524 72.947965 
L 252.448896 67.558926 
L 253.572268 71.86797 
L 254.69564 63.280594 
L 255.819012 75.548305 
L 256.942384 78.349169 
L 258.065757 70.114973 
L 259.189129 66.09688 
L 260.312501 66.997022 
L 261.435873 65.715545 
L 262.559245 66.941811 
L 263.682617 58.976765 
L 264.805989 70.933268 
L 265.929361 62.730257 
L 267.052734 70.158351 
L 268.176106 67.703716 
L 269.299478 72.777596 
L 270.42285 63.694357 
L 271.546222 65.49147 
L 272.669594 73.878487 
L 273.792966 66.728417 
L 274.916338 70.175112 
L 276.039711 67.80814 
L 277.163083 66.933354 
L 278.286455 66.686676 
L 279.409827 71.560733 
L 280.533199 68.973692 
L 281.656571 65.552379 
L 282.779943 61.609934 
L 283.903316 56.728436 
L 285.026688 63.637577 
L 286.15006 63.724997 
L 287.273432 63.954766 
L 288.396804 69.079288 
L 289.520176 69.813791 
L 290.643548 72.954508 
L 291.76692 64.316654 
L 292.890293 62.96324 
L 294.013665 64.435908 
L 295.137037 67.914476 
L 296.260409 68.972927 
L 297.383781 66.695416 
L 298.507153 66.660929 
L 299.630525 61.326919 
L 300.753897 66.688926 
L 301.87727 68.909166 
L 303.000642 74.269378 
L 304.124014 66.224533 
L 305.247386 65.398848 
L 306.370758 67.974749 
L 307.49413 67.313359 
L 308.617502 60.448647 
L 309.740874 58.771946 
L 310.864247 59.055035 
L 311.987619 61.624817 
L 313.110991 54.848406 
L 314.234363 56.813654 
L 315.357735 57.801358 
L 316.481107 57.825783 
L 317.604479 58.287636 
L 318.727852 54.760139 
L 319.851224 53.833646 
L 320.974596 62.511954 
L 322.097968 64.086714 
L 323.22134 60.645221 
L 324.344712 60.48487 
L 325.468084 57.506278 
L 326.591456 61.459025 
L 327.714829 60.122208 
L 328.838201 72.656139 
L 329.961573 69.405221 
L 331.084945 66.968632 
L 332.208317 65.425334 
L 333.331689 74.277239 
L 334.455061 67.196925 
L 335.578433 63.850949 
L 336.701806 71.753625 
L 337.825178 66.495062 
L 338.94855 67.016551 
L 340.071922 70.048781 
L 341.195294 67.062417 
L 342.318666 66.386002 
L 343.442038 66.926735 
L 344.565411 68.553811 
L 345.688783 64.954821 
L 346.812155 68.645069 
L 347.935527 66.128832 
L 349.058899 69.66268 
L 350.182271 64.552924 
L 351.305643 64.564192 
L 352.429015 73.397927 
L 353.552388 70.277741 
L 354.67576 69.146269 
L 355.799132 69.029505 
L 356.922504 70.615468 
L 358.045876 67.84394 
L 359.169248 71.135415 
L 360.29262 69.192923 
L 361.415992 64.883603 
L 362.539365 62.499358 
L 363.662737 71.761504 
L 364.786109 71.070423 
L 365.909481 65.539622 
L 367.032853 63.959779 
L 368.156225 66.254603 
L 369.279597 67.376628 
L 370.402969 74.558291 
L 371.526342 66.581566 
L 372.649714 56.574086 
L 373.773086 60.521509 
L 374.896458 60.655626 
L 376.01983 59.32242 
L 377.143202 66.778382 
L 378.266574 72.57158 
L 379.389947 69.041491 
L 380.513319 66.532805 
L 381.636691 65.956871 
L 382.760063 63.333168 
L 383.883435 67.340961 
L 385.006807 68.31302 
L 386.130179 68.318623 
L 387.253551 66.515075 
L 388.376924 57.242512 
L 389.500296 64.597866 
L 390.623668 69.829051 
L 391.74704 63.300412 
L 392.870412 65.852967 
L 393.993784 65.969972 
L 395.117156 68.313261 
L 396.240528 62.869352 
L 397.363901 72.198699 
L 398.487273 77.173682 
L 398.487273 77.173682 
" clip-path="url(#p9a1754508c)" style="fill: none; stroke-dasharray: 9.6,2.4,1.5,2.4; stroke-dashoffset: 0; stroke: #008000; stroke-width: 1.5"/>
   </g>
   <g id="line2d_31">
    <path d="M 73.832727 260.690336 
L 74.956099 256.523613 
L 76.079472 244.168377 
L 77.202844 220.645491 
L 78.326216 220.645491 
L 79.449588 212.404684 
L 80.57296 88.756315 
L 83.943076 88.667848 
L 85.066449 94.320799 
L 95.176798 94.320799 
L 96.30017 100.972875 
L 106.410519 100.972875 
L 107.533891 101.702656 
L 117.64424 101.702656 
L 118.767612 101.832197 
L 128.877962 101.832197 
L 130.001334 102.208574 
L 140.111683 102.208574 
L 141.235055 102.029719 
L 162.579126 101.99008 
L 163.702498 102.152677 
L 185.046568 102.166923 
L 186.16994 102.037594 
L 252.448896 101.977475 
L 254.69564 101.909964 
L 286.15006 101.881136 
L 287.273432 101.748173 
L 297.383781 101.748173 
L 298.507153 101.978974 
L 331.084945 101.942472 
L 332.208317 102.164618 
L 342.318666 102.164618 
L 343.442038 101.916756 
L 364.786109 101.915736 
L 365.909481 102.109141 
L 387.253551 102.025072 
L 388.376924 101.8698 
L 398.487273 101.8698 
L 398.487273 101.8698 
" clip-path="url(#p9a1754508c)" style="fill: none; stroke: #ff0000; stroke-width: 1.5; stroke-linecap: square"/>
   </g>
   <g id="patch_3">
    <path d="M 57.6 307.584 
L 57.6 41.472 
" style="fill: none; stroke: #000000; stroke-width: 0.8; stroke-linejoin: miter; stroke-linecap: square"/>
   </g>
   <g id="patch_4">
    <path d="M 414.72 307.584 
L 414.72 41.472 
" style="fill: none; stroke: #000000; stroke-width: 0.8; stroke-linejoin: miter; stroke-linecap: square"/>
   </g>
   <g id="patch_5">
    <path d="M 57.6 307.584 
L 414.72 307.584 
" style="fill: none; stroke: #000000; stroke-width: 0.8; stroke-linejoin: miter; stroke-linecap: square"/>
   </g>
   <g id="patch_6">
    <path d="M 57.6 41.472 
L 414.72 41.472 
" style="fill: none; stroke: #000000; stroke-width: 0.8; stroke-linejoin: miter; stroke-linecap: square"/>
   </g>
   <g id="text_17">
    <!-- Population's average and best fitness -->
    <g transform="translate(123.529687 35.472)scale(0.12 -0.12)">
     <defs>
      <path id="DejaVuSans-50" d="M 1259 4147 
L 1259 2394 
L 2053 2394 
Q 2494 2394 2734 2622 
Q 2975 2850 2975 3272 
Q 2975 3691 2734 3919 
Q 2494 4147 2053 4147 
L 1259 4147 
z
M 628 4666 
L 2053 4666 
Q 2838 4666 3239 4311 
Q 3641 3956 3641 3272 
Q 3641 2581 3239 2228 
Q 2838 1875 2053 1875 
L 1259 1875 
L 1259 0 
L 628 0 
L 628 4666 
z
" transform="scale(0.015625)"/>
      <path id="DejaVuSans-70" d="M 1159 525 
L 1159 -1331 
L 581 -1331 
L 581 3500 
L 1159 3500 
L 1159 2969 
Q 1341 3281 1617 3432 
Q 1894 3584 2278 3584 
Q 2916 3584 3314 3078 
Q 3713 2572 3713 1747 
Q 3713 922 3314 415 
Q 2916 -91 2278 -91 
Q 1894 -91 1617 61 
Q 1341 213 1159 525 
z
M 3116 1747 
Q 3116 2381 2855 2742 
Q 2594 3103 2138 3103 
Q 1681 3103 1420 2742 
Q 1159 2381 1159 1747 
Q 1159 1113 1420 752 
Q 1681 391 2138 391 
Q 2594 391 2855 752 
Q 3116 1113 3116 1747 
z
" transform="scale(0.015625)"/>
      <path id="DejaVuSans-75" d="M 544 1381 
L 544 3500 
L 1119 3500 
L 1119 1403 
Q 1119 906 1312 657 
Q 1506 409 1894 409 
Q 2359 409 2629 706 
Q 2900 1003 2900 1516 
L 2900 3500 
L 3475 3500 
L 3475 0 
L 2900 0 
L 2900 538 
Q 2691 219 2414 64 
Q 2138 -91 1772 -91 
Q 1169 -91 856 284 
Q 544 659 544 1381 
z
M 1991 3584 
L 1991 3584 
z
" transform="scale(0.015625)"/>
      <path id="DejaVuSans-6c" d="M 603 4863 
L 1178 4863 
L 1178 0 
L 603 0 
L 603 4863 
z
" transform="scale(0.015625)"/>
      <path id="DejaVuSans-27" d="M 1147 4666 
L 1147 2931 
L 616 2931 
L 616 4666 
L 1147 4666 
z
" transform="scale(0.015625)"/>
      <path id="DejaVuSans-20" transform="scale(0.015625)"/>
      <path id="DejaVuSans-76" d="M 191 3500 
L 800 3500 
L 1894 563 
L 2988 3500 
L 3597 3500 
L 2284 0 
L 1503 0 
L 191 3500 
z
" transform="scale(0.015625)"/>
      <path id="DejaVuSans-67" d="M 2906 1791 
Q 2906 2416 2648 2759 
Q 2391 3103 1925 3103 
Q 1463 3103 1205 2759 
Q 947 2416 947 1791 
Q 947 1169 1205 825 
Q 1463 481 1925 481 
Q 2391 481 2648 825 
Q 2906 1169 2906 1791 
z
M 3481 434 
Q 3481 -459 3084 -895 
Q 2688 -1331 1869 -1331 
Q 1566 -1331 1297 -1286 
Q 1028 -1241 775 -1147 
L 775 -588 
Q 1028 -725 1275 -790 
Q 1522 -856 1778 -856 
Q 2344 -856 2625 -561 
Q 2906 -266 2906 331 
L 2906 616 
Q 2728 306 2450 153 
Q 2172 0 1784 0 
Q 1141 0 747 490 
Q 353 981 353 1791 
Q 353 2603 747 3093 
Q 1141 3584 1784 3584 
Q 2172 3584 2450 3431 
Q 2728 3278 2906 2969 
L 2906 3500 
L 3481 3500 
L 3481 434 
z
" transform="scale(0.015625)"/>
      <path id="DejaVuSans-64" d="M 2906 2969 
L 2906 4863 
L 3481 4863 
L 3481 0 
L 2906 0 
L 2906 525 
Q 2725 213 2448 61 
Q 2172 -91 1784 -91 
Q 1150 -91 751 415 
Q 353 922 353 1747 
Q 353 2572 751 3078 
Q 1150 3584 1784 3584 
Q 2172 3584 2448 3432 
Q 2725 3281 2906 2969 
z
M 947 1747 
Q 947 1113 1208 752 
Q 1469 391 1925 391 
Q 2381 391 2643 752 
Q 2906 1113 2906 1747 
Q 2906 2381 2643 2742 
Q 2381 3103 1925 3103 
Q 1469 3103 1208 2742 
Q 947 2381 947 1747 
z
" transform="scale(0.015625)"/>
      <path id="DejaVuSans-62" d="M 3116 1747 
Q 3116 2381 2855 2742 
Q 2594 3103 2138 3103 
Q 1681 3103 1420 2742 
Q 1159 2381 1159 1747 
Q 1159 1113 1420 752 
Q 1681 391 2138 391 
Q 2594 391 2855 752 
Q 3116 1113 3116 1747 
z
M 1159 2969 
Q 1341 3281 1617 3432 
Q 1894 3584 2278 3584 
Q 2916 3584 3314 3078 
Q 3713 2572 3713 1747 
Q 3713 922 3314 415 
Q 2916 -91 2278 -91 
Q 1894 -91 1617 61 
Q 1341 213 1159 525 
L 1159 0 
L 581 0 
L 581 4863 
L 1159 4863 
L 1159 2969 
z
" transform="scale(0.015625)"/>
      <path id="DejaVuSans-66" d="M 2375 4863 
L 2375 4384 
L 1825 4384 
Q 1516 4384 1395 4259 
Q 1275 4134 1275 3809 
L 1275 3500 
L 2222 3500 
L 2222 3053 
L 1275 3053 
L 1275 0 
L 697 0 
L 697 3053 
L 147 3053 
L 147 3500 
L 697 3500 
L 697 3744 
Q 697 4328 969 4595 
Q 1241 4863 1831 4863 
L 2375 4863 
z
" transform="scale(0.015625)"/>
     </defs>
     <use xlink:href="#DejaVuSans-50"/>
     <use xlink:href="#DejaVuSans-6f" x="56.677734"/>
     <use xlink:href="#DejaVuSans-70" x="117.859375"/>
     <use xlink:href="#DejaVuSans-75" x="181.335938"/>
     <use xlink:href="#DejaVuSans-6c" x="244.714844"/>
     <use xlink:href="#DejaVuSans-61" x="272.498047"/>
     <use xlink:href="#DejaVuSans-74" x="333.777344"/>
     <use xlink:href="#DejaVuSans-69" x="372.986328"/>
     <use xlink:href="#DejaVuSans-6f" x="400.769531"/>
     <use xlink:href="#DejaVuSans-6e" x="461.951172"/>
     <use xlink:href="#DejaVuSans-27" x="525.330078"/>
     <use xlink:href="#DejaVuSans-73" x="552.820312"/>
     <use xlink:href="#DejaVuSans-20" x="604.919922"/>
     <use xlink:href="#DejaVuSans-61" x="636.707031"/>
     <use xlink:href="#DejaVuSans-76" x="697.986328"/>
     <use xlink:href="#DejaVuSans-65" x="757.166016"/>
     <use xlink:href="#DejaVuSans-72" x="818.689453"/>
     <use xlink:href="#DejaVuSans-61" x="859.802734"/>
     <use xlink:href="#DejaVuSans-67" x="921.082031"/>
     <use xlink:href="#DejaVuSans-65" x="984.558594"/>
     <use xlink:href="#DejaVuSans-20" x="1046.082031"/>
     <use xlink:href="#DejaVuSans-61" x="1077.869141"/>
     <use xlink:href="#DejaVuSans-6e" x="1139.148438"/>
     <use xlink:href="#DejaVuSans-64" x="1202.527344"/>
     <use xlink:href="#DejaVuSans-20" x="1266.003906"/>
     <use xlink:href="#DejaVuSans-62" x="1297.791016"/>
     <use xlink:href="#DejaVuSans-65" x="1361.267578"/>
     <use xlink:href="#DejaVuSans-73" x="1422.791016"/>
     <use xlink:href="#DejaVuSans-74" x="1474.890625"/>
     <use xlink:href="#DejaVuSans-20" x="1514.099609"/>
     <use xlink:href="#DejaVuSans-66" x="1545.886719"/>
     <use xlink:href="#DejaVuSans-69" x="1581.091797"/>
     <use xlink:href="#DejaVuSans-74" x="1608.875"/>
     <use xlink:href="#DejaVuSans-6e" x="1648.083984"/>
     <use xlink:href="#DejaVuSans-65" x="1711.462891"/>
     <use xlink:href="#DejaVuSans-73" x="1772.986328"/>
     <use xlink:href="#DejaVuSans-73" x="1825.085938"/>
    </g>
   </g>
   <g id="legend_1">
    <g id="patch_7">
     <path d="M 334.779375 302.584 
L 407.72 302.584 
Q 409.72 302.584 409.72 300.584 
L 409.72 257.549625 
Q 409.72 255.549625 407.72 255.549625 
L 334.779375 255.549625 
Q 332.779375 255.549625 332.779375 257.549625 
L 332.779375 300.584 
Q 332.779375 302.584 334.779375 302.584 
z
" style="fill: #ffffff; opacity: 0.8; stroke: #cccccc; stroke-linejoin: miter"/>
    </g>
    <g id="line2d_32">
     <path d="M 336.779375 263.648062 
L 346.779375 263.648062 
L 356.779375 263.648062 
" style="fill: none; stroke: #0000ff; stroke-width: 1.5; stroke-linecap: square"/>
    </g>
    <g id="text_18">
     <!-- average -->
     <g transform="translate(364.779375 267.148062)scale(0.1 -0.1)">
      <use xlink:href="#DejaVuSans-61"/>
      <use xlink:href="#DejaVuSans-76" x="61.279297"/>
      <use xlink:href="#DejaVuSans-65" x="120.458984"/>
      <use xlink:href="#DejaVuSans-72" x="181.982422"/>
      <use xlink:href="#DejaVuSans-61" x="223.095703"/>
      <use xlink:href="#DejaVuSans-67" x="284.375"/>
      <use xlink:href="#DejaVuSans-65" x="347.851562"/>
     </g>
    </g>
    <g id="line2d_33">
     <path d="M 336.779375 278.326188 
L 346.779375 278.326188 
L 356.779375 278.326188 
" style="fill: none; stroke-dasharray: 9.6,2.4,1.5,2.4; stroke-dashoffset: 0; stroke: #008000; stroke-width: 1.5"/>
    </g>
    <g id="text_19">
     <!-- +1 sd -->
     <g transform="translate(364.779375 281.826188)scale(0.1 -0.1)">
      <defs>
       <path id="DejaVuSans-2b" d="M 2944 4013 
L 2944 2272 
L 4684 2272 
L 4684 1741 
L 2944 1741 
L 2944 0 
L 2419 0 
L 2419 1741 
L 678 1741 
L 678 2272 
L 2419 2272 
L 2419 4013 
L 2944 4013 
z
" transform="scale(0.015625)"/>
      </defs>
      <use xlink:href="#DejaVuSans-2b"/>
      <use xlink:href="#DejaVuSans-31" x="83.789062"/>
      <use xlink:href="#DejaVuSans-20" x="147.412109"/>
      <use xlink:href="#DejaVuSans-73" x="179.199219"/>
      <use xlink:href="#DejaVuSans-64" x="231.298828"/>
     </g>
    </g>
    <g id="line2d_34">
     <path d="M 336.779375 293.004312 
L 346.779375 293.004312 
L 356.779375 293.004312 
" style="fill: none; stroke: #ff0000; stroke-width: 1.5; stroke-linecap: square"/>
    </g>
    <g id="text_20">
     <!-- best -->
     <g transform="translate(364.779375 296.504312)scale(0.1 -0.1)">
      <use xlink:href="#DejaVuSans-62"/>
      <use xlink:href="#DejaVuSans-65" x="63.476562"/>
      <use xlink:href="#DejaVuSans-73" x="125"/>
      <use xlink:href="#DejaVuSans-74" x="177.099609"/>
     </g>
    </g>
   </g>
  </g>
 </g>
 <defs>
  <clipPath id="p9a1754508c">
   <rect x="57.6" y="41.472" width="357.12" height="266.112"/>
  </clipPath>
 </defs>
</svg>
