<?xml version="1.0" encoding="utf-8" standalone="no"?>
<!DOCTYPE svg PUBLIC "-//W3C//DTD SVG 1.1//EN"
  "http://www.w3.org/Graphics/SVG/1.1/DTD/svg11.dtd">
<svg xmlns:xlink="http://www.w3.org/1999/xlink" width="460.8pt" height="345.6pt" viewBox="0 0 460.8 345.6" xmlns="http://www.w3.org/2000/svg" version="1.1">
 <metadata>
  <rdf:RDF xmlns:dc="http://purl.org/dc/elements/1.1/" xmlns:cc="http://creativecommons.org/ns#" xmlns:rdf="http://www.w3.org/1999/02/22-rdf-syntax-ns#">
   <cc:Work>
    <dc:type rdf:resource="http://purl.org/dc/dcmitype/StillImage"/>
    <dc:date>2023-02-06T16:11:30.872648</dc:date>
    <dc:format>image/svg+xml</dc:format>
    <dc:creator>
     <cc:Agent>
      <dc:title>Matplotlib v3.5.3, https://matplotlib.org/</dc:title>
     </cc:Agent>
    </dc:creator>
   </cc:Work>
  </rdf:RDF>
 </metadata>
 <defs>
  <style type="text/css">*{stroke-linejoin: round; stroke-linecap: butt}</style>
 </defs>
 <g id="figure_1">
  <g id="patch_1">
   <path d="M 0 345.6 
L 460.8 345.6 
L 460.8 0 
L 0 0 
z
" style="fill: #ffffff"/>
  </g>
  <g id="axes_1">
   <g id="patch_2">
    <path d="M 57.6 307.584 
L 414.72 307.584 
L 414.72 41.472 
L 57.6 41.472 
z
" style="fill: #ffffff"/>
   </g>
   <g id="matplotlib.axis_1">
    <g id="xtick_1">
     <g id="line2d_1">
      <path d="M 73.832727 307.584 
L 73.832727 41.472 
" clip-path="url(#p911337702a)" style="fill: none; stroke: #b0b0b0; stroke-width: 0.8; stroke-linecap: square"/>
     </g>
     <g id="line2d_2">
      <defs>
       <path id="m8245cea83d" d="M 0 0 
L 0 3.5 
" style="stroke: #000000; stroke-width: 0.8"/>
      </defs>
      <g>
       <use xlink:href="#m8245cea83d" x="73.832727" y="307.584" style="stroke: #000000; stroke-width: 0.8"/>
      </g>
     </g>
     <g id="text_1">
      <!-- 0 -->
      <g transform="translate(70.651477 322.182437)scale(0.1 -0.1)">
       <defs>
        <path id="DejaVuSans-30" d="M 2034 4250 
Q 1547 4250 1301 3770 
Q 1056 3291 1056 2328 
Q 1056 1369 1301 889 
Q 1547 409 2034 409 
Q 2525 409 2770 889 
Q 3016 1369 3016 2328 
Q 3016 3291 2770 3770 
Q 2525 4250 2034 4250 
z
M 2034 4750 
Q 2819 4750 3233 4129 
Q 3647 3509 3647 2328 
Q 3647 1150 3233 529 
Q 2819 -91 2034 -91 
Q 1250 -91 836 529 
Q 422 1150 422 2328 
Q 422 3509 836 4129 
Q 1250 4750 2034 4750 
z
" transform="scale(0.015625)"/>
       </defs>
       <use xlink:href="#DejaVuSans-30"/>
      </g>
     </g>
    </g>
    <g id="xtick_2">
     <g id="line2d_3">
      <path d="M 130.001334 307.584 
L 130.001334 41.472 
" clip-path="url(#p911337702a)" style="fill: none; stroke: #b0b0b0; stroke-width: 0.8; stroke-linecap: square"/>
     </g>
     <g id="line2d_4">
      <g>
       <use xlink:href="#m8245cea83d" x="130.001334" y="307.584" style="stroke: #000000; stroke-width: 0.8"/>
      </g>
     </g>
     <g id="text_2">
      <!-- 50 -->
      <g transform="translate(123.638834 322.182437)scale(0.1 -0.1)">
       <defs>
        <path id="DejaVuSans-35" d="M 691 4666 
L 3169 4666 
L 3169 4134 
L 1269 4134 
L 1269 2991 
Q 1406 3038 1543 3061 
Q 1681 3084 1819 3084 
Q 2600 3084 3056 2656 
Q 3513 2228 3513 1497 
Q 3513 744 3044 326 
Q 2575 -91 1722 -91 
Q 1428 -91 1123 -41 
Q 819 9 494 109 
L 494 744 
Q 775 591 1075 516 
Q 1375 441 1709 441 
Q 2250 441 2565 725 
Q 2881 1009 2881 1497 
Q 2881 1984 2565 2268 
Q 2250 2553 1709 2553 
Q 1456 2553 1204 2497 
Q 953 2441 691 2322 
L 691 4666 
z
" transform="scale(0.015625)"/>
       </defs>
       <use xlink:href="#DejaVuSans-35"/>
       <use xlink:href="#DejaVuSans-30" x="63.623047"/>
      </g>
     </g>
    </g>
    <g id="xtick_3">
     <g id="line2d_5">
      <path d="M 186.16994 307.584 
L 186.16994 41.472 
" clip-path="url(#p911337702a)" style="fill: none; stroke: #b0b0b0; stroke-width: 0.8; stroke-linecap: square"/>
     </g>
     <g id="line2d_6">
      <g>
       <use xlink:href="#m8245cea83d" x="186.16994" y="307.584" style="stroke: #000000; stroke-width: 0.8"/>
      </g>
     </g>
     <g id="text_3">
      <!-- 100 -->
      <g transform="translate(176.62619 322.182437)scale(0.1 -0.1)">
       <defs>
        <path id="DejaVuSans-31" d="M 794 531 
L 1825 531 
L 1825 4091 
L 703 3866 
L 703 4441 
L 1819 4666 
L 2450 4666 
L 2450 531 
L 3481 531 
L 3481 0 
L 794 0 
L 794 531 
z
" transform="scale(0.015625)"/>
       </defs>
       <use xlink:href="#DejaVuSans-31"/>
       <use xlink:href="#DejaVuSans-30" x="63.623047"/>
       <use xlink:href="#DejaVuSans-30" x="127.246094"/>
      </g>
     </g>
    </g>
    <g id="xtick_4">
     <g id="line2d_7">
      <path d="M 242.338547 307.584 
L 242.338547 41.472 
" clip-path="url(#p911337702a)" style="fill: none; stroke: #b0b0b0; stroke-width: 0.8; stroke-linecap: square"/>
     </g>
     <g id="line2d_8">
      <g>
       <use xlink:href="#m8245cea83d" x="242.338547" y="307.584" style="stroke: #000000; stroke-width: 0.8"/>
      </g>
     </g>
     <g id="text_4">
      <!-- 150 -->
      <g transform="translate(232.794797 322.182437)scale(0.1 -0.1)">
       <use xlink:href="#DejaVuSans-31"/>
       <use xlink:href="#DejaVuSans-35" x="63.623047"/>
       <use xlink:href="#DejaVuSans-30" x="127.246094"/>
      </g>
     </g>
    </g>
    <g id="xtick_5">
     <g id="line2d_9">
      <path d="M 298.507153 307.584 
L 298.507153 41.472 
" clip-path="url(#p911337702a)" style="fill: none; stroke: #b0b0b0; stroke-width: 0.8; stroke-linecap: square"/>
     </g>
     <g id="line2d_10">
      <g>
       <use xlink:href="#m8245cea83d" x="298.507153" y="307.584" style="stroke: #000000; stroke-width: 0.8"/>
      </g>
     </g>
     <g id="text_5">
      <!-- 200 -->
      <g transform="translate(288.963403 322.182437)scale(0.1 -0.1)">
       <defs>
        <path id="DejaVuSans-32" d="M 1228 531 
L 3431 531 
L 3431 0 
L 469 0 
L 469 531 
Q 828 903 1448 1529 
Q 2069 2156 2228 2338 
Q 2531 2678 2651 2914 
Q 2772 3150 2772 3378 
Q 2772 3750 2511 3984 
Q 2250 4219 1831 4219 
Q 1534 4219 1204 4116 
Q 875 4013 500 3803 
L 500 4441 
Q 881 4594 1212 4672 
Q 1544 4750 1819 4750 
Q 2544 4750 2975 4387 
Q 3406 4025 3406 3419 
Q 3406 3131 3298 2873 
Q 3191 2616 2906 2266 
Q 2828 2175 2409 1742 
Q 1991 1309 1228 531 
z
" transform="scale(0.015625)"/>
       </defs>
       <use xlink:href="#DejaVuSans-32"/>
       <use xlink:href="#DejaVuSans-30" x="63.623047"/>
       <use xlink:href="#DejaVuSans-30" x="127.246094"/>
      </g>
     </g>
    </g>
    <g id="xtick_6">
     <g id="line2d_11">
      <path d="M 354.67576 307.584 
L 354.67576 41.472 
" clip-path="url(#p911337702a)" style="fill: none; stroke: #b0b0b0; stroke-width: 0.8; stroke-linecap: square"/>
     </g>
     <g id="line2d_12">
      <g>
       <use xlink:href="#m8245cea83d" x="354.67576" y="307.584" style="stroke: #000000; stroke-width: 0.8"/>
      </g>
     </g>
     <g id="text_6">
      <!-- 250 -->
      <g transform="translate(345.13201 322.182437)scale(0.1 -0.1)">
       <use xlink:href="#DejaVuSans-32"/>
       <use xlink:href="#DejaVuSans-35" x="63.623047"/>
       <use xlink:href="#DejaVuSans-30" x="127.246094"/>
      </g>
     </g>
    </g>
    <g id="xtick_7">
     <g id="line2d_13">
      <path d="M 410.844366 307.584 
L 410.844366 41.472 
" clip-path="url(#p911337702a)" style="fill: none; stroke: #b0b0b0; stroke-width: 0.8; stroke-linecap: square"/>
     </g>
     <g id="line2d_14">
      <g>
       <use xlink:href="#m8245cea83d" x="410.844366" y="307.584" style="stroke: #000000; stroke-width: 0.8"/>
      </g>
     </g>
     <g id="text_7">
      <!-- 300 -->
      <g transform="translate(401.300616 322.182437)scale(0.1 -0.1)">
       <defs>
        <path id="DejaVuSans-33" d="M 2597 2516 
Q 3050 2419 3304 2112 
Q 3559 1806 3559 1356 
Q 3559 666 3084 287 
Q 2609 -91 1734 -91 
Q 1441 -91 1130 -33 
Q 819 25 488 141 
L 488 750 
Q 750 597 1062 519 
Q 1375 441 1716 441 
Q 2309 441 2620 675 
Q 2931 909 2931 1356 
Q 2931 1769 2642 2001 
Q 2353 2234 1838 2234 
L 1294 2234 
L 1294 2753 
L 1863 2753 
Q 2328 2753 2575 2939 
Q 2822 3125 2822 3475 
Q 2822 3834 2567 4026 
Q 2313 4219 1838 4219 
Q 1578 4219 1281 4162 
Q 984 4106 628 3988 
L 628 4550 
Q 988 4650 1302 4700 
Q 1616 4750 1894 4750 
Q 2613 4750 3031 4423 
Q 3450 4097 3450 3541 
Q 3450 3153 3228 2886 
Q 3006 2619 2597 2516 
z
" transform="scale(0.015625)"/>
       </defs>
       <use xlink:href="#DejaVuSans-33"/>
       <use xlink:href="#DejaVuSans-30" x="63.623047"/>
       <use xlink:href="#DejaVuSans-30" x="127.246094"/>
      </g>
     </g>
    </g>
    <g id="text_8">
     <!-- Generations -->
     <g transform="translate(205.662344 335.860562)scale(0.1 -0.1)">
      <defs>
       <path id="DejaVuSans-47" d="M 3809 666 
L 3809 1919 
L 2778 1919 
L 2778 2438 
L 4434 2438 
L 4434 434 
Q 4069 175 3628 42 
Q 3188 -91 2688 -91 
Q 1594 -91 976 548 
Q 359 1188 359 2328 
Q 359 3472 976 4111 
Q 1594 4750 2688 4750 
Q 3144 4750 3555 4637 
Q 3966 4525 4313 4306 
L 4313 3634 
Q 3963 3931 3569 4081 
Q 3175 4231 2741 4231 
Q 1884 4231 1454 3753 
Q 1025 3275 1025 2328 
Q 1025 1384 1454 906 
Q 1884 428 2741 428 
Q 3075 428 3337 486 
Q 3600 544 3809 666 
z
" transform="scale(0.015625)"/>
       <path id="DejaVuSans-65" d="M 3597 1894 
L 3597 1613 
L 953 1613 
Q 991 1019 1311 708 
Q 1631 397 2203 397 
Q 2534 397 2845 478 
Q 3156 559 3463 722 
L 3463 178 
Q 3153 47 2828 -22 
Q 2503 -91 2169 -91 
Q 1331 -91 842 396 
Q 353 884 353 1716 
Q 353 2575 817 3079 
Q 1281 3584 2069 3584 
Q 2775 3584 3186 3129 
Q 3597 2675 3597 1894 
z
M 3022 2063 
Q 3016 2534 2758 2815 
Q 2500 3097 2075 3097 
Q 1594 3097 1305 2825 
Q 1016 2553 972 2059 
L 3022 2063 
z
" transform="scale(0.015625)"/>
       <path id="DejaVuSans-6e" d="M 3513 2113 
L 3513 0 
L 2938 0 
L 2938 2094 
Q 2938 2591 2744 2837 
Q 2550 3084 2163 3084 
Q 1697 3084 1428 2787 
Q 1159 2491 1159 1978 
L 1159 0 
L 581 0 
L 581 3500 
L 1159 3500 
L 1159 2956 
Q 1366 3272 1645 3428 
Q 1925 3584 2291 3584 
Q 2894 3584 3203 3211 
Q 3513 2838 3513 2113 
z
" transform="scale(0.015625)"/>
       <path id="DejaVuSans-72" d="M 2631 2963 
Q 2534 3019 2420 3045 
Q 2306 3072 2169 3072 
Q 1681 3072 1420 2755 
Q 1159 2438 1159 1844 
L 1159 0 
L 581 0 
L 581 3500 
L 1159 3500 
L 1159 2956 
Q 1341 3275 1631 3429 
Q 1922 3584 2338 3584 
Q 2397 3584 2469 3576 
Q 2541 3569 2628 3553 
L 2631 2963 
z
" transform="scale(0.015625)"/>
       <path id="DejaVuSans-61" d="M 2194 1759 
Q 1497 1759 1228 1600 
Q 959 1441 959 1056 
Q 959 750 1161 570 
Q 1363 391 1709 391 
Q 2188 391 2477 730 
Q 2766 1069 2766 1631 
L 2766 1759 
L 2194 1759 
z
M 3341 1997 
L 3341 0 
L 2766 0 
L 2766 531 
Q 2569 213 2275 61 
Q 1981 -91 1556 -91 
Q 1019 -91 701 211 
Q 384 513 384 1019 
Q 384 1609 779 1909 
Q 1175 2209 1959 2209 
L 2766 2209 
L 2766 2266 
Q 2766 2663 2505 2880 
Q 2244 3097 1772 3097 
Q 1472 3097 1187 3025 
Q 903 2953 641 2809 
L 641 3341 
Q 956 3463 1253 3523 
Q 1550 3584 1831 3584 
Q 2591 3584 2966 3190 
Q 3341 2797 3341 1997 
z
" transform="scale(0.015625)"/>
       <path id="DejaVuSans-74" d="M 1172 4494 
L 1172 3500 
L 2356 3500 
L 2356 3053 
L 1172 3053 
L 1172 1153 
Q 1172 725 1289 603 
Q 1406 481 1766 481 
L 2356 481 
L 2356 0 
L 1766 0 
Q 1100 0 847 248 
Q 594 497 594 1153 
L 594 3053 
L 172 3053 
L 172 3500 
L 594 3500 
L 594 4494 
L 1172 4494 
z
" transform="scale(0.015625)"/>
       <path id="DejaVuSans-69" d="M 603 3500 
L 1178 3500 
L 1178 0 
L 603 0 
L 603 3500 
z
M 603 4863 
L 1178 4863 
L 1178 4134 
L 603 4134 
L 603 4863 
z
" transform="scale(0.015625)"/>
       <path id="DejaVuSans-6f" d="M 1959 3097 
Q 1497 3097 1228 2736 
Q 959 2375 959 1747 
Q 959 1119 1226 758 
Q 1494 397 1959 397 
Q 2419 397 2687 759 
Q 2956 1122 2956 1747 
Q 2956 2369 2687 2733 
Q 2419 3097 1959 3097 
z
M 1959 3584 
Q 2709 3584 3137 3096 
Q 3566 2609 3566 1747 
Q 3566 888 3137 398 
Q 2709 -91 1959 -91 
Q 1206 -91 779 398 
Q 353 888 353 1747 
Q 353 2609 779 3096 
Q 1206 3584 1959 3584 
z
" transform="scale(0.015625)"/>
       <path id="DejaVuSans-73" d="M 2834 3397 
L 2834 2853 
Q 2591 2978 2328 3040 
Q 2066 3103 1784 3103 
Q 1356 3103 1142 2972 
Q 928 2841 928 2578 
Q 928 2378 1081 2264 
Q 1234 2150 1697 2047 
L 1894 2003 
Q 2506 1872 2764 1633 
Q 3022 1394 3022 966 
Q 3022 478 2636 193 
Q 2250 -91 1575 -91 
Q 1294 -91 989 -36 
Q 684 19 347 128 
L 347 722 
Q 666 556 975 473 
Q 1284 391 1588 391 
Q 1994 391 2212 530 
Q 2431 669 2431 922 
Q 2431 1156 2273 1281 
Q 2116 1406 1581 1522 
L 1381 1569 
Q 847 1681 609 1914 
Q 372 2147 372 2553 
Q 372 3047 722 3315 
Q 1072 3584 1716 3584 
Q 2034 3584 2315 3537 
Q 2597 3491 2834 3397 
z
" transform="scale(0.015625)"/>
      </defs>
      <use xlink:href="#DejaVuSans-47"/>
      <use xlink:href="#DejaVuSans-65" x="77.490234"/>
      <use xlink:href="#DejaVuSans-6e" x="139.013672"/>
      <use xlink:href="#DejaVuSans-65" x="202.392578"/>
      <use xlink:href="#DejaVuSans-72" x="263.916016"/>
      <use xlink:href="#DejaVuSans-61" x="305.029297"/>
      <use xlink:href="#DejaVuSans-74" x="366.308594"/>
      <use xlink:href="#DejaVuSans-69" x="405.517578"/>
      <use xlink:href="#DejaVuSans-6f" x="433.300781"/>
      <use xlink:href="#DejaVuSans-6e" x="494.482422"/>
      <use xlink:href="#DejaVuSans-73" x="557.861328"/>
     </g>
    </g>
   </g>
   <g id="matplotlib.axis_2">
    <g id="ytick_1">
     <g id="line2d_15">
      <path d="M 57.6 283.781463 
L 414.72 283.781463 
" clip-path="url(#p911337702a)" style="fill: none; stroke: #b0b0b0; stroke-width: 0.8; stroke-linecap: square"/>
     </g>
     <g id="line2d_16">
      <defs>
       <path id="m0894f2ee36" d="M 0 0 
L -3.5 0 
" style="stroke: #000000; stroke-width: 0.8"/>
      </defs>
      <g>
       <use xlink:href="#m0894f2ee36" x="57.6" y="283.781463" style="stroke: #000000; stroke-width: 0.8"/>
      </g>
     </g>
     <g id="text_9">
      <!-- −800 -->
      <g transform="translate(23.132812 287.580681)scale(0.1 -0.1)">
       <defs>
        <path id="DejaVuSans-2212" d="M 678 2272 
L 4684 2272 
L 4684 1741 
L 678 1741 
L 678 2272 
z
" transform="scale(0.015625)"/>
        <path id="DejaVuSans-38" d="M 2034 2216 
Q 1584 2216 1326 1975 
Q 1069 1734 1069 1313 
Q 1069 891 1326 650 
Q 1584 409 2034 409 
Q 2484 409 2743 651 
Q 3003 894 3003 1313 
Q 3003 1734 2745 1975 
Q 2488 2216 2034 2216 
z
M 1403 2484 
Q 997 2584 770 2862 
Q 544 3141 544 3541 
Q 544 4100 942 4425 
Q 1341 4750 2034 4750 
Q 2731 4750 3128 4425 
Q 3525 4100 3525 3541 
Q 3525 3141 3298 2862 
Q 3072 2584 2669 2484 
Q 3125 2378 3379 2068 
Q 3634 1759 3634 1313 
Q 3634 634 3220 271 
Q 2806 -91 2034 -91 
Q 1263 -91 848 271 
Q 434 634 434 1313 
Q 434 1759 690 2068 
Q 947 2378 1403 2484 
z
M 1172 3481 
Q 1172 3119 1398 2916 
Q 1625 2713 2034 2713 
Q 2441 2713 2670 2916 
Q 2900 3119 2900 3481 
Q 2900 3844 2670 4047 
Q 2441 4250 2034 4250 
Q 1625 4250 1398 4047 
Q 1172 3844 1172 3481 
z
" transform="scale(0.015625)"/>
       </defs>
       <use xlink:href="#DejaVuSans-2212"/>
       <use xlink:href="#DejaVuSans-38" x="83.789062"/>
       <use xlink:href="#DejaVuSans-30" x="147.412109"/>
       <use xlink:href="#DejaVuSans-30" x="211.035156"/>
      </g>
     </g>
    </g>
    <g id="ytick_2">
     <g id="line2d_17">
      <path d="M 57.6 237.012289 
L 414.72 237.012289 
" clip-path="url(#p911337702a)" style="fill: none; stroke: #b0b0b0; stroke-width: 0.8; stroke-linecap: square"/>
     </g>
     <g id="line2d_18">
      <g>
       <use xlink:href="#m0894f2ee36" x="57.6" y="237.012289" style="stroke: #000000; stroke-width: 0.8"/>
      </g>
     </g>
     <g id="text_10">
      <!-- −600 -->
      <g transform="translate(23.132812 240.811508)scale(0.1 -0.1)">
       <defs>
        <path id="DejaVuSans-36" d="M 2113 2584 
Q 1688 2584 1439 2293 
Q 1191 2003 1191 1497 
Q 1191 994 1439 701 
Q 1688 409 2113 409 
Q 2538 409 2786 701 
Q 3034 994 3034 1497 
Q 3034 2003 2786 2293 
Q 2538 2584 2113 2584 
z
M 3366 4563 
L 3366 3988 
Q 3128 4100 2886 4159 
Q 2644 4219 2406 4219 
Q 1781 4219 1451 3797 
Q 1122 3375 1075 2522 
Q 1259 2794 1537 2939 
Q 1816 3084 2150 3084 
Q 2853 3084 3261 2657 
Q 3669 2231 3669 1497 
Q 3669 778 3244 343 
Q 2819 -91 2113 -91 
Q 1303 -91 875 529 
Q 447 1150 447 2328 
Q 447 3434 972 4092 
Q 1497 4750 2381 4750 
Q 2619 4750 2861 4703 
Q 3103 4656 3366 4563 
z
" transform="scale(0.015625)"/>
       </defs>
       <use xlink:href="#DejaVuSans-2212"/>
       <use xlink:href="#DejaVuSans-36" x="83.789062"/>
       <use xlink:href="#DejaVuSans-30" x="147.412109"/>
       <use xlink:href="#DejaVuSans-30" x="211.035156"/>
      </g>
     </g>
    </g>
    <g id="ytick_3">
     <g id="line2d_19">
      <path d="M 57.6 190.243116 
L 414.72 190.243116 
" clip-path="url(#p911337702a)" style="fill: none; stroke: #b0b0b0; stroke-width: 0.8; stroke-linecap: square"/>
     </g>
     <g id="line2d_20">
      <g>
       <use xlink:href="#m0894f2ee36" x="57.6" y="190.243116" style="stroke: #000000; stroke-width: 0.8"/>
      </g>
     </g>
     <g id="text_11">
      <!-- −400 -->
      <g transform="translate(23.132812 194.042335)scale(0.1 -0.1)">
       <defs>
        <path id="DejaVuSans-34" d="M 2419 4116 
L 825 1625 
L 2419 1625 
L 2419 4116 
z
M 2253 4666 
L 3047 4666 
L 3047 1625 
L 3713 1625 
L 3713 1100 
L 3047 1100 
L 3047 0 
L 2419 0 
L 2419 1100 
L 313 1100 
L 313 1709 
L 2253 4666 
z
" transform="scale(0.015625)"/>
       </defs>
       <use xlink:href="#DejaVuSans-2212"/>
       <use xlink:href="#DejaVuSans-34" x="83.789062"/>
       <use xlink:href="#DejaVuSans-30" x="147.412109"/>
       <use xlink:href="#DejaVuSans-30" x="211.035156"/>
      </g>
     </g>
    </g>
    <g id="ytick_4">
     <g id="line2d_21">
      <path d="M 57.6 143.473943 
L 414.72 143.473943 
" clip-path="url(#p911337702a)" style="fill: none; stroke: #b0b0b0; stroke-width: 0.8; stroke-linecap: square"/>
     </g>
     <g id="line2d_22">
      <g>
       <use xlink:href="#m0894f2ee36" x="57.6" y="143.473943" style="stroke: #000000; stroke-width: 0.8"/>
      </g>
     </g>
     <g id="text_12">
      <!-- −200 -->
      <g transform="translate(23.132812 147.273162)scale(0.1 -0.1)">
       <use xlink:href="#DejaVuSans-2212"/>
       <use xlink:href="#DejaVuSans-32" x="83.789062"/>
       <use xlink:href="#DejaVuSans-30" x="147.412109"/>
       <use xlink:href="#DejaVuSans-30" x="211.035156"/>
      </g>
     </g>
    </g>
    <g id="ytick_5">
     <g id="line2d_23">
      <path d="M 57.6 96.704769 
L 414.72 96.704769 
" clip-path="url(#p911337702a)" style="fill: none; stroke: #b0b0b0; stroke-width: 0.8; stroke-linecap: square"/>
     </g>
     <g id="line2d_24">
      <g>
       <use xlink:href="#m0894f2ee36" x="57.6" y="96.704769" style="stroke: #000000; stroke-width: 0.8"/>
      </g>
     </g>
     <g id="text_13">
      <!-- 0 -->
      <g transform="translate(44.2375 100.503988)scale(0.1 -0.1)">
       <use xlink:href="#DejaVuSans-30"/>
      </g>
     </g>
    </g>
    <g id="ytick_6">
     <g id="line2d_25">
      <path d="M 57.6 49.935596 
L 414.72 49.935596 
" clip-path="url(#p911337702a)" style="fill: none; stroke: #b0b0b0; stroke-width: 0.8; stroke-linecap: square"/>
     </g>
     <g id="line2d_26">
      <g>
       <use xlink:href="#m0894f2ee36" x="57.6" y="49.935596" style="stroke: #000000; stroke-width: 0.8"/>
      </g>
     </g>
     <g id="text_14">
      <!-- 200 -->
      <g transform="translate(31.5125 53.734815)scale(0.1 -0.1)">
       <use xlink:href="#DejaVuSans-32"/>
       <use xlink:href="#DejaVuSans-30" x="63.623047"/>
       <use xlink:href="#DejaVuSans-30" x="127.246094"/>
      </g>
     </g>
    </g>
    <g id="text_15">
     <!-- Fitness -->
     <g transform="translate(17.053125 191.845187)rotate(-90)scale(0.1 -0.1)">
      <defs>
       <path id="DejaVuSans-46" d="M 628 4666 
L 3309 4666 
L 3309 4134 
L 1259 4134 
L 1259 2759 
L 3109 2759 
L 3109 2228 
L 1259 2228 
L 1259 0 
L 628 0 
L 628 4666 
z
" transform="scale(0.015625)"/>
      </defs>
      <use xlink:href="#DejaVuSans-46"/>
      <use xlink:href="#DejaVuSans-69" x="50.269531"/>
      <use xlink:href="#DejaVuSans-74" x="78.052734"/>
      <use xlink:href="#DejaVuSans-6e" x="117.261719"/>
      <use xlink:href="#DejaVuSans-65" x="180.640625"/>
      <use xlink:href="#DejaVuSans-73" x="242.164062"/>
      <use xlink:href="#DejaVuSans-73" x="294.263672"/>
     </g>
    </g>
   </g>
   <g id="line2d_27">
    <path d="M 73.832727 288.788533 
L 74.956099 273.895752 
L 77.202844 249.922274 
L 78.326216 241.182239 
L 79.449588 226.736468 
L 80.57296 190.284036 
L 81.696332 137.839916 
L 82.819704 117.094329 
L 83.943076 115.074894 
L 85.066449 112.327736 
L 86.189821 121.906679 
L 87.313193 119.663725 
L 88.436565 115.76698 
L 89.559937 117.348568 
L 90.683309 116.91563 
L 91.806681 118.108763 
L 92.930053 112.560924 
L 94.053426 124.826951 
L 95.176798 111.306354 
L 96.30017 114.014533 
L 97.423542 110.526776 
L 98.546914 118.42779 
L 99.670286 111.478819 
L 101.917031 113.559852 
L 103.040403 109.70688 
L 104.163775 114.330894 
L 105.287147 114.682961 
L 106.410519 109.699185 
L 107.533891 116.842845 
L 108.657263 117.037051 
L 109.780635 114.886983 
L 110.904008 120.519351 
L 112.02738 110.028526 
L 113.150752 112.166728 
L 114.274124 112.941685 
L 115.397496 110.918179 
L 116.520868 105.871657 
L 117.64424 111.141308 
L 118.767612 111.093488 
L 119.890985 111.280001 
L 121.014357 106.731653 
L 122.137729 108.846165 
L 123.261101 107.663599 
L 124.384473 111.505134 
L 125.507845 106.372123 
L 126.631217 110.622663 
L 127.754589 105.170736 
L 128.877962 108.282179 
L 130.001334 100.89666 
L 131.124706 107.040663 
L 132.248078 109.09864 
L 133.37145 108.38284 
L 134.494822 113.363662 
L 135.618194 106.545843 
L 136.741567 295.286896 
L 137.864939 278.297997 
L 138.988311 269.093998 
L 140.111683 261.564775 
L 141.235055 253.108318 
L 142.358427 249.028283 
L 143.481799 246.01339 
L 144.605171 244.609709 
L 146.851916 233.754443 
L 147.975288 234.5723 
L 149.09866 231.991368 
L 150.222032 227.76571 
L 151.345404 227.040266 
L 152.468776 227.359749 
L 153.592148 226.360024 
L 154.715521 227.60764 
L 155.838893 217.50727 
L 156.962265 214.915889 
L 158.085637 211.865749 
L 159.209009 211.77682 
L 160.332381 205.859545 
L 161.455753 210.52935 
L 162.579126 206.870023 
L 163.702498 198.08085 
L 164.82587 198.716672 
L 165.949242 195.014118 
L 167.072614 177.794095 
L 168.195986 146.271541 
L 169.319358 133.168702 
L 170.44273 128.447383 
L 171.566103 131.788223 
L 172.689475 135.552329 
L 173.812847 133.034952 
L 174.936219 135.006416 
L 176.059591 128.494492 
L 177.182963 126.440918 
L 178.306335 113.047104 
L 179.429707 108.318277 
L 180.55308 111.426337 
L 181.676452 107.337817 
L 182.799824 107.108376 
L 183.923196 107.613872 
L 185.046568 109.686585 
L 186.16994 109.996531 
L 187.293312 107.869674 
L 188.416684 105.234729 
L 189.540057 104.380814 
L 190.663429 106.864769 
L 191.786801 112.247686 
L 192.910173 104.248828 
L 194.033545 109.876594 
L 195.156917 113.211681 
L 196.280289 110.268811 
L 198.527034 108.535943 
L 199.650406 108.693904 
L 200.773778 108.241936 
L 201.89715 110.191172 
L 203.020522 110.081336 
L 204.143894 111.615361 
L 205.267266 111.706541 
L 206.390639 109.95101 
L 207.514011 109.24005 
L 208.637383 106.28908 
L 209.760755 106.101328 
L 210.884127 111.583907 
L 212.007499 106.216883 
L 213.130871 107.715053 
L 214.254243 106.60149 
L 215.377616 106.306159 
L 216.500988 102.865089 
L 217.62436 110.08132 
L 218.747732 106.282002 
L 219.871104 114.508201 
L 220.994476 104.223388 
L 222.117848 105.277461 
L 223.241221 106.706128 
L 224.364593 110.739789 
L 225.487965 107.033591 
L 226.611337 107.41145 
L 227.734709 105.346467 
L 228.858081 106.917966 
L 229.981453 115.80891 
L 231.104825 108.672364 
L 232.228198 106.155561 
L 233.35157 108.969323 
L 234.474942 111.314246 
L 235.598314 111.849481 
L 236.721686 115.339872 
L 237.845058 110.932072 
L 238.96843 101.348753 
L 240.091802 112.550279 
L 241.215175 114.309773 
L 242.338547 110.539794 
L 243.461919 107.930993 
L 244.585291 114.694499 
L 245.708663 108.636813 
L 246.832035 112.823223 
L 247.955407 104.885461 
L 249.078779 293.564292 
L 250.202152 276.466144 
L 251.325524 257.486536 
L 252.448896 235.322268 
L 253.572268 194.951383 
L 254.69564 115.367476 
L 255.819012 127.853954 
L 256.942384 136.913103 
L 258.065757 143.603085 
L 259.189129 145.453809 
L 260.312501 152.925201 
L 261.435873 149.297818 
L 262.559245 145.038875 
L 263.682617 129.692405 
L 264.805989 118.172185 
L 265.929361 110.212314 
L 267.052734 106.32554 
L 268.176106 112.356657 
L 269.299478 105.078635 
L 270.42285 284.058218 
L 271.546222 272.155093 
L 272.669594 261.531093 
L 273.792966 255.526282 
L 274.916338 243.696062 
L 276.039711 214.775659 
L 277.163083 161.956402 
L 278.286455 127.225455 
L 279.409827 111.327636 
L 280.533199 115.342656 
L 281.656571 115.117925 
L 282.779943 120.6719 
L 283.903316 120.564772 
L 285.026688 124.055873 
L 286.15006 116.50902 
L 287.273432 123.162306 
L 288.396804 113.413035 
L 289.520176 125.433609 
L 290.643548 116.712891 
L 291.76692 115.55845 
L 292.890293 125.227133 
L 294.013665 113.384562 
L 295.137037 121.552573 
L 296.260409 123.367899 
L 297.383781 113.738023 
L 298.507153 110.020478 
L 299.630525 116.441163 
L 300.753897 120.445609 
L 301.87727 117.031224 
L 303.000642 109.36535 
L 304.124014 110.986159 
L 305.247386 288.015482 
L 306.370758 274.770169 
L 308.617502 245.02709 
L 309.740874 235.682251 
L 310.864247 227.390665 
L 311.987619 220.637297 
L 313.110991 215.68032 
L 314.234363 199.261625 
L 315.357735 169.483132 
L 316.481107 151.630628 
L 317.604479 131.381723 
L 318.727852 139.425347 
L 319.851224 142.538394 
L 320.974596 138.531459 
L 322.097968 138.795174 
L 323.22134 115.211481 
L 324.344712 109.004929 
L 325.468084 108.511255 
L 326.591456 118.344956 
L 327.714829 110.345157 
L 328.838201 117.252082 
L 329.961573 113.912728 
L 331.084945 115.260523 
L 332.208317 113.47755 
L 333.331689 114.158188 
L 334.455061 118.034454 
L 335.578433 113.109093 
L 336.701806 107.549897 
L 337.825178 107.659516 
L 338.94855 122.306744 
L 340.071922 113.546937 
L 341.195294 117.978686 
L 342.318666 111.575434 
L 343.442038 109.471991 
L 344.565411 113.517634 
L 345.688783 111.751045 
L 346.812155 124.182186 
L 347.935527 120.684025 
L 349.058899 119.106152 
L 350.182271 117.781258 
L 351.305643 115.901487 
L 352.429015 106.344121 
L 353.552388 111.583893 
L 354.67576 111.870074 
L 355.799132 112.742108 
L 356.922504 114.250644 
L 358.045876 115.535536 
L 359.169248 114.184314 
L 360.29262 110.687057 
L 361.415992 107.696284 
L 362.539365 105.288868 
L 363.662737 116.495984 
L 364.786109 115.583616 
L 365.909481 112.112369 
L 367.032853 106.26405 
L 368.156225 108.467232 
L 369.279597 113.260822 
L 370.402969 105.206286 
L 371.526342 105.927991 
L 372.649714 295.488 
L 373.773086 279.168925 
L 374.896458 261.218855 
L 376.01983 257.043883 
L 377.143202 250.673565 
L 379.389947 242.712858 
L 380.513319 241.256166 
L 381.636691 236.016516 
L 382.760063 204.297077 
L 383.883435 167.753037 
L 385.006807 154.728195 
L 386.130179 144.734184 
L 387.253551 128.495234 
L 388.376924 121.861202 
L 389.500296 124.105097 
L 390.623668 119.756472 
L 391.74704 117.226192 
L 392.870412 118.028559 
L 393.993784 114.537632 
L 395.117156 122.256721 
L 396.240528 116.440844 
L 397.363901 115.890752 
L 398.487273 109.963137 
L 398.487273 109.963137 
" clip-path="url(#p911337702a)" style="fill: none; stroke: #0000ff; stroke-width: 1.5; stroke-linecap: square"/>
   </g>
   <g id="line2d_28">
    <path d="M 73.832727 276.57998 
L 77.202844 219.559451 
L 78.326216 206.017455 
L 79.449588 182.361382 
L 81.696332 66.449173 
L 82.819704 58.891237 
L 83.943076 58.784547 
L 85.066449 61.228642 
L 86.189821 57.423938 
L 87.313193 56.180657 
L 88.436565 57.108387 
L 89.559937 58.705518 
L 90.683309 57.023777 
L 91.806681 59.345454 
L 92.930053 62.551854 
L 94.053426 58.031932 
L 95.176798 61.906898 
L 96.30017 57.746983 
L 97.423542 62.283017 
L 98.546914 54.190928 
L 99.670286 56.92924 
L 100.793658 58.25639 
L 101.917031 57.188663 
L 103.040403 61.458083 
L 104.163775 58.790218 
L 105.287147 56.497825 
L 106.410519 60.400605 
L 107.533891 56.411642 
L 108.657263 55.550393 
L 109.780635 56.989861 
L 110.904008 54.891695 
L 112.02738 58.532698 
L 113.150752 56.914861 
L 114.274124 58.249839 
L 115.397496 58.21063 
L 116.520868 66.999172 
L 117.64424 60.423675 
L 118.767612 57.531124 
L 119.890985 57.431097 
L 121.014357 61.252165 
L 122.137729 59.34433 
L 123.261101 62.899818 
L 124.384473 56.966927 
L 125.507845 62.818796 
L 126.631217 60.295993 
L 127.754589 69.410422 
L 128.877962 61.022994 
L 130.001334 74.130303 
L 131.124706 65.317505 
L 132.248078 64.537075 
L 133.37145 62.906644 
L 134.494822 60.066101 
L 135.618194 64.98651 
L 136.741567 283.898213 
L 137.864939 262.121457 
L 138.988311 248.344412 
L 140.111683 240.636113 
L 141.235055 231.207299 
L 142.358427 228.896285 
L 143.481799 222.174258 
L 144.605171 217.388183 
L 146.851916 201.246324 
L 147.975288 198.380232 
L 149.09866 193.423103 
L 150.222032 189.01173 
L 151.345404 189.253438 
L 152.468776 186.253329 
L 153.592148 182.364138 
L 154.715521 181.933336 
L 155.838893 177.01313 
L 156.962265 171.500222 
L 158.085637 168.531187 
L 159.209009 162.875954 
L 160.332381 153.995624 
L 161.455753 158.116316 
L 162.579126 155.121181 
L 163.702498 144.379577 
L 164.82587 136.034227 
L 165.949242 130.538206 
L 167.072614 112.445644 
L 168.195986 79.293042 
L 169.319358 71.36372 
L 170.44273 72.058482 
L 171.566103 70.390948 
L 172.689475 71.26841 
L 173.812847 71.846535 
L 174.936219 70.597926 
L 176.059591 70.555806 
L 177.182963 65.542375 
L 178.306335 62.881983 
L 179.429707 63.954061 
L 180.55308 63.194396 
L 181.676452 68.156203 
L 182.799824 65.681248 
L 183.923196 66.145362 
L 185.046568 65.3924 
L 186.16994 61.292726 
L 187.293312 62.859305 
L 188.416684 66.201124 
L 189.540057 67.78517 
L 190.663429 63.546455 
L 191.786801 58.197112 
L 192.910173 66.5059 
L 194.033545 62.08244 
L 195.156917 59.43553 
L 196.280289 64.838714 
L 197.403662 61.710664 
L 198.527034 63.794161 
L 199.650406 64.073008 
L 200.773778 63.440706 
L 201.89715 62.291617 
L 203.020522 60.130124 
L 204.143894 60.11849 
L 205.267266 59.435276 
L 206.390639 60.22282 
L 207.514011 61.968582 
L 208.637383 63.35599 
L 209.760755 64.418388 
L 210.884127 59.483865 
L 212.007499 63.744279 
L 213.130871 63.23545 
L 214.254243 64.476608 
L 215.377616 63.257208 
L 216.500988 71.96512 
L 217.62436 58.079845 
L 218.747732 63.857109 
L 219.871104 59.332187 
L 220.994476 65.850734 
L 222.117848 66.255902 
L 223.241221 65.644329 
L 224.364593 59.632107 
L 225.487965 66.343946 
L 226.611337 61.966759 
L 227.734709 62.3952 
L 228.858081 63.487818 
L 229.981453 56.450396 
L 231.104825 62.385361 
L 232.228198 66.342817 
L 233.35157 59.890713 
L 234.474942 58.95891 
L 235.598314 59.812267 
L 236.721686 59.82059 
L 237.845058 62.765429 
L 238.96843 76.403504 
L 240.091802 57.731812 
L 241.215175 57.83745 
L 242.338547 63.463216 
L 243.461919 60.038355 
L 244.585291 55.761974 
L 245.708663 61.85528 
L 246.832035 58.137776 
L 247.955407 67.457435 
L 249.078779 279.749417 
L 250.202152 256.112261 
L 251.325524 226.709394 
L 252.448896 192.852246 
L 254.69564 61.70887 
L 255.819012 68.836861 
L 256.942384 69.953148 
L 258.065757 73.664923 
L 259.189129 72.378564 
L 260.312501 77.214451 
L 261.435873 71.459725 
L 262.559245 71.751609 
L 263.682617 65.956348 
L 264.805989 58.25413 
L 265.929361 63.322101 
L 267.052734 65.060423 
L 268.176106 57.457022 
L 269.299478 65.083024 
L 270.42285 273.593444 
L 272.669594 242.720024 
L 273.792966 232.191167 
L 274.916338 207.354368 
L 277.163083 86.490262 
L 278.286455 63.175975 
L 279.409827 64.379206 
L 280.533199 61.342417 
L 281.656571 61.771062 
L 282.779943 60.231077 
L 283.903316 60.560903 
L 285.026688 59.227539 
L 286.15006 60.771318 
L 287.273432 56.303941 
L 288.396804 61.000094 
L 289.520176 56.361145 
L 290.643548 58.977283 
L 291.76692 59.861831 
L 292.890293 58.064589 
L 294.013665 60.840867 
L 295.137037 57.658407 
L 296.260409 57.913285 
L 298.507153 62.822872 
L 299.630525 60.822432 
L 300.753897 60.720201 
L 301.87727 58.170233 
L 303.000642 63.727815 
L 304.124014 61.984605 
L 305.247386 278.031888 
L 306.370758 259.290713 
L 307.49413 237.236502 
L 309.740874 204.305723 
L 310.864247 186.568186 
L 313.110991 171.427941 
L 315.357735 98.74483 
L 316.481107 77.68323 
L 317.604479 64.100057 
L 318.727852 70.117036 
L 319.851224 70.771588 
L 320.974596 65.40157 
L 322.097968 65.728035 
L 323.22134 60.155018 
L 325.468084 65.523929 
L 326.591456 58.864978 
L 327.714829 64.558107 
L 328.838201 60.522762 
L 329.961573 61.187 
L 331.084945 60.233925 
L 332.208317 60.763074 
L 333.331689 63.603087 
L 334.455061 60.706172 
L 335.578433 62.328009 
L 336.701806 65.26221 
L 337.825178 63.272302 
L 338.94855 57.817289 
L 340.071922 61.416478 
L 341.195294 59.289549 
L 342.318666 61.153702 
L 343.442038 59.308372 
L 344.565411 58.592234 
L 345.688783 57.492425 
L 346.812155 56.161811 
L 347.935527 59.61072 
L 349.058899 54.574508 
L 350.182271 53.568 
L 351.305643 59.417974 
L 352.429015 64.581738 
L 353.552388 61.521499 
L 355.799132 62.636592 
L 356.922504 61.683653 
L 358.045876 56.456112 
L 359.169248 57.236461 
L 361.415992 64.576864 
L 362.539365 65.140558 
L 363.662737 56.037263 
L 364.786109 59.008741 
L 365.909481 60.064462 
L 367.032853 67.737443 
L 368.156225 63.10936 
L 369.279597 59.515862 
L 370.402969 65.049562 
L 371.526342 67.135835 
L 372.649714 282.670975 
L 373.773086 258.131367 
L 374.896458 240.467836 
L 376.01983 229.799228 
L 377.143202 221.737404 
L 379.389947 208.517446 
L 380.513319 203.875176 
L 381.636691 186.651785 
L 382.760063 134.135819 
L 383.883435 91.82181 
L 385.006807 80.879349 
L 386.130179 76.01248 
L 387.253551 63.75972 
L 388.376924 59.1905 
L 389.500296 58.472626 
L 390.623668 58.192736 
L 391.74704 60.074568 
L 392.870412 60.156462 
L 393.993784 56.635778 
L 395.117156 57.206804 
L 396.240528 59.776106 
L 397.363901 56.718987 
L 398.487273 62.728047 
L 398.487273 62.728047 
" clip-path="url(#p911337702a)" style="fill: none; stroke-dasharray: 9.6,2.4,1.5,2.4; stroke-dashoffset: 0; stroke: #008000; stroke-width: 1.5"/>
   </g>
   <g id="line2d_29">
    <path d="M 73.832727 243.232931 
L 74.956099 216.871693 
L 76.079472 178.447788 
L 77.202844 178.447788 
L 78.326216 96.70477 
L 135.618194 96.70477 
L 136.741567 251.494716 
L 137.864939 201.651808 
L 138.988311 195.028741 
L 140.111683 195.028741 
L 141.235055 181.940588 
L 142.358427 181.940588 
L 143.481799 180.551109 
L 144.605171 132.164666 
L 146.851916 132.164666 
L 147.975288 125.964168 
L 151.345404 125.856585 
L 152.468776 119.971074 
L 153.592148 110.444683 
L 154.715521 110.444683 
L 155.838893 109.959619 
L 160.332381 109.959619 
L 161.455753 98.63989 
L 162.579126 98.63989 
L 163.702498 96.945697 
L 164.82587 96.945697 
L 165.949242 96.704771 
L 247.955407 96.70477 
L 249.078779 233.427637 
L 250.202152 190.634993 
L 251.325524 96.70477 
L 269.299478 96.70477 
L 270.42285 223.469279 
L 271.546222 223.469279 
L 272.669594 182.955619 
L 273.792966 96.70477 
L 304.124014 96.70477 
L 305.247386 251.320183 
L 306.370758 217.967685 
L 307.49413 165.857018 
L 308.617502 165.857018 
L 310.864247 129.570374 
L 311.987619 96.704772 
L 371.526342 96.70477 
L 372.649714 223.526137 
L 373.773086 194.639174 
L 376.01983 194.639174 
L 377.143202 177.750946 
L 378.266574 173.696975 
L 379.389947 147.245488 
L 380.513319 96.70477 
L 398.487273 96.70477 
L 398.487273 96.70477 
" clip-path="url(#p911337702a)" style="fill: none; stroke: #ff0000; stroke-width: 1.5; stroke-linecap: square"/>
   </g>
   <g id="patch_3">
    <path d="M 57.6 307.584 
L 57.6 41.472 
" style="fill: none; stroke: #000000; stroke-width: 0.8; stroke-linejoin: miter; stroke-linecap: square"/>
   </g>
   <g id="patch_4">
    <path d="M 414.72 307.584 
L 414.72 41.472 
" style="fill: none; stroke: #000000; stroke-width: 0.8; stroke-linejoin: miter; stroke-linecap: square"/>
   </g>
   <g id="patch_5">
    <path d="M 57.6 307.584 
L 414.72 307.584 
" style="fill: none; stroke: #000000; stroke-width: 0.8; stroke-linejoin: miter; stroke-linecap: square"/>
   </g>
   <g id="patch_6">
    <path d="M 57.6 41.472 
L 414.72 41.472 
" style="fill: none; stroke: #000000; stroke-width: 0.8; stroke-linejoin: miter; stroke-linecap: square"/>
   </g>
   <g id="text_16">
    <!-- Population's average and best fitness -->
    <g transform="translate(123.529687 35.472)scale(0.12 -0.12)">
     <defs>
      <path id="DejaVuSans-50" d="M 1259 4147 
L 1259 2394 
L 2053 2394 
Q 2494 2394 2734 2622 
Q 2975 2850 2975 3272 
Q 2975 3691 2734 3919 
Q 2494 4147 2053 4147 
L 1259 4147 
z
M 628 4666 
L 2053 4666 
Q 2838 4666 3239 4311 
Q 3641 3956 3641 3272 
Q 3641 2581 3239 2228 
Q 2838 1875 2053 1875 
L 1259 1875 
L 1259 0 
L 628 0 
L 628 4666 
z
" transform="scale(0.015625)"/>
      <path id="DejaVuSans-70" d="M 1159 525 
L 1159 -1331 
L 581 -1331 
L 581 3500 
L 1159 3500 
L 1159 2969 
Q 1341 3281 1617 3432 
Q 1894 3584 2278 3584 
Q 2916 3584 3314 3078 
Q 3713 2572 3713 1747 
Q 3713 922 3314 415 
Q 2916 -91 2278 -91 
Q 1894 -91 1617 61 
Q 1341 213 1159 525 
z
M 3116 1747 
Q 3116 2381 2855 2742 
Q 2594 3103 2138 3103 
Q 1681 3103 1420 2742 
Q 1159 2381 1159 1747 
Q 1159 1113 1420 752 
Q 1681 391 2138 391 
Q 2594 391 2855 752 
Q 3116 1113 3116 1747 
z
" transform="scale(0.015625)"/>
      <path id="DejaVuSans-75" d="M 544 1381 
L 544 3500 
L 1119 3500 
L 1119 1403 
Q 1119 906 1312 657 
Q 1506 409 1894 409 
Q 2359 409 2629 706 
Q 2900 1003 2900 1516 
L 2900 3500 
L 3475 3500 
L 3475 0 
L 2900 0 
L 2900 538 
Q 2691 219 2414 64 
Q 2138 -91 1772 -91 
Q 1169 -91 856 284 
Q 544 659 544 1381 
z
M 1991 3584 
L 1991 3584 
z
" transform="scale(0.015625)"/>
      <path id="DejaVuSans-6c" d="M 603 4863 
L 1178 4863 
L 1178 0 
L 603 0 
L 603 4863 
z
" transform="scale(0.015625)"/>
      <path id="DejaVuSans-27" d="M 1147 4666 
L 1147 2931 
L 616 2931 
L 616 4666 
L 1147 4666 
z
" transform="scale(0.015625)"/>
      <path id="DejaVuSans-20" transform="scale(0.015625)"/>
      <path id="DejaVuSans-76" d="M 191 3500 
L 800 3500 
L 1894 563 
L 2988 3500 
L 3597 3500 
L 2284 0 
L 1503 0 
L 191 3500 
z
" transform="scale(0.015625)"/>
      <path id="DejaVuSans-67" d="M 2906 1791 
Q 2906 2416 2648 2759 
Q 2391 3103 1925 3103 
Q 1463 3103 1205 2759 
Q 947 2416 947 1791 
Q 947 1169 1205 825 
Q 1463 481 1925 481 
Q 2391 481 2648 825 
Q 2906 1169 2906 1791 
z
M 3481 434 
Q 3481 -459 3084 -895 
Q 2688 -1331 1869 -1331 
Q 1566 -1331 1297 -1286 
Q 1028 -1241 775 -1147 
L 775 -588 
Q 1028 -725 1275 -790 
Q 1522 -856 1778 -856 
Q 2344 -856 2625 -561 
Q 2906 -266 2906 331 
L 2906 616 
Q 2728 306 2450 153 
Q 2172 0 1784 0 
Q 1141 0 747 490 
Q 353 981 353 1791 
Q 353 2603 747 3093 
Q 1141 3584 1784 3584 
Q 2172 3584 2450 3431 
Q 2728 3278 2906 2969 
L 2906 3500 
L 3481 3500 
L 3481 434 
z
" transform="scale(0.015625)"/>
      <path id="DejaVuSans-64" d="M 2906 2969 
L 2906 4863 
L 3481 4863 
L 3481 0 
L 2906 0 
L 2906 525 
Q 2725 213 2448 61 
Q 2172 -91 1784 -91 
Q 1150 -91 751 415 
Q 353 922 353 1747 
Q 353 2572 751 3078 
Q 1150 3584 1784 3584 
Q 2172 3584 2448 3432 
Q 2725 3281 2906 2969 
z
M 947 1747 
Q 947 1113 1208 752 
Q 1469 391 1925 391 
Q 2381 391 2643 752 
Q 2906 1113 2906 1747 
Q 2906 2381 2643 2742 
Q 2381 3103 1925 3103 
Q 1469 3103 1208 2742 
Q 947 2381 947 1747 
z
" transform="scale(0.015625)"/>
      <path id="DejaVuSans-62" d="M 3116 1747 
Q 3116 2381 2855 2742 
Q 2594 3103 2138 3103 
Q 1681 3103 1420 2742 
Q 1159 2381 1159 1747 
Q 1159 1113 1420 752 
Q 1681 391 2138 391 
Q 2594 391 2855 752 
Q 3116 1113 3116 1747 
z
M 1159 2969 
Q 1341 3281 1617 3432 
Q 1894 3584 2278 3584 
Q 2916 3584 3314 3078 
Q 3713 2572 3713 1747 
Q 3713 922 3314 415 
Q 2916 -91 2278 -91 
Q 1894 -91 1617 61 
Q 1341 213 1159 525 
L 1159 0 
L 581 0 
L 581 4863 
L 1159 4863 
L 1159 2969 
z
" transform="scale(0.015625)"/>
      <path id="DejaVuSans-66" d="M 2375 4863 
L 2375 4384 
L 1825 4384 
Q 1516 4384 1395 4259 
Q 1275 4134 1275 3809 
L 1275 3500 
L 2222 3500 
L 2222 3053 
L 1275 3053 
L 1275 0 
L 697 0 
L 697 3053 
L 147 3053 
L 147 3500 
L 697 3500 
L 697 3744 
Q 697 4328 969 4595 
Q 1241 4863 1831 4863 
L 2375 4863 
z
" transform="scale(0.015625)"/>
     </defs>
     <use xlink:href="#DejaVuSans-50"/>
     <use xlink:href="#DejaVuSans-6f" x="56.677734"/>
     <use xlink:href="#DejaVuSans-70" x="117.859375"/>
     <use xlink:href="#DejaVuSans-75" x="181.335938"/>
     <use xlink:href="#DejaVuSans-6c" x="244.714844"/>
     <use xlink:href="#DejaVuSans-61" x="272.498047"/>
     <use xlink:href="#DejaVuSans-74" x="333.777344"/>
     <use xlink:href="#DejaVuSans-69" x="372.986328"/>
     <use xlink:href="#DejaVuSans-6f" x="400.769531"/>
     <use xlink:href="#DejaVuSans-6e" x="461.951172"/>
     <use xlink:href="#DejaVuSans-27" x="525.330078"/>
     <use xlink:href="#DejaVuSans-73" x="552.820312"/>
     <use xlink:href="#DejaVuSans-20" x="604.919922"/>
     <use xlink:href="#DejaVuSans-61" x="636.707031"/>
     <use xlink:href="#DejaVuSans-76" x="697.986328"/>
     <use xlink:href="#DejaVuSans-65" x="757.166016"/>
     <use xlink:href="#DejaVuSans-72" x="818.689453"/>
     <use xlink:href="#DejaVuSans-61" x="859.802734"/>
     <use xlink:href="#DejaVuSans-67" x="921.082031"/>
     <use xlink:href="#DejaVuSans-65" x="984.558594"/>
     <use xlink:href="#DejaVuSans-20" x="1046.082031"/>
     <use xlink:href="#DejaVuSans-61" x="1077.869141"/>
     <use xlink:href="#DejaVuSans-6e" x="1139.148438"/>
     <use xlink:href="#DejaVuSans-64" x="1202.527344"/>
     <use xlink:href="#DejaVuSans-20" x="1266.003906"/>
     <use xlink:href="#DejaVuSans-62" x="1297.791016"/>
     <use xlink:href="#DejaVuSans-65" x="1361.267578"/>
     <use xlink:href="#DejaVuSans-73" x="1422.791016"/>
     <use xlink:href="#DejaVuSans-74" x="1474.890625"/>
     <use xlink:href="#DejaVuSans-20" x="1514.099609"/>
     <use xlink:href="#DejaVuSans-66" x="1545.886719"/>
     <use xlink:href="#DejaVuSans-69" x="1581.091797"/>
     <use xlink:href="#DejaVuSans-74" x="1608.875"/>
     <use xlink:href="#DejaVuSans-6e" x="1648.083984"/>
     <use xlink:href="#DejaVuSans-65" x="1711.462891"/>
     <use xlink:href="#DejaVuSans-73" x="1772.986328"/>
     <use xlink:href="#DejaVuSans-73" x="1825.085938"/>
    </g>
   </g>
   <g id="legend_1">
    <g id="patch_7">
     <path d="M 334.779375 302.584 
L 407.72 302.584 
Q 409.72 302.584 409.72 300.584 
L 409.72 257.549625 
Q 409.72 255.549625 407.72 255.549625 
L 334.779375 255.549625 
Q 332.779375 255.549625 332.779375 257.549625 
L 332.779375 300.584 
Q 332.779375 302.584 334.779375 302.584 
z
" style="fill: #ffffff; opacity: 0.8; stroke: #cccccc; stroke-linejoin: miter"/>
    </g>
    <g id="line2d_30">
     <path d="M 336.779375 263.648062 
L 346.779375 263.648062 
L 356.779375 263.648062 
" style="fill: none; stroke: #0000ff; stroke-width: 1.5; stroke-linecap: square"/>
    </g>
    <g id="text_17">
     <!-- average -->
     <g transform="translate(364.779375 267.148062)scale(0.1 -0.1)">
      <use xlink:href="#DejaVuSans-61"/>
      <use xlink:href="#DejaVuSans-76" x="61.279297"/>
      <use xlink:href="#DejaVuSans-65" x="120.458984"/>
      <use xlink:href="#DejaVuSans-72" x="181.982422"/>
      <use xlink:href="#DejaVuSans-61" x="223.095703"/>
      <use xlink:href="#DejaVuSans-67" x="284.375"/>
      <use xlink:href="#DejaVuSans-65" x="347.851562"/>
     </g>
    </g>
    <g id="line2d_31">
     <path d="M 336.779375 278.326188 
L 346.779375 278.326188 
L 356.779375 278.326188 
" style="fill: none; stroke-dasharray: 9.6,2.4,1.5,2.4; stroke-dashoffset: 0; stroke: #008000; stroke-width: 1.5"/>
    </g>
    <g id="text_18">
     <!-- +1 sd -->
     <g transform="translate(364.779375 281.826188)scale(0.1 -0.1)">
      <defs>
       <path id="DejaVuSans-2b" d="M 2944 4013 
L 2944 2272 
L 4684 2272 
L 4684 1741 
L 2944 1741 
L 2944 0 
L 2419 0 
L 2419 1741 
L 678 1741 
L 678 2272 
L 2419 2272 
L 2419 4013 
L 2944 4013 
z
" transform="scale(0.015625)"/>
      </defs>
      <use xlink:href="#DejaVuSans-2b"/>
      <use xlink:href="#DejaVuSans-31" x="83.789062"/>
      <use xlink:href="#DejaVuSans-20" x="147.412109"/>
      <use xlink:href="#DejaVuSans-73" x="179.199219"/>
      <use xlink:href="#DejaVuSans-64" x="231.298828"/>
     </g>
    </g>
    <g id="line2d_32">
     <path d="M 336.779375 293.004312 
L 346.779375 293.004312 
L 356.779375 293.004312 
" style="fill: none; stroke: #ff0000; stroke-width: 1.5; stroke-linecap: square"/>
    </g>
    <g id="text_19">
     <!-- best -->
     <g transform="translate(364.779375 296.504312)scale(0.1 -0.1)">
      <use xlink:href="#DejaVuSans-62"/>
      <use xlink:href="#DejaVuSans-65" x="63.476562"/>
      <use xlink:href="#DejaVuSans-73" x="125"/>
      <use xlink:href="#DejaVuSans-74" x="177.099609"/>
     </g>
    </g>
   </g>
  </g>
 </g>
 <defs>
  <clipPath id="p911337702a">
   <rect x="57.6" y="41.472" width="357.12" height="266.112"/>
  </clipPath>
 </defs>
</svg>
