<?xml version="1.0" encoding="utf-8" standalone="no"?>
<!DOCTYPE svg PUBLIC "-//W3C//DTD SVG 1.1//EN"
  "http://www.w3.org/Graphics/SVG/1.1/DTD/svg11.dtd">
<svg xmlns:xlink="http://www.w3.org/1999/xlink" width="460.8pt" height="345.6pt" viewBox="0 0 460.8 345.6" xmlns="http://www.w3.org/2000/svg" version="1.1">
 <metadata>
  <rdf:RDF xmlns:dc="http://purl.org/dc/elements/1.1/" xmlns:cc="http://creativecommons.org/ns#" xmlns:rdf="http://www.w3.org/1999/02/22-rdf-syntax-ns#">
   <cc:Work>
    <dc:type rdf:resource="http://purl.org/dc/dcmitype/StillImage"/>
    <dc:date>2022-11-29T16:32:50.187342</dc:date>
    <dc:format>image/svg+xml</dc:format>
    <dc:creator>
     <cc:Agent>
      <dc:title>Matplotlib v3.5.3, https://matplotlib.org/</dc:title>
     </cc:Agent>
    </dc:creator>
   </cc:Work>
  </rdf:RDF>
 </metadata>
 <defs>
  <style type="text/css">*{stroke-linejoin: round; stroke-linecap: butt}</style>
 </defs>
 <g id="figure_1">
  <g id="patch_1">
   <path d="M 0 345.6 
L 460.8 345.6 
L 460.8 0 
L 0 0 
z
" style="fill: #ffffff"/>
  </g>
  <g id="axes_1">
   <g id="patch_2">
    <path d="M 57.6 307.584 
L 414.72 307.584 
L 414.72 41.472 
L 57.6 41.472 
z
" style="fill: #ffffff"/>
   </g>
   <g id="matplotlib.axis_1">
    <g id="xtick_1">
     <g id="line2d_1">
      <path d="M 73.832727 307.584 
L 73.832727 41.472 
" clip-path="url(#p8f20dd4f30)" style="fill: none; stroke: #b0b0b0; stroke-width: 0.8; stroke-linecap: square"/>
     </g>
     <g id="line2d_2">
      <defs>
       <path id="me888d1fb61" d="M 0 0 
L 0 3.5 
" style="stroke: #000000; stroke-width: 0.8"/>
      </defs>
      <g>
       <use xlink:href="#me888d1fb61" x="73.832727" y="307.584" style="stroke: #000000; stroke-width: 0.8"/>
      </g>
     </g>
     <g id="text_1">
      <!-- 0 -->
      <g transform="translate(70.651477 322.182437)scale(0.1 -0.1)">
       <defs>
        <path id="DejaVuSans-30" d="M 2034 4250 
Q 1547 4250 1301 3770 
Q 1056 3291 1056 2328 
Q 1056 1369 1301 889 
Q 1547 409 2034 409 
Q 2525 409 2770 889 
Q 3016 1369 3016 2328 
Q 3016 3291 2770 3770 
Q 2525 4250 2034 4250 
z
M 2034 4750 
Q 2819 4750 3233 4129 
Q 3647 3509 3647 2328 
Q 3647 1150 3233 529 
Q 2819 -91 2034 -91 
Q 1250 -91 836 529 
Q 422 1150 422 2328 
Q 422 3509 836 4129 
Q 1250 4750 2034 4750 
z
" transform="scale(0.015625)"/>
       </defs>
       <use xlink:href="#DejaVuSans-30"/>
      </g>
     </g>
    </g>
    <g id="xtick_2">
     <g id="line2d_3">
      <path d="M 128.032151 307.584 
L 128.032151 41.472 
" clip-path="url(#p8f20dd4f30)" style="fill: none; stroke: #b0b0b0; stroke-width: 0.8; stroke-linecap: square"/>
     </g>
     <g id="line2d_4">
      <g>
       <use xlink:href="#me888d1fb61" x="128.032151" y="307.584" style="stroke: #000000; stroke-width: 0.8"/>
      </g>
     </g>
     <g id="text_2">
      <!-- 100 -->
      <g transform="translate(118.488401 322.182437)scale(0.1 -0.1)">
       <defs>
        <path id="DejaVuSans-31" d="M 794 531 
L 1825 531 
L 1825 4091 
L 703 3866 
L 703 4441 
L 1819 4666 
L 2450 4666 
L 2450 531 
L 3481 531 
L 3481 0 
L 794 0 
L 794 531 
z
" transform="scale(0.015625)"/>
       </defs>
       <use xlink:href="#DejaVuSans-31"/>
       <use xlink:href="#DejaVuSans-30" x="63.623047"/>
       <use xlink:href="#DejaVuSans-30" x="127.246094"/>
      </g>
     </g>
    </g>
    <g id="xtick_3">
     <g id="line2d_5">
      <path d="M 182.231574 307.584 
L 182.231574 41.472 
" clip-path="url(#p8f20dd4f30)" style="fill: none; stroke: #b0b0b0; stroke-width: 0.8; stroke-linecap: square"/>
     </g>
     <g id="line2d_6">
      <g>
       <use xlink:href="#me888d1fb61" x="182.231574" y="307.584" style="stroke: #000000; stroke-width: 0.8"/>
      </g>
     </g>
     <g id="text_3">
      <!-- 200 -->
      <g transform="translate(172.687824 322.182437)scale(0.1 -0.1)">
       <defs>
        <path id="DejaVuSans-32" d="M 1228 531 
L 3431 531 
L 3431 0 
L 469 0 
L 469 531 
Q 828 903 1448 1529 
Q 2069 2156 2228 2338 
Q 2531 2678 2651 2914 
Q 2772 3150 2772 3378 
Q 2772 3750 2511 3984 
Q 2250 4219 1831 4219 
Q 1534 4219 1204 4116 
Q 875 4013 500 3803 
L 500 4441 
Q 881 4594 1212 4672 
Q 1544 4750 1819 4750 
Q 2544 4750 2975 4387 
Q 3406 4025 3406 3419 
Q 3406 3131 3298 2873 
Q 3191 2616 2906 2266 
Q 2828 2175 2409 1742 
Q 1991 1309 1228 531 
z
" transform="scale(0.015625)"/>
       </defs>
       <use xlink:href="#DejaVuSans-32"/>
       <use xlink:href="#DejaVuSans-30" x="63.623047"/>
       <use xlink:href="#DejaVuSans-30" x="127.246094"/>
      </g>
     </g>
    </g>
    <g id="xtick_4">
     <g id="line2d_7">
      <path d="M 236.430997 307.584 
L 236.430997 41.472 
" clip-path="url(#p8f20dd4f30)" style="fill: none; stroke: #b0b0b0; stroke-width: 0.8; stroke-linecap: square"/>
     </g>
     <g id="line2d_8">
      <g>
       <use xlink:href="#me888d1fb61" x="236.430997" y="307.584" style="stroke: #000000; stroke-width: 0.8"/>
      </g>
     </g>
     <g id="text_4">
      <!-- 300 -->
      <g transform="translate(226.887247 322.182437)scale(0.1 -0.1)">
       <defs>
        <path id="DejaVuSans-33" d="M 2597 2516 
Q 3050 2419 3304 2112 
Q 3559 1806 3559 1356 
Q 3559 666 3084 287 
Q 2609 -91 1734 -91 
Q 1441 -91 1130 -33 
Q 819 25 488 141 
L 488 750 
Q 750 597 1062 519 
Q 1375 441 1716 441 
Q 2309 441 2620 675 
Q 2931 909 2931 1356 
Q 2931 1769 2642 2001 
Q 2353 2234 1838 2234 
L 1294 2234 
L 1294 2753 
L 1863 2753 
Q 2328 2753 2575 2939 
Q 2822 3125 2822 3475 
Q 2822 3834 2567 4026 
Q 2313 4219 1838 4219 
Q 1578 4219 1281 4162 
Q 984 4106 628 3988 
L 628 4550 
Q 988 4650 1302 4700 
Q 1616 4750 1894 4750 
Q 2613 4750 3031 4423 
Q 3450 4097 3450 3541 
Q 3450 3153 3228 2886 
Q 3006 2619 2597 2516 
z
" transform="scale(0.015625)"/>
       </defs>
       <use xlink:href="#DejaVuSans-33"/>
       <use xlink:href="#DejaVuSans-30" x="63.623047"/>
       <use xlink:href="#DejaVuSans-30" x="127.246094"/>
      </g>
     </g>
    </g>
    <g id="xtick_5">
     <g id="line2d_9">
      <path d="M 290.63042 307.584 
L 290.63042 41.472 
" clip-path="url(#p8f20dd4f30)" style="fill: none; stroke: #b0b0b0; stroke-width: 0.8; stroke-linecap: square"/>
     </g>
     <g id="line2d_10">
      <g>
       <use xlink:href="#me888d1fb61" x="290.63042" y="307.584" style="stroke: #000000; stroke-width: 0.8"/>
      </g>
     </g>
     <g id="text_5">
      <!-- 400 -->
      <g transform="translate(281.08667 322.182437)scale(0.1 -0.1)">
       <defs>
        <path id="DejaVuSans-34" d="M 2419 4116 
L 825 1625 
L 2419 1625 
L 2419 4116 
z
M 2253 4666 
L 3047 4666 
L 3047 1625 
L 3713 1625 
L 3713 1100 
L 3047 1100 
L 3047 0 
L 2419 0 
L 2419 1100 
L 313 1100 
L 313 1709 
L 2253 4666 
z
" transform="scale(0.015625)"/>
       </defs>
       <use xlink:href="#DejaVuSans-34"/>
       <use xlink:href="#DejaVuSans-30" x="63.623047"/>
       <use xlink:href="#DejaVuSans-30" x="127.246094"/>
      </g>
     </g>
    </g>
    <g id="xtick_6">
     <g id="line2d_11">
      <path d="M 344.829844 307.584 
L 344.829844 41.472 
" clip-path="url(#p8f20dd4f30)" style="fill: none; stroke: #b0b0b0; stroke-width: 0.8; stroke-linecap: square"/>
     </g>
     <g id="line2d_12">
      <g>
       <use xlink:href="#me888d1fb61" x="344.829844" y="307.584" style="stroke: #000000; stroke-width: 0.8"/>
      </g>
     </g>
     <g id="text_6">
      <!-- 500 -->
      <g transform="translate(335.286094 322.182437)scale(0.1 -0.1)">
       <defs>
        <path id="DejaVuSans-35" d="M 691 4666 
L 3169 4666 
L 3169 4134 
L 1269 4134 
L 1269 2991 
Q 1406 3038 1543 3061 
Q 1681 3084 1819 3084 
Q 2600 3084 3056 2656 
Q 3513 2228 3513 1497 
Q 3513 744 3044 326 
Q 2575 -91 1722 -91 
Q 1428 -91 1123 -41 
Q 819 9 494 109 
L 494 744 
Q 775 591 1075 516 
Q 1375 441 1709 441 
Q 2250 441 2565 725 
Q 2881 1009 2881 1497 
Q 2881 1984 2565 2268 
Q 2250 2553 1709 2553 
Q 1456 2553 1204 2497 
Q 953 2441 691 2322 
L 691 4666 
z
" transform="scale(0.015625)"/>
       </defs>
       <use xlink:href="#DejaVuSans-35"/>
       <use xlink:href="#DejaVuSans-30" x="63.623047"/>
       <use xlink:href="#DejaVuSans-30" x="127.246094"/>
      </g>
     </g>
    </g>
    <g id="xtick_7">
     <g id="line2d_13">
      <path d="M 399.029267 307.584 
L 399.029267 41.472 
" clip-path="url(#p8f20dd4f30)" style="fill: none; stroke: #b0b0b0; stroke-width: 0.8; stroke-linecap: square"/>
     </g>
     <g id="line2d_14">
      <g>
       <use xlink:href="#me888d1fb61" x="399.029267" y="307.584" style="stroke: #000000; stroke-width: 0.8"/>
      </g>
     </g>
     <g id="text_7">
      <!-- 600 -->
      <g transform="translate(389.485517 322.182437)scale(0.1 -0.1)">
       <defs>
        <path id="DejaVuSans-36" d="M 2113 2584 
Q 1688 2584 1439 2293 
Q 1191 2003 1191 1497 
Q 1191 994 1439 701 
Q 1688 409 2113 409 
Q 2538 409 2786 701 
Q 3034 994 3034 1497 
Q 3034 2003 2786 2293 
Q 2538 2584 2113 2584 
z
M 3366 4563 
L 3366 3988 
Q 3128 4100 2886 4159 
Q 2644 4219 2406 4219 
Q 1781 4219 1451 3797 
Q 1122 3375 1075 2522 
Q 1259 2794 1537 2939 
Q 1816 3084 2150 3084 
Q 2853 3084 3261 2657 
Q 3669 2231 3669 1497 
Q 3669 778 3244 343 
Q 2819 -91 2113 -91 
Q 1303 -91 875 529 
Q 447 1150 447 2328 
Q 447 3434 972 4092 
Q 1497 4750 2381 4750 
Q 2619 4750 2861 4703 
Q 3103 4656 3366 4563 
z
" transform="scale(0.015625)"/>
       </defs>
       <use xlink:href="#DejaVuSans-36"/>
       <use xlink:href="#DejaVuSans-30" x="63.623047"/>
       <use xlink:href="#DejaVuSans-30" x="127.246094"/>
      </g>
     </g>
    </g>
    <g id="text_8">
     <!-- Generations -->
     <g transform="translate(205.662344 335.860562)scale(0.1 -0.1)">
      <defs>
       <path id="DejaVuSans-47" d="M 3809 666 
L 3809 1919 
L 2778 1919 
L 2778 2438 
L 4434 2438 
L 4434 434 
Q 4069 175 3628 42 
Q 3188 -91 2688 -91 
Q 1594 -91 976 548 
Q 359 1188 359 2328 
Q 359 3472 976 4111 
Q 1594 4750 2688 4750 
Q 3144 4750 3555 4637 
Q 3966 4525 4313 4306 
L 4313 3634 
Q 3963 3931 3569 4081 
Q 3175 4231 2741 4231 
Q 1884 4231 1454 3753 
Q 1025 3275 1025 2328 
Q 1025 1384 1454 906 
Q 1884 428 2741 428 
Q 3075 428 3337 486 
Q 3600 544 3809 666 
z
" transform="scale(0.015625)"/>
       <path id="DejaVuSans-65" d="M 3597 1894 
L 3597 1613 
L 953 1613 
Q 991 1019 1311 708 
Q 1631 397 2203 397 
Q 2534 397 2845 478 
Q 3156 559 3463 722 
L 3463 178 
Q 3153 47 2828 -22 
Q 2503 -91 2169 -91 
Q 1331 -91 842 396 
Q 353 884 353 1716 
Q 353 2575 817 3079 
Q 1281 3584 2069 3584 
Q 2775 3584 3186 3129 
Q 3597 2675 3597 1894 
z
M 3022 2063 
Q 3016 2534 2758 2815 
Q 2500 3097 2075 3097 
Q 1594 3097 1305 2825 
Q 1016 2553 972 2059 
L 3022 2063 
z
" transform="scale(0.015625)"/>
       <path id="DejaVuSans-6e" d="M 3513 2113 
L 3513 0 
L 2938 0 
L 2938 2094 
Q 2938 2591 2744 2837 
Q 2550 3084 2163 3084 
Q 1697 3084 1428 2787 
Q 1159 2491 1159 1978 
L 1159 0 
L 581 0 
L 581 3500 
L 1159 3500 
L 1159 2956 
Q 1366 3272 1645 3428 
Q 1925 3584 2291 3584 
Q 2894 3584 3203 3211 
Q 3513 2838 3513 2113 
z
" transform="scale(0.015625)"/>
       <path id="DejaVuSans-72" d="M 2631 2963 
Q 2534 3019 2420 3045 
Q 2306 3072 2169 3072 
Q 1681 3072 1420 2755 
Q 1159 2438 1159 1844 
L 1159 0 
L 581 0 
L 581 3500 
L 1159 3500 
L 1159 2956 
Q 1341 3275 1631 3429 
Q 1922 3584 2338 3584 
Q 2397 3584 2469 3576 
Q 2541 3569 2628 3553 
L 2631 2963 
z
" transform="scale(0.015625)"/>
       <path id="DejaVuSans-61" d="M 2194 1759 
Q 1497 1759 1228 1600 
Q 959 1441 959 1056 
Q 959 750 1161 570 
Q 1363 391 1709 391 
Q 2188 391 2477 730 
Q 2766 1069 2766 1631 
L 2766 1759 
L 2194 1759 
z
M 3341 1997 
L 3341 0 
L 2766 0 
L 2766 531 
Q 2569 213 2275 61 
Q 1981 -91 1556 -91 
Q 1019 -91 701 211 
Q 384 513 384 1019 
Q 384 1609 779 1909 
Q 1175 2209 1959 2209 
L 2766 2209 
L 2766 2266 
Q 2766 2663 2505 2880 
Q 2244 3097 1772 3097 
Q 1472 3097 1187 3025 
Q 903 2953 641 2809 
L 641 3341 
Q 956 3463 1253 3523 
Q 1550 3584 1831 3584 
Q 2591 3584 2966 3190 
Q 3341 2797 3341 1997 
z
" transform="scale(0.015625)"/>
       <path id="DejaVuSans-74" d="M 1172 4494 
L 1172 3500 
L 2356 3500 
L 2356 3053 
L 1172 3053 
L 1172 1153 
Q 1172 725 1289 603 
Q 1406 481 1766 481 
L 2356 481 
L 2356 0 
L 1766 0 
Q 1100 0 847 248 
Q 594 497 594 1153 
L 594 3053 
L 172 3053 
L 172 3500 
L 594 3500 
L 594 4494 
L 1172 4494 
z
" transform="scale(0.015625)"/>
       <path id="DejaVuSans-69" d="M 603 3500 
L 1178 3500 
L 1178 0 
L 603 0 
L 603 3500 
z
M 603 4863 
L 1178 4863 
L 1178 4134 
L 603 4134 
L 603 4863 
z
" transform="scale(0.015625)"/>
       <path id="DejaVuSans-6f" d="M 1959 3097 
Q 1497 3097 1228 2736 
Q 959 2375 959 1747 
Q 959 1119 1226 758 
Q 1494 397 1959 397 
Q 2419 397 2687 759 
Q 2956 1122 2956 1747 
Q 2956 2369 2687 2733 
Q 2419 3097 1959 3097 
z
M 1959 3584 
Q 2709 3584 3137 3096 
Q 3566 2609 3566 1747 
Q 3566 888 3137 398 
Q 2709 -91 1959 -91 
Q 1206 -91 779 398 
Q 353 888 353 1747 
Q 353 2609 779 3096 
Q 1206 3584 1959 3584 
z
" transform="scale(0.015625)"/>
       <path id="DejaVuSans-73" d="M 2834 3397 
L 2834 2853 
Q 2591 2978 2328 3040 
Q 2066 3103 1784 3103 
Q 1356 3103 1142 2972 
Q 928 2841 928 2578 
Q 928 2378 1081 2264 
Q 1234 2150 1697 2047 
L 1894 2003 
Q 2506 1872 2764 1633 
Q 3022 1394 3022 966 
Q 3022 478 2636 193 
Q 2250 -91 1575 -91 
Q 1294 -91 989 -36 
Q 684 19 347 128 
L 347 722 
Q 666 556 975 473 
Q 1284 391 1588 391 
Q 1994 391 2212 530 
Q 2431 669 2431 922 
Q 2431 1156 2273 1281 
Q 2116 1406 1581 1522 
L 1381 1569 
Q 847 1681 609 1914 
Q 372 2147 372 2553 
Q 372 3047 722 3315 
Q 1072 3584 1716 3584 
Q 2034 3584 2315 3537 
Q 2597 3491 2834 3397 
z
" transform="scale(0.015625)"/>
      </defs>
      <use xlink:href="#DejaVuSans-47"/>
      <use xlink:href="#DejaVuSans-65" x="77.490234"/>
      <use xlink:href="#DejaVuSans-6e" x="139.013672"/>
      <use xlink:href="#DejaVuSans-65" x="202.392578"/>
      <use xlink:href="#DejaVuSans-72" x="263.916016"/>
      <use xlink:href="#DejaVuSans-61" x="305.029297"/>
      <use xlink:href="#DejaVuSans-74" x="366.308594"/>
      <use xlink:href="#DejaVuSans-69" x="405.517578"/>
      <use xlink:href="#DejaVuSans-6f" x="433.300781"/>
      <use xlink:href="#DejaVuSans-6e" x="494.482422"/>
      <use xlink:href="#DejaVuSans-73" x="557.861328"/>
     </g>
    </g>
   </g>
   <g id="matplotlib.axis_2">
    <g id="ytick_1">
     <g id="line2d_15">
      <path d="M 57.6 277.841832 
L 414.72 277.841832 
" clip-path="url(#p8f20dd4f30)" style="fill: none; stroke: #b0b0b0; stroke-width: 0.8; stroke-linecap: square"/>
     </g>
     <g id="line2d_16">
      <defs>
       <path id="m1a39aa8138" d="M 0 0 
L -3.5 0 
" style="stroke: #000000; stroke-width: 0.8"/>
      </defs>
      <g>
       <use xlink:href="#m1a39aa8138" x="57.6" y="277.841832" style="stroke: #000000; stroke-width: 0.8"/>
      </g>
     </g>
     <g id="text_9">
      <!-- −2000 -->
      <g transform="translate(16.770313 281.641051)scale(0.1 -0.1)">
       <defs>
        <path id="DejaVuSans-2212" d="M 678 2272 
L 4684 2272 
L 4684 1741 
L 678 1741 
L 678 2272 
z
" transform="scale(0.015625)"/>
       </defs>
       <use xlink:href="#DejaVuSans-2212"/>
       <use xlink:href="#DejaVuSans-32" x="83.789062"/>
       <use xlink:href="#DejaVuSans-30" x="147.412109"/>
       <use xlink:href="#DejaVuSans-30" x="211.035156"/>
       <use xlink:href="#DejaVuSans-30" x="274.658203"/>
      </g>
     </g>
    </g>
    <g id="ytick_2">
     <g id="line2d_17">
      <path d="M 57.6 232.879826 
L 414.72 232.879826 
" clip-path="url(#p8f20dd4f30)" style="fill: none; stroke: #b0b0b0; stroke-width: 0.8; stroke-linecap: square"/>
     </g>
     <g id="line2d_18">
      <g>
       <use xlink:href="#m1a39aa8138" x="57.6" y="232.879826" style="stroke: #000000; stroke-width: 0.8"/>
      </g>
     </g>
     <g id="text_10">
      <!-- −1500 -->
      <g transform="translate(16.770313 236.679045)scale(0.1 -0.1)">
       <use xlink:href="#DejaVuSans-2212"/>
       <use xlink:href="#DejaVuSans-31" x="83.789062"/>
       <use xlink:href="#DejaVuSans-35" x="147.412109"/>
       <use xlink:href="#DejaVuSans-30" x="211.035156"/>
       <use xlink:href="#DejaVuSans-30" x="274.658203"/>
      </g>
     </g>
    </g>
    <g id="ytick_3">
     <g id="line2d_19">
      <path d="M 57.6 187.91782 
L 414.72 187.91782 
" clip-path="url(#p8f20dd4f30)" style="fill: none; stroke: #b0b0b0; stroke-width: 0.8; stroke-linecap: square"/>
     </g>
     <g id="line2d_20">
      <g>
       <use xlink:href="#m1a39aa8138" x="57.6" y="187.91782" style="stroke: #000000; stroke-width: 0.8"/>
      </g>
     </g>
     <g id="text_11">
      <!-- −1000 -->
      <g transform="translate(16.770313 191.717039)scale(0.1 -0.1)">
       <use xlink:href="#DejaVuSans-2212"/>
       <use xlink:href="#DejaVuSans-31" x="83.789062"/>
       <use xlink:href="#DejaVuSans-30" x="147.412109"/>
       <use xlink:href="#DejaVuSans-30" x="211.035156"/>
       <use xlink:href="#DejaVuSans-30" x="274.658203"/>
      </g>
     </g>
    </g>
    <g id="ytick_4">
     <g id="line2d_21">
      <path d="M 57.6 142.955814 
L 414.72 142.955814 
" clip-path="url(#p8f20dd4f30)" style="fill: none; stroke: #b0b0b0; stroke-width: 0.8; stroke-linecap: square"/>
     </g>
     <g id="line2d_22">
      <g>
       <use xlink:href="#m1a39aa8138" x="57.6" y="142.955814" style="stroke: #000000; stroke-width: 0.8"/>
      </g>
     </g>
     <g id="text_12">
      <!-- −500 -->
      <g transform="translate(23.132812 146.755033)scale(0.1 -0.1)">
       <use xlink:href="#DejaVuSans-2212"/>
       <use xlink:href="#DejaVuSans-35" x="83.789062"/>
       <use xlink:href="#DejaVuSans-30" x="147.412109"/>
       <use xlink:href="#DejaVuSans-30" x="211.035156"/>
      </g>
     </g>
    </g>
    <g id="ytick_5">
     <g id="line2d_23">
      <path d="M 57.6 97.993808 
L 414.72 97.993808 
" clip-path="url(#p8f20dd4f30)" style="fill: none; stroke: #b0b0b0; stroke-width: 0.8; stroke-linecap: square"/>
     </g>
     <g id="line2d_24">
      <g>
       <use xlink:href="#m1a39aa8138" x="57.6" y="97.993808" style="stroke: #000000; stroke-width: 0.8"/>
      </g>
     </g>
     <g id="text_13">
      <!-- 0 -->
      <g transform="translate(44.2375 101.793027)scale(0.1 -0.1)">
       <use xlink:href="#DejaVuSans-30"/>
      </g>
     </g>
    </g>
    <g id="ytick_6">
     <g id="line2d_25">
      <path d="M 57.6 53.031802 
L 414.72 53.031802 
" clip-path="url(#p8f20dd4f30)" style="fill: none; stroke: #b0b0b0; stroke-width: 0.8; stroke-linecap: square"/>
     </g>
     <g id="line2d_26">
      <g>
       <use xlink:href="#m1a39aa8138" x="57.6" y="53.031802" style="stroke: #000000; stroke-width: 0.8"/>
      </g>
     </g>
     <g id="text_14">
      <!-- 500 -->
      <g transform="translate(31.5125 56.831021)scale(0.1 -0.1)">
       <use xlink:href="#DejaVuSans-35"/>
       <use xlink:href="#DejaVuSans-30" x="63.623047"/>
       <use xlink:href="#DejaVuSans-30" x="127.246094"/>
      </g>
     </g>
    </g>
    <g id="text_15">
     <!-- Fitness -->
     <g transform="translate(10.690625 191.845187)rotate(-90)scale(0.1 -0.1)">
      <defs>
       <path id="DejaVuSans-46" d="M 628 4666 
L 3309 4666 
L 3309 4134 
L 1259 4134 
L 1259 2759 
L 3109 2759 
L 3109 2228 
L 1259 2228 
L 1259 0 
L 628 0 
L 628 4666 
z
" transform="scale(0.015625)"/>
      </defs>
      <use xlink:href="#DejaVuSans-46"/>
      <use xlink:href="#DejaVuSans-69" x="50.269531"/>
      <use xlink:href="#DejaVuSans-74" x="78.052734"/>
      <use xlink:href="#DejaVuSans-6e" x="117.261719"/>
      <use xlink:href="#DejaVuSans-65" x="180.640625"/>
      <use xlink:href="#DejaVuSans-73" x="242.164062"/>
      <use xlink:href="#DejaVuSans-73" x="294.263672"/>
     </g>
    </g>
   </g>
   <g id="line2d_27">
    <path d="M 73.832727 295.488 
L 74.374722 230.464936 
L 74.916716 202.085407 
L 75.45871 187.578357 
L 76.542698 148.313284 
L 77.084693 137.804797 
L 78.168681 124.312834 
L 78.710675 120.05138 
L 79.25267 119.176975 
L 79.794664 122.354906 
L 80.336658 122.423072 
L 80.878652 118.808431 
L 81.420647 113.713844 
L 81.962641 113.180583 
L 82.504635 113.089411 
L 83.046629 119.040305 
L 83.588623 112.651127 
L 84.130618 120.224707 
L 84.672612 110.036247 
L 85.214606 110.878512 
L 85.7566 107.675429 
L 86.298595 103.624838 
L 86.840589 108.316035 
L 87.382583 114.801197 
L 87.924577 108.128009 
L 88.466572 109.305525 
L 89.008566 112.811846 
L 89.55056 113.105661 
L 90.092554 108.876724 
L 90.634548 115.23694 
L 91.176543 113.451455 
L 91.718537 105.444584 
L 92.260531 108.67794 
L 92.802525 110.16509 
L 93.34452 106.013217 
L 93.886514 114.665982 
L 94.428508 110.371737 
L 94.970502 113.296142 
L 95.512497 105.642672 
L 96.054491 105.14332 
L 96.596485 111.699799 
L 97.138479 106.949678 
L 97.680474 104.711063 
L 98.222468 108.754086 
L 98.764462 114.092013 
L 99.306456 112.196134 
L 99.84845 112.553557 
L 100.390445 111.435733 
L 101.474433 102.465488 
L 102.016427 110.962447 
L 102.558422 107.051119 
L 103.100416 106.491194 
L 103.64241 104.175717 
L 104.184404 102.904391 
L 104.726399 108.336951 
L 105.268393 109.63012 
L 106.352381 105.717359 
L 106.894375 107.843394 
L 107.43637 117.891251 
L 107.978364 117.025997 
L 108.520358 113.157656 
L 109.062352 113.662278 
L 109.604347 109.200555 
L 110.146341 106.323063 
L 110.688335 105.215772 
L 111.230329 105.995284 
L 111.772324 109.20047 
L 112.314318 107.517511 
L 112.856312 116.83185 
L 113.398306 115.238752 
L 113.940301 109.3947 
L 114.482295 108.794282 
L 115.024289 109.722713 
L 115.566283 112.11707 
L 116.108277 107.698824 
L 117.192266 110.386098 
L 117.73426 112.213436 
L 118.276254 110.770533 
L 118.818249 115.800907 
L 119.360243 117.623369 
L 119.902237 109.821933 
L 120.444231 115.551912 
L 120.986226 128.597031 
L 121.52822 110.176706 
L 122.070214 108.01805 
L 122.612208 108.023687 
L 123.154202 106.594563 
L 123.696197 116.519787 
L 124.238191 107.768199 
L 124.780185 107.147599 
L 125.864174 112.092778 
L 126.406168 106.472838 
L 126.948162 109.182188 
L 127.490156 109.342224 
L 128.032151 107.752172 
L 128.574145 114.743072 
L 129.116139 105.757339 
L 129.658133 102.019164 
L 130.200127 113.211529 
L 130.742122 109.443121 
L 131.82611 113.028811 
L 132.368104 108.909834 
L 132.910099 112.178561 
L 133.452093 107.691466 
L 133.994087 115.928923 
L 134.536081 115.841613 
L 135.078076 106.776341 
L 135.62007 116.587437 
L 136.162064 113.628825 
L 136.704058 109.091673 
L 137.246053 110.677421 
L 137.788047 110.878016 
L 138.330041 105.168412 
L 138.872035 108.79766 
L 139.414029 111.087956 
L 139.956024 107.750646 
L 140.498018 112.552893 
L 141.040012 108.861837 
L 141.582006 114.939902 
L 142.124001 111.875062 
L 142.665995 107.572353 
L 143.207989 116.659421 
L 143.749983 115.196398 
L 144.291978 109.424309 
L 144.833972 109.802934 
L 145.375966 105.148925 
L 145.91796 113.08646 
L 146.459954 113.749937 
L 147.001949 108.7531 
L 147.543943 110.897569 
L 148.085937 104.022276 
L 148.627931 110.331076 
L 149.169926 108.862598 
L 149.71192 116.254547 
L 150.253914 101.929108 
L 150.795908 108.877036 
L 151.337903 104.1331 
L 151.879897 102.977476 
L 152.421891 109.422735 
L 152.963885 107.600218 
L 153.505879 104.704003 
L 154.047874 108.717867 
L 154.589868 107.26916 
L 155.131862 106.73476 
L 155.673856 108.772035 
L 156.215851 109.572101 
L 156.757845 104.545915 
L 157.299839 101.405476 
L 157.841833 107.514071 
L 158.383828 109.064926 
L 158.925822 112.574013 
L 159.467816 107.068514 
L 160.00981 106.141775 
L 160.551805 112.434882 
L 161.093799 105.552309 
L 161.635793 103.54812 
L 162.177787 111.383452 
L 162.719781 109.423111 
L 163.261776 103.961762 
L 163.80377 105.18881 
L 164.345764 108.423644 
L 164.887758 114.810234 
L 165.429753 108.289568 
L 165.971747 105.855213 
L 166.513741 104.877223 
L 167.055735 107.33961 
L 167.59773 106.604159 
L 168.139724 111.686489 
L 168.681718 109.498668 
L 169.223712 105.601467 
L 169.765706 108.678309 
L 170.307701 104.966797 
L 170.849695 105.894496 
L 171.391689 111.736417 
L 171.933683 105.809263 
L 172.475678 103.12219 
L 173.559666 109.970265 
L 174.10166 109.029362 
L 174.643655 105.409096 
L 175.185649 106.227753 
L 175.727643 108.688538 
L 176.269637 112.087787 
L 176.811632 111.40165 
L 177.353626 104.910953 
L 177.89562 107.143293 
L 178.437614 111.677595 
L 178.979608 104.339289 
L 179.521603 115.567585 
L 180.063597 111.393974 
L 180.605591 110.826334 
L 181.147585 113.091416 
L 181.68958 114.079911 
L 182.231574 111.491275 
L 182.773568 112.151371 
L 183.315562 110.256965 
L 183.857557 113.034777 
L 184.399551 111.298397 
L 184.941545 110.510466 
L 185.483539 106.740571 
L 186.025533 110.132885 
L 186.567528 108.038059 
L 187.109522 109.626917 
L 187.651516 109.134322 
L 188.19351 106.082305 
L 188.735505 107.87484 
L 189.277499 109.052433 
L 189.819493 103.8345 
L 190.903482 118.036021 
L 191.445476 109.344454 
L 191.98747 105.359718 
L 192.529464 110.311852 
L 193.071458 107.552462 
L 193.613453 112.178593 
L 194.155447 107.718689 
L 194.697441 112.221836 
L 195.239435 108.243109 
L 195.78143 106.340095 
L 196.323424 106.529091 
L 196.865418 117.941901 
L 197.407412 115.409824 
L 197.949407 108.996304 
L 198.491401 112.115273 
L 199.033395 113.793822 
L 199.575389 107.210382 
L 200.117384 112.091278 
L 200.659378 110.124779 
L 201.201372 112.935814 
L 201.743366 114.146918 
L 202.28536 106.560756 
L 202.827355 105.023794 
L 203.369349 108.811503 
L 204.453337 105.060006 
L 204.995332 108.545983 
L 205.537326 107.890895 
L 206.07932 111.025655 
L 206.621314 111.322787 
L 207.163309 104.630476 
L 207.705303 111.095598 
L 208.247297 106.449196 
L 208.789291 105.556152 
L 209.331285 108.20054 
L 209.87328 104.917903 
L 210.415274 108.946797 
L 210.957268 117.425488 
L 211.499262 109.956107 
L 212.041257 109.278542 
L 212.583251 113.129092 
L 213.125245 109.475872 
L 213.667239 108.98235 
L 214.209234 111.936383 
L 214.751228 111.483843 
L 215.293222 107.264937 
L 215.835216 111.819305 
L 216.377211 110.938799 
L 216.919205 112.496826 
L 217.461199 110.71366 
L 218.003193 106.924651 
L 218.545187 108.210692 
L 219.087182 112.057961 
L 219.629176 110.235139 
L 220.17117 273.931023 
L 220.713164 218.070551 
L 222.881141 147.535632 
L 223.423136 154.580084 
L 223.96513 152.475346 
L 224.507124 139.299988 
L 225.049118 138.763556 
L 225.591112 141.0299 
L 226.133107 126.884568 
L 226.675101 121.153908 
L 227.217095 118.50234 
L 227.759089 122.073366 
L 228.301084 113.97839 
L 228.843078 124.364452 
L 229.385072 112.985121 
L 229.927066 116.726785 
L 230.469061 113.576381 
L 231.011055 115.851294 
L 231.553049 114.803988 
L 232.637037 111.83577 
L 233.179032 111.403581 
L 233.721026 107.76578 
L 234.26302 106.488728 
L 234.805014 108.360834 
L 235.347009 104.818593 
L 236.430997 111.489659 
L 236.972991 110.666981 
L 237.514986 107.898418 
L 238.05698 112.799914 
L 238.598974 110.449514 
L 239.140968 107.198759 
L 239.682963 105.324913 
L 240.224957 113.314721 
L 241.308945 109.588797 
L 241.850939 108.210634 
L 242.392934 104.344686 
L 243.476922 110.119046 
L 244.018916 108.728174 
L 245.102905 106.587308 
L 245.644899 108.802801 
L 246.186893 107.763622 
L 246.728888 109.938812 
L 247.270882 107.623827 
L 247.812876 109.562972 
L 248.35487 108.089982 
L 248.896864 109.887731 
L 249.438859 110.490486 
L 249.980853 109.88688 
L 250.522847 115.846547 
L 251.064841 115.766354 
L 251.606836 107.554364 
L 252.14883 105.655758 
L 252.690824 104.370096 
L 253.232818 114.796294 
L 253.774813 108.52086 
L 254.316807 110.556741 
L 254.858801 115.434018 
L 255.400795 106.067266 
L 255.942789 107.433382 
L 256.484784 114.415575 
L 257.026778 105.688801 
L 257.568772 107.937586 
L 258.110766 111.789374 
L 258.652761 107.668806 
L 259.194755 105.15806 
L 259.736749 103.961106 
L 260.278743 104.608292 
L 260.820738 106.160168 
L 261.362732 108.480525 
L 261.904726 109.072037 
L 262.44672 105.537187 
L 262.988715 111.848244 
L 263.530709 106.780918 
L 264.072703 108.64973 
L 265.156691 111.205391 
L 265.698686 115.052769 
L 266.24068 107.149236 
L 266.782674 114.265208 
L 267.324668 113.094691 
L 267.866663 124.647488 
L 268.408657 108.808514 
L 268.950651 108.606324 
L 269.492645 110.407003 
L 270.03464 117.650144 
L 270.576634 104.790494 
L 271.118628 113.097637 
L 271.660622 108.897424 
L 272.202616 107.58564 
L 272.744611 104.044866 
L 273.286605 115.511417 
L 273.828599 113.658879 
L 274.370593 105.728143 
L 274.912588 123.705946 
L 275.454582 118.648504 
L 275.996576 108.393553 
L 276.53857 110.134049 
L 277.080565 105.754319 
L 277.622559 111.926341 
L 278.164553 107.135113 
L 278.706547 108.991121 
L 279.248542 113.552953 
L 279.790536 107.645005 
L 280.33253 106.583234 
L 280.874524 107.556893 
L 281.416518 107.322328 
L 281.958513 110.77573 
L 282.500507 104.925725 
L 283.042501 112.873352 
L 284.12649 107.262767 
L 284.668484 112.468797 
L 285.210478 112.922029 
L 285.752472 107.639045 
L 286.294467 117.801122 
L 286.836461 109.456797 
L 287.378455 108.166333 
L 287.920449 111.90127 
L 288.462443 112.123744 
L 289.004438 109.001262 
L 289.546432 104.248244 
L 290.088426 103.622369 
L 290.63042 109.139783 
L 291.714409 107.094369 
L 292.256403 109.707655 
L 292.798397 105.0709 
L 293.340392 107.777226 
L 293.882386 106.190226 
L 294.42438 110.060934 
L 294.966374 118.997017 
L 295.508368 110.683118 
L 296.050363 108.437329 
L 296.592357 109.975488 
L 297.134351 102.47049 
L 297.676345 110.018566 
L 298.21834 106.464436 
L 298.760334 105.026751 
L 299.302328 114.281971 
L 299.844322 109.907728 
L 300.386317 104.560894 
L 300.928311 110.651662 
L 301.470305 108.811752 
L 302.012299 115.753286 
L 302.554294 106.320735 
L 303.096288 104.570266 
L 303.638282 105.366489 
L 304.180276 105.689566 
L 304.72227 111.352745 
L 305.264265 105.137406 
L 305.806259 101.354234 
L 306.348253 104.326166 
L 306.890247 109.419597 
L 307.432242 106.279443 
L 307.974236 108.633442 
L 308.51623 107.725586 
L 309.058224 109.099325 
L 309.600219 104.963298 
L 310.142213 112.820537 
L 310.684207 113.640189 
L 311.226201 105.773747 
L 311.768195 104.759771 
L 312.31019 102.421239 
L 312.852184 113.113711 
L 313.394178 118.980682 
L 313.936172 109.151963 
L 314.478167 107.123613 
L 315.020161 111.448613 
L 315.562155 107.674782 
L 316.104149 119.214592 
L 316.646144 116.769413 
L 317.188138 112.807047 
L 317.730132 106.37744 
L 318.272126 114.117631 
L 318.814121 110.112403 
L 319.356115 117.004128 
L 319.898109 111.700107 
L 320.440103 112.438291 
L 320.982097 112.515648 
L 321.524092 120.80911 
L 322.066086 126.459231 
L 322.60808 111.294321 
L 323.150074 117.104215 
L 323.692069 118.592131 
L 324.234063 115.544866 
L 324.776057 116.359373 
L 325.318051 118.306845 
L 325.860046 117.516697 
L 326.40204 123.312685 
L 326.944034 118.861867 
L 327.486028 115.35788 
L 328.028022 114.746163 
L 328.570017 109.412623 
L 329.112011 115.618223 
L 329.654005 115.421289 
L 330.195999 119.122944 
L 330.737994 112.909511 
L 331.279988 120.359827 
L 331.821982 114.532931 
L 332.363976 114.171609 
L 332.905971 120.868822 
L 333.447965 116.122349 
L 333.989959 117.250931 
L 334.531953 116.067933 
L 335.073947 109.759304 
L 335.615942 106.116702 
L 336.157936 114.941941 
L 336.69993 112.048267 
L 337.241924 105.769449 
L 337.783919 109.161233 
L 338.325913 110.049849 
L 338.867907 115.342703 
L 339.409901 104.50732 
L 339.951896 113.243424 
L 340.49389 111.796863 
L 341.035884 114.161807 
L 341.577878 111.701658 
L 342.119873 114.908714 
L 342.661867 120.161177 
L 343.203861 109.127303 
L 343.745855 113.811726 
L 344.287849 117.000863 
L 344.829844 108.51991 
L 345.371838 118.440008 
L 345.913832 114.679798 
L 346.455826 111.915681 
L 346.997821 118.652113 
L 347.539815 114.030267 
L 348.081809 114.622854 
L 348.623803 108.357828 
L 349.165798 113.791071 
L 349.707792 117.122125 
L 350.249786 114.450169 
L 350.79178 116.633319 
L 351.333774 113.220843 
L 351.875769 114.371533 
L 352.959757 107.003935 
L 353.501751 113.185076 
L 354.043746 115.943743 
L 354.58574 111.57906 
L 355.127734 111.301445 
L 355.669728 116.020265 
L 356.211723 108.142658 
L 356.753717 117.084371 
L 357.295711 117.220129 
L 357.837705 107.252355 
L 358.379699 111.254083 
L 358.921694 113.366108 
L 359.463688 111.618077 
L 360.005682 111.218656 
L 360.547676 111.825072 
L 361.089671 110.77972 
L 361.631665 113.668844 
L 362.173659 118.79479 
L 362.715653 118.512483 
L 363.257648 113.730305 
L 363.799642 115.160891 
L 364.341636 112.64975 
L 364.88363 112.55431 
L 365.425625 111.694055 
L 365.967619 106.897644 
L 366.509613 114.214854 
L 367.051607 109.773116 
L 367.593601 110.247279 
L 368.135596 104.132883 
L 368.67759 109.090762 
L 369.219584 118.256801 
L 370.303573 110.010224 
L 370.845567 107.186062 
L 371.387561 290.6404 
L 371.929555 230.133529 
L 372.47155 207.753732 
L 373.013544 206.448008 
L 373.555538 192.884086 
L 374.097532 173.398317 
L 374.639526 159.608371 
L 375.181521 155.856445 
L 375.723515 150.815909 
L 376.265509 151.52635 
L 376.807503 149.866516 
L 377.349498 139.19837 
L 377.891492 130.750749 
L 378.433486 139.321527 
L 379.517475 121.072373 
L 380.059469 119.20673 
L 380.601463 123.662405 
L 381.143457 116.712764 
L 381.685452 112.846673 
L 382.227446 123.879447 
L 382.76944 125.383712 
L 383.311434 115.645196 
L 383.853428 124.954304 
L 384.395423 117.688873 
L 384.937417 116.436377 
L 385.479411 119.384608 
L 386.021405 115.160629 
L 386.5634 114.381032 
L 387.105394 110.341327 
L 387.647388 111.371655 
L 388.189382 122.036271 
L 388.731377 107.250484 
L 389.273371 108.917817 
L 389.815365 110.130186 
L 390.357359 113.046372 
L 390.899353 114.556284 
L 391.441348 105.072887 
L 391.983342 106.477973 
L 392.525336 108.365066 
L 393.06733 108.518621 
L 393.609325 104.964275 
L 394.151319 108.683061 
L 394.693313 103.529435 
L 395.235307 106.546982 
L 395.777302 107.753106 
L 396.319296 107.727915 
L 396.86129 105.214554 
L 397.403284 116.341453 
L 397.945278 119.751673 
L 398.487273 105.83353 
L 398.487273 105.83353 
" clip-path="url(#p8f20dd4f30)" style="fill: none; stroke: #0000ff; stroke-width: 1.5; stroke-linecap: square"/>
   </g>
   <g id="line2d_28">
    <path d="M 73.832727 239.287721 
L 74.374722 190.892053 
L 75.45871 149.42552 
L 76.542698 102.278913 
L 77.084693 97.856972 
L 77.626687 90.832637 
L 78.168681 85.30892 
L 78.710675 75.684841 
L 79.25267 85.378695 
L 79.794664 74.281984 
L 80.336658 74.652044 
L 80.878652 69.585449 
L 81.420647 84.172621 
L 81.962641 83.412531 
L 82.504635 80.14836 
L 83.046629 77.758196 
L 83.588623 78.936754 
L 84.130618 76.479962 
L 84.672612 82.326499 
L 85.214606 77.287079 
L 86.298595 93.306573 
L 87.382583 64.962926 
L 87.924577 79.980387 
L 88.466572 81.09747 
L 89.55056 70.214523 
L 90.092554 86.358597 
L 90.634548 69.443733 
L 91.176543 74.530432 
L 91.718537 87.315175 
L 92.260531 69.670962 
L 92.802525 76.826519 
L 93.34452 81.146638 
L 93.886514 79.926079 
L 94.428508 79.140924 
L 94.970502 81.1179 
L 95.512497 85.12497 
L 96.054491 79.281545 
L 96.596485 69.472389 
L 97.138479 82.713855 
L 97.680474 84.900293 
L 98.222468 71.041196 
L 98.764462 63.210225 
L 99.306456 71.692123 
L 99.84845 75.204546 
L 100.390445 77.932435 
L 100.932439 82.439569 
L 101.474433 89.740378 
L 102.016427 77.934777 
L 102.558422 83.284452 
L 104.184404 90.076208 
L 104.726399 81.910807 
L 105.268393 76.988541 
L 105.810387 82.656431 
L 106.352381 86.155419 
L 106.894375 88.348863 
L 107.43637 67.864724 
L 107.978364 81.830423 
L 108.520358 77.129066 
L 109.062352 69.639233 
L 109.604347 82.633467 
L 110.146341 81.232654 
L 110.688335 87.44052 
L 111.230329 83.848364 
L 111.772324 76.170187 
L 112.314318 83.708357 
L 112.856312 83.988084 
L 113.398306 67.231496 
L 113.940301 77.600852 
L 114.482295 74.335038 
L 115.024289 80.950477 
L 115.566283 76.887539 
L 116.108277 80.838633 
L 116.650272 71.42991 
L 117.192266 83.463307 
L 117.73426 70.762732 
L 118.276254 82.617281 
L 118.818249 82.330171 
L 119.360243 74.351854 
L 119.902237 80.213345 
L 120.444231 68.109546 
L 120.986226 62.186055 
L 121.52822 77.645962 
L 122.070214 86.471765 
L 122.612208 83.683931 
L 123.154202 83.865138 
L 123.696197 75.777193 
L 124.238191 79.179307 
L 124.780185 81.74151 
L 125.322179 81.639452 
L 125.864174 79.818971 
L 126.406168 84.915345 
L 126.948162 85.987956 
L 127.490156 80.061764 
L 128.032151 83.640415 
L 128.574145 68.162592 
L 129.116139 84.428041 
L 129.658133 91.056336 
L 130.200127 73.444591 
L 130.742122 82.844606 
L 131.284116 74.820689 
L 131.82611 82.15935 
L 132.368104 81.558933 
L 132.910099 72.31643 
L 133.452093 83.041773 
L 134.536081 77.435632 
L 135.078076 84.825955 
L 135.62007 75.461058 
L 136.162064 72.522415 
L 136.704058 84.009618 
L 137.246053 75.838389 
L 137.788047 82.631285 
L 138.330041 87.520313 
L 138.872035 81.694904 
L 139.414029 81.636763 
L 139.956024 77.934558 
L 140.498018 73.154284 
L 141.040012 85.322458 
L 141.582006 71.508591 
L 142.665995 82.429188 
L 143.207989 70.088496 
L 143.749983 65.187288 
L 144.291978 77.011748 
L 144.833972 83.609265 
L 145.375966 85.573671 
L 145.91796 76.430682 
L 146.459954 81.476986 
L 147.001949 82.084594 
L 147.543943 79.038902 
L 148.085937 88.497964 
L 148.627931 73.536902 
L 149.169926 74.984499 
L 149.71192 63.620785 
L 150.253914 88.363952 
L 150.795908 76.982705 
L 151.337903 85.608846 
L 151.879897 85.887225 
L 152.421891 71.515061 
L 153.505879 85.497149 
L 154.047874 79.249958 
L 154.589868 81.779937 
L 155.131862 79.185098 
L 155.673856 78.3076 
L 156.215851 79.662785 
L 156.757845 81.725553 
L 157.299839 91.326964 
L 157.841833 68.549215 
L 158.383828 81.319557 
L 158.925822 69.445099 
L 159.467816 70.383747 
L 160.00981 80.979017 
L 160.551805 74.116029 
L 161.093799 82.633292 
L 161.635793 86.662213 
L 162.719781 72.664242 
L 163.261776 85.242916 
L 163.80377 83.485855 
L 164.345764 74.994815 
L 164.887758 78.055784 
L 165.429753 63.367813 
L 165.971747 83.681536 
L 166.513741 82.574046 
L 167.055735 79.405477 
L 167.59773 84.201909 
L 168.139724 77.008266 
L 168.681718 80.957345 
L 169.223712 82.599419 
L 169.765706 71.552691 
L 170.307701 85.616909 
L 171.391689 72.851559 
L 172.475678 84.733396 
L 173.017672 75.12599 
L 173.559666 73.003061 
L 174.643655 82.388256 
L 175.185649 74.025117 
L 175.727643 79.308969 
L 176.811632 79.724219 
L 177.353626 82.306286 
L 177.89562 63.404376 
L 178.437614 71.023341 
L 178.979608 87.585224 
L 179.521603 74.342856 
L 180.063597 75.675899 
L 180.605591 77.587845 
L 181.147585 66.722147 
L 181.68958 79.815456 
L 182.231574 82.390339 
L 182.773568 79.844309 
L 183.315562 70.962034 
L 183.857557 76.67323 
L 184.399551 73.38134 
L 184.941545 75.652353 
L 185.483539 83.803095 
L 186.025533 79.944138 
L 186.567528 71.338905 
L 187.109522 83.172766 
L 187.651516 82.902305 
L 188.19351 83.076574 
L 188.735505 73.910218 
L 189.277499 82.151966 
L 189.819493 83.359682 
L 190.361487 82.21036 
L 190.903482 74.687039 
L 191.445476 83.690058 
L 191.98747 83.580981 
L 192.529464 82.724729 
L 193.071458 71.441024 
L 193.613453 69.899764 
L 194.155447 82.783556 
L 194.697441 66.655407 
L 195.239435 69.111528 
L 195.78143 84.709798 
L 196.323424 81.218719 
L 196.865418 58.953818 
L 197.407412 65.862394 
L 197.949407 78.73171 
L 198.491401 80.888949 
L 199.033395 80.076527 
L 199.575389 76.734174 
L 200.117384 81.802048 
L 200.659378 79.103401 
L 201.201372 81.156298 
L 201.743366 67.1705 
L 202.28536 81.274859 
L 202.827355 84.346503 
L 203.369349 76.966548 
L 203.911343 75.827201 
L 204.453337 82.467512 
L 204.995332 82.03006 
L 205.537326 83.353038 
L 206.07932 77.833947 
L 206.621314 76.87968 
L 207.163309 75.61397 
L 207.705303 66.400413 
L 208.247297 83.571349 
L 208.789291 83.713858 
L 209.331285 83.657446 
L 209.87328 83.752643 
L 210.415274 65.387614 
L 210.957268 66.181349 
L 211.499262 73.278877 
L 212.041257 69.289076 
L 212.583251 71.818072 
L 213.125245 80.797502 
L 213.667239 80.682537 
L 214.209234 67.745301 
L 214.751228 81.42104 
L 215.293222 81.23195 
L 216.377211 73.661369 
L 216.919205 73.204161 
L 217.461199 77.258627 
L 218.003193 86.651365 
L 218.545187 81.56702 
L 219.087182 73.345482 
L 219.629176 78.873867 
L 220.17117 218.659876 
L 220.713164 189.40204 
L 221.255159 175.405566 
L 222.339147 120.384217 
L 222.881141 116.416622 
L 223.423136 104.191908 
L 224.507124 100.256037 
L 225.049118 100.973476 
L 225.591112 90.874788 
L 226.133107 88.2806 
L 226.675101 88.384168 
L 227.217095 87.409021 
L 227.759089 88.052509 
L 228.301084 83.16775 
L 228.843078 69.958025 
L 229.385072 88.606992 
L 229.927066 79.416022 
L 230.469061 82.346963 
L 231.011055 80.067447 
L 231.553049 68.892744 
L 232.095043 67.648063 
L 232.637037 86.831128 
L 233.179032 85.149216 
L 233.721026 84.219972 
L 234.26302 86.860892 
L 234.805014 74.53902 
L 235.347009 87.171123 
L 235.889003 80.907494 
L 236.430997 79.418161 
L 236.972991 82.98492 
L 237.514986 74.438095 
L 238.05698 71.896656 
L 238.598974 75.021553 
L 239.140968 76.515155 
L 239.682963 79.941851 
L 240.224957 77.215955 
L 240.766951 71.196914 
L 241.308945 72.526628 
L 241.850939 74.792561 
L 242.392934 87.709113 
L 242.934928 82.298613 
L 243.476922 78.784953 
L 244.018916 71.930391 
L 244.560911 76.136302 
L 245.102905 84.507192 
L 245.644899 79.862785 
L 246.186893 78.581136 
L 246.728888 71.064175 
L 247.270882 84.629158 
L 247.812876 79.613863 
L 248.35487 85.733592 
L 248.896864 85.64291 
L 249.438859 84.017728 
L 249.980853 86.117951 
L 250.522847 77.124566 
L 251.064841 77.718008 
L 251.606836 81.513044 
L 252.14883 88.833823 
L 252.690824 88.535606 
L 253.232818 73.081078 
L 254.316807 77.131397 
L 254.858801 67.540762 
L 255.400795 86.627732 
L 255.942789 73.6307 
L 256.484784 73.027534 
L 257.026778 87.846452 
L 257.568772 75.220451 
L 258.110766 71.739145 
L 258.652761 84.529895 
L 259.194755 74.554529 
L 259.736749 88.385391 
L 260.278743 88.139531 
L 260.820738 89.22664 
L 261.362732 79.404574 
L 261.904726 74.943241 
L 262.44672 85.316737 
L 262.988715 75.834685 
L 263.530709 83.34848 
L 264.072703 76.436445 
L 265.156691 85.661248 
L 265.698686 64.512691 
L 266.24068 84.060369 
L 266.782674 72.210958 
L 267.324668 76.322765 
L 267.866663 67.050668 
L 268.408657 76.53091 
L 268.950651 70.339471 
L 269.492645 73.574923 
L 270.03464 67.333025 
L 270.576634 80.341553 
L 271.118628 70.538648 
L 271.660622 71.120841 
L 272.202616 76.83541 
L 272.744611 84.287955 
L 273.286605 70.740691 
L 273.828599 71.795296 
L 274.370593 86.010834 
L 274.912588 53.568 
L 275.454582 65.020161 
L 275.996576 71.950111 
L 276.53857 82.514461 
L 277.080565 85.6037 
L 277.622559 73.476137 
L 278.164553 79.39986 
L 278.706547 74.497979 
L 279.248542 63.617037 
L 279.790536 84.056755 
L 280.33253 84.575438 
L 280.874524 84.029001 
L 281.416518 75.269776 
L 281.958513 79.266066 
L 282.500507 80.166454 
L 283.042501 64.891654 
L 283.584495 79.821303 
L 284.12649 81.648041 
L 284.668484 73.918774 
L 285.210478 75.799601 
L 285.752472 82.398351 
L 286.294467 68.031875 
L 286.836461 70.314929 
L 287.378455 70.150879 
L 287.920449 74.870552 
L 288.462443 71.039096 
L 289.004438 79.05299 
L 289.546432 84.482845 
L 290.088426 85.636705 
L 290.63042 65.782893 
L 291.172415 81.701074 
L 291.714409 82.180513 
L 292.256403 77.561316 
L 292.798397 84.251263 
L 293.340392 72.926413 
L 293.882386 83.822048 
L 294.42438 79.551295 
L 294.966374 62.911638 
L 296.050363 77.784669 
L 296.592357 79.660508 
L 297.134351 84.597574 
L 297.676345 72.35052 
L 298.21834 83.293589 
L 298.760334 82.178358 
L 299.302328 69.8225 
L 299.844322 78.351612 
L 300.386317 83.019818 
L 300.928311 76.758577 
L 301.470305 74.831064 
L 302.012299 69.716492 
L 302.554294 79.497896 
L 303.096288 77.498107 
L 303.638282 80.277106 
L 304.180276 81.714204 
L 304.72227 76.546818 
L 305.264265 78.398016 
L 305.806259 87.539328 
L 306.348253 81.806637 
L 306.890247 81.34622 
L 307.432242 79.121789 
L 307.974236 69.368148 
L 308.51623 82.592584 
L 309.058224 81.675429 
L 309.600219 85.203292 
L 310.142213 81.917182 
L 310.684207 73.531035 
L 311.226201 84.949061 
L 312.31019 85.789861 
L 312.852184 73.732264 
L 313.394178 82.966205 
L 313.936172 77.341625 
L 314.478167 82.951506 
L 315.020161 83.992946 
L 315.562155 84.127143 
L 316.104149 81.130158 
L 316.646144 79.569315 
L 317.188138 74.202635 
L 317.730132 72.573232 
L 318.272126 76.529711 
L 318.814121 78.303326 
L 319.356115 77.693691 
L 319.898109 85.537178 
L 320.440103 78.701333 
L 320.982097 79.24599 
L 321.524092 79.982997 
L 322.066086 76.553757 
L 322.60808 85.728655 
L 323.150074 84.867213 
L 323.692069 78.404967 
L 324.234063 64.767499 
L 324.776057 84.272221 
L 325.318051 85.169601 
L 325.860046 71.237342 
L 326.40204 83.56371 
L 326.944034 85.962985 
L 327.486028 85.131208 
L 328.028022 83.678076 
L 328.570017 83.013242 
L 329.112011 81.943334 
L 330.195999 73.234892 
L 330.737994 74.18914 
L 331.279988 79.681459 
L 331.821982 80.876108 
L 332.363976 87.092039 
L 332.905971 78.003349 
L 333.447965 83.689475 
L 333.989959 81.510991 
L 334.531953 81.059658 
L 335.073947 85.146995 
L 335.615942 86.224758 
L 336.157936 80.858257 
L 336.69993 78.026941 
L 337.241924 86.075886 
L 337.783919 85.105593 
L 338.325913 74.467212 
L 338.867907 68.934049 
L 339.409901 85.675141 
L 339.951896 77.114283 
L 340.49389 81.325059 
L 341.035884 78.839229 
L 341.577878 81.035785 
L 342.119873 71.767238 
L 342.661867 76.493697 
L 343.203861 77.194227 
L 343.745855 80.139999 
L 344.287849 67.911244 
L 344.829844 82.260633 
L 345.371838 77.992375 
L 345.913832 79.829502 
L 346.455826 84.487758 
L 346.997821 73.817478 
L 347.539815 77.461472 
L 348.081809 75.28189 
L 348.623803 84.377067 
L 349.165798 83.856423 
L 349.707792 80.108915 
L 350.249786 69.629003 
L 350.79178 80.661708 
L 351.333774 76.459907 
L 351.875769 77.541577 
L 352.417763 83.146994 
L 352.959757 86.01065 
L 353.501751 74.809536 
L 354.043746 78.806106 
L 354.58574 85.598349 
L 355.127734 84.438043 
L 355.669728 85.396057 
L 356.211723 82.11001 
L 356.753717 79.913045 
L 357.295711 80.076035 
L 357.837705 86.815881 
L 358.379699 82.109915 
L 358.921694 82.571358 
L 359.463688 77.481028 
L 360.005682 82.900479 
L 360.547676 83.297178 
L 361.089671 81.10621 
L 361.631665 84.769598 
L 362.173659 80.305159 
L 362.715653 80.286776 
L 363.257648 84.18969 
L 363.799642 83.034216 
L 364.341636 83.414354 
L 364.88363 70.611315 
L 365.425625 84.037886 
L 365.967619 84.544715 
L 366.509613 82.543907 
L 367.051607 79.622314 
L 367.593601 84.274534 
L 368.135596 90.019924 
L 368.67759 84.271052 
L 369.219584 66.394868 
L 369.761578 75.00258 
L 370.303573 80.91169 
L 370.845567 84.16765 
L 371.387561 242.119542 
L 371.929555 195.133247 
L 372.47155 170.521033 
L 373.013544 163.844798 
L 374.097532 135.879466 
L 374.639526 119.086215 
L 375.181521 122.223032 
L 375.723515 107.942691 
L 376.265509 105.600634 
L 377.891492 94.738212 
L 378.433486 86.774855 
L 378.97548 88.110904 
L 379.517475 87.617309 
L 380.059469 86.753436 
L 380.601463 84.254513 
L 381.143457 86.823553 
L 381.685452 90.816277 
L 382.227446 85.423225 
L 382.76944 81.586962 
L 383.311434 85.102524 
L 383.853428 71.629435 
L 384.395423 76.799954 
L 384.937417 64.845074 
L 385.479411 71.363593 
L 386.021405 67.326336 
L 386.5634 71.046912 
L 387.105394 83.717371 
L 387.647388 71.470519 
L 388.189382 62.918626 
L 388.731377 81.840349 
L 389.273371 72.367763 
L 389.815365 74.689452 
L 390.357359 64.262152 
L 390.899353 61.656246 
L 391.441348 86.693117 
L 391.983342 85.106707 
L 392.525336 81.360297 
L 393.06733 73.552099 
L 393.609325 74.606106 
L 394.151319 82.094731 
L 395.235307 79.438573 
L 395.777302 76.818697 
L 396.319296 71.697499 
L 396.86129 72.770091 
L 397.403284 72.068693 
L 397.945278 69.292587 
L 398.487273 81.137009 
L 398.487273 81.137009 
" clip-path="url(#p8f20dd4f30)" style="fill: none; stroke-dasharray: 9.6,2.4,1.5,2.4; stroke-dashoffset: 0; stroke: #008000; stroke-width: 1.5"/>
   </g>
   <g id="line2d_29">
    <path d="M 73.832727 173.8978 
L 74.374722 164.217396 
L 74.916716 143.826188 
L 75.45871 101.873568 
L 76.000704 101.873568 
L 76.542698 98.339594 
L 77.084693 98.339594 
L 77.626687 98.006047 
L 84.130618 98.005139 
L 84.672612 98.147404 
L 87.382583 98.01728 
L 219.629176 98.002126 
L 220.17117 190.546542 
L 220.713164 143.693641 
L 221.797153 117.147252 
L 222.339147 109.494979 
L 222.881141 109.494979 
L 223.96513 104.872041 
L 224.507124 104.872041 
L 225.049118 104.081589 
L 225.591112 100.38473 
L 226.133107 100.38473 
L 227.217095 98.715343 
L 227.759089 98.08294 
L 370.845567 98.001677 
L 371.387561 183.892001 
L 371.929555 159.924042 
L 372.47155 153.379798 
L 373.013544 143.579839 
L 374.097532 118.035064 
L 374.639526 110.966043 
L 375.181521 109.023832 
L 375.723515 103.063307 
L 376.265509 103.063307 
L 376.807503 100.855614 
L 377.349498 99.173258 
L 377.891492 99.173258 
L 378.433486 98.522004 
L 380.601463 98.415708 
L 382.76944 98.027195 
L 398.487273 98.00147 
L 398.487273 98.00147 
" clip-path="url(#p8f20dd4f30)" style="fill: none; stroke: #ff0000; stroke-width: 1.5; stroke-linecap: square"/>
   </g>
   <g id="patch_3">
    <path d="M 57.6 307.584 
L 57.6 41.472 
" style="fill: none; stroke: #000000; stroke-width: 0.8; stroke-linejoin: miter; stroke-linecap: square"/>
   </g>
   <g id="patch_4">
    <path d="M 414.72 307.584 
L 414.72 41.472 
" style="fill: none; stroke: #000000; stroke-width: 0.8; stroke-linejoin: miter; stroke-linecap: square"/>
   </g>
   <g id="patch_5">
    <path d="M 57.6 307.584 
L 414.72 307.584 
" style="fill: none; stroke: #000000; stroke-width: 0.8; stroke-linejoin: miter; stroke-linecap: square"/>
   </g>
   <g id="patch_6">
    <path d="M 57.6 41.472 
L 414.72 41.472 
" style="fill: none; stroke: #000000; stroke-width: 0.8; stroke-linejoin: miter; stroke-linecap: square"/>
   </g>
   <g id="text_16">
    <!-- Population's average and best fitness -->
    <g transform="translate(123.529687 35.472)scale(0.12 -0.12)">
     <defs>
      <path id="DejaVuSans-50" d="M 1259 4147 
L 1259 2394 
L 2053 2394 
Q 2494 2394 2734 2622 
Q 2975 2850 2975 3272 
Q 2975 3691 2734 3919 
Q 2494 4147 2053 4147 
L 1259 4147 
z
M 628 4666 
L 2053 4666 
Q 2838 4666 3239 4311 
Q 3641 3956 3641 3272 
Q 3641 2581 3239 2228 
Q 2838 1875 2053 1875 
L 1259 1875 
L 1259 0 
L 628 0 
L 628 4666 
z
" transform="scale(0.015625)"/>
      <path id="DejaVuSans-70" d="M 1159 525 
L 1159 -1331 
L 581 -1331 
L 581 3500 
L 1159 3500 
L 1159 2969 
Q 1341 3281 1617 3432 
Q 1894 3584 2278 3584 
Q 2916 3584 3314 3078 
Q 3713 2572 3713 1747 
Q 3713 922 3314 415 
Q 2916 -91 2278 -91 
Q 1894 -91 1617 61 
Q 1341 213 1159 525 
z
M 3116 1747 
Q 3116 2381 2855 2742 
Q 2594 3103 2138 3103 
Q 1681 3103 1420 2742 
Q 1159 2381 1159 1747 
Q 1159 1113 1420 752 
Q 1681 391 2138 391 
Q 2594 391 2855 752 
Q 3116 1113 3116 1747 
z
" transform="scale(0.015625)"/>
      <path id="DejaVuSans-75" d="M 544 1381 
L 544 3500 
L 1119 3500 
L 1119 1403 
Q 1119 906 1312 657 
Q 1506 409 1894 409 
Q 2359 409 2629 706 
Q 2900 1003 2900 1516 
L 2900 3500 
L 3475 3500 
L 3475 0 
L 2900 0 
L 2900 538 
Q 2691 219 2414 64 
Q 2138 -91 1772 -91 
Q 1169 -91 856 284 
Q 544 659 544 1381 
z
M 1991 3584 
L 1991 3584 
z
" transform="scale(0.015625)"/>
      <path id="DejaVuSans-6c" d="M 603 4863 
L 1178 4863 
L 1178 0 
L 603 0 
L 603 4863 
z
" transform="scale(0.015625)"/>
      <path id="DejaVuSans-27" d="M 1147 4666 
L 1147 2931 
L 616 2931 
L 616 4666 
L 1147 4666 
z
" transform="scale(0.015625)"/>
      <path id="DejaVuSans-20" transform="scale(0.015625)"/>
      <path id="DejaVuSans-76" d="M 191 3500 
L 800 3500 
L 1894 563 
L 2988 3500 
L 3597 3500 
L 2284 0 
L 1503 0 
L 191 3500 
z
" transform="scale(0.015625)"/>
      <path id="DejaVuSans-67" d="M 2906 1791 
Q 2906 2416 2648 2759 
Q 2391 3103 1925 3103 
Q 1463 3103 1205 2759 
Q 947 2416 947 1791 
Q 947 1169 1205 825 
Q 1463 481 1925 481 
Q 2391 481 2648 825 
Q 2906 1169 2906 1791 
z
M 3481 434 
Q 3481 -459 3084 -895 
Q 2688 -1331 1869 -1331 
Q 1566 -1331 1297 -1286 
Q 1028 -1241 775 -1147 
L 775 -588 
Q 1028 -725 1275 -790 
Q 1522 -856 1778 -856 
Q 2344 -856 2625 -561 
Q 2906 -266 2906 331 
L 2906 616 
Q 2728 306 2450 153 
Q 2172 0 1784 0 
Q 1141 0 747 490 
Q 353 981 353 1791 
Q 353 2603 747 3093 
Q 1141 3584 1784 3584 
Q 2172 3584 2450 3431 
Q 2728 3278 2906 2969 
L 2906 3500 
L 3481 3500 
L 3481 434 
z
" transform="scale(0.015625)"/>
      <path id="DejaVuSans-64" d="M 2906 2969 
L 2906 4863 
L 3481 4863 
L 3481 0 
L 2906 0 
L 2906 525 
Q 2725 213 2448 61 
Q 2172 -91 1784 -91 
Q 1150 -91 751 415 
Q 353 922 353 1747 
Q 353 2572 751 3078 
Q 1150 3584 1784 3584 
Q 2172 3584 2448 3432 
Q 2725 3281 2906 2969 
z
M 947 1747 
Q 947 1113 1208 752 
Q 1469 391 1925 391 
Q 2381 391 2643 752 
Q 2906 1113 2906 1747 
Q 2906 2381 2643 2742 
Q 2381 3103 1925 3103 
Q 1469 3103 1208 2742 
Q 947 2381 947 1747 
z
" transform="scale(0.015625)"/>
      <path id="DejaVuSans-62" d="M 3116 1747 
Q 3116 2381 2855 2742 
Q 2594 3103 2138 3103 
Q 1681 3103 1420 2742 
Q 1159 2381 1159 1747 
Q 1159 1113 1420 752 
Q 1681 391 2138 391 
Q 2594 391 2855 752 
Q 3116 1113 3116 1747 
z
M 1159 2969 
Q 1341 3281 1617 3432 
Q 1894 3584 2278 3584 
Q 2916 3584 3314 3078 
Q 3713 2572 3713 1747 
Q 3713 922 3314 415 
Q 2916 -91 2278 -91 
Q 1894 -91 1617 61 
Q 1341 213 1159 525 
L 1159 0 
L 581 0 
L 581 4863 
L 1159 4863 
L 1159 2969 
z
" transform="scale(0.015625)"/>
      <path id="DejaVuSans-66" d="M 2375 4863 
L 2375 4384 
L 1825 4384 
Q 1516 4384 1395 4259 
Q 1275 4134 1275 3809 
L 1275 3500 
L 2222 3500 
L 2222 3053 
L 1275 3053 
L 1275 0 
L 697 0 
L 697 3053 
L 147 3053 
L 147 3500 
L 697 3500 
L 697 3744 
Q 697 4328 969 4595 
Q 1241 4863 1831 4863 
L 2375 4863 
z
" transform="scale(0.015625)"/>
     </defs>
     <use xlink:href="#DejaVuSans-50"/>
     <use xlink:href="#DejaVuSans-6f" x="56.677734"/>
     <use xlink:href="#DejaVuSans-70" x="117.859375"/>
     <use xlink:href="#DejaVuSans-75" x="181.335938"/>
     <use xlink:href="#DejaVuSans-6c" x="244.714844"/>
     <use xlink:href="#DejaVuSans-61" x="272.498047"/>
     <use xlink:href="#DejaVuSans-74" x="333.777344"/>
     <use xlink:href="#DejaVuSans-69" x="372.986328"/>
     <use xlink:href="#DejaVuSans-6f" x="400.769531"/>
     <use xlink:href="#DejaVuSans-6e" x="461.951172"/>
     <use xlink:href="#DejaVuSans-27" x="525.330078"/>
     <use xlink:href="#DejaVuSans-73" x="552.820312"/>
     <use xlink:href="#DejaVuSans-20" x="604.919922"/>
     <use xlink:href="#DejaVuSans-61" x="636.707031"/>
     <use xlink:href="#DejaVuSans-76" x="697.986328"/>
     <use xlink:href="#DejaVuSans-65" x="757.166016"/>
     <use xlink:href="#DejaVuSans-72" x="818.689453"/>
     <use xlink:href="#DejaVuSans-61" x="859.802734"/>
     <use xlink:href="#DejaVuSans-67" x="921.082031"/>
     <use xlink:href="#DejaVuSans-65" x="984.558594"/>
     <use xlink:href="#DejaVuSans-20" x="1046.082031"/>
     <use xlink:href="#DejaVuSans-61" x="1077.869141"/>
     <use xlink:href="#DejaVuSans-6e" x="1139.148438"/>
     <use xlink:href="#DejaVuSans-64" x="1202.527344"/>
     <use xlink:href="#DejaVuSans-20" x="1266.003906"/>
     <use xlink:href="#DejaVuSans-62" x="1297.791016"/>
     <use xlink:href="#DejaVuSans-65" x="1361.267578"/>
     <use xlink:href="#DejaVuSans-73" x="1422.791016"/>
     <use xlink:href="#DejaVuSans-74" x="1474.890625"/>
     <use xlink:href="#DejaVuSans-20" x="1514.099609"/>
     <use xlink:href="#DejaVuSans-66" x="1545.886719"/>
     <use xlink:href="#DejaVuSans-69" x="1581.091797"/>
     <use xlink:href="#DejaVuSans-74" x="1608.875"/>
     <use xlink:href="#DejaVuSans-6e" x="1648.083984"/>
     <use xlink:href="#DejaVuSans-65" x="1711.462891"/>
     <use xlink:href="#DejaVuSans-73" x="1772.986328"/>
     <use xlink:href="#DejaVuSans-73" x="1825.085938"/>
    </g>
   </g>
   <g id="legend_1">
    <g id="patch_7">
     <path d="M 64.6 302.584 
L 137.540625 302.584 
Q 139.540625 302.584 139.540625 300.584 
L 139.540625 257.549625 
Q 139.540625 255.549625 137.540625 255.549625 
L 64.6 255.549625 
Q 62.6 255.549625 62.6 257.549625 
L 62.6 300.584 
Q 62.6 302.584 64.6 302.584 
z
" style="fill: #ffffff; opacity: 0.8; stroke: #cccccc; stroke-linejoin: miter"/>
    </g>
    <g id="line2d_30">
     <path d="M 66.6 263.648062 
L 76.6 263.648062 
L 86.6 263.648062 
" style="fill: none; stroke: #0000ff; stroke-width: 1.5; stroke-linecap: square"/>
    </g>
    <g id="text_17">
     <!-- average -->
     <g transform="translate(94.6 267.148062)scale(0.1 -0.1)">
      <use xlink:href="#DejaVuSans-61"/>
      <use xlink:href="#DejaVuSans-76" x="61.279297"/>
      <use xlink:href="#DejaVuSans-65" x="120.458984"/>
      <use xlink:href="#DejaVuSans-72" x="181.982422"/>
      <use xlink:href="#DejaVuSans-61" x="223.095703"/>
      <use xlink:href="#DejaVuSans-67" x="284.375"/>
      <use xlink:href="#DejaVuSans-65" x="347.851562"/>
     </g>
    </g>
    <g id="line2d_31">
     <path d="M 66.6 278.326188 
L 76.6 278.326188 
L 86.6 278.326188 
" style="fill: none; stroke-dasharray: 9.6,2.4,1.5,2.4; stroke-dashoffset: 0; stroke: #008000; stroke-width: 1.5"/>
    </g>
    <g id="text_18">
     <!-- +1 sd -->
     <g transform="translate(94.6 281.826188)scale(0.1 -0.1)">
      <defs>
       <path id="DejaVuSans-2b" d="M 2944 4013 
L 2944 2272 
L 4684 2272 
L 4684 1741 
L 2944 1741 
L 2944 0 
L 2419 0 
L 2419 1741 
L 678 1741 
L 678 2272 
L 2419 2272 
L 2419 4013 
L 2944 4013 
z
" transform="scale(0.015625)"/>
      </defs>
      <use xlink:href="#DejaVuSans-2b"/>
      <use xlink:href="#DejaVuSans-31" x="83.789062"/>
      <use xlink:href="#DejaVuSans-20" x="147.412109"/>
      <use xlink:href="#DejaVuSans-73" x="179.199219"/>
      <use xlink:href="#DejaVuSans-64" x="231.298828"/>
     </g>
    </g>
    <g id="line2d_32">
     <path d="M 66.6 293.004312 
L 76.6 293.004312 
L 86.6 293.004312 
" style="fill: none; stroke: #ff0000; stroke-width: 1.5; stroke-linecap: square"/>
    </g>
    <g id="text_19">
     <!-- best -->
     <g transform="translate(94.6 296.504312)scale(0.1 -0.1)">
      <use xlink:href="#DejaVuSans-62"/>
      <use xlink:href="#DejaVuSans-65" x="63.476562"/>
      <use xlink:href="#DejaVuSans-73" x="125"/>
      <use xlink:href="#DejaVuSans-74" x="177.099609"/>
     </g>
    </g>
   </g>
  </g>
 </g>
 <defs>
  <clipPath id="p8f20dd4f30">
   <rect x="57.6" y="41.472" width="357.12" height="266.112"/>
  </clipPath>
 </defs>
</svg>
