<?xml version="1.0" encoding="utf-8" standalone="no"?>
<!DOCTYPE svg PUBLIC "-//W3C//DTD SVG 1.1//EN"
  "http://www.w3.org/Graphics/SVG/1.1/DTD/svg11.dtd">
<svg xmlns:xlink="http://www.w3.org/1999/xlink" width="460.8pt" height="345.6pt" viewBox="0 0 460.8 345.6" xmlns="http://www.w3.org/2000/svg" version="1.1">
 <metadata>
  <rdf:RDF xmlns:dc="http://purl.org/dc/elements/1.1/" xmlns:cc="http://creativecommons.org/ns#" xmlns:rdf="http://www.w3.org/1999/02/22-rdf-syntax-ns#">
   <cc:Work>
    <dc:type rdf:resource="http://purl.org/dc/dcmitype/StillImage"/>
    <dc:date>2022-11-09T15:08:29.714184</dc:date>
    <dc:format>image/svg+xml</dc:format>
    <dc:creator>
     <cc:Agent>
      <dc:title>Matplotlib v3.5.3, https://matplotlib.org/</dc:title>
     </cc:Agent>
    </dc:creator>
   </cc:Work>
  </rdf:RDF>
 </metadata>
 <defs>
  <style type="text/css">*{stroke-linejoin: round; stroke-linecap: butt}</style>
 </defs>
 <g id="figure_1">
  <g id="patch_1">
   <path d="M 0 345.6 
L 460.8 345.6 
L 460.8 0 
L 0 0 
z
" style="fill: #ffffff"/>
  </g>
  <g id="axes_1">
   <g id="patch_2">
    <path d="M 57.6 307.584 
L 414.72 307.584 
L 414.72 41.472 
L 57.6 41.472 
z
" style="fill: #ffffff"/>
   </g>
   <g id="matplotlib.axis_1">
    <g id="xtick_1">
     <g id="line2d_1">
      <path d="M 73.832727 307.584 
L 73.832727 41.472 
" clip-path="url(#pd40bc6138e)" style="fill: none; stroke: #b0b0b0; stroke-width: 0.8; stroke-linecap: square"/>
     </g>
     <g id="line2d_2">
      <defs>
       <path id="mccc7402052" d="M 0 0 
L 0 3.5 
" style="stroke: #000000; stroke-width: 0.8"/>
      </defs>
      <g>
       <use xlink:href="#mccc7402052" x="73.832727" y="307.584" style="stroke: #000000; stroke-width: 0.8"/>
      </g>
     </g>
     <g id="text_1">
      <!-- 0 -->
      <g transform="translate(70.651477 322.182437)scale(0.1 -0.1)">
       <defs>
        <path id="DejaVuSans-30" d="M 2034 4250 
Q 1547 4250 1301 3770 
Q 1056 3291 1056 2328 
Q 1056 1369 1301 889 
Q 1547 409 2034 409 
Q 2525 409 2770 889 
Q 3016 1369 3016 2328 
Q 3016 3291 2770 3770 
Q 2525 4250 2034 4250 
z
M 2034 4750 
Q 2819 4750 3233 4129 
Q 3647 3509 3647 2328 
Q 3647 1150 3233 529 
Q 2819 -91 2034 -91 
Q 1250 -91 836 529 
Q 422 1150 422 2328 
Q 422 3509 836 4129 
Q 1250 4750 2034 4750 
z
" transform="scale(0.015625)"/>
       </defs>
       <use xlink:href="#DejaVuSans-30"/>
      </g>
     </g>
    </g>
    <g id="xtick_2">
     <g id="line2d_3">
      <path d="M 120.145787 307.584 
L 120.145787 41.472 
" clip-path="url(#pd40bc6138e)" style="fill: none; stroke: #b0b0b0; stroke-width: 0.8; stroke-linecap: square"/>
     </g>
     <g id="line2d_4">
      <g>
       <use xlink:href="#mccc7402052" x="120.145787" y="307.584" style="stroke: #000000; stroke-width: 0.8"/>
      </g>
     </g>
     <g id="text_2">
      <!-- 200 -->
      <g transform="translate(110.602037 322.182437)scale(0.1 -0.1)">
       <defs>
        <path id="DejaVuSans-32" d="M 1228 531 
L 3431 531 
L 3431 0 
L 469 0 
L 469 531 
Q 828 903 1448 1529 
Q 2069 2156 2228 2338 
Q 2531 2678 2651 2914 
Q 2772 3150 2772 3378 
Q 2772 3750 2511 3984 
Q 2250 4219 1831 4219 
Q 1534 4219 1204 4116 
Q 875 4013 500 3803 
L 500 4441 
Q 881 4594 1212 4672 
Q 1544 4750 1819 4750 
Q 2544 4750 2975 4387 
Q 3406 4025 3406 3419 
Q 3406 3131 3298 2873 
Q 3191 2616 2906 2266 
Q 2828 2175 2409 1742 
Q 1991 1309 1228 531 
z
" transform="scale(0.015625)"/>
       </defs>
       <use xlink:href="#DejaVuSans-32"/>
       <use xlink:href="#DejaVuSans-30" x="63.623047"/>
       <use xlink:href="#DejaVuSans-30" x="127.246094"/>
      </g>
     </g>
    </g>
    <g id="xtick_3">
     <g id="line2d_5">
      <path d="M 166.458846 307.584 
L 166.458846 41.472 
" clip-path="url(#pd40bc6138e)" style="fill: none; stroke: #b0b0b0; stroke-width: 0.8; stroke-linecap: square"/>
     </g>
     <g id="line2d_6">
      <g>
       <use xlink:href="#mccc7402052" x="166.458846" y="307.584" style="stroke: #000000; stroke-width: 0.8"/>
      </g>
     </g>
     <g id="text_3">
      <!-- 400 -->
      <g transform="translate(156.915096 322.182437)scale(0.1 -0.1)">
       <defs>
        <path id="DejaVuSans-34" d="M 2419 4116 
L 825 1625 
L 2419 1625 
L 2419 4116 
z
M 2253 4666 
L 3047 4666 
L 3047 1625 
L 3713 1625 
L 3713 1100 
L 3047 1100 
L 3047 0 
L 2419 0 
L 2419 1100 
L 313 1100 
L 313 1709 
L 2253 4666 
z
" transform="scale(0.015625)"/>
       </defs>
       <use xlink:href="#DejaVuSans-34"/>
       <use xlink:href="#DejaVuSans-30" x="63.623047"/>
       <use xlink:href="#DejaVuSans-30" x="127.246094"/>
      </g>
     </g>
    </g>
    <g id="xtick_4">
     <g id="line2d_7">
      <path d="M 212.771905 307.584 
L 212.771905 41.472 
" clip-path="url(#pd40bc6138e)" style="fill: none; stroke: #b0b0b0; stroke-width: 0.8; stroke-linecap: square"/>
     </g>
     <g id="line2d_8">
      <g>
       <use xlink:href="#mccc7402052" x="212.771905" y="307.584" style="stroke: #000000; stroke-width: 0.8"/>
      </g>
     </g>
     <g id="text_4">
      <!-- 600 -->
      <g transform="translate(203.228155 322.182437)scale(0.1 -0.1)">
       <defs>
        <path id="DejaVuSans-36" d="M 2113 2584 
Q 1688 2584 1439 2293 
Q 1191 2003 1191 1497 
Q 1191 994 1439 701 
Q 1688 409 2113 409 
Q 2538 409 2786 701 
Q 3034 994 3034 1497 
Q 3034 2003 2786 2293 
Q 2538 2584 2113 2584 
z
M 3366 4563 
L 3366 3988 
Q 3128 4100 2886 4159 
Q 2644 4219 2406 4219 
Q 1781 4219 1451 3797 
Q 1122 3375 1075 2522 
Q 1259 2794 1537 2939 
Q 1816 3084 2150 3084 
Q 2853 3084 3261 2657 
Q 3669 2231 3669 1497 
Q 3669 778 3244 343 
Q 2819 -91 2113 -91 
Q 1303 -91 875 529 
Q 447 1150 447 2328 
Q 447 3434 972 4092 
Q 1497 4750 2381 4750 
Q 2619 4750 2861 4703 
Q 3103 4656 3366 4563 
z
" transform="scale(0.015625)"/>
       </defs>
       <use xlink:href="#DejaVuSans-36"/>
       <use xlink:href="#DejaVuSans-30" x="63.623047"/>
       <use xlink:href="#DejaVuSans-30" x="127.246094"/>
      </g>
     </g>
    </g>
    <g id="xtick_5">
     <g id="line2d_9">
      <path d="M 259.084964 307.584 
L 259.084964 41.472 
" clip-path="url(#pd40bc6138e)" style="fill: none; stroke: #b0b0b0; stroke-width: 0.8; stroke-linecap: square"/>
     </g>
     <g id="line2d_10">
      <g>
       <use xlink:href="#mccc7402052" x="259.084964" y="307.584" style="stroke: #000000; stroke-width: 0.8"/>
      </g>
     </g>
     <g id="text_5">
      <!-- 800 -->
      <g transform="translate(249.541214 322.182437)scale(0.1 -0.1)">
       <defs>
        <path id="DejaVuSans-38" d="M 2034 2216 
Q 1584 2216 1326 1975 
Q 1069 1734 1069 1313 
Q 1069 891 1326 650 
Q 1584 409 2034 409 
Q 2484 409 2743 651 
Q 3003 894 3003 1313 
Q 3003 1734 2745 1975 
Q 2488 2216 2034 2216 
z
M 1403 2484 
Q 997 2584 770 2862 
Q 544 3141 544 3541 
Q 544 4100 942 4425 
Q 1341 4750 2034 4750 
Q 2731 4750 3128 4425 
Q 3525 4100 3525 3541 
Q 3525 3141 3298 2862 
Q 3072 2584 2669 2484 
Q 3125 2378 3379 2068 
Q 3634 1759 3634 1313 
Q 3634 634 3220 271 
Q 2806 -91 2034 -91 
Q 1263 -91 848 271 
Q 434 634 434 1313 
Q 434 1759 690 2068 
Q 947 2378 1403 2484 
z
M 1172 3481 
Q 1172 3119 1398 2916 
Q 1625 2713 2034 2713 
Q 2441 2713 2670 2916 
Q 2900 3119 2900 3481 
Q 2900 3844 2670 4047 
Q 2441 4250 2034 4250 
Q 1625 4250 1398 4047 
Q 1172 3844 1172 3481 
z
" transform="scale(0.015625)"/>
       </defs>
       <use xlink:href="#DejaVuSans-38"/>
       <use xlink:href="#DejaVuSans-30" x="63.623047"/>
       <use xlink:href="#DejaVuSans-30" x="127.246094"/>
      </g>
     </g>
    </g>
    <g id="xtick_6">
     <g id="line2d_11">
      <path d="M 305.398024 307.584 
L 305.398024 41.472 
" clip-path="url(#pd40bc6138e)" style="fill: none; stroke: #b0b0b0; stroke-width: 0.8; stroke-linecap: square"/>
     </g>
     <g id="line2d_12">
      <g>
       <use xlink:href="#mccc7402052" x="305.398024" y="307.584" style="stroke: #000000; stroke-width: 0.8"/>
      </g>
     </g>
     <g id="text_6">
      <!-- 1000 -->
      <g transform="translate(292.673024 322.182437)scale(0.1 -0.1)">
       <defs>
        <path id="DejaVuSans-31" d="M 794 531 
L 1825 531 
L 1825 4091 
L 703 3866 
L 703 4441 
L 1819 4666 
L 2450 4666 
L 2450 531 
L 3481 531 
L 3481 0 
L 794 0 
L 794 531 
z
" transform="scale(0.015625)"/>
       </defs>
       <use xlink:href="#DejaVuSans-31"/>
       <use xlink:href="#DejaVuSans-30" x="63.623047"/>
       <use xlink:href="#DejaVuSans-30" x="127.246094"/>
       <use xlink:href="#DejaVuSans-30" x="190.869141"/>
      </g>
     </g>
    </g>
    <g id="xtick_7">
     <g id="line2d_13">
      <path d="M 351.711083 307.584 
L 351.711083 41.472 
" clip-path="url(#pd40bc6138e)" style="fill: none; stroke: #b0b0b0; stroke-width: 0.8; stroke-linecap: square"/>
     </g>
     <g id="line2d_14">
      <g>
       <use xlink:href="#mccc7402052" x="351.711083" y="307.584" style="stroke: #000000; stroke-width: 0.8"/>
      </g>
     </g>
     <g id="text_7">
      <!-- 1200 -->
      <g transform="translate(338.986083 322.182437)scale(0.1 -0.1)">
       <use xlink:href="#DejaVuSans-31"/>
       <use xlink:href="#DejaVuSans-32" x="63.623047"/>
       <use xlink:href="#DejaVuSans-30" x="127.246094"/>
       <use xlink:href="#DejaVuSans-30" x="190.869141"/>
      </g>
     </g>
    </g>
    <g id="xtick_8">
     <g id="line2d_15">
      <path d="M 398.024142 307.584 
L 398.024142 41.472 
" clip-path="url(#pd40bc6138e)" style="fill: none; stroke: #b0b0b0; stroke-width: 0.8; stroke-linecap: square"/>
     </g>
     <g id="line2d_16">
      <g>
       <use xlink:href="#mccc7402052" x="398.024142" y="307.584" style="stroke: #000000; stroke-width: 0.8"/>
      </g>
     </g>
     <g id="text_8">
      <!-- 1400 -->
      <g transform="translate(385.299142 322.182437)scale(0.1 -0.1)">
       <use xlink:href="#DejaVuSans-31"/>
       <use xlink:href="#DejaVuSans-34" x="63.623047"/>
       <use xlink:href="#DejaVuSans-30" x="127.246094"/>
       <use xlink:href="#DejaVuSans-30" x="190.869141"/>
      </g>
     </g>
    </g>
   </g>
   <g id="matplotlib.axis_2">
    <g id="ytick_1">
     <g id="line2d_17">
      <path d="M 57.6 299.41862 
L 414.72 299.41862 
" clip-path="url(#pd40bc6138e)" style="fill: none; stroke: #b0b0b0; stroke-width: 0.8; stroke-linecap: square"/>
     </g>
     <g id="line2d_18">
      <defs>
       <path id="mdea738d556" d="M 0 0 
L -3.5 0 
" style="stroke: #000000; stroke-width: 0.8"/>
      </defs>
      <g>
       <use xlink:href="#mdea738d556" x="57.6" y="299.41862" style="stroke: #000000; stroke-width: 0.8"/>
      </g>
     </g>
     <g id="text_9">
      <!-- −1000 -->
      <g transform="translate(16.770313 303.217838)scale(0.1 -0.1)">
       <defs>
        <path id="DejaVuSans-2212" d="M 678 2272 
L 4684 2272 
L 4684 1741 
L 678 1741 
L 678 2272 
z
" transform="scale(0.015625)"/>
       </defs>
       <use xlink:href="#DejaVuSans-2212"/>
       <use xlink:href="#DejaVuSans-31" x="83.789062"/>
       <use xlink:href="#DejaVuSans-30" x="147.412109"/>
       <use xlink:href="#DejaVuSans-30" x="211.035156"/>
       <use xlink:href="#DejaVuSans-30" x="274.658203"/>
      </g>
     </g>
    </g>
    <g id="ytick_2">
     <g id="line2d_19">
      <path d="M 57.6 243.543479 
L 414.72 243.543479 
" clip-path="url(#pd40bc6138e)" style="fill: none; stroke: #b0b0b0; stroke-width: 0.8; stroke-linecap: square"/>
     </g>
     <g id="line2d_20">
      <g>
       <use xlink:href="#mdea738d556" x="57.6" y="243.543479" style="stroke: #000000; stroke-width: 0.8"/>
      </g>
     </g>
     <g id="text_10">
      <!-- −500 -->
      <g transform="translate(23.132812 247.342698)scale(0.1 -0.1)">
       <defs>
        <path id="DejaVuSans-35" d="M 691 4666 
L 3169 4666 
L 3169 4134 
L 1269 4134 
L 1269 2991 
Q 1406 3038 1543 3061 
Q 1681 3084 1819 3084 
Q 2600 3084 3056 2656 
Q 3513 2228 3513 1497 
Q 3513 744 3044 326 
Q 2575 -91 1722 -91 
Q 1428 -91 1123 -41 
Q 819 9 494 109 
L 494 744 
Q 775 591 1075 516 
Q 1375 441 1709 441 
Q 2250 441 2565 725 
Q 2881 1009 2881 1497 
Q 2881 1984 2565 2268 
Q 2250 2553 1709 2553 
Q 1456 2553 1204 2497 
Q 953 2441 691 2322 
L 691 4666 
z
" transform="scale(0.015625)"/>
       </defs>
       <use xlink:href="#DejaVuSans-2212"/>
       <use xlink:href="#DejaVuSans-35" x="83.789062"/>
       <use xlink:href="#DejaVuSans-30" x="147.412109"/>
       <use xlink:href="#DejaVuSans-30" x="211.035156"/>
      </g>
     </g>
    </g>
    <g id="ytick_3">
     <g id="line2d_21">
      <path d="M 57.6 187.668338 
L 414.72 187.668338 
" clip-path="url(#pd40bc6138e)" style="fill: none; stroke: #b0b0b0; stroke-width: 0.8; stroke-linecap: square"/>
     </g>
     <g id="line2d_22">
      <g>
       <use xlink:href="#mdea738d556" x="57.6" y="187.668338" style="stroke: #000000; stroke-width: 0.8"/>
      </g>
     </g>
     <g id="text_11">
      <!-- 0 -->
      <g transform="translate(44.2375 191.467557)scale(0.1 -0.1)">
       <use xlink:href="#DejaVuSans-30"/>
      </g>
     </g>
    </g>
    <g id="ytick_4">
     <g id="line2d_23">
      <path d="M 57.6 131.793197 
L 414.72 131.793197 
" clip-path="url(#pd40bc6138e)" style="fill: none; stroke: #b0b0b0; stroke-width: 0.8; stroke-linecap: square"/>
     </g>
     <g id="line2d_24">
      <g>
       <use xlink:href="#mdea738d556" x="57.6" y="131.793197" style="stroke: #000000; stroke-width: 0.8"/>
      </g>
     </g>
     <g id="text_12">
      <!-- 500 -->
      <g transform="translate(31.5125 135.592416)scale(0.1 -0.1)">
       <use xlink:href="#DejaVuSans-35"/>
       <use xlink:href="#DejaVuSans-30" x="63.623047"/>
       <use xlink:href="#DejaVuSans-30" x="127.246094"/>
      </g>
     </g>
    </g>
    <g id="ytick_5">
     <g id="line2d_25">
      <path d="M 57.6 75.918056 
L 414.72 75.918056 
" clip-path="url(#pd40bc6138e)" style="fill: none; stroke: #b0b0b0; stroke-width: 0.8; stroke-linecap: square"/>
     </g>
     <g id="line2d_26">
      <g>
       <use xlink:href="#mdea738d556" x="57.6" y="75.918056" style="stroke: #000000; stroke-width: 0.8"/>
      </g>
     </g>
     <g id="text_13">
      <!-- 1000 -->
      <g transform="translate(25.15 79.717275)scale(0.1 -0.1)">
       <use xlink:href="#DejaVuSans-31"/>
       <use xlink:href="#DejaVuSans-30" x="63.623047"/>
       <use xlink:href="#DejaVuSans-30" x="127.246094"/>
       <use xlink:href="#DejaVuSans-30" x="190.869141"/>
      </g>
     </g>
    </g>
   </g>
   <g id="line2d_27">
    <path d="M 73.832727 194.352819 
L 74.064293 191.010738 
L 74.295858 192.19667 
L 74.527423 189.063275 
L 74.758988 195.346818 
L 74.990554 190.418001 
L 75.222119 190.566612 
L 75.453684 188.737498 
L 75.68525 184.184471 
L 75.916815 191.1123 
L 76.14838 190.893826 
L 76.379946 192.085049 
L 76.611511 191.96253 
L 76.843076 192.260009 
L 77.074641 190.009352 
L 77.306207 185.077912 
L 77.537772 188.775139 
L 77.769337 179.699501 
L 78.000903 185.443656 
L 78.232468 186.928898 
L 78.695598 194.289759 
L 79.158729 190.270018 
L 79.390294 195.061756 
L 79.62186 190.915973 
L 79.853425 184.094787 
L 80.08499 188.533626 
L 80.316556 190.320801 
L 80.779686 190.976883 
L 81.011251 182.018559 
L 81.242817 188.715067 
L 81.705947 183.335186 
L 81.937513 190.152087 
L 82.169078 190.190187 
L 82.400643 189.635277 
L 82.632209 193.375262 
L 82.863774 188.819831 
L 83.095339 191.227586 
L 83.326904 187.319302 
L 83.55847 189.158114 
L 83.790035 189.137767 
L 84.0216 185.596748 
L 84.253166 191.109623 
L 84.484731 190.444362 
L 84.716296 191.326257 
L 84.947861 190.658429 
L 85.179427 197.287402 
L 85.410992 186.523412 
L 86.105688 190.299712 
L 86.337253 190.161352 
L 86.568819 191.254711 
L 86.800384 190.694898 
L 87.031949 190.606112 
L 87.263514 194.480895 
L 87.95821 183.802111 
L 88.189776 192.427695 
L 88.421341 188.708579 
L 88.652906 180.190089 
L 88.884472 189.802007 
L 89.116037 189.901712 
L 89.347602 189.619347 
L 89.579167 190.691828 
L 89.810733 190.140334 
L 90.273863 192.12895 
L 90.505429 189.966267 
L 90.736994 192.69459 
L 90.968559 189.482295 
L 91.200124 197.032354 
L 91.663255 184.950393 
L 91.89482 192.363803 
L 92.126386 188.215505 
L 92.357951 181.750785 
L 92.589516 190.149755 
L 92.821082 188.964225 
L 93.052647 190.78742 
L 93.284212 187.302231 
L 93.515777 188.801933 
L 93.747343 194.433432 
L 93.978908 189.786582 
L 94.210473 191.910818 
L 94.442039 189.926362 
L 94.673604 191.317676 
L 94.905169 188.737963 
L 95.136735 191.428828 
L 95.3683 188.173359 
L 95.599865 191.83277 
L 95.83143 188.971162 
L 96.062996 190.970827 
L 96.294561 188.525278 
L 96.526126 190.161364 
L 96.757692 186.990346 
L 97.220822 192.750998 
L 97.452387 184.738467 
L 97.683953 191.456614 
L 97.915518 191.416144 
L 98.147083 185.478114 
L 98.378649 189.559854 
L 98.610214 189.185594 
L 98.841779 190.44505 
L 99.073345 193.686862 
L 99.30491 190.118436 
L 99.76804 189.412675 
L 99.999606 190.539931 
L 100.462736 194.251352 
L 100.694302 193.223834 
L 100.925867 189.045149 
L 101.157432 191.448247 
L 101.388998 189.034091 
L 101.620563 190.279562 
L 101.852128 187.674132 
L 102.083693 189.825796 
L 102.315259 182.492606 
L 102.546824 194.489406 
L 102.778389 193.805448 
L 103.009955 195.247845 
L 103.24152 182.582473 
L 103.473085 191.585352 
L 103.70465 190.021931 
L 104.167781 191.154482 
L 104.399346 190.748667 
L 104.630912 189.27849 
L 105.325608 192.579105 
L 105.557173 188.685732 
L 105.788738 186.892291 
L 106.020303 190.620135 
L 106.251869 191.228249 
L 106.483434 187.706409 
L 106.714999 192.291721 
L 106.946565 187.540367 
L 107.409695 191.741032 
L 107.641261 190.030906 
L 107.872826 184.585692 
L 108.104391 189.369531 
L 108.567522 192.211727 
L 108.799087 185.712325 
L 109.030652 191.851481 
L 109.262218 189.215802 
L 109.725348 189.74382 
L 109.956914 186.61861 
L 110.188479 194.609397 
L 110.420044 184.437738 
L 110.651609 191.703519 
L 110.883175 191.805597 
L 111.11474 188.975145 
L 111.577871 190.095988 
L 111.809436 187.869533 
L 112.041001 190.837644 
L 112.272566 192.211104 
L 112.504132 196.246566 
L 112.735697 189.759751 
L 112.967262 189.899706 
L 113.198828 185.039285 
L 113.430393 189.383194 
L 113.661958 190.486054 
L 113.893524 190.518791 
L 114.125089 185.686792 
L 114.356654 190.50674 
L 114.588219 188.71461 
L 114.819785 190.576894 
L 115.05135 188.865727 
L 115.282915 185.181624 
L 115.746046 193.339822 
L 115.977611 184.30289 
L 116.209177 191.019591 
L 116.440742 187.231181 
L 116.672307 189.390845 
L 116.903872 186.45029 
L 117.135438 191.842336 
L 117.367003 188.311124 
L 117.598568 188.08677 
L 118.061699 194.748516 
L 118.293264 188.601022 
L 118.524829 190.430628 
L 118.756395 182.032505 
L 118.98796 184.003778 
L 119.219525 190.788444 
L 119.451091 193.249057 
L 119.682656 193.426221 
L 119.914221 191.461424 
L 120.145787 193.320139 
L 120.377352 189.417808 
L 120.608917 190.395474 
L 120.840482 188.945221 
L 121.072048 185.293819 
L 121.303613 190.752319 
L 121.535178 189.752132 
L 121.766744 189.537259 
L 121.998309 188.082718 
L 122.229874 185.582106 
L 122.46144 189.896549 
L 122.693005 191.829329 
L 122.92457 188.848129 
L 123.156135 194.09183 
L 123.619266 189.264273 
L 123.850831 191.725434 
L 124.082397 188.748744 
L 124.313962 188.511981 
L 124.545527 187.875435 
L 124.777092 197.70028 
L 125.008658 190.204761 
L 125.240223 186.863434 
L 125.471788 187.675147 
L 125.703354 192.14832 
L 125.934919 198.798011 
L 126.166484 189.594704 
L 126.39805 191.744077 
L 126.629615 191.863496 
L 127.092745 189.347596 
L 127.324311 189.713228 
L 127.555876 190.391882 
L 127.787441 193.052914 
L 128.019007 190.832274 
L 128.250572 193.680342 
L 128.482137 190.816755 
L 128.713703 190.234889 
L 128.945268 192.867282 
L 129.176833 185.091849 
L 129.408398 190.544225 
L 129.639964 199.471342 
L 130.103094 188.892919 
L 130.33466 190.912625 
L 130.566225 190.786783 
L 130.79779 191.326899 
L 131.029355 192.301279 
L 131.260921 189.840818 
L 131.492486 190.446237 
L 131.955617 190.375165 
L 132.187182 192.186052 
L 132.418747 183.980393 
L 132.650313 191.085012 
L 132.881878 189.631956 
L 133.113443 190.095964 
L 133.808139 188.155353 
L 134.039704 184.862245 
L 134.27127 190.742368 
L 134.502835 188.862379 
L 134.965966 191.870604 
L 135.197531 189.638136 
L 135.429096 193.624613 
L 135.660661 190.421352 
L 135.892227 190.532774 
L 136.123792 189.520898 
L 136.586923 192.567397 
L 136.818488 182.208416 
L 137.050053 190.349358 
L 137.281618 190.883979 
L 137.513184 186.134668 
L 137.744749 190.754923 
L 137.976314 191.27546 
L 138.20788 190.261161 
L 138.439445 192.320797 
L 138.67101 189.074303 
L 138.902576 188.258201 
L 139.134141 187.909671 
L 139.365706 189.230668 
L 139.597271 188.530469 
L 140.060402 192.751069 
L 140.291967 187.905934 
L 140.523533 190.433028 
L 140.755098 191.693975 
L 140.986663 189.525762 
L 141.218229 190.348254 
L 141.449794 189.620694 
L 141.681359 189.941647 
L 141.912924 187.312204 
L 142.14449 193.42343 
L 142.376055 186.703369 
L 142.60762 188.72886 
L 142.839186 188.263306 
L 143.070751 195.55076 
L 143.302316 194.476374 
L 143.533881 192.462943 
L 143.765447 193.002557 
L 143.997012 189.759802 
L 144.228577 190.288344 
L 144.460143 185.66121 
L 144.691708 190.785428 
L 145.154839 189.275845 
L 145.386404 190.042648 
L 145.617969 194.247868 
L 145.849534 190.154771 
L 146.312665 194.261573 
L 146.54423 190.254955 
L 146.775796 179.11313 
L 147.007361 189.609668 
L 147.470492 194.569413 
L 147.702057 183.253051 
L 148.165187 195.595853 
L 148.396753 194.873058 
L 148.628318 189.957093 
L 148.859883 189.816366 
L 149.554579 193.76963 
L 149.786144 187.503596 
L 150.01771 185.678886 
L 150.249275 186.008718 
L 150.48084 190.034952 
L 150.712406 190.690032 
L 150.943971 190.414198 
L 151.175536 187.237814 
L 151.407102 190.416722 
L 151.638667 182.434996 
L 151.870232 189.334216 
L 152.101797 190.136393 
L 152.333363 191.528382 
L 152.564928 191.195094 
L 152.796493 187.848869 
L 153.028059 189.836813 
L 153.259624 190.114582 
L 153.722755 191.640115 
L 153.95432 189.57214 
L 154.185885 183.836778 
L 154.41745 184.749171 
L 154.880581 194.284733 
L 155.112146 191.138031 
L 155.343712 193.343169 
L 155.575277 191.810534 
L 155.806842 191.845836 
L 156.038407 191.127395 
L 156.269973 189.019583 
L 156.501538 190.671639 
L 156.733103 190.357496 
L 156.964669 183.894881 
L 157.196234 190.59731 
L 157.427799 189.980253 
L 157.659365 191.092223 
L 157.89093 190.170479 
L 158.122495 192.458054 
L 158.35406 177.302128 
L 158.585626 191.426529 
L 159.048756 190.571802 
L 159.280322 184.899446 
L 159.743452 194.310795 
L 160.206583 185.033875 
L 160.438148 187.152459 
L 160.669713 191.920831 
L 160.901279 185.246772 
L 161.364409 189.450444 
L 161.595975 181.61158 
L 161.82754 185.470206 
L 162.059105 192.670928 
L 162.29067 189.349368 
L 162.753801 191.334537 
L 162.985366 192.943554 
L 163.216932 191.670638 
L 163.448497 186.161318 
L 163.680062 193.564288 
L 163.911628 191.040323 
L 164.143193 195.981864 
L 164.374758 188.64571 
L 164.606323 190.510153 
L 164.837889 187.263306 
L 165.069454 190.708092 
L 165.301019 190.46636 
L 165.532585 189.297539 
L 165.76415 189.866176 
L 165.995715 191.494158 
L 166.227281 189.890328 
L 166.458846 184.480491 
L 166.921976 192.376366 
L 167.153542 190.653369 
L 167.385107 191.740968 
L 167.616672 186.652923 
L 167.848238 186.626581 
L 168.079803 191.058014 
L 168.311368 189.468422 
L 168.542933 192.342977 
L 168.774499 191.365238 
L 169.006064 189.614714 
L 169.237629 191.211896 
L 169.469195 190.697535 
L 169.70076 190.628983 
L 169.932325 190.16605 
L 170.163891 188.152862 
L 170.395456 189.437645 
L 170.627021 183.148188 
L 170.858586 184.227896 
L 171.090152 193.063996 
L 171.321717 192.344349 
L 171.553282 188.679066 
L 171.784848 196.803092 
L 172.016413 189.666621 
L 172.247978 188.621962 
L 172.479544 185.786796 
L 172.711109 190.883064 
L 172.942674 189.915978 
L 173.174239 194.2888 
L 173.63737 187.875322 
L 173.868935 185.546976 
L 174.100501 190.653427 
L 174.332066 192.899537 
L 174.563631 192.057227 
L 174.795196 189.969165 
L 175.026762 197.488168 
L 175.258327 194.289242 
L 175.489892 195.423248 
L 175.721458 187.278402 
L 176.184588 190.740434 
L 176.416154 183.793246 
L 176.647719 194.968566 
L 176.879284 190.391526 
L 177.110849 190.003752 
L 177.57398 195.839284 
L 177.805545 190.354698 
L 178.037111 195.210915 
L 178.268676 190.686392 
L 178.500241 196.470433 
L 178.731807 190.586335 
L 178.963372 195.84864 
L 179.194937 190.533313 
L 179.426502 191.73576 
L 179.658068 191.6069 
L 179.889633 194.482543 
L 180.121198 187.022808 
L 180.352764 189.378045 
L 180.584329 189.013578 
L 180.815894 184.952586 
L 181.047459 183.805554 
L 181.279025 197.162387 
L 181.51059 191.246413 
L 181.742155 189.844003 
L 181.973721 190.533178 
L 182.205286 188.994292 
L 182.436851 189.406054 
L 182.668417 186.226995 
L 182.899982 191.099733 
L 183.131547 191.327563 
L 183.363112 189.311902 
L 183.594678 191.328782 
L 183.826243 189.258945 
L 184.057808 190.662122 
L 184.289374 190.947655 
L 184.520939 190.051052 
L 184.98407 195.484861 
L 185.4472 186.40065 
L 185.678765 190.893221 
L 185.910331 191.154015 
L 186.141896 190.608841 
L 186.373461 188.217311 
L 186.605027 190.317427 
L 186.836592 194.415605 
L 187.068157 191.780054 
L 187.299722 190.634006 
L 187.531288 190.415299 
L 187.762853 190.734821 
L 187.994418 190.301146 
L 188.225984 189.10513 
L 188.457549 188.584952 
L 188.689114 197.431027 
L 188.92068 190.487839 
L 189.152245 192.240811 
L 189.615375 189.263979 
L 189.846941 191.698414 
L 190.078506 190.646378 
L 190.310071 195.336154 
L 190.541637 188.068237 
L 190.773202 191.356294 
L 191.004767 189.015336 
L 191.236333 191.076899 
L 191.467898 189.339719 
L 191.699463 190.064316 
L 191.931028 190.114906 
L 192.162594 189.550558 
L 192.394159 190.505015 
L 192.625724 190.971222 
L 192.85729 189.686061 
L 193.088855 191.058455 
L 193.32042 189.192085 
L 193.551985 191.642259 
L 193.783551 186.436078 
L 194.015116 190.370371 
L 194.246681 188.223996 
L 194.478247 196.070068 
L 194.709812 185.991183 
L 194.941377 191.313781 
L 195.172943 189.737442 
L 195.404508 193.361755 
L 195.636073 190.695188 
L 195.867638 190.413715 
L 196.099204 183.860284 
L 196.562334 192.259098 
L 197.025465 190.83197 
L 197.25703 185.368289 
L 197.488596 189.406857 
L 197.720161 190.514855 
L 197.951726 189.449688 
L 198.183291 191.261494 
L 198.414857 185.596147 
L 198.646422 189.363506 
L 198.877987 186.312728 
L 199.109553 178.293179 
L 199.341118 192.734277 
L 199.572683 190.74089 
L 199.804248 190.124846 
L 200.035814 188.524466 
L 200.267379 189.938175 
L 200.498944 192.957217 
L 200.73051 188.385462 
L 200.962075 195.642558 
L 201.19364 190.066328 
L 201.425206 193.535785 
L 201.656771 190.727936 
L 201.888336 189.531595 
L 202.351467 194.897781 
L 202.583032 194.439115 
L 202.814597 190.141652 
L 203.046163 190.982941 
L 203.277728 191.087204 
L 203.509293 186.551185 
L 203.740859 186.183569 
L 204.435554 190.72053 
L 204.66712 195.66375 
L 204.898685 193.40077 
L 205.13025 192.470108 
L 205.361816 187.271444 
L 206.056511 195.042226 
L 206.519642 181.759207 
L 206.751207 190.903797 
L 207.214338 189.623411 
L 207.445903 190.989469 
L 207.677469 189.796337 
L 207.909034 192.709197 
L 208.140599 185.918344 
L 208.372164 196.958102 
L 208.835295 185.915892 
L 209.298426 193.925892 
L 209.529991 193.03752 
L 209.761556 192.945594 
L 209.993122 187.580471 
L 210.224687 190.935616 
L 210.456252 187.134507 
L 210.687817 188.225296 
L 210.919383 190.654127 
L 211.382513 185.675804 
L 211.614079 190.348217 
L 211.845644 189.547768 
L 212.077209 193.645395 
L 212.308774 190.221584 
L 212.54034 193.217908 
L 213.00347 189.076727 
L 213.235036 191.600456 
L 213.466601 188.259729 
L 213.929732 190.244971 
L 214.161297 190.051834 
L 214.392862 186.929659 
L 214.624427 196.08238 
L 214.855993 187.659372 
L 215.087558 191.659601 
L 215.319123 189.865156 
L 215.550689 195.328519 
L 216.013819 184.845307 
L 216.47695 191.403187 
L 216.708515 192.454053 
L 216.94008 198.37668 
L 217.403211 186.556534 
L 217.634776 195.034212 
L 217.866342 192.079625 
L 218.097907 183.956261 
L 218.329472 190.835268 
L 218.561037 191.01094 
L 218.792603 190.811943 
L 219.024168 194.310364 
L 219.255733 190.363537 
L 219.487299 190.95737 
L 219.718864 189.965801 
L 219.950429 189.499283 
L 220.181995 191.763039 
L 220.41356 190.669556 
L 220.645125 192.019949 
L 220.87669 192.442789 
L 221.108256 191.03911 
L 221.339821 195.368094 
L 221.571386 186.524135 
L 221.802952 184.845621 
L 222.034517 189.330835 
L 222.266082 191.229334 
L 222.497648 188.335443 
L 222.729213 191.390264 
L 222.960778 190.85545 
L 223.192343 189.823853 
L 223.423909 189.935764 
L 223.655474 190.400544 
L 223.887039 195.643727 
L 224.118605 191.433329 
L 224.35017 190.024679 
L 224.581735 191.779114 
L 224.8133 190.272922 
L 225.044866 193.718119 
L 225.276431 192.276217 
L 225.739562 185.184513 
L 225.971127 191.333049 
L 226.202692 188.716496 
L 226.434258 189.279183 
L 226.665823 185.07161 
L 226.897388 190.330384 
L 227.128953 191.195794 
L 227.360519 183.778844 
L 227.592084 191.465391 
L 227.823649 189.733252 
L 228.055215 190.808287 
L 228.28678 192.673585 
L 228.518345 188.912865 
L 228.749911 191.877502 
L 228.981476 188.669625 
L 229.213041 192.810159 
L 229.444606 190.383031 
L 229.676172 192.869118 
L 229.907737 192.60609 
L 230.370868 186.293717 
L 230.602433 190.006099 
L 230.833998 197.342623 
L 231.065563 190.140164 
L 231.297129 192.271903 
L 231.528694 192.847649 
L 231.760259 191.628203 
L 231.991825 185.924521 
L 232.22339 189.910031 
L 232.454955 188.213483 
L 232.686521 190.911059 
L 232.918086 190.967273 
L 233.149651 195.403205 
L 233.381216 190.756725 
L 233.612782 190.720783 
L 233.844347 192.359166 
L 234.075912 191.093426 
L 234.307478 190.452593 
L 234.770608 182.906179 
L 235.002174 193.482811 
L 235.233739 191.26259 
L 235.465304 190.622039 
L 235.696869 180.721566 
L 236.16 196.631881 
L 236.391565 186.631801 
L 236.623131 189.361737 
L 236.854696 185.611743 
L 237.086261 189.15051 
L 237.317826 187.89622 
L 237.549392 187.706212 
L 237.780957 192.192376 
L 238.012522 191.089949 
L 238.244088 185.302347 
L 238.707218 188.547181 
L 238.938784 193.517772 
L 239.170349 187.962649 
L 239.401914 192.195857 
L 239.633479 188.383435 
L 239.865045 194.283658 
L 240.09661 183.887833 
L 240.328175 188.278231 
L 240.559741 188.253169 
L 240.791306 186.6465 
L 241.022871 187.681085 
L 241.254437 186.10462 
L 241.486002 191.227205 
L 241.717567 188.070863 
L 241.949132 191.801032 
L 242.180698 189.815398 
L 242.412263 189.487928 
L 242.643828 182.243263 
L 242.875394 191.529799 
L 243.106959 188.164923 
L 243.338524 187.73632 
L 243.570089 191.643696 
L 244.03322 185.198073 
L 244.264785 187.545706 
L 244.496351 186.977489 
L 244.727916 187.002673 
L 245.191047 189.428808 
L 245.422612 195.052745 
L 245.654177 189.585367 
L 245.885742 187.727371 
L 246.117308 189.377673 
L 246.348873 187.709585 
L 246.580438 190.634364 
L 246.812004 186.898913 
L 247.043569 188.351988 
L 247.275134 192.006765 
L 247.5067 190.166861 
L 247.738265 183.008391 
L 247.96983 185.644604 
L 248.201395 196.143508 
L 248.432961 187.678992 
L 248.664526 188.102363 
L 248.896091 187.534942 
L 249.127657 187.54009 
L 249.359222 190.303116 
L 249.590787 190.248475 
L 249.822352 188.273318 
L 250.053918 191.840488 
L 250.285483 189.522964 
L 250.748614 191.60329 
L 250.980179 188.548404 
L 251.211744 187.2414 
L 251.44331 188.059868 
L 251.674875 190.4567 
L 251.90644 183.402566 
L 252.138005 190.220157 
L 252.369571 183.924027 
L 252.601136 189.070289 
L 252.832701 187.265998 
L 253.064267 189.39207 
L 253.295832 188.527157 
L 253.527397 188.24654 
L 253.758963 190.217179 
L 253.990528 188.41217 
L 254.222093 188.185205 
L 254.453658 188.890367 
L 254.685224 186.896602 
L 254.916789 191.19521 
L 255.148354 188.279726 
L 255.37992 188.260983 
L 255.611485 188.86485 
L 255.84305 188.970145 
L 256.537746 187.665849 
L 256.769311 188.201591 
L 257.232442 190.111504 
L 257.464007 185.061671 
L 257.927138 189.904425 
L 258.158703 190.165463 
L 258.621834 186.121776 
L 258.853399 179.519266 
L 259.084964 189.661999 
L 259.31653 191.424843 
L 259.548095 188.166764 
L 259.77966 190.382162 
L 260.011226 186.35541 
L 260.242791 189.694781 
L 260.474356 195.553892 
L 260.705921 192.146893 
L 260.937487 192.300352 
L 261.169052 187.990993 
L 261.400617 194.72384 
L 261.632183 188.403283 
L 261.863748 195.758119 
L 262.095313 188.3183 
L 262.326878 189.313363 
L 262.558444 224.296848 
L 262.790009 191.92028 
L 263.021574 191.483057 
L 263.25314 187.838116 
L 263.484705 188.302339 
L 263.71627 185.054469 
L 263.947836 188.910786 
L 264.410966 191.445109 
L 264.642531 188.8125 
L 264.874097 189.058313 
L 265.105662 187.682402 
L 265.337227 184.296389 
L 265.568793 189.868835 
L 265.800358 189.636735 
L 266.031923 187.669045 
L 266.263489 187.76072 
L 266.495054 188.224892 
L 266.958184 187.700049 
L 267.18975 188.356663 
L 267.421315 184.228813 
L 267.884446 190.239471 
L 268.116011 191.114303 
L 268.347576 188.282809 
L 268.579141 187.449314 
L 268.810707 189.17646 
L 269.042272 182.932725 
L 269.273837 188.150113 
L 269.505403 188.675299 
L 269.736968 191.387886 
L 269.968533 188.222664 
L 270.200099 188.255049 
L 270.431664 190.089771 
L 270.663229 187.857113 
L 270.894794 188.268197 
L 271.12636 189.435218 
L 271.357925 188.546979 
L 271.58949 190.508877 
L 272.052621 186.709238 
L 272.284186 187.77051 
L 272.515752 191.733938 
L 272.978882 185.817123 
L 273.210447 187.222946 
L 273.442013 190.221471 
L 273.673578 190.302417 
L 273.905143 191.119023 
L 274.136709 188.129255 
L 274.368274 193.486629 
L 274.599839 186.989172 
L 274.831404 188.615344 
L 275.06297 187.880532 
L 275.294535 188.329666 
L 275.5261 188.404755 
L 275.757666 187.682305 
L 275.989231 196.036824 
L 276.452362 183.270608 
L 276.683927 188.04167 
L 276.915492 189.411167 
L 277.147057 189.816037 
L 277.378623 191.073604 
L 277.610188 190.2598 
L 277.841753 189.915107 
L 278.073319 188.602477 
L 278.304884 191.612653 
L 278.768015 187.352553 
L 278.99958 187.341364 
L 279.231145 194.833726 
L 279.46271 188.926651 
L 279.694276 189.94319 
L 279.925841 186.265324 
L 280.157406 189.660254 
L 280.388972 189.422247 
L 280.852102 187.764109 
L 281.083667 189.081524 
L 281.315233 189.67374 
L 281.546798 181.545265 
L 282.009929 193.94847 
L 282.241494 188.996313 
L 282.473059 188.76329 
L 282.93619 189.693462 
L 283.167755 185.643468 
L 283.39932 191.954934 
L 283.630886 185.871786 
L 284.094016 190.630136 
L 284.325582 188.914494 
L 284.557147 188.870566 
L 284.788712 186.443129 
L 285.020278 186.164289 
L 285.483408 192.478759 
L 285.714973 188.696374 
L 285.946539 187.67847 
L 286.178104 193.832295 
L 286.409669 188.305158 
L 286.641235 190.208258 
L 286.8728 190.267463 
L 287.104365 190.828464 
L 287.33593 184.394057 
L 287.799061 190.908026 
L 288.030626 189.089814 
L 288.262192 189.076627 
L 288.493757 190.628443 
L 288.725322 188.657087 
L 288.956888 187.84071 
L 289.188453 190.220591 
L 289.420018 193.763015 
L 289.651583 191.609667 
L 289.883149 185.827053 
L 290.114714 187.868452 
L 290.346279 187.648579 
L 290.577845 188.822619 
L 290.80941 184.442198 
L 291.040975 188.098396 
L 291.272541 189.344776 
L 291.504106 191.727079 
L 291.735671 187.136916 
L 291.967236 189.431677 
L 292.198802 180.698004 
L 292.430367 186.753063 
L 292.661932 188.844377 
L 292.893498 184.480921 
L 293.125063 190.599982 
L 293.588193 186.478922 
L 293.819759 183.280109 
L 294.051324 191.565135 
L 294.282889 188.527051 
L 294.514455 190.546557 
L 294.74602 189.194141 
L 294.977585 196.860299 
L 295.209151 189.347114 
L 295.440716 188.994162 
L 295.672281 187.700807 
L 295.903846 189.643179 
L 296.135412 194.235469 
L 296.366977 192.082654 
L 296.598542 185.691786 
L 296.830108 190.094588 
L 297.061673 188.260018 
L 297.293238 188.896574 
L 297.524804 191.427233 
L 297.756369 188.23165 
L 297.987934 188.14022 
L 298.219499 191.117812 
L 298.451065 192.497238 
L 298.914195 185.1177 
L 299.145761 195.578823 
L 299.377326 187.707978 
L 299.608891 198.114663 
L 299.840456 179.808322 
L 300.072022 187.722854 
L 300.303587 188.810932 
L 300.535152 195.712268 
L 300.766718 189.633111 
L 300.998283 190.205426 
L 301.229848 195.944957 
L 301.461414 187.529997 
L 301.692979 187.638114 
L 301.924544 187.622176 
L 302.156109 188.860967 
L 302.387675 192.297023 
L 302.61924 192.077379 
L 302.850805 188.565745 
L 303.082371 187.799074 
L 303.313936 188.602088 
L 303.545501 190.308298 
L 303.777067 188.399859 
L 304.008632 183.512501 
L 304.471762 192.017829 
L 304.703328 188.726476 
L 304.934893 189.601087 
L 305.398024 189.335041 
L 305.629589 188.496704 
L 305.861154 188.903142 
L 306.092719 185.494201 
L 306.324285 186.706418 
L 306.55585 189.555971 
L 306.787415 190.444373 
L 307.018981 188.421982 
L 307.482111 188.718847 
L 307.713677 189.904638 
L 307.945242 189.689705 
L 308.176807 189.688762 
L 308.408372 187.496977 
L 308.639938 187.229079 
L 308.871503 188.197076 
L 309.103068 195.305654 
L 309.334634 183.069063 
L 309.566199 196.804264 
L 309.797764 189.02857 
L 310.02933 189.895863 
L 310.260895 181.597782 
L 310.49246 188.116244 
L 310.724025 188.291982 
L 310.955591 188.276669 
L 311.418721 190.430131 
L 311.650287 295.488 
L 311.881852 191.440368 
L 312.113417 188.887967 
L 312.344982 187.881438 
L 312.576548 189.304168 
L 312.808113 187.429864 
L 313.039678 187.680247 
L 313.271244 189.240686 
L 313.502809 188.649669 
L 313.734374 184.450214 
L 313.96594 193.904635 
L 314.197505 182.547382 
L 314.660635 195.82676 
L 314.892201 188.5401 
L 315.123766 188.751735 
L 315.355331 187.563954 
L 315.586897 190.390955 
L 316.050027 186.086921 
L 316.281593 191.367314 
L 316.513158 187.698484 
L 316.744723 188.025712 
L 317.207854 180.624437 
L 317.439419 187.78612 
L 317.670984 185.398981 
L 317.90255 188.836801 
L 318.134115 187.222805 
L 318.36568 188.21716 
L 318.597245 183.712108 
L 318.828811 189.160014 
L 319.060376 189.696545 
L 319.291941 188.91526 
L 319.523507 187.47287 
L 319.755072 193.628502 
L 319.986637 186.383988 
L 320.218203 185.977387 
L 320.449768 197.543084 
L 320.681333 188.186921 
L 320.912898 188.756422 
L 321.144464 188.980936 
L 321.376029 189.4383 
L 321.607594 196.179683 
L 321.83916 188.65284 
L 322.070725 186.533162 
L 322.533856 188.99586 
L 322.765421 185.87897 
L 322.996986 188.860643 
L 323.228551 187.734294 
L 323.460117 188.916615 
L 323.691682 191.539326 
L 323.923247 186.669099 
L 324.154813 189.945917 
L 324.617943 189.116827 
L 324.849508 189.45323 
L 325.081074 186.002164 
L 325.312639 191.398144 
L 325.77577 188.537408 
L 326.007335 190.380147 
L 326.2389 189.773141 
L 326.470466 188.465661 
L 326.702031 189.264899 
L 326.933596 188.393753 
L 327.165161 191.34252 
L 327.396727 187.877294 
L 327.628292 187.934275 
L 328.091423 189.324031 
L 328.322988 189.363806 
L 328.554553 186.390445 
L 328.786119 188.72016 
L 329.249249 190.498411 
L 329.480814 185.931605 
L 329.943945 192.580966 
L 330.17551 189.444848 
L 330.638641 187.66627 
L 330.870206 188.182213 
L 331.101771 189.180373 
L 331.333337 188.494963 
L 331.564902 189.33036 
L 331.796467 191.049392 
L 332.028033 188.847739 
L 332.259598 189.344971 
L 332.722729 187.692446 
L 332.954294 191.334501 
L 333.185859 186.993875 
L 333.417424 191.781401 
L 333.64899 187.89794 
L 333.880555 188.574657 
L 334.11212 187.97393 
L 334.343686 194.381067 
L 334.575251 187.984056 
L 334.806816 187.981632 
L 335.038382 190.220526 
L 335.269947 185.521347 
L 335.501512 187.704733 
L 335.964643 182.634813 
L 336.196208 188.451912 
L 336.427773 189.000648 
L 336.659339 192.804291 
L 336.890904 189.867185 
L 337.122469 192.680906 
L 337.354034 181.692366 
L 337.5856 192.161451 
L 337.817165 188.60905 
L 338.04873 191.83505 
L 338.280296 187.752492 
L 338.511861 189.523319 
L 338.743426 177.820567 
L 339.206557 193.712494 
L 339.438122 256.872502 
L 339.669687 188.652086 
L 339.901253 191.295372 
L 340.132818 187.691227 
L 340.364383 189.495634 
L 340.595949 188.010871 
L 340.827514 188.816551 
L 341.059079 196.588943 
L 341.290645 188.280159 
L 341.52221 193.73167 
L 341.753775 188.900764 
L 341.98534 189.461941 
L 342.216906 188.120179 
L 342.448471 191.600022 
L 342.680036 188.169777 
L 342.911602 189.475118 
L 343.143167 195.802976 
L 343.374732 192.86834 
L 343.606297 188.462868 
L 343.837863 188.578633 
L 344.069428 187.729949 
L 344.300993 190.992639 
L 344.532559 182.63962 
L 344.995689 189.668481 
L 345.227255 185.696262 
L 345.45882 189.168381 
L 345.690385 184.822671 
L 345.92195 188.529222 
L 346.153516 185.827346 
L 346.385081 187.881439 
L 346.616646 187.996304 
L 347.079777 194.464905 
L 347.311342 189.338069 
L 347.542908 189.588796 
L 347.774473 188.302865 
L 348.006038 189.057172 
L 348.237603 183.771939 
L 348.469169 189.941931 
L 348.700734 187.658291 
L 348.932299 188.780895 
L 349.163865 188.816121 
L 349.39543 193.948917 
L 349.626995 188.859981 
L 349.85856 188.596414 
L 350.090126 190.464058 
L 350.321691 188.862783 
L 350.784822 189.498461 
L 351.247952 184.579971 
L 351.479518 188.533235 
L 351.711083 188.818927 
L 351.942648 191.73295 
L 352.174213 188.198066 
L 352.405779 195.457766 
L 352.637344 188.028626 
L 352.868909 189.600614 
L 353.100475 186.370191 
L 353.563605 189.964867 
L 353.795171 186.519885 
L 354.026736 188.46657 
L 354.258301 188.85596 
L 354.489866 191.308666 
L 354.721432 187.233858 
L 354.952997 187.745037 
L 355.184562 183.214114 
L 355.416128 187.140291 
L 355.879258 191.202423 
L 356.110823 193.355039 
L 356.342389 190.22466 
L 356.805519 189.18992 
L 357.037085 184.120005 
L 357.26865 187.603541 
L 357.500215 185.363787 
L 357.731781 184.349587 
L 357.963346 188.059255 
L 358.426476 189.417293 
L 358.658042 185.975444 
L 358.889607 184.423163 
L 359.121172 189.464335 
L 359.352738 187.649727 
L 359.584303 189.743667 
L 359.815868 188.509027 
L 360.047434 187.952153 
L 360.278999 194.252338 
L 360.510564 189.205814 
L 360.742129 189.125113 
L 360.973695 190.570076 
L 361.20526 185.169682 
L 361.436825 194.000691 
L 361.899956 188.965996 
L 362.131521 187.392742 
L 362.363086 190.820961 
L 362.594652 188.556337 
L 362.826217 187.756087 
L 363.057782 193.67279 
L 363.289348 190.527147 
L 363.520913 189.710916 
L 363.752478 191.617549 
L 363.984044 186.916953 
L 364.215609 189.40528 
L 364.447174 187.627073 
L 364.678739 197.013472 
L 365.14187 189.398948 
L 365.373435 191.286662 
L 365.605001 185.757517 
L 365.836566 187.740163 
L 366.068131 187.934093 
L 366.299697 193.516029 
L 366.762827 185.159093 
L 366.994392 190.284379 
L 367.225958 187.717064 
L 367.457523 188.129537 
L 367.689088 189.785502 
L 367.920654 193.760985 
L 368.152219 188.273481 
L 368.383784 187.67475 
L 368.846915 190.693252 
L 369.310045 187.75076 
L 369.541611 187.085663 
L 370.004741 188.146301 
L 370.236307 192.322966 
L 370.467872 189.121439 
L 370.699437 188.251464 
L 370.931002 188.036392 
L 371.162568 190.975031 
L 371.394133 189.929639 
L 371.625698 188.119907 
L 371.857264 184.007872 
L 372.088829 188.769074 
L 372.320394 188.256244 
L 372.55196 186.690249 
L 372.783525 187.685717 
L 373.01509 180.594223 
L 373.246655 188.657437 
L 373.478221 187.974599 
L 373.709786 182.231453 
L 373.941351 190.730543 
L 374.172917 189.432191 
L 374.404482 189.355945 
L 374.636047 187.95264 
L 374.867613 188.00142 
L 375.099178 189.912933 
L 375.330743 187.900961 
L 375.562308 193.166703 
L 375.793874 188.296384 
L 376.025439 189.857905 
L 376.257004 187.919608 
L 376.48857 192.659021 
L 376.720135 190.710665 
L 376.9517 183.663636 
L 377.183265 187.708797 
L 377.646396 189.808016 
L 377.877961 188.761563 
L 378.341092 192.126244 
L 378.804223 183.691345 
L 379.035788 194.221095 
L 379.267353 193.213764 
L 379.498918 188.534214 
L 379.730484 189.084406 
L 379.962049 192.353695 
L 380.193614 186.82512 
L 380.42518 193.291423 
L 380.88831 185.083773 
L 381.351441 192.226359 
L 381.583006 188.210837 
L 381.814571 188.041196 
L 382.046137 188.458656 
L 382.277702 187.78995 
L 382.509267 191.477493 
L 382.972398 187.04677 
L 383.203963 189.331815 
L 383.435528 187.809006 
L 383.667094 194.017933 
L 383.898659 188.747886 
L 384.36179 185.668033 
L 384.593355 187.650098 
L 384.82492 187.753071 
L 385.056486 183.878622 
L 385.288051 187.741624 
L 385.519616 187.980028 
L 385.751181 183.447864 
L 386.445877 189.832198 
L 386.909008 187.435334 
L 387.140573 192.271807 
L 387.603704 188.849327 
L 387.835269 191.10818 
L 388.066834 189.408224 
L 388.2984 183.572254 
L 388.529965 188.33912 
L 388.76153 189.179757 
L 388.993096 191.649404 
L 389.224661 189.372996 
L 389.456226 189.214239 
L 389.687791 187.503382 
L 390.150922 181.75108 
L 390.382487 187.702229 
L 390.614053 189.130193 
L 390.845618 187.704401 
L 391.077183 189.373741 
L 391.308749 189.907899 
L 391.540314 188.568465 
L 391.771879 187.909794 
L 392.003444 188.705385 
L 392.23501 197.951901 
L 392.466575 189.093835 
L 392.69814 187.74601 
L 392.929706 187.573374 
L 393.161271 188.801363 
L 393.392836 187.957212 
L 393.624402 183.337799 
L 393.855967 190.299504 
L 394.319097 187.821161 
L 394.550663 195.659864 
L 394.782228 188.572882 
L 395.013793 188.071536 
L 395.245359 189.109611 
L 395.476924 188.218873 
L 395.708489 191.726156 
L 395.940054 191.354153 
L 396.17162 186.187759 
L 396.403185 188.033328 
L 396.63475 188.670315 
L 396.866316 187.961651 
L 397.097881 187.838037 
L 397.329446 186.826305 
L 397.561012 189.454801 
L 397.792577 182.192311 
L 398.024142 188.570919 
L 398.255707 189.206098 
L 398.487273 187.788191 
L 398.487273 187.788191 
" clip-path="url(#pd40bc6138e)" style="fill: none; stroke: #008000; stroke-width: 1.5; stroke-linecap: square"/>
   </g>
   <g id="line2d_28">
    <path d="M 73.832727 53.568 
L 77.074641 53.568 
L 77.306207 141.738972 
L 77.537772 53.568 
L 77.769337 53.568 
L 78.000903 181.410322 
L 78.232468 53.568 
L 81.474382 53.568 
L 81.705947 71.112794 
L 81.937513 53.568 
L 83.790035 53.568 
L 84.0216 78.600063 
L 84.253166 53.568 
L 88.421341 53.568 
L 88.652906 172.917301 
L 88.884472 53.568 
L 92.126386 53.568 
L 92.357951 82.958324 
L 92.589516 53.568 
L 97.220822 53.568 
L 97.452387 171.017546 
L 97.683953 53.568 
L 100.231171 53.568 
L 100.462736 114.918905 
L 100.694302 53.568 
L 102.083693 53.568 
L 102.315259 180.292819 
L 102.546824 53.568 
L 103.009955 53.568 
L 103.24152 72.565548 
L 103.473085 53.568 
L 106.714999 53.568 
L 106.946565 92.568848 
L 107.17813 53.568 
L 110.188479 53.568 
L 110.420044 163.865528 
L 110.651609 53.568 
L 113.893524 53.568 
L 114.125089 183.645328 
L 114.356654 53.568 
L 117.830134 53.568 
L 118.061699 84.411078 
L 118.293264 53.568 
L 118.524829 53.568 
L 118.98796 182.527825 
L 119.219525 53.568 
L 124.545527 53.568 
L 124.777092 86.087332 
L 125.008658 53.568 
L 126.166484 53.568 
L 126.39805 92.121847 
L 126.629615 53.568 
L 127.555876 53.568 
L 127.787441 160.62477 
L 128.019007 53.568 
L 129.408398 53.568 
L 129.639964 90.780844 
L 129.871529 53.568 
L 130.566225 53.568 
L 130.79779 181.522073 
L 131.029355 53.568 
L 132.187182 53.568 
L 132.418747 184.092329 
L 132.650313 53.568 
L 134.7344 53.568 
L 134.965966 166.882786 
L 135.197531 53.568 
L 135.660661 53.568 
L 135.892227 178.728315 
L 136.123792 53.568 
L 136.586923 53.568 
L 136.818488 152.355249 
L 137.050053 53.568 
L 144.228577 53.568 
L 144.460143 170.235294 
L 144.691708 53.568 
L 146.54423 53.568 
L 146.775796 74.130052 
L 147.007361 53.568 
L 147.238926 53.568 
L 147.470492 112.683899 
L 147.702057 126.429184 
L 147.933622 53.568 
L 151.407102 53.568 
L 151.638667 172.6938 
L 151.870232 53.568 
L 157.89093 53.568 
L 158.35406 123.188425 
L 158.585626 53.568 
L 159.048756 53.568 
L 159.280322 173.476052 
L 159.511887 53.568 
L 159.975018 53.568 
L 160.206583 145.761982 
L 160.438148 53.568 
L 161.364409 53.568 
L 161.595975 169.229542 
L 161.82754 53.568 
L 163.911628 53.568 
L 164.143193 177.946064 
L 164.374758 53.568 
L 166.458846 53.568 
L 166.690411 58.932014 
L 166.921976 53.568 
L 170.395456 53.568 
L 170.627021 125.982183 
L 170.858586 53.568 
L 171.090152 53.568 
L 171.321717 147.996988 
L 171.553282 53.568 
L 174.100501 53.568 
L 174.332066 107.655136 
L 174.563631 53.568 
L 176.184588 53.568 
L 176.416154 54.350252 
L 176.647719 53.568 
L 180.584329 53.568 
L 180.815894 82.846574 
L 181.047459 53.568 
L 182.436851 53.568 
L 182.668417 143.862228 
L 182.899982 53.568 
L 186.605027 53.568 
L 186.836592 109.331391 
L 187.068157 53.568 
L 190.078506 53.568 
L 190.310071 167.218036 
L 190.541637 53.568 
L 193.551985 53.568 
L 193.783551 71.336295 
L 194.015116 53.568 
L 196.330769 53.568 
L 196.562334 79.717566 
L 196.7939 53.568 
L 197.951726 53.568 
L 198.414857 163.977278 
L 198.646422 53.568 
L 200.267379 53.568 
L 200.498944 158.501515 
L 200.73051 53.568 
L 200.962075 73.45955 
L 201.19364 53.568 
L 202.351467 53.568 
L 202.583032 153.249251 
L 202.814597 53.568 
L 203.277728 53.568 
L 203.509293 95.362605 
L 203.740859 53.568 
L 205.824946 53.568 
L 206.056511 179.175317 
L 206.288077 53.568 
L 206.982773 53.568 
L 207.214338 164.200779 
L 207.445903 53.568 
L 208.60373 53.568 
L 208.835295 160.51302 
L 209.06686 53.568 
L 209.298426 137.604212 
L 209.761556 53.568 
L 209.993122 127.323186 
L 210.224687 53.568 
L 210.456252 139.056965 
L 210.687817 53.568 
L 211.150948 53.568 
L 211.382513 67.872036 
L 211.614079 53.568 
L 214.392862 53.568 
L 214.624427 160.62477 
L 214.855993 53.568 
L 216.94008 53.568 
L 217.171646 114.695404 
L 217.403211 53.568 
L 217.634776 164.53603 
L 217.866342 53.568 
L 223.655474 53.568 
L 223.887039 171.799798 
L 224.118605 53.568 
L 227.128953 53.568 
L 227.360519 129.781692 
L 227.592084 53.568 
L 230.139302 53.568 
L 230.370868 117.265661 
L 230.602433 53.568 
L 231.297129 53.568 
L 231.528694 172.135049 
L 231.760259 53.568 
L 232.918086 53.568 
L 233.149651 178.951816 
L 233.381216 93.909852 
L 233.612782 53.568 
L 234.539043 53.568 
L 234.770608 150.120243 
L 235.233739 53.568 
L 235.928435 53.568 
L 236.16 126.205683 
L 236.391565 53.568 
L 236.623131 53.568 
L 236.854696 166.547535 
L 237.086261 53.568 
L 240.09661 53.568 
L 240.328175 153.025751 
L 240.559741 53.568 
L 241.022871 53.568 
L 241.254437 147.996988 
L 241.486002 53.568 
L 243.801655 53.568 
L 244.03322 177.722563 
L 244.264785 53.568 
L 247.96983 53.568 
L 248.201395 156.154759 
L 248.432961 53.568 
L 249.822352 53.568 
L 250.053918 85.640331 
L 250.285483 53.568 
L 251.674875 53.568 
L 251.90644 78.264812 
L 252.138005 53.568 
L 252.601136 53.568 
L 252.832701 65.41353 
L 253.064267 53.568 
L 258.621834 53.568 
L 258.853399 136.486709 
L 259.084964 53.568 
L 262.790009 53.568 
L 263.021574 78.488313 
L 263.25314 53.568 
L 267.18975 53.568 
L 267.421315 181.857323 
L 267.65288 53.568 
L 268.810707 53.568 
L 269.042272 153.025751 
L 269.273837 53.568 
L 274.136709 53.568 
L 274.368274 127.881937 
L 274.599839 53.568 
L 278.99958 53.568 
L 279.231145 129.669942 
L 279.46271 53.568 
L 281.315233 53.568 
L 281.546798 153.919753 
L 281.778363 53.568 
L 283.862451 53.568 
L 284.094016 184.874581 
L 284.325582 53.568 
L 284.557147 53.568 
L 284.788712 86.646083 
L 285.020278 53.568 
L 291.272541 53.568 
L 291.504106 165.765283 
L 291.735671 53.568 
L 295.903846 53.568 
L 296.135412 54.462002 
L 296.366977 53.568 
L 296.598542 103.855627 
L 296.830108 53.568 
L 297.987934 53.568 
L 298.219499 112.125148 
L 298.451065 53.568 
L 299.377326 53.568 
L 299.608891 163.083276 
L 299.840456 89.886842 
L 300.072022 53.568 
L 300.998283 53.568 
L 301.229848 166.771035 
L 301.461414 53.568 
L 302.387675 53.568 
L 302.61924 120.394668 
L 302.850805 53.568 
L 308.871503 53.568 
L 309.103068 170.570545 
L 309.334634 53.568 
L 309.566199 128.664189 
L 309.797764 53.568 
L 313.734374 53.568 
L 313.96594 75.471055 
L 314.197505 170.682295 
L 314.42907 53.568 
L 316.976288 53.568 
L 317.207854 175.264057 
L 317.439419 53.568 
L 319.755072 53.568 
L 319.986637 176.269809 
L 320.218203 53.568 
L 321.376029 53.568 
L 321.607594 154.143254 
L 321.83916 53.568 
L 335.501512 53.568 
L 335.733077 73.906551 
L 335.964643 53.568 
L 338.511861 53.568 
L 338.743426 65.748781 
L 338.974992 53.568 
L 339.206557 135.816207 
L 339.438122 53.568 
L 341.290645 53.568 
L 341.52221 123.970677 
L 341.753775 53.568 
L 345.45882 53.568 
L 345.690385 161.742273 
L 345.92195 53.568 
L 348.006038 53.568 
L 348.237603 177.163812 
L 348.469169 53.568 
L 351.016387 53.568 
L 351.247952 80.946819 
L 351.479518 53.568 
L 351.711083 53.568 
L 351.942648 106.761134 
L 352.174213 53.568 
L 355.184562 53.568 
L 355.416128 174.481805 
L 355.647693 53.568 
L 360.047434 53.568 
L 360.278999 134.251703 
L 360.510564 53.568 
L 360.973695 53.568 
L 361.20526 112.683899 
L 361.436825 53.568 
L 364.447174 53.568 
L 364.678739 160.84827 
L 364.910305 53.568 
L 365.14187 75.247555 
L 365.373435 53.568 
L 366.068131 53.568 
L 366.299697 65.52528 
L 366.531262 53.568 
L 371.625698 53.568 
L 371.857264 138.386464 
L 372.088829 53.568 
L 373.478221 53.568 
L 373.709786 175.375807 
L 373.941351 53.568 
L 376.48857 53.568 
L 376.720135 149.784993 
L 376.9517 53.568 
L 378.572657 53.568 
L 378.804223 61.837521 
L 379.035788 53.568 
L 379.730484 53.568 
L 379.962049 79.382315 
L 380.193614 53.568 
L 385.751181 53.568 
L 385.982747 179.845818 
L 386.214312 53.568 
L 389.919357 53.568 
L 390.150922 113.1309 
L 390.382487 53.568 
L 398.255707 53.568 
L 398.487273 117.936162 
L 398.487273 117.936162 
" clip-path="url(#pd40bc6138e)" style="fill: none; stroke: #0000ff; stroke-width: 1.5; stroke-linecap: square"/>
   </g>
   <g id="patch_3">
    <path d="M 57.6 307.584 
L 57.6 41.472 
" style="fill: none; stroke: #000000; stroke-width: 0.8; stroke-linejoin: miter; stroke-linecap: square"/>
   </g>
   <g id="patch_4">
    <path d="M 414.72 307.584 
L 414.72 41.472 
" style="fill: none; stroke: #000000; stroke-width: 0.8; stroke-linejoin: miter; stroke-linecap: square"/>
   </g>
   <g id="patch_5">
    <path d="M 57.6 307.584 
L 414.72 307.584 
" style="fill: none; stroke: #000000; stroke-width: 0.8; stroke-linejoin: miter; stroke-linecap: square"/>
   </g>
   <g id="patch_6">
    <path d="M 57.6 41.472 
L 414.72 41.472 
" style="fill: none; stroke: #000000; stroke-width: 0.8; stroke-linejoin: miter; stroke-linecap: square"/>
   </g>
   <g id="legend_1">
    <g id="patch_7">
     <path d="M 64.6 302.584 
L 128.475 302.584 
Q 130.475 302.584 130.475 300.584 
L 130.475 272.22775 
Q 130.475 270.22775 128.475 270.22775 
L 64.6 270.22775 
Q 62.6 270.22775 62.6 272.22775 
L 62.6 300.584 
Q 62.6 302.584 64.6 302.584 
z
" style="fill: #ffffff; opacity: 0.8; stroke: #cccccc; stroke-linejoin: miter"/>
    </g>
    <g id="line2d_29">
     <path d="M 66.6 278.326187 
L 76.6 278.326187 
L 86.6 278.326187 
" style="fill: none; stroke: #008000; stroke-width: 1.5; stroke-linecap: square"/>
    </g>
    <g id="text_14">
     <!-- score -->
     <g transform="translate(94.6 281.826187)scale(0.1 -0.1)">
      <defs>
       <path id="DejaVuSans-73" d="M 2834 3397 
L 2834 2853 
Q 2591 2978 2328 3040 
Q 2066 3103 1784 3103 
Q 1356 3103 1142 2972 
Q 928 2841 928 2578 
Q 928 2378 1081 2264 
Q 1234 2150 1697 2047 
L 1894 2003 
Q 2506 1872 2764 1633 
Q 3022 1394 3022 966 
Q 3022 478 2636 193 
Q 2250 -91 1575 -91 
Q 1294 -91 989 -36 
Q 684 19 347 128 
L 347 722 
Q 666 556 975 473 
Q 1284 391 1588 391 
Q 1994 391 2212 530 
Q 2431 669 2431 922 
Q 2431 1156 2273 1281 
Q 2116 1406 1581 1522 
L 1381 1569 
Q 847 1681 609 1914 
Q 372 2147 372 2553 
Q 372 3047 722 3315 
Q 1072 3584 1716 3584 
Q 2034 3584 2315 3537 
Q 2597 3491 2834 3397 
z
" transform="scale(0.015625)"/>
       <path id="DejaVuSans-63" d="M 3122 3366 
L 3122 2828 
Q 2878 2963 2633 3030 
Q 2388 3097 2138 3097 
Q 1578 3097 1268 2742 
Q 959 2388 959 1747 
Q 959 1106 1268 751 
Q 1578 397 2138 397 
Q 2388 397 2633 464 
Q 2878 531 3122 666 
L 3122 134 
Q 2881 22 2623 -34 
Q 2366 -91 2075 -91 
Q 1284 -91 818 406 
Q 353 903 353 1747 
Q 353 2603 823 3093 
Q 1294 3584 2113 3584 
Q 2378 3584 2631 3529 
Q 2884 3475 3122 3366 
z
" transform="scale(0.015625)"/>
       <path id="DejaVuSans-6f" d="M 1959 3097 
Q 1497 3097 1228 2736 
Q 959 2375 959 1747 
Q 959 1119 1226 758 
Q 1494 397 1959 397 
Q 2419 397 2687 759 
Q 2956 1122 2956 1747 
Q 2956 2369 2687 2733 
Q 2419 3097 1959 3097 
z
M 1959 3584 
Q 2709 3584 3137 3096 
Q 3566 2609 3566 1747 
Q 3566 888 3137 398 
Q 2709 -91 1959 -91 
Q 1206 -91 779 398 
Q 353 888 353 1747 
Q 353 2609 779 3096 
Q 1206 3584 1959 3584 
z
" transform="scale(0.015625)"/>
       <path id="DejaVuSans-72" d="M 2631 2963 
Q 2534 3019 2420 3045 
Q 2306 3072 2169 3072 
Q 1681 3072 1420 2755 
Q 1159 2438 1159 1844 
L 1159 0 
L 581 0 
L 581 3500 
L 1159 3500 
L 1159 2956 
Q 1341 3275 1631 3429 
Q 1922 3584 2338 3584 
Q 2397 3584 2469 3576 
Q 2541 3569 2628 3553 
L 2631 2963 
z
" transform="scale(0.015625)"/>
       <path id="DejaVuSans-65" d="M 3597 1894 
L 3597 1613 
L 953 1613 
Q 991 1019 1311 708 
Q 1631 397 2203 397 
Q 2534 397 2845 478 
Q 3156 559 3463 722 
L 3463 178 
Q 3153 47 2828 -22 
Q 2503 -91 2169 -91 
Q 1331 -91 842 396 
Q 353 884 353 1716 
Q 353 2575 817 3079 
Q 1281 3584 2069 3584 
Q 2775 3584 3186 3129 
Q 3597 2675 3597 1894 
z
M 3022 2063 
Q 3016 2534 2758 2815 
Q 2500 3097 2075 3097 
Q 1594 3097 1305 2825 
Q 1016 2553 972 2059 
L 3022 2063 
z
" transform="scale(0.015625)"/>
      </defs>
      <use xlink:href="#DejaVuSans-73"/>
      <use xlink:href="#DejaVuSans-63" x="52.099609"/>
      <use xlink:href="#DejaVuSans-6f" x="107.080078"/>
      <use xlink:href="#DejaVuSans-72" x="168.261719"/>
      <use xlink:href="#DejaVuSans-65" x="207.125"/>
     </g>
    </g>
    <g id="line2d_30">
     <path d="M 66.6 293.004312 
L 76.6 293.004312 
L 86.6 293.004312 
" style="fill: none; stroke: #0000ff; stroke-width: 1.5; stroke-linecap: square"/>
    </g>
    <g id="text_15">
     <!-- length -->
     <g transform="translate(94.6 296.504312)scale(0.1 -0.1)">
      <defs>
       <path id="DejaVuSans-6c" d="M 603 4863 
L 1178 4863 
L 1178 0 
L 603 0 
L 603 4863 
z
" transform="scale(0.015625)"/>
       <path id="DejaVuSans-6e" d="M 3513 2113 
L 3513 0 
L 2938 0 
L 2938 2094 
Q 2938 2591 2744 2837 
Q 2550 3084 2163 3084 
Q 1697 3084 1428 2787 
Q 1159 2491 1159 1978 
L 1159 0 
L 581 0 
L 581 3500 
L 1159 3500 
L 1159 2956 
Q 1366 3272 1645 3428 
Q 1925 3584 2291 3584 
Q 2894 3584 3203 3211 
Q 3513 2838 3513 2113 
z
" transform="scale(0.015625)"/>
       <path id="DejaVuSans-67" d="M 2906 1791 
Q 2906 2416 2648 2759 
Q 2391 3103 1925 3103 
Q 1463 3103 1205 2759 
Q 947 2416 947 1791 
Q 947 1169 1205 825 
Q 1463 481 1925 481 
Q 2391 481 2648 825 
Q 2906 1169 2906 1791 
z
M 3481 434 
Q 3481 -459 3084 -895 
Q 2688 -1331 1869 -1331 
Q 1566 -1331 1297 -1286 
Q 1028 -1241 775 -1147 
L 775 -588 
Q 1028 -725 1275 -790 
Q 1522 -856 1778 -856 
Q 2344 -856 2625 -561 
Q 2906 -266 2906 331 
L 2906 616 
Q 2728 306 2450 153 
Q 2172 0 1784 0 
Q 1141 0 747 490 
Q 353 981 353 1791 
Q 353 2603 747 3093 
Q 1141 3584 1784 3584 
Q 2172 3584 2450 3431 
Q 2728 3278 2906 2969 
L 2906 3500 
L 3481 3500 
L 3481 434 
z
" transform="scale(0.015625)"/>
       <path id="DejaVuSans-74" d="M 1172 4494 
L 1172 3500 
L 2356 3500 
L 2356 3053 
L 1172 3053 
L 1172 1153 
Q 1172 725 1289 603 
Q 1406 481 1766 481 
L 2356 481 
L 2356 0 
L 1766 0 
Q 1100 0 847 248 
Q 594 497 594 1153 
L 594 3053 
L 172 3053 
L 172 3500 
L 594 3500 
L 594 4494 
L 1172 4494 
z
" transform="scale(0.015625)"/>
       <path id="DejaVuSans-68" d="M 3513 2113 
L 3513 0 
L 2938 0 
L 2938 2094 
Q 2938 2591 2744 2837 
Q 2550 3084 2163 3084 
Q 1697 3084 1428 2787 
Q 1159 2491 1159 1978 
L 1159 0 
L 581 0 
L 581 4863 
L 1159 4863 
L 1159 2956 
Q 1366 3272 1645 3428 
Q 1925 3584 2291 3584 
Q 2894 3584 3203 3211 
Q 3513 2838 3513 2113 
z
" transform="scale(0.015625)"/>
      </defs>
      <use xlink:href="#DejaVuSans-6c"/>
      <use xlink:href="#DejaVuSans-65" x="27.783203"/>
      <use xlink:href="#DejaVuSans-6e" x="89.306641"/>
      <use xlink:href="#DejaVuSans-67" x="152.685547"/>
      <use xlink:href="#DejaVuSans-74" x="216.162109"/>
      <use xlink:href="#DejaVuSans-68" x="255.371094"/>
     </g>
    </g>
   </g>
  </g>
 </g>
 <defs>
  <clipPath id="pd40bc6138e">
   <rect x="57.6" y="41.472" width="357.12" height="266.112"/>
  </clipPath>
 </defs>
</svg>
