<?xml version="1.0" encoding="utf-8" standalone="no"?>
<!DOCTYPE svg PUBLIC "-//W3C//DTD SVG 1.1//EN"
  "http://www.w3.org/Graphics/SVG/1.1/DTD/svg11.dtd">
<svg xmlns:xlink="http://www.w3.org/1999/xlink" width="460.8pt" height="345.6pt" viewBox="0 0 460.8 345.6" xmlns="http://www.w3.org/2000/svg" version="1.1">
 <metadata>
  <rdf:RDF xmlns:dc="http://purl.org/dc/elements/1.1/" xmlns:cc="http://creativecommons.org/ns#" xmlns:rdf="http://www.w3.org/1999/02/22-rdf-syntax-ns#">
   <cc:Work>
    <dc:type rdf:resource="http://purl.org/dc/dcmitype/StillImage"/>
    <dc:date>2022-10-27T08:30:50.373399</dc:date>
    <dc:format>image/svg+xml</dc:format>
    <dc:creator>
     <cc:Agent>
      <dc:title>Matplotlib v3.5.3, https://matplotlib.org/</dc:title>
     </cc:Agent>
    </dc:creator>
   </cc:Work>
  </rdf:RDF>
 </metadata>
 <defs>
  <style type="text/css">*{stroke-linejoin: round; stroke-linecap: butt}</style>
 </defs>
 <g id="figure_1">
  <g id="patch_1">
   <path d="M 0 345.6 
L 460.8 345.6 
L 460.8 0 
L 0 0 
z
" style="fill: #ffffff"/>
  </g>
  <g id="axes_1">
   <g id="patch_2">
    <path d="M 57.6 307.584 
L 414.72 307.584 
L 414.72 41.472 
L 57.6 41.472 
z
" style="fill: #ffffff"/>
   </g>
   <g id="matplotlib.axis_1">
    <g id="xtick_1">
     <g id="line2d_1">
      <path d="M 73.832727 307.584 
L 73.832727 41.472 
" clip-path="url(#pbfda9a8ae4)" style="fill: none; stroke: #b0b0b0; stroke-width: 0.8; stroke-linecap: square"/>
     </g>
     <g id="line2d_2">
      <defs>
       <path id="mdd34be4f0b" d="M 0 0 
L 0 3.5 
" style="stroke: #000000; stroke-width: 0.8"/>
      </defs>
      <g>
       <use xlink:href="#mdd34be4f0b" x="73.832727" y="307.584" style="stroke: #000000; stroke-width: 0.8"/>
      </g>
     </g>
     <g id="text_1">
      <!-- 0 -->
      <g transform="translate(70.651477 322.182437)scale(0.1 -0.1)">
       <defs>
        <path id="DejaVuSans-30" d="M 2034 4250 
Q 1547 4250 1301 3770 
Q 1056 3291 1056 2328 
Q 1056 1369 1301 889 
Q 1547 409 2034 409 
Q 2525 409 2770 889 
Q 3016 1369 3016 2328 
Q 3016 3291 2770 3770 
Q 2525 4250 2034 4250 
z
M 2034 4750 
Q 2819 4750 3233 4129 
Q 3647 3509 3647 2328 
Q 3647 1150 3233 529 
Q 2819 -91 2034 -91 
Q 1250 -91 836 529 
Q 422 1150 422 2328 
Q 422 3509 836 4129 
Q 1250 4750 2034 4750 
z
" transform="scale(0.015625)"/>
       </defs>
       <use xlink:href="#DejaVuSans-30"/>
      </g>
     </g>
    </g>
    <g id="xtick_2">
     <g id="line2d_3">
      <path d="M 138.608175 307.584 
L 138.608175 41.472 
" clip-path="url(#pbfda9a8ae4)" style="fill: none; stroke: #b0b0b0; stroke-width: 0.8; stroke-linecap: square"/>
     </g>
     <g id="line2d_4">
      <g>
       <use xlink:href="#mdd34be4f0b" x="138.608175" y="307.584" style="stroke: #000000; stroke-width: 0.8"/>
      </g>
     </g>
     <g id="text_2">
      <!-- 500 -->
      <g transform="translate(129.064425 322.182437)scale(0.1 -0.1)">
       <defs>
        <path id="DejaVuSans-35" d="M 691 4666 
L 3169 4666 
L 3169 4134 
L 1269 4134 
L 1269 2991 
Q 1406 3038 1543 3061 
Q 1681 3084 1819 3084 
Q 2600 3084 3056 2656 
Q 3513 2228 3513 1497 
Q 3513 744 3044 326 
Q 2575 -91 1722 -91 
Q 1428 -91 1123 -41 
Q 819 9 494 109 
L 494 744 
Q 775 591 1075 516 
Q 1375 441 1709 441 
Q 2250 441 2565 725 
Q 2881 1009 2881 1497 
Q 2881 1984 2565 2268 
Q 2250 2553 1709 2553 
Q 1456 2553 1204 2497 
Q 953 2441 691 2322 
L 691 4666 
z
" transform="scale(0.015625)"/>
       </defs>
       <use xlink:href="#DejaVuSans-35"/>
       <use xlink:href="#DejaVuSans-30" x="63.623047"/>
       <use xlink:href="#DejaVuSans-30" x="127.246094"/>
      </g>
     </g>
    </g>
    <g id="xtick_3">
     <g id="line2d_5">
      <path d="M 203.383623 307.584 
L 203.383623 41.472 
" clip-path="url(#pbfda9a8ae4)" style="fill: none; stroke: #b0b0b0; stroke-width: 0.8; stroke-linecap: square"/>
     </g>
     <g id="line2d_6">
      <g>
       <use xlink:href="#mdd34be4f0b" x="203.383623" y="307.584" style="stroke: #000000; stroke-width: 0.8"/>
      </g>
     </g>
     <g id="text_3">
      <!-- 1000 -->
      <g transform="translate(190.658623 322.182437)scale(0.1 -0.1)">
       <defs>
        <path id="DejaVuSans-31" d="M 794 531 
L 1825 531 
L 1825 4091 
L 703 3866 
L 703 4441 
L 1819 4666 
L 2450 4666 
L 2450 531 
L 3481 531 
L 3481 0 
L 794 0 
L 794 531 
z
" transform="scale(0.015625)"/>
       </defs>
       <use xlink:href="#DejaVuSans-31"/>
       <use xlink:href="#DejaVuSans-30" x="63.623047"/>
       <use xlink:href="#DejaVuSans-30" x="127.246094"/>
       <use xlink:href="#DejaVuSans-30" x="190.869141"/>
      </g>
     </g>
    </g>
    <g id="xtick_4">
     <g id="line2d_7">
      <path d="M 268.159071 307.584 
L 268.159071 41.472 
" clip-path="url(#pbfda9a8ae4)" style="fill: none; stroke: #b0b0b0; stroke-width: 0.8; stroke-linecap: square"/>
     </g>
     <g id="line2d_8">
      <g>
       <use xlink:href="#mdd34be4f0b" x="268.159071" y="307.584" style="stroke: #000000; stroke-width: 0.8"/>
      </g>
     </g>
     <g id="text_4">
      <!-- 1500 -->
      <g transform="translate(255.434071 322.182437)scale(0.1 -0.1)">
       <use xlink:href="#DejaVuSans-31"/>
       <use xlink:href="#DejaVuSans-35" x="63.623047"/>
       <use xlink:href="#DejaVuSans-30" x="127.246094"/>
       <use xlink:href="#DejaVuSans-30" x="190.869141"/>
      </g>
     </g>
    </g>
    <g id="xtick_5">
     <g id="line2d_9">
      <path d="M 332.934519 307.584 
L 332.934519 41.472 
" clip-path="url(#pbfda9a8ae4)" style="fill: none; stroke: #b0b0b0; stroke-width: 0.8; stroke-linecap: square"/>
     </g>
     <g id="line2d_10">
      <g>
       <use xlink:href="#mdd34be4f0b" x="332.934519" y="307.584" style="stroke: #000000; stroke-width: 0.8"/>
      </g>
     </g>
     <g id="text_5">
      <!-- 2000 -->
      <g transform="translate(320.209519 322.182437)scale(0.1 -0.1)">
       <defs>
        <path id="DejaVuSans-32" d="M 1228 531 
L 3431 531 
L 3431 0 
L 469 0 
L 469 531 
Q 828 903 1448 1529 
Q 2069 2156 2228 2338 
Q 2531 2678 2651 2914 
Q 2772 3150 2772 3378 
Q 2772 3750 2511 3984 
Q 2250 4219 1831 4219 
Q 1534 4219 1204 4116 
Q 875 4013 500 3803 
L 500 4441 
Q 881 4594 1212 4672 
Q 1544 4750 1819 4750 
Q 2544 4750 2975 4387 
Q 3406 4025 3406 3419 
Q 3406 3131 3298 2873 
Q 3191 2616 2906 2266 
Q 2828 2175 2409 1742 
Q 1991 1309 1228 531 
z
" transform="scale(0.015625)"/>
       </defs>
       <use xlink:href="#DejaVuSans-32"/>
       <use xlink:href="#DejaVuSans-30" x="63.623047"/>
       <use xlink:href="#DejaVuSans-30" x="127.246094"/>
       <use xlink:href="#DejaVuSans-30" x="190.869141"/>
      </g>
     </g>
    </g>
    <g id="xtick_6">
     <g id="line2d_11">
      <path d="M 397.709967 307.584 
L 397.709967 41.472 
" clip-path="url(#pbfda9a8ae4)" style="fill: none; stroke: #b0b0b0; stroke-width: 0.8; stroke-linecap: square"/>
     </g>
     <g id="line2d_12">
      <g>
       <use xlink:href="#mdd34be4f0b" x="397.709967" y="307.584" style="stroke: #000000; stroke-width: 0.8"/>
      </g>
     </g>
     <g id="text_6">
      <!-- 2500 -->
      <g transform="translate(384.984967 322.182437)scale(0.1 -0.1)">
       <use xlink:href="#DejaVuSans-32"/>
       <use xlink:href="#DejaVuSans-35" x="63.623047"/>
       <use xlink:href="#DejaVuSans-30" x="127.246094"/>
       <use xlink:href="#DejaVuSans-30" x="190.869141"/>
      </g>
     </g>
    </g>
   </g>
   <g id="matplotlib.axis_2">
    <g id="ytick_1">
     <g id="line2d_13">
      <path d="M 57.6 274.913072 
L 414.72 274.913072 
" clip-path="url(#pbfda9a8ae4)" style="fill: none; stroke: #b0b0b0; stroke-width: 0.8; stroke-linecap: square"/>
     </g>
     <g id="line2d_14">
      <defs>
       <path id="mf8e6244441" d="M 0 0 
L -3.5 0 
" style="stroke: #000000; stroke-width: 0.8"/>
      </defs>
      <g>
       <use xlink:href="#mf8e6244441" x="57.6" y="274.913072" style="stroke: #000000; stroke-width: 0.8"/>
      </g>
     </g>
     <g id="text_7">
      <!-- 0 -->
      <g transform="translate(44.2375 278.712291)scale(0.1 -0.1)">
       <use xlink:href="#DejaVuSans-30"/>
      </g>
     </g>
    </g>
    <g id="ytick_2">
     <g id="line2d_15">
      <path d="M 57.6 238.022227 
L 414.72 238.022227 
" clip-path="url(#pbfda9a8ae4)" style="fill: none; stroke: #b0b0b0; stroke-width: 0.8; stroke-linecap: square"/>
     </g>
     <g id="line2d_16">
      <g>
       <use xlink:href="#mf8e6244441" x="57.6" y="238.022227" style="stroke: #000000; stroke-width: 0.8"/>
      </g>
     </g>
     <g id="text_8">
      <!-- 200 -->
      <g transform="translate(31.5125 241.821445)scale(0.1 -0.1)">
       <use xlink:href="#DejaVuSans-32"/>
       <use xlink:href="#DejaVuSans-30" x="63.623047"/>
       <use xlink:href="#DejaVuSans-30" x="127.246094"/>
      </g>
     </g>
    </g>
    <g id="ytick_3">
     <g id="line2d_17">
      <path d="M 57.6 201.131381 
L 414.72 201.131381 
" clip-path="url(#pbfda9a8ae4)" style="fill: none; stroke: #b0b0b0; stroke-width: 0.8; stroke-linecap: square"/>
     </g>
     <g id="line2d_18">
      <g>
       <use xlink:href="#mf8e6244441" x="57.6" y="201.131381" style="stroke: #000000; stroke-width: 0.8"/>
      </g>
     </g>
     <g id="text_9">
      <!-- 400 -->
      <g transform="translate(31.5125 204.9306)scale(0.1 -0.1)">
       <defs>
        <path id="DejaVuSans-34" d="M 2419 4116 
L 825 1625 
L 2419 1625 
L 2419 4116 
z
M 2253 4666 
L 3047 4666 
L 3047 1625 
L 3713 1625 
L 3713 1100 
L 3047 1100 
L 3047 0 
L 2419 0 
L 2419 1100 
L 313 1100 
L 313 1709 
L 2253 4666 
z
" transform="scale(0.015625)"/>
       </defs>
       <use xlink:href="#DejaVuSans-34"/>
       <use xlink:href="#DejaVuSans-30" x="63.623047"/>
       <use xlink:href="#DejaVuSans-30" x="127.246094"/>
      </g>
     </g>
    </g>
    <g id="ytick_4">
     <g id="line2d_19">
      <path d="M 57.6 164.240536 
L 414.72 164.240536 
" clip-path="url(#pbfda9a8ae4)" style="fill: none; stroke: #b0b0b0; stroke-width: 0.8; stroke-linecap: square"/>
     </g>
     <g id="line2d_20">
      <g>
       <use xlink:href="#mf8e6244441" x="57.6" y="164.240536" style="stroke: #000000; stroke-width: 0.8"/>
      </g>
     </g>
     <g id="text_10">
      <!-- 600 -->
      <g transform="translate(31.5125 168.039755)scale(0.1 -0.1)">
       <defs>
        <path id="DejaVuSans-36" d="M 2113 2584 
Q 1688 2584 1439 2293 
Q 1191 2003 1191 1497 
Q 1191 994 1439 701 
Q 1688 409 2113 409 
Q 2538 409 2786 701 
Q 3034 994 3034 1497 
Q 3034 2003 2786 2293 
Q 2538 2584 2113 2584 
z
M 3366 4563 
L 3366 3988 
Q 3128 4100 2886 4159 
Q 2644 4219 2406 4219 
Q 1781 4219 1451 3797 
Q 1122 3375 1075 2522 
Q 1259 2794 1537 2939 
Q 1816 3084 2150 3084 
Q 2853 3084 3261 2657 
Q 3669 2231 3669 1497 
Q 3669 778 3244 343 
Q 2819 -91 2113 -91 
Q 1303 -91 875 529 
Q 447 1150 447 2328 
Q 447 3434 972 4092 
Q 1497 4750 2381 4750 
Q 2619 4750 2861 4703 
Q 3103 4656 3366 4563 
z
" transform="scale(0.015625)"/>
       </defs>
       <use xlink:href="#DejaVuSans-36"/>
       <use xlink:href="#DejaVuSans-30" x="63.623047"/>
       <use xlink:href="#DejaVuSans-30" x="127.246094"/>
      </g>
     </g>
    </g>
    <g id="ytick_5">
     <g id="line2d_21">
      <path d="M 57.6 127.349691 
L 414.72 127.349691 
" clip-path="url(#pbfda9a8ae4)" style="fill: none; stroke: #b0b0b0; stroke-width: 0.8; stroke-linecap: square"/>
     </g>
     <g id="line2d_22">
      <g>
       <use xlink:href="#mf8e6244441" x="57.6" y="127.349691" style="stroke: #000000; stroke-width: 0.8"/>
      </g>
     </g>
     <g id="text_11">
      <!-- 800 -->
      <g transform="translate(31.5125 131.148909)scale(0.1 -0.1)">
       <defs>
        <path id="DejaVuSans-38" d="M 2034 2216 
Q 1584 2216 1326 1975 
Q 1069 1734 1069 1313 
Q 1069 891 1326 650 
Q 1584 409 2034 409 
Q 2484 409 2743 651 
Q 3003 894 3003 1313 
Q 3003 1734 2745 1975 
Q 2488 2216 2034 2216 
z
M 1403 2484 
Q 997 2584 770 2862 
Q 544 3141 544 3541 
Q 544 4100 942 4425 
Q 1341 4750 2034 4750 
Q 2731 4750 3128 4425 
Q 3525 4100 3525 3541 
Q 3525 3141 3298 2862 
Q 3072 2584 2669 2484 
Q 3125 2378 3379 2068 
Q 3634 1759 3634 1313 
Q 3634 634 3220 271 
Q 2806 -91 2034 -91 
Q 1263 -91 848 271 
Q 434 634 434 1313 
Q 434 1759 690 2068 
Q 947 2378 1403 2484 
z
M 1172 3481 
Q 1172 3119 1398 2916 
Q 1625 2713 2034 2713 
Q 2441 2713 2670 2916 
Q 2900 3119 2900 3481 
Q 2900 3844 2670 4047 
Q 2441 4250 2034 4250 
Q 1625 4250 1398 4047 
Q 1172 3844 1172 3481 
z
" transform="scale(0.015625)"/>
       </defs>
       <use xlink:href="#DejaVuSans-38"/>
       <use xlink:href="#DejaVuSans-30" x="63.623047"/>
       <use xlink:href="#DejaVuSans-30" x="127.246094"/>
      </g>
     </g>
    </g>
    <g id="ytick_6">
     <g id="line2d_23">
      <path d="M 57.6 90.458845 
L 414.72 90.458845 
" clip-path="url(#pbfda9a8ae4)" style="fill: none; stroke: #b0b0b0; stroke-width: 0.8; stroke-linecap: square"/>
     </g>
     <g id="line2d_24">
      <g>
       <use xlink:href="#mf8e6244441" x="57.6" y="90.458845" style="stroke: #000000; stroke-width: 0.8"/>
      </g>
     </g>
     <g id="text_12">
      <!-- 1000 -->
      <g transform="translate(25.15 94.258064)scale(0.1 -0.1)">
       <use xlink:href="#DejaVuSans-31"/>
       <use xlink:href="#DejaVuSans-30" x="63.623047"/>
       <use xlink:href="#DejaVuSans-30" x="127.246094"/>
       <use xlink:href="#DejaVuSans-30" x="190.869141"/>
      </g>
     </g>
    </g>
    <g id="ytick_7">
     <g id="line2d_25">
      <path d="M 57.6 53.568 
L 414.72 53.568 
" clip-path="url(#pbfda9a8ae4)" style="fill: none; stroke: #b0b0b0; stroke-width: 0.8; stroke-linecap: square"/>
     </g>
     <g id="line2d_26">
      <g>
       <use xlink:href="#mf8e6244441" x="57.6" y="53.568" style="stroke: #000000; stroke-width: 0.8"/>
      </g>
     </g>
     <g id="text_13">
      <!-- 1200 -->
      <g transform="translate(25.15 57.367219)scale(0.1 -0.1)">
       <use xlink:href="#DejaVuSans-31"/>
       <use xlink:href="#DejaVuSans-32" x="63.623047"/>
       <use xlink:href="#DejaVuSans-30" x="127.246094"/>
       <use xlink:href="#DejaVuSans-30" x="190.869141"/>
      </g>
     </g>
    </g>
   </g>
   <g id="line2d_27">
    <path d="M 73.832727 280.73539 
L 73.962278 294.294764 
L 74.22138 279.318192 
L 74.350931 271.678783 
L 74.480482 274.319207 
L 74.610033 279.439014 
L 74.739584 274.166689 
L 74.869134 280.491059 
L 74.998685 277.331554 
L 75.128236 285.611555 
L 75.387338 271.608143 
L 75.516889 278.330679 
L 75.64644 274.730451 
L 75.775991 278.349913 
L 75.905542 278.856552 
L 76.035093 278.296684 
L 76.164643 268.811599 
L 76.294194 277.168105 
L 76.423745 276.918531 
L 76.553296 281.357024 
L 76.682847 280.505714 
L 76.812398 282.025858 
L 76.941949 281.443852 
L 77.0715 286.577443 
L 77.201051 286.299391 
L 77.330601 279.821019 
L 77.460152 285.941405 
L 77.589703 282.405916 
L 77.719254 289.325932 
L 77.978356 277.83697 
L 78.107907 279.639651 
L 78.367009 289.706679 
L 78.62611 272.382476 
L 78.755661 281.285445 
L 79.014763 277.204042 
L 79.144314 277.726157 
L 79.273865 277.739195 
L 79.403416 271.608173 
L 79.532967 287.951647 
L 79.662518 280.194291 
L 79.792068 281.465171 
L 79.921619 275.087585 
L 80.05117 284.632744 
L 80.180721 274.896292 
L 80.439823 282.187761 
L 80.698925 278.657341 
L 80.828476 281.703724 
L 80.958027 282.104412 
L 81.087577 278.985838 
L 81.217128 273.162037 
L 81.346679 287.677855 
L 81.605781 268.509146 
L 81.735332 279.897824 
L 81.864883 281.221845 
L 81.994434 280.595386 
L 82.123985 266.371835 
L 82.253536 281.695807 
L 82.383086 275.467238 
L 82.512637 285.446657 
L 82.642188 277.147947 
L 82.771739 277.867748 
L 82.90129 285.769799 
L 83.030841 286.057181 
L 83.160392 274.819558 
L 83.289943 280.430525 
L 83.419494 280.027053 
L 83.549044 275.886719 
L 83.808146 287.55983 
L 83.937697 281.638243 
L 84.067248 288.429382 
L 84.196799 267.898206 
L 84.32635 280.459619 
L 84.455901 276.853742 
L 84.585452 286.880598 
L 84.715003 278.889536 
L 84.844553 283.101615 
L 85.103655 278.709699 
L 85.233206 278.638985 
L 85.362757 276.237256 
L 85.492308 270.159461 
L 85.621859 279.36434 
L 85.75141 268.383596 
L 85.880961 279.138576 
L 86.010511 278.794229 
L 86.140062 281.58672 
L 86.269613 279.132949 
L 86.399164 281.958644 
L 86.528715 267.452491 
L 86.658266 279.947786 
L 86.917368 281.404685 
L 87.046919 286.69299 
L 87.17647 278.375531 
L 87.30602 278.753394 
L 87.435571 277.384498 
L 87.565122 278.656573 
L 87.953775 267.082674 
L 88.083326 277.160626 
L 88.212877 268.542699 
L 88.342428 274.332309 
L 88.471979 289.784969 
L 88.601529 281.442531 
L 88.860631 281.462088 
L 88.990182 282.87386 
L 89.119733 279.554239 
L 89.249284 284.288291 
L 89.378835 280.972146 
L 89.508386 269.179291 
L 89.637937 267.620197 
L 89.897038 286.207403 
L 90.026589 272.068712 
L 90.415242 286.411813 
L 90.544793 269.531675 
L 90.674344 269.421432 
L 90.803895 278.43913 
L 90.933446 275.19293 
L 91.062996 283.445008 
L 91.192547 278.666148 
L 91.322098 281.781074 
L 91.451649 275.845422 
L 91.710751 281.981549 
L 91.840302 273.311074 
L 91.969853 286.371604 
L 92.099404 279.507075 
L 92.228955 280.990051 
L 92.358505 280.333038 
L 92.617607 275.709935 
L 92.747158 265.527927 
L 93.00626 286.186824 
L 93.265362 272.91468 
L 93.394913 284.645438 
L 93.524463 269.043031 
L 93.654014 280.517323 
L 93.783565 280.137696 
L 93.913116 273.011904 
L 94.172218 278.347527 
L 94.301769 266.566881 
L 94.560871 280.924923 
L 94.690422 280.436451 
L 94.819972 278.071705 
L 94.949523 284.475738 
L 95.079074 276.51256 
L 95.208625 284.5522 
L 95.338176 281.787657 
L 95.467727 272.43558 
L 95.726829 281.556922 
L 95.85638 274.050788 
L 95.98593 274.394627 
L 96.115481 277.708658 
L 96.245032 284.592156 
L 96.374583 276.482875 
L 96.504134 278.909457 
L 96.633685 276.038792 
L 97.151889 280.709338 
L 97.281439 280.053465 
L 97.41099 266.807385 
L 97.540541 288.262067 
L 97.670092 284.958284 
L 97.799643 277.872265 
L 97.929194 278.136163 
L 98.058745 282.190676 
L 98.188296 269.835107 
L 98.317847 276.753425 
L 98.447398 277.226431 
L 98.576948 282.286474 
L 98.706499 256.626763 
L 98.83605 279.279978 
L 98.965601 267.577284 
L 99.224703 283.144196 
L 99.354254 279.594882 
L 99.483805 280.088838 
L 99.613356 288.148033 
L 99.742906 282.099328 
L 99.872457 289.024835 
L 100.002008 287.012603 
L 100.131559 278.374008 
L 100.26111 278.704386 
L 100.390661 278.565593 
L 100.520212 278.59613 
L 100.649763 281.632512 
L 100.779314 280.554983 
L 100.908865 288.079752 
L 101.038415 272.480573 
L 101.167966 280.510434 
L 101.297517 276.957112 
L 101.556619 288.172644 
L 101.815721 275.188678 
L 101.945272 274.296436 
L 102.074823 282.378698 
L 102.333924 278.900521 
L 102.463475 267.722178 
L 102.593026 273.148956 
L 102.722577 262.168131 
L 102.852128 277.342676 
L 102.981679 277.551523 
L 103.11123 279.434916 
L 103.240781 284.949962 
L 103.370332 280.80284 
L 103.499882 265.423783 
L 103.758984 281.843883 
L 103.888535 270.611009 
L 104.018086 282.649194 
L 104.147637 273.502839 
L 104.277188 272.46813 
L 104.406739 275.796866 
L 104.53629 267.381638 
L 104.795391 281.013808 
L 104.924942 278.061497 
L 105.054493 278.812838 
L 105.184044 273.674394 
L 105.313595 279.25818 
L 105.572697 277.633776 
L 105.702248 283.043463 
L 105.961349 276.385297 
L 106.0909 275.944794 
L 106.350002 280.71066 
L 106.479553 277.639611 
L 106.738655 285.076015 
L 106.997757 278.385219 
L 107.127308 278.072064 
L 107.256858 279.514623 
L 107.386409 269.158379 
L 107.51596 279.044507 
L 107.645511 268.367194 
L 107.775062 281.348278 
L 107.904613 278.194136 
L 108.034164 271.777554 
L 108.163715 281.600138 
L 108.293266 274.872745 
L 108.422817 279.688976 
L 108.552367 280.021025 
L 108.681918 279.608202 
L 108.811469 281.093819 
L 108.94102 278.316823 
L 109.070571 267.25877 
L 109.200122 280.910215 
L 109.329673 280.232604 
L 109.459224 275.617766 
L 109.718325 281.48737 
L 109.847876 279.249228 
L 110.106978 290.451481 
L 110.236529 276.109897 
L 110.36608 281.038548 
L 110.495631 277.465381 
L 110.625182 266.005084 
L 110.754733 282.260891 
L 110.884284 277.389491 
L 111.013834 289.321538 
L 111.143385 272.378987 
L 111.272936 279.955725 
L 111.532038 275.908866 
L 111.661589 280.151513 
L 111.79114 279.238536 
L 111.920691 280.920863 
L 112.050242 275.788481 
L 112.179792 283.303041 
L 112.309343 280.296359 
L 112.438894 286.401019 
L 112.827547 269.757435 
L 113.086649 285.76847 
L 113.2162 279.506216 
L 113.345751 265.771496 
L 113.475301 288.903412 
L 113.734403 265.195308 
L 113.863954 275.588406 
L 113.993505 273.337008 
L 114.123056 278.490795 
L 114.252607 266.788802 
L 114.382158 283.046532 
L 114.511709 279.279294 
L 114.64126 279.399413 
L 114.77081 277.877339 
L 114.900361 278.907133 
L 115.159463 262.839798 
L 115.418565 284.460612 
L 115.677667 271.078041 
L 115.807218 280.255973 
L 116.066319 274.80112 
L 116.325421 280.19985 
L 116.454972 279.23343 
L 116.584523 288.154294 
L 116.714074 279.584955 
L 116.843625 286.912529 
L 117.102727 279.30764 
L 117.232277 281.827118 
L 117.361828 276.004149 
L 117.491379 279.740473 
L 117.62093 277.092575 
L 117.750481 270.795613 
L 118.009583 279.448025 
L 118.139134 278.724237 
L 118.268685 277.121024 
L 118.398236 282.278403 
L 118.527786 274.552472 
L 118.657337 278.124645 
L 118.786888 278.050289 
L 118.916439 292.911545 
L 119.04599 267.13461 
L 119.175541 281.389747 
L 119.305092 281.666103 
L 119.434643 279.135598 
L 119.564194 284.834116 
L 119.693744 271.86073 
L 119.823295 282.63994 
L 119.952846 273.534054 
L 120.082397 282.412561 
L 120.211948 281.956064 
L 120.341499 280.187909 
L 120.47105 282.15504 
L 120.730152 266.044312 
L 120.989253 281.621488 
L 121.118804 277.86773 
L 121.248355 279.820805 
L 121.377906 283.864204 
L 121.507457 277.042653 
L 121.89611 281.109781 
L 122.025661 285.258541 
L 122.155211 267.164168 
L 122.414313 280.132413 
L 122.673415 274.363783 
L 122.932517 283.330244 
L 123.062068 275.269536 
L 123.191619 278.718969 
L 123.32117 289.479528 
L 123.580271 270.943284 
L 123.709822 286.485403 
L 123.839373 277.695688 
L 123.968924 282.719969 
L 124.098475 275.494509 
L 124.357577 284.717712 
L 124.487128 278.397328 
L 124.616679 280.2277 
L 124.746229 277.880618 
L 124.87578 290.189455 
L 125.134882 283.014498 
L 125.264433 288.504399 
L 125.393984 273.157044 
L 125.523535 278.966605 
L 125.653086 278.866311 
L 125.782637 278.962823 
L 125.912187 270.278851 
L 126.041738 282.139009 
L 126.171289 282.303804 
L 126.30084 271.92634 
L 126.559942 281.846692 
L 126.819044 278.315897 
L 126.948595 277.043301 
L 127.078146 281.286361 
L 127.207696 276.207205 
L 127.337247 278.684519 
L 127.466798 284.202138 
L 127.7259 278.02898 
L 127.855451 278.569342 
L 127.985002 275.078475 
L 128.244104 282.723849 
L 128.373655 286.360352 
L 128.632756 275.852652 
L 128.762307 292.685741 
L 128.891858 271.085386 
L 129.15096 279.359381 
L 129.280511 275.133984 
L 129.410062 266.918366 
L 129.669163 284.084506 
L 130.057816 279.334776 
L 130.187367 287.287588 
L 130.446469 280.938248 
L 130.57602 280.022338 
L 130.705571 280.593609 
L 130.835122 278.574374 
L 130.964672 278.592005 
L 131.094223 277.537752 
L 131.482876 280.837956 
L 131.612427 277.386494 
L 131.741978 280.758769 
L 131.871529 295.488 
L 132.00108 279.893533 
L 132.13063 286.914679 
L 132.260181 278.708845 
L 132.389732 288.145542 
L 132.648834 275.631799 
L 132.778385 266.58222 
L 132.907936 278.258235 
L 133.037487 273.090805 
L 133.167038 279.574273 
L 133.296589 270.124462 
L 133.426139 285.722932 
L 133.55569 279.927828 
L 133.685241 289.138869 
L 133.814792 274.748743 
L 133.944343 280.109055 
L 134.203445 277.358254 
L 134.332996 271.84459 
L 134.462547 280.799018 
L 134.592098 277.103646 
L 134.721648 282.795807 
L 134.851199 279.997028 
L 134.98075 280.818522 
L 135.110301 275.495912 
L 135.239852 281.921525 
L 135.369403 278.922363 
L 135.498954 272.19109 
L 135.628505 285.805294 
L 135.758056 283.649246 
L 136.017157 268.221573 
L 136.276259 280.310909 
L 136.40581 263.584178 
L 136.535361 277.175472 
L 136.664912 275.492819 
L 136.794463 280.772558 
L 136.924014 276.673062 
L 137.183115 283.163001 
L 137.312666 278.687115 
L 137.442217 278.951253 
L 137.571768 279.686759 
L 137.701319 269.455047 
L 137.83087 291.183746 
L 137.960421 272.421855 
L 138.089972 274.282119 
L 138.219523 286.338326 
L 138.349073 286.051221 
L 138.478624 278.190027 
L 138.608175 279.028094 
L 138.737726 275.737216 
L 138.867277 275.718175 
L 138.996828 273.204475 
L 139.25593 280.875947 
L 139.385481 285.253219 
L 139.515032 276.678608 
L 139.644582 275.892847 
L 139.774133 268.548312 
L 139.903684 277.437763 
L 140.033235 263.385346 
L 140.162786 274.667716 
L 140.292337 274.880056 
L 140.421888 273.634292 
L 140.551439 266.346274 
L 140.810541 277.39048 
L 140.940091 274.921438 
L 141.069642 277.776405 
L 141.199193 265.411926 
L 141.458295 276.515466 
L 141.587846 274.678612 
L 141.717397 274.978287 
L 141.846948 276.652224 
L 141.976499 274.969128 
L 142.106049 279.129013 
L 142.2356 270.545505 
L 142.365151 271.779617 
L 142.494702 283.040498 
L 142.624253 275.029799 
L 142.883355 274.184489 
L 143.012906 270.825699 
L 143.272008 275.115055 
L 143.401558 274.952448 
L 143.531109 278.112824 
L 143.790211 273.001346 
L 143.919762 268.025133 
L 144.049313 274.998194 
L 144.178864 265.912838 
L 144.308415 280.624388 
L 144.437966 275.089409 
L 144.697067 275.01462 
L 144.826618 276.634622 
L 144.956169 274.557933 
L 145.08572 274.802224 
L 145.215271 275.9999 
L 145.344822 275.335023 
L 145.474373 275.980445 
L 145.603924 274.970872 
L 145.733475 267.417687 
L 145.863025 275.026106 
L 145.992576 264.881129 
L 146.122127 281.075047 
L 146.51078 266.697588 
L 146.899433 281.051943 
L 147.028984 279.89122 
L 147.158534 274.233279 
L 147.288085 274.950444 
L 147.417636 277.474882 
L 147.547187 274.188167 
L 147.676738 275.121914 
L 147.806289 274.901706 
L 147.93584 273.247411 
L 148.065391 283.476744 
L 148.454043 276.109827 
L 148.583594 279.014225 
L 148.713145 274.854196 
L 148.842696 274.97206 
L 148.972247 284.941406 
L 149.231349 269.962843 
L 149.3609 271.961472 
L 149.490451 276.722177 
L 149.620001 274.958298 
L 149.749552 288.059233 
L 149.879103 276.110259 
L 150.008654 274.413094 
L 150.138205 279.164657 
L 150.267756 275.320787 
L 150.397307 275.066069 
L 150.656409 271.760047 
L 150.91551 278.071929 
L 151.045061 274.875533 
L 151.174612 281.992086 
L 151.304163 269.931496 
L 151.433714 274.627647 
L 151.692816 275.323861 
L 151.822367 265.471398 
L 151.951918 274.997288 
L 152.081468 264.344175 
L 152.211019 279.019774 
L 152.470121 271.961116 
L 152.599672 274.769551 
L 152.729223 271.696876 
L 152.858774 274.609198 
L 152.988325 282.760657 
L 153.247427 267.943979 
L 153.376977 275.719467 
L 153.506528 275.662084 
L 153.636079 274.942735 
L 153.76563 282.204376 
L 153.895181 266.422248 
L 154.154283 282.357123 
L 154.283834 275.003254 
L 154.413385 286.395199 
L 154.542936 274.991764 
L 154.672486 275.55777 
L 154.931588 275.002216 
L 155.061139 275.144376 
L 155.19069 275.0104 
L 155.320241 279.745154 
L 155.449792 274.863028 
L 155.579343 274.888241 
L 155.708894 275.060905 
L 155.838444 274.915069 
L 155.967995 279.144678 
L 156.097546 274.878505 
L 156.227097 275.049683 
L 156.486199 274.934019 
L 156.61575 276.833436 
L 156.745301 274.567766 
L 156.874852 276.340514 
L 157.004403 272.967741 
L 157.133953 281.829971 
L 157.263504 275.007997 
L 157.393055 278.029935 
L 157.652157 270.719127 
L 157.781708 284.004921 
L 157.911259 272.48226 
L 158.04081 276.8922 
L 158.170361 276.233776 
L 158.299911 274.936803 
L 158.429462 279.803681 
L 158.559013 279.565134 
L 158.688564 273.869595 
L 158.947666 276.32805 
L 159.077217 274.74944 
L 159.206768 274.980876 
L 159.336319 274.9672 
L 159.46587 269.61063 
L 159.724971 273.313551 
L 159.854522 274.037608 
L 159.984073 278.961187 
L 160.113624 273.734983 
L 160.243175 274.956992 
L 160.372726 274.934407 
L 160.502277 275.750971 
L 160.631828 274.163701 
L 160.761379 274.990344 
L 160.890929 268.809307 
L 161.150031 275.030006 
L 161.279582 269.214557 
L 161.409133 275.90999 
L 161.538684 268.372073 
L 161.797786 274.875078 
L 161.927337 276.476942 
L 162.056887 264.337927 
L 162.186438 275.749778 
L 162.315989 272.164262 
L 162.575091 276.927212 
L 162.704642 266.618771 
L 162.834193 277.2665 
L 163.093295 274.950807 
L 163.222846 275.056822 
L 163.611498 276.976585 
L 163.741049 271.824352 
L 163.8706 276.957904 
L 164.000151 275.659182 
L 164.129702 276.278348 
L 164.259253 272.321839 
L 164.518354 280.399255 
L 164.647905 274.960913 
L 164.777456 276.935878 
L 164.907007 275.192994 
L 165.036558 291.507025 
L 165.29566 274.216329 
L 165.554762 276.707761 
L 165.684313 279.132776 
L 165.813863 266.406595 
L 165.943414 275.229954 
L 166.072965 274.851679 
L 166.202516 274.928554 
L 166.461618 277.845361 
L 166.591169 275.162439 
L 166.850271 274.821357 
L 166.979822 276.476448 
L 167.109372 274.841756 
L 167.238923 270.249555 
L 167.368474 276.800873 
L 167.498025 275.141619 
L 167.627576 274.968793 
L 167.757127 278.820803 
L 167.886678 273.785155 
L 168.016229 277.022449 
L 168.14578 274.950513 
L 168.27533 276.226682 
L 168.404881 265.232507 
L 168.534432 275.057566 
L 168.663983 274.502237 
L 168.793534 287.387978 
L 168.923085 275.117798 
L 169.052636 281.798843 
L 169.311738 270.674956 
L 169.441289 276.662843 
L 169.570839 271.05726 
L 169.70039 278.321881 
L 169.829941 274.442052 
L 169.959492 276.749744 
L 170.089043 276.882133 
L 170.348145 275.203176 
L 170.477696 276.568452 
L 170.607247 274.993382 
L 170.736798 274.989586 
L 170.866348 273.595111 
L 170.995899 277.130409 
L 171.12545 273.998352 
L 171.255001 275.993121 
L 171.384552 288.61277 
L 171.643654 270.063736 
L 171.773205 280.922308 
L 171.902756 271.130872 
L 172.161857 275.13683 
L 172.291408 279.542495 
L 172.420959 272.126628 
L 172.680061 279.210931 
L 172.939163 273.568878 
L 173.068714 277.225423 
L 173.198265 275.073377 
L 173.327815 277.510177 
L 173.457366 283.846608 
L 173.586917 275.691837 
L 173.716468 275.637317 
L 173.846019 265.407162 
L 173.97557 274.635458 
L 174.105121 274.893022 
L 174.234672 270.186723 
L 174.493773 279.445734 
L 174.623324 275.012024 
L 174.752875 280.322856 
L 174.882426 274.938474 
L 175.011977 274.746597 
L 175.141528 270.578291 
L 175.40063 279.451086 
L 175.530181 274.890351 
L 175.659732 287.445666 
L 175.789282 275.609936 
L 175.918833 285.047882 
L 176.048384 274.303975 
L 176.177935 274.998241 
L 176.307486 274.321761 
L 176.437037 276.818946 
L 176.566588 283.9592 
L 176.696139 268.194865 
L 176.955241 283.143766 
L 177.084791 274.318805 
L 177.343893 281.841316 
L 177.602995 274.83614 
L 177.732546 279.455872 
L 177.862097 275.047852 
L 177.991648 275.47233 
L 178.121199 271.054919 
L 178.250749 282.20212 
L 178.3803 270.324191 
L 178.509851 273.841109 
L 178.639402 271.37873 
L 178.768953 274.984127 
L 179.028055 275.144417 
L 179.157606 274.875194 
L 179.287157 275.005804 
L 179.416708 266.467486 
L 179.546258 276.187125 
L 179.675809 274.956439 
L 179.80536 291.186421 
L 179.934911 261.019634 
L 180.064462 275.470511 
L 180.194013 271.979219 
L 180.323564 279.191551 
L 180.453115 278.370729 
L 180.582666 275.087651 
L 180.712216 274.919657 
L 180.841767 273.430773 
L 180.971318 274.287249 
L 181.100869 273.154147 
L 181.23042 275.041701 
L 181.359971 281.823675 
L 181.489522 275.30234 
L 181.619073 279.315038 
L 181.748624 276.717252 
L 181.878175 263.165428 
L 182.137276 277.650616 
L 182.266827 264.613324 
L 182.396378 274.230747 
L 182.525929 271.369035 
L 182.65548 286.973311 
L 182.785031 277.355653 
L 182.914582 278.929177 
L 183.044133 274.134321 
L 183.303234 277.433331 
L 183.432785 274.918885 
L 183.562336 266.163849 
L 183.691887 275.016463 
L 183.821438 274.910298 
L 183.950989 289.26383 
L 184.08054 274.943867 
L 184.210091 285.038669 
L 184.339642 274.935537 
L 184.469192 280.456019 
L 184.598743 277.74959 
L 184.728294 268.071332 
L 184.857845 288.416362 
L 184.987396 277.989889 
L 185.116947 276.944136 
L 185.246498 274.866082 
L 185.376049 275.075272 
L 185.635151 274.836958 
L 185.764701 274.978465 
L 185.894252 277.957376 
L 186.023803 275.007025 
L 186.153354 285.468486 
L 186.412456 274.817517 
L 186.542007 283.159621 
L 186.671558 274.98529 
L 186.93066 276.908549 
L 187.06021 274.853852 
L 187.448863 275.044806 
L 187.578414 265.85623 
L 187.837516 277.774138 
L 188.096618 274.997008 
L 188.226168 282.922747 
L 188.355719 275.049688 
L 188.48527 279.552409 
L 188.614821 264.02687 
L 188.744372 275.016577 
L 188.873923 275.184386 
L 189.003474 274.992976 
L 189.133025 277.444562 
L 189.262576 282.942277 
L 189.521677 265.08632 
L 189.780779 274.553524 
L 189.91033 268.95836 
L 190.039881 274.599469 
L 190.169432 290.117636 
L 190.298983 274.952262 
L 190.428534 275.022351 
L 190.558085 282.607482 
L 190.687635 272.33347 
L 190.817186 275.065084 
L 190.946737 272.827907 
L 191.076288 276.188132 
L 191.205839 270.421331 
L 191.33539 275.154744 
L 191.594492 268.568057 
L 191.724043 274.985125 
L 191.853594 287.505866 
L 192.112695 274.953405 
L 192.242246 275.045205 
L 192.371797 263.394502 
L 192.501348 280.378725 
L 192.630899 274.407041 
L 192.76045 276.34142 
L 192.890001 274.961353 
L 193.149103 278.852663 
L 193.278653 274.727672 
L 193.408204 276.546222 
L 193.537755 275.030191 
L 193.667306 274.937189 
L 193.796857 275.212038 
L 193.926408 282.486388 
L 194.055959 262.125401 
L 194.18551 278.56879 
L 194.315061 275.126963 
L 194.444611 277.333798 
L 194.574162 277.124719 
L 194.703713 270.278655 
L 194.833264 279.433497 
L 194.962815 279.841656 
L 195.221917 272.016219 
L 195.351468 276.328134 
L 195.61057 274.984426 
L 195.869671 273.901038 
L 195.999222 274.966303 
L 196.128773 285.685091 
L 196.387875 274.949822 
L 196.517426 275.651446 
L 196.646977 272.563552 
L 196.906079 277.245658 
L 197.035629 274.486877 
L 197.16518 275.863071 
L 197.294731 274.428317 
L 197.424282 274.872975 
L 197.553833 276.092596 
L 197.683384 268.621287 
L 197.942486 279.859415 
L 198.201587 275.074608 
L 198.331138 275.069278 
L 198.460689 268.392704 
L 198.719791 283.308636 
L 198.849342 265.292785 
L 199.108444 284.84074 
L 199.237995 264.766652 
L 199.367546 281.131553 
L 199.497096 274.94495 
L 199.626647 274.908232 
L 199.756198 269.088373 
L 199.885749 271.812565 
L 200.0153 278.579963 
L 200.144851 274.791797 
L 200.274402 277.851913 
L 200.403953 283.942278 
L 200.533504 275.054351 
L 200.663054 278.061142 
L 200.922156 274.826019 
L 201.051707 279.878526 
L 201.181258 279.026704 
L 201.310809 291.082748 
L 201.44036 272.297778 
L 201.569911 271.209222 
L 201.699462 264.076696 
L 201.829013 277.584944 
L 201.958563 275.206165 
L 202.088114 278.244081 
L 202.217665 274.737653 
L 202.347216 284.453305 
L 202.606318 267.530156 
L 202.735869 275.069884 
L 202.86542 275.037184 
L 202.994971 274.522727 
L 203.124522 275.749647 
L 203.254072 274.976197 
L 203.383623 264.508597 
L 203.513174 275.473816 
L 203.642725 274.0217 
L 203.772276 275.893109 
L 203.901827 275.004983 
L 204.031378 280.102921 
L 204.160929 274.900523 
L 204.29048 274.94993 
L 204.42003 284.8117 
L 204.679132 267.944139 
L 204.808683 274.972678 
L 204.938234 273.421078 
L 205.067785 275.064498 
L 205.197336 271.974346 
L 205.326887 271.646932 
L 205.456438 277.364045 
L 205.585989 274.980273 
L 205.715539 275.089682 
L 205.84509 279.457074 
L 205.974641 266.096299 
L 206.104192 275.510128 
L 206.233743 269.872955 
L 206.363294 277.64668 
L 206.492845 272.586795 
L 206.622396 278.168386 
L 206.751947 275.311859 
L 206.881497 276.233099 
L 207.011048 274.665065 
L 207.140599 274.952179 
L 207.27015 272.952502 
L 207.399701 275.673047 
L 207.529252 270.247304 
L 207.658803 276.923142 
L 207.917905 274.835168 
L 208.177006 275.029253 
L 208.306557 274.455969 
L 208.436108 274.86149 
L 208.565659 280.909126 
L 208.69521 279.008888 
L 208.824761 274.881887 
L 208.954312 274.933699 
L 209.083863 258.622172 
L 209.213414 274.996558 
L 209.342965 263.99938 
L 209.472515 282.087138 
L 209.731617 267.306308 
L 209.861168 274.311707 
L 209.990719 273.863222 
L 210.12027 275.384222 
L 210.379372 274.944432 
L 210.508923 276.398342 
L 210.768024 274.990042 
L 210.897575 272.043115 
L 211.027126 283.595689 
L 211.156677 266.486806 
L 211.415779 276.332425 
L 211.674881 275.129318 
L 211.804432 272.497209 
L 212.063533 274.93957 
L 212.193084 270.323775 
L 212.322635 274.964142 
L 212.452186 274.966595 
L 212.581737 264.130312 
L 212.711288 267.795114 
L 212.840839 279.288429 
L 212.97039 260.596718 
L 213.359042 276.106084 
L 213.488593 277.232419 
L 213.618144 286.8386 
L 213.747695 274.871062 
L 213.877246 274.324695 
L 214.006797 274.989975 
L 214.136348 274.967042 
L 214.265899 279.222503 
L 214.395449 279.228865 
L 214.654551 274.874164 
L 214.784102 276.715591 
L 214.913653 274.977176 
L 215.043204 274.841992 
L 215.172755 275.038596 
L 215.302306 264.500757 
L 215.561408 277.182078 
L 215.690958 273.161765 
L 215.820509 276.342182 
L 215.95006 289.609144 
L 216.209162 268.935378 
L 216.338713 274.936405 
L 216.468264 263.024913 
L 216.597815 264.133582 
L 216.856916 282.445908 
L 217.116018 263.527227 
L 217.245569 274.944605 
L 217.37512 274.995945 
L 217.504671 278.004337 
L 217.634222 274.639019 
L 217.893324 275.589162 
L 218.022875 265.32071 
L 218.152425 274.06984 
L 218.281976 275.220447 
L 218.411527 278.442196 
L 218.541078 271.643178 
L 218.670629 275.958794 
L 218.80018 270.932718 
L 219.059282 277.315861 
L 219.188833 274.956318 
L 219.447934 276.015154 
L 219.577485 272.430238 
L 219.836587 278.878346 
L 220.095689 274.903315 
L 220.22524 281.899117 
L 220.354791 273.631967 
L 220.484342 281.867475 
L 220.743443 270.004242 
L 221.002545 277.741138 
L 221.132096 268.222841 
L 221.261647 275.017194 
L 221.391198 273.674739 
L 221.520749 280.25736 
L 221.6503 279.208351 
L 221.909401 274.929079 
L 222.427605 275.016788 
L 222.557156 269.850505 
L 222.686707 284.467481 
L 222.816258 274.991423 
L 223.07536 276.624662 
L 223.20491 278.836411 
L 223.334461 262.546419 
L 223.464012 274.759479 
L 223.593563 275.241543 
L 223.723114 275.063509 
L 223.852665 278.79178 
L 223.982216 269.443088 
L 224.241318 277.87693 
L 224.370868 261.891646 
L 224.500419 279.430333 
L 224.62997 275.008062 
L 224.759521 275.266501 
L 224.889072 274.94822 
L 225.018623 275.152834 
L 225.148174 274.92676 
L 225.277725 274.979035 
L 225.407276 275.240518 
L 225.666377 274.844938 
L 225.795928 279.866261 
L 226.05503 273.425899 
L 226.184581 274.963273 
L 226.314132 274.488057 
L 226.443683 271.324013 
L 226.702785 277.085152 
L 226.832335 274.996882 
L 227.091437 280.137346 
L 227.220988 264.862732 
L 227.350539 282.06303 
L 227.48009 270.101517 
L 227.609641 275.21319 
L 227.739192 274.987803 
L 227.868743 284.40677 
L 228.127844 271.626984 
L 228.257395 280.147881 
L 228.386946 280.37063 
L 228.516497 278.505704 
L 228.646048 270.602367 
L 228.775599 281.833701 
L 228.90515 275.633749 
L 229.034701 275.186067 
L 229.164252 275.429971 
L 229.293803 275.165511 
L 229.423353 275.513134 
L 229.552904 274.970166 
L 229.682455 273.53286 
L 229.941557 275.004843 
L 230.071108 268.810672 
L 230.33021 285.115907 
L 230.459761 274.98171 
L 230.589311 278.964717 
L 230.718862 274.879023 
L 230.848413 276.389056 
L 230.977964 269.871468 
L 231.107515 275.037925 
L 231.366617 274.882107 
L 231.496168 274.321443 
L 231.625719 272.813375 
L 231.75527 277.488872 
L 231.88482 270.298773 
L 232.014371 274.986335 
L 232.273473 274.803143 
L 232.403024 276.714858 
L 232.532575 274.930781 
L 232.662126 275.019111 
L 232.791677 269.968912 
L 232.921228 274.928298 
L 233.050778 268.779583 
L 233.30988 275.90132 
L 233.439431 280.09712 
L 233.568982 277.549771 
L 233.698533 281.707407 
L 233.828084 272.488117 
L 233.957635 278.475426 
L 234.087186 276.52812 
L 234.216737 279.318467 
L 234.475838 275.46552 
L 234.605389 280.625043 
L 234.73494 274.325228 
L 234.864491 276.554771 
L 234.994042 275.068722 
L 235.123593 275.329119 
L 235.253144 276.142002 
L 235.382695 274.174473 
L 235.512246 275.317511 
L 235.641796 270.623658 
L 235.771347 276.430774 
L 235.900898 274.801476 
L 236.030449 275.818395 
L 236.16 274.968397 
L 236.289551 272.268654 
L 236.419102 275.041161 
L 236.548653 274.916897 
L 236.678204 275.452626 
L 236.807754 270.297611 
L 237.066856 275.458803 
L 237.196407 274.93339 
L 237.455509 265.831473 
L 237.58506 275.015377 
L 237.844162 277.783871 
L 237.973713 269.881965 
L 238.103263 275.229803 
L 238.232814 271.067432 
L 238.491916 279.96315 
L 238.621467 277.376621 
L 238.751018 277.358285 
L 238.880569 275.222606 
L 239.01012 285.712495 
L 239.139671 275.045708 
L 239.269222 274.955308 
L 239.528323 275.022004 
L 239.657874 270.844402 
L 239.787425 274.94602 
L 239.916976 274.933699 
L 240.046527 277.442004 
L 240.176078 274.979796 
L 240.305629 277.220782 
L 240.43518 274.719734 
L 240.56473 274.998159 
L 240.694281 270.585774 
L 240.823832 276.014005 
L 240.953383 274.530062 
L 241.212485 275.070778 
L 241.342036 276.787204 
L 241.471587 275.097129 
L 241.860239 275.109414 
L 241.98979 275.297499 
L 242.119341 275.016144 
L 242.378443 281.524476 
L 242.507994 279.701221 
L 242.767096 270.374563 
L 242.896647 277.625676 
L 243.155748 269.49847 
L 243.285299 275.041424 
L 243.41485 272.417215 
L 243.544401 279.328875 
L 243.673952 274.669875 
L 243.803503 275.077414 
L 244.062605 281.483718 
L 244.192156 274.918903 
L 244.321706 274.80903 
L 244.451257 277.394219 
L 244.580808 288.257284 
L 244.710359 275.700584 
L 244.83991 279.731344 
L 244.969461 276.638019 
L 245.099012 278.994171 
L 245.228563 275.002807 
L 245.358114 267.49377 
L 245.487665 275.823134 
L 245.617215 276.933795 
L 245.746766 280.574767 
L 246.005868 274.951951 
L 246.135419 276.685439 
L 246.26497 275.04032 
L 246.394521 275.490864 
L 246.524072 275.176884 
L 246.653623 277.712633 
L 246.783173 274.972334 
L 247.042275 283.100835 
L 247.171826 275.018101 
L 247.301377 274.83643 
L 247.560479 274.899527 
L 247.69003 272.402398 
L 247.819581 284.721179 
L 247.949132 267.510173 
L 248.078682 272.439601 
L 248.208233 264.409491 
L 248.467335 278.877457 
L 248.596886 275.171964 
L 248.726437 276.278254 
L 248.855988 266.63976 
L 248.985539 276.724792 
L 249.11509 273.703362 
L 249.24464 274.654315 
L 249.374191 268.728321 
L 249.503742 276.42162 
L 249.633293 274.970964 
L 249.762844 276.942711 
L 250.151497 272.103927 
L 250.281048 275.035339 
L 250.410599 274.991227 
L 250.540149 276.049504 
L 250.6697 274.482619 
L 250.799251 274.960851 
L 250.928802 286.686966 
L 251.058353 275.923667 
L 251.187904 277.120725 
L 251.447006 274.15304 
L 251.576557 276.779848 
L 251.706108 264.055994 
L 251.965209 278.883748 
L 252.09476 274.242285 
L 252.224311 280.944631 
L 252.353862 275.370894 
L 252.483413 284.113327 
L 252.612964 271.868441 
L 252.742515 275.074369 
L 253.001616 274.984624 
L 253.131167 274.862064 
L 253.390269 278.546729 
L 253.51982 280.182392 
L 253.649371 274.975427 
L 253.908473 277.359716 
L 254.167575 274.986543 
L 254.297125 265.749205 
L 254.426676 277.597551 
L 254.556227 276.258847 
L 254.815329 268.662659 
L 254.94488 279.733903 
L 255.074431 278.937255 
L 255.203982 274.979163 
L 255.463084 275.319815 
L 255.592634 275.136012 
L 255.722185 275.459012 
L 255.981287 273.395057 
L 256.110838 275.062447 
L 256.240389 269.948413 
L 256.36994 277.748634 
L 256.499491 274.290546 
L 256.629042 275.164167 
L 256.758592 264.804522 
L 256.888143 274.960179 
L 257.017694 274.927693 
L 257.147245 265.713829 
L 257.276796 274.94851 
L 257.406347 274.992262 
L 257.535898 278.936737 
L 257.665449 287.687455 
L 258.054101 275.00805 
L 258.313203 284.424599 
L 258.442754 276.388898 
L 258.572305 277.393268 
L 258.701856 275.36313 
L 258.831407 282.440676 
L 258.960958 274.860671 
L 259.090509 275.498715 
L 259.220059 271.024552 
L 259.34961 275.0202 
L 259.479161 271.959059 
L 259.738263 289.775907 
L 259.867814 275.433061 
L 259.997365 274.942962 
L 260.126916 279.70603 
L 260.515568 269.217636 
L 260.645119 279.127498 
L 260.77467 270.014872 
L 260.904221 277.095227 
L 261.163323 273.764043 
L 261.292874 278.382755 
L 261.551976 273.35388 
L 261.811077 279.193398 
L 261.940628 277.211968 
L 262.070179 267.447058 
L 262.329281 275.074815 
L 262.458832 274.94635 
L 262.588383 276.147542 
L 262.717934 266.860801 
L 262.847485 276.705032 
L 262.977035 276.238295 
L 263.106586 274.833195 
L 263.365688 276.171733 
L 263.495239 272.261918 
L 263.754341 279.495793 
L 263.883892 288.016381 
L 264.013443 274.942846 
L 264.142994 283.459962 
L 264.402095 275.892066 
L 264.531646 276.203635 
L 264.661197 275.831184 
L 264.790748 280.000532 
L 264.920299 266.347774 
L 265.04985 275.397037 
L 265.179401 274.961946 
L 265.308952 275.670712 
L 265.438503 275.185889 
L 265.568053 280.905721 
L 265.697604 275.006726 
L 265.827155 274.968474 
L 265.956706 277.717288 
L 266.086257 274.961039 
L 266.215808 274.769422 
L 266.345359 273.999339 
L 266.47491 275.362714 
L 266.604461 273.265278 
L 266.734011 275.156518 
L 266.863562 280.588959 
L 267.252215 267.970525 
L 267.381766 269.883198 
L 267.640868 283.661647 
L 267.770419 279.430854 
L 267.89997 270.97214 
L 268.159071 281.296249 
L 268.418173 276.511427 
L 268.677275 278.601267 
L 268.806826 270.445197 
L 268.936377 277.683889 
L 269.065928 269.00817 
L 269.195478 279.182867 
L 269.325029 280.268955 
L 269.45458 287.266557 
L 269.713682 266.859868 
L 269.972784 271.83134 
L 270.102335 273.540544 
L 270.231886 277.170267 
L 270.361437 274.849018 
L 270.490987 276.17991 
L 270.620538 275.007917 
L 270.750089 276.757547 
L 270.87964 274.961217 
L 271.009191 274.847053 
L 271.138742 273.493498 
L 271.268293 275.170698 
L 271.397844 273.794603 
L 271.527395 274.900285 
L 271.656946 273.859813 
L 272.045598 277.222315 
L 272.175149 275.328741 
L 272.3047 271.171742 
L 272.434251 285.991417 
L 272.563802 269.962632 
L 272.693353 275.417964 
L 272.822904 272.685271 
L 273.082005 277.188085 
L 273.211556 274.982533 
L 273.341107 275.070393 
L 273.72976 274.969202 
L 273.859311 280.439919 
L 274.118413 272.383515 
L 274.247963 276.58747 
L 274.377514 276.910684 
L 274.507065 278.917498 
L 274.636616 275.135826 
L 274.766167 274.985681 
L 274.895718 275.658181 
L 275.025269 275.018527 
L 275.15482 279.999731 
L 275.284371 266.836574 
L 275.413921 281.667465 
L 275.673023 263.248853 
L 275.802574 276.398773 
L 275.932125 268.92341 
L 276.061676 274.896304 
L 276.191227 273.381718 
L 276.320778 280.16874 
L 276.450329 262.57291 
L 276.57988 275.023191 
L 276.70943 275.006299 
L 276.838981 272.395864 
L 277.098083 279.348015 
L 277.227634 277.489185 
L 277.357185 265.173093 
L 277.486736 277.975686 
L 277.616287 275.892435 
L 277.745838 268.566568 
L 277.875389 278.233128 
L 278.13449 272.917142 
L 278.264041 274.941388 
L 278.393592 285.599482 
L 278.523143 267.981785 
L 278.652694 276.414248 
L 278.782245 269.735505 
L 279.041347 278.087957 
L 279.170897 277.296573 
L 279.429999 273.443181 
L 279.55955 274.954547 
L 279.689101 274.935541 
L 279.818652 275.197053 
L 279.948203 273.932106 
L 280.077754 262.336865 
L 280.207305 263.869701 
L 280.466406 274.989248 
L 280.725508 274.836198 
L 280.855059 277.636343 
L 281.114161 274.999279 
L 281.243712 279.375111 
L 281.373263 275.084568 
L 281.502814 274.988062 
L 281.761915 277.69862 
L 281.891466 274.920282 
L 282.021017 281.757256 
L 282.150568 275.38381 
L 282.280119 275.416945 
L 282.40967 267.003396 
L 282.539221 274.948189 
L 282.668772 274.971609 
L 282.798323 275.215234 
L 282.927873 274.996472 
L 283.057424 275.157184 
L 283.186975 270.233064 
L 283.446077 274.993836 
L 283.575628 270.771959 
L 283.705179 277.220181 
L 283.83473 272.137429 
L 283.964281 272.122654 
L 284.093832 274.872581 
L 284.223382 283.919676 
L 284.352933 270.362534 
L 284.482484 276.051468 
L 284.612035 276.327577 
L 284.741586 274.912073 
L 284.871137 267.29907 
L 285.000688 268.622291 
L 285.130239 286.574422 
L 285.25979 271.683186 
L 285.518891 275.734085 
L 285.648442 276.053372 
L 285.777993 274.748427 
L 285.907544 275.108227 
L 286.037095 277.132798 
L 286.166646 275.026454 
L 286.296197 277.194219 
L 286.425748 274.587655 
L 286.555299 267.742744 
L 286.684849 274.976292 
L 286.8144 274.189871 
L 286.943951 282.980987 
L 287.203053 273.808306 
L 287.332604 274.98071 
L 287.462155 275.096075 
L 287.591706 267.987647 
L 287.721257 275.262594 
L 287.850808 274.099752 
L 287.980358 274.934187 
L 288.109909 274.804504 
L 288.369011 274.133608 
L 288.498562 277.974006 
L 288.628113 274.891323 
L 288.757664 276.545085 
L 288.887215 275.735001 
L 289.016766 280.132893 
L 289.146316 279.646555 
L 289.405418 275.029367 
L 289.534969 277.685968 
L 289.794071 274.933457 
L 289.923622 274.899896 
L 290.053173 274.461729 
L 290.312275 274.955403 
L 290.571376 282.317813 
L 290.700927 274.959251 
L 290.830478 283.978644 
L 290.960029 274.94925 
L 291.08958 274.70065 
L 291.219131 274.708202 
L 291.348682 278.274935 
L 291.478233 270.405929 
L 291.607784 274.978824 
L 291.737334 286.048449 
L 291.866885 274.941234 
L 291.996436 283.720134 
L 292.125987 283.865094 
L 292.255538 274.954892 
L 292.385089 274.467926 
L 292.51464 274.902402 
L 292.644191 277.615239 
L 292.773742 272.996427 
L 293.032843 275.213777 
L 293.162394 267.878419 
L 293.291945 278.278502 
L 293.421496 274.174477 
L 293.551047 279.057133 
L 293.680598 269.128605 
L 293.810149 273.813485 
L 293.9397 270.284664 
L 294.328352 283.862765 
L 294.457903 276.925159 
L 294.717005 283.57637 
L 294.846556 282.020612 
L 294.976107 275.013725 
L 295.105658 276.79924 
L 295.235209 274.93233 
L 295.364759 275.784258 
L 295.49431 278.035383 
L 295.623861 277.475579 
L 295.753412 275.248315 
L 295.882963 275.121961 
L 296.012514 274.036178 
L 296.142065 274.978137 
L 296.271616 278.072526 
L 296.401167 275.008885 
L 296.530718 274.696746 
L 296.660268 278.227657 
L 296.789819 275.152801 
L 296.91937 267.404158 
L 297.048921 274.917051 
L 297.178472 275.040336 
L 297.308023 275.328228 
L 297.437574 270.0332 
L 297.955777 276.664443 
L 298.085328 271.434205 
L 298.214879 278.581135 
L 298.34443 268.748889 
L 298.603532 276.902083 
L 298.733083 272.46253 
L 298.862634 274.781942 
L 298.992185 282.092307 
L 299.121735 275.268259 
L 299.251286 279.157828 
L 299.380837 275.655633 
L 299.510388 275.37678 
L 299.639939 259.084018 
L 299.76949 275.038441 
L 299.899041 275.081696 
L 300.028592 272.803784 
L 300.287694 275.893289 
L 300.417244 274.83089 
L 300.546795 274.980953 
L 300.676346 274.882961 
L 300.805897 275.521733 
L 300.935448 274.956544 
L 301.064999 275.793047 
L 301.19455 280.84586 
L 301.324101 273.550003 
L 301.453652 276.188602 
L 301.583202 275.010081 
L 301.712753 274.919717 
L 301.842304 275.895595 
L 301.971855 275.885177 
L 302.101406 275.352885 
L 302.230957 266.403309 
L 302.360508 265.480389 
L 302.490059 278.622213 
L 302.61961 273.764129 
L 302.749161 277.095477 
L 302.878711 266.798757 
L 303.008262 274.573414 
L 303.267364 277.227316 
L 303.396915 274.319076 
L 303.526466 275.159366 
L 303.656017 274.730805 
L 303.785568 261.364509 
L 303.915119 276.24474 
L 304.04467 274.863413 
L 304.17422 274.74678 
L 304.303771 270.908482 
L 304.433322 270.647833 
L 304.562873 269.939949 
L 304.692424 281.949979 
L 304.821975 272.789796 
L 305.081077 286.832406 
L 305.340178 274.765311 
L 305.469729 274.963984 
L 305.59928 275.52872 
L 305.728831 287.217804 
L 305.858382 275.202468 
L 305.987933 276.281605 
L 306.117484 275.029221 
L 306.247035 276.891038 
L 306.376586 269.172759 
L 306.506137 278.708992 
L 307.02434 274.957538 
L 307.153891 276.126975 
L 307.283442 282.188284 
L 307.542544 274.66782 
L 307.672095 275.010801 
L 307.801646 264.79061 
L 308.060747 278.107353 
L 308.190298 280.533272 
L 308.4494 273.573592 
L 308.708502 271.878354 
L 308.838053 263.424265 
L 309.097154 275.023351 
L 309.226705 267.858917 
L 309.356256 274.970175 
L 309.615358 275.012066 
L 309.744909 273.220033 
L 310.004011 276.608137 
L 310.133562 274.955358 
L 310.263113 275.240325 
L 310.392663 275.041731 
L 310.522214 259.263712 
L 310.651765 275.413544 
L 310.781316 274.916785 
L 310.910867 286.709302 
L 311.040418 275.047905 
L 311.169969 275.034385 
L 311.29952 268.467969 
L 311.429071 281.731979 
L 311.688172 272.118273 
L 311.817723 288.768529 
L 311.947274 267.801881 
L 312.076825 275.090894 
L 312.335927 271.951363 
L 312.465478 272.970255 
L 312.595029 276.214278 
L 312.72458 274.941197 
L 312.85413 274.943113 
L 312.983681 268.334513 
L 313.113232 281.577883 
L 313.372334 267.351951 
L 313.501885 276.044543 
L 313.631436 274.98338 
L 313.760987 271.122535 
L 313.890538 274.908353 
L 314.020089 274.91993 
L 314.149639 280.060066 
L 314.27919 273.808446 
L 314.408741 259.069159 
L 314.667843 275.287112 
L 314.797394 272.002137 
L 315.056496 279.049755 
L 315.186047 275.026687 
L 315.315597 274.91869 
L 315.445148 270.629175 
L 315.574699 275.00186 
L 315.70425 274.859242 
L 315.833801 281.007144 
L 315.963352 270.275601 
L 316.092903 274.886796 
L 316.222454 270.96909 
L 316.352005 274.998363 
L 316.481556 274.929333 
L 316.611106 275.015814 
L 316.740657 271.53562 
L 317.12931 285.163102 
L 317.258861 274.675741 
L 317.388412 283.60202 
L 317.517963 275.426364 
L 317.647514 277.794033 
L 317.777064 273.854335 
L 318.036166 276.179985 
L 318.165717 271.299677 
L 318.295268 276.487545 
L 318.424819 274.920223 
L 318.55437 269.886339 
L 318.813472 275.220363 
L 318.943023 275.021659 
L 319.072573 275.45497 
L 319.202124 272.582674 
L 319.331675 283.352991 
L 319.461226 284.65875 
L 319.590777 275.746425 
L 319.849879 273.76438 
L 319.97943 283.518021 
L 320.108981 276.043113 
L 320.238532 275.039033 
L 320.368082 260.473307 
L 320.497633 275.091864 
L 320.627184 272.433031 
L 320.886286 280.447078 
L 321.015837 275.225601 
L 321.145388 274.964898 
L 321.274939 276.042711 
L 321.40449 274.659629 
L 321.663591 268.98223 
L 321.793142 276.577772 
L 321.922693 274.315399 
L 322.052244 275.494299 
L 322.181795 274.972519 
L 322.311346 261.862838 
L 322.570448 275.283135 
L 322.699999 277.958726 
L 322.829549 273.267044 
L 322.9591 277.850797 
L 323.088651 269.749952 
L 323.347753 280.812381 
L 323.606855 275.029949 
L 323.736406 279.425047 
L 323.865957 275.061462 
L 323.995508 275.030424 
L 324.125058 275.696819 
L 324.254609 273.916642 
L 324.38416 267.693562 
L 324.513711 277.816552 
L 324.643262 274.965561 
L 324.902364 279.191915 
L 325.031915 275.262336 
L 325.291016 263.944033 
L 325.420567 279.006562 
L 325.550118 269.931612 
L 325.80922 283.690171 
L 325.938771 275.048064 
L 326.068322 277.457309 
L 326.197873 269.426143 
L 326.327424 275.912052 
L 326.456975 274.960337 
L 326.586525 275.179281 
L 326.716076 281.15075 
L 326.845627 261.352971 
L 327.104729 276.385444 
L 327.23428 278.305045 
L 327.363831 274.310897 
L 327.493382 274.954076 
L 327.622933 277.05635 
L 327.752483 275.093168 
L 327.882034 274.98341 
L 328.011585 275.270092 
L 328.141136 284.028693 
L 328.270687 280.893549 
L 328.529789 269.237922 
L 328.918442 279.360738 
L 329.047992 275.69341 
L 329.177543 276.8134 
L 329.307094 275.074678 
L 329.436645 274.968383 
L 329.566196 280.60745 
L 329.695747 277.864255 
L 329.825298 278.036848 
L 329.954849 285.980913 
L 330.0844 271.021449 
L 330.213951 276.988581 
L 330.343501 274.956761 
L 330.861705 275.185839 
L 330.991256 272.125578 
L 331.120807 279.46213 
L 331.250358 267.858142 
L 331.509459 275.030791 
L 331.63901 268.81565 
L 331.898112 279.600551 
L 332.157214 275.037204 
L 332.286765 275.171643 
L 332.416316 275.867803 
L 332.545867 264.171547 
L 332.675418 275.03605 
L 332.804968 275.111346 
L 332.934519 274.985867 
L 333.06407 275.222574 
L 333.193621 276.548472 
L 333.323172 270.238326 
L 333.452723 275.11919 
L 333.711825 266.246219 
L 333.841376 275.301526 
L 333.970927 266.081816 
L 334.230028 278.387216 
L 334.359579 274.935061 
L 334.48913 280.849232 
L 334.618681 272.123648 
L 334.748232 289.670366 
L 334.877783 274.822698 
L 335.007334 274.878873 
L 335.266435 277.523211 
L 335.395986 277.200382 
L 335.525537 281.186807 
L 335.655088 274.971988 
L 336.043741 276.601256 
L 336.173292 276.061012 
L 336.302843 280.603233 
L 336.432394 279.291364 
L 336.561944 273.311294 
L 336.691495 274.999251 
L 336.821046 270.895855 
L 336.950597 261.246931 
L 337.209699 275.323285 
L 337.33925 270.580713 
L 337.468801 274.979395 
L 337.598352 266.503842 
L 337.727902 275.481689 
L 337.857453 271.856286 
L 337.987004 274.936642 
L 338.116555 271.066814 
L 338.375657 278.968825 
L 338.505208 277.484204 
L 338.634759 271.357053 
L 338.76431 274.98113 
L 338.893861 269.730905 
L 339.023411 277.800098 
L 339.152962 275.930882 
L 339.282513 281.153684 
L 339.671166 266.886721 
L 339.930268 276.657194 
L 340.059819 276.576957 
L 340.18937 274.92551 
L 340.31892 276.331989 
L 340.448471 274.716281 
L 340.578022 265.775692 
L 340.707573 275.572672 
L 340.837124 268.130868 
L 340.966675 274.469922 
L 341.096226 274.998791 
L 341.225777 273.055612 
L 341.355328 286.206687 
L 341.484878 274.993178 
L 341.614429 282.702435 
L 341.873531 274.953476 
L 342.003082 275.389907 
L 342.132633 281.179909 
L 342.262184 275.122991 
L 342.391735 275.069314 
L 342.521286 275.610853 
L 342.650837 275.019055 
L 342.780387 281.165298 
L 342.909938 273.178557 
L 343.039489 275.402801 
L 343.16904 287.60676 
L 343.298591 275.259005 
L 343.428142 275.130755 
L 343.557693 276.776836 
L 343.687244 274.932151 
L 343.816795 290.355269 
L 343.946345 274.056931 
L 344.075896 277.39984 
L 344.205447 274.429939 
L 344.464549 277.285925 
L 344.5941 271.212414 
L 344.723651 274.329689 
L 344.853202 265.128112 
L 345.112304 275.060314 
L 345.241854 275.401426 
L 345.371405 275.02118 
L 345.630507 274.851629 
L 345.760058 281.166026 
L 345.889609 275.164033 
L 346.01916 275.04325 
L 346.148711 275.096187 
L 346.278262 275.602641 
L 346.407813 280.426959 
L 346.537363 271.874388 
L 346.666914 274.420801 
L 346.796465 270.893453 
L 346.926016 277.870904 
L 347.055567 272.480032 
L 347.185118 280.07738 
L 347.44422 273.867271 
L 347.573771 275.087016 
L 347.703321 274.957206 
L 347.832872 277.142677 
L 347.962423 274.725165 
L 348.091974 275.010676 
L 348.221525 274.935308 
L 348.351076 285.480752 
L 348.610178 267.949438 
L 348.86928 277.208995 
L 348.99883 278.664961 
L 349.128381 275.539665 
L 349.257932 281.019326 
L 349.387483 269.693072 
L 349.517034 275.117919 
L 349.776136 269.175224 
L 349.905687 278.944394 
L 350.035238 266.381859 
L 350.294339 276.273427 
L 350.42389 279.940947 
L 350.553441 275.031606 
L 350.682992 275.078616 
L 350.812543 273.39897 
L 350.942094 274.264309 
L 351.071645 274.31668 
L 351.201196 276.279075 
L 351.330747 271.413935 
L 351.460297 281.538258 
L 351.589848 275.79091 
L 351.719399 275.028118 
L 351.84895 263.214056 
L 351.978501 273.984935 
L 352.237603 274.987133 
L 352.367154 274.125575 
L 352.626256 275.694437 
L 352.755806 287.254596 
L 352.885357 281.261361 
L 353.014908 265.968117 
L 353.144459 281.403827 
L 353.27401 273.72827 
L 353.403561 279.132365 
L 353.533112 274.983243 
L 353.662663 274.964038 
L 353.792214 277.05251 
L 354.051315 274.653623 
L 354.180866 277.612493 
L 354.310417 274.901683 
L 354.439968 276.029181 
L 354.569519 278.593094 
L 354.69907 275.006289 
L 354.828621 274.996829 
L 354.958172 273.239285 
L 355.087723 282.267847 
L 355.217273 275.035123 
L 355.346824 276.838168 
L 355.476375 272.706945 
L 355.605926 275.041174 
L 355.735477 285.622708 
L 355.994579 273.604218 
L 356.12413 283.829556 
L 356.383232 274.867279 
L 356.512782 290.348199 
L 356.642333 275.005365 
L 356.771884 274.821345 
L 356.901435 274.973335 
L 357.030986 280.85925 
L 357.160537 280.825198 
L 357.290088 270.340016 
L 357.419639 274.940887 
L 357.54919 292.935045 
L 357.67874 262.235233 
L 357.808291 283.67932 
L 357.937842 274.805173 
L 358.067393 279.964252 
L 358.196944 274.921251 
L 358.326495 275.007224 
L 358.456046 271.617625 
L 358.585597 274.587935 
L 358.715148 270.97173 
L 358.974249 276.156184 
L 359.1038 268.157219 
L 359.233351 274.983592 
L 359.362902 274.677127 
L 359.492453 275.47698 
L 359.622004 275.000924 
L 359.751555 264.495917 
L 359.881106 275.006922 
L 360.010657 273.821957 
L 360.140208 275.074916 
L 360.269758 266.977156 
L 360.52886 281.86617 
L 360.658411 272.30665 
L 360.787962 282.491958 
L 360.917513 272.687616 
L 361.047064 275.488425 
L 361.176615 283.873446 
L 361.306166 274.934493 
L 361.435716 274.942306 
L 361.565267 276.098103 
L 361.694818 275.209868 
L 361.824369 278.410655 
L 361.95392 275.03966 
L 362.083471 264.802409 
L 362.213022 278.021769 
L 362.342573 279.189115 
L 362.601675 270.488937 
L 362.731225 275.004 
L 362.860776 274.957899 
L 363.119878 275.843915 
L 363.249429 280.955824 
L 363.37898 273.043944 
L 363.508531 274.967441 
L 363.638082 284.988993 
L 363.897183 274.998048 
L 364.026734 269.017874 
L 364.156285 274.997752 
L 364.285836 274.785539 
L 364.544938 275.026165 
L 364.674489 272.924488 
L 364.933591 277.652564 
L 365.192692 276.356043 
L 365.322243 274.993145 
L 365.451794 270.838732 
L 365.581345 275.028091 
L 365.710896 275.004938 
L 365.969998 279.614488 
L 366.099549 264.376605 
L 366.358651 284.951667 
L 366.488201 259.383503 
L 366.747303 278.204645 
L 367.006405 274.431892 
L 367.135956 277.564759 
L 367.265507 285.530223 
L 367.395058 276.035996 
L 367.524609 275.159483 
L 367.654159 264.904727 
L 367.913261 276.907393 
L 368.042812 275.085879 
L 368.172363 270.23614 
L 368.301914 275.063501 
L 368.561016 274.903449 
L 368.690567 279.241658 
L 368.820118 274.956235 
L 368.949668 280.748586 
L 369.079219 274.955664 
L 369.20877 281.65157 
L 369.338321 274.955407 
L 369.467872 275.121505 
L 369.597423 276.748927 
L 369.726974 274.881274 
L 369.856525 274.932758 
L 369.986076 287.30566 
L 370.115626 275.800554 
L 370.245177 275.975077 
L 370.374728 280.1369 
L 370.504279 269.532301 
L 370.63383 271.926835 
L 370.763381 265.74647 
L 370.892932 285.363865 
L 371.022483 272.120499 
L 371.152034 276.616354 
L 371.281585 267.659292 
L 371.411135 270.476474 
L 371.670237 286.177701 
L 371.929339 268.709678 
L 372.05889 274.897376 
L 372.188441 275.03274 
L 372.317992 280.183884 
L 372.577094 274.9013 
L 372.706644 275.666837 
L 372.836195 274.480257 
L 372.965746 275.229993 
L 373.095297 279.52761 
L 373.224848 274.963682 
L 373.354399 276.077641 
L 373.48395 280.699655 
L 373.613501 275.204505 
L 373.743052 276.884953 
L 373.872602 268.267964 
L 374.131704 285.288342 
L 374.261255 273.36968 
L 374.390806 276.554695 
L 374.520357 274.896708 
L 374.649908 279.69106 
L 374.90901 274.866466 
L 375.038561 276.030123 
L 375.168111 267.418823 
L 375.297662 275.11406 
L 375.427213 274.909789 
L 375.556764 282.005245 
L 375.686315 274.983303 
L 375.815866 274.213981 
L 375.945417 275.201035 
L 376.074968 277.764357 
L 376.204519 277.234076 
L 376.33407 274.988692 
L 376.46362 267.845454 
L 376.593171 269.842833 
L 376.722722 275.703386 
L 376.852273 275.818963 
L 376.981824 275.126605 
L 377.111375 282.755542 
L 377.240926 274.95721 
L 377.370477 275.324865 
L 377.500028 276.139104 
L 377.629578 271.621163 
L 377.88868 276.058353 
L 378.018231 285.406727 
L 378.147782 272.514223 
L 378.406884 278.606533 
L 378.665986 271.452928 
L 378.795537 275.131169 
L 378.925087 275.024768 
L 379.054638 271.291915 
L 379.184189 273.196833 
L 379.31374 279.555692 
L 379.443291 271.921108 
L 379.572842 275.329882 
L 379.702393 273.300369 
L 379.831944 266.679486 
L 380.091045 278.329162 
L 380.220596 270.748805 
L 380.350147 276.277901 
L 380.479698 274.833241 
L 380.609249 275.431142 
L 380.7388 286.40251 
L 380.868351 275.166874 
L 381.127453 280.64152 
L 381.386554 276.118788 
L 381.516105 275.229427 
L 381.645656 280.760763 
L 381.775207 275.122408 
L 381.904758 275.019567 
L 382.034309 278.478372 
L 382.16386 275.395152 
L 382.293411 277.17196 
L 382.422962 275.742513 
L 382.552513 279.160925 
L 382.682063 274.847502 
L 382.811614 283.750327 
L 383.070716 269.467392 
L 383.200267 269.246582 
L 383.329818 281.826242 
L 383.459369 271.367339 
L 383.58892 275.776063 
L 383.718471 267.295594 
L 383.848021 274.98343 
L 383.977572 274.985432 
L 384.107123 277.536745 
L 384.236674 277.2289 
L 384.366225 274.463752 
L 384.625327 275.015081 
L 384.754878 276.273283 
L 384.884429 274.96135 
L 385.14353 274.95301 
L 385.273081 276.766194 
L 385.402632 274.982869 
L 385.532183 270.039844 
L 385.791285 270.534781 
L 385.920836 274.999664 
L 386.050387 275.233837 
L 386.309489 283.122394 
L 386.439039 271.5491 
L 386.698141 277.366137 
L 386.827692 267.725912 
L 386.957243 278.57962 
L 387.086794 274.805764 
L 387.216345 279.386917 
L 387.604997 271.771597 
L 387.734548 279.249171 
L 387.864099 266.847844 
L 387.99365 270.203253 
L 388.123201 287.491947 
L 388.252752 276.127282 
L 388.382303 274.979102 
L 388.511854 275.429055 
L 388.641405 274.994975 
L 388.770956 275.502129 
L 388.900506 271.602186 
L 389.030057 275.024447 
L 389.159608 271.89353 
L 389.41871 275.638893 
L 389.548261 277.418452 
L 389.807363 274.718127 
L 389.936914 276.913509 
L 390.196015 273.91531 
L 390.325566 275.421543 
L 390.455117 282.730516 
L 390.584668 274.963114 
L 390.714219 275.025025 
L 390.84377 275.57707 
L 390.973321 275.186055 
L 391.102872 277.399984 
L 391.232423 276.415393 
L 391.361973 269.2189 
L 391.621075 287.495479 
L 391.750626 277.167959 
L 391.880177 281.108045 
L 392.139279 269.866843 
L 392.527932 276.92828 
L 392.657482 277.663725 
L 392.787033 275.238225 
L 392.916584 266.013802 
L 393.046135 275.009007 
L 393.175686 275.203947 
L 393.305237 269.532253 
L 393.434788 277.744752 
L 393.69389 274.857211 
L 393.82344 274.982898 
L 393.952991 262.220342 
L 394.082542 275.496408 
L 394.212093 266.900191 
L 394.341644 274.706382 
L 394.471195 274.965317 
L 394.600746 279.528223 
L 394.859848 274.71732 
L 394.989399 274.862561 
L 395.118949 276.734431 
L 395.378051 275.006873 
L 395.507602 275.007223 
L 395.637153 265.126127 
L 395.896255 282.528825 
L 396.025806 279.419383 
L 396.284907 282.617552 
L 396.544009 262.62348 
L 396.67356 260.830787 
L 396.932662 275.004374 
L 397.062213 270.57735 
L 397.191764 278.577497 
L 397.321315 274.135885 
L 397.580416 275.248651 
L 397.709967 274.400066 
L 397.839518 275.181943 
L 397.969069 286.963973 
L 398.09862 274.260806 
L 398.487273 284.007936 
L 398.487273 284.007936 
" clip-path="url(#pbfda9a8ae4)" style="fill: none; stroke: #008000; stroke-width: 1.5; stroke-linecap: square"/>
   </g>
   <g id="line2d_28">
    <path d="M 73.832727 53.568 
L 74.22138 53.568 
L 74.350931 104.661821 
L 74.480482 53.568 
L 74.998685 53.568 
L 75.128236 217.547808 
L 75.257787 53.568 
L 76.294194 53.568 
L 76.423745 151.697649 
L 76.553296 53.568 
L 77.719254 53.568 
L 77.848805 115.360166 
L 77.978356 53.568 
L 78.49656 53.568 
L 78.62611 212.383089 
L 78.755661 53.568 
L 79.273865 53.568 
L 79.403416 205.742737 
L 79.532967 167.560712 
L 79.662518 53.568 
L 81.994434 53.568 
L 82.123985 171.987614 
L 82.253536 53.568 
L 82.383086 53.568 
L 82.512637 242.449128 
L 82.642188 53.568 
L 82.90129 53.568 
L 83.030841 201.684744 
L 83.160392 53.568 
L 84.455901 53.568 
L 84.585452 128.087508 
L 84.715003 53.568 
L 85.362757 53.568 
L 85.492308 240.78904 
L 85.621859 53.568 
L 87.694673 53.568 
L 87.824224 226.770519 
L 87.953775 53.568 
L 88.083326 53.568 
L 88.212877 81.05168 
L 88.342428 53.568 
L 89.378835 53.568 
L 89.508386 250.196206 
L 89.637937 212.751998 
L 89.767487 53.568 
L 90.544793 53.568 
L 90.674344 194.491029 
L 90.803895 53.568 
L 95.079074 53.568 
L 95.208625 105.768546 
L 95.467727 53.568 
L 97.281439 53.568 
L 97.41099 147.82411 
L 97.540541 53.568 
L 98.576948 53.568 
L 98.706499 241.157949 
L 98.83605 53.568 
L 98.965601 235.439867 
L 99.095152 53.568 
L 99.742906 53.568 
L 99.872457 68.693247 
L 100.002008 53.568 
L 101.297517 53.568 
L 101.427068 143.950571 
L 101.556619 145.057296 
L 101.68617 53.568 
L 102.333924 53.568 
L 102.463475 228.061698 
L 102.722577 126.980782 
L 102.852128 53.568 
L 103.370332 53.568 
L 103.499882 185.637226 
L 103.629433 53.568 
L 110.495631 53.568 
L 110.625182 217.363353 
L 110.754733 53.568 
L 111.013834 53.568 
L 111.143385 257.205466 
L 111.272936 53.568 
L 111.661589 53.568 
L 111.79114 223.450343 
L 111.920691 53.568 
L 112.309343 53.568 
L 112.438894 247.798301 
L 112.568445 53.568 
L 112.697996 53.568 
L 112.827547 247.244938 
L 112.957098 53.568 
L 113.2162 53.568 
L 113.345751 242.633582 
L 113.475301 53.568 
L 114.123056 53.568 
L 114.252607 63.344074 
L 114.382158 53.568 
L 115.029912 53.568 
L 115.159463 255.914287 
L 115.289014 53.568 
L 116.714074 53.568 
L 116.843625 243.371399 
L 116.973176 53.568 
L 118.786888 53.568 
L 118.916439 203.160378 
L 119.175541 53.568 
L 120.600601 53.568 
L 120.730152 131.776592 
L 120.859703 53.568 
L 120.989253 249.08948 
L 121.118804 53.568 
L 122.025661 53.568 
L 122.155211 265.321452 
L 122.284762 53.568 
L 123.062068 53.568 
L 123.191619 242.449128 
L 123.45072 53.568 
L 124.746229 53.568 
L 124.87578 103.186187 
L 125.005331 53.568 
L 128.244104 53.568 
L 128.373655 106.137455 
L 128.503205 53.568 
L 128.891858 53.568 
L 129.021409 200.024656 
L 129.15096 53.568 
L 129.280511 53.568 
L 129.410062 250.749568 
L 129.539613 53.568 
L 130.446469 53.568 
L 130.57602 254.069744 
L 130.705571 53.568 
L 131.741978 53.568 
L 131.871529 144.31948 
L 132.00108 53.568 
L 132.260181 53.568 
L 132.389732 73.857965 
L 132.519283 53.568 
L 133.167038 53.568 
L 133.296589 246.691575 
L 133.426139 53.568 
L 136.276259 53.568 
L 136.40581 249.642843 
L 136.535361 53.568 
L 137.83087 53.568 
L 137.960421 252.963019 
L 138.089972 53.568 
L 138.219523 53.568 
L 138.349073 121.447155 
L 138.478624 53.568 
L 139.126379 53.568 
L 139.25593 88.614303 
L 139.385481 53.568 
L 139.644582 53.568 
L 139.774133 225.663793 
L 139.903684 53.568 
L 140.033235 202.053652 
L 140.162786 53.568 
L 140.940091 53.568 
L 141.069642 254.254199 
L 141.199193 53.568 
L 144.049313 53.568 
L 144.178864 140.077032 
L 144.308415 53.568 
L 146.769882 53.568 
L 146.899433 200.762473 
L 147.028984 53.568 
L 149.231349 53.568 
L 149.3609 56.703722 
L 149.490451 53.568 
L 149.620001 53.568 
L 149.749552 133.621134 
L 149.879103 53.568 
L 150.526858 53.568 
L 150.656409 201.315836 
L 150.78596 53.568 
L 151.045061 53.568 
L 151.174612 251.487385 
L 151.433714 53.568 
L 151.951918 53.568 
L 152.081468 187.666223 
L 152.211019 53.568 
L 153.636079 53.568 
L 153.76563 248.536118 
L 153.895181 53.568 
L 157.004403 53.568 
L 157.133953 114.806803 
L 157.263504 53.568 
L 157.652157 53.568 
L 157.781708 215.334357 
L 157.911259 53.568 
L 158.299911 53.568 
L 158.429462 237.468864 
L 158.559013 53.568 
L 160.761379 53.568 
L 160.890929 253.88529 
L 161.02048 53.568 
L 161.150031 53.568 
L 161.279582 70.722243 
L 161.409133 53.568 
L 161.927337 53.568 
L 162.056887 250.38066 
L 162.315989 53.568 
L 164.907007 53.568 
L 165.036558 219.576804 
L 165.166109 53.568 
L 165.554762 53.568 
L 165.684313 255.545378 
L 165.813863 53.568 
L 168.27533 53.568 
L 168.404881 191.170853 
L 168.534432 53.568 
L 168.663983 53.568 
L 168.793534 205.927191 
L 168.923085 53.568 
L 169.052636 246.507121 
L 169.182187 53.568 
L 169.311738 229.352878 
L 169.441289 53.568 
L 169.570839 53.568 
L 169.70039 119.602613 
L 169.829941 53.568 
L 171.255001 53.568 
L 171.384552 181.394779 
L 171.514103 53.568 
L 172.291408 53.568 
L 172.420959 245.953758 
L 172.55051 53.568 
L 172.680061 160.366997 
L 172.809612 53.568 
L 175.530181 53.568 
L 175.659732 244.478125 
L 175.789282 53.568 
L 177.991648 53.568 
L 178.121199 153.357737 
L 178.250749 53.568 
L 179.675809 53.568 
L 179.934911 220.867984 
L 180.064462 53.568 
L 181.489522 53.568 
L 181.619073 217.178899 
L 181.748624 53.568 
L 183.821438 53.568 
L 183.950989 183.60823 
L 184.08054 53.568 
L 184.210091 262.18573 
L 184.339642 53.568 
L 185.764701 53.568 
L 185.894252 232.857508 
L 186.023803 53.568 
L 186.153354 149.668652 
L 186.282905 53.568 
L 188.355719 53.568 
L 188.48527 123.84506 
L 188.614821 53.568 
L 189.133025 53.568 
L 189.262576 248.536118 
L 189.392127 53.568 
L 189.521677 255.914287 
L 189.780779 53.568 
L 190.039881 53.568 
L 190.169432 93.225659 
L 190.298983 53.568 
L 190.428534 53.568 
L 190.558085 217.732262 
L 190.687635 53.568 
L 191.724043 53.568 
L 191.853594 237.653318 
L 191.983144 53.568 
L 192.242246 53.568 
L 192.371797 205.189374 
L 192.501348 53.568 
L 193.926408 53.568 
L 194.055959 242.449128 
L 194.18551 53.568 
L 197.553833 53.568 
L 197.683384 110.379902 
L 197.812935 53.568 
L 198.719791 53.568 
L 198.849342 253.700836 
L 198.978893 53.568 
L 199.108444 53.568 
L 199.237995 216.441082 
L 199.367546 53.568 
L 201.181258 53.568 
L 201.310809 232.673054 
L 201.44036 53.568 
L 203.254072 53.568 
L 203.383623 157.046821 
L 203.513174 53.568 
L 208.954312 53.568 
L 209.083863 143.950571 
L 209.213414 53.568 
L 209.602066 53.568 
L 209.731617 157.231275 
L 209.861168 53.568 
L 211.027126 53.568 
L 211.156677 255.17647 
L 211.286228 53.568 
L 212.581737 53.568 
L 212.711288 214.043177 
L 212.840839 53.568 
L 212.97039 218.10117 
L 213.099941 170.51198 
L 213.229491 53.568 
L 215.820509 53.568 
L 215.95006 129.194233 
L 216.079611 53.568 
L 216.338713 53.568 
L 216.468264 239.313406 
L 216.597815 260.525642 
L 216.727366 53.568 
L 216.856916 210.723001 
L 216.986467 53.568 
L 220.095689 53.568 
L 220.22524 150.959832 
L 220.354791 53.568 
L 220.484342 261.447913 
L 220.613892 53.568 
L 223.07536 53.568 
L 223.20491 235.439867 
L 223.464012 53.568 
L 225.666377 53.568 
L 225.795928 197.811205 
L 225.925479 53.568 
L 226.314132 53.568 
L 226.443683 159.813635 
L 226.573234 53.568 
L 226.961886 53.568 
L 227.220988 261.079005 
L 227.350539 53.568 
L 228.257395 53.568 
L 228.386946 266.797086 
L 228.516497 53.568 
L 230.071108 53.568 
L 230.200659 264.399181 
L 230.33021 205.00492 
L 230.459761 53.568 
L 237.325958 53.568 
L 237.455509 80.129409 
L 237.58506 53.568 
L 239.916976 53.568 
L 240.046527 203.344832 
L 240.176078 53.568 
L 244.451257 53.568 
L 244.580808 88.798757 
L 244.710359 53.568 
L 247.69003 53.568 
L 247.819581 208.325096 
L 247.949132 53.568 
L 252.483413 53.568 
L 252.612964 261.632368 
L 252.742515 53.568 
L 253.131167 53.568 
L 253.260718 262.554639 
L 253.390269 53.568 
L 253.51982 258.496646 
L 253.649371 53.568 
L 254.167575 53.568 
L 254.297125 203.529286 
L 254.426676 53.568 
L 258.183652 53.568 
L 258.313203 192.646487 
L 258.442754 53.568 
L 260.386018 53.568 
L 260.515568 201.684744 
L 260.645119 80.129409 
L 260.77467 241.895765 
L 260.904221 53.568 
L 261.940628 53.568 
L 262.070179 206.665008 
L 262.19973 53.568 
L 263.754341 53.568 
L 263.883892 257.205466 
L 264.013443 53.568 
L 264.661197 53.568 
L 264.790748 246.507121 
L 264.920299 53.568 
L 267.252215 53.568 
L 267.381766 252.225202 
L 267.511317 53.568 
L 268.547724 53.568 
L 268.677275 240.235677 
L 268.806826 53.568 
L 269.065928 53.568 
L 269.195478 195.044392 
L 269.325029 53.568 
L 269.584131 53.568 
L 269.713682 229.537332 
L 269.843233 53.568 
L 275.025269 53.568 
L 275.15482 178.81242 
L 275.284371 53.568 
L 275.543472 53.568 
L 275.673023 114.991257 
L 275.802574 53.568 
L 277.227634 53.568 
L 277.357185 161.104814 
L 277.486736 53.568 
L 277.616287 53.568 
L 277.745838 146.717384 
L 277.875389 53.568 
L 278.264041 53.568 
L 278.393592 145.979568 
L 278.523143 53.568 
L 280.077754 53.568 
L 280.207305 143.950571 
L 280.336856 53.568 
L 281.891466 53.568 
L 282.021017 218.838987 
L 282.150568 53.568 
L 283.057424 53.568 
L 283.186975 263.845818 
L 283.316526 53.568 
L 286.8144 53.568 
L 286.943951 89.721028 
L 287.073502 53.568 
L 291.219131 53.568 
L 291.348682 174.01661 
L 291.478233 53.568 
L 291.996436 53.568 
L 292.125987 100.234919 
L 292.255538 53.568 
L 294.717005 53.568 
L 294.846556 134.912314 
L 294.976107 53.568 
L 296.789819 53.568 
L 296.91937 233.964234 
L 297.048921 53.568 
L 298.085328 53.568 
L 298.214879 144.872842 
L 298.34443 53.568 
L 299.510388 53.568 
L 299.639939 226.217156 
L 299.76949 53.568 
L 302.230957 53.568 
L 302.360508 131.961046 
L 302.490059 53.568 
L 303.656017 53.568 
L 303.785568 153.726645 
L 303.915119 53.568 
L 304.17422 53.568 
L 304.303771 257.758829 
L 304.433322 53.568 
L 304.562873 167.376258 
L 304.692424 53.568 
L 308.708502 53.568 
L 308.838053 140.077032 
L 308.967604 53.568 
L 309.097154 53.568 
L 309.226705 129.009779 
L 309.356256 53.568 
L 310.392663 53.568 
L 310.522214 246.87603 
L 310.651765 53.568 
L 313.242783 53.568 
L 313.372334 224.372614 
L 313.501885 53.568 
L 314.27919 53.568 
L 314.408741 223.265889 
L 314.538292 53.568 
L 315.315597 53.568 
L 315.445148 61.683986 
L 315.574699 53.568 
L 316.092903 53.568 
L 316.222454 92.118933 
L 316.352005 53.568 
L 319.331675 53.568 
L 319.461226 214.59654 
L 319.590777 53.568 
L 320.238532 53.568 
L 320.368082 250.749568 
L 320.497633 53.568 
L 320.627184 201.869198 
L 320.756735 190.61749 
L 320.886286 57.257085 
L 321.015837 53.568 
L 322.181795 53.568 
L 322.440897 266.612632 
L 322.570448 53.568 
L 324.772813 53.568 
L 324.902364 261.816822 
L 325.031915 53.568 
L 325.420567 53.568 
L 325.550118 235.070959 
L 325.679669 53.568 
L 329.825298 53.568 
L 329.954849 254.254199 
L 330.0844 53.568 
L 331.768561 53.568 
L 331.898112 100.234919 
L 332.027663 53.568 
L 332.416316 53.568 
L 332.545867 209.062913 
L 332.675418 53.568 
L 333.193621 53.568 
L 333.323172 131.038775 
L 333.452723 53.568 
L 334.618681 53.568 
L 334.748232 243.002491 
L 334.877783 53.568 
L 335.395986 53.568 
L 335.525537 186.375043 
L 335.655088 53.568 
L 336.821046 53.568 
L 336.950597 67.586521 
L 337.080148 53.568 
L 337.468801 53.568 
L 337.598352 253.147473 
L 337.727902 53.568 
L 338.505208 53.568 
L 338.634759 210.907455 
L 338.76431 53.568 
L 339.541615 53.568 
L 339.671166 228.061698 
L 339.800717 53.568 
L 340.448471 53.568 
L 340.578022 54.121363 
L 340.707573 53.568 
L 342.003082 53.568 
L 342.132633 258.6811 
L 342.262184 53.568 
L 343.039489 53.568 
L 343.16904 102.817279 
L 343.298591 53.568 
L 343.687244 53.568 
L 343.816795 247.798301 
L 343.946345 53.568 
L 345.630507 53.568 
L 345.760058 77.547049 
L 345.889609 53.568 
L 349.257932 53.568 
L 349.387483 154.648916 
L 349.517034 53.568 
L 349.646585 53.568 
L 349.776136 231.012966 
L 349.905687 53.568 
L 351.330747 53.568 
L 351.460297 245.769304 
L 351.589848 53.568 
L 352.626256 53.568 
L 352.755806 88.06094 
L 352.885357 57.257085 
L 353.014908 250.749568 
L 353.144459 237.468864 
L 353.27401 53.568 
L 354.958172 53.568 
L 355.087723 260.341188 
L 355.217273 53.568 
L 356.383232 53.568 
L 356.512782 236.362139 
L 356.642333 53.568 
L 357.419639 53.568 
L 357.67874 119.418159 
L 357.808291 53.568 
L 358.974249 53.568 
L 359.1038 207.587279 
L 359.233351 53.568 
L 359.622004 53.568 
L 359.751555 255.545378 
L 359.881106 53.568 
L 362.472124 53.568 
L 362.601675 245.953758 
L 362.731225 53.568 
L 363.119878 53.568 
L 363.249429 243.186945 
L 363.37898 53.568 
L 365.969998 53.568 
L 366.099549 214.780994 
L 366.2291 53.568 
L 366.358651 223.265889 
L 366.747303 53.568 
L 367.524609 53.568 
L 367.654159 228.246153 
L 367.78371 191.724216 
L 367.913261 53.568 
L 368.042812 53.568 
L 368.172363 208.50955 
L 368.301914 53.568 
L 369.856525 53.568 
L 369.986076 200.946927 
L 370.115626 53.568 
L 370.245177 53.568 
L 370.504279 245.769304 
L 370.63383 53.568 
L 370.763381 53.568 
L 370.892932 133.252226 
L 371.022483 53.568 
L 373.354399 53.568 
L 373.48395 176.783423 
L 373.613501 53.568 
L 374.520357 53.568 
L 374.649908 209.80073 
L 374.779459 53.568 
L 375.038561 53.568 
L 375.168111 55.043634 
L 375.297662 53.568 
L 375.427213 53.568 
L 375.556764 150.775377 
L 375.686315 53.568 
L 380.091045 53.568 
L 380.220596 264.399181 
L 380.350147 53.568 
L 380.868351 53.568 
L 380.997902 171.618705 
L 381.127453 53.568 
L 383.070716 53.568 
L 383.200267 227.139427 
L 383.329818 53.568 
L 391.491524 53.568 
L 391.621075 144.872842 
L 391.750626 53.568 
L 393.82344 53.568 
L 393.952991 205.00492 
L 394.082542 53.568 
L 395.507602 53.568 
L 395.637153 254.438653 
L 395.766704 53.568 
L 395.896255 53.568 
L 396.025806 219.023441 
L 396.155357 53.568 
L 396.284907 53.568 
L 396.414458 80.867226 
L 396.544009 53.568 
L 396.67356 217.547808 
L 396.803111 53.568 
L 398.487273 53.568 
L 398.487273 53.568 
" clip-path="url(#pbfda9a8ae4)" style="fill: none; stroke: #0000ff; stroke-width: 1.5; stroke-linecap: square"/>
   </g>
   <g id="patch_3">
    <path d="M 57.6 307.584 
L 57.6 41.472 
" style="fill: none; stroke: #000000; stroke-width: 0.8; stroke-linejoin: miter; stroke-linecap: square"/>
   </g>
   <g id="patch_4">
    <path d="M 414.72 307.584 
L 414.72 41.472 
" style="fill: none; stroke: #000000; stroke-width: 0.8; stroke-linejoin: miter; stroke-linecap: square"/>
   </g>
   <g id="patch_5">
    <path d="M 57.6 307.584 
L 414.72 307.584 
" style="fill: none; stroke: #000000; stroke-width: 0.8; stroke-linejoin: miter; stroke-linecap: square"/>
   </g>
   <g id="patch_6">
    <path d="M 57.6 41.472 
L 414.72 41.472 
" style="fill: none; stroke: #000000; stroke-width: 0.8; stroke-linejoin: miter; stroke-linecap: square"/>
   </g>
   <g id="legend_1">
    <g id="patch_7">
     <path d="M 343.845 190.706125 
L 407.72 190.706125 
Q 409.72 190.706125 409.72 188.706125 
L 409.72 160.349875 
Q 409.72 158.349875 407.72 158.349875 
L 343.845 158.349875 
Q 341.845 158.349875 341.845 160.349875 
L 341.845 188.706125 
Q 341.845 190.706125 343.845 190.706125 
z
" style="fill: #ffffff; opacity: 0.8; stroke: #cccccc; stroke-linejoin: miter"/>
    </g>
    <g id="line2d_29">
     <path d="M 345.845 166.448312 
L 355.845 166.448312 
L 365.845 166.448312 
" style="fill: none; stroke: #008000; stroke-width: 1.5; stroke-linecap: square"/>
    </g>
    <g id="text_14">
     <!-- score -->
     <g transform="translate(373.845 169.948312)scale(0.1 -0.1)">
      <defs>
       <path id="DejaVuSans-73" d="M 2834 3397 
L 2834 2853 
Q 2591 2978 2328 3040 
Q 2066 3103 1784 3103 
Q 1356 3103 1142 2972 
Q 928 2841 928 2578 
Q 928 2378 1081 2264 
Q 1234 2150 1697 2047 
L 1894 2003 
Q 2506 1872 2764 1633 
Q 3022 1394 3022 966 
Q 3022 478 2636 193 
Q 2250 -91 1575 -91 
Q 1294 -91 989 -36 
Q 684 19 347 128 
L 347 722 
Q 666 556 975 473 
Q 1284 391 1588 391 
Q 1994 391 2212 530 
Q 2431 669 2431 922 
Q 2431 1156 2273 1281 
Q 2116 1406 1581 1522 
L 1381 1569 
Q 847 1681 609 1914 
Q 372 2147 372 2553 
Q 372 3047 722 3315 
Q 1072 3584 1716 3584 
Q 2034 3584 2315 3537 
Q 2597 3491 2834 3397 
z
" transform="scale(0.015625)"/>
       <path id="DejaVuSans-63" d="M 3122 3366 
L 3122 2828 
Q 2878 2963 2633 3030 
Q 2388 3097 2138 3097 
Q 1578 3097 1268 2742 
Q 959 2388 959 1747 
Q 959 1106 1268 751 
Q 1578 397 2138 397 
Q 2388 397 2633 464 
Q 2878 531 3122 666 
L 3122 134 
Q 2881 22 2623 -34 
Q 2366 -91 2075 -91 
Q 1284 -91 818 406 
Q 353 903 353 1747 
Q 353 2603 823 3093 
Q 1294 3584 2113 3584 
Q 2378 3584 2631 3529 
Q 2884 3475 3122 3366 
z
" transform="scale(0.015625)"/>
       <path id="DejaVuSans-6f" d="M 1959 3097 
Q 1497 3097 1228 2736 
Q 959 2375 959 1747 
Q 959 1119 1226 758 
Q 1494 397 1959 397 
Q 2419 397 2687 759 
Q 2956 1122 2956 1747 
Q 2956 2369 2687 2733 
Q 2419 3097 1959 3097 
z
M 1959 3584 
Q 2709 3584 3137 3096 
Q 3566 2609 3566 1747 
Q 3566 888 3137 398 
Q 2709 -91 1959 -91 
Q 1206 -91 779 398 
Q 353 888 353 1747 
Q 353 2609 779 3096 
Q 1206 3584 1959 3584 
z
" transform="scale(0.015625)"/>
       <path id="DejaVuSans-72" d="M 2631 2963 
Q 2534 3019 2420 3045 
Q 2306 3072 2169 3072 
Q 1681 3072 1420 2755 
Q 1159 2438 1159 1844 
L 1159 0 
L 581 0 
L 581 3500 
L 1159 3500 
L 1159 2956 
Q 1341 3275 1631 3429 
Q 1922 3584 2338 3584 
Q 2397 3584 2469 3576 
Q 2541 3569 2628 3553 
L 2631 2963 
z
" transform="scale(0.015625)"/>
       <path id="DejaVuSans-65" d="M 3597 1894 
L 3597 1613 
L 953 1613 
Q 991 1019 1311 708 
Q 1631 397 2203 397 
Q 2534 397 2845 478 
Q 3156 559 3463 722 
L 3463 178 
Q 3153 47 2828 -22 
Q 2503 -91 2169 -91 
Q 1331 -91 842 396 
Q 353 884 353 1716 
Q 353 2575 817 3079 
Q 1281 3584 2069 3584 
Q 2775 3584 3186 3129 
Q 3597 2675 3597 1894 
z
M 3022 2063 
Q 3016 2534 2758 2815 
Q 2500 3097 2075 3097 
Q 1594 3097 1305 2825 
Q 1016 2553 972 2059 
L 3022 2063 
z
" transform="scale(0.015625)"/>
      </defs>
      <use xlink:href="#DejaVuSans-73"/>
      <use xlink:href="#DejaVuSans-63" x="52.099609"/>
      <use xlink:href="#DejaVuSans-6f" x="107.080078"/>
      <use xlink:href="#DejaVuSans-72" x="168.261719"/>
      <use xlink:href="#DejaVuSans-65" x="207.125"/>
     </g>
    </g>
    <g id="line2d_30">
     <path d="M 345.845 181.126437 
L 355.845 181.126437 
L 365.845 181.126437 
" style="fill: none; stroke: #0000ff; stroke-width: 1.5; stroke-linecap: square"/>
    </g>
    <g id="text_15">
     <!-- length -->
     <g transform="translate(373.845 184.626437)scale(0.1 -0.1)">
      <defs>
       <path id="DejaVuSans-6c" d="M 603 4863 
L 1178 4863 
L 1178 0 
L 603 0 
L 603 4863 
z
" transform="scale(0.015625)"/>
       <path id="DejaVuSans-6e" d="M 3513 2113 
L 3513 0 
L 2938 0 
L 2938 2094 
Q 2938 2591 2744 2837 
Q 2550 3084 2163 3084 
Q 1697 3084 1428 2787 
Q 1159 2491 1159 1978 
L 1159 0 
L 581 0 
L 581 3500 
L 1159 3500 
L 1159 2956 
Q 1366 3272 1645 3428 
Q 1925 3584 2291 3584 
Q 2894 3584 3203 3211 
Q 3513 2838 3513 2113 
z
" transform="scale(0.015625)"/>
       <path id="DejaVuSans-67" d="M 2906 1791 
Q 2906 2416 2648 2759 
Q 2391 3103 1925 3103 
Q 1463 3103 1205 2759 
Q 947 2416 947 1791 
Q 947 1169 1205 825 
Q 1463 481 1925 481 
Q 2391 481 2648 825 
Q 2906 1169 2906 1791 
z
M 3481 434 
Q 3481 -459 3084 -895 
Q 2688 -1331 1869 -1331 
Q 1566 -1331 1297 -1286 
Q 1028 -1241 775 -1147 
L 775 -588 
Q 1028 -725 1275 -790 
Q 1522 -856 1778 -856 
Q 2344 -856 2625 -561 
Q 2906 -266 2906 331 
L 2906 616 
Q 2728 306 2450 153 
Q 2172 0 1784 0 
Q 1141 0 747 490 
Q 353 981 353 1791 
Q 353 2603 747 3093 
Q 1141 3584 1784 3584 
Q 2172 3584 2450 3431 
Q 2728 3278 2906 2969 
L 2906 3500 
L 3481 3500 
L 3481 434 
z
" transform="scale(0.015625)"/>
       <path id="DejaVuSans-74" d="M 1172 4494 
L 1172 3500 
L 2356 3500 
L 2356 3053 
L 1172 3053 
L 1172 1153 
Q 1172 725 1289 603 
Q 1406 481 1766 481 
L 2356 481 
L 2356 0 
L 1766 0 
Q 1100 0 847 248 
Q 594 497 594 1153 
L 594 3053 
L 172 3053 
L 172 3500 
L 594 3500 
L 594 4494 
L 1172 4494 
z
" transform="scale(0.015625)"/>
       <path id="DejaVuSans-68" d="M 3513 2113 
L 3513 0 
L 2938 0 
L 2938 2094 
Q 2938 2591 2744 2837 
Q 2550 3084 2163 3084 
Q 1697 3084 1428 2787 
Q 1159 2491 1159 1978 
L 1159 0 
L 581 0 
L 581 4863 
L 1159 4863 
L 1159 2956 
Q 1366 3272 1645 3428 
Q 1925 3584 2291 3584 
Q 2894 3584 3203 3211 
Q 3513 2838 3513 2113 
z
" transform="scale(0.015625)"/>
      </defs>
      <use xlink:href="#DejaVuSans-6c"/>
      <use xlink:href="#DejaVuSans-65" x="27.783203"/>
      <use xlink:href="#DejaVuSans-6e" x="89.306641"/>
      <use xlink:href="#DejaVuSans-67" x="152.685547"/>
      <use xlink:href="#DejaVuSans-74" x="216.162109"/>
      <use xlink:href="#DejaVuSans-68" x="255.371094"/>
     </g>
    </g>
   </g>
  </g>
 </g>
 <defs>
  <clipPath id="pbfda9a8ae4">
   <rect x="57.6" y="41.472" width="357.12" height="266.112"/>
  </clipPath>
 </defs>
</svg>
