<?xml version="1.0" encoding="utf-8" standalone="no"?>
<!DOCTYPE svg PUBLIC "-//W3C//DTD SVG 1.1//EN"
  "http://www.w3.org/Graphics/SVG/1.1/DTD/svg11.dtd">
<svg xmlns:xlink="http://www.w3.org/1999/xlink" width="460.8pt" height="345.6pt" viewBox="0 0 460.8 345.6" xmlns="http://www.w3.org/2000/svg" version="1.1">
 <metadata>
  <rdf:RDF xmlns:dc="http://purl.org/dc/elements/1.1/" xmlns:cc="http://creativecommons.org/ns#" xmlns:rdf="http://www.w3.org/1999/02/22-rdf-syntax-ns#">
   <cc:Work>
    <dc:type rdf:resource="http://purl.org/dc/dcmitype/StillImage"/>
    <dc:date>2022-10-29T11:39:50.389536</dc:date>
    <dc:format>image/svg+xml</dc:format>
    <dc:creator>
     <cc:Agent>
      <dc:title>Matplotlib v3.5.3, https://matplotlib.org/</dc:title>
     </cc:Agent>
    </dc:creator>
   </cc:Work>
  </rdf:RDF>
 </metadata>
 <defs>
  <style type="text/css">*{stroke-linejoin: round; stroke-linecap: butt}</style>
 </defs>
 <g id="figure_1">
  <g id="patch_1">
   <path d="M 0 345.6 
L 460.8 345.6 
L 460.8 0 
L 0 0 
z
" style="fill: #ffffff"/>
  </g>
  <g id="axes_1">
   <g id="patch_2">
    <path d="M 57.6 307.584 
L 414.72 307.584 
L 414.72 41.472 
L 57.6 41.472 
z
" style="fill: #ffffff"/>
   </g>
   <g id="matplotlib.axis_1">
    <g id="xtick_1">
     <g id="line2d_1">
      <path d="M 73.832727 307.584 
L 73.832727 41.472 
" clip-path="url(#pd8a8dc1262)" style="fill: none; stroke: #b0b0b0; stroke-width: 0.8; stroke-linecap: square"/>
     </g>
     <g id="line2d_2">
      <defs>
       <path id="mc173e7d35f" d="M 0 0 
L 0 3.5 
" style="stroke: #000000; stroke-width: 0.8"/>
      </defs>
      <g>
       <use xlink:href="#mc173e7d35f" x="73.832727" y="307.584" style="stroke: #000000; stroke-width: 0.8"/>
      </g>
     </g>
     <g id="text_1">
      <!-- 0 -->
      <g transform="translate(70.651477 322.182437)scale(0.1 -0.1)">
       <defs>
        <path id="DejaVuSans-30" d="M 2034 4250 
Q 1547 4250 1301 3770 
Q 1056 3291 1056 2328 
Q 1056 1369 1301 889 
Q 1547 409 2034 409 
Q 2525 409 2770 889 
Q 3016 1369 3016 2328 
Q 3016 3291 2770 3770 
Q 2525 4250 2034 4250 
z
M 2034 4750 
Q 2819 4750 3233 4129 
Q 3647 3509 3647 2328 
Q 3647 1150 3233 529 
Q 2819 -91 2034 -91 
Q 1250 -91 836 529 
Q 422 1150 422 2328 
Q 422 3509 836 4129 
Q 1250 4750 2034 4750 
z
" transform="scale(0.015625)"/>
       </defs>
       <use xlink:href="#DejaVuSans-30"/>
      </g>
     </g>
    </g>
    <g id="xtick_2">
     <g id="line2d_3">
      <path d="M 150.692231 307.584 
L 150.692231 41.472 
" clip-path="url(#pd8a8dc1262)" style="fill: none; stroke: #b0b0b0; stroke-width: 0.8; stroke-linecap: square"/>
     </g>
     <g id="line2d_4">
      <g>
       <use xlink:href="#mc173e7d35f" x="150.692231" y="307.584" style="stroke: #000000; stroke-width: 0.8"/>
      </g>
     </g>
     <g id="text_2">
      <!-- 500 -->
      <g transform="translate(141.148481 322.182437)scale(0.1 -0.1)">
       <defs>
        <path id="DejaVuSans-35" d="M 691 4666 
L 3169 4666 
L 3169 4134 
L 1269 4134 
L 1269 2991 
Q 1406 3038 1543 3061 
Q 1681 3084 1819 3084 
Q 2600 3084 3056 2656 
Q 3513 2228 3513 1497 
Q 3513 744 3044 326 
Q 2575 -91 1722 -91 
Q 1428 -91 1123 -41 
Q 819 9 494 109 
L 494 744 
Q 775 591 1075 516 
Q 1375 441 1709 441 
Q 2250 441 2565 725 
Q 2881 1009 2881 1497 
Q 2881 1984 2565 2268 
Q 2250 2553 1709 2553 
Q 1456 2553 1204 2497 
Q 953 2441 691 2322 
L 691 4666 
z
" transform="scale(0.015625)"/>
       </defs>
       <use xlink:href="#DejaVuSans-35"/>
       <use xlink:href="#DejaVuSans-30" x="63.623047"/>
       <use xlink:href="#DejaVuSans-30" x="127.246094"/>
      </g>
     </g>
    </g>
    <g id="xtick_3">
     <g id="line2d_5">
      <path d="M 227.551736 307.584 
L 227.551736 41.472 
" clip-path="url(#pd8a8dc1262)" style="fill: none; stroke: #b0b0b0; stroke-width: 0.8; stroke-linecap: square"/>
     </g>
     <g id="line2d_6">
      <g>
       <use xlink:href="#mc173e7d35f" x="227.551736" y="307.584" style="stroke: #000000; stroke-width: 0.8"/>
      </g>
     </g>
     <g id="text_3">
      <!-- 1000 -->
      <g transform="translate(214.826736 322.182437)scale(0.1 -0.1)">
       <defs>
        <path id="DejaVuSans-31" d="M 794 531 
L 1825 531 
L 1825 4091 
L 703 3866 
L 703 4441 
L 1819 4666 
L 2450 4666 
L 2450 531 
L 3481 531 
L 3481 0 
L 794 0 
L 794 531 
z
" transform="scale(0.015625)"/>
       </defs>
       <use xlink:href="#DejaVuSans-31"/>
       <use xlink:href="#DejaVuSans-30" x="63.623047"/>
       <use xlink:href="#DejaVuSans-30" x="127.246094"/>
       <use xlink:href="#DejaVuSans-30" x="190.869141"/>
      </g>
     </g>
    </g>
    <g id="xtick_4">
     <g id="line2d_7">
      <path d="M 304.41124 307.584 
L 304.41124 41.472 
" clip-path="url(#pd8a8dc1262)" style="fill: none; stroke: #b0b0b0; stroke-width: 0.8; stroke-linecap: square"/>
     </g>
     <g id="line2d_8">
      <g>
       <use xlink:href="#mc173e7d35f" x="304.41124" y="307.584" style="stroke: #000000; stroke-width: 0.8"/>
      </g>
     </g>
     <g id="text_4">
      <!-- 1500 -->
      <g transform="translate(291.68624 322.182437)scale(0.1 -0.1)">
       <use xlink:href="#DejaVuSans-31"/>
       <use xlink:href="#DejaVuSans-35" x="63.623047"/>
       <use xlink:href="#DejaVuSans-30" x="127.246094"/>
       <use xlink:href="#DejaVuSans-30" x="190.869141"/>
      </g>
     </g>
    </g>
    <g id="xtick_5">
     <g id="line2d_9">
      <path d="M 381.270744 307.584 
L 381.270744 41.472 
" clip-path="url(#pd8a8dc1262)" style="fill: none; stroke: #b0b0b0; stroke-width: 0.8; stroke-linecap: square"/>
     </g>
     <g id="line2d_10">
      <g>
       <use xlink:href="#mc173e7d35f" x="381.270744" y="307.584" style="stroke: #000000; stroke-width: 0.8"/>
      </g>
     </g>
     <g id="text_5">
      <!-- 2000 -->
      <g transform="translate(368.545744 322.182437)scale(0.1 -0.1)">
       <defs>
        <path id="DejaVuSans-32" d="M 1228 531 
L 3431 531 
L 3431 0 
L 469 0 
L 469 531 
Q 828 903 1448 1529 
Q 2069 2156 2228 2338 
Q 2531 2678 2651 2914 
Q 2772 3150 2772 3378 
Q 2772 3750 2511 3984 
Q 2250 4219 1831 4219 
Q 1534 4219 1204 4116 
Q 875 4013 500 3803 
L 500 4441 
Q 881 4594 1212 4672 
Q 1544 4750 1819 4750 
Q 2544 4750 2975 4387 
Q 3406 4025 3406 3419 
Q 3406 3131 3298 2873 
Q 3191 2616 2906 2266 
Q 2828 2175 2409 1742 
Q 1991 1309 1228 531 
z
" transform="scale(0.015625)"/>
       </defs>
       <use xlink:href="#DejaVuSans-32"/>
       <use xlink:href="#DejaVuSans-30" x="63.623047"/>
       <use xlink:href="#DejaVuSans-30" x="127.246094"/>
       <use xlink:href="#DejaVuSans-30" x="190.869141"/>
      </g>
     </g>
    </g>
   </g>
   <g id="matplotlib.axis_2">
    <g id="ytick_1">
     <g id="line2d_11">
      <path d="M 57.6 274.064746 
L 414.72 274.064746 
" clip-path="url(#pd8a8dc1262)" style="fill: none; stroke: #b0b0b0; stroke-width: 0.8; stroke-linecap: square"/>
     </g>
     <g id="line2d_12">
      <defs>
       <path id="mc3a930f6cf" d="M 0 0 
L -3.5 0 
" style="stroke: #000000; stroke-width: 0.8"/>
      </defs>
      <g>
       <use xlink:href="#mc3a930f6cf" x="57.6" y="274.064746" style="stroke: #000000; stroke-width: 0.8"/>
      </g>
     </g>
     <g id="text_6">
      <!-- 0 -->
      <g transform="translate(44.2375 277.863965)scale(0.1 -0.1)">
       <use xlink:href="#DejaVuSans-30"/>
      </g>
     </g>
    </g>
    <g id="ytick_2">
     <g id="line2d_13">
      <path d="M 57.6 237.315288 
L 414.72 237.315288 
" clip-path="url(#pd8a8dc1262)" style="fill: none; stroke: #b0b0b0; stroke-width: 0.8; stroke-linecap: square"/>
     </g>
     <g id="line2d_14">
      <g>
       <use xlink:href="#mc3a930f6cf" x="57.6" y="237.315288" style="stroke: #000000; stroke-width: 0.8"/>
      </g>
     </g>
     <g id="text_7">
      <!-- 200 -->
      <g transform="translate(31.5125 241.114507)scale(0.1 -0.1)">
       <use xlink:href="#DejaVuSans-32"/>
       <use xlink:href="#DejaVuSans-30" x="63.623047"/>
       <use xlink:href="#DejaVuSans-30" x="127.246094"/>
      </g>
     </g>
    </g>
    <g id="ytick_3">
     <g id="line2d_15">
      <path d="M 57.6 200.565831 
L 414.72 200.565831 
" clip-path="url(#pd8a8dc1262)" style="fill: none; stroke: #b0b0b0; stroke-width: 0.8; stroke-linecap: square"/>
     </g>
     <g id="line2d_16">
      <g>
       <use xlink:href="#mc3a930f6cf" x="57.6" y="200.565831" style="stroke: #000000; stroke-width: 0.8"/>
      </g>
     </g>
     <g id="text_8">
      <!-- 400 -->
      <g transform="translate(31.5125 204.365049)scale(0.1 -0.1)">
       <defs>
        <path id="DejaVuSans-34" d="M 2419 4116 
L 825 1625 
L 2419 1625 
L 2419 4116 
z
M 2253 4666 
L 3047 4666 
L 3047 1625 
L 3713 1625 
L 3713 1100 
L 3047 1100 
L 3047 0 
L 2419 0 
L 2419 1100 
L 313 1100 
L 313 1709 
L 2253 4666 
z
" transform="scale(0.015625)"/>
       </defs>
       <use xlink:href="#DejaVuSans-34"/>
       <use xlink:href="#DejaVuSans-30" x="63.623047"/>
       <use xlink:href="#DejaVuSans-30" x="127.246094"/>
      </g>
     </g>
    </g>
    <g id="ytick_4">
     <g id="line2d_17">
      <path d="M 57.6 163.816373 
L 414.72 163.816373 
" clip-path="url(#pd8a8dc1262)" style="fill: none; stroke: #b0b0b0; stroke-width: 0.8; stroke-linecap: square"/>
     </g>
     <g id="line2d_18">
      <g>
       <use xlink:href="#mc3a930f6cf" x="57.6" y="163.816373" style="stroke: #000000; stroke-width: 0.8"/>
      </g>
     </g>
     <g id="text_9">
      <!-- 600 -->
      <g transform="translate(31.5125 167.615592)scale(0.1 -0.1)">
       <defs>
        <path id="DejaVuSans-36" d="M 2113 2584 
Q 1688 2584 1439 2293 
Q 1191 2003 1191 1497 
Q 1191 994 1439 701 
Q 1688 409 2113 409 
Q 2538 409 2786 701 
Q 3034 994 3034 1497 
Q 3034 2003 2786 2293 
Q 2538 2584 2113 2584 
z
M 3366 4563 
L 3366 3988 
Q 3128 4100 2886 4159 
Q 2644 4219 2406 4219 
Q 1781 4219 1451 3797 
Q 1122 3375 1075 2522 
Q 1259 2794 1537 2939 
Q 1816 3084 2150 3084 
Q 2853 3084 3261 2657 
Q 3669 2231 3669 1497 
Q 3669 778 3244 343 
Q 2819 -91 2113 -91 
Q 1303 -91 875 529 
Q 447 1150 447 2328 
Q 447 3434 972 4092 
Q 1497 4750 2381 4750 
Q 2619 4750 2861 4703 
Q 3103 4656 3366 4563 
z
" transform="scale(0.015625)"/>
       </defs>
       <use xlink:href="#DejaVuSans-36"/>
       <use xlink:href="#DejaVuSans-30" x="63.623047"/>
       <use xlink:href="#DejaVuSans-30" x="127.246094"/>
      </g>
     </g>
    </g>
    <g id="ytick_5">
     <g id="line2d_19">
      <path d="M 57.6 127.066915 
L 414.72 127.066915 
" clip-path="url(#pd8a8dc1262)" style="fill: none; stroke: #b0b0b0; stroke-width: 0.8; stroke-linecap: square"/>
     </g>
     <g id="line2d_20">
      <g>
       <use xlink:href="#mc3a930f6cf" x="57.6" y="127.066915" style="stroke: #000000; stroke-width: 0.8"/>
      </g>
     </g>
     <g id="text_10">
      <!-- 800 -->
      <g transform="translate(31.5125 130.866134)scale(0.1 -0.1)">
       <defs>
        <path id="DejaVuSans-38" d="M 2034 2216 
Q 1584 2216 1326 1975 
Q 1069 1734 1069 1313 
Q 1069 891 1326 650 
Q 1584 409 2034 409 
Q 2484 409 2743 651 
Q 3003 894 3003 1313 
Q 3003 1734 2745 1975 
Q 2488 2216 2034 2216 
z
M 1403 2484 
Q 997 2584 770 2862 
Q 544 3141 544 3541 
Q 544 4100 942 4425 
Q 1341 4750 2034 4750 
Q 2731 4750 3128 4425 
Q 3525 4100 3525 3541 
Q 3525 3141 3298 2862 
Q 3072 2584 2669 2484 
Q 3125 2378 3379 2068 
Q 3634 1759 3634 1313 
Q 3634 634 3220 271 
Q 2806 -91 2034 -91 
Q 1263 -91 848 271 
Q 434 634 434 1313 
Q 434 1759 690 2068 
Q 947 2378 1403 2484 
z
M 1172 3481 
Q 1172 3119 1398 2916 
Q 1625 2713 2034 2713 
Q 2441 2713 2670 2916 
Q 2900 3119 2900 3481 
Q 2900 3844 2670 4047 
Q 2441 4250 2034 4250 
Q 1625 4250 1398 4047 
Q 1172 3844 1172 3481 
z
" transform="scale(0.015625)"/>
       </defs>
       <use xlink:href="#DejaVuSans-38"/>
       <use xlink:href="#DejaVuSans-30" x="63.623047"/>
       <use xlink:href="#DejaVuSans-30" x="127.246094"/>
      </g>
     </g>
    </g>
    <g id="ytick_6">
     <g id="line2d_21">
      <path d="M 57.6 90.317458 
L 414.72 90.317458 
" clip-path="url(#pd8a8dc1262)" style="fill: none; stroke: #b0b0b0; stroke-width: 0.8; stroke-linecap: square"/>
     </g>
     <g id="line2d_22">
      <g>
       <use xlink:href="#mc3a930f6cf" x="57.6" y="90.317458" style="stroke: #000000; stroke-width: 0.8"/>
      </g>
     </g>
     <g id="text_11">
      <!-- 1000 -->
      <g transform="translate(25.15 94.116676)scale(0.1 -0.1)">
       <use xlink:href="#DejaVuSans-31"/>
       <use xlink:href="#DejaVuSans-30" x="63.623047"/>
       <use xlink:href="#DejaVuSans-30" x="127.246094"/>
       <use xlink:href="#DejaVuSans-30" x="190.869141"/>
      </g>
     </g>
    </g>
    <g id="ytick_7">
     <g id="line2d_23">
      <path d="M 57.6 53.568 
L 414.72 53.568 
" clip-path="url(#pd8a8dc1262)" style="fill: none; stroke: #b0b0b0; stroke-width: 0.8; stroke-linecap: square"/>
     </g>
     <g id="line2d_24">
      <g>
       <use xlink:href="#mc3a930f6cf" x="57.6" y="53.568" style="stroke: #000000; stroke-width: 0.8"/>
      </g>
     </g>
     <g id="text_12">
      <!-- 1200 -->
      <g transform="translate(25.15 57.367219)scale(0.1 -0.1)">
       <use xlink:href="#DejaVuSans-31"/>
       <use xlink:href="#DejaVuSans-32" x="63.623047"/>
       <use xlink:href="#DejaVuSans-30" x="127.246094"/>
       <use xlink:href="#DejaVuSans-30" x="190.869141"/>
      </g>
     </g>
    </g>
   </g>
   <g id="line2d_25">
    <path d="M 73.832727 275.035952 
L 73.986446 280.363315 
L 74.140165 266.503057 
L 74.293884 274.612248 
L 74.447603 271.349615 
L 74.601322 272.302395 
L 75.062479 278.849701 
L 75.216198 278.069735 
L 75.369917 278.730304 
L 75.523636 276.406184 
L 75.677355 269.695263 
L 75.831074 269.123636 
L 75.984793 276.771246 
L 76.138512 278.162556 
L 76.292231 266.141866 
L 76.44595 277.726593 
L 76.599669 277.370752 
L 76.907107 269.380004 
L 77.214545 278.667132 
L 77.368264 280.083399 
L 77.521983 279.06121 
L 77.675702 281.540651 
L 77.98314 271.145898 
L 78.13686 282.074761 
L 78.444298 278.188635 
L 78.598017 278.518372 
L 78.751736 278.513155 
L 78.905455 285.435307 
L 79.059174 280.000583 
L 79.212893 279.075531 
L 79.366612 281.260773 
L 79.520331 280.189684 
L 79.827769 271.193927 
L 79.981488 278.804105 
L 80.135207 280.032585 
L 80.288926 275.594692 
L 80.442645 277.684786 
L 80.596364 276.789987 
L 80.750083 280.894858 
L 80.903802 277.739847 
L 81.057521 271.30719 
L 81.21124 287.116733 
L 81.364959 271.835503 
L 81.518678 277.435632 
L 81.672397 270.879801 
L 81.826116 285.034024 
L 82.133554 276.791389 
L 82.287273 277.891848 
L 82.440992 282.77496 
L 82.594711 274.466963 
L 82.902149 278.270393 
L 83.055868 280.004578 
L 83.209587 278.443482 
L 83.363306 281.082172 
L 83.517025 276.068955 
L 83.670744 280.001461 
L 83.824463 276.974855 
L 84.131901 277.252982 
L 84.28562 278.145086 
L 84.439339 277.596776 
L 84.593058 270.040502 
L 84.746777 277.558284 
L 84.900496 276.843021 
L 85.054215 283.754492 
L 85.207934 279.228574 
L 85.361653 291.307958 
L 85.515372 274.656486 
L 85.669091 280.45812 
L 85.976529 276.579639 
L 86.130248 264.898791 
L 86.437686 281.736232 
L 86.591405 262.667585 
L 86.898843 285.628532 
L 87.052562 275.51127 
L 87.206281 279.020387 
L 87.36 278.016219 
L 87.667438 284.481758 
L 87.821157 277.299029 
L 88.128595 279.540576 
L 88.282314 273.330528 
L 88.589752 279.208609 
L 88.89719 277.144795 
L 89.050909 268.796061 
L 89.204628 295.488 
L 89.358347 280.217409 
L 89.512066 278.991711 
L 89.665785 280.631623 
L 89.819504 278.118778 
L 89.973223 279.576479 
L 90.126942 278.646314 
L 90.280661 282.335209 
L 90.43438 280.627252 
L 90.588099 275.146536 
L 90.741818 284.977604 
L 91.049256 280.289932 
L 91.202975 281.204849 
L 91.356694 278.984006 
L 91.510413 273.223771 
L 91.817851 279.599274 
L 91.97157 274.710984 
L 92.125289 286.42887 
L 92.279008 278.946726 
L 92.432727 280.066067 
L 92.586446 284.986485 
L 92.740165 277.81059 
L 92.893884 279.961585 
L 93.047603 280.493713 
L 93.201322 282.454367 
L 93.355041 277.50735 
L 93.50876 284.982366 
L 93.662479 263.426816 
L 93.816198 279.488883 
L 93.969917 275.881915 
L 94.123636 276.83813 
L 94.277355 285.91555 
L 94.431074 269.96293 
L 94.584793 278.094594 
L 94.738512 273.274869 
L 94.892231 280.275837 
L 95.04595 279.287969 
L 95.199669 272.08125 
L 95.353388 277.548061 
L 95.660826 279.177843 
L 95.814545 283.641918 
L 95.968264 275.571375 
L 96.121983 282.012979 
L 96.275702 269.789015 
L 96.58314 281.156255 
L 96.73686 285.253927 
L 96.890579 277.758354 
L 97.044298 260.567223 
L 97.505455 282.708457 
L 97.659174 273.253042 
L 97.812893 277.951828 
L 97.966612 277.092008 
L 98.120331 277.00394 
L 98.27405 280.162396 
L 98.581488 264.338378 
L 98.735207 280.951853 
L 98.888926 280.27304 
L 99.042645 287.113507 
L 99.196364 277.430833 
L 99.350083 279.787197 
L 99.503802 278.890652 
L 99.657521 277.211462 
L 99.81124 277.704032 
L 99.964959 281.420101 
L 100.118678 280.712614 
L 100.272397 269.975303 
L 100.426116 278.769985 
L 100.579835 275.994069 
L 100.733554 280.328055 
L 100.887273 266.326519 
L 101.040992 266.32896 
L 101.194711 259.370015 
L 101.34843 280.114795 
L 101.502149 270.823258 
L 101.655868 276.887304 
L 101.809587 277.901466 
L 101.963306 266.178515 
L 102.117025 278.224242 
L 102.270744 278.245914 
L 102.424463 280.943385 
L 102.578182 276.895211 
L 102.731901 280.382372 
L 102.88562 273.895773 
L 103.039339 279.183591 
L 103.193058 278.172068 
L 103.346777 274.059853 
L 103.500496 280.673071 
L 103.654215 273.686051 
L 103.807934 275.321118 
L 103.961653 286.293012 
L 104.269091 276.290794 
L 104.42281 276.264959 
L 104.576529 281.698276 
L 104.730248 267.643333 
L 104.883967 268.499955 
L 105.191405 285.158944 
L 105.498843 265.266116 
L 105.652562 275.83625 
L 105.806281 277.519643 
L 105.96 277.698003 
L 106.113719 266.061973 
L 106.267438 277.566466 
L 106.421157 279.007498 
L 106.574876 277.394584 
L 106.728595 282.668129 
L 106.882314 280.917609 
L 107.036033 275.873216 
L 107.189752 281.036088 
L 107.343471 279.65872 
L 107.650909 280.528452 
L 107.804628 279.421893 
L 107.958347 276.250301 
L 108.112066 279.632892 
L 108.265785 280.546572 
L 108.419504 272.643446 
L 108.573223 279.042879 
L 108.726942 280.393802 
L 108.880661 278.22356 
L 109.03438 264.238294 
L 109.188099 275.530842 
L 109.341818 274.66733 
L 109.495537 278.843302 
L 109.649256 273.911245 
L 109.802975 284.929131 
L 109.956694 280.938721 
L 110.110413 288.339365 
L 110.264132 272.007521 
L 110.417851 267.815996 
L 111.032727 286.952833 
L 111.186446 283.255296 
L 111.340165 273.957458 
L 111.493884 284.811257 
L 111.647603 278.114449 
L 111.801322 281.461689 
L 111.955041 277.111477 
L 112.10876 267.594685 
L 112.262479 277.176564 
L 112.416198 278.283574 
L 112.569917 290.258991 
L 112.723636 285.997311 
L 112.877355 270.062728 
L 113.031074 280.289353 
L 113.184793 280.58247 
L 113.338512 280.28854 
L 113.492231 276.008464 
L 113.64595 277.347636 
L 113.799669 277.425866 
L 113.953388 279.542117 
L 114.107107 271.62634 
L 114.414545 280.825722 
L 114.568264 281.103753 
L 114.721983 276.170374 
L 114.875702 279.890942 
L 115.029421 277.239478 
L 115.18314 277.49278 
L 115.33686 279.116876 
L 115.490579 279.323498 
L 115.644298 266.673549 
L 115.951736 273.623879 
L 116.105455 290.419074 
L 116.259174 278.745741 
L 116.412893 280.712341 
L 116.720331 264.324413 
L 116.87405 288.425457 
L 117.027769 278.911442 
L 117.181488 279.366326 
L 117.335207 288.457886 
L 117.488926 275.418298 
L 117.796364 282.583725 
L 117.950083 273.53135 
L 118.103802 279.434382 
L 118.257521 279.779332 
L 118.564959 278.077819 
L 118.872397 280.073193 
L 119.026116 275.463557 
L 119.179835 279.761472 
L 119.487273 276.668447 
L 119.640992 279.980829 
L 119.794711 278.634063 
L 120.102149 279.967951 
L 120.255868 275.866472 
L 120.409587 280.234071 
L 120.563306 280.352542 
L 120.717025 278.103429 
L 120.870744 271.07679 
L 121.024463 279.410166 
L 121.178182 269.302256 
L 121.331901 280.556457 
L 121.48562 276.975174 
L 121.793058 281.34469 
L 121.946777 278.244654 
L 122.100496 282.837033 
L 122.254215 270.936157 
L 122.407934 281.714354 
L 122.561653 277.168414 
L 122.715372 280.140317 
L 122.869091 275.505372 
L 123.02281 279.736317 
L 123.176529 279.374699 
L 123.330248 272.877339 
L 123.483967 285.327722 
L 123.637686 284.77901 
L 123.791405 274.02284 
L 123.945124 281.392161 
L 124.098843 280.436764 
L 124.252562 286.354712 
L 124.406281 277.260195 
L 124.713719 282.541316 
L 124.867438 274.247757 
L 125.021157 290.756189 
L 125.174876 278.882842 
L 125.482314 280.44248 
L 125.636033 278.280004 
L 125.789752 278.631897 
L 125.943471 280.239248 
L 126.09719 279.677917 
L 126.250909 271.807452 
L 126.404628 279.634907 
L 126.558347 278.323659 
L 126.712066 278.04986 
L 126.865785 278.249602 
L 127.019504 278.749371 
L 127.173223 280.968393 
L 127.326942 277.837735 
L 127.480661 278.667429 
L 127.63438 278.777412 
L 127.788099 277.743255 
L 127.941818 279.903543 
L 128.095537 279.656896 
L 128.249256 276.370529 
L 128.402975 284.419781 
L 128.556694 276.255309 
L 128.710413 279.306096 
L 128.864132 277.724911 
L 129.017851 278.415301 
L 129.17157 280.81374 
L 129.479008 279.09122 
L 129.632727 282.010174 
L 129.786446 281.168052 
L 129.940165 287.482066 
L 130.093884 285.603933 
L 130.401322 275.350112 
L 130.70876 281.228923 
L 130.862479 278.723593 
L 131.016198 278.41243 
L 131.169917 280.609894 
L 131.323636 279.055149 
L 131.477355 280.534343 
L 131.631074 290.956761 
L 131.784793 279.096435 
L 131.938512 276.941377 
L 132.092231 279.379058 
L 132.24595 279.932068 
L 132.399669 278.328416 
L 132.553388 279.599691 
L 132.860826 273.66366 
L 133.014545 280.215472 
L 133.168264 278.434047 
L 133.321983 272.845556 
L 133.629421 280.175431 
L 133.78314 270.369304 
L 133.93686 286.552121 
L 134.090579 280.75045 
L 134.244298 279.554181 
L 134.398017 267.376893 
L 134.551736 280.237593 
L 134.705455 279.194045 
L 134.859174 275.903741 
L 135.012893 278.903722 
L 135.320331 274.960895 
L 135.47405 287.269895 
L 135.627769 274.651436 
L 135.781488 273.164081 
L 135.935207 287.637151 
L 136.242645 275.910277 
L 136.703802 281.527284 
L 136.857521 279.96297 
L 137.01124 279.918372 
L 137.164959 281.076023 
L 137.318678 271.285677 
L 137.472397 282.085329 
L 137.779835 274.540681 
L 137.933554 283.834321 
L 138.087273 281.018148 
L 138.240992 289.144399 
L 138.54843 269.161336 
L 138.702149 282.941821 
L 138.855868 275.881663 
L 139.009587 279.67523 
L 139.163306 278.873311 
L 139.317025 285.147005 
L 139.624463 274.232599 
L 139.778182 282.585414 
L 139.931901 259.212779 
L 140.08562 278.553033 
L 140.239339 277.833704 
L 140.393058 285.128225 
L 140.546777 283.016876 
L 140.700496 272.643757 
L 140.854215 279.225072 
L 141.007934 263.357534 
L 141.161653 277.746809 
L 141.315372 273.514978 
L 141.62281 283.75238 
L 141.776529 279.940746 
L 141.930248 279.270367 
L 142.083967 270.952981 
L 142.237686 280.520656 
L 142.391405 275.537207 
L 142.545124 282.751514 
L 142.852562 275.568121 
L 143.006281 287.780779 
L 143.313719 276.300348 
L 143.467438 279.188422 
L 143.621157 273.1564 
L 143.774876 280.494721 
L 143.928595 277.974238 
L 144.082314 268.246465 
L 144.236033 278.81643 
L 144.389752 276.327374 
L 144.69719 282.113351 
L 144.850909 274.632528 
L 145.004628 275.450138 
L 145.158347 277.362892 
L 145.312066 284.39464 
L 145.465785 269.381743 
L 145.619504 277.664723 
L 145.773223 277.040397 
L 145.926942 276.997529 
L 146.080661 278.880114 
L 146.23438 276.855761 
L 146.388099 285.758847 
L 146.695537 270.012689 
L 146.849256 284.897089 
L 147.002975 277.782309 
L 147.156694 277.743172 
L 147.310413 279.40842 
L 147.617851 276.926905 
L 147.77157 270.924375 
L 148.079008 283.569017 
L 148.232727 280.154421 
L 148.540165 279.061162 
L 148.693884 279.405796 
L 148.847603 278.738737 
L 149.001322 279.78123 
L 149.155041 278.330013 
L 149.30876 275.254397 
L 149.462479 280.00886 
L 149.616198 273.632095 
L 149.769917 286.436055 
L 149.923636 271.991995 
L 150.077355 270.011016 
L 150.231074 282.84527 
L 150.384793 278.422381 
L 150.538512 279.38636 
L 150.692231 278.649144 
L 150.84595 279.125204 
L 150.999669 278.960773 
L 151.153388 272.187861 
L 151.307107 274.330095 
L 151.460826 278.577258 
L 151.614545 276.075427 
L 151.768264 278.898975 
L 151.921983 288.555563 
L 152.229421 273.190466 
L 152.38314 282.774366 
L 152.53686 267.624266 
L 152.690579 280.770437 
L 152.998017 278.697312 
L 153.151736 285.442868 
L 153.459174 279.382297 
L 153.612893 280.632463 
L 153.766612 286.558197 
L 153.920331 279.98118 
L 154.07405 278.172403 
L 154.227769 279.667412 
L 154.381488 279.616217 
L 154.535207 278.209431 
L 154.688926 263.607635 
L 154.842645 280.504739 
L 154.996364 279.709987 
L 155.150083 277.045226 
L 155.303802 287.148412 
L 155.457521 277.43895 
L 155.61124 281.221049 
L 155.764959 275.040204 
L 155.918678 275.108746 
L 156.072397 283.228377 
L 156.226116 285.210231 
L 156.379835 269.380403 
L 156.533554 278.699206 
L 156.687273 277.929663 
L 156.840992 287.924312 
L 156.994711 278.64126 
L 157.302149 277.524219 
L 157.455868 276.87462 
L 157.609587 272.19974 
L 157.763306 280.335197 
L 157.917025 277.886448 
L 158.070744 269.547139 
L 158.224463 281.767354 
L 158.378182 274.120935 
L 158.531901 281.934768 
L 158.68562 278.349264 
L 158.839339 285.879871 
L 158.993058 276.398 
L 159.146777 276.616113 
L 159.300496 278.30263 
L 159.454215 274.589489 
L 159.607934 275.917089 
L 159.761653 279.774741 
L 159.915372 277.637581 
L 160.069091 280.256845 
L 160.22281 279.749683 
L 160.376529 283.150486 
L 160.530248 280.768024 
L 160.683967 269.713006 
L 160.991405 279.545204 
L 161.145124 275.09541 
L 161.298843 278.551771 
L 161.452562 278.655596 
L 161.606281 285.096664 
L 161.76 278.608871 
L 161.913719 280.50584 
L 162.067438 280.197198 
L 162.221157 273.947373 
L 162.374876 274.351897 
L 162.682314 281.669526 
L 162.836033 278.374383 
L 162.989752 281.218873 
L 163.143471 279.93336 
L 163.29719 276.197991 
L 163.450909 278.178556 
L 163.604628 281.723414 
L 163.758347 277.588192 
L 163.912066 277.889914 
L 164.065785 281.980249 
L 164.219504 279.481481 
L 164.373223 274.392258 
L 164.526942 274.896058 
L 164.83438 284.423611 
L 164.988099 278.457455 
L 165.141818 264.915214 
L 165.295537 278.231402 
L 165.449256 279.904863 
L 165.602975 276.072989 
L 165.910413 280.912012 
L 166.064132 281.144379 
L 166.217851 282.923642 
L 166.525289 268.096149 
L 166.679008 274.999155 
L 166.832727 290.119589 
L 167.140165 271.818361 
L 167.293884 278.232982 
L 167.447603 279.575638 
L 167.601322 272.906229 
L 167.90876 281.683693 
L 168.062479 277.638921 
L 168.216198 280.974162 
L 168.369917 277.681366 
L 168.523636 277.087469 
L 168.677355 282.054847 
L 168.831074 278.602863 
L 168.984793 278.542463 
L 169.138512 273.419687 
L 169.292231 279.548938 
L 169.599669 276.823216 
L 169.753388 283.167388 
L 170.060826 270.659235 
L 170.214545 279.320728 
L 170.368264 278.844183 
L 170.521983 282.461848 
L 170.675702 265.614672 
L 170.829421 279.589266 
L 170.98314 266.199218 
L 171.13686 285.049846 
L 171.444298 272.707471 
L 171.751736 278.641658 
L 171.905455 276.318011 
L 172.059174 279.266325 
L 172.212893 278.906657 
L 172.366612 263.104703 
L 172.520331 273.153538 
L 172.67405 273.177304 
L 172.981488 287.058742 
L 173.288926 278.011627 
L 173.442645 279.864182 
L 173.596364 284.58046 
L 173.750083 284.233668 
L 174.057521 271.307874 
L 174.21124 275.838494 
L 174.364959 273.968528 
L 174.518678 285.338362 
L 174.826116 277.376142 
L 174.979835 264.326801 
L 175.133554 286.026636 
L 175.287273 280.639649 
L 175.440992 284.386405 
L 175.594711 279.460342 
L 175.74843 284.071701 
L 175.902149 279.288941 
L 176.055868 278.447556 
L 176.209587 280.602734 
L 176.363306 270.059256 
L 176.517025 268.736018 
L 176.670744 271.67895 
L 176.824463 278.164083 
L 176.978182 277.723327 
L 177.131901 274.800308 
L 177.28562 283.998754 
L 177.439339 277.401086 
L 177.593058 265.499474 
L 177.746777 278.739411 
L 177.900496 280.428613 
L 178.054215 279.129544 
L 178.207934 279.360285 
L 178.361653 269.155349 
L 178.515372 289.29947 
L 178.669091 279.810958 
L 179.130248 276.557986 
L 179.283967 287.222154 
L 179.437686 280.058463 
L 179.591405 279.963395 
L 179.745124 281.22587 
L 179.898843 274.525031 
L 180.052562 277.051306 
L 180.206281 275.222038 
L 180.513719 280.626664 
L 180.821157 272.749944 
L 180.974876 283.610812 
L 181.128595 283.724912 
L 181.282314 263.606245 
L 181.436033 274.854835 
L 181.589752 276.620045 
L 181.743471 286.823571 
L 181.89719 278.38463 
L 182.050909 278.928522 
L 182.204628 280.198136 
L 182.512066 278.660198 
L 182.665785 275.783104 
L 182.819504 277.929138 
L 182.973223 277.164859 
L 183.126942 274.912564 
L 183.280661 280.140954 
L 183.588099 277.706807 
L 183.741818 276.048727 
L 183.895537 276.033295 
L 184.202975 285.876883 
L 184.356694 275.749374 
L 184.510413 276.843836 
L 184.664132 277.136521 
L 184.817851 266.566642 
L 184.97157 265.296404 
L 185.125289 277.853878 
L 185.279008 268.234749 
L 185.432727 269.578964 
L 185.586446 281.378867 
L 185.740165 265.454461 
L 186.047603 276.902239 
L 186.201322 277.061061 
L 186.355041 275.102119 
L 186.662479 279.812934 
L 186.816198 282.089968 
L 186.969917 281.631273 
L 187.123636 280.515727 
L 187.277355 280.352675 
L 187.431074 276.966536 
L 187.584793 270.914818 
L 187.738512 277.540264 
L 187.892231 268.718638 
L 188.04595 281.270159 
L 188.199669 275.361764 
L 188.353388 274.526924 
L 188.660826 279.153108 
L 188.814545 279.330362 
L 188.968264 275.965996 
L 189.121983 280.003127 
L 189.275702 275.64828 
L 189.429421 277.685268 
L 189.58314 278.151549 
L 189.73686 280.1534 
L 189.890579 279.399991 
L 190.044298 277.046161 
L 190.198017 281.499066 
L 190.351736 289.67399 
L 190.659174 277.242232 
L 190.812893 281.314722 
L 191.120331 276.7365 
L 191.27405 284.438896 
L 191.427769 279.750572 
L 191.581488 280.604497 
L 191.888926 276.398911 
L 192.042645 279.862854 
L 192.196364 279.717612 
L 192.350083 267.430174 
L 192.657521 283.988335 
L 192.81124 278.331644 
L 192.964959 278.231152 
L 193.118678 281.940067 
L 193.426116 278.378105 
L 193.579835 279.531791 
L 193.733554 282.848187 
L 193.887273 277.727634 
L 194.040992 279.317758 
L 194.194711 273.318948 
L 194.34843 274.314928 
L 194.502149 280.423482 
L 194.655868 276.203475 
L 194.809587 279.003539 
L 194.963306 278.02997 
L 195.117025 279.895227 
L 195.270744 278.130352 
L 195.424463 286.654038 
L 195.731901 265.565963 
L 195.88562 276.91799 
L 196.039339 279.58213 
L 196.193058 268.871131 
L 196.346777 277.344746 
L 196.500496 268.758783 
L 196.654215 279.057461 
L 196.807934 277.289489 
L 196.961653 276.888781 
L 197.115372 278.010188 
L 197.269091 272.810672 
L 197.42281 280.818983 
L 197.576529 277.857704 
L 197.730248 278.982212 
L 197.883967 278.964405 
L 198.037686 277.474645 
L 198.191405 278.48891 
L 198.345124 274.05949 
L 198.498843 283.851992 
L 198.652562 279.478138 
L 198.806281 282.572149 
L 198.96 277.982147 
L 199.113719 280.659772 
L 199.267438 276.15474 
L 199.574876 279.206967 
L 199.728595 278.295112 
L 199.882314 285.160798 
L 200.036033 280.85772 
L 200.189752 280.206583 
L 200.343471 277.667462 
L 200.49719 281.178285 
L 200.650909 288.165322 
L 200.804628 285.300553 
L 200.958347 274.97685 
L 201.112066 280.108713 
L 201.265785 278.546298 
L 201.419504 280.226912 
L 201.573223 280.230162 
L 201.726942 275.892619 
L 201.880661 277.329055 
L 202.03438 280.03125 
L 202.188099 271.265849 
L 202.341818 273.035203 
L 202.495537 278.785472 
L 202.649256 279.50537 
L 202.802975 276.220134 
L 202.956694 278.326334 
L 203.110413 275.827689 
L 203.264132 279.708946 
L 203.417851 279.810427 
L 203.57157 277.162719 
L 203.725289 277.427528 
L 204.032727 278.655794 
L 204.186446 279.344362 
L 204.340165 285.994759 
L 204.647603 273.014901 
L 204.801322 276.863902 
L 204.955041 276.384548 
L 205.10876 280.558926 
L 205.262479 279.149463 
L 205.416198 286.110036 
L 205.569917 278.317622 
L 205.723636 278.280201 
L 205.877355 268.881612 
L 206.031074 279.944892 
L 206.184793 276.204785 
L 206.338512 276.588599 
L 206.492231 275.024585 
L 206.799669 276.345827 
L 206.953388 279.328821 
L 207.107107 270.577847 
L 207.260826 278.901481 
L 207.414545 277.039905 
L 207.568264 279.048152 
L 207.721983 276.317988 
L 207.875702 278.528212 
L 208.029421 264.543313 
L 208.18314 289.375579 
L 208.33686 275.474493 
L 208.490579 278.458795 
L 208.644298 284.125574 
L 208.798017 263.175728 
L 208.951736 277.395037 
L 209.105455 279.765604 
L 209.259174 279.858868 
L 209.412893 277.325251 
L 209.566612 278.649268 
L 209.720331 277.753382 
L 209.87405 279.882341 
L 210.027769 284.736689 
L 210.335207 272.547545 
L 210.488926 277.732251 
L 210.642645 275.709689 
L 210.796364 277.050211 
L 210.950083 276.785257 
L 211.103802 274.440012 
L 211.257521 277.953971 
L 211.41124 278.863508 
L 211.564959 275.063361 
L 212.026116 279.134155 
L 212.179835 283.395619 
L 212.487273 275.971425 
L 212.640992 280.748952 
L 212.794711 276.119725 
L 212.94843 288.493024 
L 213.102149 272.89099 
L 213.409587 281.561521 
L 213.717025 276.601826 
L 213.870744 277.435725 
L 214.024463 275.745874 
L 214.331901 276.360075 
L 214.48562 276.60364 
L 214.639339 274.860571 
L 214.793058 276.639369 
L 214.946777 281.060634 
L 215.100496 273.385558 
L 215.254215 281.306978 
L 215.407934 276.419481 
L 215.561653 283.489898 
L 215.715372 269.553976 
L 215.869091 280.164957 
L 216.02281 280.026981 
L 216.176529 276.36608 
L 216.330248 276.357777 
L 216.483967 273.281114 
L 216.637686 276.377674 
L 216.791405 266.883918 
L 217.098843 286.509309 
L 217.252562 274.393119 
L 217.406281 285.520174 
L 217.713719 276.194943 
L 217.867438 275.858307 
L 218.021157 279.992031 
L 218.174876 274.726449 
L 218.328595 276.419665 
L 218.482314 283.875399 
L 218.636033 276.356354 
L 218.789752 276.255679 
L 218.943471 271.060402 
L 219.09719 276.440859 
L 219.250909 274.085542 
L 219.404628 276.413822 
L 219.558347 268.21248 
L 219.712066 276.803081 
L 219.865785 275.985191 
L 220.019504 276.296514 
L 220.173223 274.945855 
L 220.326942 275.362669 
L 220.480661 276.427434 
L 220.63438 276.658248 
L 220.788099 276.047853 
L 221.095537 265.6278 
L 221.249256 279.486818 
L 221.402975 279.148589 
L 221.556694 276.923035 
L 221.710413 276.982925 
L 221.864132 269.977996 
L 222.017851 283.579324 
L 222.17157 276.595988 
L 222.325289 278.11714 
L 222.479008 272.375843 
L 222.632727 276.469843 
L 222.786446 276.062961 
L 222.940165 276.310198 
L 223.093884 273.573877 
L 223.401322 276.421028 
L 223.70876 283.844418 
L 223.862479 276.337103 
L 224.016198 285.13452 
L 224.169917 276.480684 
L 224.323636 277.299099 
L 224.477355 266.824734 
L 224.631074 280.312151 
L 224.784793 276.5143 
L 224.938512 277.1491 
L 225.092231 273.560271 
L 225.24595 275.680419 
L 225.553388 283.353 
L 225.707107 276.105094 
L 225.860826 283.148579 
L 226.014545 275.556081 
L 226.168264 279.698797 
L 226.321983 267.570788 
L 226.629421 278.542393 
L 226.78314 276.125569 
L 227.090579 278.890055 
L 227.244298 278.296533 
L 227.398017 283.74522 
L 227.705455 276.013583 
L 227.859174 279.380651 
L 228.012893 276.911166 
L 228.166612 286.259822 
L 228.320331 277.068242 
L 228.627769 275.863676 
L 228.781488 276.351209 
L 228.935207 270.704022 
L 229.396364 278.267035 
L 229.550083 276.12324 
L 229.703802 276.300242 
L 229.857521 276.841769 
L 230.01124 276.477933 
L 230.164959 276.87442 
L 230.318678 282.724758 
L 230.626116 266.159838 
L 230.779835 277.045589 
L 230.933554 277.294082 
L 231.240992 276.19724 
L 231.394711 265.184699 
L 231.54843 264.965495 
L 231.702149 276.950051 
L 232.009587 277.677739 
L 232.163306 284.733487 
L 232.317025 286.585635 
L 232.470744 275.550937 
L 232.624463 276.211825 
L 232.778182 273.472429 
L 232.931901 276.120137 
L 233.08562 276.39072 
L 233.239339 276.942768 
L 233.393058 276.629402 
L 233.546777 284.222214 
L 233.700496 276.051674 
L 233.854215 274.041076 
L 234.007934 276.190209 
L 234.161653 272.892284 
L 234.315372 272.786675 
L 234.469091 273.721086 
L 234.62281 272.230625 
L 234.776529 266.144973 
L 234.930248 271.496873 
L 235.083967 271.658161 
L 235.237686 276.732396 
L 235.391405 276.091967 
L 235.545124 279.998729 
L 235.698843 276.124911 
L 235.852562 276.002807 
L 236.006281 276.142608 
L 236.16 273.692175 
L 236.313719 275.929267 
L 236.467438 276.255252 
L 236.621157 277.944474 
L 236.774876 276.98595 
L 236.928595 274.697914 
L 237.082314 286.226226 
L 237.236033 278.154289 
L 237.389752 275.95393 
L 237.543471 275.408645 
L 237.69719 276.691948 
L 237.850909 275.146279 
L 238.004628 287.020109 
L 238.158347 276.725985 
L 238.312066 276.330589 
L 238.465785 276.26673 
L 238.619504 275.961111 
L 238.773223 283.168663 
L 238.926942 276.415104 
L 239.23438 275.698693 
L 239.388099 266.723457 
L 239.541818 277.780081 
L 239.849256 276.010974 
L 240.002975 276.772562 
L 240.156694 274.956015 
L 240.310413 271.756903 
L 240.464132 276.065544 
L 240.617851 275.204095 
L 240.925289 276.58045 
L 241.079008 276.946726 
L 241.232727 275.725762 
L 241.386446 277.459538 
L 241.540165 276.922685 
L 241.693884 278.201449 
L 241.847603 282.695989 
L 242.001322 276.510804 
L 242.155041 275.830253 
L 242.30876 278.604091 
L 242.462479 278.905704 
L 242.616198 275.412944 
L 242.769917 278.809389 
L 242.923636 273.619461 
L 243.077355 289.247018 
L 243.231074 276.122144 
L 243.384793 282.549099 
L 243.538512 275.655205 
L 243.692231 283.908923 
L 243.999669 274.353262 
L 244.153388 275.875703 
L 244.307107 276.039538 
L 244.460826 274.660814 
L 244.614545 282.408175 
L 244.768264 279.389597 
L 244.921983 283.060894 
L 245.075702 270.228184 
L 245.38314 284.126812 
L 245.53686 276.144129 
L 245.690579 274.80859 
L 245.844298 275.870947 
L 245.998017 274.78554 
L 246.305455 261.079354 
L 246.612893 278.044739 
L 246.766612 273.520091 
L 246.920331 279.780785 
L 247.227769 276.665716 
L 247.381488 265.38954 
L 247.535207 276.398603 
L 247.688926 276.030852 
L 247.842645 276.073591 
L 247.996364 278.753424 
L 248.150083 276.273913 
L 248.303802 276.190271 
L 248.457521 275.378098 
L 248.61124 283.092651 
L 248.764959 274.696196 
L 249.072397 283.883738 
L 249.379835 267.259885 
L 249.533554 278.517394 
L 249.687273 275.457217 
L 249.840992 276.368884 
L 249.994711 276.550221 
L 250.14843 270.831116 
L 250.302149 271.717599 
L 250.455868 277.340276 
L 250.609587 272.619746 
L 250.763306 273.371742 
L 250.917025 276.243536 
L 251.070744 282.385164 
L 251.224463 277.564716 
L 251.378182 276.272464 
L 251.531901 278.574281 
L 251.839339 276.054821 
L 251.993058 277.141659 
L 252.146777 276.653532 
L 252.300496 276.707865 
L 252.454215 276.425899 
L 252.607934 275.652478 
L 252.761653 269.90423 
L 253.069091 284.894296 
L 253.22281 266.656759 
L 253.376529 276.64735 
L 253.683967 280.904263 
L 253.837686 276.175335 
L 254.145124 285.287749 
L 254.298843 276.230104 
L 254.452562 282.889065 
L 254.606281 275.933212 
L 254.76 277.008508 
L 254.913719 274.564156 
L 255.067438 276.026317 
L 255.221157 275.590806 
L 255.374876 278.708754 
L 255.528595 270.143482 
L 255.682314 285.187648 
L 255.836033 276.577093 
L 255.989752 276.955002 
L 256.143471 276.193515 
L 256.29719 280.56781 
L 256.450909 280.683698 
L 256.604628 276.930472 
L 256.758347 276.636103 
L 256.912066 269.485988 
L 257.219504 278.529378 
L 257.373223 281.642886 
L 257.526942 276.010792 
L 257.680661 275.20009 
L 257.83438 282.83663 
L 257.988099 275.995842 
L 258.141818 276.287165 
L 258.295537 274.80131 
L 258.449256 275.498172 
L 258.602975 276.722278 
L 258.756694 275.403689 
L 258.910413 272.311915 
L 259.217851 286.122217 
L 259.37157 265.366792 
L 259.525289 273.609706 
L 259.679008 270.613932 
L 259.832727 276.018257 
L 259.986446 274.023965 
L 260.140165 287.619508 
L 260.293884 272.221187 
L 260.447603 286.660694 
L 260.601322 280.755123 
L 260.755041 279.418714 
L 260.90876 265.766539 
L 261.062479 279.486275 
L 261.216198 279.21382 
L 261.369917 278.279898 
L 261.523636 276.373107 
L 261.677355 265.864254 
L 261.831074 290.635977 
L 261.984793 271.689402 
L 262.138512 274.544355 
L 262.292231 280.859295 
L 262.599669 264.535436 
L 262.753388 279.555311 
L 262.907107 266.739408 
L 263.060826 279.580521 
L 263.368264 274.941473 
L 263.521983 286.543141 
L 263.675702 275.172289 
L 263.829421 274.495211 
L 263.98314 269.726064 
L 264.13686 277.97961 
L 264.290579 276.175441 
L 264.444298 276.186594 
L 264.598017 273.173004 
L 264.751736 275.756148 
L 264.905455 276.356774 
L 265.059174 265.851696 
L 265.212893 278.175842 
L 265.366612 280.14841 
L 265.520331 272.292667 
L 265.67405 281.417682 
L 265.827769 273.634356 
L 265.981488 277.689585 
L 266.135207 276.09408 
L 266.596364 290.381104 
L 266.750083 276.13133 
L 266.903802 283.154327 
L 267.057521 271.103021 
L 267.21124 280.689503 
L 267.364959 276.649076 
L 267.518678 266.993955 
L 267.826116 279.942275 
L 267.979835 279.8994 
L 268.133554 273.760498 
L 268.287273 277.064137 
L 268.594711 277.495789 
L 268.74843 276.445003 
L 269.055868 287.88978 
L 269.363306 267.848024 
L 269.517025 266.542718 
L 269.670744 278.108373 
L 269.824463 274.631316 
L 269.978182 277.949471 
L 270.131901 276.397836 
L 270.28562 270.074592 
L 270.439339 289.287573 
L 270.593058 268.065088 
L 270.746777 275.677046 
L 270.900496 265.334551 
L 271.207934 273.41766 
L 271.361653 286.494181 
L 271.515372 275.387715 
L 271.669091 282.978155 
L 271.82281 276.190305 
L 271.976529 279.364535 
L 272.130248 276.108944 
L 272.283967 276.560505 
L 272.437686 273.736898 
L 272.591405 276.154237 
L 272.745124 270.67791 
L 272.898843 278.104215 
L 273.052562 275.584837 
L 273.206281 278.156789 
L 273.36 277.482284 
L 273.513719 283.61178 
L 273.667438 277.911416 
L 273.821157 280.835512 
L 273.974876 280.342187 
L 274.128595 287.323348 
L 274.436033 265.409773 
L 274.589752 268.028927 
L 274.743471 275.94766 
L 274.89719 274.397139 
L 275.050909 278.859805 
L 275.204628 274.385541 
L 275.358347 278.799185 
L 275.512066 276.216924 
L 275.819504 278.589182 
L 275.973223 276.282627 
L 276.126942 281.766488 
L 276.43438 271.967425 
L 276.588099 275.635591 
L 276.741818 284.324463 
L 276.895537 274.401419 
L 277.049256 272.998555 
L 277.356694 278.455478 
L 277.510413 276.63156 
L 277.664132 276.503539 
L 277.817851 275.784389 
L 277.97157 275.957399 
L 278.125289 275.792696 
L 278.279008 270.800273 
L 278.432727 276.048176 
L 278.586446 274.663762 
L 278.893884 285.174221 
L 279.047603 276.631553 
L 279.201322 276.134791 
L 279.355041 291.709112 
L 279.50876 275.625235 
L 279.662479 288.000518 
L 279.816198 268.354368 
L 279.969917 279.496516 
L 280.277355 278.000001 
L 280.431074 280.427585 
L 280.584793 279.077249 
L 280.738512 275.834338 
L 280.892231 282.757862 
L 281.04595 280.36055 
L 281.199669 271.632222 
L 281.353388 274.680487 
L 281.507107 274.60494 
L 281.660826 278.129853 
L 281.968264 276.111211 
L 282.121983 269.779622 
L 282.275702 275.12398 
L 282.429421 276.390652 
L 282.58314 276.313762 
L 282.73686 274.771696 
L 282.890579 277.289559 
L 283.044298 276.178932 
L 283.198017 281.388433 
L 283.351736 282.415208 
L 283.505455 275.927264 
L 283.659174 281.844963 
L 283.812893 264.337718 
L 283.966612 286.496284 
L 284.120331 275.219834 
L 284.427769 279.73437 
L 284.581488 274.112017 
L 284.735207 278.511892 
L 284.888926 270.965668 
L 285.196364 279.108642 
L 285.350083 277.288259 
L 285.503802 278.443975 
L 285.81124 275.426089 
L 285.964959 278.945028 
L 286.118678 278.053475 
L 286.272397 290.730016 
L 286.426116 277.01608 
L 286.579835 275.541834 
L 286.887273 276.232119 
L 287.040992 286.259808 
L 287.194711 279.174167 
L 287.34843 279.374068 
L 287.502149 282.178015 
L 287.655868 280.962753 
L 287.809587 285.177109 
L 287.963306 276.175564 
L 288.117025 276.915198 
L 288.270744 270.781502 
L 288.578182 281.675044 
L 288.731901 271.012405 
L 288.88562 276.479351 
L 289.039339 269.08519 
L 289.193058 278.13972 
L 289.346777 275.370919 
L 289.500496 276.46659 
L 289.654215 275.837427 
L 289.807934 276.472964 
L 289.961653 276.534431 
L 290.115372 277.013394 
L 290.269091 274.029306 
L 290.42281 276.407828 
L 290.576529 281.002359 
L 290.730248 275.972416 
L 291.037686 278.017864 
L 291.191405 274.237889 
L 291.498843 280.553394 
L 291.652562 279.24715 
L 291.806281 275.67528 
L 291.96 278.793968 
L 292.113719 278.527835 
L 292.267438 276.687922 
L 292.421157 281.622327 
L 292.574876 265.826406 
L 292.728595 271.895202 
L 292.882314 273.265523 
L 293.036033 277.504806 
L 293.189752 276.204526 
L 293.343471 280.666248 
L 293.49719 276.474928 
L 293.650909 279.097374 
L 293.804628 273.365301 
L 294.112066 280.006133 
L 294.265785 281.989397 
L 294.419504 279.472608 
L 294.573223 284.293553 
L 294.726942 281.47843 
L 294.880661 273.335172 
L 295.03438 280.590801 
L 295.341818 275.027411 
L 295.495537 279.064804 
L 295.802975 276.259983 
L 295.956694 279.007115 
L 296.110413 273.335746 
L 296.417851 277.98448 
L 296.57157 285.952889 
L 296.725289 279.009219 
L 296.879008 283.706979 
L 297.032727 278.01548 
L 297.186446 280.59499 
L 297.340165 270.714065 
L 297.493884 277.184234 
L 297.647603 275.386452 
L 297.801322 278.957492 
L 297.955041 279.824754 
L 298.10876 279.908064 
L 298.262479 276.753939 
L 298.416198 270.245642 
L 298.723636 284.291768 
L 298.877355 278.520941 
L 299.184793 281.780857 
L 299.338512 277.718537 
L 299.492231 280.684014 
L 299.64595 274.85522 
L 299.799669 281.210608 
L 299.953388 275.296439 
L 300.260826 280.259538 
L 300.414545 273.273272 
L 300.568264 286.582432 
L 300.721983 278.517925 
L 300.875702 280.648832 
L 301.18314 277.071429 
L 301.33686 279.471574 
L 301.490579 279.691207 
L 301.644298 278.230264 
L 301.798017 281.43852 
L 302.105455 278.762367 
L 302.259174 279.141225 
L 302.412893 280.158785 
L 302.566612 272.481473 
L 302.720331 277.41093 
L 302.87405 277.90063 
L 303.027769 282.894724 
L 303.181488 273.769392 
L 303.335207 279.477296 
L 303.488926 277.893836 
L 303.642645 273.237041 
L 303.950083 279.834963 
L 304.103802 277.063982 
L 304.257521 280.805434 
L 304.41124 280.844078 
L 304.564959 275.405515 
L 304.872397 279.783175 
L 305.026116 274.238356 
L 305.179835 258.74446 
L 305.333554 279.444627 
L 305.487273 268.66987 
L 305.640992 274.803998 
L 305.794711 268.063299 
L 305.94843 278.959212 
L 306.102149 278.936285 
L 306.255868 277.868822 
L 306.409587 280.176681 
L 306.563306 279.843564 
L 306.717025 274.917443 
L 306.870744 276.672451 
L 307.024463 276.598725 
L 307.178182 270.181367 
L 307.331901 277.123572 
L 307.48562 266.869424 
L 307.639339 278.716742 
L 307.793058 269.970602 
L 307.946777 275.787548 
L 308.100496 274.836012 
L 308.254215 276.085181 
L 308.407934 270.951931 
L 308.715372 284.500977 
L 309.02281 275.499794 
L 309.176529 281.171804 
L 309.330248 280.376727 
L 309.483967 271.575501 
L 309.791405 281.566177 
L 310.098843 274.136381 
L 310.252562 290.133632 
L 310.406281 279.72451 
L 310.56 278.663174 
L 310.713719 272.916338 
L 310.867438 276.918189 
L 311.021157 266.880596 
L 311.174876 278.667518 
L 311.328595 276.443453 
L 311.482314 262.68284 
L 311.636033 288.179182 
L 311.789752 281.024958 
L 311.943471 265.50669 
L 312.09719 279.532236 
L 312.250909 278.986638 
L 312.404628 276.858502 
L 312.558347 279.968178 
L 313.019504 279.495659 
L 313.173223 279.067607 
L 313.326942 277.276257 
L 313.480661 282.000924 
L 313.63438 277.908284 
L 313.788099 278.842307 
L 313.941818 273.248767 
L 314.095537 278.201311 
L 314.249256 278.448237 
L 314.402975 279.644197 
L 314.556694 268.168432 
L 314.710413 290.35781 
L 314.864132 280.708575 
L 315.017851 280.662549 
L 315.325289 276.404038 
L 315.479008 280.655839 
L 315.632727 278.953051 
L 315.786446 281.46255 
L 315.940165 272.396615 
L 316.093884 289.433344 
L 316.247603 279.13988 
L 316.401322 278.358724 
L 316.555041 276.910408 
L 316.70876 277.809534 
L 316.862479 276.329248 
L 317.016198 279.073723 
L 317.169917 266.105492 
L 317.477355 278.016346 
L 317.631074 276.60058 
L 317.784793 278.237665 
L 317.938512 281.734943 
L 318.092231 279.257324 
L 318.24595 291.064833 
L 318.553388 275.822303 
L 318.707107 273.186745 
L 318.860826 276.594061 
L 319.014545 282.855547 
L 319.168264 262.086802 
L 319.321983 277.684278 
L 319.475702 267.08557 
L 319.629421 276.552668 
L 319.78314 267.918555 
L 319.93686 277.966604 
L 320.090579 279.66372 
L 320.244298 260.717604 
L 320.551736 286.523011 
L 320.705455 278.342762 
L 320.859174 284.421388 
L 321.012893 277.649108 
L 321.166612 280.469986 
L 321.320331 273.318721 
L 321.627769 284.909985 
L 321.935207 276.356015 
L 322.088926 277.702717 
L 322.242645 287.501143 
L 322.396364 278.077875 
L 322.550083 276.111611 
L 322.703802 281.432476 
L 322.857521 274.356947 
L 323.01124 276.921329 
L 323.164959 281.525357 
L 323.318678 276.845431 
L 323.472397 276.056291 
L 323.626116 270.806625 
L 323.779835 276.404396 
L 323.933554 270.641395 
L 324.087273 285.030485 
L 324.394711 276.995833 
L 324.702149 276.30509 
L 324.855868 275.916413 
L 325.009587 273.201068 
L 325.163306 276.769108 
L 325.317025 275.605103 
L 325.470744 276.115545 
L 325.624463 279.097784 
L 325.931901 275.744544 
L 326.08562 268.916038 
L 326.239339 269.31122 
L 326.546777 275.939348 
L 326.700496 280.367126 
L 326.854215 276.009051 
L 327.007934 276.047905 
L 327.161653 275.886782 
L 327.315372 274.415505 
L 327.469091 275.964529 
L 327.62281 276.020445 
L 327.776529 277.740938 
L 327.930248 284.947832 
L 328.237686 270.430354 
L 328.391405 277.437008 
L 328.545124 273.933927 
L 328.698843 276.671024 
L 328.852562 275.410983 
L 329.006281 276.552579 
L 329.16 275.782247 
L 329.313719 276.254549 
L 329.467438 277.528046 
L 329.621157 276.302649 
L 329.774876 276.233106 
L 329.928595 283.282735 
L 330.082314 268.290521 
L 330.236033 277.388777 
L 330.389752 279.358404 
L 330.543471 276.460746 
L 330.69719 271.383557 
L 330.850909 279.632036 
L 331.004628 275.337647 
L 331.158347 276.82779 
L 331.312066 272.625005 
L 331.465785 281.333483 
L 331.619504 268.959603 
L 331.773223 278.789336 
L 332.23438 271.969365 
L 332.541818 278.212003 
L 332.695537 269.439849 
L 333.002975 281.649226 
L 333.156694 276.030557 
L 333.310413 278.973299 
L 333.464132 279.001067 
L 333.617851 273.731641 
L 333.77157 263.969999 
L 333.925289 286.053119 
L 334.079008 277.531152 
L 334.232727 276.158027 
L 334.386446 276.435229 
L 334.540165 281.021643 
L 334.693884 281.618837 
L 334.847603 274.112939 
L 335.001322 276.621407 
L 335.155041 276.879201 
L 335.30876 283.442603 
L 335.616198 272.604748 
L 335.769917 277.480443 
L 335.923636 268.877653 
L 336.231074 287.143364 
L 336.538512 276.487357 
L 336.692231 276.590934 
L 336.84595 264.90343 
L 336.999669 278.295397 
L 337.153388 276.593921 
L 337.307107 282.031362 
L 337.460826 280.990191 
L 337.768264 269.734186 
L 338.075702 283.738485 
L 338.229421 276.188037 
L 338.38314 276.247665 
L 338.53686 278.497351 
L 338.690579 272.212421 
L 338.844298 276.173969 
L 338.998017 274.003746 
L 339.151736 275.815438 
L 339.305455 276.236269 
L 339.459174 276.0195 
L 339.612893 278.024439 
L 339.766612 272.825128 
L 339.920331 276.030851 
L 340.227769 292.93648 
L 340.688926 275.585157 
L 340.842645 273.39386 
L 341.150083 285.667983 
L 341.457521 275.99 
L 341.61124 278.458293 
L 341.764959 276.389615 
L 341.918678 276.272736 
L 342.072397 275.816795 
L 342.226116 274.234252 
L 342.379835 281.996874 
L 342.687273 275.239357 
L 342.840992 278.471621 
L 343.14843 263.31326 
L 343.302149 277.002175 
L 343.455868 276.358305 
L 343.609587 282.853451 
L 343.917025 274.065272 
L 344.070744 276.230279 
L 344.224463 275.930204 
L 344.531901 282.408353 
L 344.993058 269.458318 
L 345.300496 280.227 
L 345.607934 275.52221 
L 345.761653 283.01318 
L 345.915372 275.713102 
L 346.069091 282.941258 
L 346.22281 283.309017 
L 346.376529 275.77486 
L 346.530248 276.367829 
L 346.683967 278.740266 
L 346.837686 271.741403 
L 346.991405 276.0752 
L 347.145124 275.274061 
L 347.298843 276.11648 
L 347.452562 273.479441 
L 347.606281 276.545763 
L 347.76 283.572094 
L 347.913719 277.437259 
L 348.067438 276.926052 
L 348.221157 275.938251 
L 348.374876 276.073377 
L 348.528595 276.898347 
L 348.682314 280.942634 
L 348.836033 275.6034 
L 348.989752 275.21161 
L 349.143471 278.043596 
L 349.450909 273.031574 
L 349.604628 276.673316 
L 349.758347 276.327496 
L 349.912066 276.481835 
L 350.219504 269.976489 
L 350.373223 275.073007 
L 350.526942 273.023116 
L 350.988099 283.207488 
L 351.141818 277.052099 
L 351.295537 264.464744 
L 351.449256 277.799984 
L 351.756694 273.429332 
L 351.910413 276.184147 
L 352.064132 276.546688 
L 352.37157 281.424705 
L 352.525289 276.297811 
L 352.679008 286.393487 
L 352.832727 269.613048 
L 352.986446 276.26141 
L 353.140165 276.211544 
L 353.293884 274.152783 
L 353.447603 278.128018 
L 353.601322 276.088494 
L 353.755041 276.746637 
L 353.90876 276.315848 
L 354.062479 279.902213 
L 354.369917 273.513395 
L 354.523636 276.698215 
L 354.677355 276.641192 
L 354.831074 287.55414 
L 354.984793 263.193342 
L 355.138512 285.321228 
L 355.292231 289.133503 
L 355.44595 276.70555 
L 355.599669 278.50913 
L 355.753388 275.56348 
L 355.907107 276.223777 
L 356.060826 274.088825 
L 356.368264 276.869001 
L 356.675702 263.544383 
L 356.829421 276.494035 
L 356.98314 276.000126 
L 357.13686 292.595767 
L 357.290579 276.278326 
L 357.598017 275.751241 
L 357.751736 272.360926 
L 357.905455 279.825532 
L 358.059174 279.301058 
L 358.366612 276.405327 
L 358.520331 280.257621 
L 358.67405 270.703644 
L 358.827769 276.505907 
L 358.981488 270.515065 
L 359.135207 277.975999 
L 359.288926 278.483738 
L 359.442645 276.482292 
L 359.750083 276.192781 
L 359.903802 280.50415 
L 360.364959 276.136094 
L 360.518678 269.832993 
L 360.826116 279.039943 
L 360.979835 279.638121 
L 361.133554 275.54331 
L 361.287273 274.817426 
L 361.440992 278.540506 
L 361.594711 276.470961 
L 361.74843 276.262838 
L 361.902149 276.581551 
L 362.055868 274.812275 
L 362.209587 275.175435 
L 362.363306 276.146092 
L 362.517025 280.801104 
L 362.978182 269.716957 
L 363.28562 282.957946 
L 363.439339 275.874559 
L 363.593058 281.592879 
L 363.900496 276.227062 
L 364.054215 287.514628 
L 364.207934 276.29686 
L 364.515372 281.26959 
L 364.669091 276.250391 
L 364.82281 277.344775 
L 364.976529 275.493201 
L 365.130248 275.843222 
L 365.283967 276.541778 
L 365.437686 279.818719 
L 365.591405 270.940407 
L 365.745124 275.894196 
L 365.898843 268.398462 
L 366.052562 277.851087 
L 366.206281 276.547481 
L 366.36 277.454915 
L 366.513719 283.81129 
L 366.821157 273.284833 
L 366.974876 276.755836 
L 367.128595 277.00196 
L 367.436033 275.5834 
L 367.589752 275.983706 
L 367.743471 283.917204 
L 367.89719 272.336299 
L 368.050909 269.959578 
L 368.204628 276.373561 
L 368.358347 270.149568 
L 369.126942 279.886246 
L 369.280661 265.252976 
L 369.43438 281.824715 
L 369.588099 285.679879 
L 369.741818 267.961597 
L 369.895537 280.590042 
L 370.049256 275.744857 
L 370.202975 274.695504 
L 370.356694 278.284131 
L 370.510413 271.312581 
L 370.664132 280.409949 
L 370.817851 276.576665 
L 370.97157 276.261208 
L 371.125289 275.354486 
L 371.279008 276.287145 
L 371.586446 279.430952 
L 371.740165 279.403155 
L 371.893884 277.557136 
L 372.201322 284.011652 
L 372.50876 272.883833 
L 372.662479 275.81367 
L 372.816198 273.194391 
L 372.969917 288.935123 
L 373.123636 276.17197 
L 373.277355 278.185206 
L 373.431074 268.339486 
L 373.738512 280.156313 
L 373.892231 276.681254 
L 374.04595 267.919762 
L 374.353388 284.67468 
L 374.507107 275.436167 
L 374.660826 277.077847 
L 374.814545 271.475016 
L 374.968264 292.933496 
L 375.121983 286.348831 
L 375.275702 271.964444 
L 375.429421 277.155792 
L 375.58314 275.804662 
L 375.73686 292.436547 
L 375.890579 271.942799 
L 376.044298 282.27795 
L 376.198017 277.95314 
L 376.351736 279.274891 
L 376.505455 276.580894 
L 376.659174 276.713654 
L 376.812893 277.51031 
L 376.966612 283.098811 
L 377.27405 279.190822 
L 377.427769 279.453786 
L 377.581488 282.967052 
L 377.735207 281.277971 
L 377.888926 276.45692 
L 378.042645 276.145711 
L 378.196364 280.076957 
L 378.350083 280.866011 
L 378.503802 275.801097 
L 378.657521 276.046172 
L 378.81124 270.041792 
L 379.118678 279.174829 
L 379.272397 277.164375 
L 379.426116 277.084041 
L 379.579835 265.935314 
L 379.733554 284.293413 
L 379.887273 283.31684 
L 380.040992 285.199644 
L 380.194711 269.855624 
L 380.502149 280.645485 
L 380.655868 278.214948 
L 380.809587 269.792676 
L 380.963306 276.77959 
L 381.117025 274.429181 
L 381.424463 280.283445 
L 381.578182 276.28193 
L 381.731901 280.506371 
L 381.88562 277.154804 
L 382.039339 280.257887 
L 382.193058 268.705035 
L 382.346777 282.790873 
L 382.500496 271.092832 
L 382.654215 284.568075 
L 382.807934 280.184233 
L 382.961653 279.424188 
L 383.115372 278.037551 
L 383.269091 272.475362 
L 383.576529 281.662432 
L 383.730248 272.455052 
L 383.883967 284.514805 
L 384.037686 274.339502 
L 384.498843 282.99657 
L 384.652562 261.715149 
L 384.806281 279.716265 
L 384.96 276.428932 
L 385.113719 276.061543 
L 385.267438 281.780359 
L 385.421157 279.411476 
L 385.574876 262.517044 
L 385.882314 274.082547 
L 386.036033 274.058702 
L 386.189752 268.109598 
L 386.343471 279.981437 
L 386.650909 274.536303 
L 386.958347 276.10521 
L 387.112066 273.967295 
L 387.573223 282.336977 
L 387.726942 276.498215 
L 387.880661 280.751249 
L 388.03438 275.633144 
L 388.188099 274.811488 
L 388.341818 266.869283 
L 388.495537 279.461666 
L 388.649256 272.566325 
L 388.802975 277.026176 
L 388.956694 273.621768 
L 389.264132 285.474694 
L 389.417851 275.57045 
L 389.57157 275.622755 
L 389.725289 278.980412 
L 389.879008 265.607613 
L 390.032727 282.891076 
L 390.186446 283.656152 
L 390.493884 276.129006 
L 390.647603 280.157006 
L 390.801322 273.96838 
L 391.10876 279.452311 
L 391.262479 276.758216 
L 391.569917 282.128556 
L 391.723636 276.70417 
L 392.031074 278.08552 
L 392.184793 272.175495 
L 392.338512 288.494312 
L 392.492231 275.710526 
L 392.64595 272.920628 
L 392.799669 283.920227 
L 392.953388 276.013369 
L 393.107107 276.805265 
L 393.260826 284.827497 
L 393.721983 271.463861 
L 393.875702 283.81011 
L 394.029421 275.657741 
L 394.18314 277.693839 
L 394.33686 282.583837 
L 394.490579 269.064885 
L 394.798017 278.401453 
L 394.951736 278.298676 
L 395.105455 279.717873 
L 395.259174 265.017433 
L 395.412893 264.909871 
L 395.566612 282.557248 
L 395.720331 276.281885 
L 395.87405 274.982944 
L 396.027769 271.001544 
L 396.181488 277.332496 
L 396.335207 278.066524 
L 396.488926 271.741588 
L 396.642645 276.361053 
L 396.796364 274.067156 
L 397.103802 283.780101 
L 397.257521 277.957259 
L 397.41124 264.229458 
L 397.718678 274.677741 
L 398.026116 272.639597 
L 398.179835 279.318739 
L 398.333554 259.8845 
L 398.487273 275.982817 
L 398.487273 275.982817 
" clip-path="url(#pd8a8dc1262)" style="fill: none; stroke: #008000; stroke-width: 1.5; stroke-linecap: square"/>
   </g>
   <g id="line2d_26">
    <path d="M 73.832727 53.568 
L 73.986446 53.568 
L 74.140165 258.078732 
L 74.447603 53.568 
L 76.138512 53.568 
L 76.292231 180.904871 
L 76.44595 53.568 
L 78.444298 53.568 
L 78.598017 213.611888 
L 78.751736 53.568 
L 81.057521 53.568 
L 81.21124 156.282734 
L 81.364959 53.568 
L 81.518678 53.568 
L 81.672397 240.255245 
L 81.826116 240.071498 
L 81.979835 53.568 
L 83.209587 53.568 
L 83.363306 263.958645 
L 83.517025 53.568 
L 85.976529 53.568 
L 86.130248 230.516639 
L 86.283967 53.568 
L 88.89719 53.568 
L 89.050909 225.00422 
L 89.204628 61.285386 
L 89.358347 53.568 
L 90.126942 53.568 
L 90.280661 140.112973 
L 90.43438 53.568 
L 90.588099 53.568 
L 90.741818 244.66518 
L 90.895537 231.80287 
L 91.049256 53.568 
L 91.97157 53.568 
L 92.125289 254.403786 
L 92.279008 53.568 
L 93.355041 53.568 
L 93.662479 223.901736 
L 93.816198 175.943694 
L 93.969917 53.568 
L 94.584793 53.568 
L 94.738512 140.29672 
L 94.892231 53.568 
L 96.121983 53.568 
L 96.429421 226.841693 
L 96.58314 53.568 
L 96.890579 53.568 
L 97.044298 208.09947 
L 97.198017 156.466482 
L 97.351736 53.568 
L 97.505455 53.568 
L 97.659174 175.392452 
L 97.812893 53.568 
L 98.27405 53.568 
L 98.427769 77.638895 
L 98.581488 53.568 
L 98.735207 197.625874 
L 98.888926 53.568 
L 100.118678 53.568 
L 100.272397 120.084518 
L 100.426116 267.449844 
L 100.579835 53.568 
L 101.040992 53.568 
L 101.194711 211.223173 
L 101.34843 53.568 
L 106.574876 53.568 
L 106.728595 140.29672 
L 106.882314 53.568 
L 110.110413 53.568 
L 110.264132 204.608271 
L 110.417851 53.568 
L 110.879008 53.568 
L 111.032727 209.385701 
L 111.186446 53.568 
L 111.647603 53.568 
L 111.801322 264.509887 
L 111.955041 53.568 
L 112.569917 53.568 
L 112.723636 194.869665 
L 113.031074 53.568 
L 115.490579 53.568 
L 115.644298 91.052447 
L 115.798017 53.568 
L 116.566612 53.568 
L 116.720331 214.714372 
L 116.87405 53.568 
L 121.024463 53.568 
L 121.178182 100.9748 
L 121.331901 53.568 
L 121.639339 53.568 
L 121.793058 258.997468 
L 121.946777 53.568 
L 122.100496 53.568 
L 122.254215 184.396069 
L 122.407934 53.568 
L 129.786446 53.568 
L 130.093884 167.307572 
L 130.247603 53.568 
L 131.477355 53.568 
L 131.631074 153.710272 
L 131.784793 53.568 
L 132.860826 53.568 
L 133.014545 78.373884 
L 133.168264 53.568 
L 139.624463 53.568 
L 139.931901 229.414155 
L 140.08562 53.568 
L 140.239339 53.568 
L 140.393058 140.480467 
L 140.546777 53.568 
L 140.854215 53.568 
L 141.007934 209.018206 
L 141.161653 53.568 
L 142.852562 53.568 
L 143.006281 191.745961 
L 143.16 53.568 
L 143.774876 53.568 
L 144.082314 180.537376 
L 144.236033 53.568 
L 145.312066 53.568 
L 145.465785 107.77345 
L 145.619504 53.568 
L 146.541818 53.568 
L 146.695537 89.398721 
L 146.849256 53.568 
L 150.077355 53.568 
L 150.231074 138.2755 
L 150.384793 53.568 
L 155.457521 53.568 
L 155.61124 251.46383 
L 155.764959 53.568 
L 156.994711 53.568 
L 157.14843 244.66518 
L 157.302149 53.568 
L 157.609587 53.568 
L 157.763306 224.452978 
L 157.917025 53.568 
L 162.067438 53.568 
L 162.221157 70.472751 
L 162.374876 53.568 
L 162.528595 53.568 
L 162.682314 241.173981 
L 162.836033 53.568 
L 166.986446 53.568 
L 167.140165 216.18435 
L 167.293884 53.568 
L 169.292231 53.568 
L 169.599669 260.467447 
L 169.753388 53.568 
L 170.521983 53.568 
L 170.675702 256.608754 
L 170.829421 53.568 
L 170.98314 263.223656 
L 171.13686 53.568 
L 174.364959 53.568 
L 174.518678 143.236677 
L 174.672397 53.568 
L 175.133554 53.568 
L 175.287273 180.537376 
L 175.440992 215.081867 
L 175.594711 53.568 
L 175.74843 257.894985 
L 175.902149 53.568 
L 176.517025 53.568 
L 176.824463 241.541476 
L 176.978182 53.568 
L 177.439339 53.568 
L 177.593058 145.441644 
L 177.746777 53.568 
L 177.900496 53.568 
L 178.054215 223.901736 
L 178.207934 53.568 
L 178.361653 184.763564 
L 178.515372 147.646612 
L 178.669091 53.568 
L 181.128595 53.568 
L 181.282314 203.873282 
L 181.436033 53.568 
L 184.049256 53.568 
L 184.202975 257.52749 
L 184.356694 53.568 
L 184.817851 53.568 
L 184.97157 221.329274 
L 185.125289 53.568 
L 185.586446 53.568 
L 185.740165 187.703521 
L 185.893884 53.568 
L 186.816198 53.568 
L 186.969917 190.827224 
L 187.123636 53.568 
L 187.431074 53.568 
L 187.584793 268.552327 
L 187.892231 258.629974 
L 188.04595 53.568 
L 188.968264 53.568 
L 189.121983 249.810104 
L 189.275702 53.568 
L 190.351736 53.568 
L 190.505455 153.894019 
L 190.659174 53.568 
L 195.578182 53.568 
L 195.731901 260.099952 
L 195.88562 53.568 
L 196.039339 53.568 
L 196.193058 257.159996 
L 196.346777 53.568 
L 198.652562 53.568 
L 198.806281 228.679166 
L 198.96 53.568 
L 207.875702 53.568 
L 208.029421 239.704003 
L 208.18314 53.568 
L 212.794711 53.568 
L 212.94843 89.949963 
L 213.102149 53.568 
L 213.409587 53.568 
L 213.563306 232.354112 
L 213.717025 53.568 
L 214.793058 53.568 
L 214.946777 82.783819 
L 215.100496 53.568 
L 215.715372 53.568 
L 215.869091 154.445261 
L 216.02281 53.568 
L 216.791405 53.568 
L 216.945124 177.964914 
L 217.098843 53.568 
L 218.328595 53.568 
L 218.482314 236.580299 
L 218.636033 53.568 
L 219.404628 53.568 
L 219.558347 92.338678 
L 219.712066 53.568 
L 220.941818 53.568 
L 221.095537 72.310223 
L 221.249256 53.568 
L 223.401322 53.568 
L 223.555041 238.050278 
L 223.70876 53.568 
L 223.862479 53.568 
L 224.016198 250.72884 
L 224.169917 53.568 
L 225.707107 53.568 
L 225.860826 218.573065 
L 226.014545 53.568 
L 226.168264 160.141427 
L 226.321983 53.568 
L 227.398017 53.568 
L 227.551736 98.218591 
L 227.705455 53.568 
L 230.472397 53.568 
L 230.626116 259.732458 
L 230.779835 53.568 
L 231.240992 53.568 
L 231.394711 257.52749 
L 231.54843 53.568 
L 234.930248 53.568 
L 235.083967 221.880516 
L 235.237686 53.568 
L 239.23438 53.568 
L 239.388099 70.656498 
L 239.541818 53.568 
L 243.231074 53.568 
L 243.384793 132.028092 
L 243.538512 53.568 
L 246.151736 53.568 
L 246.305455 68.635278 
L 246.612893 255.50627 
L 246.766612 53.568 
L 247.227769 53.568 
L 247.381488 174.106221 
L 247.535207 53.568 
L 248.457521 53.568 
L 248.61124 257.159996 
L 248.764959 53.568 
L 248.918678 53.568 
L 249.072397 244.113938 
L 249.226116 53.568 
L 253.069091 53.568 
L 253.22281 138.642995 
L 253.376529 53.568 
L 253.837686 53.568 
L 253.991405 183.844827 
L 254.145124 53.568 
L 256.758347 53.568 
L 256.912066 211.774415 
L 257.065785 53.568 
L 259.064132 53.568 
L 259.217851 96.197371 
L 259.37157 53.568 
L 261.523636 53.568 
L 261.831074 249.993851 
L 261.984793 53.568 
L 262.753388 53.568 
L 262.907107 130.006872 
L 263.060826 53.568 
L 264.905455 53.568 
L 265.059174 252.566313 
L 265.212893 53.568 
L 265.366612 223.534242 
L 265.520331 53.568 
L 266.903802 53.568 
L 267.057521 224.085484 
L 267.21124 53.568 
L 268.902149 53.568 
L 269.055868 236.029057 
L 269.209587 53.568 
L 269.363306 166.388835 
L 269.517025 53.568 
L 270.131901 53.568 
L 270.28562 250.912588 
L 270.439339 53.568 
L 271.207934 53.568 
L 271.361653 231.986617 
L 271.515372 53.568 
L 274.282314 53.568 
L 274.436033 243.378949 
L 274.589752 53.568 
L 278.125289 53.568 
L 278.279008 195.788401 
L 278.432727 53.568 
L 279.201322 53.568 
L 279.355041 105.568483 
L 279.50876 53.568 
L 279.816198 162.897637 
L 279.969917 53.568 
L 283.044298 53.568 
L 283.198017 102.996021 
L 283.351736 53.568 
L 283.659174 53.568 
L 283.812893 114.204605 
L 283.966612 53.568 
L 284.735207 53.568 
L 284.888926 158.671449 
L 285.042645 53.568 
L 286.118678 53.568 
L 286.272397 164.551362 
L 286.426116 53.568 
L 288.117025 53.568 
L 288.270744 214.714372 
L 288.424463 53.568 
L 288.88562 53.568 
L 289.039339 86.642512 
L 289.193058 53.568 
L 290.42281 53.568 
L 290.576529 222.799253 
L 290.730248 53.568 
L 292.421157 53.568 
L 292.574876 213.795635 
L 292.728595 53.568 
L 294.419504 53.568 
L 294.573223 239.152761 
L 294.726942 53.568 
L 294.880661 53.568 
L 295.03438 150.402821 
L 295.188099 53.568 
L 297.647603 53.568 
L 297.801322 200.565831 
L 297.955041 53.568 
L 298.569917 53.568 
L 298.723636 249.442609 
L 298.877355 53.568 
L 299.338512 53.568 
L 299.492231 238.417772 
L 299.64595 53.568 
L 302.412893 53.568 
L 302.566612 213.060646 
L 302.720331 53.568 
L 303.796364 53.568 
L 303.950083 246.870147 
L 304.103802 53.568 
L 305.026116 53.568 
L 305.179835 234.191584 
L 305.333554 53.568 
L 305.640992 53.568 
L 305.794711 159.773933 
L 305.94843 53.568 
L 307.331901 53.568 
L 307.48562 236.396552 
L 307.639339 53.568 
L 308.407934 53.568 
L 308.561653 101.526042 
L 308.715372 53.568 
L 310.098843 53.568 
L 310.252562 137.724258 
L 310.406281 53.568 
L 310.867438 53.568 
L 311.021157 258.997468 
L 311.174876 53.568 
L 311.789752 53.568 
L 311.943471 265.796118 
L 312.09719 53.568 
L 313.941818 53.568 
L 314.095537 256.241259 
L 314.249256 53.568 
L 314.402975 53.568 
L 314.556694 200.749578 
L 314.710413 53.568 
L 315.940165 53.568 
L 316.093884 102.628526 
L 316.247603 53.568 
L 319.014545 53.568 
L 319.168264 227.392935 
L 319.321983 53.568 
L 320.090579 53.568 
L 320.244298 134.600554 
L 320.398017 53.568 
L 320.551736 92.338678 
L 320.705455 53.568 
L 320.859174 195.053412 
L 321.012893 53.568 
L 323.779835 53.568 
L 323.933554 268.552327 
L 324.087273 53.568 
L 325.931901 53.568 
L 326.08562 247.972631 
L 326.239339 53.568 
L 327.776529 53.568 
L 327.930248 80.395104 
L 328.083967 53.568 
L 332.080661 53.568 
L 332.23438 110.713407 
L 332.388099 53.568 
L 333.617851 53.568 
L 333.77157 234.926574 
L 333.925289 68.267783 
L 334.079008 53.568 
L 335.769917 53.568 
L 335.923636 137.908005 
L 336.077355 53.568 
L 337.614545 53.568 
L 337.768264 244.297685 
L 337.921983 53.568 
L 340.07405 53.568 
L 340.227769 86.275017 
L 340.381488 53.568 
L 340.842645 53.568 
L 340.996364 57.242946 
L 341.150083 53.568 
L 342.840992 53.568 
L 342.994711 213.428141 
L 343.14843 181.088618 
L 343.302149 53.568 
L 344.378182 53.568 
L 344.531901 205.527008 
L 344.68562 53.568 
L 345.915372 53.568 
L 346.069091 148.381601 
L 346.22281 53.568 
L 347.606281 53.568 
L 347.76 218.389318 
L 347.913719 53.568 
L 351.141818 53.568 
L 351.295537 240.806487 
L 351.449256 53.568 
L 352.064132 53.568 
L 352.217851 213.979383 
L 352.37157 53.568 
L 354.831074 53.568 
L 354.984793 92.88992 
L 355.138512 53.568 
L 355.292231 185.498553 
L 355.44595 53.568 
L 356.98314 53.568 
L 357.13686 156.833976 
L 357.290579 53.568 
L 357.905455 53.568 
L 358.059174 241.173981 
L 358.212893 53.568 
L 362.363306 53.568 
L 362.517025 125.964432 
L 362.670744 53.568 
L 364.361653 53.568 
L 364.515372 260.651194 
L 364.669091 53.568 
L 365.437686 53.568 
L 365.591405 231.619122 
L 365.745124 53.568 
L 368.204628 53.568 
L 368.358347 257.159996 
L 368.512066 53.568 
L 368.973223 53.568 
L 369.126942 180.353629 
L 369.280661 53.568 
L 370.356694 53.568 
L 370.510413 100.239811 
L 370.664132 53.568 
L 373.277355 53.568 
L 373.431074 246.870147 
L 373.584793 53.568 
L 375.58314 53.568 
L 375.73686 201.30082 
L 375.890579 53.568 
L 378.196364 53.568 
L 378.350083 101.342295 
L 378.503802 53.568 
L 380.040992 53.568 
L 380.194711 238.417772 
L 380.34843 53.568 
L 382.039339 53.568 
L 382.193058 172.452496 
L 382.346777 162.897637 
L 382.500496 53.568 
L 384.498843 53.568 
L 384.652562 233.272848 
L 384.806281 53.568 
L 385.421157 53.568 
L 385.574876 195.604654 
L 385.728595 53.568 
L 386.189752 53.568 
L 386.343471 243.930191 
L 386.49719 53.568 
L 389.110413 53.568 
L 389.264132 148.197854 
L 389.417851 53.568 
L 389.57157 53.568 
L 389.725289 258.078732 
L 389.879008 53.568 
L 390.647603 53.568 
L 390.801322 227.944177 
L 390.955041 53.568 
L 391.10876 160.141427 
L 391.262479 53.568 
L 395.105455 53.568 
L 395.412893 253.668797 
L 395.566612 53.568 
L 396.335207 53.568 
L 396.488926 66.062816 
L 396.642645 53.568 
L 397.872397 53.568 
L 398.026116 89.766216 
L 398.179835 53.568 
L 398.333554 143.604171 
L 398.487273 53.568 
L 398.487273 53.568 
" clip-path="url(#pd8a8dc1262)" style="fill: none; stroke: #0000ff; stroke-width: 1.5; stroke-linecap: square"/>
   </g>
   <g id="patch_3">
    <path d="M 57.6 307.584 
L 57.6 41.472 
" style="fill: none; stroke: #000000; stroke-width: 0.8; stroke-linejoin: miter; stroke-linecap: square"/>
   </g>
   <g id="patch_4">
    <path d="M 414.72 307.584 
L 414.72 41.472 
" style="fill: none; stroke: #000000; stroke-width: 0.8; stroke-linejoin: miter; stroke-linecap: square"/>
   </g>
   <g id="patch_5">
    <path d="M 57.6 307.584 
L 414.72 307.584 
" style="fill: none; stroke: #000000; stroke-width: 0.8; stroke-linejoin: miter; stroke-linecap: square"/>
   </g>
   <g id="patch_6">
    <path d="M 57.6 41.472 
L 414.72 41.472 
" style="fill: none; stroke: #000000; stroke-width: 0.8; stroke-linejoin: miter; stroke-linecap: square"/>
   </g>
   <g id="legend_1">
    <g id="patch_7">
     <path d="M 64.6 190.706125 
L 128.475 190.706125 
Q 130.475 190.706125 130.475 188.706125 
L 130.475 160.349875 
Q 130.475 158.349875 128.475 158.349875 
L 64.6 158.349875 
Q 62.6 158.349875 62.6 160.349875 
L 62.6 188.706125 
Q 62.6 190.706125 64.6 190.706125 
z
" style="fill: #ffffff; opacity: 0.8; stroke: #cccccc; stroke-linejoin: miter"/>
    </g>
    <g id="line2d_27">
     <path d="M 66.6 166.448312 
L 76.6 166.448312 
L 86.6 166.448312 
" style="fill: none; stroke: #008000; stroke-width: 1.5; stroke-linecap: square"/>
    </g>
    <g id="text_13">
     <!-- score -->
     <g transform="translate(94.6 169.948312)scale(0.1 -0.1)">
      <defs>
       <path id="DejaVuSans-73" d="M 2834 3397 
L 2834 2853 
Q 2591 2978 2328 3040 
Q 2066 3103 1784 3103 
Q 1356 3103 1142 2972 
Q 928 2841 928 2578 
Q 928 2378 1081 2264 
Q 1234 2150 1697 2047 
L 1894 2003 
Q 2506 1872 2764 1633 
Q 3022 1394 3022 966 
Q 3022 478 2636 193 
Q 2250 -91 1575 -91 
Q 1294 -91 989 -36 
Q 684 19 347 128 
L 347 722 
Q 666 556 975 473 
Q 1284 391 1588 391 
Q 1994 391 2212 530 
Q 2431 669 2431 922 
Q 2431 1156 2273 1281 
Q 2116 1406 1581 1522 
L 1381 1569 
Q 847 1681 609 1914 
Q 372 2147 372 2553 
Q 372 3047 722 3315 
Q 1072 3584 1716 3584 
Q 2034 3584 2315 3537 
Q 2597 3491 2834 3397 
z
" transform="scale(0.015625)"/>
       <path id="DejaVuSans-63" d="M 3122 3366 
L 3122 2828 
Q 2878 2963 2633 3030 
Q 2388 3097 2138 3097 
Q 1578 3097 1268 2742 
Q 959 2388 959 1747 
Q 959 1106 1268 751 
Q 1578 397 2138 397 
Q 2388 397 2633 464 
Q 2878 531 3122 666 
L 3122 134 
Q 2881 22 2623 -34 
Q 2366 -91 2075 -91 
Q 1284 -91 818 406 
Q 353 903 353 1747 
Q 353 2603 823 3093 
Q 1294 3584 2113 3584 
Q 2378 3584 2631 3529 
Q 2884 3475 3122 3366 
z
" transform="scale(0.015625)"/>
       <path id="DejaVuSans-6f" d="M 1959 3097 
Q 1497 3097 1228 2736 
Q 959 2375 959 1747 
Q 959 1119 1226 758 
Q 1494 397 1959 397 
Q 2419 397 2687 759 
Q 2956 1122 2956 1747 
Q 2956 2369 2687 2733 
Q 2419 3097 1959 3097 
z
M 1959 3584 
Q 2709 3584 3137 3096 
Q 3566 2609 3566 1747 
Q 3566 888 3137 398 
Q 2709 -91 1959 -91 
Q 1206 -91 779 398 
Q 353 888 353 1747 
Q 353 2609 779 3096 
Q 1206 3584 1959 3584 
z
" transform="scale(0.015625)"/>
       <path id="DejaVuSans-72" d="M 2631 2963 
Q 2534 3019 2420 3045 
Q 2306 3072 2169 3072 
Q 1681 3072 1420 2755 
Q 1159 2438 1159 1844 
L 1159 0 
L 581 0 
L 581 3500 
L 1159 3500 
L 1159 2956 
Q 1341 3275 1631 3429 
Q 1922 3584 2338 3584 
Q 2397 3584 2469 3576 
Q 2541 3569 2628 3553 
L 2631 2963 
z
" transform="scale(0.015625)"/>
       <path id="DejaVuSans-65" d="M 3597 1894 
L 3597 1613 
L 953 1613 
Q 991 1019 1311 708 
Q 1631 397 2203 397 
Q 2534 397 2845 478 
Q 3156 559 3463 722 
L 3463 178 
Q 3153 47 2828 -22 
Q 2503 -91 2169 -91 
Q 1331 -91 842 396 
Q 353 884 353 1716 
Q 353 2575 817 3079 
Q 1281 3584 2069 3584 
Q 2775 3584 3186 3129 
Q 3597 2675 3597 1894 
z
M 3022 2063 
Q 3016 2534 2758 2815 
Q 2500 3097 2075 3097 
Q 1594 3097 1305 2825 
Q 1016 2553 972 2059 
L 3022 2063 
z
" transform="scale(0.015625)"/>
      </defs>
      <use xlink:href="#DejaVuSans-73"/>
      <use xlink:href="#DejaVuSans-63" x="52.099609"/>
      <use xlink:href="#DejaVuSans-6f" x="107.080078"/>
      <use xlink:href="#DejaVuSans-72" x="168.261719"/>
      <use xlink:href="#DejaVuSans-65" x="207.125"/>
     </g>
    </g>
    <g id="line2d_28">
     <path d="M 66.6 181.126437 
L 76.6 181.126437 
L 86.6 181.126437 
" style="fill: none; stroke: #0000ff; stroke-width: 1.5; stroke-linecap: square"/>
    </g>
    <g id="text_14">
     <!-- length -->
     <g transform="translate(94.6 184.626437)scale(0.1 -0.1)">
      <defs>
       <path id="DejaVuSans-6c" d="M 603 4863 
L 1178 4863 
L 1178 0 
L 603 0 
L 603 4863 
z
" transform="scale(0.015625)"/>
       <path id="DejaVuSans-6e" d="M 3513 2113 
L 3513 0 
L 2938 0 
L 2938 2094 
Q 2938 2591 2744 2837 
Q 2550 3084 2163 3084 
Q 1697 3084 1428 2787 
Q 1159 2491 1159 1978 
L 1159 0 
L 581 0 
L 581 3500 
L 1159 3500 
L 1159 2956 
Q 1366 3272 1645 3428 
Q 1925 3584 2291 3584 
Q 2894 3584 3203 3211 
Q 3513 2838 3513 2113 
z
" transform="scale(0.015625)"/>
       <path id="DejaVuSans-67" d="M 2906 1791 
Q 2906 2416 2648 2759 
Q 2391 3103 1925 3103 
Q 1463 3103 1205 2759 
Q 947 2416 947 1791 
Q 947 1169 1205 825 
Q 1463 481 1925 481 
Q 2391 481 2648 825 
Q 2906 1169 2906 1791 
z
M 3481 434 
Q 3481 -459 3084 -895 
Q 2688 -1331 1869 -1331 
Q 1566 -1331 1297 -1286 
Q 1028 -1241 775 -1147 
L 775 -588 
Q 1028 -725 1275 -790 
Q 1522 -856 1778 -856 
Q 2344 -856 2625 -561 
Q 2906 -266 2906 331 
L 2906 616 
Q 2728 306 2450 153 
Q 2172 0 1784 0 
Q 1141 0 747 490 
Q 353 981 353 1791 
Q 353 2603 747 3093 
Q 1141 3584 1784 3584 
Q 2172 3584 2450 3431 
Q 2728 3278 2906 2969 
L 2906 3500 
L 3481 3500 
L 3481 434 
z
" transform="scale(0.015625)"/>
       <path id="DejaVuSans-74" d="M 1172 4494 
L 1172 3500 
L 2356 3500 
L 2356 3053 
L 1172 3053 
L 1172 1153 
Q 1172 725 1289 603 
Q 1406 481 1766 481 
L 2356 481 
L 2356 0 
L 1766 0 
Q 1100 0 847 248 
Q 594 497 594 1153 
L 594 3053 
L 172 3053 
L 172 3500 
L 594 3500 
L 594 4494 
L 1172 4494 
z
" transform="scale(0.015625)"/>
       <path id="DejaVuSans-68" d="M 3513 2113 
L 3513 0 
L 2938 0 
L 2938 2094 
Q 2938 2591 2744 2837 
Q 2550 3084 2163 3084 
Q 1697 3084 1428 2787 
Q 1159 2491 1159 1978 
L 1159 0 
L 581 0 
L 581 4863 
L 1159 4863 
L 1159 2956 
Q 1366 3272 1645 3428 
Q 1925 3584 2291 3584 
Q 2894 3584 3203 3211 
Q 3513 2838 3513 2113 
z
" transform="scale(0.015625)"/>
      </defs>
      <use xlink:href="#DejaVuSans-6c"/>
      <use xlink:href="#DejaVuSans-65" x="27.783203"/>
      <use xlink:href="#DejaVuSans-6e" x="89.306641"/>
      <use xlink:href="#DejaVuSans-67" x="152.685547"/>
      <use xlink:href="#DejaVuSans-74" x="216.162109"/>
      <use xlink:href="#DejaVuSans-68" x="255.371094"/>
     </g>
    </g>
   </g>
  </g>
 </g>
 <defs>
  <clipPath id="pd8a8dc1262">
   <rect x="57.6" y="41.472" width="357.12" height="266.112"/>
  </clipPath>
 </defs>
</svg>
